<svg width="120" height="103" viewBox="0 0 120 103" fill="none" xmlns="http://www.w3.org/2000/svg">
<g clip-path="url(#clip0_9_90999)">
<path fill-rule="evenodd" clip-rule="evenodd" d="M73.9385 0.972746L84.0315 6.80275C84.0873 6.82646 84.1411 6.85454 84.1925 6.88675C84.608 7.17197 84.9437 7.55856 85.1679 8.0099C85.392 8.46124 85.4973 8.96236 85.4735 9.46574V15.0377L85.4795 15.0307L85.4735 55.3617C85.3698 56.7966 84.9311 58.1872 84.1925 59.4217C83.455 60.7604 82.388 61.8887 81.0925 62.6997L15.2425 100.716C14.7994 101.037 14.2783 101.235 13.7333 101.288C13.1883 101.34 12.639 101.246 12.1425 101.016C12.0975 100.99 12.0425 100.958 12.0075 100.932L1.90748 95.1027C1.53601 94.8033 1.23926 94.4215 1.04072 93.9876C0.842172 93.5537 0.747287 93.0796 0.763495 92.6027V46.7027C0.885336 45.2277 1.34308 43.8 2.10175 42.5292C2.86042 41.2583 3.8999 40.1779 5.14051 39.3707L70.9905 1.34874C71.4164 1.05578 71.9061 0.868821 72.4189 0.803419C72.9317 0.738017 73.4527 0.796077 73.9385 0.972746Z" fill="white"/>
<path fill-rule="evenodd" clip-rule="evenodd" d="M72.917 1.5227C72.3637 1.55477 71.8276 1.72681 71.359 2.0227L5.52197 40.0227C4.389 40.7665 3.44014 41.7584 2.74713 42.9232C2.05413 44.0879 1.63514 45.3951 1.52197 46.7457L1.52899 92.5987C1.5104 92.9558 1.57611 93.3122 1.72083 93.6391C1.86554 93.9661 2.0852 94.2544 2.362 94.4807L12.384 100.265C12.7772 100.459 13.2162 100.541 13.6528 100.502C14.0895 100.463 14.5071 100.305 14.86 100.045L80.709 62.0387C81.8869 61.2909 82.8583 60.2594 83.534 59.0387C84.2109 57.9085 84.6139 56.6355 84.711 55.3217L84.718 15.1327C84.7124 15.0997 84.7101 15.0662 84.711 15.0327V9.46571C84.7327 9.09468 84.6612 8.72411 84.5032 8.38774C84.3451 8.05136 84.1054 7.75984 83.806 7.53971L73.606 1.6587C73.3884 1.56895 73.1553 1.52275 72.92 1.5227H72.917ZM13.286 102.077C12.7512 102.081 12.225 101.943 11.761 101.677C11.741 101.664 11.587 101.568 11.573 101.561L1.526 95.7607C1.04923 95.3977 0.66371 94.9284 0.400024 94.3903C0.136339 93.8522 0.00176848 93.2599 0.00701904 92.6607L0 46.7177C0.119577 45.1105 0.61032 43.5528 1.43365 42.1673C2.25699 40.7818 3.39047 39.6061 4.745 38.7327L70.614 0.703699C71.1412 0.352 71.7445 0.130612 72.374 0.0577639C73.0036 -0.0150841 73.6414 0.0627016 74.235 0.284708C74.2627 0.29322 74.2888 0.306412 74.312 0.323709L84.412 6.1527C84.9788 6.4899 85.4457 6.9717 85.765 7.54876C86.0843 8.12582 86.2444 8.77738 86.229 9.4367V14.9367C86.2344 14.9697 86.2364 15.0033 86.235 15.0367L86.229 55.3677C86.1269 56.9369 85.6525 58.4593 84.845 59.8087C84.0432 61.2636 82.8811 62.4881 81.47 63.3647L15.614 101.382C14.9122 101.813 14.1095 102.053 13.286 102.077Z" fill="#2979E4"/>
<path fill-rule="evenodd" clip-rule="evenodd" d="M10.8656 52.5399L0.765625 46.7109V52.2839L10.8656 58.1129V52.5399Z" fill="white"/>
<path fill-rule="evenodd" clip-rule="evenodd" d="M1.526 51.844L10.099 56.793V52.979L1.526 48.03V51.844ZM10.862 58.869C10.7287 58.8677 10.5978 58.8334 10.481 58.769L0.381042 52.94C0.266259 52.8719 0.170911 52.7755 0.104187 52.6599C0.0374629 52.5443 0.00156395 52.4135 0 52.28V46.707C0.000784663 46.5734 0.0363487 46.4423 0.103149 46.3266C0.16995 46.2109 0.265731 46.1145 0.381042 46.047C0.496054 45.9804 0.6266 45.9453 0.759521 45.9453C0.892443 45.9453 1.02299 45.9804 1.138 46.047L11.238 51.876C11.3543 51.9422 11.4508 52.0381 11.5178 52.1539C11.5847 52.2697 11.6197 52.4013 11.619 52.535V58.108C11.6198 58.2418 11.5849 58.3734 11.5179 58.4892C11.451 58.6051 11.3544 58.7009 11.238 58.767C11.124 58.8341 10.9942 58.8696 10.862 58.87V58.869Z" fill="#2979E4"/>
<path fill-rule="evenodd" clip-rule="evenodd" d="M84.0406 6.80347L73.9406 0.973483C73.4537 0.801236 72.9331 0.746061 72.421 0.812426C71.9088 0.878791 71.4195 1.06482 70.9926 1.35547L5.14258 39.3775C3.90063 40.1832 2.86016 41.2633 2.10132 42.5344C1.34248 43.8056 0.885549 45.2339 0.765625 46.7095L10.8656 52.5385C10.9662 51.105 11.4048 49.7158 12.1456 48.4845C12.8827 47.1455 13.9498 46.0171 15.2456 45.2065L81.0956 7.18347C81.5006 6.91319 81.9592 6.73343 82.4399 6.65647C82.9207 6.5795 83.4125 6.60713 83.8816 6.73747L84.0406 6.80347Z" fill="#F2F5FC"/>
<path fill-rule="evenodd" clip-rule="evenodd" d="M1.56444 46.2968L10.2544 51.3108C10.4824 50.1813 10.8975 49.0977 11.4825 48.1048C12.2841 46.6534 13.4439 45.4312 14.8515 44.5548L80.7074 6.53185C80.9403 6.39876 81.1823 6.28214 81.4314 6.18285L73.5625 1.63384C73.1894 1.53364 72.7987 1.51699 72.4184 1.5851C72.0382 1.6532 71.6776 1.80437 71.3625 2.02783L5.52544 40.0278C4.45814 40.7305 3.55309 41.6528 2.87072 42.7332C2.18834 43.8136 1.74437 45.0272 1.56847 46.2928L1.56444 46.2968ZM10.8645 53.3028C10.7313 53.301 10.6004 53.2666 10.4834 53.2028L0.383472 47.3738C0.261981 47.3037 0.162524 47.201 0.0964236 47.0773C0.0303228 46.9536 0.000196174 46.8138 0.00944847 46.6738C0.135813 45.0735 0.629813 43.5239 1.45299 42.1457C2.27617 40.7675 3.40635 39.5979 4.75548 38.7278L70.6185 0.704834C71.1496 0.342397 71.7617 0.116317 72.4009 0.0465548C73.0401 -0.0232072 73.6867 0.0655014 74.2835 0.30484L84.4215 6.15384C84.5892 6.25119 84.7135 6.40875 84.7693 6.5945C84.825 6.78025 84.8079 6.98024 84.7215 7.15384C84.6344 7.32791 84.4843 7.4623 84.3017 7.52972C84.1192 7.59715 83.9178 7.59255 83.7384 7.51685L83.5815 7.44183C83.2195 7.36388 82.8454 7.36029 82.482 7.43129C82.1186 7.50228 81.7735 7.64639 81.4675 7.85484L15.6175 45.8648C14.441 46.6103 13.4733 47.6426 12.8055 48.8648C12.1224 49.9952 11.717 51.2715 11.6225 52.5888C11.6169 52.7186 11.5776 52.8446 11.5085 52.9545C11.4395 53.0644 11.3429 53.1545 11.2284 53.2158C11.115 53.2732 10.9896 53.3027 10.8625 53.3018L10.8645 53.3028Z" fill="#2979E4"/>
<path fill-rule="evenodd" clip-rule="evenodd" d="M10.8578 58.1142L0.757812 52.2852C0.757812 65.7205 0.760165 79.1621 0.764832 92.6101C0.748623 93.087 0.843508 93.5611 1.04205 93.995C1.2406 94.4289 1.53734 94.8107 1.90881 95.1101L12.0088 100.939C11.6377 100.639 11.3411 100.258 11.1425 99.8237C10.9438 99.39 10.8484 98.916 10.8638 98.4391C10.8645 84.9978 10.8625 71.5562 10.8578 58.1142Z" fill="#F2F5FC"/>
<path fill-rule="evenodd" clip-rule="evenodd" d="M1.52006 53.5961L1.52702 92.608C1.50843 92.9651 1.5742 93.3215 1.71891 93.6485C1.86362 93.9754 2.08322 94.2637 2.36002 94.49L10.152 98.99C10.133 98.816 10.113 98.647 10.107 98.49L10.094 58.5461L1.52103 53.597L1.52006 53.5961ZM12.008 101.69C11.8744 101.688 11.7433 101.654 11.626 101.59L1.52604 95.7551C1.04927 95.392 0.663748 94.9228 0.400062 94.3846C0.136377 93.8465 0.00180654 93.2543 0.0070571 92.655L3.80581e-05 52.285C-0.00130029 52.1517 0.0326812 52.0204 0.0985488 51.9045C0.164416 51.7886 0.259821 51.6921 0.375038 51.625C0.49116 51.5585 0.622654 51.5234 0.756508 51.5234C0.890362 51.5234 1.02192 51.5585 1.13804 51.625L11.2311 57.455C11.3479 57.5206 11.4449 57.6163 11.5119 57.7323C11.579 57.8483 11.6135 57.9801 11.612 58.114L11.6191 98.439C11.6001 98.7968 11.6665 99.1539 11.8127 99.481C11.9589 99.808 12.1808 100.096 12.4601 100.32C12.6152 100.436 12.7202 100.607 12.7538 100.798C12.7874 100.989 12.7471 101.186 12.641 101.348C12.5714 101.452 12.4773 101.538 12.367 101.597C12.2566 101.657 12.1334 101.688 12.008 101.689V101.69Z" fill="#2979E4"/>
<path fill-rule="evenodd" clip-rule="evenodd" d="M84.1921 59.4201C84.9307 58.1855 85.3694 56.7949 85.4731 55.3601L62.3731 48.5391L51.5371 64.2561C50.6624 65.5765 49.5107 66.6906 48.1621 67.5211C47.6728 67.8491 47.1218 68.0738 46.5427 68.1816C45.9636 68.2894 45.3686 68.278 44.7941 68.1481L33.9581 64.9411L10.8631 98.4411C10.8378 98.9447 10.9422 99.4464 11.1664 99.8981C11.3905 100.35 11.7268 100.737 12.1431 101.021C12.6397 101.252 13.1889 101.346 13.7339 101.293C14.279 101.24 14.8 101.043 15.2431 100.721L81.0931 62.7051C82.389 61.8919 83.4558 60.7611 84.1921 59.4201Z" fill="white"/>
<path fill-rule="evenodd" clip-rule="evenodd" d="M11.6409 98.6502C11.643 98.9844 11.7243 99.3134 11.8782 99.6101C12.032 99.9068 12.2539 100.163 12.5258 100.357C12.9074 100.514 13.3233 100.569 13.7326 100.516C14.1418 100.464 14.5303 100.305 14.8599 100.057L80.7098 62.0402C81.8869 61.2944 82.8582 60.2653 83.5349 59.0472C84.1042 58.0825 84.486 57.0188 84.6599 55.9122L62.6909 49.4262L52.1658 64.6842C51.2272 66.0999 49.9916 67.2942 48.5449 68.1842C47.9673 68.5656 47.3173 68.8239 46.6354 68.9428C45.9535 69.0617 45.2544 69.0387 44.5819 68.8752L34.2769 65.8302L11.6419 98.6552L11.6409 98.6502ZM13.2888 102.077C12.7541 102.081 12.2279 101.943 11.7639 101.677C11.2355 101.33 10.8056 100.852 10.5156 100.291C10.2255 99.729 10.0851 99.102 10.1079 98.4702C10.0978 98.3047 10.1436 98.1406 10.2379 98.0042L33.3319 64.5042C33.425 64.3731 33.5563 64.2739 33.7079 64.2202C33.8595 64.1665 34.024 64.1609 34.1788 64.2042L45.0148 67.4112C45.4898 67.5111 45.9801 67.5133 46.456 67.4178C46.9319 67.3222 47.3833 67.1308 47.7828 66.8552C49.0353 66.0833 50.1031 65.0459 50.9108 63.8162L61.7479 48.0992C61.8389 47.9676 61.9689 47.8679 62.1196 47.8141C62.2703 47.7603 62.434 47.7551 62.5878 47.7992L85.6879 54.6202C85.8501 54.6692 85.9914 54.7708 86.0897 54.9089C86.188 55.047 86.2377 55.2138 86.2308 55.3832C86.1241 56.9415 85.6499 58.4524 84.8469 59.7922C84.0452 61.2471 82.883 62.4716 81.4719 63.3482L15.6159 101.365C14.916 101.802 14.1135 102.048 13.2888 102.077Z" fill="#2979E4"/>
<path fill-rule="evenodd" clip-rule="evenodd" d="M10.8594 58.1133V92.8773L10.8664 92.8643V98.4383L33.9604 64.9383L30.7724 63.9943L10.8594 58.1133Z" fill="white"/>
<path fill-rule="evenodd" clip-rule="evenodd" d="M11.6099 92.766C11.6158 92.799 11.6181 92.8325 11.6169 92.866V95.996L32.7328 65.375L11.6099 59.126V92.766ZM10.8599 99.199C10.7825 99.1989 10.7058 99.1857 10.6329 99.16C10.4783 99.1118 10.343 99.0157 10.2466 98.8856C10.1503 98.7554 10.0978 98.598 10.0969 98.436V92.967C10.0969 92.941 10.0898 92.909 10.0898 92.876V58.111C10.0905 57.9917 10.1188 57.8741 10.1726 57.7675C10.2264 57.661 10.3042 57.5684 10.3998 57.497C10.4937 57.4263 10.6031 57.3788 10.7189 57.3586C10.8347 57.3385 10.9536 57.3461 11.0659 57.381L34.1729 64.208C34.2885 64.2418 34.3944 64.303 34.4814 64.3864C34.5685 64.4697 34.6341 64.5729 34.6729 64.687C34.7145 64.8 34.728 64.9214 34.7121 65.0408C34.6962 65.1601 34.6515 65.2738 34.5818 65.372L11.4879 98.863C11.4187 98.9653 11.3258 99.0493 11.2172 99.1078C11.1085 99.1663 10.9873 99.1976 10.8639 99.199H10.8599Z" fill="#2979E4"/>
<path fill-rule="evenodd" clip-rule="evenodd" d="M85.4721 55.3583L85.4781 15.0273L65.5651 43.9083L62.3711 48.5373L85.4721 55.3583Z" fill="white"/>
<path fill-rule="evenodd" clip-rule="evenodd" d="M63.5941 48.1037L84.7101 54.3427L84.7171 17.4717L63.5941 48.1037ZM85.4731 56.1207C85.3987 56.1197 85.3248 56.1089 85.2531 56.0887L62.1591 49.2677C62.045 49.2312 61.9406 49.1692 61.854 49.0864C61.7673 49.0036 61.7007 48.9021 61.6591 48.7897C61.6203 48.6763 61.6082 48.5555 61.6238 48.4367C61.6394 48.3178 61.6823 48.2042 61.7491 48.1047L84.8561 14.6047C84.9452 14.4691 85.0762 14.3663 85.2292 14.3122C85.3821 14.258 85.5486 14.2554 85.7032 14.3047C85.8586 14.3516 85.9948 14.4474 86.0915 14.5778C86.1883 14.7082 86.2404 14.8663 86.2401 15.0287L86.2331 55.3597C86.2341 55.4773 86.2075 55.5935 86.1554 55.6989C86.1033 55.8044 86.0272 55.8961 85.9331 55.9667C85.8013 56.0672 85.6399 56.1213 85.4741 56.1207H85.4731Z" fill="#2979E4"/>
<path fill-rule="evenodd" clip-rule="evenodd" d="M81.0894 7.18625L15.2394 45.2092C13.9438 46.0201 12.8767 47.1484 12.1393 48.4872C11.3983 49.7185 10.9597 51.1078 10.8594 52.5412V58.1142C44.5594 68.0772 11.7904 58.3922 44.7894 68.1482C45.3639 68.2782 45.9589 68.2896 46.538 68.1818C47.1171 68.074 47.6681 67.8492 48.1573 67.5212C49.506 66.6908 50.6577 65.5766 51.5323 64.2562C86.2643 13.8842 52.1924 63.2922 85.4694 15.0352V9.46824C85.4931 8.96486 85.3879 8.46374 85.1638 8.0124C84.9396 7.56107 84.6038 7.17447 84.1884 6.88925C83.6916 6.66046 83.1432 6.56741 82.5988 6.61958C82.0544 6.67175 81.5336 6.86728 81.0894 7.18625Z" fill="white"/>
<path fill-rule="evenodd" clip-rule="evenodd" d="M11.6216 57.5438L45.0146 67.4168C45.4896 67.5167 45.9799 67.519 46.4557 67.4234C46.9316 67.3278 47.383 67.1364 47.7826 66.8608C49.0351 66.089 50.1029 65.0516 50.9106 63.8218C67.4946 39.7708 68.3935 38.4708 68.4255 38.4218L68.4846 38.4608C68.7846 37.8978 69.4486 36.9338 70.6696 35.1608L84.7126 14.8018V9.46784C84.7344 9.09664 84.6631 8.72587 84.505 8.3893C84.3469 8.05273 84.1072 7.76106 83.8076 7.54084C83.4253 7.38728 83.0101 7.33422 82.6015 7.38674C82.1929 7.43925 81.8046 7.5956 81.4736 7.84084L15.6176 45.8578C14.4428 46.6054 13.4756 47.6373 12.8055 48.8578C12.1249 49.9846 11.7196 51.256 11.6226 52.5688V57.5408L11.6216 57.5438ZM45.7065 69.0348C45.3258 69.034 44.9471 68.9795 44.5815 68.8728L10.6446 58.8458C10.488 58.7977 10.3509 58.7008 10.2532 58.5693C10.1556 58.4379 10.1024 58.2786 10.1016 58.1148V52.5348C10.204 50.968 10.678 49.4481 11.4846 48.1008C12.2884 46.6475 13.4501 45.4235 14.8596 44.5448L80.7065 6.53484V6.52783C81.2645 6.13767 81.9168 5.90406 82.5956 5.85131C83.2745 5.79855 83.955 5.92857 84.5666 6.22783C85.0944 6.57435 85.5243 7.05056 85.8153 7.61086C86.1063 8.17116 86.2486 8.79678 86.2286 9.42783V15.0348C86.2283 15.1888 86.1832 15.3392 86.0986 15.4678C70.5746 37.9798 69.7096 39.2348 69.6766 39.2798L69.6125 39.2408C69.3025 39.8228 68.5985 40.8408 67.2845 42.7518L52.1626 64.6828C51.224 66.0985 49.9883 67.2928 48.5416 68.1828C47.6884 68.7123 46.7102 69.0063 45.7065 69.0348Z" fill="#2979E4"/>
<path fill-rule="evenodd" clip-rule="evenodd" d="M85.4703 15.0358V9.46875L50.3893 60.3387C49.8133 61.2135 49.0515 61.9507 48.1583 62.4978C47.8359 62.7157 47.472 62.8649 47.0894 62.9361C46.7068 63.0073 46.3136 62.999 45.9343 62.9118L10.8594 52.5408V58.1138C41.2854 67.1068 18.1524 60.2728 44.7894 68.1478C45.3639 68.2777 45.9589 68.289 46.538 68.1812C47.117 68.0734 47.6681 67.8487 48.1573 67.5208C49.506 66.6903 50.6577 65.5761 51.5323 64.2558C86.2654 13.8848 52.1983 63.2928 85.4703 15.0358Z" fill="#F2F5FC"/>
<path fill-rule="evenodd" clip-rule="evenodd" d="M11.6216 57.5445L45.0146 67.4175C45.4896 67.5174 45.9798 67.5196 46.4557 67.424C46.9315 67.3284 47.383 67.1371 47.7826 66.8615C49.0351 66.0897 50.1029 65.0523 50.9106 63.8225C67.4946 39.7715 68.3935 38.4715 68.4255 38.4225L68.4846 38.4615C68.7846 37.8986 69.4486 36.9345 70.6696 35.1615L84.7126 14.8026V11.9025L51.0215 60.7676C50.3814 61.735 49.5361 62.5497 48.5456 63.1536C48.1339 63.4231 47.6713 63.6051 47.1864 63.6886C46.7015 63.772 46.2046 63.755 45.7266 63.6386L11.6266 53.5586V57.5416L11.6216 57.5445ZM45.7065 69.0335C45.3258 69.0327 44.9471 68.9782 44.5815 68.8715L10.6446 58.8445C10.488 58.7964 10.3509 58.6995 10.2532 58.5681C10.1556 58.4366 10.1024 58.2773 10.1016 58.1135V52.5405C10.102 52.4221 10.1304 52.3055 10.1842 52.2001C10.2381 52.0946 10.3159 52.0033 10.4116 51.9336C10.5055 51.8629 10.6145 51.815 10.7301 51.7936C10.8457 51.7723 10.9646 51.7781 11.0776 51.8106L46.1595 62.1805C46.4388 62.2365 46.7265 62.2355 47.0053 62.1778C47.2842 62.1201 47.5485 62.0067 47.7826 61.8445C48.5793 61.3552 49.2573 60.695 49.7676 59.9115L84.8486 9.03554C84.9409 8.90165 85.0733 8.80049 85.2267 8.74658C85.3802 8.69268 85.5468 8.68882 85.7026 8.73555C85.857 8.78541 85.9916 8.8831 86.0869 9.01451C86.1822 9.14592 86.2332 9.30423 86.2325 9.46654V15.0335C86.2323 15.1875 86.1871 15.338 86.1025 15.4665C70.5785 37.9785 69.7135 39.2336 69.6805 39.2786L69.6166 39.2395C69.3066 39.8216 68.6026 40.8396 67.2886 42.7506L52.1666 64.6816C51.2279 66.0972 49.9923 67.2916 48.5456 68.1816C47.6912 68.7114 46.7115 69.006 45.7065 69.0335Z" fill="#2979E4"/>
<path fill-rule="evenodd" clip-rule="evenodd" d="M11.8286 49.0704L1.72858 43.2344C1.17409 44.3143 0.846415 45.4962 0.765625 46.7074L10.8656 52.5364C10.9478 51.3276 11.2755 50.1483 11.8286 49.0704Z" fill="#F2F5FC"/>
<path fill-rule="evenodd" clip-rule="evenodd" d="M1.56401 46.288L10.2471 51.309C10.3791 50.6478 10.5802 50.0023 10.847 49.383L2.07402 44.316C1.81768 44.948 1.64686 45.6111 1.56401 46.288ZM10.8641 53.3C10.7308 53.2981 10.6 53.2638 10.483 53.2L0.383042 47.371C0.262489 47.2999 0.16385 47.1969 0.0978854 47.0735C0.0319206 46.95 0.00114845 46.8108 0.00901823 46.671C0.0937717 45.3585 0.448159 44.0775 1.05003 42.908C1.09579 42.8142 1.16087 42.7312 1.24101 42.6643C1.32115 42.5974 1.41457 42.5483 1.51506 42.52C1.61403 42.4882 1.71857 42.4775 1.82195 42.4887C1.92532 42.4999 2.02518 42.5327 2.11504 42.585L12.215 48.421C12.3816 48.5167 12.5054 48.6722 12.5611 48.856C12.6169 49.0398 12.6004 49.238 12.5151 49.41C12.0024 50.3978 11.6987 51.4807 11.623 52.591C11.6174 52.7207 11.5782 52.8468 11.5091 52.9567C11.44 53.0666 11.3435 53.1567 11.229 53.218C11.115 53.2741 10.9892 53.3022 10.862 53.3H10.8641Z" fill="#2979E4"/>
<path fill-rule="evenodd" clip-rule="evenodd" d="M65.2021 100.463C58.6711 104.239 53.3281 101.17 53.3281 93.6064C53.3281 86.7374 57.7221 78.5254 63.4211 74.2454C64.4901 64.0334 71.6151 52.5214 80.2211 47.5574C85.8621 44.2684 90.9091 44.6194 93.9951 47.8484C95.0278 46.8893 96.163 46.0469 97.3801 45.3364C102.604 42.3364 106.997 43.6624 108.601 48.1274C114.538 45.4204 119.169 48.5614 119.169 55.6274C119.169 63.1914 113.885 72.3884 107.294 76.1644L65.2021 100.463Z" fill="#1B69FF"/>
</g>
<defs>
<clipPath id="clip0_9_90999">
<rect width="119.17" height="102.078" fill="white"/>
</clipPath>
</defs>
</svg>
