<svg width="86" height="109" viewBox="0 0 86 109" fill="none" xmlns="http://www.w3.org/2000/svg">
<g clip-path="url(#clip0_9_91340)">
<path d="M6.61395 108.998C6.39517 108.998 6.18536 108.912 6.03067 108.758C5.87597 108.604 5.78906 108.395 5.78906 108.178V108.158C5.7891 107.985 5.84405 107.817 5.94606 107.677C6.04807 107.537 6.19193 107.433 6.3571 107.379L57.8777 77.8368C57.9716 77.7804 58.0759 77.7432 58.1845 77.7274C58.293 77.7116 58.4037 77.7175 58.5099 77.7447C58.6161 77.7719 58.7159 77.82 58.8032 77.886C58.8906 77.952 58.9638 78.0346 59.0186 78.1291C59.0734 78.2236 59.1087 78.328 59.1224 78.4362C59.1361 78.5444 59.128 78.6543 59.0985 78.7594C59.069 78.8644 59.0187 78.9625 58.9506 79.048C58.8824 79.1335 58.7978 79.2046 58.7017 79.2572L7.02595 108.887C6.90086 108.959 6.75875 108.998 6.61395 108.998Z" fill="#1B69FF"/>
<path d="M6.61427 108.981C6.42242 108.982 6.23646 108.916 6.08843 108.794C5.95093 108.682 5.82059 108.561 5.69828 108.433C5.31138 108.077 5.02021 107.631 4.85143 107.134C4.71301 106.657 4.63035 106.165 4.6051 105.669C4.58487 105.453 4.65198 105.237 4.79172 105.07C4.93146 104.902 5.13245 104.797 5.3503 104.777C5.56814 104.757 5.78505 104.824 5.95339 104.962C6.12173 105.101 6.22765 105.301 6.24787 105.518C6.34255 106.529 6.38721 106.811 6.86145 107.27L6.88949 107.299C6.96642 107.38 7.04842 107.457 7.13496 107.528C7.26645 107.636 7.36135 107.781 7.40655 107.944C7.45175 108.107 7.44511 108.28 7.3875 108.439C7.32989 108.598 7.22425 108.736 7.08488 108.833C6.94552 108.93 6.77932 108.982 6.60913 108.982L6.61427 108.981Z" fill="#1B69FF"/>
<path d="M53.1759 26.8483C53.0302 26.8482 52.8871 26.8097 52.7613 26.7368L47.8321 23.8863C47.7074 23.8142 47.6039 23.7108 47.5319 23.5865C47.4599 23.4621 47.4219 23.3212 47.4219 23.1778V13.4053C47.4219 13.1879 47.5088 12.9793 47.6635 12.8255C47.8182 12.6717 48.028 12.5853 48.2468 12.5853C48.4655 12.5853 48.6753 12.6717 48.83 12.8255C48.9847 12.9793 49.0716 13.1879 49.0716 13.4053V22.7063L52.3536 24.6035L52.3712 12.8982C52.3712 12.6807 52.4581 12.4721 52.6128 12.3183C52.7675 12.1645 52.9773 12.0781 53.1961 12.0781C53.4148 12.0781 53.6246 12.1645 53.7793 12.3183C53.934 12.4721 54.0209 12.6807 54.0209 12.8982L54.0008 26.0265C54.0006 26.2439 53.9135 26.4522 53.7589 26.6058C53.6042 26.7594 53.3945 26.8457 53.1759 26.8457V26.8483Z" fill="#1B69FF"/>
<path d="M53.1929 13.7194C53 13.719 52.8133 13.6514 52.6654 13.5283C52.5174 13.4052 52.4175 13.2344 52.3831 13.0457C52.2267 12.1912 51.9756 11.3564 51.6344 10.5568C51.6283 10.5446 51.6239 10.5316 51.6186 10.5185C51.5265 10.2695 51.4175 10.027 51.2924 9.79262C51.2828 9.77519 51.274 9.75776 51.2661 9.74033C51.1579 9.50017 51.0342 9.26725 50.8955 9.04313C50.8884 9.0318 50.8815 9.02049 50.8762 9.00829C50.6072 8.51913 50.3083 8.0468 49.9812 7.59394L49.8145 7.36475C49.7444 7.27802 49.6929 7.178 49.6629 7.07083C49.633 6.96365 49.6253 6.85155 49.6403 6.74132C49.6553 6.63109 49.6927 6.52504 49.7503 6.42963C49.8078 6.33423 49.8842 6.25145 49.975 6.18635C50.0657 6.12125 50.1688 6.07517 50.278 6.05093C50.3872 6.02669 50.5002 6.02484 50.6102 6.0454C50.7201 6.06596 50.8248 6.10853 50.9177 6.17055C51.0106 6.23257 51.0898 6.3127 51.1506 6.40613L51.3188 6.63707C51.6811 7.1397 52.0128 7.6635 52.312 8.20567C52.4786 8.47864 52.6282 8.76156 52.7599 9.05276C52.9117 9.33904 53.0445 9.63478 53.1578 9.93814C53.5431 10.8441 53.8269 11.7895 54.0038 12.7573C54.0252 12.8756 54.0202 12.9971 53.9892 13.1133C53.9582 13.2294 53.902 13.3375 53.8245 13.4296C53.7469 13.5218 53.6498 13.5959 53.5402 13.6467C53.4307 13.6976 53.3112 13.7238 53.1903 13.7237L53.1929 13.7194Z" fill="#1B69FF"/>
<path d="M53.1765 26.8474C53.0681 26.8474 52.9607 26.8262 52.8606 26.7849C52.7604 26.7437 52.6695 26.6832 52.5929 26.607C52.5163 26.5307 52.4555 26.4402 52.4141 26.3406C52.3727 26.241 52.3514 26.1343 52.3516 26.0265L52.3717 12.8982C52.3717 12.6807 52.4586 12.4721 52.6133 12.3183C52.768 12.1645 52.9778 12.0781 53.1966 12.0781C53.4154 12.0781 53.6252 12.1645 53.7799 12.3183C53.9346 12.4721 54.0215 12.6807 54.0215 12.8982L54.004 24.6035L59.9763 21.1717C60.0701 21.1157 60.1742 21.0789 60.2825 21.0633C60.3908 21.0477 60.5012 21.0537 60.6072 21.081C60.7131 21.1082 60.8126 21.1561 60.8997 21.222C60.9869 21.2878 61.0599 21.3702 61.1147 21.4644C61.1695 21.5586 61.2049 21.6626 61.2188 21.7706C61.2327 21.8785 61.2249 21.9881 61.1958 22.0929C61.1667 22.1978 61.1169 22.2959 61.0493 22.3815C60.9817 22.467 60.8976 22.5383 60.802 22.5913L53.5902 26.735C53.4647 26.8081 53.3219 26.8469 53.1765 26.8474Z" fill="#1B69FF"/>
<path d="M60.3846 22.7054C60.202 22.7057 60.0243 22.6456 59.8797 22.5348C59.7351 22.424 59.6317 22.2686 59.5855 22.093C59.5392 21.9174 59.5529 21.7315 59.6244 21.5644C59.6959 21.3974 59.821 21.2586 59.9803 21.1699C60.5501 20.8527 61.2076 20.478 61.7423 20.1059L61.753 20.0989C62.8496 19.3634 63.3913 18.7464 63.408 18.2148C63.4255 17.6632 62.882 16.9451 61.83 16.1373C61.6568 16.0044 61.5438 15.8086 61.5159 15.5928C61.4879 15.3771 61.5474 15.1592 61.6811 14.987C61.8148 14.8148 62.0117 14.7025 62.2287 14.6747C62.4457 14.6469 62.6648 14.7059 62.838 14.8388C63.4751 15.2994 64.034 15.8584 64.4932 16.4946C64.8922 17.016 65.0922 17.661 65.0578 18.3152C65.0235 18.9694 64.757 19.5903 64.3055 20.0675C63.8328 20.6008 63.2876 21.066 62.6857 21.4496C62.0905 21.8618 61.3943 22.2601 60.7921 22.5956C60.6681 22.6668 60.5278 22.7047 60.3846 22.7054Z" fill="#1B69FF"/>
<path d="M53.1719 13.6841C52.9785 13.6839 52.7915 13.6161 52.6433 13.4927C52.4951 13.3692 52.3951 13.1979 52.361 13.0087C51.8969 10.813 50.9311 8.75277 49.5381 6.98737C48.1452 5.22196 46.3624 3.79868 44.3277 2.82761C39.8325 0.705631 37.9128 1.59538 33.6245 3.99623C33.5301 4.0491 33.4262 4.08297 33.3186 4.0959C33.2111 4.10884 33.102 4.10056 32.9976 4.07159C32.8933 4.04262 32.7957 3.99355 32.7104 3.92708C32.6251 3.86062 32.5539 3.77806 32.5007 3.68422C32.4475 3.59038 32.4135 3.48707 32.4005 3.38014C32.3875 3.27321 32.3958 3.1648 32.4249 3.06106C32.454 2.95731 32.5034 2.8603 32.5702 2.77554C32.6371 2.69078 32.7202 2.61991 32.8146 2.56704C35.0938 1.29123 36.7216 0.43198 38.5247 0.120873C40.5085 -0.221607 42.5167 0.156607 45.0378 1.34614C47.2453 2.41165 49.1904 3.94612 50.7358 5.84109C52.3839 7.82375 53.4998 10.1893 53.9792 12.7168C53.9984 12.8228 53.9965 12.9315 53.9734 13.0367C53.9503 13.1419 53.9064 13.2416 53.8445 13.3299C53.7827 13.4183 53.704 13.4937 53.6128 13.5518C53.5215 13.6099 53.4196 13.6495 53.3129 13.6684C53.2664 13.6777 53.2193 13.6829 53.1719 13.6841Z" fill="#1B69FF"/>
<path d="M62.1921 72.6588C62.0837 72.6588 61.9765 72.6376 61.8764 72.5964C61.7763 72.5552 61.6854 72.4948 61.6088 72.4186C61.5322 72.3425 61.4714 72.2521 61.43 72.1526C61.3885 72.0531 61.3672 71.9464 61.3672 71.8388L61.3873 20.7771C61.3873 20.5602 61.4738 20.3521 61.6277 20.1984C61.7816 20.0448 61.9906 19.958 62.2087 19.957C62.4275 19.957 62.6373 20.0434 62.792 20.1972C62.9467 20.351 63.0336 20.5596 63.0336 20.7771L63.017 71.8388C63.017 72.0562 62.93 72.2648 62.7754 72.4186C62.6207 72.5724 62.4108 72.6588 62.1921 72.6588Z" fill="#1B69FF"/>
<path d="M58.291 79.368C58.1091 79.3682 57.9321 79.3088 57.7878 79.1988C57.6435 79.0888 57.5399 78.9345 57.4929 78.7599C57.4459 78.5852 57.4582 78.4001 57.528 78.2331C57.5978 78.0662 57.7213 77.9269 57.879 77.8369C58.8874 77.1733 59.7272 76.2864 60.3329 75.2459C60.9385 74.2053 61.2934 73.0394 61.3696 71.8395C61.3696 71.6221 61.4565 71.4135 61.6112 71.2597C61.7659 71.1059 61.9756 71.0195 62.1944 71.0195C62.4131 71.0195 62.6231 71.1059 62.7778 71.2597C62.9325 71.4135 63.0192 71.6221 63.0192 71.8395C62.9437 73.328 62.5128 74.7773 61.7621 76.0673C61.0113 77.3574 59.9625 78.4512 58.7021 79.2582C58.5772 79.3302 58.4353 79.3681 58.291 79.368Z" fill="#1B69FF"/>
<path d="M5.42948 106.415C5.32115 106.415 5.21391 106.394 5.11387 106.353C5.01384 106.311 4.92297 106.251 4.84645 106.175C4.76994 106.098 4.70927 106.008 4.66792 105.908C4.62658 105.809 4.60535 105.702 4.60547 105.594L4.65281 29.1004C4.65292 28.9927 4.67437 28.8861 4.71593 28.7867C4.75749 28.6872 4.81835 28.5969 4.89503 28.5208C4.97171 28.4448 5.06271 28.3844 5.16283 28.3433C5.26295 28.3022 5.37024 28.2811 5.47857 28.2813C5.58689 28.2814 5.69413 28.3027 5.79417 28.344C5.8942 28.3853 5.98507 28.4458 6.06159 28.522C6.13811 28.5983 6.19877 28.6887 6.24012 28.7883C6.28147 28.8878 6.30269 28.9945 6.30257 29.1022L6.25436 105.593C6.25471 105.701 6.23362 105.808 6.19233 105.907C6.15103 106.007 6.09032 106.098 6.01369 106.174C5.93706 106.251 5.846 106.311 5.74575 106.353C5.6455 106.394 5.53802 106.415 5.42948 106.415Z" fill="#1B69FF"/>
<path d="M5.47424 29.9233H5.43208C5.21369 29.9125 5.00874 29.816 4.86195 29.6548C4.71516 29.4937 4.6387 29.2812 4.64943 29.0641C4.72539 27.5486 5.1623 26.0727 5.92432 24.7579C6.68633 23.4431 7.75166 22.3271 9.03245 21.5017C9.12333 21.4424 9.22504 21.4015 9.33185 21.3814C9.43867 21.3614 9.54842 21.3625 9.6548 21.3847C9.76118 21.407 9.862 21.4499 9.95164 21.5111C10.0413 21.5722 10.1178 21.6504 10.177 21.7411C10.2361 21.8317 10.2768 21.9331 10.2964 22.0394C10.316 22.1457 10.3142 22.2548 10.2913 22.3604C10.2683 22.4661 10.2247 22.5661 10.1627 22.6549C10.1007 22.7437 10.0216 22.8194 9.93002 22.8777C8.87014 23.5632 7.98859 24.4885 7.35778 25.5779C6.72697 26.6673 6.36494 27.8898 6.30098 29.1452C6.28996 29.3556 6.19782 29.5537 6.04395 29.6985C5.89008 29.8434 5.68616 29.9239 5.47424 29.9233Z" fill="#1B69FF"/>
<path d="M9.48238 23.0069C9.33738 23.007 9.19491 22.9691 9.06933 22.897C8.94375 22.825 8.8395 22.7213 8.76707 22.5964C8.71282 22.5032 8.67758 22.4002 8.66337 22.2934C8.64916 22.1866 8.65626 22.078 8.68427 21.974C8.71227 21.8699 8.76063 21.7723 8.82658 21.6868C8.89253 21.6013 8.97478 21.5296 9.06863 21.4757L35.8839 6.08245C36.0733 5.9738 36.2983 5.94434 36.5095 6.00055C36.7208 6.05676 36.9009 6.19405 37.0103 6.38223C37.0651 6.47574 37.1007 6.5791 37.115 6.68634C37.1294 6.79358 37.1223 6.90259 37.0941 7.00708C37.0659 7.11158 37.0172 7.2095 36.9508 7.29519C36.8843 7.38089 36.8015 7.45267 36.707 7.5064L9.89351 22.8962C9.76864 22.9684 9.62683 23.0066 9.48238 23.0069Z" fill="#1B69FF"/>
<path d="M48.2458 14.2243H48.2266C48.1182 14.2217 48.0115 14.198 47.9124 14.1543C47.8133 14.1107 47.7239 14.0481 47.6491 13.9701C47.5744 13.8921 47.5159 13.8002 47.4769 13.6997C47.4379 13.5992 47.4192 13.492 47.4219 13.3843C47.3909 12.21 47.0696 11.0613 46.4864 10.0397C45.9032 9.01812 45.0759 8.15495 44.0777 7.52639C42.5725 6.58087 40.0636 5.81399 36.6659 7.52639C36.5692 7.57636 36.4634 7.60673 36.3548 7.6158C36.2461 7.62487 36.1367 7.61244 36.0329 7.57921C35.9291 7.54598 35.8329 7.49265 35.7499 7.42225C35.667 7.35184 35.5991 7.26578 35.5498 7.16907C35.5006 7.07235 35.4712 6.96688 35.4632 6.85876C35.4552 6.75065 35.4687 6.64204 35.5032 6.5392C35.5377 6.43637 35.5924 6.34134 35.6641 6.25964C35.7358 6.17794 35.8231 6.11117 35.9209 6.06321C37.3508 5.31042 38.9394 4.90459 40.5571 4.87891C40.6641 4.87891 40.7702 4.87892 40.8762 4.88502C42.3257 4.93445 43.7353 5.369 44.9586 6.14342C46.2382 6.95435 47.2909 8.07364 48.0187 9.39737C48.7202 10.6251 49.0832 12.0151 49.0708 13.427C49.0649 13.6405 48.9754 13.8433 48.8213 13.9922C48.6672 14.1411 48.4607 14.2244 48.2458 14.2243Z" fill="#1B69FF"/>
<path d="M62.3317 16.3066C62.1479 16.3065 61.9695 16.2452 61.825 16.1324L48.4814 5.79523C48.3958 5.72883 48.3243 5.64631 48.2709 5.55239C48.2175 5.45846 48.1832 5.35499 48.1701 5.24788C48.157 5.14078 48.1653 5.03215 48.1945 4.92824C48.2237 4.82432 48.2732 4.72715 48.3402 4.6423C48.4751 4.47129 48.6726 4.36047 48.8896 4.33416C49.1065 4.30785 49.3251 4.36822 49.4974 4.502L62.8401 14.8383C62.9756 14.9433 63.0747 15.0878 63.1236 15.2515C63.1725 15.4153 63.1687 15.5901 63.1128 15.7516C63.0569 15.9132 62.9517 16.0533 62.8118 16.1525C62.6719 16.2517 62.5044 16.305 62.3326 16.3049L62.3317 16.3066Z" fill="#1B69FF"/>
<path d="M6.61323 109.002C6.46886 109.002 6.32706 108.964 6.2021 108.892L1.60081 106.26C1.41122 106.152 1.27275 105.973 1.21587 105.763C1.15899 105.553 1.18836 105.329 1.29751 105.14C1.35126 105.047 1.4231 104.964 1.5089 104.898C1.59469 104.832 1.69276 104.784 1.79749 104.755C1.90221 104.727 2.01153 104.719 2.11918 104.733C2.22683 104.747 2.3307 104.782 2.42482 104.835L7.02611 107.471C7.18387 107.561 7.30725 107.7 7.37705 107.867C7.44685 108.034 7.45916 108.219 7.41205 108.394C7.36495 108.569 7.26107 108.723 7.1166 108.833C6.97212 108.943 6.79515 109.002 6.61323 109.002Z" fill="#1B69FF"/>
<path d="M2.02659 106.364C1.83418 106.364 1.64793 106.296 1.50054 106.173C0.287325 105.166 0.160261 104.447 0.0103615 103.044C-0.00336559 102.936 0.00488073 102.826 0.0343312 102.721C0.0637816 102.616 0.113965 102.518 0.182001 102.432C0.250038 102.347 0.334456 102.276 0.430472 102.223C0.526487 102.17 0.632195 102.137 0.741221 102.126C0.850246 102.114 0.960415 102.124 1.06545 102.156C1.17049 102.187 1.2682 102.239 1.35287 102.308C1.43755 102.377 1.50743 102.462 1.55854 102.559C1.60965 102.655 1.64099 102.761 1.65057 102.869C1.77855 104.043 1.8049 104.288 2.56141 104.916C2.6912 105.024 2.78434 105.168 2.8285 105.331C2.87267 105.493 2.86558 105.665 2.80817 105.823C2.75076 105.981 2.64594 106.118 2.5077 106.215C2.36945 106.312 2.20452 106.364 2.03537 106.365L2.02659 106.364Z" fill="#1B69FF"/>
<path d="M0.824883 103.776C0.606111 103.776 0.396298 103.689 0.241603 103.535C0.0869071 103.382 0 103.173 0 102.956L0.0280511 26.4528C0.0280511 26.2354 0.114958 26.0268 0.269654 25.873C0.42435 25.7192 0.634162 25.6328 0.852934 25.6328C1.07171 25.6328 1.28152 25.7192 1.43622 25.873C1.59091 26.0268 1.67782 26.2354 1.67782 26.4528L1.64977 102.956C1.64953 103.174 1.56252 103.382 1.40785 103.536C1.25318 103.689 1.0435 103.776 0.824883 103.776Z" fill="#1B69FF"/>
<path d="M0.85258 27.276H0.806995C0.698808 27.2702 0.592877 27.2432 0.495176 27.1967C0.397476 27.1501 0.31002 27.0849 0.237717 27.0047C0.165414 26.9245 0.109653 26.8308 0.0737821 26.7292C0.0379109 26.6276 0.0225901 26.5199 0.0286251 26.4124C0.1116 24.9003 0.550835 23.4288 1.31079 22.1164C2.07074 20.8041 3.13011 19.6876 4.40372 18.8569C4.58653 18.7446 4.8064 18.7076 5.01623 18.7538C5.22606 18.8001 5.4094 18.926 5.5273 19.1046C5.64519 19.2833 5.68822 19.5006 5.64736 19.7103C5.60649 19.9201 5.48482 20.1057 5.30836 20.2277C4.25242 20.9194 3.37388 21.847 2.74297 22.9365C2.11206 24.0259 1.74625 25.247 1.67482 26.5021C1.66297 26.7111 1.5713 26.9076 1.41843 27.0515C1.26557 27.1953 1.06308 27.2757 0.85258 27.276Z" fill="#1B69FF"/>
<path d="M4.87241 20.3585C4.72741 20.3587 4.58494 20.3208 4.45936 20.2487C4.33378 20.1767 4.22953 20.073 4.1571 19.9481C4.04788 19.7597 4.01838 19.5359 4.07509 19.3259C4.1318 19.1159 4.27009 18.9369 4.45953 18.8283L32.8062 2.57052C32.9957 2.46193 33.2208 2.43261 33.4321 2.48899C33.6433 2.54537 33.8234 2.68284 33.9327 2.87117C33.9873 2.96459 34.0228 3.06783 34.0372 3.17494C34.0515 3.28205 34.0445 3.39093 34.0164 3.49532C33.9883 3.59971 33.9397 3.69754 33.8734 3.78321C33.8072 3.86887 33.7245 3.94066 33.6302 3.99447L5.28354 20.2487C5.15858 20.3206 5.01678 20.3585 4.87241 20.3585Z" fill="#1B69FF"/>
<path d="M14.3099 73.9926C14.1649 73.9927 14.0224 73.9548 13.8969 73.8828C13.7713 73.8107 13.667 73.707 13.5946 73.5821C13.4854 73.3937 13.4559 73.17 13.5126 72.96C13.5693 72.75 13.7076 72.571 13.897 72.4623L52.8787 50.094C53.0682 49.9854 53.2933 49.956 53.5045 50.0124C53.7158 50.0688 53.8958 50.2063 54.0051 50.3946C54.0598 50.488 54.0954 50.5912 54.1098 50.6982C54.1242 50.8053 54.1172 50.9142 54.0892 51.0186C54.0612 51.1229 54.0127 51.2208 53.9465 51.3065C53.8803 51.3922 53.7978 51.464 53.7036 51.5179L14.721 73.8828C14.5961 73.9547 14.4543 73.9925 14.3099 73.9926Z" fill="#1B69FF"/>
<path d="M18.6464 88.21C18.5015 88.2103 18.3591 88.1725 18.2335 88.1006C18.108 88.0287 18.0037 87.9252 17.9311 87.8005C17.8769 87.7072 17.8416 87.6042 17.8274 87.4974C17.8132 87.3906 17.8203 87.2821 17.8483 87.178C17.8763 87.0739 17.9247 86.9764 17.9906 86.8909C18.0566 86.8054 18.1388 86.7337 18.2327 86.6798L48.5772 69.2508C48.671 69.1969 48.7746 69.1618 48.882 69.1477C48.9894 69.1336 49.0986 69.1406 49.2033 69.1685C49.308 69.1963 49.4061 69.2444 49.4921 69.31C49.5781 69.3755 49.6503 69.4573 49.7045 69.5506C49.7594 69.644 49.7952 69.7474 49.8098 69.8546C49.8244 69.9619 49.8174 70.0709 49.7894 70.1755C49.7614 70.2801 49.7128 70.3782 49.6465 70.464C49.5801 70.5498 49.4974 70.6217 49.4029 70.6756L19.0584 88.1046C18.9328 88.1751 18.7907 88.2115 18.6464 88.21Z" fill="#1B69FF"/>
<path d="M14.3099 82.0898C14.1649 82.0899 14.0224 82.052 13.8969 81.98C13.7713 81.9079 13.667 81.8042 13.5946 81.6793C13.4854 81.491 13.4559 81.2672 13.5126 81.0572C13.5693 80.8472 13.7076 80.6682 13.897 80.5595L52.8787 58.1955C53.0682 58.0869 53.2933 58.0576 53.5045 58.114C53.7158 58.1704 53.8958 58.3078 54.0051 58.4962C54.0598 58.5895 54.0954 58.6927 54.1098 58.7998C54.1242 58.9069 54.1172 59.0157 54.0892 59.1201C54.0612 59.2245 54.0127 59.3224 53.9465 59.408C53.8803 59.4937 53.7978 59.5656 53.7036 59.6195L14.721 81.98C14.5961 82.0519 14.4543 82.0897 14.3099 82.0898Z" fill="#1B69FF"/>
<path d="M79.8244 42.9468L85.226 46.0466C85.3373 46.1237 85.4257 46.229 85.4821 46.3516C85.5385 46.4742 85.5609 46.6096 85.5468 46.7437V73.9791C85.5468 86.6151 66.7823 107.162 65.9802 108.033C65.8545 108.169 65.7096 108.286 65.5499 108.381C65.4203 108.461 65.2733 108.51 65.1212 108.522C64.6022 108.553 56.4963 108.981 50.8825 105.81L45.4125 102.672C43.7882 101.838 42.4329 100.566 41.5018 99.0018C40.5707 97.4375 40.1015 95.6442 40.1476 93.8272V66.5936C40.1821 66.2211 40.301 65.8613 40.4953 65.5411C40.6896 65.2208 40.9544 64.9484 41.2697 64.7444C48.762 60.4472 55.745 54.3619 59.503 48.8622C59.8826 48.3062 60.4129 48.0056 60.7951 48.1232C64.5452 49.3093 71.5256 47.3816 79.0766 43.0462C79.1798 42.96 79.3058 42.9052 79.4395 42.8883C79.5732 42.8715 79.709 42.8933 79.8305 42.9512L79.8244 42.9468Z" fill="white"/>
<path d="M41.2662 64.7444C48.7576 60.4472 55.7415 54.3619 59.4995 48.8622C59.8791 48.3062 60.4095 48.0056 60.7917 48.1232C64.5409 49.3093 71.5221 47.3816 79.0732 43.0462C79.1764 42.96 79.3024 42.9052 79.4361 42.8883C79.5697 42.8715 79.7055 42.8933 79.8271 42.9512L85.2278 46.0518C85.1066 45.9958 84.9719 45.9754 84.8394 45.993C84.7069 46.0106 84.5822 46.0654 84.48 46.1511C76.9255 50.4866 69.9487 52.4151 66.1968 51.2273C65.8155 51.1079 65.2834 51.4129 64.9047 51.9672C61.1493 57.4669 54.1671 63.5522 46.6713 67.8502C46.3557 68.0538 46.0908 68.3262 45.897 68.6468C45.7032 68.9674 45.5855 69.3277 45.5528 69.7003V96.9383C45.5076 98.7689 45.9848 100.575 46.9293 102.147C47.8738 103.719 49.2468 104.993 50.8895 105.822H50.8825L45.4134 102.685C43.789 101.85 42.4336 100.578 41.5023 99.0141C40.5711 97.4498 40.1016 95.6565 40.1476 93.8395V66.5936C40.1819 66.2215 40.3003 65.8619 40.494 65.5417C40.6877 65.2215 40.9516 64.9489 41.2662 64.7444Z" fill="#1B69FF"/>
<path d="M63.7205 109C64.5462 109 65.0669 108.971 65.1493 108.964C65.372 108.948 65.5875 108.879 65.7779 108.763C65.9752 108.646 66.1542 108.501 66.3091 108.333C67.1164 107.456 85.9967 86.7861 85.995 73.9758V46.743C86.0099 46.5314 85.9673 46.3197 85.8717 46.1301C85.7761 45.9404 85.631 45.7798 85.4515 45.665L80.0499 42.5644L80.0227 42.5505C79.8313 42.4584 79.6177 42.4215 79.4062 42.4438C79.1948 42.4662 78.9939 42.5469 78.8261 42.6768C71.4329 46.9199 64.5638 48.8493 60.9267 47.6998C60.5689 47.6469 60.2035 47.7064 59.8813 47.87C59.5591 48.0335 59.2963 48.2931 59.1297 48.6123C55.4076 54.0623 48.4772 60.0962 41.0445 64.3602C40.6613 64.6027 40.3403 64.9305 40.1068 65.3177C39.8732 65.705 39.7336 66.1409 39.699 66.5911V93.8318C39.6479 95.7215 40.1326 97.5874 41.0977 99.2163C42.0628 100.845 43.4693 102.171 45.1567 103.043L45.1874 103.062L50.6565 106.199C50.6782 106.211 50.7007 106.222 50.7239 106.231C55.1262 108.691 61.0311 109 63.7205 109ZM79.6256 43.3452L85.0036 46.4328C85.0527 46.4607 85.1026 46.567 85.1008 46.7413V73.9802C85.1008 86.4497 66.4459 106.872 65.6499 107.735C65.5551 107.839 65.4455 107.929 65.3246 108.002C65.2547 108.047 65.1756 108.074 65.0933 108.083C64.7496 108.104 56.6296 108.552 51.1009 105.43C51.0817 105.419 51.0618 105.409 51.0413 105.401L45.6625 102.313C45.652 102.306 45.6415 102.299 45.6301 102.293C44.0746 101.496 42.7765 100.28 41.8848 98.7838C40.9931 97.2874 40.5438 95.5713 40.5886 93.8326V66.5911C40.6233 66.2966 40.7219 66.013 40.8774 65.7599C41.033 65.5069 41.2419 65.2903 41.4898 65.1253C49.0286 60.7995 56.0721 54.6627 59.8643 49.109C60.1579 48.6785 60.5191 48.499 60.6532 48.5434C64.519 49.7635 71.6616 47.8062 79.2907 43.4271C79.4511 43.3226 79.5537 43.3069 79.594 43.3295C79.6049 43.3341 79.6154 43.3393 79.6256 43.3452Z" fill="#005BEA"/>
<path d="M65.5514 84.4025L71.4975 74.1709L69.8564 73.2315L65.5497 80.6431L60.0481 77.4937C61.2965 75.0249 63.1986 72.9415 65.5497 71.4677C69.5952 69.147 72.872 71.0241 72.872 75.6593C72.872 80.2946 69.5952 85.9346 65.5497 88.2535C61.5042 90.5724 58.2283 88.7005 58.2266 84.0618C58.2414 82.8635 58.4292 81.6734 58.7841 80.5281L65.5514 84.4025Z" fill="white"/>
</g>
<defs>
<clipPath id="clip0_9_91340">
<rect width="86" height="109" fill="white"/>
</clipPath>
</defs>
</svg>
