<svg width="129" height="125" viewBox="0 0 129 125" fill="none" xmlns="http://www.w3.org/2000/svg">
<g clip-path="url(#clip0_9_91190)">
<mask id="mask0_9_91190" style="mask-type:luminance" maskUnits="userSpaceOnUse" x="19" y="0" width="105" height="121">
<path d="M123.105 0H19V120.121H123.105V0Z" fill="white"/>
</mask>
<g mask="url(#mask0_9_91190)">
<path fill-rule="evenodd" clip-rule="evenodd" d="M30.1433 64.7116V115.686C30.0877 116.325 30.1866 116.968 30.4317 117.56C30.6767 118.153 31.0607 118.678 31.5513 119.092L21.8603 113.498C21.3679 113.083 20.9823 112.557 20.7359 111.963C20.4894 111.368 20.3895 110.724 20.4443 110.083V59.1016L30.1433 64.7116Z" fill="#F0F3FA"/>
<path fill-rule="evenodd" clip-rule="evenodd" d="M21.3309 60.644V110.081C21.2758 110.585 21.345 111.094 21.5324 111.565C21.7198 112.035 22.0197 112.453 22.4059 112.781L29.3409 116.781C29.292 116.425 29.264 116.066 29.2569 115.706V65.225L21.3309 60.644ZM31.5519 119.976C31.3983 119.974 31.2474 119.935 31.1119 119.863L21.4209 114.263C20.7961 113.77 20.2999 113.133 19.9744 112.407C19.649 111.681 19.504 110.886 19.5519 110.092V59.092C19.5533 58.9359 19.5956 58.7828 19.6746 58.6482C19.7536 58.5135 19.8665 58.4019 20.0021 58.3245C20.1377 58.2471 20.2912 58.2066 20.4474 58.207C20.6035 58.2075 20.7568 58.2488 20.8919 58.327L30.5919 63.927C30.7271 64.0057 30.8394 64.1183 30.9178 64.2537C30.9962 64.3891 31.0379 64.5425 31.0389 64.699V115.672C30.9773 116.175 31.0419 116.685 31.227 117.156C31.4121 117.628 31.7118 118.045 32.0989 118.372C32.2502 118.484 32.362 118.641 32.4181 118.821C32.4743 119 32.4718 119.193 32.4111 119.371C32.3505 119.549 32.2347 119.703 32.0806 119.812C31.9265 119.92 31.7421 119.976 31.5539 119.972" fill="#4069FA"/>
<path fill-rule="evenodd" clip-rule="evenodd" d="M94.5031 26.8516V77.8256C94.3978 79.7232 93.8484 81.5696 92.899 83.216C91.9496 84.8625 90.6268 86.2629 89.0371 87.3046L35.0131 118.495C32.0071 120.229 29.5391 118.806 29.5391 115.331V64.3566L94.5031 26.8516Z" fill="white"/>
<path fill-rule="evenodd" clip-rule="evenodd" d="M30.4312 64.8684V115.326C30.3659 115.849 30.4393 116.379 30.6439 116.865C30.8486 117.35 31.1774 117.773 31.5972 118.09C32.0828 118.291 32.6122 118.363 33.1337 118.298C33.6552 118.233 34.1509 118.033 34.5722 117.719L88.5932 86.5274C90.0744 85.5994 91.2907 84.3046 92.1242 82.7684C93.0309 81.2732 93.5416 79.5717 93.6082 77.8244V28.3934L30.4312 64.8684ZM32.5812 120.118C31.9239 120.125 31.2764 119.958 30.7042 119.634C30.0068 119.167 29.4481 118.52 29.0871 117.762C28.726 117.004 28.5758 116.163 28.6522 115.326V64.3544C28.6522 64.1987 28.6936 64.0458 28.7722 63.9113C28.8507 63.7769 28.9636 63.6658 29.0992 63.5894L94.0632 26.0764C94.1978 25.9982 94.3506 25.957 94.5062 25.957C94.6618 25.957 94.8147 25.9982 94.9492 26.0764C95.0842 26.1552 95.1963 26.2679 95.2745 26.4032C95.3528 26.5386 95.3943 26.692 95.3952 26.8484V77.8214C95.2901 79.8765 94.6987 81.8773 93.6695 83.6592C92.6403 85.4412 91.2028 86.9533 89.4752 88.0714L35.4572 119.256C34.5901 119.791 33.5982 120.088 32.5802 120.119" fill="#4069FA"/>
<path fill-rule="evenodd" clip-rule="evenodd" d="M35.6175 38.7458C61.9175 23.5588 81.6175 12.1788 89.6355 7.55376C90.1881 7.15189 90.8381 6.90495 91.5181 6.8385C92.1981 6.77204 92.8836 6.88848 93.5035 7.17576C94.0602 7.57012 94.5019 8.10544 94.7834 8.72681C95.0649 9.34818 95.1761 10.0333 95.1055 10.7118V27.2118L30.1445 64.7138V48.2138C30.2485 46.3162 30.7982 44.4699 31.7491 42.8246C32.7 41.1792 34.0253 39.7812 35.6175 38.7438" fill="#F0F3FA"/>
<path fill-rule="evenodd" clip-rule="evenodd" d="M36.0558 39.5071C34.581 40.446 33.3655 41.7403 32.5208 43.2711C31.6129 44.7653 31.1021 46.4668 31.0368 48.2141V63.1651L94.2148 26.6891V10.7081C94.2797 10.1864 94.207 9.65677 94.0038 9.17189C93.8007 8.687 93.4742 8.26371 93.0568 7.94407C92.5707 7.74279 92.0404 7.67188 91.5185 7.73835C90.9965 7.80482 90.501 8.00637 90.0808 8.32307L36.0558 39.5071ZM30.1438 65.5951C29.9888 65.5961 29.8365 65.5542 29.7038 65.4741C29.568 65.3979 29.455 65.2868 29.3766 65.1523C29.2982 65.0178 29.2572 64.8648 29.2578 64.7091V48.2091C29.3598 46.1553 29.9497 44.1555 30.9785 42.3751C32.0073 40.5947 33.4454 39.085 35.1738 37.9711L89.1958 6.77907C89.881 6.29436 90.6841 6.00334 91.5208 5.93664C92.3574 5.86994 93.1965 6.03004 93.9498 6.40007C94.6472 6.86769 95.2058 7.5145 95.5668 8.27255C95.9279 9.03059 96.0782 9.8719 96.0018 10.7081V27.2081C96.0017 27.3637 95.9603 27.5166 95.8818 27.651C95.8032 27.7854 95.6904 27.8966 95.5548 27.9731L30.5908 65.4711C30.456 65.5521 30.3012 65.594 30.1438 65.5921" fill="#4069FA"/>
<path fill-rule="evenodd" clip-rule="evenodd" d="M25.3607 32.8128C43.3721 22.4188 61.3804 12.0238 79.3857 1.62785C79.9142 1.25876 80.524 1.02267 81.1633 0.939629C81.8026 0.856586 82.4524 0.929044 83.0577 1.15085L93.3157 7.07085C92.7091 6.84927 92.058 6.77694 91.4175 6.85996C90.777 6.94299 90.1658 7.17892 89.6357 7.54785L88.8487 7.99485L88.0007 8.49485C70.5354 18.5728 53.0747 28.6552 35.6187 38.7419C34.0237 39.7763 32.6963 41.1736 31.745 42.8196C30.7937 44.4656 30.2457 46.3134 30.1457 48.2118V64.7118L19.8867 58.7889V42.2889C19.9885 40.3895 20.5374 38.541 21.4886 36.8938C22.4398 35.2467 23.7665 33.8474 25.3607 32.8099" fill="#1B69FF"/>
<path fill-rule="evenodd" clip-rule="evenodd" d="M20.779 58.276L29.258 63.166V48.214C29.3566 46.1617 29.9433 44.1626 30.9695 42.3825C31.9956 40.6025 33.4315 39.0929 35.158 37.979L89.2 6.77999C89.5228 6.59971 89.8568 6.44038 90.2 6.30299L82.609 1.91899C82.1361 1.77784 81.6369 1.74881 81.1509 1.83421C80.6649 1.91961 80.2054 2.1171 79.809 2.41099L25.814 33.58C24.3538 34.5411 23.1382 35.83 22.2641 37.3439C21.39 38.8578 20.8814 40.5549 20.779 42.3V58.276ZM30.144 65.6C29.989 65.601 29.8367 65.5591 29.704 65.479L19.447 59.555C19.3122 59.4779 19.2 59.3667 19.1215 59.2327C19.0431 59.0986 19.0012 58.9463 19 58.791V42.291C19.0975 40.2387 19.6837 38.2394 20.71 36.4595C21.7362 34.6796 23.1727 33.1706 24.9 32.058C24.909 32.05 24.909 32.05 24.923 32.05L78.937 0.859993C79.5853 0.42314 80.3286 0.147723 81.105 0.0567405C81.8814 -0.0342423 82.6683 0.0618498 83.4 0.336993L93.753 6.29999C93.9516 6.41233 94.0995 6.59665 94.1661 6.81488C94.2327 7.03312 94.2129 7.26859 94.1109 7.47267C94.0088 7.67675 93.8323 7.83385 93.6178 7.91151C93.4032 7.98917 93.167 7.98147 92.958 7.88999C92.4768 7.72099 91.9615 7.67264 91.4573 7.74918C90.9531 7.82572 90.4753 8.02481 90.066 8.32899L36.057 39.508C34.5988 40.4682 33.3854 41.7562 32.5139 43.2691C31.6424 44.782 31.137 46.4778 31.038 48.221V64.711C31.037 64.8664 30.9953 65.0188 30.917 65.153C30.8388 65.2872 30.7267 65.3986 30.592 65.476C30.4571 65.5571 30.3023 65.599 30.145 65.597" fill="#4069FA"/>
<path fill-rule="evenodd" clip-rule="evenodd" d="M43.2219 99.8087C42.9408 99.8118 42.6642 99.7381 42.4219 99.5957C42.1582 99.4331 41.9432 99.2026 41.7993 98.9283C41.6554 98.654 41.5879 98.3461 41.6039 98.0367V86.2567C41.6194 85.7269 41.7667 85.2093 42.0324 84.7506C42.2982 84.292 42.6739 83.9067 43.1259 83.6297L59.1839 74.3637C59.3078 74.2706 59.4119 74.1537 59.4898 74.0197C59.5678 73.8857 59.6181 73.7375 59.6379 73.5837V62.4477L43.2089 71.9337C42.9645 72.0664 42.6781 72.0987 42.4104 72.0237C42.1427 71.9487 41.9147 71.7723 41.7748 71.532C41.635 71.2917 41.5942 71.0064 41.6613 70.7366C41.7283 70.4667 41.8978 70.2336 42.1339 70.0867L59.1839 60.2447C59.4409 60.066 59.7435 59.964 60.0563 59.9507C60.3692 59.9374 60.6793 60.0133 60.9506 60.1696C61.2219 60.326 61.4432 60.5562 61.5886 60.8335C61.734 61.1108 61.7976 61.4237 61.7719 61.7357V73.5847C61.7549 74.1152 61.6072 74.6333 61.3419 75.093C61.0765 75.5527 60.7018 75.9397 60.2509 76.2197L44.1849 85.4797C44.0602 85.5718 43.9556 85.6884 43.8775 85.8224C43.7994 85.9563 43.7495 86.1048 43.7309 86.2587V97.3197L60.1669 87.8417C60.2883 87.7666 60.4236 87.7167 60.5648 87.6948C60.7059 87.673 60.8499 87.6797 60.9884 87.7146C61.1269 87.7494 61.257 87.8117 61.3709 87.8978C61.4849 87.9838 61.5804 88.0919 61.6519 88.2156C61.7233 88.3392 61.7692 88.4759 61.7868 88.6176C61.8044 88.7594 61.7934 88.9032 61.7544 89.0405C61.7155 89.1779 61.6493 89.3061 61.5599 89.4174C61.4705 89.5288 61.3596 89.621 61.2339 89.6887L44.1919 99.5307C43.8969 99.7095 43.5597 99.8065 43.2149 99.8117" fill="#4069FA"/>
<path fill-rule="evenodd" clip-rule="evenodd" d="M81.5119 49.8269L66.0599 58.7369C65.9351 58.8307 65.8306 58.9488 65.7526 59.084C65.6745 59.2193 65.6247 59.3689 65.6059 59.5239V70.6159L81.5119 61.4399V49.8269ZM65.6059 73.0849L81.5119 63.9009V75.0009C81.4922 75.1556 81.4411 75.3045 81.3616 75.4387C81.2821 75.5728 81.1761 75.6893 81.0499 75.7809L65.6059 84.6989V73.0849ZM64.9929 85.0539C64.9929 85.0609 64.9849 85.0609 64.9769 85.0609L65.5299 85.9779L64.9929 85.0539ZM65.0829 87.1819C64.8061 87.1842 64.534 87.1109 64.2959 86.9699C64.0324 86.8069 63.8176 86.5761 63.6739 86.3017C63.5302 86.0273 63.4628 85.7193 63.4789 85.4099V59.5249C63.4943 58.9949 63.6406 58.4769 63.9048 58.0171C64.1689 57.5574 64.5428 57.1701 64.9929 56.8899L81.0499 47.6149C81.3125 47.4474 81.615 47.3529 81.9263 47.3411C82.2376 47.3293 82.5464 47.4007 82.8209 47.5479C83.0844 47.7106 83.2994 47.9411 83.4433 48.2154C83.5872 48.4897 83.6548 48.7976 83.6389 49.1069V74.9989C83.6226 75.5295 83.4751 76.0478 83.2095 76.5075C82.9439 76.9672 82.5685 77.3538 82.1169 77.6329L66.0589 86.8999C65.7648 87.0806 65.427 87.1777 65.0819 87.1809" fill="#4069FA"/>
<path fill-rule="evenodd" clip-rule="evenodd" d="M72.0527 36.5181C71.8684 36.5192 71.6874 36.4694 71.5297 36.3741C71.3598 36.2749 71.2196 36.1319 71.1237 35.9601C71.0279 35.7883 70.9799 35.5939 70.9847 35.3971V24.9911C70.9922 24.7233 71.0667 24.4616 71.2016 24.2301C71.3365 23.9986 71.5274 23.8047 71.7567 23.6661L77.8137 20.1751C77.9146 20.1175 78.0259 20.0803 78.1412 20.0656C78.2565 20.051 78.3736 20.0592 78.4857 20.0898C78.5978 20.1204 78.7028 20.1728 78.7947 20.244C78.8866 20.3151 78.9636 20.4037 79.0212 20.5046C79.0789 20.6056 79.1161 20.7169 79.1307 20.8322C79.1453 20.9475 79.1371 21.0645 79.1065 21.1766C79.0759 21.2888 79.0236 21.3938 78.9524 21.4856C78.8812 21.5775 78.7926 21.6545 78.6917 21.7121L72.7707 25.1411V34.2311L77.8607 31.2911C78.0656 31.1727 78.3091 31.1405 78.5377 31.2017C78.7663 31.2628 78.9613 31.4123 79.0797 31.6171C79.1981 31.822 79.2303 32.0656 79.1692 32.2942C79.108 32.5228 78.9586 32.7177 78.7537 32.8361L72.6437 36.3551C72.4668 36.4656 72.2622 36.5235 72.0537 36.5221" fill="#4069FA"/>
<path fill-rule="evenodd" clip-rule="evenodd" d="M71.8811 30.8019C71.6856 30.8018 71.4955 30.7374 71.3403 30.6184C71.1851 30.4994 71.0735 30.3326 71.0227 30.1438C70.9719 29.955 70.9848 29.7546 71.0593 29.5739C71.1339 29.3931 71.266 29.242 71.4351 29.1439L77.4461 25.6689C77.5475 25.6107 77.6594 25.573 77.7753 25.5581C77.8912 25.5431 78.009 25.5512 78.1218 25.5817C78.2346 25.6123 78.3403 25.6647 78.4328 25.7361C78.5254 25.8075 78.603 25.8965 78.6611 25.9979C78.7193 26.0992 78.757 26.2111 78.7719 26.327C78.7869 26.4429 78.7788 26.5607 78.7483 26.6735C78.7177 26.7863 78.6653 26.892 78.5939 26.9846C78.5224 27.0771 78.4335 27.1547 78.3321 27.2129L72.3321 30.6809C72.1965 30.7601 72.0422 30.8019 71.8851 30.8019" fill="#4069FA"/>
<path fill-rule="evenodd" clip-rule="evenodd" d="M62.5532 42.0445C62.4361 42.0457 62.3201 42.0236 62.2116 41.9796C62.1032 41.9356 62.0046 41.8705 61.9215 41.7881C61.8385 41.7056 61.7726 41.6075 61.7277 41.4995C61.6829 41.3914 61.6599 41.2755 61.6602 41.1585V30.0065C61.6604 29.8285 61.7141 29.6547 61.8143 29.5076C61.9146 29.3605 62.0567 29.2469 62.2223 29.1816C62.3878 29.1163 62.5692 29.1022 62.7429 29.1412C62.9165 29.1803 63.0745 29.2706 63.1962 29.4005L68.4352 34.9735L68.3832 26.1235C68.385 25.8884 68.4787 25.6634 68.6442 25.4965C68.8098 25.3296 69.0341 25.2341 69.2692 25.2305C69.386 25.23 69.5018 25.2525 69.6099 25.2967C69.718 25.341 69.8164 25.4061 69.8993 25.4884C69.9822 25.5707 70.0481 25.6685 70.0932 25.7763C70.1384 25.884 70.1618 25.9996 70.1622 26.1165L70.2292 37.2305C70.2296 37.4102 70.1765 37.586 70.0768 37.7356C69.9771 37.8852 69.8352 38.0017 69.6692 38.0705C69.5032 38.1365 69.3211 38.1509 69.1469 38.1118C68.9726 38.0727 68.8141 37.982 68.6922 37.8515L63.4352 32.2555V41.1555C63.4349 41.3904 63.3415 41.6156 63.1754 41.7817C63.0093 41.9478 62.7841 42.0412 62.5492 42.0415" fill="#4069FA"/>
<path fill-rule="evenodd" clip-rule="evenodd" d="M54.3621 46.2914C53.9415 46.2968 53.5271 46.1894 53.1621 45.9804C52.2081 45.4284 51.7461 44.2704 51.7461 42.4304V35.5114C51.7538 35.2807 51.8509 35.062 52.0169 34.9015C52.1829 34.741 52.4047 34.6513 52.6356 34.6513C52.8665 34.6513 53.0883 34.741 53.2543 34.9015C53.4203 35.062 53.5174 35.2807 53.5251 35.5114V42.4304C53.5251 44.0134 53.9251 44.3684 54.0551 44.4374C54.3811 44.6264 55.1001 44.4294 56.0011 43.9074C57.0343 43.3481 57.8886 42.5087 58.466 41.4855C59.0434 40.4623 59.3204 39.297 59.2651 38.1234V31.1664C59.2651 30.9296 59.3592 30.7025 59.5266 30.535C59.6941 30.3675 59.9213 30.2734 60.1581 30.2734C60.3949 30.2734 60.6221 30.3675 60.7895 30.535C60.957 30.7025 61.0511 30.9296 61.0511 31.1664V38.1244C61.1052 39.6118 60.7443 41.0849 60.0089 42.3789C59.2735 43.6729 58.1926 44.7367 56.8871 45.4514C56.1314 45.9457 55.2603 46.2351 54.3591 46.2914" fill="#4069FA"/>
<path fill-rule="evenodd" clip-rule="evenodd" d="M45.8542 51.5445C45.5145 51.5508 45.1795 51.4643 44.8853 51.2945C43.8403 50.6945 43.7193 49.3035 43.7193 48.3115C43.7152 48.1922 43.7353 48.0733 43.7782 47.9619C43.8211 47.8505 43.886 47.7488 43.969 47.663C44.052 47.5772 44.1514 47.5089 44.2613 47.4623C44.3712 47.4157 44.4894 47.3917 44.6087 47.3917C44.7281 47.3917 44.8463 47.4157 44.9562 47.4623C45.0661 47.5089 45.1655 47.5772 45.2485 47.663C45.3315 47.7488 45.3964 47.8505 45.4393 47.9619C45.4822 48.0733 45.5023 48.1922 45.4982 48.3115C45.4982 49.5455 45.7692 49.7495 45.7692 49.7495C45.8302 49.7795 46.1562 49.8035 46.9442 49.3495C47.6723 48.9573 48.2737 48.3659 48.678 47.6444C49.0823 46.9229 49.2728 46.1013 49.2272 45.2755V37.1375C49.235 36.9068 49.3321 36.6881 49.4981 36.5276C49.664 36.3671 49.8859 36.2773 50.1167 36.2773C50.3476 36.2773 50.5695 36.3671 50.7354 36.5276C50.9014 36.6881 50.9985 36.9068 51.0062 37.1375V45.2755C51.0475 46.4143 50.7723 47.5422 50.2111 48.534C49.6499 49.5258 48.8247 50.3425 47.8273 50.8935C47.2334 51.2732 46.5535 51.4971 45.8503 51.5445" fill="#4069FA"/>
<path fill-rule="evenodd" clip-rule="evenodd" d="M32.2277 42.0606L21.9767 36.1406C20.7081 37.9514 19.983 40.0868 19.8867 42.2956V58.7956L30.1447 64.7166V48.2166C30.2385 46.0084 30.9612 43.872 32.2277 42.0606Z" fill="#4069FA"/>
<path fill-rule="evenodd" clip-rule="evenodd" d="M20.779 58.2776L29.258 63.1676V48.2156C29.3216 46.1517 29.9161 44.1389 30.984 42.3716L22.27 37.3366C21.3595 38.8385 20.8464 40.5475 20.779 42.3026V58.2776ZM30.144 65.5986C29.989 65.5996 29.8367 65.5577 29.704 65.4776L19.447 59.5586C19.3119 59.4813 19.1995 59.3699 19.121 59.2354C19.0426 59.101 19.0008 58.9483 19 58.7926V42.2926C19.0937 39.9056 19.8715 37.5959 21.241 35.6386C21.3647 35.4519 21.5551 35.3197 21.7732 35.2689C21.9913 35.2182 22.2206 35.2528 22.414 35.3656L32.672 41.2886C32.7778 41.3491 32.8701 41.4308 32.9431 41.5285C33.016 41.6262 33.0681 41.7379 33.096 41.8566C33.1223 41.9759 33.1246 42.0993 33.1026 42.2195C33.0806 42.3397 33.0349 42.4543 32.968 42.5566C31.7939 44.2197 31.1235 46.1857 31.037 48.2196V64.7096C31.036 64.865 30.9943 65.0174 30.916 65.1516C30.8378 65.2858 30.7257 65.3972 30.591 65.4746C30.4561 65.5557 30.3013 65.5976 30.144 65.5956" fill="#4069FA"/>
<path fill-rule="evenodd" clip-rule="evenodd" d="M85.8805 103.209L79.4805 99.5151C86.9755 103.732 96.3025 96.6691 101.071 91.2251C107.718 83.6311 113.593 70.6631 111.071 60.5631C110.775 59.092 110.183 57.6963 109.332 56.4602C108.481 55.2241 107.389 54.1733 106.12 53.3711L112.835 57.2631C119.573 61.5411 118.514 72.3631 116.424 79.0061C113.324 88.8631 104.962 100.772 94.7945 103.838C93.3448 104.354 91.8041 104.564 90.2692 104.456C88.7343 104.348 87.2384 103.923 85.8755 103.209" fill="#4069FA"/>
<path fill-rule="evenodd" clip-rule="evenodd" d="M86.3188 102.438C87.5769 103.093 88.9574 103.48 90.3727 103.573C91.788 103.667 93.2073 103.466 94.5408 102.982C104.27 100.053 112.491 88.5683 115.581 78.7413C117.837 71.5573 118.352 61.8203 112.362 58.0133L110.72 57.0673C111.252 58.1116 111.661 59.2139 111.939 60.3523C114.581 70.9443 108.509 84.0863 101.739 91.8173C97.4388 96.7303 91.0948 101.417 85.0068 101.681L86.3188 102.438ZM90.7928 105.36C88.9199 105.378 87.075 104.905 85.4408 103.99C85.4408 103.988 85.4399 103.986 85.4384 103.985C85.4369 103.983 85.4349 103.982 85.4328 103.982L79.0328 100.287C78.828 100.17 78.6784 99.9755 78.6168 99.7476C78.5552 99.5196 78.5866 99.2766 78.7043 99.0718C78.8219 98.8671 79.016 98.7174 79.244 98.6558C79.4719 98.5942 79.715 98.6257 79.9198 98.7433C87.0058 102.725 96.1288 95.5253 100.398 90.6433C107.075 83.0123 112.587 70.3093 110.21 60.7853C109.944 59.4278 109.404 58.1388 108.623 56.9971C107.842 55.8554 106.837 54.885 105.668 54.1453C105.472 54.0221 105.332 53.8275 105.277 53.6027C105.222 53.3779 105.256 53.1405 105.373 52.9408C105.49 52.7411 105.68 52.5947 105.903 52.5326C106.126 52.4706 106.364 52.4977 106.568 52.6083L113.283 56.5003C120.157 60.8613 119.726 71.4903 117.273 79.2803C114.04 89.5533 105.373 101.58 95.0528 104.695C93.672 105.125 92.2357 105.349 90.7898 105.361" fill="#4069FA"/>
<path fill-rule="evenodd" clip-rule="evenodd" d="M97.1859 57.498C86.9159 63.434 78.5859 77.856 78.5859 89.719C78.5859 101.582 86.9159 106.382 97.1859 100.454C107.456 94.526 115.786 80.0959 115.786 68.2409C115.786 56.386 107.456 51.57 97.1859 57.498Z" fill="white"/>
<path fill-rule="evenodd" clip-rule="evenodd" d="M105.49 55.8447C102.704 55.9546 99.9955 56.7898 97.6313 58.2677C87.6233 64.0517 79.4763 78.1557 79.4763 89.7167C79.4763 95.1167 81.2553 99.1167 84.4763 100.983C87.6973 102.849 92.0563 102.383 96.7423 99.6887C106.75 93.9047 114.896 79.7997 114.896 68.2397C114.896 62.8337 113.117 58.8287 109.896 56.9667C108.553 56.2098 107.032 55.8233 105.49 55.8467M88.8803 103.891C87.0286 103.916 85.2038 103.445 83.5953 102.528C79.7883 100.328 77.6953 95.7827 77.6953 89.7177C77.6953 77.5897 86.2433 62.7967 96.7433 56.7317C101.989 53.6957 106.978 53.2317 110.779 55.4317C114.58 57.6317 116.679 62.1767 116.679 68.2417C116.679 80.3697 108.132 95.1637 97.6313 101.228C94.9969 102.865 91.9799 103.783 88.8803 103.893" fill="#4069FA"/>
<path fill-rule="evenodd" clip-rule="evenodd" d="M92.8068 49.8637C97.4928 47.2287 103.596 45.2977 108.683 48.0387L115.083 51.7257C105.683 47.0467 94.5278 55.7257 88.7218 62.5147C80.9468 71.6067 74.2688 86.4677 76.6548 98.5147C77.4268 102.436 79.1548 105.851 82.5368 108.099C81.0158 107.221 76.5788 104.776 75.4048 103.89C68.0768 98.3547 69.2728 86.0377 71.5968 78.3457C74.9658 67.2167 82.6888 55.8537 92.8098 49.8657" fill="#1B69FF"/>
<path fill-rule="evenodd" clip-rule="evenodd" d="M93.2488 50.6377C83.9748 56.1377 76.0028 66.8467 72.4488 78.6037C69.9578 86.8477 69.3758 98.2267 75.9388 103.178C76.5487 103.61 77.1805 104.011 77.8318 104.378C76.8319 102.608 76.1356 100.683 75.7718 98.6837C73.3078 86.1717 80.4008 70.8667 88.0398 61.9417C93.4398 55.6357 101.614 49.5247 109.405 49.5247H109.488L108.247 48.8057C103.266 46.1407 97.3468 48.3287 93.2468 50.6377M82.5358 108.986C82.379 108.986 82.225 108.944 82.0898 108.865L80.6508 108.047C78.6068 106.897 75.8128 105.315 74.8668 104.603C67.5828 99.1027 67.9668 87.2967 70.7478 78.0897C74.4278 65.9227 82.7028 54.8167 92.3548 49.1007C92.3593 49.0969 92.3649 49.0944 92.3708 49.0937C96.8598 46.5647 103.409 44.1937 109.109 47.2537L115.529 50.9537C115.729 51.0695 115.877 51.2587 115.941 51.4814C116.005 51.7042 115.979 51.9429 115.87 52.1474C115.761 52.3518 115.577 52.5058 115.357 52.577C115.136 52.6481 114.897 52.6308 114.689 52.5287C106.289 48.3417 95.8078 55.6017 89.3948 63.0897C82.0288 71.7047 75.1698 86.4067 77.5238 98.3387C78.3418 102.488 80.1438 105.439 83.0238 107.348C83.184 107.453 83.3058 107.608 83.3712 107.788C83.4366 107.968 83.442 108.165 83.3868 108.348C83.3315 108.532 83.2184 108.693 83.0644 108.807C82.9104 108.922 82.7236 108.983 82.5318 108.983" fill="#4069FA"/>
<path fill-rule="evenodd" clip-rule="evenodd" d="M85.5541 103.011L79.1641 99.3242L85.8791 103.208L85.5541 103.011Z" fill="#4069FA"/>
<path fill-rule="evenodd" clip-rule="evenodd" d="M85.8794 104.101C85.7227 104.099 85.5691 104.057 85.4324 103.98L78.7104 100.096C78.5085 99.9753 78.362 99.7798 78.3026 99.5519C78.2431 99.324 78.2754 99.0818 78.3924 98.8774C78.51 98.6739 78.7035 98.5252 78.9305 98.4641C79.1575 98.403 79.3995 98.4344 79.6034 98.5514H79.6114L86.0014 102.238L86.0164 102.253L86.3334 102.453C86.4339 102.512 86.5217 102.59 86.592 102.682C86.6623 102.775 86.7135 102.88 86.7428 102.993C86.7721 103.105 86.7788 103.222 86.7626 103.338C86.7464 103.453 86.7076 103.563 86.6484 103.663C86.5698 103.796 86.4579 103.907 86.3238 103.984C86.1897 104.06 86.038 104.101 85.8834 104.101" fill="#4069FA"/>
<path fill-rule="evenodd" clip-rule="evenodd" d="M112.524 57.0634C110.662 56.0291 108.521 55.6092 106.407 55.8634C103.853 56.1875 101.397 57.0465 99.1987 58.3844C96.5322 59.9639 94.1056 61.917 91.9927 64.1844C87.2909 69.2235 83.8022 75.2699 81.7927 81.8624C80.8788 84.8258 80.3969 87.9055 80.3617 91.0064C80.3012 93.5796 80.789 96.1362 81.7927 98.5064C82.5962 100.482 84.0352 102.134 85.8824 103.201C87.7297 104.268 89.8797 104.688 91.9927 104.396C94.546 104.08 97.0025 103.223 99.1987 101.882C101.866 100.3 104.293 98.3444 106.407 96.0754C111.115 91.0413 114.604 84.9937 116.607 78.3984C117.518 75.4336 118 72.3537 118.038 69.2524C118.095 66.6814 117.607 64.1274 116.607 61.7584C115.774 59.7998 114.343 58.1547 112.519 57.0584M82.9187 70.7394C87.0817 63.5164 92.8437 57.2184 99.1947 53.5544C105.546 49.8904 111.308 49.5414 115.473 51.9414C119.638 54.3414 122.219 59.5044 122.219 66.8414C122.219 74.1784 119.637 82.3164 115.473 89.5314C111.309 96.7464 105.555 103.045 99.1947 106.717C92.8347 110.389 87.0817 110.729 82.9187 108.317C78.7557 105.905 76.1797 100.761 76.1797 93.4174C76.1797 86.0734 78.7587 77.9514 82.9227 70.7444" fill="#F0F3FA"/>
<path fill-rule="evenodd" clip-rule="evenodd" d="M107.615 56.7008C107.252 56.7008 106.873 56.7158 106.495 56.7538C104.069 57.0655 101.735 57.8831 99.6441 59.1538C97.0507 60.6936 94.6903 62.5954 92.6341 64.8018C88.0248 69.7364 84.6086 75.6623 82.6481 82.1238C81.7587 85.0037 81.2895 87.9969 81.2551 91.0108C81.195 93.4567 81.6545 95.8875 82.6031 98.1428C83.3296 99.9492 84.6403 101.46 86.326 102.434C88.0117 103.409 89.9752 103.79 91.9031 103.518C94.3308 103.212 96.666 102.394 98.7541 101.118C101.346 99.581 103.704 97.6788 105.754 95.4698C110.365 90.5356 113.783 84.6102 115.747 78.1488C116.638 75.2686 117.107 72.2745 117.14 69.2598C117.2 66.8143 116.741 64.3838 115.793 62.1288C115.036 60.3405 113.732 58.8378 112.068 57.8358C110.709 57.068 109.17 56.6762 107.609 56.7008M90.7641 105.351C88.8947 105.378 87.0521 104.904 85.4271 103.98C83.4363 102.799 81.8761 101.012 80.9751 98.8798C79.9196 96.3936 79.4058 93.7111 79.4681 91.0108C79.5044 87.825 79.9988 84.6609 80.9361 81.6158C82.9839 74.8866 86.5448 68.7153 91.3461 63.5748C93.5185 61.2443 96.0143 59.2378 98.7571 57.6168C101.061 56.215 103.637 55.3169 106.313 54.9818C108.612 54.7032 110.94 55.1619 112.961 56.2918C112.961 56.2927 112.961 56.2936 112.962 56.2945C112.962 56.2953 112.962 56.2961 112.963 56.2968C112.964 56.2974 112.965 56.2979 112.965 56.2983C112.966 56.2986 112.967 56.2988 112.968 56.2988C114.955 57.484 116.514 59.2699 117.42 61.3988C118.476 63.8823 118.991 66.5627 118.928 69.2608C118.895 72.448 118.403 75.6139 117.467 78.6608C115.418 85.3885 111.854 91.5573 107.05 96.6938C104.884 99.0292 102.392 101.039 99.6501 102.66C97.344 104.063 94.7654 104.959 92.0861 105.287C91.6511 105.329 91.2142 105.35 90.7771 105.348M109.478 51.2948C111.422 51.2667 113.338 51.7583 115.028 52.7188C119.093 55.0578 121.328 60.0778 121.328 66.8448C121.328 73.7948 118.973 81.6908 114.703 89.0878C110.433 96.4848 104.771 102.473 98.7591 105.948C92.8921 109.332 87.4331 109.9 83.3681 107.553C79.3031 105.206 77.0681 100.194 77.0681 93.4258C77.0681 86.4758 79.4231 78.5798 83.6921 71.1828C87.9611 63.7858 93.6251 57.8058 99.6441 54.3308C102.602 52.4811 105.992 51.4347 109.478 51.2948ZM88.9161 110.756C86.6617 110.787 84.4399 110.215 82.4811 109.099C77.8481 106.427 75.2891 100.862 75.2891 93.4268C75.2891 86.1738 77.7271 77.9598 82.1481 70.2978C86.5691 62.6358 92.4741 56.4108 98.7571 52.7868C105.185 49.0708 111.287 48.5028 115.92 51.1748C120.553 53.8468 123.105 59.4188 123.105 66.8458C123.105 74.0988 120.667 82.3128 116.246 89.9818C111.825 97.6508 105.928 103.859 99.6461 107.482C96.4186 109.493 92.7194 110.62 88.9191 110.752" fill="#4069FA"/>
<path fill-rule="evenodd" clip-rule="evenodd" d="M101.084 79.5051L99.4185 83.0411L87.5625 79.6571L89.2285 76.1211L101.084 79.5051Z" fill="#F0F3FA"/>
<path fill-rule="evenodd" clip-rule="evenodd" d="M88.8068 79.0904L98.9288 81.9745L99.8228 80.0744L89.7068 77.1904L88.8068 79.0904ZM99.4138 83.9275C99.3318 83.9284 99.2501 83.9183 99.1708 83.8974L87.3178 80.5115C87.1948 80.4743 87.0809 80.4121 86.9832 80.3289C86.8854 80.2456 86.806 80.1429 86.7498 80.0275C86.6971 79.9092 86.6705 79.781 86.6719 79.6516C86.6733 79.5221 86.7026 79.3945 86.7578 79.2775L88.4228 75.7424C88.5109 75.5509 88.6649 75.3975 88.8567 75.3099C89.0485 75.2224 89.2653 75.2066 89.4678 75.2655L101.331 78.6484C101.454 78.685 101.568 78.7478 101.664 78.8325C101.761 78.9171 101.838 79.0217 101.891 79.139C101.943 79.2562 101.97 79.3835 101.969 79.512C101.967 79.6405 101.939 79.7672 101.884 79.8834L100.226 83.4185C100.153 83.571 100.038 83.6996 99.8943 83.7894C99.7509 83.8792 99.585 83.9263 99.4158 83.9254" fill="#4069FA"/>
<path fill-rule="evenodd" clip-rule="evenodd" d="M96.6715 86.213C96.5163 86.2138 96.364 86.1716 96.2315 86.091C96.1298 86.0337 96.0405 85.9568 95.9686 85.8647C95.8968 85.7727 95.8439 85.6674 95.8129 85.5548C95.782 85.4423 95.7736 85.3247 95.7883 85.2089C95.803 85.0931 95.8404 84.9813 95.8985 84.88L109.661 61.062C109.718 60.9598 109.795 60.8701 109.887 60.7981C109.979 60.7261 110.085 60.6734 110.198 60.6431C110.311 60.6128 110.429 60.6055 110.545 60.6216C110.661 60.6378 110.772 60.677 110.872 60.737C111.076 60.8548 111.224 61.0483 111.285 61.2752C111.346 61.5022 111.315 61.7441 111.198 61.948L97.4425 85.765C97.3648 85.9011 97.2525 86.0142 97.1168 86.0928C96.9812 86.1713 96.8272 86.2124 96.6705 86.212" fill="#4069FA"/>
<path fill-rule="evenodd" clip-rule="evenodd" d="M24.7033 116.026C24.5088 116.026 24.3198 115.962 24.1653 115.844C23.5661 115.35 23.093 114.721 22.7849 114.008C22.4768 113.295 22.3426 112.519 22.3933 111.744V60.744C22.3893 60.6247 22.4093 60.5058 22.4522 60.3944C22.4951 60.283 22.56 60.1814 22.643 60.0955C22.726 60.0097 22.8254 59.9415 22.9353 59.8949C23.0452 59.8482 23.1634 59.8242 23.2828 59.8242C23.4021 59.8242 23.5203 59.8482 23.6302 59.8949C23.7401 59.9415 23.8395 60.0097 23.9225 60.0955C24.0055 60.1814 24.0704 60.283 24.1133 60.3944C24.1562 60.5058 24.1763 60.6247 24.1723 60.744V111.718C24.1138 112.221 24.1808 112.731 24.3671 113.202C24.5535 113.673 24.8534 114.091 25.2403 114.418C25.4284 114.561 25.5524 114.773 25.585 115.007C25.6176 115.241 25.5562 115.478 25.4143 115.667C25.332 115.778 25.2246 115.868 25.1009 115.93C24.9771 115.992 24.8406 116.024 24.7023 116.023" fill="#4069FA"/>
<path fill-rule="evenodd" clip-rule="evenodd" d="M27.6777 117.745C27.4833 117.745 27.2942 117.681 27.1397 117.563C26.5413 117.068 26.0682 116.438 25.759 115.726C25.4499 115.013 25.3134 114.238 25.3607 113.463V62.4628C25.3567 62.3435 25.3768 62.2246 25.4197 62.1132C25.4626 62.0017 25.5274 61.9001 25.6104 61.8143C25.6934 61.7285 25.7928 61.6602 25.9028 61.6136C26.0127 61.567 26.1308 61.543 26.2502 61.543C26.3696 61.543 26.4878 61.567 26.5977 61.6136C26.7076 61.6602 26.807 61.7285 26.89 61.8143C26.973 61.9001 27.0379 62.0017 27.0808 62.1132C27.1237 62.2246 27.1437 62.3435 27.1397 62.4628V113.436C27.0846 113.939 27.1538 114.449 27.3412 114.92C27.5286 115.39 27.8285 115.808 28.2147 116.136C28.4022 116.28 28.5249 116.492 28.556 116.726C28.5872 116.961 28.5241 117.198 28.3807 117.386C28.2997 117.495 28.1943 117.585 28.0728 117.646C27.9512 117.708 27.817 117.74 27.6807 117.741" fill="#4069FA"/>
</g>
</g>
<defs>
<clipPath id="clip0_9_91190">
<rect width="104.105" height="120.121" fill="white" transform="translate(19)"/>
</clipPath>
</defs>
</svg>
