<svg width="80" height="88" viewBox="0 0 80 88" fill="none" xmlns="http://www.w3.org/2000/svg">
<path fill-rule="evenodd" clip-rule="evenodd" d="M9.19604 29.175C10.6018 29.1739 11.9755 28.7559 13.1438 27.9741C14.3121 27.1923 15.2223 26.0816 15.7595 24.7826C16.2967 23.4835 16.4365 22.0544 16.1616 20.6758C15.8867 19.2972 15.2094 18.0311 14.2151 17.0375C13.2207 16.0438 11.954 15.3672 10.5752 15.0933C9.19641 14.8194 7.76742 14.9604 6.46875 15.4985C5.17008 16.0366 4.06006 16.9476 3.27905 18.1164C2.49805 19.2852 2.08125 20.6593 2.08105 22.0651C2.08092 22.9992 2.26474 23.9242 2.62231 24.7872C2.97989 25.6502 3.50401 26.4343 4.16479 27.0947C4.82558 27.755 5.61013 28.2786 6.47339 28.6356C7.33665 28.9925 8.26189 29.1758 9.19604 29.175Z" fill="#F1F4FB"/>
<path fill-rule="evenodd" clip-rule="evenodd" d="M9.1979 15.5809C7.91413 15.5805 6.65904 15.9609 5.59146 16.6739C4.52388 17.3869 3.69156 18.4005 3.2001 19.5864C2.70864 20.7724 2.58012 22.0775 2.83047 23.3366C3.08082 24.5957 3.69883 25.7523 4.60659 26.66C5.51436 27.5678 6.67096 28.186 7.93008 28.4364C9.1892 28.6867 10.4943 28.558 11.6803 28.0665C12.8663 27.5751 13.8799 26.7429 14.5929 25.6754C15.3059 24.6078 15.6861 23.3527 15.6857 22.0689C15.6854 20.3483 15.002 18.6982 13.7853 17.4815C12.5686 16.2648 10.9185 15.5812 9.1979 15.5809ZM9.1979 29.7999C7.66866 29.7999 6.17377 29.3465 4.90225 28.4969C3.63073 27.6473 2.63956 26.4397 2.05435 25.0269C1.46913 23.614 1.31606 22.0594 1.61441 20.5595C1.91275 19.0597 2.64903 17.6819 3.73037 16.6006C4.81171 15.5193 6.1895 14.7828 7.68936 14.4845C9.18922 14.1862 10.7438 14.3393 12.1566 14.9245C13.5695 15.5097 14.777 16.5008 15.6266 17.7723C16.4762 19.0438 16.9298 20.5387 16.9298 22.0679C16.9288 24.1183 16.1138 26.0843 14.664 27.5341C13.2142 28.9839 11.2482 29.7989 9.1979 29.7999Z" fill="#1B69FF"/>
<path fill-rule="evenodd" clip-rule="evenodd" d="M39.7058 79.1871C46.676 79.1871 53.4896 77.1203 59.2852 73.2478C65.0807 69.3754 69.5978 63.8713 72.2651 57.4316C74.9325 50.992 75.6306 43.906 74.2708 37.0698C72.9109 30.2335 69.5544 23.954 64.6257 19.0253C59.6971 14.0966 53.4176 10.7401 46.5813 9.38032C39.745 8.0205 32.6589 8.71836 26.2192 11.3857C19.7796 14.0531 14.2755 18.5702 10.4031 24.3657C6.53064 30.1612 4.46387 36.9749 4.46387 43.9451C4.46652 53.2911 8.18024 62.2535 14.7888 68.8621C21.3974 75.4706 30.3599 79.1845 39.7058 79.1871Z" fill="white"/>
<path fill-rule="evenodd" clip-rule="evenodd" d="M39.7048 9.32597C32.8568 9.32557 26.1625 11.3559 20.4685 15.1602C14.7744 18.9645 10.3363 24.3719 7.71556 30.6986C5.09481 37.0253 4.40914 43.987 5.7451 50.7034C7.08105 57.4198 10.3786 63.5892 15.2209 68.4314C20.0633 73.2736 26.2327 76.5711 32.9492 77.9069C39.6657 79.2427 46.6275 78.5567 52.9541 75.9358C59.2807 73.3148 64.688 68.8766 68.4922 63.1825C72.2963 57.4883 74.3263 50.794 74.3257 43.946C74.3161 34.7669 70.6657 25.9665 64.175 19.4761C57.6844 12.9856 48.8839 9.33523 39.7048 9.32597ZM39.7048 79.8099C32.6122 79.8095 25.6789 77.706 19.7817 73.7653C13.8846 69.8246 9.28826 64.2237 6.5742 57.6708C3.86014 51.118 3.15011 43.9075 4.53392 36.9512C5.91772 29.9948 9.33334 23.605 14.3486 18.5897C19.3639 13.5744 25.7536 10.1589 32.7099 8.77513C39.6663 7.39132 46.8768 8.10135 53.4297 10.8154C59.9825 13.5295 65.5834 18.1256 69.5241 24.0228C73.4649 29.92 75.5684 36.8533 75.5688 43.946C75.5593 53.4548 71.7777 62.5713 65.0539 69.2951C58.3302 76.0188 49.2136 79.8004 39.7048 79.8099Z" fill="#1B69FF"/>
<path fill-rule="evenodd" clip-rule="evenodd" d="M55.1468 28.2439C62.3138 27.3799 68.0169 27.7379 71.8639 29.0549C73.7636 29.6066 75.4507 30.7226 76.7018 32.2549C77.2365 32.9666 77.6066 33.7882 77.7853 34.6603C77.9639 35.5324 77.9468 36.4333 77.735 37.2979C77.2335 39.3272 76.2498 41.2056 74.8678 42.7739C74.8518 41.7989 74.762 40.8129 74.662 39.8279C75.239 38.9386 75.6528 37.9535 75.8839 36.9189C76.0316 36.315 76.0468 35.6863 75.9286 35.0759C75.8103 34.4655 75.5614 33.888 75.1988 33.3829C74.1564 32.1636 72.7753 31.2814 71.2308 30.8479C67.6468 29.6149 62.2449 29.2929 55.3939 30.1149C45.6817 31.4201 36.2075 34.1143 27.2618 38.1149C18.4618 42.0099 10.946 46.8149 6.78696 51.6019C5.3423 53.0907 4.29637 54.9198 3.74595 56.9199C3.59693 57.5238 3.58226 58.1531 3.70322 58.7632C3.82418 59.3734 4.07776 59.9495 4.4459 60.4509C5.48298 61.6693 6.85885 62.5517 8.39878 62.9859C9.0586 63.209 9.7309 63.394 10.412 63.5399C10.918 64.2989 11.4609 65.0309 12.0189 65.7399C10.5803 65.559 9.163 65.2378 7.78696 64.7809C5.88172 64.2285 4.18784 63.1131 2.92783 61.5809C2.40168 60.8646 2.03682 60.0428 1.8585 59.1721C1.68017 58.3014 1.69267 57.4024 1.89487 56.5369C2.50544 54.2187 3.69688 52.0945 5.35679 50.3649C9.70979 45.3579 17.4729 40.3829 26.4959 36.3829C35.6073 32.3119 45.256 29.571 55.1468 28.2439Z" fill="#F1F4FB"/>
<path fill-rule="evenodd" clip-rule="evenodd" d="M55.2148 28.8609C45.3813 30.1741 35.789 32.9005 26.7349 36.9558C17.4179 41.0928 9.986 45.9999 5.823 50.7749C4.23317 52.4249 3.09041 54.4532 2.50293 56.6679C2.31675 57.4478 2.30332 58.2589 2.46363 59.0445C2.62393 59.8301 2.95407 60.5712 3.43091 61.2158C4.61347 62.6518 6.20494 63.694 7.9939 64.2039C8.84015 64.489 9.7047 64.7162 10.5818 64.8839C10.3818 64.6259 10.2118 64.3618 10.0388 64.0988C9.41675 63.9577 8.80271 63.7838 8.19898 63.5778C6.53974 63.1063 5.05998 62.148 3.95093 60.8269C3.52972 60.2559 3.2396 59.5991 3.10132 58.9032C2.96304 58.2073 2.97996 57.4895 3.15088 56.8009C3.7198 54.6991 4.80711 52.7736 6.31299 51.2008C10.413 46.5008 17.7498 41.6559 26.9988 37.5509C35.9986 33.5228 45.5326 30.8143 55.3059 29.5089C62.0519 28.6919 67.6329 28.9608 71.4438 30.2678C73.1032 30.7391 74.5831 31.6975 75.6919 33.0189C76.1136 33.5896 76.4044 34.2462 76.5437 34.942C76.683 35.6378 76.6673 36.3557 76.4978 37.0448C76.2598 38.0814 75.8519 39.0714 75.2908 39.9749C75.3428 40.3279 75.375 40.6808 75.396 41.0338C76.2204 39.8736 76.8145 38.566 77.146 37.1818C77.3316 36.4006 77.344 35.5883 77.1829 34.8017C77.0217 34.015 76.6907 33.2731 76.2129 32.6278C75.0306 31.1935 73.4408 30.1516 71.6538 29.6399C67.7538 28.3059 62.0728 28.0328 55.2158 28.8598L55.2148 28.8609ZM12.0149 66.3698C11.9845 66.3706 11.9541 66.3669 11.9248 66.3588C10.4501 66.1742 8.99745 65.8439 7.58789 65.3728C5.56447 64.7777 3.76775 63.5858 2.43286 61.9528C1.84523 61.1713 1.43849 60.269 1.2417 59.3112C1.04491 58.3533 1.06303 57.3638 1.29493 56.4138C1.92927 53.9971 3.16179 51.7789 4.87891 49.9638C9.16291 45.0508 16.7319 40.0288 26.2439 35.8228C35.4084 31.716 45.1178 28.9542 55.0718 27.6228C62.1028 26.7738 67.979 27.0699 72.053 28.4669C74.0766 29.0639 75.874 30.2554 77.2119 31.8869C77.7972 32.6696 78.2023 33.572 78.3982 34.5296C78.5941 35.4871 78.5759 36.4762 78.345 37.4259C77.8168 39.5467 76.7927 41.5119 75.3569 43.1599C75.2775 43.2581 75.1701 43.3296 75.0488 43.3649C74.9276 43.4002 74.7984 43.3977 74.6787 43.3575C74.559 43.3174 74.4543 43.2416 74.3789 43.1403C74.3035 43.039 74.261 42.9171 74.2568 42.7909C74.2208 41.8689 74.1569 40.8909 74.0469 39.8979C74.0335 39.7616 74.0648 39.6247 74.136 39.5078C74.67 38.6739 75.0599 37.7561 75.2898 36.7929C75.414 36.2734 75.4248 35.7333 75.3213 35.2094C75.2177 34.6854 75.0024 34.19 74.6899 33.7569C73.7302 32.6367 72.4583 31.8279 71.0369 31.4339C67.4009 30.1899 62.014 29.9418 55.458 30.7339C45.8056 32.0282 36.3898 34.705 27.5 38.6818C18.409 42.7138 11.2258 47.4469 7.23584 52.0169C5.87086 53.4284 4.87984 55.1583 4.35279 57.0498C4.22218 57.5688 4.20827 58.1102 4.31202 58.6352C4.41576 59.1602 4.6347 59.6556 4.95288 60.0858C5.90882 61.2091 7.18184 62.0174 8.60498 62.4049C9.23466 62.6211 9.87668 62.7991 10.5278 62.9378C10.6836 62.9733 10.8208 63.0652 10.9128 63.1958C11.4178 63.9388 11.9459 64.6658 12.5039 65.3618C12.5786 65.4594 12.6234 65.5765 12.6328 65.699C12.6422 65.8215 12.6159 65.9441 12.5569 66.0518C12.5034 66.1486 12.425 66.2292 12.3296 66.2852C12.2342 66.3411 12.1255 66.3703 12.0149 66.3698Z" fill="#1B69FF"/>
<path fill-rule="evenodd" clip-rule="evenodd" d="M38.9038 6.77747C40.6328 3.84747 42.3506 1.99747 43.9426 1.17047C44.517 0.832211 45.1677 0.645063 45.834 0.626526C46.5003 0.607988 47.1604 0.758649 47.7527 1.06445C49.0033 1.82941 49.9768 2.97414 50.5308 4.33148C51.4786 6.48121 52.1261 8.75115 52.4548 11.0775C51.7758 10.8145 51.0897 10.5775 50.4097 10.3555C50.1005 8.56457 49.5731 6.81824 48.8396 5.15546C48.4483 4.16938 47.7643 3.32689 46.8796 2.74145C46.5536 2.58525 46.1935 2.51356 45.8325 2.53296C45.4715 2.55236 45.1212 2.66223 44.8137 2.85248C43.5227 3.52148 42.0737 5.12949 40.5137 7.73749C37.0877 13.4925 33.9786 22.7895 31.7136 33.1765C29.3929 43.6692 28.1641 54.3738 28.0466 65.1194C28.0466 73.4304 28.9898 79.4195 30.5818 82.7275C30.9727 83.711 31.6547 84.5515 32.5366 85.1365C32.8627 85.2926 33.223 85.3642 33.584 85.3448C33.945 85.3255 34.2953 85.2156 34.6028 85.0255C35.8938 84.3615 37.3278 82.7535 38.9028 80.1395C39.0768 79.8345 39.2718 79.5125 39.4458 79.1805H39.7036C40.3576 79.1805 40.9848 79.1645 41.6118 79.1285C41.2638 79.8285 40.8947 80.4875 40.5117 81.1045C38.7837 84.0395 37.0706 85.8845 35.4636 86.7125C34.8919 87.05 34.2442 87.2372 33.5806 87.2567C32.9169 87.2761 32.2591 87.127 31.6687 86.8235C30.4161 86.0568 29.4411 84.9101 28.8857 83.5505C27.1727 79.9985 26.1396 73.7165 26.1396 65.1205C26.266 54.2397 27.5147 43.401 29.8657 32.7765C32.1587 22.2215 35.3568 12.7215 38.9038 6.77747Z" fill="#F1F4FB"/>
<path fill-rule="evenodd" clip-rule="evenodd" d="M46.0042 1.24505C45.3853 1.25897 44.7791 1.42337 44.238 1.72405C42.699 2.52405 41.07 4.32405 39.426 7.09405C36.037 12.794 32.8541 21.961 30.4771 32.913C28.1298 43.4929 26.8898 54.2884 26.7771 65.1251C26.7771 73.2671 27.7202 79.713 29.4492 83.286C29.9481 84.5258 30.8307 85.5733 31.968 86.275C32.4679 86.535 33.0265 86.6617 33.5896 86.6432C34.1527 86.6246 34.7014 86.4613 35.1831 86.169C36.7221 85.369 38.3511 83.569 39.9941 80.793C40.1841 80.472 40.3791 80.14 40.5691 79.793C40.3061 79.798 40.0632 79.804 39.8152 79.804C39.6942 80.025 39.5572 80.247 39.4302 80.457C37.8442 83.118 36.3212 84.842 34.8872 85.58C34.4956 85.8186 34.0495 85.9536 33.5913 85.9722C33.1331 85.9907 32.6777 85.8922 32.2681 85.686C31.2601 85.0447 30.4771 84.1051 30.0281 82.998C28.3281 79.467 27.4402 73.285 27.4402 65.121C27.5481 54.3311 28.7773 43.5817 31.1082 33.046C33.4902 22.146 36.6522 13.04 39.9932 7.42205C41.5632 4.77105 43.1021 3.04705 44.5371 2.30505C44.9297 2.06698 45.3762 1.93193 45.835 1.91253C46.2937 1.89312 46.7498 1.98996 47.1611 2.19402C48.1666 2.83691 48.9476 3.77615 49.3962 4.88201C50.1082 6.48262 50.6315 8.16054 50.9561 9.88201C51.1821 9.96101 51.4303 10.0401 51.6562 10.1251C51.3326 8.2209 50.7697 6.36522 49.9812 4.60204C49.4839 3.36153 48.6007 2.31388 47.4622 1.61401C47.0175 1.37213 46.5194 1.24532 46.0132 1.24505H46.0042ZM33.4172 87.887C32.7107 87.8866 32.0151 87.711 31.3931 87.376C30.0151 86.5543 28.9408 85.308 28.3311 83.824C26.4971 80.035 25.5312 73.568 25.5312 65.124C25.6495 54.1991 26.898 43.3158 29.2571 32.648C31.6711 21.57 34.9023 12.268 38.3643 6.46001C40.1303 3.49301 41.9171 1.52702 43.6641 0.621024C44.3242 0.234024 45.0719 0.0208694 45.8369 0.00145635C46.6019 -0.0179567 47.3592 0.156983 48.0381 0.510001C49.4123 1.33478 50.4843 2.58029 51.0952 4.062C52.0745 6.26272 52.7395 8.59015 53.071 10.976C53.087 11.0837 53.0749 11.1938 53.0354 11.2953C52.9959 11.3969 52.9305 11.4863 52.8459 11.5549C52.7614 11.6236 52.6604 11.669 52.553 11.6867C52.4455 11.7044 52.3353 11.6938 52.2332 11.656C51.5692 11.398 50.9051 11.156 50.2261 10.944C50.1191 10.9111 50.0234 10.8496 49.949 10.766C49.8746 10.6824 49.8245 10.5801 49.8042 10.47C49.506 8.73275 48.9945 7.0389 48.2812 5.42699C47.9434 4.56011 47.3505 3.81607 46.5811 3.29302C46.344 3.18522 46.0837 3.13879 45.824 3.15801C45.5643 3.17723 45.3138 3.26148 45.0952 3.40301C43.8882 4.03101 42.4951 5.638 41.0581 8.057C37.7751 13.569 34.6761 22.534 32.3311 33.312C30.0116 43.7603 28.7824 54.4211 28.6631 65.123C28.6631 72.987 29.554 79.148 31.145 82.462C31.4861 83.3259 32.0785 84.0678 32.8452 84.592C33.0822 84.7009 33.343 84.7478 33.603 84.7284C33.8631 84.709 34.1138 84.6238 34.332 84.481C35.518 83.859 36.9321 82.246 38.3691 79.827C38.5431 79.527 38.7381 79.21 38.9121 78.884C38.9659 78.7875 39.0448 78.7072 39.1404 78.6516C39.2359 78.596 39.3445 78.5672 39.4551 78.568H39.7131C40.3461 78.568 40.9781 78.547 41.5891 78.516C41.6986 78.5099 41.8079 78.5327 41.9058 78.5823C42.0036 78.6318 42.0868 78.7063 42.1467 78.7981C42.2067 78.89 42.2412 78.996 42.2471 79.1056C42.253 79.2151 42.2299 79.3243 42.1802 79.4221C41.8162 80.1281 41.4313 80.7971 41.0623 81.4221C39.2973 84.3951 37.5162 86.36 35.7622 87.262C35.0422 87.656 34.2378 87.8704 33.4172 87.887Z" fill="#1B69FF"/>
<path fill-rule="evenodd" clip-rule="evenodd" d="M11.3516 72.5199C12.6087 74.7476 14.4681 76.5761 16.7166 77.7959C20.5166 79.8619 25.4384 80.1728 30.8464 78.7028C30.4254 78.5918 29.9875 78.4708 29.5715 78.3438C24.7805 79.4438 20.4225 79.0558 17.0335 77.2168C14.8813 76.0399 13.0999 74.2863 11.8894 72.1528C10.1603 68.9153 9.31172 65.2804 9.42847 61.6118C9.42847 53.4958 12.5905 44.0348 18.3455 34.9708C24.1005 25.9068 31.7344 18.3128 39.8684 13.6198C48.4164 8.68583 56.7385 7.6068 62.3875 10.6678C64.536 11.8483 66.3148 13.6016 67.5264 15.7328C69.0192 18.4744 69.8447 21.5295 69.9356 24.6499C70.1836 25.0299 70.4095 25.4088 70.6355 25.7938C70.6979 22.1704 69.8189 18.5928 68.0845 15.4108C66.8273 13.1657 64.9604 11.3223 62.6995 10.0938C56.8595 6.92082 48.3275 7.9938 39.5525 13.0558C39.5345 13.0618 39.5168 13.0688 39.4995 13.0768C31.2995 17.8258 23.5885 25.4768 17.7805 34.6208C11.9805 43.7908 8.78052 53.3778 8.78052 61.6158C8.66247 65.399 9.54334 69.1465 11.3345 72.4809C11.3333 72.4892 11.3346 72.4976 11.3384 72.5051C11.3421 72.5127 11.3481 72.5188 11.3555 72.5228L11.3516 72.5199ZM24.4275 80.8578C21.5374 80.9069 18.6815 80.2292 16.1216 78.8869C13.6613 77.5457 11.627 75.5405 10.2505 73.0998C10.2505 73.0838 10.2344 73.0728 10.2344 73.0578C8.35035 69.5436 7.42187 65.5964 7.54151 61.6109C7.54151 53.1419 10.8094 43.3178 16.7324 33.9528C22.6614 24.6248 30.5324 16.8198 38.9204 11.9758C38.9414 11.9708 38.9575 11.9598 38.9575 11.9548C48.1165 6.68485 57.0714 5.61985 63.2944 8.99885C65.7562 10.3393 67.7922 12.344 69.1704 14.7848C71.0673 18.3081 72.0017 22.2692 71.8794 26.2688C71.8794 26.8958 71.8634 27.5278 71.8264 28.1688C71.8181 28.3045 71.7655 28.4337 71.6765 28.5364C71.5875 28.6391 71.4671 28.7097 71.334 28.7372C71.2009 28.7647 71.0624 28.7477 70.9399 28.6887C70.8175 28.6297 70.7179 28.5321 70.6565 28.4108C70.0973 27.301 69.478 26.2224 68.8015 25.1798C68.7453 25.0879 68.7144 24.9826 68.7124 24.8748C68.6433 21.8941 67.8704 18.9719 66.4566 16.3468C65.3633 14.4095 63.747 12.819 61.7925 11.7568C56.5435 8.90585 48.6434 9.98585 40.4924 14.6918C32.5184 19.2918 25.0346 26.7298 19.3926 35.6358C13.7586 44.5058 10.6655 53.7298 10.6655 61.6128C10.5454 65.0644 11.3362 68.4869 12.9585 71.5358C14.0507 73.4756 15.6693 75.0669 17.6274 76.1258C20.7744 77.8388 24.8794 78.1768 29.4434 77.1059C29.5474 77.0777 29.6577 77.0815 29.7595 77.1168C30.9498 77.4724 32.1585 77.7628 33.3804 77.9868C33.5148 78.0103 33.6376 78.0778 33.7293 78.1789C33.8209 78.28 33.8763 78.4088 33.8865 78.5448C33.8943 78.6823 33.8576 78.8187 33.7817 78.9336C33.7059 79.0485 33.5951 79.1359 33.4656 79.1828C30.5686 80.2474 27.5125 80.8148 24.4265 80.8609L24.4275 80.8578Z" fill="#1B69FF"/>
<path fill-rule="evenodd" clip-rule="evenodd" d="M63.9424 18.6355C65.3795 18.6371 66.7848 18.2124 67.9805 17.4152C69.1762 16.618 70.1087 15.4841 70.6599 14.1569C71.2111 12.8297 71.3563 11.3689 71.0771 9.95916C70.798 8.54944 70.107 7.25418 69.0916 6.23723C68.0761 5.22029 66.7819 4.52733 65.3726 4.24602C63.9633 3.96471 62.5023 4.10768 61.1743 4.65685C59.8463 5.20603 58.7109 6.13673 57.9119 7.33123C57.1129 8.52573 56.6861 9.93039 56.6855 11.3675C56.6858 13.2931 57.45 15.1399 58.8105 16.5026C60.1711 17.8652 62.0168 18.6323 63.9424 18.6355Z" fill="#F1F4FB"/>
<path fill-rule="evenodd" clip-rule="evenodd" d="M63.9437 4.72241C62.6289 4.72123 61.3433 5.11001 60.2496 5.8396C59.1558 6.5692 58.3031 7.60682 57.7991 8.82117C57.2952 10.0355 57.1629 11.372 57.4188 12.6616C57.6746 13.9512 58.3071 15.136 59.2364 16.066C60.1657 16.9961 61.3501 17.6295 62.6395 17.8864C63.9289 18.1432 65.2656 18.0118 66.4803 17.5088C67.695 17.0058 68.7333 16.1538 69.4637 15.0606C70.1941 13.9674 70.5838 12.6821 70.5836 11.3674C70.5801 9.60693 69.8797 7.91949 68.6353 6.6742C67.391 5.4289 65.7041 4.72717 63.9437 4.72241ZM63.9437 19.2524C62.3844 19.2524 60.86 18.79 59.5636 17.9238C58.2671 17.0575 57.2565 15.8262 56.6597 14.3857C56.063 12.9451 55.9069 11.36 56.211 9.83069C56.5151 8.30137 57.266 6.89652 58.3685 5.79389C59.471 4.69125 60.8756 3.94031 62.4049 3.63599C63.9341 3.33167 65.5194 3.48766 66.96 4.08423C68.4007 4.6808 69.6319 5.69116 70.4984 6.98755C71.3648 8.28394 71.8275 9.80811 71.8277 11.3674C71.8235 13.457 70.9914 15.4599 69.5137 16.9376C68.0361 18.4152 66.0333 19.2482 63.9437 19.2524Z" fill="#1B69FF"/>
<path fill-rule="evenodd" clip-rule="evenodd" d="M48.5534 78.7072C53.9774 80.1832 58.8884 79.8672 62.6994 77.8002C64.9492 76.5786 66.8096 74.7485 68.0683 72.5192C68.0683 72.5092 68.0844 72.4982 68.0844 72.4822C69.8766 69.1477 70.7566 65.399 70.6354 61.6152C70.6354 53.3832 67.4354 43.7902 61.6354 34.6202C55.8284 25.4712 48.1173 17.8202 39.9013 13.0762C39.9013 13.0712 39.8853 13.0612 39.8703 13.0552C31.1053 7.99024 22.5705 6.9152 16.7175 10.0932C14.6825 11.199 12.9619 12.8039 11.7175 14.7572C11.9285 14.8312 12.1393 14.9102 12.3503 14.9992C13.5236 13.1845 15.1352 11.6947 17.0363 10.6672C22.6803 7.60524 31.0073 8.6852 39.5553 13.6192C47.6813 18.3192 55.3233 25.8992 61.0783 34.9742C66.8333 44.0492 69.9963 53.5042 69.9963 61.6152C70.1103 65.2842 69.2598 68.9189 67.5295 72.1562C66.3211 74.2892 64.5416 76.0429 62.3913 77.2202C58.9973 79.0592 54.6434 79.4492 49.8534 78.3472C49.4324 78.4732 48.9944 78.5962 48.5534 78.7072ZM54.9885 80.8632C51.903 80.8169 48.8473 80.2502 45.9504 79.1872C45.8216 79.1409 45.7111 79.0546 45.6352 78.9408C45.5592 78.827 45.5219 78.6919 45.5285 78.5552C45.5399 78.418 45.5961 78.2884 45.6886 78.1864C45.7812 78.0844 45.905 78.0158 46.0405 77.9912C47.2603 77.7669 48.4671 77.4765 49.6554 77.1212C49.7578 77.0889 49.867 77.0851 49.9714 77.1102C54.5354 78.1802 58.6404 77.8432 61.7914 76.1302C63.7471 75.0696 65.3638 73.4787 66.4555 71.5402C68.0784 68.4915 68.8693 65.0689 68.7485 61.6172C68.7485 53.7332 65.6543 44.5102 60.0263 35.6402C54.3763 26.7282 46.8774 19.2922 38.9194 14.6962C30.7764 9.99023 22.8714 8.90923 17.6274 11.7612C15.7495 12.7792 14.183 14.2874 13.0944 16.1252C13.0131 16.2618 12.8821 16.3616 12.7289 16.4039C12.5757 16.4462 12.4122 16.4277 12.2724 16.3522C11.7581 16.0711 11.2062 15.8653 10.6335 15.7412C10.5398 15.7212 10.4525 15.6785 10.3791 15.617C10.3057 15.5555 10.2484 15.477 10.2123 15.3882C10.1689 15.3027 10.1481 15.2074 10.1518 15.1115C10.1555 15.0156 10.1835 14.9222 10.2333 14.8402C11.6034 12.3771 13.6449 10.3539 16.1203 9.00623C22.3603 5.62823 31.2984 6.69222 40.4584 11.9622C40.4584 11.9672 40.4793 11.9782 40.4953 11.9832C48.8853 16.8322 56.7543 24.6372 62.6833 33.9602C68.6073 43.3312 71.8835 53.1492 71.8835 61.6182C72.0027 65.6054 71.074 69.554 69.1904 73.0702C69.1904 73.0802 69.1745 73.0912 69.1745 73.1072C67.7947 75.5471 65.7589 77.5518 63.2983 78.8942C60.737 80.2363 57.8796 80.914 54.9885 80.8632Z" fill="#1B69FF"/>
<path fill-rule="evenodd" clip-rule="evenodd" d="M3.27271 37.2868C3.25671 37.2968 3.2566 37.3128 3.2356 37.3238C1.93602 39.2878 1.24317 41.5908 1.24317 43.9458C1.24317 46.3009 1.93602 48.6038 3.2356 50.5678C5.1436 53.6348 8.28974 56.3598 12.5737 58.6628C19.8307 62.5578 29.4656 64.7028 39.7046 64.7028C49.9436 64.7028 59.5898 62.5578 66.8418 58.6628C71.1098 56.3628 74.2416 53.6558 76.1416 50.6048C76.1492 50.601 76.1555 50.5948 76.1594 50.5873C76.1634 50.5798 76.1647 50.5712 76.1636 50.5628C77.4728 48.6023 78.1716 46.2978 78.1716 43.9403C78.1716 41.5829 77.4728 39.2783 76.1636 37.3178C75.6615 36.5043 75.0884 35.737 74.4507 35.0248C74.5877 35.5728 74.7088 36.1318 74.8308 36.6858C75.0618 36.9918 75.2727 37.3018 75.4627 37.6128C75.4627 37.6288 75.4788 37.6448 75.4788 37.6608C76.6907 39.5337 77.3463 41.7121 77.3696 43.9428C77.3418 46.1902 76.6808 48.3841 75.4627 50.2728C73.1748 53.6291 70.0523 56.3318 66.4026 58.1148C66.3874 58.1236 66.3715 58.1306 66.3547 58.1358C59.2347 61.9458 49.7746 64.0438 39.7026 64.0438C29.6306 64.0438 20.1558 61.9438 13.0408 58.1358C13.0248 58.1248 13.0248 58.1198 13.0088 58.1148C9.36047 56.3302 6.23863 53.6278 3.94972 50.2728C2.70921 48.3958 2.04786 46.1957 2.04786 43.9458C2.04786 41.696 2.70921 39.4957 3.94972 37.6188C4.14971 37.3028 4.3558 36.9968 4.5818 36.6868C4.6868 36.1328 4.8248 35.5748 4.9668 35.0208C4.33666 35.7264 3.76773 36.4845 3.26661 37.2868H3.27271ZM39.7058 65.9418C29.2708 65.9418 19.4256 63.7418 11.9956 59.7548C7.50561 57.3468 4.21675 54.4798 2.18775 51.2228C0.764222 49.0707 0.00382886 46.548 0.000984572 43.9677C-0.00185972 41.3874 0.752856 38.863 2.17164 36.7078C2.17164 36.6978 2.18775 36.6818 2.18775 36.6718C3.20494 35.0829 4.43576 33.6414 5.84571 32.3878C5.94677 32.2975 6.0748 32.2428 6.20997 32.2323C6.34514 32.2218 6.47998 32.2561 6.59376 32.3298C6.70591 32.4075 6.79038 32.5189 6.83497 32.6478C6.87956 32.7767 6.88201 32.9165 6.8418 33.0468C6.40004 34.3634 6.04258 35.7068 5.77174 37.0688C5.75714 37.1575 5.72289 37.2419 5.67164 37.3158C5.42864 37.6318 5.2186 37.9538 5.0066 38.2748C3.88989 39.9562 3.29444 41.9298 3.29444 43.9483C3.29444 45.9668 3.88989 47.9404 5.0066 49.6218C7.17164 52.7812 10.1191 55.3254 13.5608 57.0058C13.5789 57.0117 13.5966 57.0187 13.6138 57.0268C20.5538 60.7528 29.8196 62.8028 39.7136 62.8028C49.6076 62.8028 58.8818 60.7528 65.8228 57.0268C65.8387 57.0149 65.8566 57.0061 65.8757 57.0008C69.3159 55.3224 72.2617 52.7798 74.4248 49.6218C75.5415 47.9404 76.137 45.9668 76.137 43.9483C76.137 41.9298 75.5415 39.9562 74.4248 38.2748C74.4088 38.2588 74.3877 38.2438 74.3877 38.2278C74.1977 37.9218 73.9877 37.6158 73.7607 37.3108C73.7086 37.2386 73.6725 37.1561 73.6548 37.0688C73.3831 35.7075 73.0276 34.3644 72.5906 33.0468C72.5482 32.918 72.5489 32.7788 72.5925 32.6503C72.6362 32.5219 72.7206 32.4111 72.8328 32.3348C72.9471 32.2596 73.083 32.2245 73.2195 32.235C73.3559 32.2455 73.4852 32.301 73.5867 32.3928C74.9926 33.6424 76.2164 35.0827 77.2227 36.6718C78.635 38.8366 79.3983 41.3602 79.4226 43.9448C79.3916 46.512 78.6412 49.0189 77.2566 51.1808C77.2566 51.1968 77.2356 51.2068 77.2356 51.2228C75.2066 54.4798 71.9027 57.3468 67.4277 59.7548C59.9907 63.7438 50.1468 65.9418 39.7058 65.9418Z" fill="#1B69FF"/>
<path fill-rule="evenodd" clip-rule="evenodd" d="M47.0149 72.0083C48.6074 72.0073 50.1639 71.5343 51.4876 70.6488C52.8112 69.7634 53.8424 68.5054 54.4512 67.0338C55.0599 65.5623 55.2189 63.9434 54.9077 62.3816C54.5965 60.8198 53.8292 59.3854 52.7029 58.2597C51.5766 57.1339 50.1418 56.3673 48.5798 56.0568C47.0179 55.7464 45.399 55.906 43.9277 56.5155C42.4565 57.125 41.199 58.157 40.3142 59.4811C39.4294 60.8052 38.9572 62.3619 38.957 63.9544C38.9561 65.0126 39.1639 66.0606 39.5686 67.0385C39.9733 68.0163 40.5667 68.9047 41.3152 69.6529C42.0637 70.401 42.9524 70.9941 43.9304 71.3983C44.9085 71.8025 45.9566 72.0098 47.0149 72.0083Z" fill="#1B69FF"/>
<path fill-rule="evenodd" clip-rule="evenodd" d="M47.0148 56.5193C45.5444 56.5187 44.107 56.9541 42.8842 57.7705C41.6613 58.5869 40.7079 59.7477 40.1447 61.1059C39.5815 62.4641 39.4338 63.9587 39.7201 65.4009C40.0065 66.8431 40.714 68.1681 41.7533 69.2082C42.7927 70.2482 44.1172 70.9566 45.5592 71.2439C47.0012 71.5312 48.496 71.3844 49.8546 70.8222C51.2132 70.2599 52.3746 69.3074 53.1918 68.0851C54.009 66.8628 54.4453 65.4256 54.4457 63.9552C54.4428 61.9848 53.6593 60.0959 52.2665 58.7022C50.8737 57.3084 48.9852 56.5235 47.0148 56.5193ZM47.0148 72.6253C45.2997 72.6247 43.6232 72.1155 42.1974 71.1621C40.7717 70.2088 39.6606 68.8541 39.0048 67.2693C38.3489 65.6846 38.1777 63.9409 38.5128 62.2588C38.848 60.5768 39.6745 59.0319 40.8876 57.8195C42.1007 56.6071 43.646 55.7816 45.3283 55.4474C47.0105 55.1133 48.7541 55.2855 50.3385 55.9422C51.9229 56.599 53.2769 57.7108 54.2294 59.1371C55.1819 60.5634 55.6902 62.2401 55.6898 63.9552C55.6896 65.0941 55.4651 66.2219 55.029 67.274C54.5928 68.3261 53.9537 69.282 53.1481 70.0871C52.3425 70.8922 51.3862 71.5307 50.3339 71.9662C49.2815 72.4017 48.1537 72.6257 47.0148 72.6253Z" fill="#1B69FF"/>
</svg>
