<svg width="109" height="78" viewBox="0 0 109 78" fill="none" xmlns="http://www.w3.org/2000/svg">
<path fill-rule="evenodd" clip-rule="evenodd" d="M0.97168 17.945L30.9597 0.635955C31.1234 0.563292 31.3031 0.534322 31.4813 0.551849C31.6596 0.569375 31.8303 0.632836 31.9767 0.735992L58.8226 16.236C59.2481 16.5043 59.5983 16.8767 59.8397 17.318L29.8507 34.618C29.6135 34.1887 29.2817 33.8191 28.8806 33.537L1.98767 18.037C1.8416 17.9331 1.67056 17.8699 1.49207 17.8537C1.31357 17.8376 1.13403 17.8691 0.97168 17.945Z" fill="white"/>
<path fill-rule="evenodd" clip-rule="evenodd" d="M59.0518 17.1446L30.0338 33.9036C29.7881 33.5845 29.4914 33.3081 29.1558 33.0856L2.49477 17.6996L31.2349 1.10657C31.3269 1.06557 31.4198 1.0566 31.7438 1.2226L58.5438 16.7065C58.7324 16.8291 58.9032 16.9758 59.0518 17.1446ZM29.8518 35.1706C29.949 35.17 30.0443 35.1445 30.1288 35.0966L60.1178 17.7966C60.2512 17.7254 60.3508 17.6042 60.3948 17.4596C60.4108 17.3146 60.3785 17.1683 60.3029 17.0436C60.0302 16.5193 59.6139 16.0833 59.1028 15.7866L32.2569 0.275574C32.0342 0.126749 31.777 0.0375514 31.51 0.0165409C31.243 -0.00446972 30.975 0.0434147 30.7318 0.155579L0.697771 17.4786C0.582007 17.5535 0.498773 17.6693 0.464495 17.8029C0.430217 17.9365 0.447469 18.0781 0.512835 18.1996C0.576055 18.3206 0.683131 18.4128 0.812151 18.4575C0.941171 18.5021 1.08234 18.4957 1.2068 18.4396C1.3448 18.3746 1.43688 18.3656 1.76088 18.5276L28.6018 34.0156C28.9431 34.2358 29.2155 34.5477 29.3878 34.9156C29.4396 34.991 29.5081 35.0533 29.5882 35.0976C29.6682 35.1419 29.7574 35.1669 29.8488 35.1706H29.8518Z" fill="#005BEA"/>
<path fill-rule="evenodd" clip-rule="evenodd" d="M0.556576 18.8802C0.532457 18.7006 0.558581 18.5179 0.632016 18.3523C0.70545 18.1868 0.823339 18.0448 0.972592 17.9421C1.13544 17.8658 1.31583 17.8349 1.49481 17.8525C1.67379 17.8701 1.8447 17.9356 1.98956 18.0422L28.8825 33.5422C29.2941 33.8123 29.6285 34.1848 29.8526 34.6232C30.1312 35.0495 30.2911 35.5424 30.3156 36.0511V45.2231C30.3318 45.4069 30.297 45.5916 30.2154 45.757C30.1337 45.9224 30.0083 46.0622 29.8526 46.1612C29.6976 46.2363 29.5247 46.2667 29.3533 46.249C29.182 46.2313 29.0189 46.1663 28.8825 46.0611L1.98956 30.5611C1.57366 30.2797 1.22618 29.9086 0.972592 29.4751C0.707402 29.0455 0.563622 28.552 0.556576 28.0472V18.8802Z" fill="white"/>
<path fill-rule="evenodd" clip-rule="evenodd" d="M1.3403 18.3923C1.47271 18.3979 1.60065 18.4413 1.70919 18.5173L28.6013 34.0173C28.9376 34.236 29.2091 34.5409 29.3873 34.9003C29.6083 35.2487 29.7357 35.6483 29.7573 36.0603V45.2323C29.7733 45.4001 29.7234 45.5676 29.6182 45.6993C29.5263 45.7413 29.3872 45.7413 29.1102 45.5993L2.26425 30.0993C1.9247 29.8705 1.64044 29.5689 1.43221 29.2163C1.22433 28.8648 1.11291 28.4647 1.10922 28.0563V18.8824C1.10922 18.6004 1.15528 18.4573 1.24728 18.4153C1.29328 18.3963 1.2933 18.3873 1.3403 18.3873V18.3923ZM29.4803 46.8143C29.7074 46.816 29.9307 46.757 30.1273 46.6434C30.367 46.4979 30.5626 46.2899 30.693 46.0416C30.8233 45.7934 30.8836 45.5143 30.8673 45.2344V36.0624C30.8474 35.4614 30.6723 34.8757 30.3592 34.3623C30.0557 33.8378 29.627 33.3966 29.1113 33.0783L2.26522 17.5783C2.03574 17.4239 1.76931 17.3332 1.49325 17.3157C1.21719 17.2981 0.941511 17.3542 0.6943 17.4783C0.467903 17.6345 0.285227 17.8461 0.163904 18.093C0.0425816 18.3398 -0.013329 18.6137 0.00130639 18.8883V28.0603C0.0352476 28.6556 0.207357 29.2349 0.503992 29.7521C0.800627 30.2694 1.21362 30.7104 1.71029 31.0403L28.6023 46.5403C28.8639 46.7108 29.1681 46.8043 29.4803 46.8103V46.8143Z" fill="#005BEA"/>
<path fill-rule="evenodd" clip-rule="evenodd" d="M29.8486 34.6242L59.8376 17.3242C60.1113 17.7501 60.2558 18.2461 60.2537 18.7523V27.9243C60.2819 28.1041 60.2576 28.2882 60.1838 28.4545C60.1101 28.6209 59.9899 28.7625 59.8376 28.8622L29.8486 46.1622C29.9993 46.0582 30.1209 45.9175 30.2019 45.7534C30.2829 45.5892 30.3207 45.4071 30.3116 45.2242V36.0522C30.2743 35.546 30.1154 35.0561 29.8486 34.6242Z" fill="#F2F5FC"/>
<path fill-rule="evenodd" clip-rule="evenodd" d="M59.6069 18.0862C59.6787 18.3097 59.7253 18.5404 59.7459 18.7742V27.9232C59.6989 28.2562 59.6529 28.3233 59.5139 28.4133L30.867 44.9863V36.0643C30.8337 35.648 30.7403 35.2388 30.5899 34.8493L59.6079 18.0952L59.6069 18.0862ZM29.8499 46.7113C29.947 46.7107 30.0425 46.6852 30.127 46.6373L60.1159 29.3372C60.3473 29.1919 60.5344 28.9858 60.6566 28.7413C60.7788 28.4969 60.8316 28.2236 60.809 27.9512V18.7512C60.8114 18.1561 60.6516 17.5715 60.3469 17.0602C60.3059 16.9942 60.2521 16.9369 60.1887 16.8918C60.1254 16.8466 60.0538 16.8145 59.9779 16.7972C59.9085 16.7777 59.8358 16.7725 59.7643 16.7819C59.6928 16.7914 59.6239 16.8153 59.5619 16.8522L29.6199 34.1522C29.5561 34.1837 29.4994 34.2278 29.453 34.2817C29.4067 34.3356 29.3717 34.3984 29.3501 34.4661C29.3285 34.5339 29.3209 34.6053 29.3275 34.6762C29.3342 34.747 29.3551 34.8157 29.3889 34.8782C29.6113 35.2407 29.7386 35.6535 29.7589 36.0783V45.2272C29.7736 45.3187 29.7643 45.4124 29.7318 45.4992C29.6994 45.586 29.6449 45.6628 29.5739 45.7222C29.4596 45.8016 29.3779 45.9196 29.3439 46.0546C29.3099 46.1895 29.3259 46.3322 29.3889 46.4562C29.4444 46.5281 29.5138 46.5881 29.593 46.6324C29.6723 46.6767 29.7596 46.7046 29.8499 46.7142V46.7113Z" fill="#005BEA"/>
<path d="M27.6225 0.270848C26.1105 -0.629152 25.0615 0.754846 25.2455 3.35685C25.4455 5.97285 26.8456 8.85686 28.3566 9.78086C28.3696 9.78086 28.3706 9.79486 28.3846 9.79386C29.8846 10.6749 30.9306 9.30988 30.7466 6.69388C30.5466 4.07788 29.1465 1.19387 27.6355 0.269871C27.6355 0.284871 27.6355 0.270848 27.6225 0.270848Z" fill="#1B69FF"/>
<path d="M28.5553 11.3177C25.9853 9.79274 24.1683 11.9477 24.4913 16.1487C24.5104 16.3743 24.6157 16.5838 24.7853 16.7338L33.3943 21.9487C33.5453 22.0327 33.6473 21.9177 33.6233 21.6877L33.5903 21.2557C33.5809 21.1064 33.5656 20.9577 33.5443 20.8097C33.2708 18.5404 32.5252 16.3535 31.3553 14.3898C30.6827 13.1763 29.7392 12.1342 28.5983 11.3447H28.5823C28.5823 11.3297 28.5673 11.3307 28.5543 11.3157" fill="#1B69FF"/>
<path fill-rule="evenodd" clip-rule="evenodd" d="M48.168 28.4059L78.156 11.0969C78.3197 11.0242 78.4994 10.9953 78.6776 11.0128C78.8559 11.0303 79.0266 11.0938 79.173 11.1969L106.019 26.6969C106.444 26.9652 106.795 27.3376 107.036 27.7789L77.047 45.0789C76.8098 44.6497 76.478 44.28 76.0769 43.9979L49.184 28.4979C49.0379 28.3941 48.8668 28.3308 48.6884 28.3147C48.5099 28.2985 48.3303 28.33 48.168 28.4059Z" fill="white"/>
<path fill-rule="evenodd" clip-rule="evenodd" d="M106.248 27.6055L77.2301 44.3645C76.9844 44.0454 76.6877 43.769 76.3521 43.5465L49.6911 28.1605L78.4312 11.5675C78.5232 11.5265 78.6161 11.5175 78.9401 11.6835L105.74 27.1675C105.929 27.29 106.1 27.4367 106.248 27.6055ZM77.0481 45.6315C77.1453 45.631 77.2406 45.6054 77.3251 45.5575L107.314 28.2575C107.447 28.1863 107.547 28.0652 107.591 27.9205C107.607 27.7755 107.575 27.6293 107.499 27.5045C107.226 26.9802 106.81 26.5442 106.299 26.2475L79.4531 10.7365C79.2305 10.5877 78.9733 10.4985 78.7063 10.4775C78.4393 10.4565 78.1713 10.5044 77.9281 10.6165L47.8941 27.9395C47.7783 28.0145 47.6951 28.1303 47.6608 28.2639C47.6265 28.3974 47.6438 28.5391 47.7091 28.6605C47.7723 28.7815 47.8794 28.8738 48.0084 28.9184C48.1375 28.963 48.2786 28.9566 48.4031 28.9005C48.5411 28.8355 48.6332 28.8265 48.9572 28.9885L75.7981 44.4765C76.1394 44.6967 76.4118 45.0087 76.5841 45.3765C76.6358 45.452 76.7044 45.5143 76.7844 45.5585C76.8645 45.6028 76.9537 45.6278 77.0451 45.6315H77.0481Z" fill="#005BEA"/>
<path fill-rule="evenodd" clip-rule="evenodd" d="M47.7529 29.345C47.7287 29.1655 47.7549 28.9828 47.8283 28.8172C47.9017 28.6516 48.0196 28.5096 48.1689 28.407C48.3317 28.3306 48.5121 28.2997 48.6911 28.3173C48.8701 28.3349 49.041 28.4004 49.1858 28.507L76.0788 44.007C76.4904 44.2771 76.8248 44.6497 77.0489 45.088C77.3275 45.5143 77.4874 46.0073 77.5119 46.516V55.688C77.528 55.8717 77.4933 56.0564 77.4117 56.2218C77.33 56.3873 77.2046 56.5271 77.0489 56.626C76.8939 56.7011 76.721 56.7315 76.5496 56.7139C76.3783 56.6962 76.2152 56.6311 76.0788 56.526L49.1858 41.026C48.77 40.7445 48.4225 40.3734 48.1689 39.94C47.9037 39.5103 47.7599 39.0169 47.7529 38.512V29.345Z" fill="white"/>
<path fill-rule="evenodd" clip-rule="evenodd" d="M48.5366 28.8533C48.669 28.8588 48.7969 28.9022 48.9055 28.9783L75.7976 44.4783C76.1339 44.6969 76.4054 45.0018 76.5836 45.3612C76.8046 45.7097 76.932 46.1092 76.9536 46.5213V55.6933C76.9695 55.8611 76.9197 56.0285 76.8145 56.1603C76.7225 56.2023 76.5835 56.2023 76.3065 56.0603L49.4605 40.5603C49.121 40.3315 48.8367 40.0298 48.6285 39.6773C48.4206 39.3258 48.3092 38.9256 48.3055 38.5173V29.3433C48.3055 29.0613 48.3516 28.9183 48.4436 28.8763C48.4896 28.8573 48.4896 28.8482 48.5366 28.8482V28.8533ZM76.6766 57.2752C76.9037 57.2769 77.127 57.2179 77.3236 57.1043C77.5633 56.9588 77.7589 56.7508 77.8892 56.5025C78.0196 56.2543 78.0799 55.9752 78.0636 55.6953V46.5233C78.0436 45.9223 77.8686 45.3367 77.5555 44.8233C77.252 44.2987 76.8233 43.8576 76.3076 43.5393L49.4615 28.0393C49.232 27.8848 48.9656 27.7942 48.6895 27.7766C48.4135 27.759 48.1378 27.8151 47.8906 27.9392C47.6642 28.0954 47.4815 28.3071 47.3602 28.5539C47.2389 28.8008 47.183 29.0746 47.1976 29.3493V38.5213C47.2315 39.1166 47.4036 39.6958 47.7003 40.2131C47.9969 40.7303 48.4099 41.1713 48.9066 41.5013L75.7985 57.0013C76.0602 57.1717 76.3644 57.2653 76.6766 57.2713V57.2752Z" fill="#005BEA"/>
<path fill-rule="evenodd" clip-rule="evenodd" d="M77.0449 45.0851L107.034 27.7852C107.308 28.211 107.452 28.707 107.45 29.2132V38.3852C107.478 38.565 107.454 38.7491 107.38 38.9155C107.306 39.0818 107.186 39.2234 107.034 39.3232L77.0449 56.6232C77.1956 56.5192 77.3172 56.3784 77.3982 56.2143C77.4792 56.0501 77.517 55.868 77.5079 55.6852V46.5132C77.4705 46.0069 77.3117 45.517 77.0449 45.0851Z" fill="#F2F5FC"/>
<path fill-rule="evenodd" clip-rule="evenodd" d="M106.803 28.5472C106.875 28.7706 106.922 29.0014 106.942 29.2352V38.3842C106.895 38.7172 106.849 38.7842 106.71 38.8742L78.0632 55.4472V46.5252C78.03 46.109 77.9366 45.6997 77.7861 45.3102L106.804 28.5562L106.803 28.5472ZM77.0462 57.1722C77.1433 57.1716 77.2388 57.1462 77.3233 57.0982L107.312 39.7982C107.544 39.6528 107.731 39.4467 107.853 39.2023C107.975 38.9578 108.028 38.6845 108.005 38.4122V29.2122C108.008 28.617 107.848 28.0324 107.543 27.5212C107.502 27.4551 107.448 27.3979 107.385 27.3527C107.322 27.3076 107.25 27.2754 107.174 27.2582C107.105 27.2386 107.032 27.2334 106.961 27.2429C106.889 27.2523 106.82 27.2762 106.758 27.3132L76.8162 44.6132C76.7524 44.6447 76.6957 44.6887 76.6493 44.7426C76.6029 44.7966 76.568 44.8593 76.5464 44.9271C76.5248 44.9948 76.5171 45.0663 76.5238 45.1371C76.5305 45.2079 76.5514 45.2766 76.5852 45.3392C76.8076 45.7017 76.9349 46.1144 76.9552 46.5392V55.6882C76.9699 55.7796 76.9605 55.8734 76.9281 55.9602C76.8957 56.0469 76.8412 56.1237 76.7702 56.1832C76.6559 56.2625 76.5742 56.3806 76.5402 56.5155C76.5062 56.6504 76.5222 56.7931 76.5852 56.9172C76.6407 56.9891 76.7101 57.049 76.7893 57.0933C76.8685 57.1377 76.9559 57.1655 77.0462 57.1752V57.1722Z" fill="#005BEA"/>
<path fill-rule="evenodd" clip-rule="evenodd" d="M14.584 48.1676L44.572 30.8586C44.7357 30.7859 44.9154 30.757 45.0936 30.7745C45.2719 30.792 45.4426 30.8555 45.589 30.9586L72.4349 46.4586C72.8605 46.7269 73.2106 47.0993 73.452 47.5406L43.463 64.8406C43.2258 64.4114 42.8941 64.0417 42.4929 63.7596L15.6 48.2596C15.4539 48.1558 15.2829 48.0925 15.1044 48.0764C14.9259 48.0602 14.7463 48.0917 14.584 48.1676Z" fill="white"/>
<path fill-rule="evenodd" clip-rule="evenodd" d="M72.6641 47.3672L43.6461 64.1262C43.4004 63.8071 43.1037 63.5308 42.7681 63.3082L16.1071 47.9222L44.8472 31.3292C44.9392 31.2882 45.0321 31.2793 45.3561 31.4453L72.1561 46.9292C72.3447 47.0517 72.5155 47.1985 72.6641 47.3672ZM43.4641 65.3932C43.5613 65.3927 43.6566 65.3672 43.7411 65.3192L73.7301 48.0192C73.8635 47.9481 73.9631 47.8269 74.0071 47.6823C74.0231 47.5372 73.9908 47.391 73.9152 47.2662C73.6425 46.7419 73.2262 46.3059 72.7151 46.0092L45.8692 30.4982C45.6465 30.3494 45.3893 30.2602 45.1223 30.2392C44.8553 30.2182 44.5874 30.2661 44.3441 30.3782L14.3101 47.7012C14.1943 47.7762 14.1111 47.892 14.0768 48.0256C14.0425 48.1592 14.0598 48.3008 14.1251 48.4222C14.1884 48.5432 14.2954 48.6355 14.4245 48.6801C14.5535 48.7247 14.6946 48.7183 14.8191 48.6622C14.9571 48.5972 15.0492 48.5882 15.3732 48.7502L42.2141 64.2382C42.5554 64.4585 42.8278 64.7704 43.0001 65.1382C43.0519 65.2137 43.1204 65.276 43.2005 65.3203C43.2805 65.3645 43.3697 65.3895 43.4611 65.3932H43.4641Z" fill="#005BEA"/>
<path fill-rule="evenodd" clip-rule="evenodd" d="M14.1689 49.1067C14.1448 48.9272 14.1709 48.7445 14.2443 48.5789C14.3178 48.4133 14.4356 48.2713 14.5849 48.1687C14.7477 48.0924 14.9281 48.0614 15.1071 48.079C15.2861 48.0966 15.457 48.1621 15.6019 48.2687L42.4948 63.7687C42.9064 64.0389 43.2408 64.4114 43.4649 64.8497C43.7435 65.276 43.9034 65.769 43.9279 66.2777V75.4497C43.9441 75.6334 43.9093 75.8182 43.8277 75.9836C43.746 76.149 43.6206 76.2888 43.4649 76.3877C43.3099 76.4628 43.137 76.4932 42.9656 76.4756C42.7943 76.4579 42.6312 76.3928 42.4948 76.2877L15.6019 60.7877C15.186 60.5063 14.8385 60.1352 14.5849 59.7017C14.3197 59.2721 14.1759 58.7786 14.1689 58.2737V49.1067Z" fill="white"/>
<path fill-rule="evenodd" clip-rule="evenodd" d="M14.9526 48.615C15.085 48.6205 15.213 48.6639 15.3215 48.74L42.2136 64.24C42.5499 64.4586 42.8214 64.7636 42.9996 65.123C43.2206 65.4714 43.348 65.871 43.3696 66.283V75.455C43.3856 75.6228 43.3357 75.7902 43.2306 75.922C43.1386 75.964 42.9995 75.964 42.7225 75.822L15.8766 60.322C15.537 60.0932 15.2527 59.7915 15.0445 59.439C14.8366 59.0875 14.7252 58.6873 14.7215 58.279V49.105C14.7215 48.823 14.7676 48.68 14.8596 48.638C14.9056 48.619 14.9056 48.61 14.9526 48.61V48.615ZM43.0926 77.037C43.3197 77.0386 43.543 76.9796 43.7396 76.866C43.9793 76.7206 44.1749 76.5125 44.3053 76.2643C44.4356 76.016 44.4959 75.7369 44.4796 75.457V66.285C44.4597 65.684 44.2846 65.0984 43.9715 64.585C43.668 64.0605 43.2393 63.6193 42.7236 63.301L15.8775 47.801C15.648 47.6465 15.3816 47.5559 15.1056 47.5383C14.8295 47.5207 14.5538 47.5769 14.3066 47.701C14.0802 47.8572 13.8975 48.0688 13.7762 48.3157C13.6549 48.5625 13.599 48.8363 13.6136 49.111V58.283C13.6476 58.8783 13.8197 59.4575 14.1163 59.9748C14.4129 60.492 14.8259 60.933 15.3226 61.263L42.2146 76.763C42.4762 76.9334 42.7804 77.027 43.0926 77.033V77.037Z" fill="#005BEA"/>
<path fill-rule="evenodd" clip-rule="evenodd" d="M43.4609 64.8469L73.45 47.5469C73.7236 47.9727 73.8681 48.4687 73.866 48.9749V58.1469C73.8942 58.3267 73.8699 58.5108 73.7961 58.6772C73.7224 58.8436 73.6022 58.9851 73.45 59.0849L43.4609 76.3849C43.6116 76.2809 43.7332 76.1402 43.8142 75.976C43.8952 75.8119 43.933 75.6297 43.924 75.4469V66.2749C43.8866 65.7686 43.7277 65.2788 43.4609 64.8469Z" fill="#F2F5FC"/>
<path fill-rule="evenodd" clip-rule="evenodd" d="M73.2192 48.3089C73.291 48.5323 73.3376 48.7631 73.3582 48.9969V58.1459C73.3112 58.4789 73.2652 58.5459 73.1262 58.6359L44.4793 75.2089V66.2869C44.446 65.8707 44.3526 65.4614 44.2022 65.0719L73.2202 48.3179L73.2192 48.3089ZM43.4622 76.9339C43.5593 76.9333 43.6548 76.9079 43.7393 76.8599L73.7282 59.5599C73.9596 59.4146 74.1467 59.2084 74.2689 58.964C74.3911 58.7196 74.4439 58.4462 74.4213 58.1739V48.9739C74.4237 48.3787 74.2639 47.7942 73.9592 47.2829C73.9182 47.2168 73.8644 47.1596 73.801 47.1144C73.7377 47.0693 73.6661 47.0372 73.5902 47.0199C73.5208 47.0003 73.4481 46.9951 73.3766 47.0046C73.3051 47.014 73.2362 47.038 73.1742 47.0749L43.2322 64.3749C43.1684 64.4064 43.1117 64.4504 43.0653 64.5043C43.019 64.5583 42.984 64.621 42.9624 64.6888C42.9408 64.7566 42.9332 64.828 42.9398 64.8988C42.9465 64.9696 42.9674 65.0383 43.0012 65.1009C43.2236 65.4634 43.3509 65.8761 43.3712 66.3009V75.4499C43.3859 75.5414 43.3766 75.6351 43.3441 75.7219C43.3117 75.8086 43.2572 75.8855 43.1862 75.9449C43.0719 76.0243 42.9902 76.1423 42.9562 76.2772C42.9222 76.4122 42.9382 76.5548 43.0012 76.6789C43.0567 76.7508 43.1261 76.8107 43.2053 76.855C43.2846 76.8994 43.3719 76.9272 43.4622 76.9369V76.9339Z" fill="#005BEA"/>
<path d="M41.1938 30.4974C39.6818 29.5974 38.6328 30.9814 38.8168 33.5834C39.0168 36.1994 40.4168 39.0834 41.9278 40.0074C41.9408 40.0074 41.9419 40.0214 41.9559 40.0204C43.4559 40.9014 44.5019 39.5364 44.3179 36.9204C44.1179 34.3044 42.7178 31.4204 41.2068 30.4964C41.2068 30.5114 41.2068 30.4974 41.1938 30.4974Z" fill="#1B69FF"/>
<path d="M42.1266 41.5443C39.5566 40.0193 37.7396 42.1743 38.0626 46.3753C38.0817 46.6009 38.187 46.8104 38.3566 46.9603L46.9656 52.1753C47.1166 52.2593 47.2186 52.1443 47.1946 51.9143L47.1616 51.4823C47.1522 51.333 47.1369 51.1843 47.1156 51.0363C46.8421 48.7669 46.0965 46.58 44.9266 44.6163C44.254 43.4028 43.3105 42.3608 42.1696 41.5713H42.1536C42.1536 41.5563 42.1386 41.5573 42.1256 41.5423" fill="#1B69FF"/>
<path d="M75.1938 10.7357C73.6818 9.83569 72.6328 11.2197 72.8168 13.8217C73.0168 16.4377 74.4168 19.3217 75.9278 20.2457C75.9408 20.2457 75.9419 20.2597 75.9559 20.2587C77.4559 21.1397 78.5019 19.7747 78.3179 17.1587C78.1179 14.5427 76.7178 11.6587 75.2068 10.7347C75.2068 10.7497 75.2068 10.7357 75.1938 10.7357Z" fill="#1B69FF"/>
<path d="M76.1266 21.7826C73.5566 20.2576 71.7396 22.4126 72.0626 26.6136C72.0817 26.8391 72.187 27.0487 72.3566 27.1986L80.9656 32.4136C81.1166 32.4976 81.2186 32.3826 81.1946 32.1526L81.1616 31.7206C81.1522 31.5712 81.1369 31.4226 81.1156 31.2746C80.8421 29.0052 80.0965 26.8183 78.9266 24.8546C78.254 23.6411 77.3105 22.599 76.1696 21.8096H76.1536C76.1536 21.7946 76.1386 21.7956 76.1256 21.7806" fill="#1B69FF"/>
</svg>
