<svg width="114" height="96" viewBox="0 0 114 96" fill="none" xmlns="http://www.w3.org/2000/svg">
<path d="M0 77.6472C0 64.7605 9.23983 49.4288 20.7131 43.1443C25.0504 27.0759 36.7589 11.0042 50.5638 3.72016C57.0509 0.296793 63.0628 -0.668299 68.0779 0.433152L68.0813 0.408675L78.0167 2.63762C78.0167 2.63762 84.2791 10.5294 85.0542 12.586C87.2332 11.0891 90.391 9.48186 92.5732 9.87483L103.225 11.9054C103.225 11.9054 96.3214 53.8098 84.6701 59.958C79.71 62.574 16.6779 94.6838 16.6779 94.6838L9.54037 92.3563L9.56492 92.347C3.80917 91.1687 0 85.9152 0 77.6472Z" fill="#4688CF"/>
<path d="M28.917 45.5622C33.505 29.4939 45.8936 13.4221 60.4995 6.13807C75.1053 -1.14595 87.4923 2.57184 92.0823 14.0624C104.22 8.24026 113.998 13.821 113.998 26.7071C113.998 39.7395 104.003 55.2868 91.6751 61.4341C86.4282 64.0513 34.5701 89.9119 29.3232 92.5288C16.9958 98.6761 7.00195 93.0954 7.00195 80.0642C7.00195 67.1784 16.7779 51.8467 28.917 45.5622Z" fill="#84B5EA"/>
</svg>
