<svg width="1440" height="969" viewBox="0 0 1440 969" fill="none" xmlns="http://www.w3.org/2000/svg">
 <style>

        @media (max-width: 800px){
    .svg-elem-4, .svg-elem-5, .svg-elem-6, .svg-elem-7, .svg-elem-8, .svg-elem-9, .svg-elem-10, .svg-elem-11, .svg-elem-12, .svg-elem-13, .svg-elem-14, .svg-elem-15, .svg-elem-16 {
        display: none !important;
    }
      }

    .svg-elem-4, .svg-elem-5, .svg-elem-6, .svg-elem-7, .svg-elem-8, .svg-elem-9, .svg-elem-10, .svg-elem-11, .svg-elem-12, .svg-elem-13 {
        stroke-dasharray: 1000;
        stroke-dashoffset: 1000;
        animation: draw 3s linear forwards; /* Changed from 'infinite' to 'forwards' */
    }

    .svg-elem-5 {
        animation-delay: 0.2s;
    }

    .svg-elem-6 {
        animation-delay: 0.4s;
    }

    .svg-elem-7 {
        animation-delay: 0.6s;
    }

    .svg-elem-8 {
        animation-delay: 0.8s;
    }

    .svg-elem-9 {
        animation-delay: 1s;
    }

    .svg-elem-10 {
        animation-delay: 1.2s;
    }

    .svg-elem-11 {
        animation-delay: 1.4s;
    }

    .svg-elem-12 {
        animation-delay: 1.6s;
    }

    .svg-elem-13 {
        animation-delay: 1.8s;
    }
    
    @keyframes draw {
        to {
            stroke-dashoffset: 0;
        }
    }

    /* New styles for the square shapes */
    .svg-elem-14, .svg-elem-15, .svg-elem-16 {
        stroke-dasharray: 2000; /* Adjust this value for the length of the path */
        stroke-dashoffset: 2000;
        animation: draw-square 3s linear forwards; /* A new animation for the shapes */
    }

    .svg-elem-14 {
        animation-delay: 2s; /* Start this animation after the lines are drawn */
    }

    .svg-elem-15 {
        animation-delay: 2.5s; /* A slight delay between the squares */
    }

    .svg-elem-16 {
        animation-delay: 3s; /* Another delay */
    }

    @keyframes draw-square {
        to {
            stroke-dashoffset: 0;
        }
    }


</style>

<mask id="mask0_927_4640" style="mask-type:luminance" maskUnits="userSpaceOnUse" x="-35" y="-1" width="1511" height="970">
<path d="M1467.86 -0.722656H-35V334.322L-6.94884 352.843C-25.2279 394.625 -35 438.676 -35 484.189C-35 751.939 303.245 969 720.5 969C1137.75 969 1476 751.939 1476 484.189C1476 437.13 1465.55 391.617 1446.05 348.591L1467.88 334.322V-0.722656H1467.86Z" fill="white"/>
</mask>
<g mask="url(#mask0_927_4640)">
<rect x="-35.2324" y="-0.925781" width="1511.47" height="970.092" fill="#C8CEDE"/>
</g>
<path fill-rule="evenodd" clip-rule="evenodd" d="M716.238 915.891C1131.15 915.891 1467.48 698.78 1467.48 430.945C1467.48 385.399 1457.75 341.331 1439.58 299.549L1467.86 281.062V-54H-35V281.062L-7.06538 299.499C-25.2612 341.297 -35 385.399 -35 430.945C-35 698.78 301.348 915.891 716.238 915.891Z" fill="#092346"/>
<path d="M1021.64 400.519C1020.14 400.519 1018.66 400.873 1017.33 401.58L891.745 474.096C890.751 474.669 890.162 475.376 890.162 475.999C890.196 476.268 890.313 476.538 890.482 476.757C890.65 476.976 890.869 477.161 891.139 477.262L1017.95 550.468C1019.82 551.546 1023.24 551.378 1025.43 550.115L1151.01 477.599C1152 477.026 1152.59 476.319 1152.59 475.696C1152.56 475.427 1152.44 475.157 1152.27 474.938C1152.1 474.719 1151.88 474.551 1151.61 474.433L1024.8 401.226C1023.83 400.721 1022.73 400.485 1021.62 400.519H1021.64ZM1021.13 553.163C1019.68 553.197 1018.24 552.86 1016.96 552.186L890.145 478.98C889.572 478.71 889.101 478.289 888.764 477.767C888.427 477.245 888.225 476.639 888.191 476.016C888.191 474.652 889.135 473.338 890.751 472.395L1016.33 399.879C1019.16 398.262 1023.3 398.094 1025.78 399.525L1152.59 472.732C1153.16 473.001 1153.63 473.422 1153.99 473.944C1154.32 474.467 1154.53 475.073 1154.56 475.696C1154.56 477.06 1153.62 478.373 1152 479.317L1026.42 551.833C1024.8 552.725 1022.98 553.18 1021.15 553.163H1021.13Z" fill="none" class="svg-elem-4" stroke="#1B69FF"/>
<path d="M419.498 550.484C421.35 551.562 424.786 551.394 426.975 550.13L552.556 477.614C553.55 477.042 554.139 476.334 554.139 475.711C554.105 475.442 553.988 475.173 553.819 474.954C553.651 474.735 553.432 474.549 553.162 474.448L426.352 401.242C424.499 400.164 421.064 400.333 418.875 401.596L293.294 474.112C292.3 474.684 291.711 475.391 291.711 476.015C291.744 476.284 291.862 476.553 292.031 476.772C292.199 476.991 292.418 477.16 292.687 477.278L419.498 550.484ZM422.697 553.179C421.249 553.212 419.801 552.875 418.521 552.202L291.711 478.995C291.138 478.726 290.666 478.305 290.313 477.783C289.976 477.261 289.774 476.655 289.74 476.031C289.74 474.667 290.683 473.354 292.3 472.411L417.881 399.895C420.693 398.278 424.853 398.109 427.329 399.541L554.139 472.748C554.712 473.017 555.183 473.438 555.537 473.96C555.874 474.482 556.076 475.088 556.109 475.728C556.109 477.092 555.166 478.406 553.55 479.349L427.969 551.865C426.352 552.758 424.533 553.212 422.697 553.195V553.179Z" fill="none" class="svg-elem-5" stroke="#1B69FF"/>
<path d="M720.828 561.078C718.167 561.062 715.54 561.718 713.199 562.981L499.137 686.558C497.234 687.67 496.123 689.051 496.123 690.364C496.19 690.954 496.409 691.509 496.746 691.981C497.099 692.453 497.554 692.84 498.093 693.076L714.226 817.865C717.578 819.785 723.691 819.516 727.598 817.259L941.66 693.665C943.563 692.554 944.675 691.173 944.675 689.859C944.607 689.27 944.388 688.714 944.051 688.242C943.698 687.771 943.243 687.384 942.704 687.148L726.571 562.358C724.802 561.432 722.832 560.994 720.828 561.045V561.078ZM719.986 821.284C717.611 821.351 715.271 820.795 713.182 819.684L497.049 694.894C496.19 694.49 495.449 693.85 494.91 693.042C494.371 692.25 494.068 691.324 494.018 690.364C494.018 688.276 495.5 686.238 498.076 684.756L712.138 561.163C716.769 558.485 723.556 558.232 727.615 560.573L943.748 685.363C944.607 685.767 945.348 686.407 945.887 687.198C946.426 687.99 946.729 688.916 946.78 689.876C946.78 691.964 945.298 694.002 942.721 695.501L728.659 819.095C725.998 820.56 723.017 821.301 719.986 821.284Z" fill="none" class="svg-elem-6" stroke="#1B69FF"/>
<path d="M994.674 871.417C996.324 872.781 997.284 874.802 997.284 876.941H998.244C998.244 874.515 997.166 872.208 995.28 870.676L994.674 871.417ZM1387.8 692.754C1389.18 691.036 1389.77 688.813 1389.45 686.64L1388.51 686.775C1388.8 688.695 1388.27 690.649 1387.06 692.164L1387.8 692.754ZM997.284 898.092C997.284 903.313 1002.15 907.203 1007.24 905.923L1007 904.997C1002.54 906.108 998.244 902.706 998.244 898.092H997.284ZM1380.44 652.235C1382.51 653.296 1383.95 655.283 1384.28 657.59L1385.23 657.456C1384.86 654.845 1383.22 652.589 1380.88 651.393L1380.44 652.252V652.235ZM1389.45 686.624L1385.23 657.456L1384.28 657.59L1388.51 686.758L1389.45 686.624ZM1374.97 707.439C1379.64 702.757 1384.97 696.273 1387.8 692.754L1387.06 692.164C1384.23 695.684 1378.93 702.134 1374.3 706.782L1374.97 707.456V707.439ZM1380.88 651.376L1100.67 508.449L1100.23 509.308L1380.44 652.235L1380.88 651.376ZM1007.24 905.923C1102.84 882.043 1263.96 818.924 1374.99 707.439L1374.31 706.765C1263.47 818.082 1102.54 881.134 1007.02 904.997L1007.25 905.923H1007.24ZM997.284 876.941V898.092H998.244V876.941H997.284ZM850.82 752.858L994.674 871.417L995.28 870.676L851.427 752.117L850.82 752.858Z" fill="none" class="svg-elem-7" stroke="#1B69FF"/>
<path d="M57.6922 654.713C55.3345 655.926 53.7178 658.199 53.3642 660.826L54.3072 660.961C54.6272 658.654 56.0587 656.633 58.1301 655.572L57.6922 654.73V654.713ZM50.0802 684.521C49.7603 686.828 50.4002 689.119 51.9495 690.87L52.6737 690.23C51.3264 688.698 50.7539 686.677 51.0233 684.639L50.0802 684.504V684.521ZM489.959 910.557C489.723 915.154 485.328 918.405 480.899 917.226L480.646 918.152C485.682 919.499 490.633 915.811 490.902 910.608L489.942 910.557H489.959ZM381.438 890.988C420.458 902.035 462.475 913.319 480.646 918.152L480.899 917.226C462.728 912.393 420.71 901.109 381.707 890.062L381.455 890.988H381.438ZM166.837 794.929C191.727 810.675 232.482 831.035 273.438 849.273C314.395 867.529 355.604 883.679 381.438 890.988L381.69 890.062C355.924 882.77 314.765 866.637 273.826 848.398C232.886 830.16 192.182 809.816 167.342 794.104L166.837 794.912V794.929ZM493.31 885.885C493.344 885.734 493.479 885.464 493.765 885.043C494.035 884.622 494.405 884.117 494.893 883.494C495.853 882.264 497.201 880.665 498.902 878.745C502.287 874.905 507.036 869.803 512.677 863.891C523.961 852.052 538.831 836.929 553.634 822.042C568.437 807.138 583.189 792.47 594.237 781.524C599.76 776.05 604.358 771.503 607.575 768.337C609.191 766.754 610.454 765.508 611.313 764.649C611.751 764.228 612.071 763.908 612.29 763.689C612.408 763.571 612.492 763.504 612.543 763.437C612.576 763.403 612.593 763.386 612.61 763.369C612.61 763.369 612.61 763.369 612.273 763.033C611.936 762.696 611.936 762.696 611.936 762.696C611.936 762.696 611.903 762.729 611.869 762.763C611.818 762.814 611.734 762.898 611.616 763.016C611.397 763.235 611.061 763.555 610.64 763.976C609.781 764.818 608.518 766.064 606.901 767.664C603.684 770.847 599.087 775.377 593.563 780.85C582.516 791.796 567.763 806.481 552.96 821.369C538.157 836.273 523.287 851.395 511.987 863.234C506.345 869.162 501.596 874.265 498.194 878.122C496.493 880.042 495.129 881.659 494.152 882.922C493.664 883.545 493.277 884.083 492.99 884.538C492.704 884.976 492.502 885.346 492.418 885.65L493.344 885.902L493.31 885.885ZM490.885 910.624C491.104 906.347 491.424 901.227 491.828 896.647C492.233 892.049 492.721 888.024 493.294 885.885L492.367 885.633C491.778 887.872 491.273 891.982 490.869 896.562C490.464 901.16 490.144 906.279 489.926 910.574L490.885 910.624ZM51.9159 690.887C63.3844 703.905 117.157 763.538 166.82 794.946L167.325 794.137C117.797 762.814 64.1085 703.282 52.6232 690.264L51.899 690.904L51.9159 690.887ZM53.3305 660.843L50.0465 684.538L50.9896 684.673L54.2736 660.978L53.3305 660.843ZM341.205 508.957L57.6585 654.747L58.0964 655.589L341.643 509.799L341.205 508.957Z" fill="none" class="svg-elem-8" stroke="#1B69FF"/>
<path opacity="0.5" d="M335.233 464.976V441.8L339.475 439.44C340.666 446.669 349.206 451.446 356.332 452.431L404.873 480.792L426.064 488.43L493.694 453.564L492.131 452.672C497.917 449.977 501.024 443.807 504.15 438.176L508.708 440.889L511.406 441.651V465.217C511.406 468.228 509.415 471.22 505.452 473.506L437.692 512.572C429.766 517.144 416.854 517.144 408.929 512.572L341.168 473.506C337.261 471.257 335.289 468.302 335.215 465.347C335.215 465.217 335.215 465.087 335.215 464.957L335.233 464.976Z" fill="#5284D8"/>
<path d="M335.233 444.363V429.03L339.475 426.67C340.666 433.9 349.206 438.676 356.332 439.661L404.873 468.022L426.064 475.661L493.694 440.795L492.131 439.903C497.917 437.208 501.024 431.038 504.15 425.406L508.708 428.12L511.406 428.882V444.605C511.406 447.616 509.415 450.608 505.452 452.894L437.692 491.96C429.766 496.532 416.854 496.532 408.929 491.96L341.168 452.894C337.261 450.645 335.289 447.708 335.215 444.735C335.215 444.605 335.215 444.475 335.215 444.345L335.233 444.363Z" fill="url(#paint0_linear_927_4640)"/>
<path opacity="0.3" d="M356.332 439.681L404.873 468.042L423.31 474.696V495.437C418.306 495.53 413.357 494.359 408.929 491.998L341.168 452.932C337.261 450.684 335.289 447.747 335.215 444.773C335.215 444.643 335.215 444.513 335.215 444.383V429.05L339.103 426.895H339.513C340.834 434.013 349.262 438.715 356.332 439.681Z" fill="#0F054C"/>
<path d="M423.328 383.907L430.882 381.918L447.664 391.768L504.168 425.426C501.042 431.057 497.935 437.227 492.149 439.922L427.942 402.901C426.528 402.139 424.947 401.767 423.328 401.804V383.925V383.907Z" fill="url(#paint1_linear_927_4640)"/>
<path d="M437.711 476.404L505.471 437.338C513.397 432.766 513.397 425.313 505.471 420.741L437.73 381.675C429.804 377.103 416.892 377.103 408.966 381.675L341.206 420.741C333.28 425.313 333.28 432.766 341.206 437.338L408.966 476.404C416.892 480.976 429.804 480.976 437.73 476.404H437.711Z" fill="url(#paint2_linear_927_4640)"/>
<path d="M341.187 437.337L408.947 476.403C416.872 480.975 429.784 480.975 437.71 476.403L505.47 437.337C509.024 435.293 510.977 432.672 511.35 429.996C511.815 433.304 509.861 436.724 505.47 439.251L437.71 478.317C429.784 482.889 416.872 482.889 408.947 478.317L341.187 439.251C336.796 436.724 334.842 433.304 335.307 429.996C335.679 432.672 337.633 435.293 341.187 437.337Z" fill="white"/>
<path d="M435.795 475.306L503.555 436.24C510.439 432.282 510.439 425.814 503.555 421.855L435.814 382.789C428.93 378.831 417.748 378.831 410.864 382.789L343.104 421.855C336.22 425.814 336.22 432.282 343.104 436.24L410.846 475.306C417.73 479.283 428.911 479.265 435.795 475.306ZM416.799 386.209C420.893 384.127 425.749 384.127 429.842 386.209L497.583 425.275C501.174 427.356 501.174 430.72 497.583 432.802L429.823 471.868C425.73 473.931 420.893 473.931 416.781 471.868L349.021 432.802C345.43 430.72 345.43 427.356 349.021 425.275L416.781 386.209H416.799Z" fill="url(#paint3_linear_927_4640)"/>
<path opacity="0.5" d="M367.904 430.109V250H478.717V430.109C478.642 431.001 478.103 431.763 477.303 432.134L426.752 461.295C424.594 462.391 422.045 462.391 419.869 461.295L369.318 432.134C368.5 431.781 367.96 431.001 367.904 430.109Z" fill="url(#paint4_linear_927_4640)"/>
<path d="M420.426 348.688L393.746 363.5L420.463 378.368L447.106 363.5L420.426 348.688Z" fill="#84B5EA"/>
<path d="M420.369 378.273L420.425 406.226L447.105 391.413V363.387L420.369 378.255V378.273Z" fill="#4688CF"/>
<path d="M393.764 363.406V391.433L420.425 406.226V378.293L393.764 363.406Z" fill="#75AAE2"/>
<path opacity="0.5" d="M933.019 464.976V441.8L937.261 439.44C938.451 446.669 946.991 451.446 954.117 452.431L1002.66 480.792L1023.85 488.43L1091.48 453.564L1089.92 452.672C1095.7 449.977 1098.81 443.807 1101.94 438.176L1106.49 440.889L1109.19 441.651V465.217C1109.19 468.228 1107.2 471.22 1103.24 473.506L1035.48 512.572C1027.55 517.144 1014.64 517.144 1006.71 512.572L938.954 473.506C935.047 471.257 933.074 468.302 933 465.347C933 465.217 933 465.087 933 464.957L933.019 464.976Z" fill="#5284D8"/>
<path d="M933.019 444.363V429.03L937.261 426.67C938.451 433.9 946.991 438.676 954.117 439.661L1002.66 468.022L1023.85 475.661L1091.48 440.795L1089.92 439.903C1095.7 437.208 1098.81 431.038 1101.94 425.406L1106.49 428.12L1109.19 428.882V444.605C1109.19 447.616 1107.2 450.608 1103.24 452.894L1035.48 491.96C1027.55 496.532 1014.64 496.532 1006.71 491.96L938.954 452.894C935.047 450.645 933.074 447.708 933 444.735C933 444.605 933 444.475 933 444.345L933.019 444.363Z" fill="url(#paint5_linear_927_4640)"/>
<path opacity="0.3" d="M954.117 439.681L1002.66 468.042L1021.1 474.696V495.437C1016.09 495.53 1011.14 494.359 1006.71 491.998L938.954 452.932C935.047 450.684 933.074 447.747 933 444.773C933 444.643 933 444.513 933 444.383V429.05L936.888 426.895H937.298C938.619 434.013 947.047 438.715 954.117 439.681Z" fill="#0F054C"/>
<path d="M1021.11 383.907L1028.67 381.918L1045.45 391.768L1101.95 425.426C1098.83 431.057 1095.72 437.227 1089.93 439.922L1025.73 402.901C1024.31 402.139 1022.73 401.767 1021.11 401.804V383.925V383.907Z" fill="url(#paint6_linear_927_4640)"/>
<path d="M1035.5 476.404L1103.26 437.338C1111.18 432.766 1111.18 425.313 1103.26 420.741L1035.51 381.675C1027.59 377.103 1014.68 377.103 1006.75 381.675L938.991 420.741C931.065 425.313 931.065 432.766 938.991 437.338L1006.75 476.404C1014.68 480.976 1027.59 480.976 1035.51 476.404H1035.5Z" fill="url(#paint7_linear_927_4640)"/>
<path d="M938.972 437.337L1006.73 476.403C1014.66 480.975 1027.57 480.975 1035.5 476.403L1103.26 437.337C1106.81 435.293 1108.76 432.672 1109.13 429.996C1109.6 433.304 1107.65 436.724 1103.26 439.251L1035.5 478.317C1027.57 482.889 1014.66 482.889 1006.73 478.317L938.972 439.251C934.581 436.724 932.627 433.304 933.092 429.996C933.465 432.672 935.418 435.293 938.972 437.337Z" fill="white"/>
<path d="M1033.58 475.306L1101.34 436.24C1108.22 432.282 1108.22 425.814 1101.34 421.855L1033.6 382.789C1026.72 378.831 1015.53 378.831 1008.65 382.789L940.89 421.855C934.006 425.814 934.006 432.282 940.89 436.24L1008.63 475.306C1015.51 479.283 1026.7 479.265 1033.58 475.306ZM1014.58 386.209C1018.68 384.127 1023.53 384.127 1027.63 386.209L1095.37 425.275C1098.96 427.356 1098.96 430.72 1095.37 432.802L1027.61 471.868C1023.52 473.931 1018.68 473.931 1014.57 471.868L946.806 432.802C943.215 430.72 943.215 427.356 946.806 425.275L1014.57 386.209H1014.58Z" fill="url(#paint8_linear_927_4640)"/>
<path opacity="0.5" d="M965.689 430.109V250H1076.5V430.109C1076.43 431.001 1075.89 431.763 1075.09 432.134L1024.54 461.295C1022.38 462.391 1019.83 462.391 1017.65 461.295L967.103 432.134C966.285 431.781 965.745 431.001 965.689 430.109Z" fill="url(#paint9_linear_927_4640)"/>
<path d="M1018.21 348.688L991.531 363.5L1018.25 378.368L1044.89 363.5L1018.21 348.688Z" fill="#84B5EA"/>
<path d="M1018.15 378.273L1018.21 406.226L1044.89 391.413V363.387L1018.15 378.255V378.273Z" fill="#4688CF"/>
<path d="M991.549 363.406V391.433L1018.21 406.226V378.293L991.549 363.406Z" fill="#75AAE2"/>
<g style="mix-blend-mode:multiply" opacity="0.54">
<path d="M835.891 701.092C841.084 704.216 841.104 709.261 835.936 712.37L728.554 776.956C723.386 780.064 714.993 780.053 709.8 776.93L601.895 712.049C596.701 708.925 596.681 703.88 601.849 700.771L709.23 575.874C714.398 572.766 722.791 572.778 727.984 575.9L835.891 701.092Z" fill="#5CAEFF"/>
</g>
<path d="M845.619 608.425C845.606 608.57 845.596 608.715 845.57 608.861C845.548 608.979 845.512 609.095 845.481 609.213C845.446 609.35 845.412 609.487 845.364 609.623C845.324 609.735 845.27 609.847 845.219 609.959C845.156 610.104 845.094 610.245 845.018 610.386C844.963 610.488 844.897 610.589 844.834 610.691C844.734 610.852 844.629 611.013 844.511 611.171C844.438 611.264 844.366 611.356 844.289 611.448C844.106 611.667 843.912 611.876 843.707 612.074C843.63 612.146 843.562 612.225 843.479 612.298C843.348 612.417 843.201 612.531 843.058 612.646C842.931 612.747 842.809 612.851 842.672 612.951C842.516 613.063 842.345 613.169 842.177 613.281C842.009 613.393 841.841 613.508 841.655 613.616L730.46 678.234C730.039 678.474 729.605 678.692 729.162 678.888C729.033 678.946 728.902 679 728.77 679.055C728.418 679.201 728.058 679.337 727.689 679.465C727.557 679.51 727.428 679.558 727.294 679.6C727.063 679.673 726.824 679.738 726.587 679.802C726.407 679.851 726.229 679.904 726.046 679.948C725.797 680.008 725.542 680.058 725.288 680.11C725.114 680.145 724.943 680.182 724.767 680.216C724.253 680.307 723.731 680.378 723.205 680.434C723.044 680.451 722.88 680.461 722.717 680.475C722.409 680.501 722.099 680.523 721.788 680.536C721.59 680.545 721.392 680.549 721.194 680.553C720.942 680.558 720.691 680.56 720.439 680.557C720.23 680.557 720.021 680.547 719.812 680.539C719.579 680.53 719.346 680.518 719.114 680.502C718.902 680.487 718.69 680.469 718.48 680.448C718.25 680.427 718.021 680.401 717.793 680.372C717.588 680.346 717.383 680.317 717.178 680.286C716.936 680.247 716.694 680.205 716.452 680.159C716.26 680.122 716.069 680.087 715.879 680.043C715.592 679.98 715.309 679.909 715.028 679.834C714.87 679.792 714.711 679.753 714.555 679.707C714.046 679.562 713.557 679.395 713.079 679.209C713.013 679.183 712.951 679.154 712.886 679.127C712.244 678.873 711.621 678.574 711.021 678.233L599.087 613.609C596.377 612.044 595.023 609.991 595.028 607.941L595 713.26C594.994 715.311 596.348 717.364 599.058 718.928L710.992 783.552C711.592 783.893 712.215 784.192 712.856 784.446C712.898 784.464 712.934 784.488 712.977 784.504C713.001 784.514 713.028 784.52 713.049 784.53C713.526 784.716 714.02 784.88 714.524 785.028C714.565 785.039 714.602 785.057 714.644 785.068C714.759 785.101 714.88 785.123 714.997 785.155C715.278 785.227 715.561 785.3 715.848 785.363C715.925 785.381 716 785.403 716.077 785.419C716.19 785.443 716.307 785.458 716.421 785.48C716.662 785.525 716.902 785.567 717.148 785.605C717.246 785.62 717.342 785.642 717.438 785.657C717.534 785.671 717.656 785.679 717.76 785.692C717.988 785.721 718.217 785.747 718.446 785.769C718.556 785.78 718.664 785.796 718.774 785.806C718.884 785.815 718.979 785.815 719.081 785.822C719.313 785.838 719.546 785.85 719.779 785.86C719.895 785.864 720.011 785.875 720.127 785.878C720.22 785.878 720.313 785.878 720.406 785.878C720.657 785.882 720.909 785.878 721.16 785.875C721.285 785.875 721.409 785.875 721.534 785.875C721.607 785.875 721.68 785.863 721.752 785.86C722.063 785.846 722.372 785.824 722.682 785.798C722.805 785.788 722.931 785.785 723.054 785.773C723.093 785.769 723.127 785.761 723.169 785.757C723.695 785.702 724.216 785.629 724.732 785.539C724.756 785.535 724.782 785.533 724.804 785.529C724.955 785.502 725.099 785.464 725.248 785.434C725.502 785.383 725.757 785.332 726.008 785.272C726.19 785.227 726.366 785.176 726.547 785.126C726.785 785.062 727.023 784.998 727.256 784.924C727.305 784.908 727.358 784.897 727.406 784.882C727.491 784.854 727.567 784.818 727.65 784.789C728.019 784.663 728.379 784.527 728.73 784.379C728.862 784.324 728.995 784.27 729.124 784.212C729.567 784.016 730 783.797 730.42 783.558L841.629 718.934L841.797 718.834C841.924 718.758 842.031 718.676 842.152 718.597C842.32 718.488 842.49 718.379 842.646 718.268C842.782 718.169 842.905 718.065 843.032 717.963C843.177 717.848 843.322 717.734 843.452 717.616C843.479 717.592 843.513 717.569 843.539 717.543C843.593 717.493 843.63 717.439 843.684 717.389C843.889 717.191 844.083 716.982 844.266 716.763C844.305 716.716 844.356 716.673 844.393 716.626C844.43 716.579 844.453 716.532 844.488 716.486C844.606 716.328 844.711 716.167 844.81 716.006C844.853 715.939 844.908 715.873 844.946 715.805C844.966 715.77 844.977 715.732 844.995 715.701C845.068 715.556 845.133 715.417 845.196 715.274C845.232 715.19 845.281 715.108 845.313 715.023C845.323 714.995 845.327 714.966 845.337 714.938C845.385 714.802 845.419 714.665 845.455 714.527C845.479 714.435 845.516 714.343 845.534 714.25C845.539 714.225 845.539 714.201 845.543 714.177C845.569 714.032 845.579 713.887 845.592 713.741C845.601 713.648 845.622 713.554 845.624 713.459C845.624 713.419 845.624 713.379 845.624 713.339L845.653 608.02C845.653 608.156 845.632 608.29 845.619 608.425Z" fill="url(#paint10_linear_927_4640)"/>
<path d="M841.595 602.352C846.982 605.462 847.011 610.501 841.658 613.615L730.46 678.233C725.108 681.343 716.409 681.343 711.022 678.233L599.088 613.608C593.702 610.498 593.672 605.459 599.025 602.349L710.223 537.727C715.575 534.617 724.274 534.617 729.661 537.727L841.595 602.352Z" fill="url(#paint11_linear_927_4640)"/>
<path d="M840.738 594.987C840.726 595.126 840.716 595.264 840.691 595.402C840.67 595.516 840.636 595.628 840.606 595.741C840.572 595.873 840.54 596.004 840.493 596.135C840.455 596.242 840.404 596.353 840.357 596.457C840.297 596.595 840.238 596.732 840.164 596.869C840.111 596.967 840.048 597.063 839.988 597.159C839.892 597.314 839.791 597.468 839.677 597.62C839.61 597.709 839.537 597.798 839.464 597.887C839.288 598.097 839.102 598.298 838.904 598.488C838.832 598.56 838.759 598.633 838.686 598.706C838.561 598.819 838.42 598.929 838.282 599.039C838.16 599.137 838.042 599.237 837.911 599.33C837.761 599.439 837.597 599.542 837.436 599.647C837.274 599.753 837.112 599.865 836.934 599.97L730.065 662.077C729.669 662.306 729.248 662.513 728.818 662.707C728.694 662.763 728.567 662.815 728.442 662.868C728.102 663.01 727.756 663.141 727.402 663.262C727.275 663.305 727.151 663.351 727.023 663.392C726.8 663.465 726.571 663.523 726.343 663.586C726.17 663.632 725.999 663.683 725.823 663.725C725.584 663.784 725.339 663.832 725.096 663.882C724.93 663.915 724.765 663.954 724.595 663.983C724.101 664.071 723.6 664.139 723.094 664.192C722.939 664.209 722.782 664.218 722.626 664.231C722.329 664.256 722.031 664.278 721.733 664.291C721.542 664.299 721.352 664.303 721.161 664.307C720.919 664.311 720.677 664.313 720.435 664.31C720.234 664.31 720.032 664.301 719.832 664.294C719.608 664.284 719.384 664.273 719.161 664.257C718.958 664.244 718.754 664.226 718.551 664.206C718.333 664.185 718.111 664.161 717.892 664.134C717.694 664.109 717.497 664.081 717.301 664.051C717.067 664.015 716.834 663.973 716.603 663.93C716.419 663.894 716.235 663.857 716.052 663.818C715.776 663.757 715.505 663.689 715.235 663.618C715.083 663.577 714.931 663.539 714.781 663.495C714.295 663.353 713.821 663.195 713.362 663.016C713.299 662.992 713.239 662.963 713.176 662.938C712.56 662.693 711.961 662.406 711.384 662.078L603.811 599.969C601.206 598.465 599.905 596.492 599.91 594.52L599.883 604.329C599.877 606.299 601.178 608.273 603.783 609.779L711.357 671.886C711.933 672.214 712.532 672.501 713.148 672.745C713.188 672.761 713.221 672.784 713.264 672.801C713.287 672.81 713.312 672.816 713.336 672.825C713.795 673.004 714.269 673.162 714.753 673.303C714.793 673.315 714.826 673.332 714.868 673.342C714.979 673.374 715.095 673.396 715.208 673.426C715.478 673.499 715.749 673.566 716.026 673.626C716.098 673.643 716.171 673.665 716.244 673.68C716.352 673.703 716.462 673.717 716.573 673.738C716.805 673.782 717.036 673.822 717.27 673.859C717.365 673.874 717.457 673.895 717.552 673.908C717.647 673.921 717.759 673.93 717.862 673.943C718.08 673.97 718.298 673.995 718.522 674.015C718.627 674.025 718.731 674.041 718.836 674.051C718.942 674.06 719.033 674.06 719.131 674.066C719.354 674.082 719.577 674.094 719.802 674.102C719.914 674.107 720.025 674.117 720.137 674.12C720.226 674.12 720.316 674.12 720.404 674.12C720.646 674.124 720.888 674.12 721.131 674.12C721.25 674.12 721.37 674.12 721.49 674.12C721.563 674.12 721.631 674.109 721.702 674.105C722.001 674.092 722.298 674.071 722.595 674.046C722.714 674.036 722.835 674.034 722.954 674.022C722.991 674.022 723.027 674.011 723.064 674.007C723.572 673.954 724.071 673.885 724.565 673.798C724.589 673.793 724.614 673.792 724.638 673.787C724.783 673.762 724.921 673.725 725.063 673.696C725.308 673.647 725.553 673.598 725.794 673.54C725.969 673.498 726.139 673.448 726.312 673.401C726.541 673.339 726.77 673.277 726.993 673.207C727.041 673.191 727.091 673.18 727.139 673.165C727.219 673.139 727.293 673.103 727.373 673.076C727.727 672.956 728.073 672.825 728.411 672.683C728.538 672.63 728.665 672.578 728.79 672.521C729.215 672.333 729.631 672.122 730.035 671.891L836.902 609.788C836.956 609.756 837.01 609.724 837.063 609.692C837.184 609.62 837.288 609.54 837.404 609.465C837.565 609.36 837.73 609.256 837.879 609.147C838.01 609.052 838.127 608.953 838.25 608.857C838.388 608.746 838.528 608.639 838.654 608.523C838.68 608.5 838.712 608.478 838.737 608.455C838.789 608.407 838.825 608.355 838.874 608.31C839.072 608.12 839.259 607.919 839.434 607.709C839.471 607.664 839.52 607.622 839.556 607.576C839.592 607.531 839.613 607.487 839.647 607.443C839.76 607.29 839.861 607.136 839.957 606.981C839.998 606.916 840.051 606.853 840.088 606.787C840.106 606.755 840.117 606.72 840.134 606.688C840.207 606.552 840.267 606.415 840.327 606.277C840.362 606.197 840.409 606.118 840.44 606.037C840.45 606.01 840.453 605.982 840.463 605.955C840.509 605.824 840.542 605.692 840.576 605.561C840.599 605.471 840.635 605.383 840.653 605.293C840.658 605.27 840.657 605.246 840.661 605.221C840.687 605.083 840.696 604.944 840.708 604.805C840.716 604.715 840.737 604.625 840.74 604.535C840.74 604.496 840.74 604.457 840.74 604.418L840.767 594.609C840.771 594.73 840.75 594.858 840.738 594.987Z" fill="url(#paint12_linear_927_4640)"/>
<path d="M836.87 589.154C842.047 592.143 842.074 596.985 836.931 599.975L730.064 662.078C724.92 665.067 716.561 665.067 711.383 662.078L603.811 599.971C598.634 596.982 598.606 592.139 603.75 589.151L710.616 527.046C715.759 524.058 724.12 524.058 729.297 527.046L836.87 589.154Z" fill="url(#paint13_linear_927_4640)"/>
<path d="M845.619 540.329C845.606 540.474 845.596 540.619 845.57 540.765C845.548 540.883 845.512 540.999 845.481 541.117C845.446 541.254 845.412 541.391 845.364 541.527C845.324 541.64 845.27 541.751 845.219 541.863C845.156 542.008 845.094 542.149 845.018 542.291C844.963 542.392 844.897 542.493 844.834 542.595C844.734 542.756 844.629 542.917 844.511 543.075C844.438 543.168 844.366 543.26 844.289 543.352C844.107 543.571 843.913 543.78 843.707 543.978C843.63 544.051 843.562 544.129 843.479 544.202C843.348 544.321 843.201 544.435 843.058 544.55C842.931 544.652 842.809 544.755 842.672 544.855C842.516 544.968 842.345 545.073 842.177 545.185C842.009 545.297 841.841 545.412 841.655 545.52L730.46 610.141C730.038 610.38 729.605 610.599 729.162 610.795C729.033 610.852 728.902 610.906 728.77 610.962C728.418 611.107 728.058 611.244 727.689 611.372C727.557 611.417 727.428 611.465 727.294 611.507C727.063 611.579 726.824 611.644 726.587 611.709C726.407 611.757 726.229 611.81 726.046 611.854C725.797 611.915 725.542 611.965 725.288 612.016C725.114 612.052 724.943 612.089 724.767 612.122C724.253 612.213 723.731 612.284 723.205 612.34C723.044 612.358 722.88 612.368 722.717 612.382C722.408 612.407 722.099 612.43 721.788 612.443C721.59 612.451 721.392 612.456 721.194 612.459C720.942 612.465 720.691 612.466 720.439 612.463C720.23 612.46 720.021 612.454 719.811 612.446C719.579 612.436 719.346 612.424 719.114 612.408C718.902 612.394 718.69 612.376 718.48 612.355C718.25 612.333 718.021 612.307 717.793 612.278C717.588 612.252 717.383 612.223 717.178 612.192C716.935 612.154 716.693 612.111 716.452 612.065C716.26 612.028 716.069 611.993 715.879 611.949C715.592 611.887 715.309 611.816 715.028 611.741C714.87 611.699 714.711 611.659 714.555 611.614C714.046 611.468 713.557 611.301 713.079 611.115C713.013 611.09 712.951 611.06 712.886 611.034C712.244 610.779 711.621 610.48 711.021 610.139L599.087 545.515C596.377 543.95 595.023 541.897 595.028 539.848L595 584.856C594.994 586.906 596.348 588.959 599.058 590.524L710.992 655.148C711.592 655.489 712.215 655.788 712.856 656.042C712.898 656.059 712.934 656.083 712.977 656.1C713.001 656.11 713.028 656.116 713.049 656.126C713.526 656.312 714.02 656.477 714.524 656.623C714.565 656.636 714.602 656.652 714.644 656.664C714.759 656.697 714.88 656.719 714.997 656.75C715.278 656.823 715.561 656.896 715.848 656.959C715.925 656.976 716 657 716.077 657.015C716.19 657.039 716.307 657.053 716.421 657.075C716.662 657.121 716.902 657.163 717.148 657.201C717.246 657.216 717.342 657.239 717.438 657.253C717.534 657.266 717.656 657.275 717.76 657.288C717.988 657.317 718.217 657.343 718.446 657.365C718.556 657.375 718.664 657.393 718.774 657.402C718.884 657.41 718.979 657.411 719.081 657.418C719.313 657.434 719.546 657.447 719.779 657.455C719.895 657.46 720.011 657.471 720.127 657.474C720.22 657.474 720.313 657.474 720.406 657.474C720.657 657.478 720.909 657.474 721.16 657.471C721.285 657.471 721.409 657.471 721.534 657.471C721.607 657.471 721.68 657.459 721.752 657.455C722.063 657.442 722.372 657.42 722.682 657.394C722.805 657.383 722.931 657.381 723.054 657.369C723.093 657.365 723.127 657.357 723.169 657.353C723.695 657.298 724.217 657.226 724.732 657.135C724.756 657.13 724.782 657.128 724.804 657.124C724.955 657.097 725.099 657.059 725.248 657.029C725.502 656.978 725.757 656.927 726.008 656.867C726.19 656.822 726.366 656.771 726.547 656.721C726.785 656.657 727.023 656.593 727.256 656.519C727.305 656.503 727.358 656.492 727.406 656.477C727.491 656.449 727.567 656.413 727.65 656.384C728.019 656.258 728.379 656.122 728.73 655.974C728.862 655.919 728.995 655.865 729.124 655.807C729.567 655.611 730 655.393 730.42 655.153L841.619 590.532L841.787 590.433C841.913 590.356 842.021 590.274 842.142 590.196C842.309 590.086 842.48 589.978 842.636 589.866C842.772 589.767 842.894 589.663 843.021 589.561C843.167 589.446 843.312 589.332 843.442 589.214C843.469 589.19 843.502 589.167 843.529 589.141C843.582 589.091 843.62 589.037 843.674 588.987C843.879 588.789 844.073 588.58 844.255 588.361C844.295 588.314 844.346 588.271 844.383 588.224C844.42 588.177 844.443 588.13 844.478 588.084C844.595 587.926 844.701 587.765 844.8 587.604C844.842 587.537 844.898 587.471 844.936 587.403C844.956 587.369 844.967 587.33 844.985 587.299C845.057 587.154 845.123 587.015 845.185 586.872C845.222 586.788 845.27 586.706 845.302 586.622C845.313 586.593 845.317 586.564 845.327 586.536C845.375 586.4 845.408 586.263 845.445 586.125C845.469 586.033 845.506 585.941 845.524 585.848C845.529 585.824 845.528 585.798 845.533 585.775C845.559 585.63 845.569 585.485 845.582 585.339C845.591 585.245 845.612 585.152 845.614 585.057C845.614 585.017 845.614 584.977 845.614 584.937L845.643 539.928C845.653 540.063 845.632 540.197 845.619 540.329Z" fill="url(#paint14_linear_927_4640)"/>
<path d="M841.595 534.985C846.982 538.095 847.011 543.134 841.658 546.248L730.46 610.866C725.108 613.976 716.409 613.976 711.022 610.866L599.088 546.241C593.702 543.131 593.672 538.091 599.025 534.981L710.223 470.36C715.575 467.25 724.274 467.25 729.661 470.36L841.595 534.985Z" fill="#EFF3FA"/>
<path d="M804.087 535.999C807.807 538.147 807.827 541.627 804.131 543.774L727.33 588.407C723.633 590.555 717.626 590.555 713.905 588.407L636.597 543.772C632.876 541.625 632.856 538.145 636.552 535.998L713.352 491.365C717.049 489.217 723.057 489.217 726.778 491.365L804.087 535.999Z" fill="#6C96FF"/>
<mask id="mask1_927_4640" style="mask-type:luminance" maskUnits="userSpaceOnUse" x="633" y="489" width="174" height="101">
<path d="M803.866 535.772C807.586 537.92 807.606 541.401 803.909 543.547L727.109 588.18C723.412 590.329 717.405 590.329 713.684 588.18L636.376 543.546C632.655 541.398 632.635 537.918 636.332 535.771L713.132 491.138C716.828 488.99 722.837 488.99 726.557 491.138L803.866 535.772Z" fill="white"/>
</mask>
<g mask="url(#mask1_927_4640)">
<path d="M802.413 572.104C806.133 574.252 806.153 577.733 802.456 579.879L725.656 624.512C721.959 626.661 715.952 626.661 712.231 624.512L634.923 579.878C631.202 577.73 631.182 574.25 634.879 572.103L711.679 527.47C715.375 525.322 721.384 525.322 725.104 527.47L802.413 572.104Z" fill="#6C96FF"/>
</g>
<path d="M664 502.647C664 489.76 673.24 474.429 684.713 468.144C689.05 452.076 700.759 436.004 714.564 428.72C721.051 425.297 727.063 424.332 732.078 425.433L732.081 425.409L742.017 427.638C742.017 427.638 748.279 435.529 749.054 437.586C751.233 436.089 754.391 434.482 756.573 434.875L767.225 436.905C767.225 436.905 760.321 478.81 748.67 484.958C743.71 487.574 680.678 519.684 680.678 519.684L673.54 517.356L673.565 517.347C667.809 516.169 664 510.915 664 502.647Z" fill="#4688CF"/>
<path d="M692.917 470.562C697.505 454.494 709.894 438.422 724.499 431.138C739.105 423.854 751.492 427.572 756.082 439.062C768.22 433.24 777.998 438.821 777.998 451.707C777.998 464.739 768.003 480.287 755.675 486.434C750.428 489.051 698.57 514.912 693.323 517.529C680.996 523.676 671.002 518.095 671.002 505.064C671.002 492.178 680.778 476.847 692.917 470.562Z" fill="#84B5EA"/>
<path opacity="0.4" d="M656 239.546V554.194C656.101 554.584 656.352 554.889 656.704 555.041L718.581 589.605C719.905 590.181 721.43 590.13 722.704 589.435L783.994 555.21C784.447 555.007 784.799 554.618 784.966 554.126H785V238.801L720.508 204L656 239.546Z" fill="url(#paint15_linear_927_4640)"/>
<defs>
<linearGradient id="paint0_linear_927_4640" x1="495.047" y1="393.472" x2="464.368" y2="504.33" gradientUnits="userSpaceOnUse">
<stop stop-color="#CAD1E0"/>
<stop offset="0.44" stop-color="white"/>
<stop offset="1" stop-color="#C8CEDE"/>
</linearGradient>
<linearGradient id="paint1_linear_927_4640" x1="505.355" y1="415.585" x2="424.154" y2="415.585" gradientUnits="userSpaceOnUse">
<stop stop-color="#CAD1E0"/>
<stop offset="0.44" stop-color="white"/>
<stop offset="1" stop-color="#C8CEDE"/>
</linearGradient>
<linearGradient id="paint2_linear_927_4640" x1="509.94" y1="426.193" x2="336.582" y2="426.193" gradientUnits="userSpaceOnUse">
<stop stop-color="white"/>
<stop offset="0.51" stop-color="#CAD1E0"/>
<stop offset="1" stop-color="#C8CEDE"/>
</linearGradient>
<linearGradient id="paint3_linear_927_4640" x1="509.398" y1="429.705" x2="337.852" y2="429.705" gradientUnits="userSpaceOnUse">
<stop stop-color="white"/>
<stop offset="0.51" stop-color="#CAD1E0"/>
<stop offset="1" stop-color="#C8CEDE"/>
</linearGradient>
<linearGradient id="paint4_linear_927_4640" x1="424.075" y1="305.002" x2="424.075" y2="452.847" gradientUnits="userSpaceOnUse">
<stop stop-color="#AADFF7" stop-opacity="0"/>
<stop offset="1" stop-color="#69A1E3"/>
</linearGradient>
<linearGradient id="paint5_linear_927_4640" x1="1092.83" y1="393.472" x2="1062.15" y2="504.33" gradientUnits="userSpaceOnUse">
<stop stop-color="#CAD1E0"/>
<stop offset="0.44" stop-color="white"/>
<stop offset="1" stop-color="#C8CEDE"/>
</linearGradient>
<linearGradient id="paint6_linear_927_4640" x1="1103.14" y1="415.585" x2="1021.94" y2="415.585" gradientUnits="userSpaceOnUse">
<stop stop-color="#CAD1E0"/>
<stop offset="0.44" stop-color="white"/>
<stop offset="1" stop-color="#C8CEDE"/>
</linearGradient>
<linearGradient id="paint7_linear_927_4640" x1="1107.73" y1="426.193" x2="934.367" y2="426.193" gradientUnits="userSpaceOnUse">
<stop stop-color="white"/>
<stop offset="0.51" stop-color="#CAD1E0"/>
<stop offset="1" stop-color="#C8CEDE"/>
</linearGradient>
<linearGradient id="paint8_linear_927_4640" x1="1107.18" y1="429.705" x2="935.637" y2="429.705" gradientUnits="userSpaceOnUse">
<stop stop-color="white"/>
<stop offset="0.51" stop-color="#CAD1E0"/>
<stop offset="1" stop-color="#C8CEDE"/>
</linearGradient>
<linearGradient id="paint9_linear_927_4640" x1="1021.86" y1="305.002" x2="1021.86" y2="452.847" gradientUnits="userSpaceOnUse">
<stop stop-color="#AADFF7" stop-opacity="0"/>
<stop offset="1" stop-color="#69A1E3"/>
</linearGradient>
<linearGradient id="paint10_linear_927_4640" x1="865.956" y1="415.946" x2="732.701" y2="861.373" gradientUnits="userSpaceOnUse">
<stop stop-color="white"/>
<stop offset="1" stop-color="#C5CCDC"/>
</linearGradient>
<linearGradient id="paint11_linear_927_4640" x1="719.339" y1="692.034" x2="719.844" y2="552.231" gradientUnits="userSpaceOnUse">
<stop stop-color="white"/>
<stop offset="0.545" stop-color="#E7F5FF"/>
<stop offset="1" stop-color="#8BBFFF"/>
</linearGradient>
<linearGradient id="paint12_linear_927_4640" x1="808.489" y1="451.714" x2="791.731" y2="709.966" gradientUnits="userSpaceOnUse">
<stop stop-color="#30508C"/>
<stop offset="1" stop-color="#5080D3"/>
</linearGradient>
<linearGradient id="paint13_linear_927_4640" x1="927.48" y1="631.673" x2="542.117" y2="425.74" gradientUnits="userSpaceOnUse">
<stop stop-color="#30508C"/>
<stop offset="1" stop-color="#5080D3"/>
</linearGradient>
<linearGradient id="paint14_linear_927_4640" x1="831.86" y1="375.404" x2="788.108" y2="709.805" gradientUnits="userSpaceOnUse">
<stop stop-color="white"/>
<stop offset="1" stop-color="#C5CCDC"/>
</linearGradient>
<linearGradient id="paint15_linear_927_4640" x1="720.457" y1="543.073" x2="720.457" y2="318.652" gradientUnits="userSpaceOnUse">
<stop stop-color="#7F9DFF"/>
<stop offset="1" stop-color="white" stop-opacity="0"/>
</linearGradient>

</defs>
</svg>
