<svg width="268" height="156" viewBox="0 0 268 156" fill="none" xmlns="http://www.w3.org/2000/svg">
<path d="M130.5 152.484C132.352 153.561 135.788 153.393 137.977 152.13L263.558 79.6139C264.552 79.0413 265.141 78.334 265.141 77.7109C265.107 77.4414 264.989 77.1721 264.821 76.9531C264.653 76.7342 264.434 76.5489 264.164 76.4478L137.354 3.24139C135.501 2.16358 132.066 2.33213 129.877 3.59518L4.29557 76.1111C3.30197 76.6837 2.71255 77.391 2.71255 78.0141C2.74623 78.2836 2.86412 78.5529 3.03252 78.7719C3.20093 78.9908 3.41986 79.1593 3.68931 79.2772L130.5 152.484ZM133.699 155.178C132.251 155.212 130.803 154.875 129.523 154.201L2.71255 80.9949C2.13996 80.7255 1.66842 80.3045 1.31476 79.7825C0.977951 79.2604 0.775869 78.6541 0.742188 78.031C0.742188 76.6669 1.68527 75.3533 3.30198 74.4102L128.883 1.89426C131.695 0.27755 135.855 0.109004 138.331 1.54046L265.141 74.7471C265.714 75.0166 266.185 75.4375 266.539 75.9596C266.876 76.4817 267.078 77.0878 267.111 77.7277C267.111 79.0918 266.168 80.4055 264.552 81.3485L138.971 153.865C137.354 154.757 135.535 155.212 133.699 155.195V155.178Z" fill="#1B69FF"/>
</svg>
