<svg width="453" height="264" viewBox="0 0 453 264" fill="none" xmlns="http://www.w3.org/2000/svg">
<path d="M226.826 3.07677C224.165 3.05993 221.538 3.71672 219.197 4.97977L5.13521 128.557C3.23221 129.668 2.12071 131.049 2.12071 132.363C2.18807 132.952 2.407 133.508 2.74381 133.979C3.09746 134.451 3.55214 134.838 4.09104 135.074L220.224 259.864C223.576 261.783 229.689 261.514 233.596 259.257L447.658 135.664C449.561 134.552 450.673 133.171 450.673 131.857C450.605 131.268 450.386 130.712 450.049 130.241C449.696 129.769 449.241 129.382 448.702 129.146L232.569 4.35668C230.8 3.43044 228.83 2.99253 226.826 3.04305V3.07677ZM225.984 263.282C223.609 263.35 221.269 262.794 219.18 261.682L3.04693 136.893C2.18805 136.489 1.44708 135.849 0.90818 135.04C0.369278 134.249 0.0661471 133.323 0.015625 132.363C0.015625 130.275 1.49761 128.237 4.07424 126.755L218.136 3.16105C222.767 0.483384 229.554 0.230609 233.613 2.57147L449.746 127.361C450.605 127.765 451.346 128.405 451.885 129.197C452.424 129.988 452.727 130.914 452.778 131.874C452.778 133.963 451.296 136 448.719 137.499L234.657 261.093C231.996 262.558 229.015 263.299 225.984 263.282Z" fill="#1B69FF"/>
</svg>
