<svg width="81" height="95" viewBox="0 0 81 95" fill="none" xmlns="http://www.w3.org/2000/svg">
<g clip-path="url(#clip0_9_36001)">
<path d="M36.5465 72.447C36.3966 72.4487 36.2487 72.4125 36.1165 72.342C35.9778 72.2586 35.8658 72.1376 35.7934 71.9929C35.7209 71.8482 35.6912 71.686 35.7075 71.525C35.6942 71.2763 35.7503 71.0287 35.8695 70.81C35.9887 70.6327 36.1376 70.477 36.3095 70.35C36.4488 70.2359 36.6183 70.1649 36.7973 70.1455C36.9763 70.1262 37.157 70.1593 37.3175 70.241L37.3445 70.256C37.479 70.3422 37.587 70.464 37.6563 70.6079C37.7257 70.7518 37.7538 70.9121 37.7375 71.071C37.752 71.3247 37.6911 71.5769 37.5625 71.796C37.4629 71.9501 37.337 72.0855 37.1905 72.196L37.1505 72.23L37.1185 72.258C36.9541 72.3828 36.7528 72.4493 36.5465 72.447ZM36.7875 71.263L36.7315 71.371C36.7896 71.4027 36.8553 71.4178 36.9215 71.415C36.8868 71.3566 36.8413 71.3044 36.7875 71.263ZM36.5215 71.174C36.5655 71.2496 36.6286 71.3124 36.7045 71.356L36.7675 71.248C36.7533 71.2379 36.7386 71.2286 36.7235 71.22C36.6618 71.186 36.5917 71.1704 36.5215 71.175V71.174Z" fill="#0C5AE5"/>
<path d="M15.1604 76.3529C15.0485 76.353 14.9385 76.3237 14.8414 76.2679C14.7446 76.2119 14.6643 76.1314 14.6085 76.0345C14.5527 75.9376 14.5233 75.8278 14.5234 75.7159V45.9729C14.5235 45.8613 14.5529 45.7516 14.6087 45.6549C14.6645 45.5582 14.7448 45.4779 14.8414 45.4219L57.9694 20.5049C58.0662 20.4489 58.1761 20.4194 58.2879 20.4194C58.3998 20.4194 58.5096 20.4489 58.6064 20.5049C58.7032 20.561 58.7835 20.6415 58.8393 20.7384C58.8951 20.8353 58.9244 20.9451 58.9244 21.0569V50.7999C58.9244 50.9116 58.895 51.0213 58.8391 51.118C58.7833 51.2147 58.7031 51.295 58.6064 51.3509L15.4784 76.2679C15.3817 76.3235 15.272 76.3528 15.1604 76.3529ZM15.7974 46.3409V74.6099L57.6514 50.4299V22.1599L15.7974 46.3409Z" fill="#0C5AE5"/>
<path d="M15.1604 46.6103C15.0485 46.6103 14.9385 46.581 14.8414 46.5253C14.7446 46.4693 14.6643 46.3888 14.6085 46.2919C14.5527 46.195 14.5233 46.0851 14.5234 45.9733V41.6823C14.5234 41.5706 14.5528 41.4609 14.6086 41.3641C14.6644 41.2674 14.7447 41.1871 14.8414 41.1313L57.9694 16.2143C58.0663 16.1584 58.1761 16.1289 58.2879 16.1289C58.3997 16.1289 58.5096 16.1584 58.6064 16.2143C58.7032 16.2703 58.7836 16.3508 58.8394 16.4477C58.8952 16.5446 58.9245 16.6544 58.9244 16.7663V21.0563C58.9244 21.1679 58.895 21.2776 58.8391 21.3743C58.7833 21.471 58.7031 21.5514 58.6064 21.6073L15.4784 46.5253C15.3817 46.5808 15.272 46.6101 15.1604 46.6103ZM15.7974 42.0503V44.8703L57.6514 20.6893V17.8703L15.7974 42.0503Z" fill="#0C5AE5"/>
<path d="M4.03456 91.9141C3.92129 91.9141 3.8101 91.8837 3.71257 91.8261L1.51857 90.5401C1.44631 90.4978 1.38309 90.4418 1.33252 90.3751C1.28195 90.3084 1.24502 90.2324 1.22385 90.1514C1.20267 90.0704 1.19766 89.986 1.20911 89.9031C1.22056 89.8202 1.24825 89.7403 1.29058 89.6681C1.3761 89.5224 1.51594 89.4165 1.67942 89.3738C1.84289 89.331 2.01666 89.3549 2.16257 89.4401L4.35657 90.7261C4.42883 90.7684 4.49205 90.8244 4.54262 90.8911C4.59319 90.9579 4.63012 91.0339 4.65129 91.1148C4.67247 91.1958 4.67748 91.2802 4.66603 91.3631C4.65458 91.446 4.6269 91.5259 4.58457 91.5981C4.52848 91.6942 4.4482 91.774 4.3517 91.8294C4.2552 91.8849 4.14586 91.9141 4.03456 91.9141Z" fill="#0C5AE5"/>
<path d="M1.84419 90.6309C1.69841 90.6305 1.5572 90.58 1.44419 90.4879C0.947452 90.1247 0.55325 89.6391 0.300013 89.0783C0.0467755 88.5175 -0.0568667 87.9006 -0.000814221 87.2878C-0.00568028 87.2042 0.00598655 87.1205 0.0335181 87.0414C0.0610496 86.9623 0.103903 86.8894 0.159632 86.8269C0.215361 86.7644 0.282863 86.7135 0.358286 86.6771C0.433709 86.6407 0.515581 86.6196 0.599192 86.6148C0.682743 86.61 0.766424 86.6217 0.845454 86.6492C0.924483 86.6768 0.997303 86.7196 1.05973 86.7754C1.12216 86.8311 1.17297 86.8986 1.20925 86.974C1.24554 87.0495 1.26659 87.1313 1.27119 87.2149C1.34319 88.4759 1.39318 88.7999 2.24818 89.4959C2.31362 89.5487 2.36795 89.614 2.40803 89.6879C2.44811 89.7618 2.47316 89.843 2.48171 89.9267C2.49027 90.0103 2.48216 90.0949 2.45786 90.1754C2.43357 90.2559 2.39358 90.3309 2.34019 90.3958C2.28031 90.4696 2.20468 90.529 2.11885 90.5696C2.03302 90.6103 1.93916 90.6312 1.84419 90.6309Z" fill="#0C5AE5"/>
<path d="M0.637009 87.891C0.468066 87.891 0.306045 87.8239 0.186584 87.7044C0.0671238 87.585 0 87.423 0 87.254V44.512C0 44.3431 0.0671238 44.181 0.186584 44.0616C0.306045 43.9421 0.468066 43.875 0.637009 43.875C0.805952 43.875 0.967972 43.9421 1.08743 44.0616C1.20689 44.181 1.274 44.3431 1.274 44.512V87.252C1.27427 87.3358 1.25798 87.4189 1.22609 87.4964C1.1942 87.5739 1.14731 87.6444 1.08813 87.7037C1.02896 87.7631 0.958656 87.8102 0.881241 87.8423C0.803826 87.8745 0.720829 87.891 0.637009 87.891Z" fill="#0C5AE5"/>
<path d="M0.630831 45.1491H0.583834C0.500373 45.1431 0.418897 45.1208 0.344073 45.0834C0.269249 45.0459 0.202543 44.9941 0.147753 44.9308C0.0929639 44.8676 0.0511625 44.7942 0.0247524 44.7148C-0.00165773 44.6354 -0.0121693 44.5515 -0.00617717 44.4681C0.0654511 42.8992 0.513091 41.3705 1.29901 40.0108C2.08494 38.6511 3.18613 37.5003 4.50983 36.6551C4.57887 36.6078 4.65656 36.5747 4.73844 36.5575C4.82031 36.5403 4.90478 36.5395 4.98699 36.555C5.0692 36.5705 5.14753 36.6021 5.21752 36.6479C5.2875 36.6937 5.34775 36.7529 5.39482 36.8221C5.48999 36.9616 5.52587 37.1332 5.49456 37.2992C5.46324 37.4651 5.3673 37.6119 5.22783 37.7071C4.06117 38.4422 3.09087 39.45 2.40062 40.6438C1.71038 41.8375 1.32091 43.1813 1.26583 44.5591C1.25396 44.7194 1.18192 44.8693 1.06415 44.9787C0.946379 45.0882 0.791593 45.149 0.630831 45.1491Z" fill="#0C5AE5"/>
<path d="M4.87169 37.817C4.75975 37.8171 4.64975 37.7877 4.55283 37.7317C4.45591 37.6757 4.37549 37.5951 4.31969 37.498C4.23526 37.3518 4.21237 37.1779 4.25606 37.0148C4.29975 36.8516 4.40645 36.7125 4.55269 36.628L63.4947 2.62804C63.5672 2.58627 63.6472 2.55919 63.7301 2.54834C63.8131 2.5375 63.8974 2.54311 63.9782 2.56484C64.059 2.58657 64.1347 2.62399 64.201 2.67499C64.2673 2.72598 64.3229 2.78954 64.3647 2.86203C64.4491 3.00831 64.472 3.18213 64.4283 3.34528C64.3846 3.50842 64.2779 3.64754 64.1317 3.73204L5.1897 37.732C5.09307 37.788 4.98334 37.8173 4.87169 37.817Z" fill="#0C5AE5"/>
<path d="M64.0925 3.75804L63.8135 3.18503L63.5625 2.59903C64.0647 2.27039 64.6408 2.07182 65.2389 2.0212C65.8369 1.97057 66.4382 2.06949 66.9885 2.30904C67.0669 2.33848 67.1387 2.38309 67.1998 2.4403C67.2609 2.4975 67.3101 2.56618 67.3447 2.64243C67.3792 2.71868 67.3984 2.801 67.4011 2.88466C67.4038 2.96833 67.39 3.05171 67.3605 3.13004C67.3006 3.28796 67.1806 3.41574 67.0268 3.48545C66.8729 3.55515 66.6977 3.56112 66.5395 3.50203C65.5055 3.11203 65.2635 3.22304 64.0925 3.75804Z" fill="#0C5AE5"/>
<path d="M69.0312 4.82004C68.9219 4.82002 68.8144 4.79177 68.7192 4.73804L66.4492 3.45604C66.3763 3.41495 66.3122 3.3599 66.2606 3.29404C66.209 3.22817 66.1709 3.15278 66.1484 3.07218C66.1259 2.99157 66.1196 2.90732 66.1297 2.82425C66.1397 2.74118 66.1661 2.66092 66.2072 2.58805C66.2904 2.44102 66.4285 2.33297 66.5912 2.2876C66.7539 2.24223 66.928 2.26325 67.0752 2.34604L69.3452 3.62404C69.4181 3.66513 69.4822 3.72018 69.5339 3.78604C69.5855 3.85191 69.6236 3.9273 69.6461 4.00791C69.6686 4.08851 69.6749 4.17276 69.6648 4.25583C69.6547 4.3389 69.6284 4.41916 69.5872 4.49204C69.5322 4.59128 69.4516 4.67403 69.3539 4.73169C69.2561 4.78936 69.1447 4.81986 69.0312 4.82004Z" fill="#0C5AE5"/>
<path d="M66.0125 5.10895C65.8903 5.10888 65.7706 5.07369 65.6678 5.00757C65.565 4.94144 65.4833 4.84715 65.4325 4.73594C65.3978 4.65984 65.3784 4.57765 65.3754 4.49405C65.3724 4.41045 65.386 4.32707 65.4152 4.2487C65.4445 4.17033 65.4889 4.09849 65.5459 4.03728C65.6029 3.97606 65.6714 3.92668 65.7475 3.89195C66.2637 3.5587 66.8535 3.35663 67.4656 3.3033C68.0776 3.24997 68.6935 3.34699 69.2595 3.58595C69.4178 3.64486 69.5464 3.76417 69.6168 3.91771C69.6873 4.07124 69.694 4.24647 69.6355 4.40495C69.6064 4.48343 69.5622 4.55543 69.5053 4.6168C69.4484 4.67818 69.38 4.72774 69.3039 4.76266C69.2279 4.79758 69.1457 4.81716 69.062 4.82029C68.9784 4.82343 68.895 4.81006 68.8165 4.78094C67.7405 4.38094 67.4005 4.53795 66.2755 5.05095C66.193 5.08892 66.1033 5.1087 66.0125 5.10895Z" fill="#0C5AE5"/>
<path d="M7.06638 39.105C6.95445 39.105 6.84451 39.0755 6.7476 39.0195C6.6507 38.9635 6.57026 38.883 6.51439 38.786C6.43031 38.6395 6.40772 38.4657 6.45158 38.3026C6.49545 38.1395 6.60218 38.0005 6.74838 37.916L65.6904 3.916C65.7628 3.8741 65.8428 3.84691 65.9258 3.836C66.0088 3.82508 66.0931 3.83066 66.174 3.8524C66.2548 3.87414 66.3305 3.91162 66.3968 3.96269C66.4631 4.01376 66.5187 4.0774 66.5604 4.14999C66.6448 4.29627 66.6677 4.47009 66.624 4.63324C66.5803 4.79638 66.4736 4.9355 66.3274 5.02L7.38538 39.02C7.28836 39.0759 7.17833 39.1052 7.06638 39.105Z" fill="#0C5AE5"/>
<path d="M2.82531 46.4361H2.76531C2.68197 46.4283 2.60097 46.4042 2.52697 46.3651C2.45296 46.326 2.38739 46.2727 2.33399 46.2082C2.28059 46.1438 2.2404 46.0694 2.21575 45.9894C2.19109 45.9095 2.18246 45.8254 2.19031 45.7421C2.29691 44.1862 2.75778 42.6753 3.53771 41.3248C4.31763 39.9743 5.39597 38.82 6.69031 37.9501C6.7586 37.9017 6.83573 37.8673 6.91732 37.8488C6.9989 37.8303 7.08333 37.828 7.16579 37.8421C7.24825 37.8562 7.32713 37.8865 7.39791 37.9311C7.46869 37.9757 7.52999 38.0338 7.57831 38.1021C7.67602 38.2398 7.715 38.4108 7.68668 38.5773C7.65836 38.7439 7.56507 38.8923 7.42731 38.9901C6.2795 39.7506 5.32358 40.7669 4.63459 41.959C3.9456 43.1512 3.54228 44.4868 3.4563 45.8611C3.44074 46.0179 3.36766 46.1635 3.25115 46.2697C3.13463 46.3758 2.98294 46.4351 2.82531 46.4361Z" fill="#0C5AE5"/>
<path d="M2.82449 89.1851C2.65555 89.1851 2.49353 89.118 2.37407 88.9985C2.25461 88.8791 2.1875 88.717 2.1875 88.5481V45.7991C2.1875 45.6302 2.25461 45.4681 2.37407 45.3487C2.49353 45.2292 2.65555 45.1621 2.82449 45.1621C2.99344 45.1621 3.15547 45.2292 3.27493 45.3487C3.39439 45.4681 3.4615 45.6302 3.4615 45.7991V88.5471C3.46163 88.6308 3.44525 88.7138 3.4133 88.7912C3.38135 88.8686 3.33445 88.9389 3.27528 88.9982C3.21612 89.0574 3.14585 89.1044 3.0685 89.1365C2.99115 89.1686 2.90823 89.1851 2.82449 89.1851Z" fill="#0C5AE5"/>
<path d="M4.04253 91.9169C3.88798 91.917 3.73867 91.8609 3.62251 91.7589C3.16117 91.3795 2.793 90.8993 2.54631 90.3553C2.29962 89.8113 2.18098 89.218 2.19952 88.6209C2.18992 88.5378 2.19679 88.4537 2.21974 88.3733C2.2427 88.2929 2.28128 88.2177 2.3333 88.1523C2.38531 88.0868 2.44974 88.0322 2.52287 87.9916C2.59601 87.9511 2.67643 87.9253 2.75952 87.9159C2.9271 87.8976 3.09514 87.9461 3.22714 88.051C3.35914 88.1558 3.44445 88.3085 3.46452 88.4759C3.60552 89.7149 3.64852 90.0879 4.46452 90.8019C4.52758 90.8571 4.57912 90.9241 4.61623 90.9992C4.65333 91.0744 4.67524 91.1561 4.68072 91.2397C4.68621 91.3233 4.67515 91.4071 4.64818 91.4865C4.6212 91.5658 4.57883 91.639 4.52351 91.7019C4.4634 91.7701 4.38935 91.8246 4.30637 91.8616C4.22338 91.8987 4.13342 91.9176 4.04253 91.9169Z" fill="#0C5AE5"/>
<path d="M7.37143 42.3343C7.25951 42.3343 7.14957 42.3049 7.05266 42.2489C6.95576 42.1928 6.87531 42.1123 6.81943 42.0153C6.77767 41.9428 6.7506 41.8628 6.73975 41.7799C6.72891 41.6969 6.7345 41.6127 6.75623 41.5319C6.77796 41.4511 6.81539 41.3754 6.86638 41.309C6.91738 41.2427 6.98095 41.1871 7.05344 41.1453L65.3904 7.50633C65.4629 7.46443 65.5429 7.43724 65.6259 7.42633C65.7089 7.41541 65.7932 7.42099 65.874 7.44273C65.9548 7.46447 66.0306 7.50194 66.0969 7.55301C66.1632 7.60407 66.2188 7.66773 66.2604 7.74032C66.3022 7.81281 66.3293 7.89283 66.3401 7.97578C66.351 8.05874 66.3454 8.14301 66.3236 8.2238C66.3019 8.30459 66.2645 8.3803 66.2135 8.44662C66.1625 8.51294 66.0989 8.56858 66.0264 8.61033L7.69043 42.2493C7.59342 42.3052 7.48339 42.3345 7.37143 42.3343Z" fill="#0C5AE5"/>
<path d="M67.5942 9.79929C67.4253 9.79929 67.2632 9.73217 67.1438 9.6127C67.0243 9.49324 66.9572 9.33122 66.9572 9.16228C66.9742 9.03747 66.9618 8.91042 66.9212 8.79119C66.8806 8.67195 66.8128 8.5638 66.7232 8.47528C66.6041 8.44135 66.4787 8.43589 66.3571 8.45934C66.2355 8.48279 66.1211 8.53449 66.0232 8.61028C65.8765 8.69407 65.7026 8.71617 65.5396 8.67173C65.3767 8.62728 65.238 8.51993 65.1542 8.37328C65.0704 8.22661 65.0483 8.05268 65.0928 7.88971C65.1372 7.72675 65.2446 7.5881 65.3912 7.50428C65.6784 7.30678 66.0135 7.19039 66.3612 7.16733C66.709 7.14428 67.0565 7.21542 67.3672 7.37328C67.6595 7.56584 67.8944 7.83363 68.0474 8.14846C68.2003 8.46328 68.2655 8.81351 68.2362 9.16228C68.2362 9.24636 68.2196 9.3296 68.1872 9.40721C68.1549 9.48483 68.1075 9.55527 68.0479 9.61449C67.9882 9.67371 67.9174 9.72051 67.8395 9.75223C67.7616 9.78395 67.6783 9.79995 67.5942 9.79929Z" fill="#0C5AE5"/>
<path d="M67.5979 49.4018C67.429 49.4018 67.267 49.3347 67.1475 49.2153C67.028 49.0958 66.9609 48.9338 66.9609 48.7648V9.16483C66.9609 8.99588 67.028 8.83386 67.1475 8.7144C67.267 8.59494 67.429 8.52783 67.5979 8.52783C67.7669 8.52783 67.9289 8.59494 68.0484 8.7144C68.1678 8.83386 68.2349 8.99588 68.2349 9.16483V48.7648C68.2349 48.9338 68.1678 49.0958 68.0484 49.2153C67.9289 49.3347 67.7669 49.4018 67.5979 49.4018Z" fill="#0C5AE5"/>
<path d="M65.7082 52.6939C65.5957 52.6941 65.4852 52.6644 65.3879 52.6081C65.2906 52.5517 65.21 52.4705 65.1542 52.3729C65.0704 52.2262 65.0483 52.0523 65.0928 51.8893C65.1372 51.7264 65.2446 51.5877 65.3912 51.5039C65.8473 51.2004 66.2266 50.7951 66.4992 50.3199C66.7718 49.8448 66.9303 49.3128 66.9622 48.7659C66.9622 48.597 67.0293 48.4349 67.1488 48.3155C67.2682 48.196 67.4303 48.1289 67.5992 48.1289C67.7681 48.1289 67.9302 48.196 68.0496 48.3155C68.1691 48.4349 68.2362 48.597 68.2362 48.7659C68.2024 49.537 67.9839 50.2886 67.5989 50.9576C67.214 51.6266 66.6739 52.1932 66.0242 52.6099C65.9281 52.6651 65.8191 52.6941 65.7082 52.6939Z" fill="#0C5AE5"/>
<path d="M7.37143 86.3207C7.25951 86.3207 7.14957 86.2912 7.05266 86.2352C6.95576 86.1792 6.87531 86.0987 6.81943 86.0017C6.77767 85.9292 6.7506 85.8492 6.73975 85.7663C6.72891 85.6833 6.7345 85.5991 6.75623 85.5183C6.77796 85.4375 6.81539 85.3617 6.86638 85.2954C6.91738 85.2291 6.98095 85.1735 7.05344 85.1317L65.3904 51.4997C65.5369 51.4157 65.7107 51.3931 65.8738 51.4369C66.0369 51.4808 66.1759 51.5875 66.2604 51.7337C66.3022 51.8062 66.3293 51.8862 66.3401 51.9692C66.351 52.0521 66.3454 52.1364 66.3236 52.2172C66.3019 52.298 66.2645 52.3737 66.2135 52.44C66.1625 52.5063 66.0989 52.562 66.0264 52.6037L7.69043 86.2357C7.59342 86.2916 7.48339 86.3209 7.37143 86.3207Z" fill="#0C5AE5"/>
<path d="M6.51953 86.5861C6.2356 86.5882 5.95628 86.5143 5.71052 86.3721C5.41915 86.1806 5.18477 85.9142 5.03202 85.6008C4.87928 85.2874 4.81382 84.9386 4.84253 84.5911C4.84253 84.4222 4.90963 84.2601 5.02909 84.1407C5.14856 84.0212 5.31058 83.9541 5.47952 83.9541C5.64846 83.9541 5.81048 84.0212 5.92994 84.1407C6.0494 84.2601 6.11653 84.4222 6.11653 84.5911C6.11653 84.9321 6.20353 85.1861 6.34953 85.2701C6.4695 85.305 6.59603 85.311 6.71876 85.2875C6.84149 85.2641 6.95691 85.2118 7.05552 85.1351C7.20219 85.0513 7.37614 85.0292 7.5391 85.0736C7.70207 85.1181 7.8407 85.2255 7.92453 85.3721C8.00831 85.5188 8.03042 85.6927 7.98597 85.8557C7.94153 86.0186 7.83418 86.1573 7.68753 86.2411C7.33474 86.4555 6.93221 86.5744 6.51953 86.5861Z" fill="#0C5AE5"/>
<path d="M5.47675 85.2289C5.30892 85.2276 5.14838 85.1602 5.02989 85.0414C4.91141 84.9225 4.84453 84.7618 4.84375 84.5939V44.9939C4.84375 44.825 4.91086 44.663 5.03032 44.5435C5.14978 44.4241 5.3118 44.3569 5.48074 44.3569C5.64969 44.3569 5.81172 44.4241 5.93118 44.5435C6.05064 44.663 6.11775 44.825 6.11775 44.9939V84.5939C6.11749 84.6778 6.10069 84.7607 6.06831 84.838C6.03593 84.9153 5.98861 84.9855 5.92906 85.0445C5.86951 85.1035 5.7989 85.1501 5.72128 85.1818C5.64367 85.2134 5.56057 85.2295 5.47675 85.2289Z" fill="#0C5AE5"/>
<path d="M5.47293 45.6262C5.30399 45.6262 5.14197 45.5591 5.02251 45.4396C4.90305 45.3202 4.83594 45.1582 4.83594 44.9892C4.86934 44.2177 5.08785 43.4655 5.47301 42.7961C5.85817 42.1267 6.39867 41.5598 7.04893 41.1432C7.12162 41.1018 7.20175 41.075 7.28476 41.0646C7.36777 41.0541 7.45205 41.0601 7.53275 41.0822C7.61344 41.1043 7.68899 41.1421 7.75508 41.1934C7.82117 41.2447 7.87652 41.3085 7.91794 41.3812C7.95938 41.4539 7.9861 41.534 7.99657 41.617C8.00704 41.7 8.00106 41.7843 7.97896 41.865C7.95686 41.9457 7.91907 42.0213 7.86777 42.0874C7.81646 42.1535 7.75263 42.2088 7.67993 42.2502C7.22347 42.5535 6.84388 42.9589 6.57121 43.4343C6.29854 43.9097 6.14027 44.4421 6.10893 44.9892C6.10893 45.158 6.04196 45.3199 5.92271 45.4393C5.80347 45.5587 5.6417 45.626 5.47293 45.6262Z" fill="#0C5AE5"/>
<path d="M70.2411 7.55989C70.0721 7.55989 69.9101 7.49278 69.7907 7.37332C69.6712 7.25386 69.6041 7.09184 69.6041 6.9229C69.6544 6.50991 69.5958 6.09093 69.4341 5.70761C69.2723 5.32429 69.0131 4.98998 68.6821 4.7379C68.2976 4.57545 67.8774 4.51637 67.463 4.56654C67.0487 4.61671 66.6547 4.77438 66.3201 5.02389C66.1734 5.10768 65.9995 5.12979 65.8365 5.08534C65.6735 5.0409 65.5349 4.93354 65.4511 4.78689C65.3673 4.64022 65.3452 4.46628 65.3896 4.30331C65.4341 4.14035 65.5414 4.00172 65.6881 3.91789C66.2132 3.55007 66.8274 3.32987 67.4665 3.28027C68.1057 3.23067 68.7465 3.35348 69.3221 3.63589C69.852 3.99427 70.2761 4.48835 70.55 5.06653C70.8239 5.64471 70.9375 6.2858 70.8791 6.9229C70.8791 7.00663 70.8626 7.08953 70.8305 7.16688C70.7984 7.24423 70.7514 7.31451 70.6921 7.37367C70.6329 7.43284 70.5626 7.47973 70.4852 7.51169C70.4078 7.54364 70.3248 7.56002 70.2411 7.55989Z" fill="#0C5AE5"/>
<path d="M70.2464 50.3101C70.0774 50.3101 69.9154 50.243 69.7959 50.1236C69.6765 50.0041 69.6094 49.8421 69.6094 49.6731V6.92313C69.6094 6.75418 69.6765 6.59216 69.7959 6.4727C69.9154 6.35324 70.0774 6.28613 70.2464 6.28613C70.4152 6.2864 70.5771 6.35359 70.6965 6.47299C70.8159 6.5924 70.8831 6.75426 70.8834 6.92313V49.6731C70.8834 49.8421 70.8163 50.0041 70.6968 50.1236C70.5773 50.243 70.4153 50.3101 70.2464 50.3101Z" fill="#0C5AE5"/>
<path d="M66.0044 57.6411C65.8935 57.6412 65.7844 57.6123 65.6881 57.5573C65.5918 57.5022 65.5116 57.4228 65.4554 57.3271C65.3697 57.1817 65.3452 57.0081 65.3874 56.8446C65.4296 56.6811 65.535 56.541 65.6804 56.4552C66.8092 55.6994 67.7498 54.6951 68.43 53.5193C69.1102 52.3435 69.512 51.0274 69.6044 49.6721C69.6044 49.5032 69.6715 49.3412 69.791 49.2217C69.9104 49.1023 70.0725 49.0352 70.2414 49.0352C70.4103 49.0352 70.5724 49.1023 70.6918 49.2217C70.8113 49.3412 70.8784 49.5032 70.8784 49.6721C70.784 51.2488 70.3236 52.7819 69.5336 54.1497C68.7437 55.5175 67.6459 56.6824 66.3274 57.5522C66.2297 57.6103 66.1181 57.641 66.0044 57.6411Z" fill="#0C5AE5"/>
<path d="M7.06674 91.6312C6.95482 91.6312 6.84488 91.6018 6.74797 91.5457C6.65107 91.4897 6.57063 91.4092 6.51476 91.3122C6.47299 91.2397 6.4459 91.1597 6.43506 91.0768C6.42422 90.9938 6.42983 90.9096 6.45155 90.8288C6.47328 90.748 6.51071 90.6723 6.56171 90.6059C6.6127 90.5396 6.67626 90.484 6.74875 90.4422L65.6908 56.4532C65.7632 56.4115 65.8432 56.3844 65.9262 56.3735C66.0091 56.3627 66.0934 56.3683 66.1742 56.39C66.255 56.4117 66.3307 56.4492 66.397 56.5002C66.4634 56.5512 66.519 56.6147 66.5607 56.6872C66.6452 56.8335 66.6681 57.0073 66.6244 57.1705C66.5807 57.3336 66.474 57.4727 66.3277 57.5572L7.38374 91.5452C7.2875 91.6013 7.17814 91.631 7.06674 91.6312Z" fill="#0C5AE5"/>
<path d="M5.18058 92.2061C4.67803 92.211 4.1833 92.0815 3.74758 91.8311C3.21891 91.4731 2.79596 90.9799 2.52281 90.4028C2.24965 89.8257 2.13631 89.1859 2.19459 88.5501C2.19459 88.3811 2.2617 88.2191 2.38116 88.0997C2.50062 87.9802 2.66264 87.9131 2.83158 87.9131C3.00052 87.9131 3.16256 87.9802 3.28202 88.0997C3.40148 88.2191 3.46859 88.3811 3.46859 88.5501C3.41838 88.9618 3.47667 89.3795 3.6377 89.7617C3.79873 90.1439 4.0569 90.4774 4.38659 90.7291C4.7718 90.8915 5.19275 90.9504 5.60774 90.9C6.02272 90.8497 6.41736 90.6918 6.75259 90.4421C6.82518 90.4005 6.90527 90.3736 6.98827 90.363C7.07127 90.3524 7.15555 90.3582 7.23628 90.3802C7.317 90.4023 7.39258 90.44 7.4587 90.4913C7.52482 90.5426 7.58018 90.6064 7.62159 90.6791C7.66317 90.7517 7.69 90.8319 7.70054 90.9149C7.71108 90.998 7.70512 91.0823 7.68301 91.163C7.6609 91.2437 7.62306 91.3193 7.57168 91.3854C7.5203 91.4515 7.45638 91.5068 7.38358 91.5481C6.71862 91.9545 5.9595 92.1812 5.18058 92.2061Z" fill="#0C5AE5"/>
<path d="M26.6666 48.2593C26.5485 48.2593 26.4328 48.2264 26.3323 48.1645C26.2319 48.1025 26.1506 48.0138 26.0976 47.9083C25.9963 47.9018 25.8981 47.8712 25.8112 47.819C25.7242 47.7668 25.651 47.6946 25.5976 47.6083C25.5531 47.5376 25.523 47.4588 25.509 47.3765C25.495 47.2941 25.4973 47.2098 25.5159 47.1284C25.5345 47.047 25.5689 46.97 25.6173 46.9019C25.6656 46.8337 25.7268 46.7758 25.7976 46.7313C25.9434 46.6294 26.1143 46.5694 26.2919 46.5578C26.4694 46.5461 26.6467 46.5833 26.8046 46.6653C26.9671 46.7637 27.0997 46.9047 27.1878 47.0731C27.2759 47.2414 27.3163 47.4307 27.3046 47.6203C27.3048 47.7042 27.2885 47.7874 27.2566 47.8649C27.2246 47.9425 27.1776 48.013 27.1184 48.0724C27.0591 48.1318 26.9886 48.1789 26.9111 48.2109C26.8336 48.243 26.7505 48.2595 26.6666 48.2593Z" fill="#0C5AE5"/>
<path d="M26.1298 49.2894C26.0218 49.2892 25.9156 49.2615 25.8211 49.2091C25.7267 49.1566 25.6471 49.081 25.5898 48.9894C25.5 48.8464 25.4706 48.6736 25.5081 48.509C25.5456 48.3443 25.6469 48.2013 25.7898 48.1114C25.9273 47.9842 26.0098 47.8084 26.0198 47.6214C26.0198 47.4524 26.087 47.2904 26.2064 47.1709C26.3259 47.0515 26.4879 46.9844 26.6568 46.9844C26.8258 46.9844 26.9878 47.0515 27.1073 47.1709C27.2267 47.2904 27.2938 47.4524 27.2938 47.6214C27.2896 47.9296 27.2125 48.2325 27.0687 48.5052C26.925 48.7779 26.7187 49.0127 26.4668 49.1904C26.366 49.2544 26.2492 49.2887 26.1298 49.2894Z" fill="#0C5AE5"/>
<path d="M25.8463 49.37C25.6724 49.3711 25.5017 49.3237 25.3533 49.233C25.2007 49.133 25.0776 48.9941 24.9968 48.8306C24.9159 48.6671 24.8802 48.4849 24.8933 48.303C24.8933 48.1341 24.9604 47.972 25.0798 47.8526C25.1993 47.7331 25.3613 47.666 25.5303 47.666C25.6482 47.666 25.7639 47.6986 25.8643 47.7604C25.9648 47.8222 26.0461 47.9107 26.0993 48.016C26.2239 48.0077 26.3481 48.0366 26.4562 48.0991C26.5643 48.1616 26.6514 48.2549 26.7063 48.367C26.7437 48.4419 26.7661 48.5234 26.772 48.6068C26.778 48.6903 26.7674 48.7742 26.741 48.8536C26.7145 48.933 26.6726 49.0064 26.6178 49.0696C26.5629 49.1328 26.4962 49.1846 26.4213 49.222C26.2438 49.3157 26.0469 49.3664 25.8463 49.37Z" fill="#0C5AE5"/>
<path d="M25.5276 48.939C25.3587 48.939 25.1967 48.8719 25.0772 48.7524C24.9577 48.6329 24.8906 48.4709 24.8906 48.302C24.8937 47.9742 24.9841 47.6532 25.1525 47.3719C25.3208 47.0907 25.5611 46.8595 25.8486 46.702C25.9997 46.6265 26.1745 46.6141 26.3348 46.6673C26.4951 46.7205 26.6277 46.8351 26.7036 46.986C26.7791 47.1371 26.7916 47.3119 26.7383 47.4722C26.6851 47.6325 26.5705 47.7651 26.4196 47.841C26.345 47.8933 26.2832 47.9619 26.239 48.0416C26.1948 48.1213 26.1694 48.21 26.1646 48.301C26.1647 48.3847 26.1484 48.4677 26.1164 48.5451C26.0845 48.6225 26.0376 48.6928 25.9784 48.7521C25.9192 48.8113 25.849 48.8583 25.7716 48.8904C25.6943 48.9225 25.6114 48.939 25.5276 48.939Z" fill="#0C5AE5"/>
<path d="M26.664 54.819C26.5471 54.819 26.4326 54.787 26.3327 54.7263C26.2329 54.6657 26.1517 54.5787 26.098 54.475C25.9968 54.4683 25.8986 54.4376 25.8117 54.3854C25.7247 54.3333 25.6515 54.2611 25.598 54.175C25.5534 54.1043 25.5232 54.0255 25.5091 53.9432C25.495 53.8608 25.4973 53.7764 25.5159 53.695C25.5345 53.6135 25.569 53.5365 25.6174 53.4684C25.6658 53.4002 25.7271 53.3423 25.798 53.298C25.944 53.1954 26.1154 53.1348 26.2935 53.1228C26.4715 53.1108 26.6495 53.1479 26.808 53.23C26.969 53.3283 27.1001 53.4688 27.1872 53.6362C27.2743 53.8036 27.3139 53.9917 27.302 54.18C27.3022 54.2639 27.2859 54.347 27.254 54.4246C27.222 54.5022 27.175 54.5727 27.1157 54.6321C27.0565 54.6914 26.986 54.7385 26.9085 54.7706C26.831 54.8027 26.7479 54.8191 26.664 54.819Z" fill="#0C5AE5"/>
<path d="M26.1298 55.856C26.0217 55.856 25.9154 55.8285 25.821 55.776C25.7265 55.7235 25.6469 55.6478 25.5898 55.556C25.5 55.413 25.4706 55.2403 25.5081 55.0756C25.5456 54.911 25.6469 54.768 25.7898 54.678C25.9279 54.547 26.0102 54.368 26.0198 54.178C26.0198 54.0091 26.087 53.8471 26.2064 53.7276C26.3259 53.6081 26.4879 53.541 26.6568 53.541C26.8258 53.541 26.9878 53.6081 27.1073 53.7276C27.2267 53.8471 27.2938 54.0091 27.2938 54.178C27.2902 54.4875 27.2134 54.7917 27.0697 55.0658C26.9259 55.3399 26.7194 55.5761 26.4668 55.755C26.3663 55.8197 26.2494 55.8548 26.1298 55.856Z" fill="#0C5AE5"/>
<path d="M25.8473 55.9359C25.6711 55.938 25.4978 55.8906 25.3473 55.7989C25.1945 55.6993 25.0712 55.5606 24.9899 55.3973C24.9087 55.234 24.8726 55.0519 24.8853 54.8699C24.8853 54.701 24.9524 54.539 25.0719 54.4195C25.1913 54.3 25.3534 54.2329 25.5223 54.2329C25.6403 54.2327 25.756 54.2654 25.8564 54.3272C25.9569 54.389 26.0382 54.4775 26.0913 54.5829C26.2159 54.5743 26.3403 54.6031 26.4485 54.6657C26.5566 54.7282 26.6436 54.8216 26.6983 54.9339C26.7358 55.0088 26.7581 55.0903 26.7641 55.1738C26.77 55.2573 26.7595 55.3411 26.733 55.4205C26.7065 55.4999 26.6647 55.5733 26.6098 55.6365C26.555 55.6997 26.4882 55.7515 26.4133 55.7889C26.2386 55.8812 26.0448 55.9315 25.8473 55.9359Z" fill="#0C5AE5"/>
<path d="M25.5276 55.5074C25.3587 55.5074 25.1967 55.4403 25.0772 55.3208C24.9577 55.2013 24.8906 55.0393 24.8906 54.8704C24.8929 54.5424 24.9829 54.221 25.1514 53.9397C25.3198 53.6583 25.5606 53.4272 25.8486 53.2704C25.9997 53.1949 26.1745 53.1824 26.3348 53.2357C26.4951 53.2889 26.6277 53.4035 26.7036 53.5544C26.7791 53.7054 26.7916 53.8803 26.7383 54.0406C26.6851 54.2008 26.5705 54.3335 26.4196 54.4094C26.344 54.4604 26.2814 54.5285 26.2371 54.6083C26.1928 54.6881 26.1679 54.7772 26.1646 54.8684C26.1649 54.9522 26.1486 55.0352 26.1167 55.1128C26.0848 55.1903 26.0379 55.2607 25.9788 55.3201C25.9196 55.3795 25.8493 55.4265 25.7719 55.4587C25.6944 55.4908 25.6114 55.5074 25.5276 55.5074Z" fill="#0C5AE5"/>
<path d="M26.6605 61.7947C26.5424 61.7948 26.4266 61.762 26.3262 61.7C26.2257 61.638 26.1444 61.5493 26.0915 61.4437C25.9896 61.4364 25.8911 61.4046 25.804 61.3512C25.717 61.2978 25.6441 61.2242 25.5915 61.1367C25.5483 61.0652 25.5196 60.9858 25.5071 60.9032C25.4946 60.8206 25.4986 60.7363 25.5188 60.6552C25.5389 60.5741 25.5749 60.4977 25.6246 60.4306C25.6743 60.3634 25.7368 60.3067 25.8085 60.2637C25.9555 60.1646 26.1266 60.1074 26.3036 60.098C26.4807 60.0887 26.6569 60.1277 26.8135 60.2107C26.9728 60.3098 27.1023 60.4501 27.1882 60.6168C27.2742 60.7836 27.3133 60.9705 27.3015 61.1577C27.3015 61.2417 27.2849 61.3249 27.2526 61.4024C27.2204 61.48 27.1731 61.5504 27.1135 61.6096C27.0539 61.6688 26.9832 61.7156 26.9055 61.7474C26.8277 61.7792 26.7445 61.7952 26.6605 61.7947Z" fill="#0C5AE5"/>
<path d="M26.1295 62.824C26.0193 62.8241 25.9109 62.7955 25.8151 62.7412C25.7192 62.6868 25.639 62.6086 25.5825 62.514C25.4959 62.369 25.4703 62.1956 25.5113 62.0317C25.5524 61.8679 25.6567 61.727 25.8015 61.64C25.9329 61.5129 26.0111 61.3406 26.0205 61.158C26.0205 60.9891 26.0876 60.827 26.207 60.7076C26.3265 60.5881 26.4885 60.521 26.6575 60.521C26.8264 60.521 26.9885 60.5881 27.1079 60.7076C27.2274 60.827 27.2945 60.9891 27.2945 61.158C27.2923 61.4687 27.2149 61.7742 27.069 62.0484C26.923 62.3227 26.7129 62.5576 26.4565 62.733C26.3578 62.7926 26.2447 62.8241 26.1295 62.824Z" fill="#0C5AE5"/>
<path d="M25.846 62.905C25.6718 62.9062 25.5007 62.8588 25.352 62.768C25.2004 62.6691 25.0779 62.5315 24.9972 62.3694C24.9165 62.2073 24.8806 62.0266 24.893 61.846C24.893 61.677 24.9602 61.515 25.0796 61.3955C25.1991 61.2761 25.3611 61.209 25.53 61.209C25.6465 61.209 25.7606 61.2409 25.8602 61.3012C25.9598 61.3615 26.041 61.4478 26.095 61.551C26.2201 61.5429 26.3448 61.5719 26.4535 61.6343C26.5622 61.6967 26.65 61.7898 26.706 61.902C26.7435 61.9768 26.7659 62.0583 26.7718 62.1418C26.7778 62.2253 26.7672 62.3091 26.7407 62.3885C26.7143 62.468 26.6724 62.5414 26.6176 62.6046C26.5627 62.6678 26.4959 62.7196 26.421 62.757C26.2436 62.8507 26.0467 62.9014 25.846 62.905Z" fill="#0C5AE5"/>
<path d="M25.5276 62.4827C25.3587 62.4827 25.1967 62.4156 25.0772 62.2961C24.9577 62.1767 24.8906 62.0146 24.8906 61.8457C24.8945 61.5192 24.9843 61.1995 25.1509 60.9186C25.3174 60.6378 25.555 60.4057 25.8396 60.2457C25.9895 60.1678 26.1642 60.1525 26.3252 60.2033C26.4863 60.2542 26.6206 60.3669 26.6986 60.5167C26.7766 60.6666 26.7918 60.8412 26.741 61.0023C26.6902 61.1634 26.5774 61.2977 26.4276 61.3757C26.3499 61.4281 26.2855 61.498 26.2396 61.5798C26.1938 61.6616 26.1678 61.753 26.1636 61.8467C26.1634 62.0153 26.0963 62.1769 25.9771 62.2961C25.8578 62.4154 25.6962 62.4825 25.5276 62.4827Z" fill="#0C5AE5"/>
<path d="M30.2161 52.8068C30.1044 52.8069 29.9946 52.7777 29.8978 52.7221C29.8009 52.6665 29.7203 52.5864 29.6641 52.4898C29.6221 52.4174 29.5948 52.3374 29.5837 52.2545C29.5727 52.1715 29.578 52.0872 29.5996 52.0063C29.6211 51.9254 29.6584 51.8495 29.7093 51.783C29.7602 51.7165 29.8237 51.6608 29.8961 51.6188L46.6961 41.8738C46.7685 41.8318 46.8484 41.8044 46.9313 41.7933C47.0143 41.7821 47.0986 41.7874 47.1795 41.8089C47.2604 41.8303 47.3362 41.8675 47.4027 41.9183C47.4693 41.9691 47.5251 42.0325 47.5671 42.1048C47.6092 42.1772 47.6365 42.2571 47.6477 42.3401C47.6588 42.423 47.6535 42.5073 47.6321 42.5882C47.6106 42.6691 47.5735 42.745 47.5227 42.8115C47.4719 42.878 47.4085 42.9338 47.3361 42.9758L30.5361 52.7208C30.439 52.7774 30.3285 52.807 30.2161 52.8068Z" fill="#0C5AE5"/>
<path d="M30.2161 46.2472C30.1044 46.2473 29.9946 46.218 29.8978 46.1624C29.8009 46.1068 29.7203 46.0267 29.6641 45.9301C29.6221 45.8577 29.5948 45.7778 29.5837 45.6948C29.5727 45.6118 29.578 45.5274 29.5996 45.4466C29.6211 45.3657 29.6584 45.2898 29.7093 45.2234C29.7602 45.1569 29.8237 45.1011 29.8961 45.0592L46.6961 35.3141C46.7684 35.272 46.8484 35.2445 46.9313 35.2333C47.0143 35.2221 47.0987 35.2273 47.1796 35.2488C47.2605 35.2703 47.3364 35.3075 47.4029 35.3583C47.4694 35.4092 47.5252 35.4727 47.5671 35.5452C47.6092 35.6175 47.6365 35.6974 47.6477 35.7804C47.6588 35.8633 47.6535 35.9476 47.6321 36.0285C47.6106 36.1094 47.5735 36.1853 47.5227 36.2518C47.4719 36.3183 47.4085 36.3742 47.3361 36.4162L30.5361 46.1612C30.4389 46.2176 30.3285 46.2473 30.2161 46.2472Z" fill="#0C5AE5"/>
<path d="M30.2159 59.7832C30.104 59.7834 29.9941 59.7541 29.8972 59.6983C29.8003 59.6424 29.7198 59.562 29.6639 59.4652C29.6219 59.3927 29.5946 59.3127 29.5836 59.2296C29.5726 59.1466 29.5781 59.0622 29.5998 58.9813C29.6214 58.9004 29.6588 58.8246 29.7098 58.7582C29.7607 58.6917 29.8243 58.636 29.8969 58.5942L43.5159 50.7172C43.6621 50.6327 43.836 50.6098 43.9991 50.6535C44.1623 50.6972 44.3014 50.8039 44.3859 50.9502C44.4703 51.0964 44.4932 51.2703 44.4495 51.4334C44.4058 51.5965 44.2991 51.7357 44.1529 51.8201L30.5339 59.6972C30.4373 59.7533 30.3276 59.783 30.2159 59.7832Z" fill="#0C5AE5"/>
<path d="M60.097 45.7242C58.1735 46.9742 56.5732 48.6618 55.4271 50.6489C54.2811 52.6361 53.6217 54.8663 53.503 57.1572C53.4704 58.187 53.7065 59.2074 54.188 60.1182C56.905 66.1982 66.31 70.8732 66.805 71.1182C67.264 70.3392 75.99 55.5552 79.021 46.3912C79.6296 44.9587 79.9569 43.4224 79.985 41.8662C79.973 37.6602 76.998 35.9662 73.337 38.0782C70.672 39.6172 68.39 43.6132 67.342 45.6642C67.2078 45.9452 66.997 46.1826 66.734 46.3492C66.6469 46.415 66.5415 46.4521 66.4323 46.4554C66.3232 46.4586 66.2158 46.4278 66.125 46.3672C65.3131 45.6442 64.2952 45.1934 63.2142 45.078C62.1331 44.9627 61.0431 45.1887 60.097 45.7242Z" fill="white"/>
<path d="M66.5192 71.6902C65.4852 71.1772 56.3392 66.5022 53.6332 60.4362C53.0947 59.4295 52.8289 58.2994 52.8622 57.1582C52.9895 54.757 53.6821 52.4197 54.8836 50.3367C56.085 48.2537 57.7614 46.4839 59.7762 45.1712C60.8147 44.5842 62.008 44.329 63.1958 44.4398C64.3836 44.5506 65.5091 45.0222 66.4212 45.7912C66.5728 45.6863 66.6937 45.5426 66.7712 45.3752C67.9212 43.1262 70.2612 39.1172 73.0172 37.5272C75.0002 36.3822 76.8982 36.2172 78.3582 37.0572C79.8182 37.8972 80.6152 39.6012 80.6222 41.8652C80.5955 43.4908 80.2559 45.096 79.6222 46.5932C76.6322 55.6322 68.2922 69.8522 67.3502 71.4452C67.2935 71.5406 67.2131 71.6197 67.1166 71.6746C67.0202 71.7295 66.9111 71.7583 66.8002 71.7582C66.7025 71.7577 66.6063 71.7345 66.5192 71.6902ZM73.6562 38.6322C71.1842 40.0592 68.9942 43.8322 67.9102 45.9532C67.7212 46.3454 67.4234 46.6749 67.0522 46.9022C66.8551 47.0352 66.6215 47.1034 66.3839 47.0975C66.1462 47.0916 65.9164 47.0118 65.7262 46.8692C65.0138 46.2278 64.1184 45.8258 63.1657 45.7198C62.213 45.6138 61.2511 45.8091 60.4152 46.2782C58.5863 47.469 57.0646 49.075 55.974 50.9654C54.8834 52.8557 54.2547 54.9769 54.1392 57.1562C54.1098 58.0958 54.327 59.0267 54.7692 59.8562C57.0632 64.9912 64.3742 69.1292 66.5572 70.2752C68.1902 67.4752 75.6912 54.4202 78.4282 46.1502C79.0053 44.7949 79.3163 43.3411 79.3442 41.8682C79.3442 40.0782 78.7632 38.7632 77.7212 38.1682C77.2902 37.9258 76.8026 37.8022 76.3082 37.8102C75.3678 37.8497 74.4539 38.1329 73.6562 38.6322Z" fill="#0C5AE5"/>
<path d="M45.9472 52.8852C45.9212 53.9151 46.1583 54.9346 46.6363 55.8472C48.0771 59.2981 50.7096 62.1166 54.0543 63.7892L64.1163 69.6243C60.9883 67.7603 56.0332 64.2623 54.1823 60.1113C53.7022 59.1998 53.4688 58.1787 53.5053 57.1492C53.5063 56.666 53.5448 56.1835 53.6203 55.7062C53.6323 55.6302 53.6323 55.5413 53.6463 55.4643C53.7276 54.977 53.8385 54.4951 53.9783 54.0212C54.0163 53.9212 54.0423 53.8042 54.0783 53.7022C54.2193 53.2422 54.3853 52.7953 54.5783 52.3353C54.6003 52.2997 54.6175 52.2614 54.6292 52.2212C54.8462 51.7492 55.0763 51.2762 55.3443 50.8212L55.5353 50.4762C55.7783 50.0682 56.0463 49.6762 56.3143 49.2892L56.4293 49.1362C56.7383 48.7125 57.0722 48.3074 57.4293 47.9232C57.4933 47.8592 57.5573 47.7823 57.6213 47.7233C57.9642 47.367 58.3268 47.0302 58.7073 46.7143C58.7592 46.6676 58.8147 46.6252 58.8733 46.5872C59.259 46.2704 59.6689 45.9842 60.0992 45.7312C60.3162 45.6162 60.5202 45.5312 60.7252 45.4372C60.8328 45.387 60.9438 45.3442 61.0573 45.3093C61.1842 45.2583 61.3253 45.2202 61.4573 45.1822C61.5893 45.1442 61.6753 45.1312 61.7763 45.1182C61.9075 45.0876 62.0415 45.0706 62.1763 45.0672C62.2735 45.0518 62.3718 45.0431 62.4703 45.0412C62.5935 45.035 62.717 45.035 62.8403 45.0412C62.9403 45.0542 63.0323 45.0542 63.1213 45.0672C63.2483 45.0802 63.3633 45.1062 63.4913 45.1182C63.575 45.1424 63.6606 45.1595 63.7473 45.1692C63.8635 45.1968 63.9783 45.2302 64.0913 45.2692C64.1683 45.2952 64.2452 45.3202 64.3092 45.3462C64.3542 45.3552 64.3972 45.3721 64.4363 45.3962L66.1363 46.3672V46.3802L66.1863 46.4062C66.2622 46.4546 66.3535 46.4728 66.4423 46.4572C66.4731 46.4531 66.5031 46.4444 66.5312 46.4312C66.5797 46.4248 66.6271 46.412 66.6723 46.3932L66.7483 46.3552C66.8738 46.2803 66.9862 46.1854 67.0813 46.0742C67.0844 46.0742 67.0875 46.073 67.0897 46.0707C67.092 46.0685 67.0933 46.0654 67.0933 46.0622C67.1986 45.9404 67.2886 45.806 67.3612 45.6622C67.5142 45.3682 67.7063 44.9983 67.9103 44.6283C67.9743 44.5133 68.0372 44.3982 68.1012 44.2952C68.2802 43.9892 68.4723 43.6572 68.6633 43.3382C68.7403 43.2112 68.8162 43.0962 68.8932 42.9672C69.1742 42.5202 69.4673 42.0732 69.7873 41.6392C69.8253 41.5752 69.8763 41.5123 69.9143 41.4603C70.1953 41.0773 70.4893 40.7072 70.7833 40.3602C70.9743 40.1432 71.1663 39.9262 71.3573 39.7222C71.3963 39.6832 71.4213 39.6332 71.4573 39.6072C71.7137 39.3392 71.9865 39.0874 72.2743 38.8532C72.3349 38.7941 72.399 38.7387 72.4663 38.6872C72.7603 38.4692 73.0532 38.2532 73.3472 38.0742C73.5642 37.9592 73.7812 37.8442 73.9853 37.7422C74.3241 37.5883 74.6741 37.4603 75.0322 37.3592C75.0822 37.3462 75.1322 37.3332 75.1982 37.3202C75.5036 37.2435 75.8158 37.1966 76.1303 37.1803H76.2963C76.5841 37.1769 76.8713 37.2068 77.1523 37.2692C77.1918 37.2715 77.2306 37.2802 77.2672 37.2952C77.5439 37.3669 77.8101 37.4742 78.0592 37.6142L70.5133 33.3492C70.264 33.2094 69.9978 33.1022 69.7213 33.0302L69.6063 32.9922C69.3248 32.9339 69.0376 32.908 68.7502 32.9152H68.5842C68.2653 32.9267 67.9486 32.974 67.6402 33.0562C67.5892 33.0692 67.5402 33.0822 67.4742 33.0942C67.1195 33.1927 66.7736 33.3208 66.4403 33.4773C66.4273 33.4773 66.4273 33.4773 66.4143 33.4903C66.2143 33.5793 66.0053 33.6903 65.8013 33.8093C65.4943 33.9929 65.2003 34.1974 64.9213 34.4213L64.7293 34.5752C64.4483 34.8042 64.1803 35.0602 63.9123 35.3282L63.7983 35.4433C63.6703 35.5963 63.5292 35.7372 63.3892 35.8902L63.2353 36.0822C62.9293 36.4392 62.6483 36.8092 62.3673 37.1822C62.3276 37.2473 62.2802 37.3074 62.2262 37.3613C61.9072 37.8083 61.6143 38.2552 61.3323 38.7013C61.2563 38.8162 61.1912 38.9432 61.1152 39.0582C60.9152 39.3902 60.7153 39.7093 60.5533 40.0163L60.3613 40.3602C60.1613 40.7312 59.9523 41.0882 59.7993 41.3942C59.7283 41.5418 59.6382 41.6793 59.5312 41.8032C59.4365 41.9143 59.3244 42.0092 59.1993 42.0842C59.1245 42.1151 59.0477 42.1405 58.9693 42.1602C58.9433 42.1602 58.9192 42.1862 58.8932 42.1862L58.8673 42.1742L57.7563 41.5352C57.6033 41.4462 57.4503 41.3563 57.2843 41.2793C57.2333 41.2543 57.1693 41.2412 57.1183 41.2152C57.0033 41.1642 56.8883 41.1152 56.7613 41.0622C56.6843 41.0362 56.6202 41.0242 56.5433 40.9982C56.4264 40.9575 56.3072 40.9241 56.1863 40.8982C56.1025 40.8741 56.0169 40.8571 55.9303 40.8472C55.8163 40.8212 55.7012 40.8083 55.5732 40.7833C55.4842 40.7833 55.3943 40.7703 55.2923 40.7703C55.1653 40.7703 55.0503 40.7582 54.9213 40.7582C54.8213 40.7702 54.7212 40.7702 54.6152 40.7842C54.4868 40.7947 54.359 40.8118 54.2323 40.8353C54.1173 40.8613 54.0153 40.8862 53.9133 40.9122C53.7723 40.9502 53.6452 40.9882 53.5042 41.0272C53.4042 41.0652 53.2873 41.1163 53.1723 41.1543C53.115 41.1851 53.0551 41.2109 52.9933 41.2312C52.8422 41.2948 52.697 41.3715 52.5592 41.4603C52.1326 41.7136 51.7233 41.9952 51.3342 42.3032C51.2702 42.3542 51.2192 42.3923 51.1682 42.4303C50.785 42.7473 50.4226 43.0886 50.0833 43.4522C50.0159 43.5156 49.9518 43.5824 49.8912 43.6522L49.6613 43.8812C49.3933 44.2002 49.1383 44.5203 48.8823 44.8653C48.8459 44.9142 48.8125 44.9653 48.7822 45.0182C48.5012 45.4012 48.2452 45.7972 48.0032 46.2052C47.9392 46.3202 47.8623 46.4222 47.8033 46.5502C47.5613 46.9972 47.3182 47.4443 47.1142 47.9043C47.1142 47.9163 47.1023 47.9422 47.1023 47.9552C47.08 47.991 47.0628 48.0297 47.0513 48.0702C46.8601 48.5162 46.6931 48.9722 46.5513 49.4362C46.5105 49.5401 46.4771 49.6467 46.4513 49.7552C46.3109 50.2289 46.2 50.7108 46.1193 51.1982C46.1073 51.2752 46.0933 51.3512 46.0813 51.4402C46.0553 51.6582 46.0172 51.8872 46.0042 52.1042C45.9602 52.3622 45.9472 52.6342 45.9472 52.8852Z" fill="white"/>
<path d="M63.7934 70.1773L53.7325 64.3413C50.2889 62.6154 47.5752 59.7162 46.0805 56.1663C45.5467 55.1591 45.2802 54.0318 45.3064 52.8923V52.8852C45.3064 52.6092 45.3205 52.3193 45.3455 52.0653C45.3545 51.9003 45.3775 51.7282 45.4015 51.5582L45.4675 51.1003C45.5483 50.6001 45.6615 50.1057 45.8064 49.6203C45.8347 49.4943 45.8731 49.3709 45.9215 49.2513C46.0624 48.7837 46.2293 48.3243 46.4215 47.8753C46.4379 47.8234 46.4576 47.7726 46.4805 47.7233C46.4895 47.6973 46.4975 47.6713 46.5085 47.6463C46.7155 47.1803 46.9615 46.7272 47.2085 46.2642C47.2555 46.1722 47.3085 46.0902 47.3565 46.0102L47.4345 45.8823C47.6875 45.4553 47.9545 45.0423 48.2555 44.6303C48.2665 44.6093 48.3375 44.5063 48.3555 44.4863C48.6185 44.1313 48.8804 43.8013 49.1954 43.4313L49.3855 43.2463C49.4635 43.1543 49.5395 43.0752 49.6015 43.0142C49.973 42.6172 50.3705 42.2454 50.7915 41.9013L50.9285 41.7952C51.3324 41.4742 51.7581 41.1816 52.2025 40.9193C52.4008 40.7927 52.6115 40.6868 52.8315 40.6033C52.8713 40.5799 52.9136 40.5608 52.9575 40.5463L54.0945 40.2063C54.2445 40.1763 54.3945 40.1603 54.5215 40.1473C54.5875 40.1393 54.6535 40.1342 54.7215 40.1312L54.9115 40.1173L55.2825 40.1293C55.3505 40.1293 55.4155 40.1293 55.4825 40.1383L55.8364 40.1793C55.9144 40.1913 55.9885 40.2042 56.0275 40.2132C56.1219 40.2239 56.2152 40.2426 56.3064 40.2692C56.4787 40.3077 56.6486 40.3558 56.8155 40.4133C56.8385 40.4203 56.9705 40.4603 56.9935 40.4693L57.3935 40.6402C57.4165 40.6482 57.5214 40.6883 57.5444 40.6993C57.7244 40.7813 57.8895 40.8772 58.0665 40.9802L58.9395 41.4802C58.9777 41.4498 59.0135 41.4164 59.0465 41.3803C59.115 41.2978 59.1731 41.207 59.2195 41.1103C59.3365 40.8783 59.4795 40.6202 59.6295 40.3472L59.9835 39.7132C60.1535 39.3962 60.3525 39.0673 60.5745 38.7063L60.6595 38.5653C60.7035 38.4903 60.7475 38.4163 60.7845 38.3653C61.0715 37.9083 61.3715 37.4513 61.6985 36.9943C61.7185 36.9683 61.8264 36.8243 61.8494 36.8013C62.1374 36.4203 62.4265 36.0403 62.8045 35.5943C62.8135 35.5833 62.8995 35.4763 62.9044 35.4653L63.0455 35.3143C63.1315 35.2243 63.2155 35.1363 63.2924 35.0423C63.3044 35.0273 63.4334 34.8973 63.4474 34.8843C63.7222 34.603 64.0113 34.3359 64.3135 34.0842L64.4135 34.0043L64.5135 33.9223C64.8184 33.6777 65.1402 33.4548 65.4765 33.2553C65.6945 33.1323 65.9115 33.0112 66.1305 32.9152L66.1575 32.9022C66.5353 32.7248 66.9282 32.5813 67.3315 32.4733L67.4614 32.4433C67.824 32.3466 68.1964 32.2923 68.5714 32.2813H68.7104C69.046 32.2726 69.3814 32.3018 69.7104 32.3682C69.7264 32.3682 69.8575 32.4133 69.8725 32.4173C70.2006 32.5026 70.5163 32.6303 70.8115 32.7973L78.2965 37.0272L78.3645 37.0662C78.5103 37.1511 78.6166 37.2903 78.6601 37.4534C78.7036 37.6164 78.6807 37.7901 78.5965 37.9363C78.5122 38.0822 78.3739 38.189 78.2114 38.2336C78.0489 38.2782 77.8753 38.2568 77.7285 38.1742L77.6745 38.1423C77.5008 38.0527 77.321 37.9755 77.1365 37.9112C77.0866 37.9114 77.0369 37.9057 76.9884 37.8942C76.7564 37.8429 76.5191 37.8187 76.2815 37.8223H76.1435C75.87 37.8369 75.5987 37.8784 75.3335 37.9462L75.1995 37.9762C74.8772 38.0668 74.5621 38.1808 74.2565 38.3173C74.0745 38.4083 73.8815 38.5113 73.6645 38.6243C73.3925 38.7893 73.1225 38.9903 72.8515 39.1893C72.7863 39.24 72.7239 39.294 72.6645 39.3512C72.3965 39.5678 72.143 39.8017 71.9054 40.0513L71.8764 40.0792C71.8534 40.1062 71.8195 40.1492 71.8064 40.1612C71.6194 40.3612 71.4314 40.5743 71.2514 40.7763C70.9684 41.1103 70.6845 41.4683 70.3835 41.8763L69.8764 41.4883L70.2845 42.0183C69.9755 42.4383 69.6845 42.8733 69.4225 43.2983L68.6985 44.5102C68.6985 44.5152 68.6294 44.6273 68.6274 44.6333C68.5774 44.7113 68.5275 44.8002 68.4515 44.9332C68.2825 45.2402 68.1215 45.5483 67.9855 45.8103L67.9174 45.9412C67.8203 46.1339 67.699 46.3133 67.5564 46.4753C67.5484 46.4855 67.5398 46.4952 67.5304 46.5043C67.3644 46.6906 67.165 46.8443 66.9425 46.9573C66.8669 46.9904 66.7881 47.0158 66.7075 47.0333C66.6444 47.0544 66.5799 47.0708 66.5145 47.0823C66.2786 47.1189 66.0374 47.0699 65.8344 46.9443C65.7906 46.922 65.7497 46.8944 65.7125 46.8623L64.0605 45.9323L63.8535 45.8592C63.7665 45.8312 63.6805 45.8022 63.6455 45.7913C63.5467 45.7791 63.4489 45.7608 63.3525 45.7363C63.2985 45.7303 63.2445 45.7212 63.1905 45.7132L62.8265 45.6702H62.6885C62.6112 45.665 62.5337 45.665 62.4565 45.6702C62.3855 45.6702 62.3155 45.6803 62.1635 45.6953C62.0572 45.701 61.9517 45.7168 61.8484 45.7423C61.7517 45.7579 61.6559 45.7789 61.5615 45.8053C61.4725 45.8313 61.3785 45.8583 61.2465 45.9053C61.1436 45.9366 61.0433 45.9757 60.9464 46.0223C60.7674 46.1003 60.5855 46.1803 60.4165 46.2703C60.008 46.511 59.6192 46.7835 59.2535 47.0853L58.8245 46.6063L59.1134 47.1933C58.7221 47.5193 58.3501 47.8679 57.9995 48.2373L57.8995 48.3373C57.5474 48.7175 57.2182 49.1182 56.9135 49.5373L56.8385 49.6373C56.5795 50.0083 56.3205 50.3903 56.0605 50.8303L55.8945 51.1303C55.6375 51.5713 55.4165 52.0303 55.2355 52.4123C55.2295 52.4283 55.1735 52.5583 55.1655 52.5743C54.9825 53.0133 54.8245 53.4403 54.6905 53.8793C54.6905 53.8923 54.6435 54.0273 54.6385 54.0393C54.6195 54.1063 54.5995 54.1723 54.5915 54.1903C54.4516 54.6604 54.3441 55.1395 54.2695 55.6243C54.2695 55.6413 54.2535 55.7793 54.2505 55.7963C54.1806 56.2409 54.1448 56.6902 54.1435 57.1402C54.1093 58.0793 54.3239 59.0108 54.7654 59.8403C56.5924 63.9403 61.6125 67.3783 64.4425 69.0643C64.5874 69.1508 64.6922 69.2912 64.734 69.4548C64.7758 69.6183 64.7511 69.7918 64.6655 69.9372C64.6092 70.0331 64.5288 70.1126 64.4323 70.1679C64.3359 70.2232 64.2266 70.2522 64.1155 70.2523C64.0034 70.2564 63.8922 70.2305 63.7934 70.1773ZM62.0724 44.4263C62.1773 44.4094 62.2833 44.4 62.3895 44.3982C62.5343 44.3892 62.6796 44.3892 62.8245 44.3982C62.8505 44.3982 62.9815 44.4093 63.0075 44.4123C63.0715 44.4123 63.1314 44.4203 63.1694 44.4263L63.5375 44.4773C63.5845 44.4818 63.6308 44.4919 63.6755 44.5073C63.739 44.5226 63.8035 44.5339 63.8685 44.5413C63.9955 44.5693 64.1215 44.6092 64.2785 44.6612C64.3373 44.6784 64.3947 44.6998 64.4505 44.7253C64.5516 44.7471 64.6483 44.786 64.7365 44.8403L66.4095 45.7963H66.4235C66.485 45.7571 66.5397 45.7081 66.5854 45.6513L66.6085 45.6272C66.6752 45.5493 66.732 45.4633 66.7775 45.3713L66.8525 45.2293C66.9935 44.9593 67.1575 44.6423 67.3645 44.2673C67.4245 44.1673 67.4835 44.0583 67.5945 43.8743L68.3354 42.6343C68.6244 42.1743 68.9275 41.7143 69.2195 41.3243C69.2693 41.2427 69.3241 41.1642 69.3835 41.0893C69.6725 40.6893 69.9765 40.3103 70.2885 39.9453C70.4885 39.7243 70.6805 39.5033 70.8725 39.2943C70.9064 39.2528 70.9428 39.2134 70.9815 39.1763C71.2425 38.9029 71.5204 38.6461 71.8135 38.4072C71.9027 38.3225 71.9965 38.2427 72.0945 38.1683C72.4156 37.9247 72.7494 37.6984 73.0945 37.4903C73.2945 37.3833 73.4945 37.2763 73.7055 37.1733C74.0892 37.0001 74.4857 36.8566 74.8914 36.7443L75.0375 36.7113L75.1055 36.6953L70.1814 33.9133C69.9582 33.7913 69.7212 33.6963 69.4755 33.6303C69.2337 33.5785 68.9865 33.5566 68.7395 33.5653H68.5994C68.3247 33.5747 68.052 33.6153 67.7865 33.6863L67.6274 33.7233C67.309 33.8112 66.9986 33.926 66.6995 34.0662L66.6575 34.0882C66.47 34.1738 66.2871 34.2689 66.1095 34.3733C65.8271 34.5423 65.5568 34.7308 65.3005 34.9372L65.1205 35.0813C64.8545 35.2983 64.6025 35.5393 64.2755 35.8633C64.1805 35.9763 64.0755 36.0852 63.9755 36.1962L63.7965 36.3963C63.7965 36.4023 63.7115 36.5033 63.7075 36.5093C63.4075 36.8563 63.1365 37.2163 62.9015 37.5213C62.8555 37.6021 62.7993 37.6767 62.7345 37.7432C62.4225 38.1802 62.1345 38.6163 61.8505 39.0683L61.7615 39.2153C61.7205 39.2863 61.6795 39.3563 61.6465 39.4053C61.4465 39.7263 61.2625 40.0343 61.0655 40.3993L60.7435 40.9783C60.6015 41.2343 60.4665 41.4783 60.3575 41.6953C60.2617 41.8923 60.14 42.0756 59.9955 42.2403C59.8463 42.4129 59.6683 42.5584 59.4695 42.6702C59.3692 42.7168 59.2647 42.7536 59.1575 42.7803L59.1345 42.7883C59.0367 42.8225 58.9328 42.8361 58.8295 42.828C58.7262 42.8199 58.6257 42.7903 58.5345 42.7413L57.4085 42.0933C57.2725 42.0109 57.1323 41.9358 56.9884 41.8682C56.9684 41.8622 56.8335 41.8083 56.8155 41.8003L56.4725 41.6612C56.4605 41.6612 56.3385 41.6222 56.3265 41.6182C56.2089 41.5788 56.0894 41.5455 55.9685 41.5183C55.9285 41.5063 55.8814 41.5023 55.7785 41.4853L54.9855 41.4063L54.6635 41.4332C54.5575 41.4442 54.4505 41.4543 54.3575 41.4722L53.6075 41.6813C53.5465 41.7063 53.4834 41.7313 53.4174 41.7543C53.3561 41.7851 53.2926 41.8115 53.2275 41.8332C53.101 41.8895 52.9796 41.9564 52.8645 42.0333C52.4653 42.2683 52.083 42.5309 51.7205 42.8193L51.5615 42.9412C51.1935 43.2456 50.8455 43.5733 50.5195 43.9223C50.4695 43.9723 50.4195 44.0222 50.3275 44.1272L50.1355 44.3153C49.8755 44.6243 49.6284 44.9343 49.3624 45.2923C49.3504 45.3123 49.2945 45.4003 49.2815 45.4183C49.0135 45.7853 48.7685 46.1643 48.5455 46.5383L48.4454 46.7123C48.4154 46.7593 48.3844 46.8123 48.3344 46.9043C48.1154 47.3043 47.8955 47.7133 47.7075 48.1293C47.6917 48.2054 47.6626 48.2782 47.6215 48.3443C47.4354 48.7823 47.2729 49.2299 47.1345 49.6853C47.0988 49.7736 47.07 49.8645 47.0485 49.9573C46.913 50.4085 46.8074 50.8681 46.7325 51.3332L46.6725 51.7493C46.6535 51.8893 46.6335 52.0313 46.6235 52.1893C46.5998 52.4265 46.5881 52.6648 46.5885 52.9032C46.5637 53.8427 46.7818 54.7727 47.2215 55.6033C48.6048 58.934 51.1466 61.6516 54.3774 63.2543L56.3665 64.4083C55.2458 63.2459 54.3227 61.9083 53.6335 60.4483C53.0952 59.4406 52.8321 58.309 52.8705 57.1673C52.8734 56.6275 52.9162 56.0887 52.9985 55.5553C52.9985 55.5363 53.0145 55.3963 53.0175 55.3793C53.1038 54.8667 53.2206 54.3598 53.3675 53.8613L53.4174 53.7042C53.4384 53.6332 53.4615 53.5613 53.4715 53.5343C53.6207 53.05 53.7946 52.5738 53.9925 52.1073C54.0086 52.061 54.0287 52.0161 54.0525 51.9733C54.2775 51.4823 54.5165 50.9913 54.7905 50.5213L54.9905 50.1643C55.2415 49.7423 55.5185 49.3333 55.8045 48.9253L55.9125 48.7813C56.2351 48.3371 56.5837 47.9123 56.9565 47.5093C56.9645 47.5003 57.0464 47.4092 57.0564 47.4032L57.1635 47.2883C57.5068 46.9307 57.8704 46.5931 58.2524 46.2772C58.3201 46.2105 58.3941 46.1506 58.4734 46.0983C58.8918 45.7561 59.3365 45.4474 59.8035 45.1753C60.0215 45.0593 60.2285 44.9673 60.4405 44.8753C60.5633 44.8166 60.6903 44.7671 60.8204 44.7273C60.9444 44.6773 61.0805 44.6373 61.2075 44.5993L61.3755 44.5553C61.4668 44.5324 61.5592 44.5144 61.6525 44.5013C61.7839 44.4709 61.9177 44.4514 62.0525 44.4433L62.0724 44.4263ZM58.6385 41.5993C58.6535 41.5923 58.7155 41.5733 58.7725 41.5573C58.7254 41.5651 58.6797 41.5792 58.6365 41.5993H58.6385Z" fill="#0C5AE5"/>
<path d="M45.9472 52.8841C45.9212 53.9139 46.1583 54.9334 46.6363 55.8461C48.0771 59.2969 50.7096 62.1154 54.0543 63.7881L64.1163 69.6231C60.9883 67.7591 56.0332 64.2611 54.1823 60.1101C53.7022 59.1987 53.4688 58.1775 53.5053 57.1481C53.5063 56.6648 53.5448 56.1824 53.6203 55.7051C53.6323 55.6291 53.6323 55.5391 53.6463 55.4631C53.7276 54.9758 53.8385 54.4939 53.9783 54.0201C54.0163 53.9201 54.0423 53.8031 54.0783 53.7011C54.2193 53.2411 54.3853 52.7941 54.5783 52.3341C54.6003 52.2986 54.6175 52.2602 54.6292 52.2201C54.8462 51.7481 55.0763 51.2751 55.3443 50.8201L55.5353 50.4751C55.7783 50.0671 56.0463 49.6751 56.3143 49.2881L56.4293 49.1351C56.7383 48.7113 57.0722 48.3063 57.4293 47.9221C57.4933 47.8581 57.5573 47.7811 57.6213 47.7221C57.9642 47.3658 58.3268 47.029 58.7073 46.7131C58.7592 46.6665 58.8147 46.624 58.8733 46.5861C59.2591 46.2696 59.669 45.9838 60.0992 45.7311C60.3162 45.6161 60.5202 45.5311 60.7252 45.4371C60.8328 45.3868 60.9438 45.344 61.0573 45.3091C61.1842 45.2581 61.3253 45.2201 61.4573 45.1821C61.5893 45.1441 61.6753 45.1311 61.7763 45.1181C61.9075 45.0875 62.0415 45.0704 62.1763 45.0671C62.2735 45.0516 62.3718 45.0429 62.4703 45.0411C62.5935 45.0348 62.717 45.0348 62.8403 45.0411C62.9403 45.0541 63.0323 45.0541 63.1213 45.0671C63.2483 45.0801 63.3633 45.1061 63.4913 45.1181C63.575 45.1422 63.6606 45.1593 63.7473 45.1691C63.8635 45.1966 63.9783 45.23 64.0913 45.2691C64.1683 45.2951 64.2452 45.3201 64.3092 45.3461C64.3542 45.355 64.3973 45.3719 64.4363 45.3961L58.8953 42.1961L58.8693 42.1841L57.7583 41.5451C57.6053 41.4561 57.4523 41.3661 57.2863 41.2891C57.2353 41.2641 57.1713 41.2511 57.1203 41.2251C57.0053 41.1741 56.8903 41.1251 56.7633 41.0721C56.6863 41.0461 56.6222 41.0341 56.5452 41.0081C56.4284 40.9674 56.3092 40.934 56.1883 40.9081C56.1045 40.884 56.0189 40.8669 55.9323 40.8571C55.8182 40.8311 55.7033 40.8181 55.5753 40.7931C55.4863 40.7931 55.3962 40.7801 55.2942 40.7801C55.1672 40.7801 55.0523 40.7681 54.9233 40.7681C54.8233 40.7801 54.7233 40.7801 54.6173 40.7941C54.4888 40.8046 54.361 40.8216 54.2343 40.8451C54.1193 40.8711 54.0173 40.8961 53.9153 40.9221C53.7743 40.9601 53.6473 40.9981 53.5063 41.0371C53.4063 41.0751 53.2893 41.1261 53.1743 41.1641C53.117 41.1949 53.0571 41.2207 52.9953 41.2411C52.8442 41.3047 52.699 41.3813 52.5613 41.4701C52.1346 41.7234 51.7253 42.0051 51.3362 42.3131C51.2722 42.3641 51.2212 42.4021 51.1702 42.4401C50.787 42.7571 50.4246 43.0985 50.0852 43.4621C50.0179 43.5255 49.9538 43.5922 49.8932 43.6621L49.6633 43.8911C49.3953 44.2101 49.1403 44.5301 48.8843 44.8751C48.8479 44.924 48.8145 44.9751 48.7843 45.0281C48.5033 45.4111 48.2473 45.8071 48.0053 46.2151C47.9413 46.3301 47.8643 46.4321 47.8053 46.5601C47.5633 47.0071 47.3203 47.4541 47.1163 47.9141C47.1163 47.9261 47.1043 47.9521 47.1043 47.9651C47.082 48.0008 47.0648 48.0396 47.0533 48.0801C46.862 48.5261 46.6951 48.982 46.5533 49.4461C46.5125 49.55 46.4791 49.6565 46.4533 49.7651C46.3129 50.2388 46.202 50.7207 46.1213 51.2081C46.1093 51.2851 46.0953 51.3611 46.0833 51.4501C46.0573 51.6681 46.0193 51.8971 46.0063 52.1141C45.9603 52.3621 45.9472 52.6301 45.9472 52.8841Z" fill="#D4E6FC"/>
<path d="M63.7934 70.1772L53.7325 64.3412C50.2889 62.6153 47.5752 59.7161 46.0805 56.1662C45.5467 55.159 45.2802 54.0317 45.3064 52.8922V52.8852C45.3064 52.6092 45.3205 52.3192 45.3455 52.0652C45.3545 51.8992 45.3775 51.7282 45.4015 51.5582L45.4675 51.1002C45.5483 50.6004 45.6616 50.1063 45.8064 49.6212C45.8347 49.4953 45.8731 49.3718 45.9215 49.2522C46.0624 48.7845 46.2293 48.3252 46.4215 47.8762C46.4379 47.8243 46.4576 47.7736 46.4805 47.7242C46.4895 47.6982 46.4975 47.6722 46.5085 47.6472C46.7155 47.1812 46.9615 46.7282 47.2085 46.2652C47.2555 46.1732 47.3085 46.0912 47.3565 46.0112L47.4345 45.8832C47.6875 45.4562 47.9545 45.0432 48.2555 44.6312C48.2665 44.6102 48.3375 44.5072 48.3555 44.4872C48.6185 44.1322 48.8804 43.8022 49.1954 43.4322L49.3855 43.2472C49.4635 43.1552 49.5395 43.0762 49.6015 43.0152C49.973 42.6181 50.3705 42.2463 50.7915 41.9022L50.9285 41.7962C51.3324 41.4748 51.7581 41.1818 52.2025 40.9192C52.4008 40.7926 52.6115 40.6867 52.8315 40.6032C52.8713 40.5798 52.9136 40.5607 52.9575 40.5462L54.0945 40.2062C54.2445 40.1762 54.3945 40.1602 54.5215 40.1472C54.5875 40.1392 54.6535 40.1352 54.7215 40.1312L54.9115 40.1172L55.2825 40.1292C55.3505 40.1292 55.4155 40.1292 55.4825 40.1382L55.8364 40.1792C55.9144 40.1912 55.9885 40.2042 56.0275 40.2132C56.1219 40.2238 56.2152 40.2425 56.3064 40.2692C56.4787 40.3076 56.6486 40.3557 56.8155 40.4132C56.8385 40.4202 56.9705 40.4602 56.9935 40.4692L57.3935 40.6402C57.4165 40.6482 57.5214 40.6882 57.5444 40.6992C57.7244 40.7812 57.8895 40.8772 58.0665 40.9802L64.7015 44.8122C64.7275 44.8259 64.7529 44.8409 64.7775 44.8572C64.9158 44.949 65.013 45.091 65.0485 45.2532C65.084 45.4154 65.0549 45.585 64.9675 45.7262C64.8802 45.8674 64.7413 45.969 64.5803 46.0093C64.4193 46.0497 64.249 46.0256 64.1055 45.9422L64.0704 45.9232L64.0635 45.9332L63.8565 45.8602C63.7695 45.8322 63.6835 45.8032 63.6485 45.7922C63.5497 45.7802 63.4518 45.7618 63.3555 45.7372C63.3015 45.7312 63.2475 45.7222 63.1935 45.7142L62.8295 45.6712H62.6915C62.6142 45.666 62.5367 45.666 62.4594 45.6712C62.3885 45.6712 62.3185 45.6812 62.1665 45.6962C62.0602 45.7019 61.9548 45.7177 61.8515 45.7432C61.7547 45.7588 61.6589 45.7798 61.5645 45.8062C61.4755 45.8322 61.3815 45.8592 61.2495 45.9062C61.1466 45.9375 61.0463 45.9766 60.9495 46.0232C60.7705 46.1012 60.5884 46.1812 60.4194 46.2712C60.011 46.512 59.6222 46.7845 59.2565 47.0862L58.8275 46.6072L59.1165 47.1942C58.7251 47.5202 58.3531 47.8688 58.0024 48.2382L57.9025 48.3382C57.5504 48.7184 57.2212 49.1191 56.9165 49.5382L56.8415 49.6382C56.5825 50.0092 56.3235 50.3912 56.0635 50.8312L55.8975 51.1312C55.6405 51.5722 55.4194 52.0312 55.2384 52.4132C55.2324 52.4282 55.1764 52.5592 55.1684 52.5752C54.9854 53.0142 54.8275 53.4412 54.6935 53.8802C54.6935 53.8932 54.6464 54.0282 54.6414 54.0402C54.6224 54.1072 54.6025 54.1732 54.5945 54.1922C54.4546 54.6623 54.3471 55.1414 54.2725 55.6262C54.2725 55.6432 54.2565 55.7812 54.2535 55.7982C54.1837 56.2425 54.1479 56.6914 54.1465 57.1412C54.1123 58.0803 54.3269 59.0117 54.7685 59.8412C56.5955 63.9412 61.6154 67.3792 64.4454 69.0652C64.5904 69.1517 64.6952 69.2921 64.737 69.4557C64.7788 69.6193 64.7541 69.7927 64.6684 69.9382C64.6122 70.034 64.5318 70.1135 64.4353 70.1688C64.3389 70.224 64.2296 70.2531 64.1185 70.2532C64.0053 70.2576 63.893 70.2313 63.7934 70.1772ZM57.4095 42.0772C57.2735 41.9948 57.1333 41.9197 56.9895 41.8522C56.9695 41.8462 56.8345 41.7922 56.8165 41.7842L56.4734 41.6452C56.4614 41.6452 56.3395 41.6062 56.3275 41.6012C56.2102 41.5619 56.091 41.5285 55.9705 41.5012C55.9295 41.4892 55.8814 41.4852 55.7785 41.4682L54.9855 41.3902L54.6635 41.4172C54.5575 41.4282 54.4505 41.4382 54.3575 41.4562L53.6075 41.6652C53.5465 41.6902 53.4834 41.7152 53.4174 41.7382C53.3561 41.769 53.2926 41.7954 53.2275 41.8172C53.101 41.8734 52.9796 41.9403 52.8645 42.0172C52.4652 42.2521 52.083 42.5148 51.7205 42.8032L51.5615 42.9242C51.1937 43.2291 50.8456 43.5571 50.5195 43.9062C50.4695 43.9562 50.4195 44.0062 50.3275 44.1112L50.1355 44.2992C49.8755 44.6082 49.6284 44.9182 49.3624 45.2762C49.3504 45.2962 49.2945 45.3842 49.2815 45.4022C49.0135 45.7692 48.7685 46.1482 48.5455 46.5222L48.4454 46.6962C48.4154 46.7432 48.3844 46.7962 48.3344 46.8882C48.1154 47.2882 47.8955 47.6972 47.7075 48.1132C47.6917 48.1894 47.6626 48.2622 47.6215 48.3282C47.4355 48.7662 47.2729 49.2139 47.1345 49.6692C47.0988 49.7575 47.0701 49.8484 47.0485 49.9412C46.913 50.3924 46.8074 50.8521 46.7325 51.3172L46.6725 51.7342C46.6535 51.8742 46.6335 52.0162 46.6235 52.1742C46.5998 52.4111 46.5881 52.6491 46.5885 52.8872C46.5638 53.8266 46.7819 54.7566 47.2215 55.5872C48.6048 58.9179 51.1466 61.6355 54.3774 63.2382L56.3665 64.3922C55.2458 63.2299 54.3227 61.8922 53.6335 60.4322C53.0948 59.4244 52.8316 58.2923 52.8705 57.1502C52.8734 56.6104 52.9162 56.0716 52.9985 55.5382C52.9985 55.5192 53.0145 55.3802 53.0175 55.3622C53.1038 54.8497 53.2206 54.3427 53.3675 53.8442L53.4174 53.6872C53.4384 53.6152 53.4615 53.5442 53.4715 53.5172C53.6208 53.033 53.7947 52.5567 53.9925 52.0902C54.0086 52.0439 54.0287 51.9991 54.0525 51.9562C54.2775 51.4652 54.5165 50.9742 54.7905 50.5042L54.9905 50.1472C55.2415 49.7252 55.5185 49.3162 55.8045 48.9082L55.9125 48.7642C56.2351 48.32 56.5837 47.8953 56.9565 47.4922C56.9645 47.4832 57.0464 47.3922 57.0564 47.3862L57.1635 47.2712C57.5068 46.9136 57.8704 46.576 58.2524 46.2602C58.32 46.1934 58.3941 46.1334 58.4734 46.0812C58.8918 45.739 59.3365 45.4304 59.8035 45.1582C60.0215 45.0422 60.2285 44.9512 60.4405 44.8582C60.5633 44.7995 60.6903 44.75 60.8204 44.7102C60.9444 44.6602 61.0805 44.6202 61.2075 44.5822L61.3755 44.5382C61.4575 44.5192 61.5365 44.5022 61.5965 44.4922L57.4095 42.0772Z" fill="#0C5AE5"/>
</g>
<defs>
<clipPath id="clip0_9_36001">
<rect width="81" height="95" fill="white"/>
</clipPath>
</defs>
</svg>
