<svg width="113" height="95" viewBox="0 0 113 95" fill="none" xmlns="http://www.w3.org/2000/svg">
<path d="M112.999 77.167C112.999 64.3597 103.842 49.1236 92.4724 42.8778C88.1745 26.9082 76.571 10.9355 62.8914 3.6974C56.4613 0.295818 50.504 -0.664267 45.5332 0.430249L45.5288 0.405015L35.682 2.62056C35.682 2.62056 29.4759 10.464 28.7071 12.5065C26.5477 11.0194 23.4194 9.4212 21.2588 9.81255L10.7031 11.8324C10.7031 11.8324 17.5428 53.4777 29.0902 59.5878C34.0041 62.1884 96.4699 94.0998 96.4699 94.0998L103.539 91.7858L103.516 91.7757C109.224 90.6041 112.999 85.3822 112.999 77.167Z" fill="url(#paint0_linear_9_34112)"/>
<path d="M84.3372 45.2783C79.7925 29.3087 67.513 13.336 53.0394 6.09663C38.5657 -1.14271 26.2887 2.55237 21.7415 13.9728C9.71193 8.18654 0.0234375 13.7323 0.0234375 26.5396C0.0234375 39.4907 9.92713 54.944 22.1442 61.0516C27.3441 63.6528 78.7352 89.3543 83.9351 91.9543C96.1521 98.0631 106.056 92.5173 106.056 79.5674C106.055 66.7589 96.3668 51.5228 84.3372 45.2783Z" fill="#DFF1FA"/>
<path d="M45.4477 35.5172L37.3057 52.3377L33.0068 50.1108L24.8906 24.869L29.5937 27.3048L35.3189 45.298L41.123 33.2764L45.4477 35.5172ZM55.1485 40.5425C56.7564 41.3611 58.222 42.4347 59.4885 43.7219C60.6703 44.9126 61.6304 46.3056 62.3234 47.8351C62.9761 49.2704 63.3143 50.8293 63.3156 52.4069C63.3992 53.6623 63.0479 54.9081 62.3212 55.9337C61.9751 56.3406 61.5377 56.6593 61.0449 56.8638C60.5521 57.0683 60.0181 57.1527 59.4865 57.11C57.9601 56.9962 56.4781 56.5425 55.1485 55.782L51.3597 53.8194V59.6204L47.0051 57.3651V36.3273L55.1485 40.5425ZM54.9068 51.6876C55.3382 51.9835 55.8247 52.1889 56.3372 52.2916C56.8497 52.3943 57.3777 52.3921 57.8893 52.2852C58.2606 52.0744 58.558 51.7537 58.7408 51.3671C58.9237 50.9804 58.9831 50.5466 58.9109 50.1248C58.9189 48.961 58.5614 47.8242 57.8893 46.8755C57.1171 45.8093 56.092 44.9532 54.9068 44.3845L51.3597 42.547V49.8487L54.9068 51.6876ZM72.857 71.1137C71.3164 70.3073 69.8702 69.3313 68.5449 68.204C67.2941 67.1796 66.171 66.0076 65.2 64.7135L66.678 61.8123C67.5266 62.9373 68.49 63.9703 69.5526 64.8946C70.5655 65.8024 71.6844 66.5837 72.8849 67.2213C73.7031 67.7464 74.6541 68.0252 75.6255 68.0244C76.169 67.9853 76.5105 67.5351 76.5126 66.8453C76.4966 66.2969 76.3135 65.7666 75.9879 65.3259C75.6032 64.7747 75.152 64.2735 74.6444 63.8336C74.098 63.35 73.359 62.7468 72.4271 62.0241C71.235 61.1057 70.0619 60.1184 68.9079 59.062C67.9692 58.1751 67.1757 57.1453 66.5567 56.0105C65.8992 54.8267 65.5611 53.4913 65.5756 52.1363C65.5138 51.1057 65.8292 50.088 66.4627 49.2742C66.8041 48.9171 67.2228 48.6436 67.6864 48.4748C68.15 48.306 68.6461 48.2464 69.1364 48.3006C70.6744 48.4436 72.1637 48.917 73.503 49.6887C74.7484 50.3406 75.9273 51.1131 77.0228 51.9952C78.126 52.8671 79.1347 53.8528 80.0324 54.9363L78.6895 57.9375C77.2382 56.1726 75.47 54.6961 73.4764 53.5845C72.6762 53.0595 71.7312 52.8012 70.7761 52.8464C70.2298 52.931 69.8975 53.4217 69.9017 54.1367C69.9446 54.952 70.3066 55.7174 70.9092 56.2663C71.871 57.2164 72.8994 58.0963 73.9865 58.8992C75.1795 59.818 76.353 60.8064 77.507 61.8641C78.4402 62.7445 79.233 63.7635 79.8575 64.8855C80.5173 66.0575 80.8559 67.3839 80.8386 68.7297C80.8987 69.7502 80.5785 70.7565 79.9398 71.5533C79.592 71.9085 79.168 72.1797 78.7001 72.3461C78.2322 72.5124 77.7328 72.5697 77.2395 72.5136C75.6971 72.3652 74.2039 71.888 72.8604 71.1137H72.857Z" fill="#333C5E"/>
<defs>
<linearGradient id="paint0_linear_9_34112" x1="10.7031" y1="47.0499" x2="112.999" y2="47.0499" gradientUnits="userSpaceOnUse">
<stop stop-color="#5E98F7"/>
<stop offset="1" stop-color="#4670BA"/>
</linearGradient>
</defs>
</svg>
