<svg width="1440" height="409" viewBox="0 0 1440 409" fill="none" xmlns="http://www.w3.org/2000/svg">
<g opacity="0.24">
<path d="M337.554 232.335C337.554 199.829 314.245 161.155 285.305 145.303C274.365 104.771 244.831 64.2309 210.008 45.8568C193.645 37.2218 178.48 34.789 165.83 37.565L165.821 37.5027L140.759 43.1252C140.759 43.1252 124.962 63.0314 123.007 68.216C117.511 64.4404 109.545 60.3862 104.041 61.3774L77.1719 66.4963C77.1719 66.4963 94.5841 172.198 123.974 187.707C136.486 194.306 295.481 275.301 295.481 275.301L313.486 269.429L313.424 269.406C327.945 266.443 337.554 253.191 337.554 232.335Z" fill="url(#paint0_linear_9_54327)"/>
<path d="M264.612 151.399C253.039 110.868 221.79 70.3275 184.947 51.9535C148.104 33.5795 116.858 42.9609 105.281 71.9448C74.6637 57.2585 50 71.3353 50 103.842C50 136.715 75.2096 175.933 106.307 191.439C119.543 198.041 250.353 263.273 263.588 269.875C294.683 285.381 319.893 271.304 319.893 238.434C319.893 205.924 295.228 167.251 264.612 151.399Z" fill="url(#paint1_linear_9_54327)"/>
</g>
<g opacity="0.24">
<path d="M1137.55 318.731C1137.55 289.968 1158.18 255.748 1183.79 241.72C1193.47 205.856 1219.6 169.984 1250.41 153.726C1264.89 146.085 1278.31 143.93 1289.5 146.389L1289.51 146.334L1311.69 151.309C1311.69 151.309 1325.67 168.924 1327.4 173.514C1332.26 170.173 1339.31 166.586 1344.18 167.463L1367.95 171.995C1367.95 171.995 1352.54 265.526 1326.54 279.249C1315.47 285.088 1174.78 356.757 1174.78 356.757L1158.85 351.562L1158.9 351.541C1146.06 348.911 1137.55 337.185 1137.55 318.731Z" fill="url(#paint2_linear_9_54327)"/>
<path d="M1202.1 247.115C1212.34 211.25 1239.99 175.378 1272.59 159.12C1305.19 142.862 1332.84 151.16 1343.09 176.807C1370.18 163.812 1392 176.268 1392 205.03C1392 234.118 1369.7 268.82 1342.18 282.541C1330.47 288.383 1214.72 346.103 1203.01 351.944C1175.49 365.665 1153.19 353.209 1153.19 324.123C1153.19 295.362 1175.01 261.142 1202.1 247.115Z" fill="url(#paint3_linear_9_54327)"/>
</g>
<defs>
<linearGradient id="paint0_linear_9_54327" x1="130.55" y1="-84.1343" x2="245.8" y2="131.836" gradientUnits="userSpaceOnUse">
<stop stop-color="white"/>
<stop offset="1" stop-color="#B6D4FF"/>
</linearGradient>
<linearGradient id="paint1_linear_9_54327" x1="184.946" y1="42.5112" x2="184.946" y2="276.181" gradientUnits="userSpaceOnUse">
<stop stop-color="white"/>
<stop offset="1" stop-color="#B6D4FF"/>
</linearGradient>
<linearGradient id="paint2_linear_9_54327" x1="1320.72" y1="38.6981" x2="1218.74" y2="229.803" gradientUnits="userSpaceOnUse">
<stop stop-color="white"/>
<stop offset="1" stop-color="#B6D4FF"/>
</linearGradient>
<linearGradient id="paint3_linear_9_54327" x1="1272.59" y1="150.764" x2="1272.59" y2="357.524" gradientUnits="userSpaceOnUse">
<stop stop-color="white"/>
<stop offset="1" stop-color="#B6D4FF"/>
</linearGradient>
</defs>
</svg>
