<svg width="114" height="94" viewBox="0 0 114 94" fill="none" xmlns="http://www.w3.org/2000/svg">
<path d="M82.0595 53.6784C84.8513 43.7661 80.2853 41.984 75.9116 44.0711L32.7185 64.0125C31.552 64.5689 31.4574 62.6339 32.8982 61.6163L76.6115 40.1065C81.5527 37.4196 87.1615 30.124 88.6236 23.4866C88.6236 23.4866 91.2041 15.3257 90.8644 14.5012C89.2675 8.36986 85.7309 3.82671 80.8008 1.57484C75.8706 -0.677032 69.822 -0.509154 63.5921 2.04775C57.3622 4.60465 51.2963 9.41343 46.3377 15.7253C41.4119 21.9635 37.9334 29.2181 36.1535 36.9648C24.6719 34.1911 13.5504 50.7156 16.7639 61.3917C2.81286 69.0372 -1.45678 85.2622 0.416756 92.9487C0.433309 93.271 0.740705 93.4547 1.32397 93.1764L81.2311 55.0625C81.4735 54.919 81.6762 54.7172 81.8208 54.4755C81.9655 54.2338 82.0476 53.9599 82.0595 53.6784Z" fill="#208DF3"/>
<path d="M92.9115 16.8131C91.942 17.2757 91.4423 17.1985 91.2303 17.9307L90.3396 24.9866C89.3725 30.5001 91.5259 33.8932 95.6615 32.238L103.449 29.1554C104.418 28.6927 104.51 30.5434 103.313 31.4301L95.3297 35.554C86.6651 40.9499 84.7773 52.9021 84.7773 52.9021C84.8073 53.5193 84.823 53.8275 85.3078 53.5965L112.698 40.5322L113.394 39.5682C114.039 35.7196 113.981 31.7863 113.225 27.9581C112.623 24.7402 111.189 21.736 109.066 19.2446C107.185 17.0974 104.608 15.683 101.787 15.2509C98.7385 14.8704 95.6465 15.4146 92.9115 16.8131Z" fill="#40ADFA"/>
</svg>
