<svg width="418" height="409" viewBox="0 0 418 409" fill="none" xmlns="http://www.w3.org/2000/svg">
    <style>
        .animate-globe {
            animation: rotate 8s linear infinite;
            }

            @keyframes rotate {
            from {
                transform: rotate(0deg);
            }
            to {
                transform: rotate(360deg);
            }
            }
    </style>
<g filter="url(#filter0_d_9_32815)">
<path opacity="0.15" d="M208.982 400.48C322.19 400.48 413.964 347.495 413.964 282.134C413.964 216.773 322.19 163.787 208.982 163.787C95.7736 163.787 4 216.773 4 282.134C4 347.495 95.7736 400.48 208.982 400.48Z" fill="#030C60"/>
<path d="M336.543 296.376C266.092 337.048 151.868 337.048 81.4172 296.376C46.299 276.101 28.6962 249.547 28.588 222.972H28.5781V272.126V274.17H28.6623C29.537 300.14 47.0917 325.957 81.4172 345.775C151.868 386.447 266.092 386.447 336.543 345.775C370.874 325.958 388.419 300.14 389.297 274.17H389.381V222.727C389.381 249.383 371.768 276.038 336.543 296.376Z" fill="#333C5E"/>
<g style="mix-blend-mode:soft-light">
<path d="M336.543 313.078C266.091 353.75 151.868 353.75 81.4161 313.078C47.0917 293.26 29.5403 267.443 28.6623 241.473H28.5781V273.426V275.469V260.394H28.588C28.6973 286.962 46.3001 313.522 81.4161 333.797C151.868 374.469 266.091 374.469 336.543 333.797C371.768 313.46 389.381 286.804 389.381 260.148V241.473H389.297C388.419 267.443 370.869 293.261 336.543 313.078Z" fill="white"/>
</g>
<path d="M389.368 222.426C389.234 195.871 371.634 169.339 336.54 149.078C266.089 108.406 151.865 108.406 81.4146 149.078C46.081 169.478 28.4782 196.235 28.5864 222.972C28.6958 249.547 46.2986 276.101 81.4157 296.376C151.866 337.048 266.091 337.048 336.542 296.376C371.767 276.04 389.38 249.383 389.38 222.727C389.38 222.628 389.368 222.527 389.368 222.426Z" fill="#333C5E"/>
<g style="mix-blend-mode:overlay">
<path d="M361.119 222.473C361.01 200.077 346.163 177.702 316.568 160.614C257.151 126.311 160.818 126.31 101.398 160.614C71.5988 177.819 56.7523 200.385 56.8442 222.935C56.9349 245.348 71.7814 267.742 101.399 284.841C160.816 319.146 257.148 319.146 316.569 284.841C346.277 267.689 361.131 245.208 361.131 222.727C361.128 222.643 361.12 222.558 361.119 222.473Z" fill="white"/>
</g>
<g style="mix-blend-mode:overlay">
<path d="M336.357 318.503C335.778 318.837 335.171 319.145 334.586 319.475V331.057C335.171 330.729 335.778 330.42 336.357 330.087C347.987 323.567 358.578 315.349 367.782 305.703V294.085C358.579 303.741 347.987 311.97 336.357 318.503Z" fill="white"/>
<path d="M296.797 335.77V347.359C308.233 343.718 319.338 339.109 329.992 333.583V321.994C319.338 327.52 308.233 332.129 296.797 335.77Z" fill="white"/>
<path d="M259.008 344.896V356.485C270.224 354.635 281.311 352.073 292.203 348.816V337.226C281.311 340.483 270.224 343.045 259.008 344.896Z" fill="white"/>
</g>
<g style="mix-blend-mode:overlay">
<path d="M83.9561 319.042C84.5356 319.377 85.1413 319.685 85.7262 320.014V331.597C85.1413 331.269 84.5356 330.96 83.9561 330.626C72.3261 324.105 61.7344 315.885 52.5312 306.237V294.624C61.7342 304.28 72.3256 312.51 83.9561 319.042Z" fill="white"/>
<path d="M123.515 336.307V347.897C112.079 344.255 100.974 339.646 90.3203 334.12V322.533C100.974 328.059 112.079 332.666 123.515 336.307Z" fill="white"/>
<path d="M161.298 345.434V357.024C150.081 355.173 138.993 352.611 128.102 349.354V337.765C138.993 341.022 150.081 343.584 161.298 345.434Z" fill="white"/>
</g>
<g style="mix-blend-mode:overlay">
<path d="M315.463 222.664V222.73C315.463 238.463 305.065 254.196 284.281 266.201C265.344 277.123 241.05 283.082 216.264 284.055H216.165C215.477 284.088 214.788 284.11 214.099 284.132C212.404 284.175 210.699 284.197 208.993 284.197C207.288 284.197 205.582 284.175 203.887 284.132C203.122 284.11 202.367 284.088 201.602 284.044H201.493C176.805 283.038 152.577 277.091 133.695 266.19C112.976 254.229 102.578 238.561 102.523 222.872V222.719C102.523 206.996 112.91 191.263 133.695 179.258C175.274 155.249 242.69 155.249 284.281 179.258C304.989 191.219 315.375 206.876 315.452 222.555C315.451 222.591 315.454 222.628 315.463 222.664Z" fill="white"/>
</g>
<path style="mix-blend-mode:lighten" opacity="0.6" d="M304.522 54.2095V234.68C304.522 241.768 295.2 248.855 276.565 254.263C259.587 259.183 237.806 261.868 215.583 262.305H215.495C214.847 262.305 214.229 262.305 213.641 262.325C212.122 262.355 210.593 262.37 209.063 262.37C207.534 262.37 206.002 262.355 204.486 262.325C203.819 262.315 203.133 262.305 202.437 262.3H202.338C180.204 261.847 158.481 259.167 141.548 254.257C122.973 248.869 113.651 241.811 113.602 234.743V54.2095H304.522Z" fill="url(#paint0_linear_9_32815)"/>
<g style="mix-blend-mode:overlay">
<path d="M208.989 139.078C184.93 139.078 160.871 133.791 142.556 123.216C124.726 112.922 114.906 99.2081 114.906 84.6011C114.906 69.994 124.726 56.2835 142.556 45.9853C179.183 24.8368 238.791 24.8357 275.422 45.9853C293.252 56.2857 303.072 69.9995 303.072 84.6065C303.072 99.2136 293.252 112.924 275.422 123.221C257.106 133.796 233.048 139.078 208.989 139.078ZM208.989 31.0109C185.093 31.0109 161.198 36.259 143.007 46.766C125.468 56.8914 115.808 70.3286 115.808 84.5956C115.808 98.8626 125.468 112.304 143.007 122.425C179.391 143.431 238.591 143.431 274.974 122.425C292.513 112.299 302.173 98.8626 302.173 84.5956C302.173 70.3286 292.513 56.887 274.974 46.766C256.779 36.2688 232.879 31.0164 208.988 31.0164L208.989 31.0109Z" fill="url(#paint1_linear_9_32815)"/>
</g>
<g style="mix-blend-mode:overlay">
<path d="M208.981 237.076C196.382 237.076 183.784 234.308 174.195 228.767C164.792 223.34 159.617 216.084 159.617 208.351C159.617 200.618 164.794 193.362 174.194 187.936C193.375 176.862 224.585 176.862 243.765 187.936C253.168 193.362 258.343 200.619 258.343 208.352C258.343 216.085 253.166 223.34 243.766 228.767C234.175 234.308 221.578 237.076 208.981 237.076ZM174.77 188.934C165.741 194.149 160.768 201.044 160.768 208.353C160.768 215.662 165.741 222.559 174.77 227.773C193.633 238.662 224.327 238.664 243.19 227.773C252.219 222.559 257.191 215.663 257.191 208.354C257.191 201.045 252.222 194.15 243.19 188.934C224.328 178.045 193.633 178.045 174.77 188.934Z" fill="url(#paint2_linear_9_32815)"/>
</g>
<g style="mix-blend-mode:overlay">
<path d="M208.997 228.85C190.41 228.85 171.833 224.767 157.687 216.605C143.873 208.624 136.266 197.991 136.266 186.647C136.266 175.304 143.873 164.671 157.686 156.69C185.979 140.355 232.014 140.355 260.305 156.69C274.12 164.665 281.727 175.304 281.727 186.647C281.727 197.991 274.12 208.624 260.306 216.605C246.16 224.767 227.578 228.85 208.997 228.85ZM158.263 157.685C144.82 165.448 137.417 175.73 137.417 186.643C137.417 197.556 144.82 207.842 158.263 215.602C186.238 231.754 231.755 231.754 259.725 215.602C273.173 207.84 280.57 197.562 280.57 186.645C280.57 175.728 273.167 165.448 259.725 157.685C231.75 141.534 186.232 141.533 158.263 157.685Z" fill="url(#paint3_linear_9_32815)"/>
</g>
<g style="mix-blend-mode:overlay">
<path d="M208.991 191.297C178.236 191.297 147.483 184.538 124.07 171.021C101.278 157.862 88.7266 140.332 88.7266 121.66C88.7266 102.988 101.278 85.4572 124.07 72.2988C170.896 45.2649 247.085 45.2638 293.91 72.2988C316.702 85.4583 329.254 102.988 329.254 121.661C329.254 140.334 316.702 157.863 293.911 171.021C270.498 184.538 239.744 191.297 208.991 191.297ZM208.991 53.1577C178.445 53.1577 147.9 59.8697 124.647 73.296C102.226 86.24 89.8789 103.416 89.8789 121.66C89.8789 139.903 102.226 157.084 124.647 170.024C171.155 196.875 246.828 196.875 293.336 170.024C315.756 157.079 328.104 139.905 328.104 121.661C328.104 103.418 315.756 86.2368 293.336 73.296C270.08 59.8708 239.535 53.1577 208.99 53.1577H208.991Z" fill="url(#paint4_linear_9_32815)"/>
</g>
<path d="M267.705 177.955C300.466 145.194 300.466 92.079 267.705 59.3183C234.945 26.5577 181.829 26.5577 149.068 59.3183C116.308 92.079 116.308 145.194 149.068 177.955C181.829 210.716 234.945 210.716 267.705 177.955Z" fill="url(#paint5_linear_9_32815)"/>
<path style="mix-blend-mode:soft-light" d="M142.528 123.224C160.843 133.799 184.902 139.086 208.961 139.086C233.02 139.086 257.078 133.799 275.394 123.224C281.566 119.764 287.181 115.392 292.048 110.255C292.08 109.759 292.124 109.271 292.147 108.768C287.191 114.228 281.381 118.847 274.944 122.445C238.562 143.45 179.361 143.45 142.977 122.445C135.971 118.564 129.724 113.447 124.539 107.342C124.554 107.816 124.553 108.292 124.575 108.764C129.697 114.566 135.767 119.456 142.528 123.224Z" fill="url(#paint6_linear_9_32815)"/>
<path d="M153.922 182.442C154.643 183.06 155.376 183.665 156.12 184.257C190.092 193.487 225.887 193.672 259.953 184.793C260.726 184.189 261.495 183.58 262.249 182.95C228.214 192.74 187.723 192.579 153.922 182.442Z" fill="url(#paint7_linear_9_32815)"/>
<g style="mix-blend-mode:overlay" opacity="0.68">
<path d="M181.643 54.2891C181.097 54.9702 180.6 54.5766 180.555 54.3678C180.542 54.2588 180.542 54.1487 180.555 54.0398C180.293 53.9151 180.213 54.2923 179.985 54.2792C179.99 54.2641 179.998 54.25 180.008 54.2377C180.019 54.225 180.03 54.2115 180.039 54.1972C180.051 54.1844 180.062 54.1705 180.071 54.1557C180.081 54.1414 180.091 54.1283 180.102 54.1152C180.113 54.1021 180.123 54.0879 180.132 54.0748C180.142 54.0611 180.153 54.048 180.164 54.0354C180.173 54.0223 180.183 54.0091 180.194 53.9949L180.223 53.9556C179.975 53.8637 179.797 54.0649 179.579 54.1076C179.718 53.878 179.647 53.8583 179.36 53.9195C179.074 53.9807 179.002 53.9643 178.93 53.937C179.001 53.7685 179.09 53.608 179.194 53.4581C179.592 53.422 179.592 53.422 179.632 53.4647C179.925 53.3039 179.925 53.3039 179.943 53.305C179.944 53.2894 179.944 53.2737 179.943 53.258C179.907 53.2252 179.856 53.223 179.82 53.1891C179.84 53.1356 179.867 53.1126 180.016 52.9912C179.714 53.152 179.66 53.1279 179.598 53.023C179.573 52.9781 179.535 52.9422 179.488 52.9204C179.442 52.8986 179.39 52.892 179.34 52.9016L179.389 52.8447L179.44 52.7857C179.457 52.7671 179.473 52.7463 179.491 52.7277L179.541 52.6698L179.591 52.6119L179.641 52.5539L179.693 52.496C179.709 52.4763 179.726 52.4577 179.744 52.438C180.027 52.4238 180.027 52.4238 180.116 52.2915C180.15 52.3724 180.194 52.3932 180.522 52.4008C181.068 52.4172 181.125 52.52 180.834 52.9224C181.033 52.8371 181.254 52.8393 181.458 52.7737C181.487 53.1017 181.911 53.1651 181.943 53.492C181.863 53.5685 181.756 53.6101 181.677 53.6877C181.65 53.7177 181.634 53.7564 181.632 53.797C181.632 53.9599 181.772 54.125 181.639 54.2847" fill="#00EBFF"/>
<path d="M184.03 53.8345C183.894 53.9683 183.796 54.1353 183.744 54.3189C183.53 54.4109 183.3 54.4628 183.067 54.4719C182.866 54.4739 182.671 54.5315 182.501 54.6381C182.409 54.6075 182.392 54.602 182.379 54.4654C182.366 54.3287 182.339 54.3287 182.242 54.3079C182.263 54.2591 182.297 54.2174 182.341 54.1884C182.385 54.1594 182.437 54.1443 182.49 54.145C182.304 54.051 182.135 53.7077 182.818 53.1118C183.623 53.2878 183.654 53.2955 183.606 53.5929C183.934 53.4497 184.019 53.5645 184.104 53.7547C184.082 53.7777 184.054 53.8105 184.03 53.8345Z" fill="#00EBFF"/>
<path d="M176.843 53.7174C176.426 53.8711 175.975 53.9089 175.539 53.8268C175.322 53.7888 175.103 53.7705 174.883 53.7721C175.462 53.4671 176.092 53.27 176.741 53.1904C177.104 53.221 177.11 53.3719 176.99 53.6595C176.945 53.677 176.888 53.7021 176.844 53.7174" fill="#00EBFF"/>
<path d="M176.318 54.1338C176.254 54.2238 176.165 54.2936 176.062 54.335C175.959 54.3764 175.847 54.3878 175.738 54.3678C175.904 54.5373 175.433 54.9429 175.427 54.9462L174.319 55.1015C174.022 55.0905 173.984 54.9637 173.969 54.8226L174.025 54.7625C174.042 54.7417 174.062 54.7221 174.079 54.7013C174.097 54.6805 174.116 54.6608 174.134 54.6401C174.151 54.6193 174.171 54.5996 174.191 54.5799L174.246 54.5187L174.302 54.4575C174.321 54.4378 174.34 54.417 174.358 54.3962C174.375 54.3755 174.396 54.3558 174.414 54.335C174.976 54.1101 175.581 54.0116 176.186 54.0464C176.255 54.0464 176.322 54.0464 176.39 54.0529L176.318 54.1338Z" fill="#00EBFF"/>
<path d="M171.9 58.1709C171.848 58.2195 171.778 58.2458 171.707 58.2442C171.684 58.2439 171.662 58.2391 171.642 58.2301C171.621 58.2211 171.603 58.208 171.587 58.1917C171.572 58.1753 171.56 58.156 171.553 58.135C171.545 58.114 171.542 58.0916 171.543 58.0692C171.998 58.0157 171.926 58.1381 171.916 58.1534L171.9 58.1709ZM175.956 57.4242C176.058 57.2939 176.149 57.1561 176.229 57.012C176.133 56.8425 175.733 56.684 175.26 57.0852C175.182 56.9507 174.932 56.9398 174.974 56.7288L175.509 55.7021L175.311 55.7339C174.794 55.8988 174.316 56.1699 173.909 56.5298C173.957 56.6545 174.237 56.6391 174.166 56.7988C174.15 56.8338 174.09 56.8862 173.898 56.9322C173.84 56.9453 173.787 56.9705 173.74 57.0061C173.693 57.0418 173.654 57.087 173.627 57.1388C173.872 57.1825 173.937 57.27 173.898 57.4985H173.752H173.609H173.465H173.32H173.177H173.036H172.894H172.754C172.957 56.9923 173.099 56.4566 172.188 56.5145C172.279 56.31 172.447 55.9318 171.58 56.2794C171.258 56.4074 170.623 56.7299 170.621 56.7321L169.141 57.9348C169.412 58.2179 169.412 58.2179 169.672 58.1327C169.605 58.1952 169.534 58.2543 169.461 58.3098C170.541 58.3502 170.541 58.3502 171.034 57.8987C170.794 58.1709 170.794 58.1709 170.867 58.4453C170.714 58.4225 170.557 58.4424 170.415 58.503C170.272 58.5636 170.149 58.6625 170.059 58.7887C170.189 59.4315 170.971 59.1921 172.344 58.7132C172.679 58.58 173.026 58.4804 173.381 58.4158C173.544 58.4277 173.707 58.45 173.867 58.4825C174.227 58.4891 174.588 58.4541 174.947 58.4453C175.268 58.0988 175.657 57.8221 175.956 57.4548" fill="#00EBFF"/>
<path d="M178.28 57.0541C178.264 57.0772 178.241 57.0953 178.215 57.1066C178.172 57.1179 178.129 57.127 178.086 57.1339C178.102 57.1071 178.127 57.0861 178.156 57.0738C178.199 57.0621 178.242 57.0529 178.286 57.0464V57.0541M179.224 56.7184C179.197 56.7362 179.165 56.7457 179.133 56.7458C178.941 56.7316 178.892 56.4112 179.104 56.2308C179.119 56.2177 179.14 56.2035 179.155 56.1925C179.119 56.2594 179.104 56.3357 179.112 56.4112C179.13 56.5205 179.215 56.5993 179.236 56.7042L179.224 56.7141M180.317 57.7954C180.326 57.7871 180.335 57.7779 180.342 57.768L180.914 56.3369C180.929 56.2998 180.936 56.2601 180.934 56.2202C180.933 56.1804 180.924 56.1412 180.907 56.1052C180.89 56.0691 180.866 56.0369 180.836 56.0106C180.806 55.9842 180.771 55.9643 180.733 55.952C180.422 56.1138 180.007 56.2549 180.07 56.0832C180.096 56.0333 180.128 55.9872 180.166 55.9465C180.003 55.8837 179.826 55.8627 179.653 55.8853C179.268 55.9765 178.893 56.105 178.534 56.2691C178.275 56.4353 178.224 56.7633 177.994 56.9513C178.3 55.741 177.285 56.069 177.273 56.0766C177.203 56.1671 177.15 56.2698 177.117 56.3795C177.061 56.5908 176.947 56.7826 176.789 56.9338H177.095H177.14C177.076 57.2017 177.016 57.4554 177.273 57.5898C177.669 57.6414 178.068 57.6611 178.466 57.6489C178.303 57.9032 178.16 58.1705 178.04 58.4481C178.56 58.5011 179.085 58.4782 179.598 58.3803C179.66 58.3574 179.766 58.3421 179.8 58.2841C179.895 58.119 179.868 57.9178 179.963 57.7527C180.082 57.7287 180.201 57.9036 180.312 57.7834" fill="#00EBFF"/>
<path d="M182.09 58.7643C181.807 58.9266 181.478 58.9907 181.154 58.9469C180.788 58.8685 180.455 58.6774 180.203 58.4002C180.299 58.2404 180.44 58.1133 180.61 58.0361C180.855 57.8863 180.855 57.8743 180.858 57.7803C181.144 57.5795 181.478 57.4594 181.827 57.4326C182.804 57.5037 182.155 58.7096 182.09 58.7676" fill="#00EBFF"/>
<path d="M178.351 62.4347C178.207 62.6691 178.001 62.8591 177.755 62.9835C177.51 63.108 177.235 63.1621 176.961 63.1399C176.228 63.8025 176.059 63.4766 175.821 62.8436C175.625 62.3199 175.434 61.9788 174.742 62.3363C174.984 61.9853 175 61.9175 174.888 61.7338C174.859 61.6984 174.839 61.6566 174.829 61.612C174.82 61.5673 174.821 61.521 174.833 61.4769C174.909 61.2648 174.909 61.2648 175.823 60.7313C175.714 60.9685 175.399 61.5983 176.317 61.3971C176.413 61.2058 176.454 61.1467 176.551 61.1183C176.57 60.9237 176.574 60.8996 176.303 60.7848C176.057 60.6831 176.096 60.5957 176.194 60.3606C176.464 60.2991 176.699 60.1353 176.85 59.9036C177.141 59.9473 177.725 59.5953 177.725 60.0064C177.813 59.897 178.053 59.5876 179.024 59.5581H179.074C178.959 59.7877 178.965 59.8238 179.135 59.9364C179.169 59.9517 179.197 59.9766 179.217 60.0079C179.236 60.0392 179.246 60.0756 179.245 60.1124C178.927 60.4762 178.528 60.7611 178.081 60.9445C178.081 60.9609 178.075 60.9838 178.07 61.0002C178.153 61.0986 178.284 61.0297 178.375 61.0899C178.375 61.1041 178.381 61.1227 178.383 61.1369C178.82 60.8089 178.82 60.8089 178.93 60.8581C178.772 61.3972 178.575 61.9241 178.34 62.4347" fill="#00EBFF"/>
<path d="M184.487 75.4979C184.203 75.9276 183.523 76.4753 182.906 76.1178C182.908 76.0013 182.934 75.8865 182.984 75.7812C183.034 75.6759 183.106 75.5826 183.195 75.5077C183.287 75.4224 183.362 75.3194 183.414 75.2049C183.622 75.2796 183.85 75.2769 184.056 75.1972C184.138 75.167 184.223 75.1472 184.31 75.1382C184.349 75.1433 184.387 75.1581 184.419 75.1813C184.451 75.2044 184.477 75.2352 184.495 75.2709C184.512 75.3066 184.52 75.346 184.518 75.3856C184.517 75.4252 184.505 75.4638 184.485 75.4979" fill="#00EBFF"/>
<path d="M186.586 75.9266L186.576 75.9834C186.576 76.002 186.57 76.0217 186.566 76.0414C186.563 76.0611 186.56 76.0786 186.558 76.0982C186.553 76.117 186.55 76.136 186.548 76.1551C186.548 76.1748 186.54 76.1934 186.537 76.2119L186.528 76.2699C186.528 76.2885 186.52 76.3082 186.517 76.3267C186.515 76.3462 186.512 76.3656 186.507 76.3847C186.507 76.4044 186.501 76.4219 186.497 76.4415C186.494 76.4612 186.492 76.4798 186.489 76.4984C186.484 76.5175 186.481 76.5369 186.479 76.5564C186.479 76.576 186.472 76.5946 186.468 76.6143L186.459 76.6723C186.455 76.6914 186.451 76.7107 186.449 76.7302C186.449 76.7488 186.443 76.7685 186.441 76.7881C186.267 76.9237 186.052 76.8297 185.698 76.6788C185.634 76.4295 185.742 76.2994 185.963 76.1453C186.079 76.0665 186.113 76.0359 186.039 75.9911C186.052 75.8971 186.088 75.8697 186.203 75.8643C186.334 75.8643 186.463 75.9266 186.596 75.8741C186.596 75.8938 186.588 75.9135 186.586 75.9321" fill="#00EBFF"/>
<path d="M250.512 75.8826C250.714 76.3298 250.671 76.4883 250.65 76.5637C250.36 76.473 250.224 76.2008 250.047 75.6606H250.06C250.199 75.6606 250.304 75.7929 250.451 75.7536C250.469 75.7918 250.494 75.8432 250.512 75.8826Z" fill="#00EBFF"/>
<path d="M248.147 79.059C248.227 79.3225 248.158 79.715 247.867 79.7533H247.856C247.762 79.6254 247.593 79.5696 247.528 79.4155C247.504 79.361 247.495 79.301 247.502 79.2419C247.51 79.1827 247.533 79.1267 247.57 79.0798C247.639 79.0022 247.735 78.9519 247.788 78.8612C247.818 78.8025 247.827 78.7352 247.813 78.6709C247.894 78.7067 247.966 78.7603 248.024 78.8277C248.082 78.895 248.124 78.9733 248.147 79.059Z" fill="#00EBFF"/>
<path d="M247.998 80.3659C248.026 80.5113 247.903 80.532 247.78 80.4533C247.727 80.4187 247.684 80.3706 247.655 80.314C247.627 80.2573 247.614 80.1941 247.618 80.1308C247.634 80.1235 247.652 80.1191 247.669 80.1177C247.833 80.1177 247.836 80.3363 247.997 80.3473V80.3659" fill="#00EBFF"/>
<path d="M247.975 85.8978C248.047 86.1503 247.913 86.1919 247.807 86.2006H247.759C247.781 86.1458 247.786 86.0856 247.773 86.0279C247.762 85.8858 247.753 85.7633 247.948 85.8092C247.959 85.8382 247.968 85.8677 247.975 85.8978ZM250.61 84.2763C250.635 84.2655 250.662 84.2571 250.689 84.2512C250.621 83.9212 250.45 83.6215 250.2 83.3958C249.95 83.1702 249.634 83.0305 249.299 82.9971C248.954 82.9464 248.635 82.784 248.391 82.5347C248.416 82.5839 248.447 82.644 248.47 82.6987C248.622 83.0901 248.56 83.136 248.252 83.1218C248.033 83.1076 247.989 83.1218 247.924 83.1841C248.052 83.4979 247.942 83.8663 248.151 84.1681C248.028 84.3113 248.028 84.3113 247.18 84.3562H247.168L247.102 84.3616C247.176 84.5584 247.182 84.5803 247.16 84.6896C247.136 84.7523 247.133 84.8206 247.15 84.8853C247.186 85.0712 247.368 85.1795 247.41 85.3631C247.475 85.6485 247.346 85.9448 247.46 86.2269C247.551 86.4521 247.835 86.2641 247.946 86.4455C247.892 86.6347 247.973 86.8392 247.881 87.025C247.881 87.025 247.824 87.1343 247.615 87.0994C247.903 88.1282 248.263 88.302 249.219 87.8811C249.742 87.6515 250.002 87.5531 250.229 87.8286C249.952 86.8774 250.935 87.1453 250.945 87.1486C250.959 86.2688 250.713 85.4044 250.238 84.6634C250.492 84.7028 250.462 84.3769 250.62 84.2796" fill="#00EBFF"/>
<path d="M251.623 84.14C251.704 84.4111 251.566 84.6626 251.196 84.5959C250.987 84.0941 251.037 83.8557 251.356 83.8306C251.424 83.8306 251.424 83.8306 251.479 83.8896C251.544 83.9639 251.593 84.0505 251.623 84.1444" fill="#00EBFF"/>
<path d="M267.117 101.56C267.213 102.059 267.262 102.564 267.335 103.066C266.982 103.021 266.723 103.776 266.479 103.417C266.479 103.417 266.437 103.296 266.291 102.61C266.182 101.959 265.999 101.323 265.744 100.714C266.106 101.07 266.343 100.547 266.351 100.524C266.188 100.213 265.949 99.9474 265.805 99.6248C265.68 99.3701 265.605 99.0934 265.586 98.8103C265.605 98.7294 265.723 98.6769 265.791 98.6441C266.019 98.5435 266.041 98.4965 265.993 98.2275C266.539 98.6561 266.456 99.9266 266.455 99.9408C266.455 99.9889 266.414 100.057 266.434 100.102C266.638 100.416 266.822 100.743 266.987 101.08C267.038 101.237 267.08 101.398 267.112 101.56" fill="#00EBFF"/>
<path d="M188.716 129.41C187.582 129.581 186.437 129.667 185.29 129.664C185.306 129.293 185.682 129.129 185.79 128.809C184.117 128.466 182.82 127.169 181.089 126.986C181.075 126.786 180.938 126.617 180.939 126.412C179.899 126.302 179.299 127.547 178.211 127.286C178.591 126.216 179.329 125.786 180.936 125.707C182.036 125.661 183.116 126.007 183.986 126.683C184.022 126.703 184.062 126.714 184.103 126.714C184.33 126.727 184.22 126.319 184.44 126.372C184.494 126.386 184.514 126.391 184.743 126.642C185.099 127.035 185.406 127.317 185.865 127.101C186.504 128.339 188.213 128.165 188.891 129.354C188.839 129.373 188.773 129.398 188.72 129.414" fill="#00EBFF"/>
<path d="M192.57 131.442C192.57 131.484 192.57 131.582 192.54 131.589C192.509 131.597 192.457 131.43 192.457 131.428C192.467 131.374 192.487 131.322 192.515 131.274C192.545 131.247 192.567 131.341 192.57 131.442ZM194.455 131.415C194.455 131.458 194.455 131.556 194.426 131.563C194.396 131.57 194.345 131.404 194.345 131.402C194.354 131.348 194.373 131.296 194.401 131.248C194.432 131.221 194.454 131.313 194.455 131.415ZM195.111 131.087C195.133 130.791 195.039 130.497 194.849 130.268C193.729 130.196 192.962 129.128 191.788 129.204C191.662 129.22 191.541 129.265 191.436 129.335C191.33 129.405 191.242 129.499 191.179 129.609C190.164 129.16 189.925 129.054 189.842 129.772C190.014 129.881 190.265 129.866 190.365 130.092C190.466 130.319 190.174 130.518 190.172 130.518C190.13 130.531 190.13 130.531 189.734 130.335C189.826 130.531 189.896 130.737 189.943 130.949C189.915 131.085 189.858 131.214 189.775 131.326C190.013 131.462 190.293 131.507 190.562 131.451C190.832 131.396 191.071 131.244 191.237 131.025C191.225 131.387 191.509 131.66 191.544 132.009C191.884 131.871 192.262 131.857 192.599 131.708C192.845 131.599 192.845 131.599 192.87 131.428C193.035 131.478 193.124 131.647 193.281 131.703C193.31 131.314 193.432 131.293 193.728 131.336C193.999 131.375 194.112 131.349 194.206 131.126C194.206 131.149 194.206 131.173 194.206 131.198V131.269C194.206 131.292 194.206 131.315 194.206 131.339C194.206 131.363 194.206 131.386 194.206 131.41C194.206 131.434 194.206 131.456 194.206 131.48C194.206 131.504 194.206 131.526 194.206 131.55C194.206 131.574 194.206 131.596 194.206 131.62C194.206 131.644 194.206 131.665 194.206 131.69C194.919 131.646 194.919 131.646 195.013 131.678C195.056 131.484 195.083 131.287 195.093 131.088" fill="#00EBFF"/>
<path d="M207.792 63.1739C207.749 63.2323 207.701 63.2868 207.648 63.3368C207.685 63.2736 207.734 63.2191 207.792 63.1739Z" fill="#00EBFF"/>
<path d="M209.099 65.1002C209.1 65.1128 209.096 65.1252 209.09 65.136C209.083 65.1467 209.074 65.1552 209.062 65.1604C209.015 65.1772 208.965 65.1897 208.916 65.1975C208.914 65.1832 208.916 65.1686 208.923 65.1557C208.93 65.1429 208.94 65.1323 208.953 65.1254C209 65.1089 209.049 65.0979 209.099 65.0926V65.1002ZM225.609 64.0069C225.627 64.0583 225.666 64.2103 225.642 64.2256C225.618 64.2409 225.532 64.0266 225.532 64.0233C225.532 64.02 225.532 63.9468 225.555 63.9369C225.578 63.9271 225.591 63.9566 225.612 64.0124M227.659 63.3454C227.672 63.3738 227.697 63.4394 227.678 63.4449C227.66 63.4504 227.583 63.3356 227.582 63.3356C227.581 63.3356 227.564 63.2394 227.582 63.2262C227.601 63.2131 227.638 63.2787 227.663 63.3454M229.704 62.2521C229.715 62.2794 229.713 62.3002 229.698 62.3122C229.664 62.3385 229.619 62.333 229.581 62.3472C229.575 62.3341 229.562 62.3035 229.581 62.2849C229.599 62.2663 229.661 62.2619 229.698 62.2444V62.2521M229.193 61.7612C229.116 61.7169 229.042 61.666 228.974 61.6092C228.987 61.6092 229.193 61.759 229.193 61.7612ZM226.206 60.1386C226.188 60.3267 226.069 60.3497 225.958 60.3573C225.769 60.3628 225.581 60.3256 225.391 60.3322C225.628 60.1607 225.918 60.0797 226.209 60.1037C226.209 60.1146 226.209 60.1277 226.209 60.1386M226.843 60.1769C226.854 60.2054 226.864 60.2346 226.87 60.2644C226.761 60.2884 226.698 60.2272 226.711 60.1944C226.716 60.1835 226.735 60.1791 226.746 60.1758C226.652 60.0665 226.361 59.9364 226.357 60.049C226.366 60.1009 226.387 60.15 226.419 60.1922C226.31 60.1616 226.288 60.0228 226.169 60.0129C226.094 59.826 226.175 59.8227 226.565 59.8085C226.591 59.8837 226.638 59.9501 226.7 59.9998C226.762 60.0451 226.812 60.1063 226.843 60.1769ZM227.771 58.5533C227.785 58.5784 227.783 58.597 227.771 58.6091C227.759 58.6211 227.7 58.6276 227.662 58.6408C227.651 58.62 227.642 58.597 227.662 58.5784C227.682 58.5599 227.731 58.5588 227.765 58.5446V58.5533M220.133 48.0889C220.117 48.1698 220.024 48.1742 219.915 48.1731C219.705 48.1676 219.662 48.2015 219.642 48.2824C219.75 48.3744 219.841 48.4856 219.908 48.6105C219.875 48.5889 219.838 48.5751 219.799 48.57C219.785 48.57 219.779 48.57 219.768 48.5875C219.759 48.6007 219.748 48.6115 219.734 48.6189C219.72 48.6264 219.704 48.6302 219.688 48.6301C219.667 48.632 219.646 48.632 219.625 48.6301C219.588 48.5593 219.534 48.4991 219.467 48.4552C219.403 48.4174 219.349 48.3654 219.308 48.3032C219.411 48.2895 219.51 48.2521 219.596 48.1939C219.752 48.0822 219.944 48.0363 220.133 48.066C220.134 48.0754 220.134 48.0849 220.133 48.0944M225.381 48.6706C224.875 47.7959 223.886 48.2857 223.206 47.9052C223.248 47.9468 223.305 48.0036 223.349 48.0452C222.73 48.4049 222.73 48.4049 222.611 48.7012C222.318 48.6236 222.013 48.687 221.719 48.6214C221.548 48.7526 221.548 48.7526 221.355 49.0762C221.134 48.6403 220.783 48.284 220.351 48.0572C220.354 47.9384 220.395 47.8237 220.467 47.7292C220.198 47.3608 219.72 47.3181 219.392 47.0448C219.362 47.0929 219.325 47.1541 219.298 47.2088C219.037 47.2088 218.78 47.1596 218.518 47.1497C218.432 47.0507 218.339 46.9579 218.24 46.872C218.19 46.8458 218.18 46.8469 218.17 46.8469H218.137H218.073H218.042H217.978H217.946C217.163 46.5662 216.359 46.353 215.54 46.2095C215.54 46.2203 215.542 46.2309 215.546 46.2412L215.577 46.4292C213.5 46.5725 213.5 46.5725 213.11 46.7365C212.997 46.6648 212.891 46.5828 212.793 46.4916C212.683 46.6982 212.683 46.6982 212.296 46.8272C212.371 46.9265 212.451 47.0218 212.536 47.1126C211.454 46.8937 210.331 47.0081 209.315 47.4406C209.315 47.516 209.315 47.6155 209.315 47.6909L209.712 47.7248C209.663 47.8355 209.647 47.9574 209.663 48.0769C209.785 48.1249 209.902 48.1854 210.011 48.2573L209.872 48.3666C209.966 48.4235 210.091 48.5055 210.176 48.57C209.271 48.4402 208.374 48.2517 207.493 48.0058C207.469 48.0714 207.435 48.1589 207.412 48.2245L207.604 48.5744C207.03 48.6192 206.527 48.2464 205.953 48.2967C204.225 48.4333 203.932 48.6476 203.592 48.8936L203.493 48.7252C203.232 48.8674 202.946 48.933 202.676 49.0533C202.662 49.3189 202.742 49.578 202.725 49.8437C201.576 50.1354 200.455 50.5257 199.373 51.0103C199.628 51.5756 199.628 51.5756 199.641 51.592C199.929 51.6498 200.226 51.6539 200.515 51.604C200.515 52.0949 200.515 52.1977 200.067 52.4568C199.505 52.7794 198.815 52.5957 198.251 52.9084L198.201 53.1664C197.75 53.4069 197.75 53.4069 197.643 53.783C198.087 53.7688 198.398 54.2095 198.859 54.1285C199.04 54.3898 199.187 54.673 199.296 54.9715C198.373 54.8895 197.5 54.813 197.438 55.5761C197.563 55.5811 197.688 55.5994 197.809 55.6308C197.825 55.6876 197.843 55.7653 197.859 55.8232L197.64 55.809C197.582 55.9114 197.54 56.022 197.515 56.137C197.403 56.1326 197.292 56.109 197.187 56.067C197.169 56.1217 197.142 56.195 197.125 56.2507L197.268 56.3841C197.262 56.4716 197.253 56.5864 197.245 56.6727C198.792 57.1658 198.792 57.1659 199.468 56.7274C199.63 57.0259 199.653 57.0314 199.864 57.0696C200.276 56.7733 200.907 57.0183 201.241 56.523C201.92 56.8193 202.791 56.6421 203.305 57.3441L203.414 57.1965C203.655 57.2438 203.89 57.3171 204.115 57.4151C204.039 57.7355 204.308 57.9848 204.294 58.2898C204.759 58.2843 204.848 58.4309 204.95 58.5992C204.896 58.7013 204.849 58.8073 204.81 58.9163C204.841 58.96 204.879 59.0169 204.907 59.0606C205.027 59.0415 205.149 59.0338 205.27 59.0376C205.2 59.1415 205.113 59.2331 205.012 59.3088C205.031 59.3646 205.056 59.4367 205.074 59.4903C205.247 59.5198 205.421 59.499 205.596 59.5133C205.507 59.6027 205.425 59.6988 205.35 59.8008C205.465 59.8253 205.578 59.8585 205.688 59.9003C205.774 60.1922 205.774 60.1922 206.261 60.611H206.088C206.109 60.7487 206.139 60.8849 206.178 61.0188C206.083 61.0778 205.959 61.162 205.87 61.2276C205.87 61.2888 205.876 61.3708 205.879 61.431L206.207 61.5851C206.183 61.9941 206.123 62.4001 206.028 62.7987C206.119 62.9565 206.246 63.09 206.4 63.1875C206.554 63.285 206.729 63.3437 206.91 63.3585C207.092 63.3734 207.274 63.3439 207.441 63.2727C207.609 63.2015 207.756 63.0906 207.871 62.9496C207.981 63.1289 207.936 63.3432 208.009 63.5302C208.859 63.5674 208.859 63.5674 208.86 63.833C207.172 63.8593 207.172 63.8593 207.009 63.9489C207.188 64.3928 207.188 64.3928 207.327 64.535C206.968 64.6651 206.905 64.6891 206.909 65.5474C207.231 65.8569 207.653 66.0414 208.099 66.0676C208.544 66.0939 208.985 65.9602 209.341 65.6906C209.327 65.4807 209.221 65.2938 209.187 65.0893C209.299 65.1363 209.417 65.169 209.538 65.1866C209.511 65.3211 209.511 65.3211 209.844 65.8787C209.742 66.1805 209.807 66.5161 209.645 66.8048C209.332 66.7917 209.02 66.7611 208.711 66.7129C207.445 68.5257 208.137 69.3052 208.362 69.5622C208.166 69.6945 208.166 69.6945 208.114 70.5341C208.267 70.5541 208.408 70.6259 208.513 70.7375L210.272 73.8863L210.505 73.9224C210.562 74.1291 210.577 74.3455 210.652 74.5489C211.402 74.5795 211.411 75.112 211.286 75.5526C211.748 75.7592 212.009 76.2316 212.47 76.4382C212.302 77.1926 213.384 77.1467 213.395 77.7983C213.95 77.5736 214.567 77.5597 215.131 77.7594C215.695 77.959 216.167 78.3583 216.456 78.8818C216.448 78.8315 216.44 78.7626 216.433 78.7112C216.619 78.6227 216.619 78.6227 216.98 78.6413C217.118 79.0119 217.118 79.0119 218.2 78.4707C218.081 77.2779 218.618 76.085 218.2 74.8922C218.395 74.8463 218.595 74.8244 218.791 74.7829C218.915 74.2841 219.183 73.833 219.563 73.4862C219.32 72.9231 219.601 72.2605 219.22 71.7248C219.685 71.5291 219.899 70.9988 220.403 70.8578C220.587 70.8234 220.775 70.8267 220.957 70.8674C221.14 70.9082 221.312 70.9857 221.463 71.095C221.458 70.9564 221.479 70.8182 221.525 70.6872C222.257 70.5374 222.744 69.912 223.452 69.7152C223.774 68.9907 224.167 68.299 224.623 67.6499C224.615 67.473 224.625 67.2958 224.651 67.1207C227.317 67.3908 229.024 65.7803 230.275 64.606C230.338 64.6957 230.427 64.764 230.53 64.8017C230.531 64.4942 230.486 64.1882 230.395 63.8943C229.383 64.0616 228.413 63.4755 227.397 63.7357C227.598 63.6469 227.789 63.537 227.967 63.4077C227.938 63.2593 227.899 63.1131 227.849 62.9704L228.041 62.9179C228.429 63.145 228.783 63.4251 229.093 63.75H229.184C230.252 63.6811 230.252 63.6811 230.51 63.75C230.544 63.6876 230.588 63.6056 230.62 63.5433C230.591 63.4777 230.591 63.4777 230.242 62.8436L230.394 62.7474C230.202 62.3516 229.778 62.2236 229.468 61.9623L229.578 61.8147C229.414 61.6814 229.414 61.6813 227.601 61.0833C227.628 61.1281 227.665 61.1926 227.692 61.2331C227.383 61.3326 227.38 61.3304 227.145 61.2025L227.322 61.185C227.314 61.0462 227.261 60.9138 227.171 60.8078C227.659 60.8934 228.136 61.0347 228.592 61.2287C228.602 61.1795 228.614 61.1128 228.624 61.0636L228.734 61.0275H228.743C228.6 60.714 228.393 60.4339 228.134 60.2053C227.772 60.2264 227.409 60.2143 227.049 60.1693C226.879 59.9637 226.767 59.7188 226.577 59.5275C226.602 59.4794 226.633 59.4181 226.658 59.37C228.856 59.6062 228.856 59.6062 229.242 59.4881C229.032 58.9414 229.007 58.9316 228.6 58.7315C228.818 58.6008 229.057 58.509 229.306 58.4604C229.416 57.8732 229.416 57.8732 229.189 57.6535H229.152C228.939 57.6669 228.725 57.6537 228.515 57.6141C227.832 56.277 227.832 56.277 227.358 55.7981C226.283 55.8779 226.283 55.8779 225.995 55.6964L226.136 55.6045C225.964 55.0655 224.984 54.8523 225.328 54.1438L225.499 54.11C225.429 53.8913 225.369 53.7054 224.886 53.4889C225.046 53.0516 224.642 52.7619 224.586 52.3803H224.642H224.698C224.718 52.3803 224.736 52.3803 224.755 52.3803H224.812C224.83 52.3803 224.849 52.3803 224.867 52.3803H224.923H224.98H225.036C224.936 52.2866 224.858 52.1725 224.806 52.0457L224.929 51.8402C224.812 51.5362 224.812 51.5362 224.518 51.5286L224.398 51.3482C224.413 51.2968 224.429 51.2279 224.441 51.1765C224.586 51.1975 224.732 51.2063 224.878 51.2028C224.979 50.9382 224.979 50.9382 224.793 50.5468L224.957 50.4921C224.965 50.3621 224.965 50.2318 224.957 50.1018C224.859 50.0394 224.731 49.9542 224.637 49.8831C224.899 49.7125 224.922 49.7278 225.155 49.8765C225.103 49.685 225.081 49.4866 225.091 49.2883C225.229 49.2057 225.351 49.0973 225.449 48.9691C225.433 48.8724 225.408 48.7773 225.376 48.6848" fill="#00EBFF"/>
<path d="M172.793 55.038C172.507 55.3004 172.356 55.2895 172.287 55.284C172.149 55.5302 171.978 55.7564 171.78 55.9564C171.732 55.9772 171.683 55.9933 171.633 56.0045C171.508 56.0537 171.33 56.1423 171.053 56.2811C170.742 56.4375 170.39 56.6146 170.354 56.5074C170.318 56.4003 170.565 56.116 170.728 55.9225C170.098 56.4517 169.323 56.7644 168.671 57.263C168.671 57.1886 168.575 57.1536 168.585 57.0804C168.595 57.0071 168.623 56.9645 168.724 56.8179C168.538 56.8792 168.454 57.0672 168.293 57.1602C168.459 56.8322 168.308 56.7852 167.672 56.9579C167.891 56.7534 168 56.4703 168.219 56.2669C168.208 56.2831 168.201 56.302 168.2 56.3216C168.247 56.3249 168.295 56.3182 168.34 56.302C168.385 56.2859 168.426 56.2605 168.46 56.2276V56.1893C169.293 55.8961 170.098 55.5284 170.866 55.0905C171.377 54.886 171.631 54.8314 171.871 55.0161C172.09 54.9199 172.232 54.6816 172.503 54.6881C172.644 54.7045 172.644 54.7045 172.867 54.9669L172.792 55.0424" fill="#00EBFF"/>
<path d="M201.431 194C201.442 194.027 201.431 194.028 201.425 194.03C201.389 194.017 201.355 193.996 201.328 193.968C201.334 193.884 201.388 193.94 201.399 193.951C201.413 193.965 201.423 193.982 201.431 194ZM201.599 193.387C201.605 193.399 201.62 193.439 201.607 193.442C201.594 193.446 201.548 193.382 201.547 193.382C201.545 193.382 201.541 193.327 201.554 193.321C201.567 193.316 201.586 193.349 201.599 193.387ZM199.327 192.349C199.337 192.375 199.31 192.392 199.257 192.393C199.205 192.394 199.148 192.364 199.188 192.321C199.205 192.307 199.223 192.295 199.242 192.283C199.266 192.296 199.317 192.322 199.327 192.349ZM192.933 138.647C192.929 138.67 192.919 138.69 192.904 138.706C192.888 138.723 192.869 138.735 192.847 138.74C192.748 138.76 192.648 138.771 192.547 138.773C192.549 138.748 192.558 138.724 192.574 138.705C192.589 138.685 192.611 138.671 192.635 138.664C192.733 138.642 192.834 138.631 192.934 138.632L192.933 138.647ZM151.512 118.03C151.137 117.812 150.975 117.352 150.552 117.185C150.667 116.877 150.667 116.877 150.6 115.901H150.612C150.721 115.915 150.758 115.952 150.831 116.078C150.904 116.203 150.985 116.296 151.219 116.207C151.216 116.463 151.238 116.72 151.286 116.972C151.359 117.344 151.512 117.695 151.587 118.065C151.564 118.053 151.534 118.038 151.511 118.024M199.679 94.2205C199.679 94.2588 199.674 94.3495 199.645 94.3561C199.617 94.3627 199.574 94.2096 199.574 94.2085C199.586 94.1572 199.606 94.1084 199.634 94.0642C199.666 94.0401 199.681 94.1265 199.679 94.2205ZM198.812 92.938C198.595 93.0017 198.366 93.0089 198.145 92.9588C197.415 92.8812 197.146 92.9085 196.943 93.0834C196.821 92.4602 198.466 92.4099 198.536 92.4088H198.589C198.425 92.6177 198.48 92.7281 198.831 92.9227L198.813 92.938M142.353 77.1513L142.34 77.1731L142.327 77.195L142.314 77.2169L142.301 77.2387L142.287 77.2617L142.274 77.2825L142.262 77.3043L142.249 77.3262L142.237 77.3481L142.224 77.3699L142.212 77.3907L142.199 77.4126L142.187 77.4344L142.175 77.4563L142.162 77.4782C142.11 77.4443 142.044 77.5339 142.008 77.5875C142 77.5645 142.002 77.546 142.034 77.4596C142.078 77.3404 142.098 77.2715 141.974 77.3393C142.021 77.2794 142.08 77.2301 142.147 77.1947C142.215 77.1592 142.289 77.1385 142.365 77.1338L142.353 77.1567M158.868 70.5573C158.843 70.5936 158.807 70.6206 158.765 70.6338C158.709 70.6437 158.652 70.647 158.595 70.6437C158.619 70.6066 158.654 70.5782 158.695 70.5628C158.755 70.5504 158.816 70.5445 158.877 70.5453L158.868 70.5573ZM166.322 67.5135C166.276 67.5744 166.214 67.622 166.143 67.6513C166.072 67.6807 165.994 67.6909 165.918 67.6807C165.765 67.6709 165.72 67.7026 165.688 67.9497C165.337 67.7748 164.936 67.7262 164.553 67.8119C164.655 67.6228 164.843 67.4981 164.928 67.2991C164.958 67.4085 165.009 67.4424 165.154 67.4522C165.301 67.4468 165.448 67.4263 165.591 67.391C166.028 67.3035 166.228 67.2904 166.377 67.4402L166.317 67.5135M167.573 67.215C167.444 67.4139 167.252 67.3943 167.066 67.356C166.744 67.2904 166.615 67.309 166.481 67.5463C166.481 67.2587 166.707 67.2412 167.107 67.2368C167.279 67.2551 167.453 67.2256 167.609 67.1515C167.599 67.1701 167.585 67.1964 167.573 67.215ZM172.033 67.4413C171.944 67.5812 171.774 67.6654 171.749 67.8502C171.73 67.8054 171.703 67.7644 171.67 67.7288L171.64 67.6982C171.541 67.5993 171.417 67.5288 171.282 67.4938C171.238 67.4837 171.193 67.4807 171.148 67.485C171.096 67.4927 171.052 67.5255 170.999 67.5342C170.889 67.5506 170.966 67.4336 171.035 67.3221C171.119 67.1789 171.177 67.0849 171.05 67.1111C171.09 67.0934 171.134 67.0869 171.177 67.0925C171.341 67.0925 171.505 67.1209 171.664 67.1242C171.83 67.1368 171.996 67.1024 172.143 67.0247C172.068 67.1634 171.983 67.2964 171.889 67.4227C171.927 67.3951 171.964 67.3647 171.998 67.332C172.044 67.3571 172.079 67.3779 172.036 67.4413M165.064 66.6847C165.043 66.7175 165.02 66.747 164.998 66.7776C164.92 66.6683 164.899 66.5294 164.802 66.4321C164.737 66.3767 164.654 66.3472 164.569 66.349H164.561C164.889 66.1501 165.208 66.2484 165.137 66.5251C165.12 66.5811 165.095 66.6348 165.064 66.6847ZM172.976 65.7226C172.952 65.7642 172.921 65.8012 172.884 65.8319C172.808 65.8942 172.724 65.9412 172.646 66.0046C172.551 65.9828 172.608 65.9204 172.756 65.7936C172.828 65.7406 172.891 65.6751 172.94 65.6001C172.987 65.6274 173.01 65.6537 172.99 65.7094L172.981 65.7236M189.729 65.4929C189.718 65.5356 189.676 65.6209 189.63 65.6263C189.584 65.6318 189.584 65.5793 189.577 65.5356C189.701 65.3869 189.73 65.4022 189.734 65.4416C189.735 65.4589 189.734 65.4763 189.729 65.4929ZM165.508 63.2319C165.49 63.2568 165.466 63.2768 165.438 63.2899C165.395 63.3019 165.352 63.3118 165.308 63.3194C165.327 63.2906 165.353 63.2675 165.384 63.2527C165.426 63.2394 165.47 63.2295 165.513 63.2232V63.2319M165.859 63.1445C165.84 63.1695 165.815 63.1894 165.787 63.2024C165.745 63.214 165.703 63.2224 165.661 63.2275C165.679 63.1996 165.705 63.1775 165.735 63.1641C165.778 63.1508 165.821 63.1413 165.865 63.1357L165.859 63.1445ZM190.213 61.6313C190.206 61.6533 190.192 61.673 190.175 61.6884C190.158 61.7037 190.136 61.7142 190.114 61.7187C190.017 61.7258 189.919 61.7258 189.823 61.7187C189.894 61.5569 190.011 61.5001 190.225 61.5285C190.226 61.5628 190.222 61.597 190.213 61.6302M166.438 61.2059C166.276 61.3623 166.18 61.382 166.116 61.3809H166.107C166.148 61.3294 166.198 61.2865 166.256 61.2548C166.313 61.223 166.376 61.2031 166.442 61.1961H166.449L166.438 61.2059ZM185.375 61.5274C185.362 61.558 185.336 61.6105 185.301 61.6138C185.266 61.617 185.25 61.5252 185.248 61.452C185.384 61.3229 185.4 61.3874 185.4 61.4202C185.4 61.4581 185.391 61.4954 185.375 61.5296M185.622 61.0923C185.612 61.1196 185.586 61.1819 185.565 61.1863C185.544 61.1907 185.558 61.0769 185.558 61.0769C185.579 61.0399 185.605 61.0057 185.635 60.9753C185.649 60.9654 185.654 60.9753 185.647 61.0135C185.64 61.0396 185.632 61.0651 185.622 61.0901M173.128 60.8441C173.099 60.8353 173.057 60.6035 173.056 60.6013C173.055 60.5992 173.068 60.5773 173.079 60.5718C173.133 60.5467 173.149 60.8014 173.135 60.8375V60.843M228.678 157.228C228.93 156.395 228.93 156.395 228.422 154.483C225.645 153.718 223.51 150.828 220.142 152.028C219.919 151.576 219.589 151.187 219.18 150.894C218.534 150.925 218.534 150.908 218.534 150.894C218.534 150.88 218.534 150.862 218.534 150.846C218.535 150.831 218.535 150.815 218.534 150.8C218.534 150.783 218.534 150.768 218.534 150.752V150.705C218.535 150.689 218.535 150.674 218.534 150.659C218.534 150.642 218.534 150.626 218.534 150.611C218.534 150.595 218.534 150.58 218.534 150.564C217.817 150.553 217.113 150.365 216.393 150.411C216.022 150.055 215.587 149.772 215.111 149.576C214.963 149.16 214.768 148.603 214.623 148.185C214.434 148.096 214.186 147.976 213.999 147.886C213.831 146.693 213.062 145.706 212.841 144.532C208.066 143.938 208.066 143.938 204.245 140.997C204.09 141.135 203.883 141.318 203.729 141.457C203.632 140.98 203.382 140.547 203.015 140.226H203.003H202.988C203.05 140.016 203.132 139.735 203.194 139.525L202.547 139.292C202.42 139.454 202.253 139.673 202.126 139.839C201.798 139.532 201.798 139.532 199.869 138.8C199.611 139.229 199.242 139.58 198.801 139.817C198.366 139.567 197.882 139.413 197.382 139.366C196.881 139.319 196.377 139.38 195.903 139.545C195.812 139.302 195.691 138.976 195.6 138.73C193.539 137.95 193.539 137.95 188.274 139.034C187.928 139.886 187.481 140.694 186.943 141.44L180.255 139.034C180.649 138.682 181.119 138.426 181.628 138.285C181.697 138.067 181.79 137.778 181.862 137.562C181.425 137.383 180.849 137.132 180.42 136.935C180.56 135.888 181.425 135.227 181.835 134.322C180.659 133.607 180.659 133.607 175.945 133.43C176.164 133.297 176.449 133.124 176.666 132.993C176.689 132.774 176.72 132.483 176.742 132.264L176.112 131.849C176.016 131.33 175.979 130.802 176.003 130.275C175.993 129.704 176.014 129.704 176.035 129.704H176.423C176.445 129.704 176.467 129.704 176.489 129.704C176.806 128.335 176.806 128.335 173.028 127.04C170.963 129.016 165.474 134.257 165.898 124.877C165.913 124.57 166.613 120.325 166.618 120.322C168.783 118.77 171.381 120.231 173.64 119.338C174.154 119.159 174.154 119.105 174.154 119.051C174.154 118.998 174.154 118.942 174.154 118.891V118.569C174.154 118.515 174.154 118.46 174.154 118.409V118.086C174.154 118.032 174.154 117.977 174.154 117.926C175.654 117.708 177.027 118.946 178.566 118.306C180.527 119.669 179.166 123.348 182.283 123.829C182.986 122.674 183.307 122.147 182.354 119.295C180.91 114.98 183.974 113.038 186.8 112.169C188.997 107.139 188.997 107.139 189.412 104.808C190.673 104.474 191.817 103.803 193.099 103.531C193.209 103.321 193.354 103.04 193.463 102.832C193.361 102.578 193.339 102.578 193.317 102.578H193.251H192.923H192.859C192.874 101.352 192.879 101.062 195.382 99.8447V99.895C195.382 99.9114 195.382 99.9267 195.382 99.9442C195.382 99.9617 195.382 99.977 195.382 99.9945V100.044C195.382 100.061 195.382 100.076 195.382 100.094C195.383 100.11 195.383 100.127 195.382 100.143V100.193C195.382 100.21 195.382 100.227 195.382 100.243C195.851 100.149 196.296 99.959 196.688 99.685C196.864 101.253 196.864 101.253 202.92 98.6365H202.912C203.764 97.951 203.764 97.951 203.93 96.6237C203.536 96.2995 203.086 96.0491 202.603 95.8846C201.209 96.8456 201.209 96.8456 199.208 96.1251C199.113 95.9196 198.989 95.6441 198.889 95.4374C199.393 94.854 199.938 94.306 200.518 93.7974C200.99 93.7971 201.462 93.7605 201.929 93.6881C201.922 93.4694 201.91 93.1731 201.901 92.9533L202.435 92.4854C202.853 92.6728 203.3 92.7839 203.756 92.8134C203.956 92.4282 204.234 92.0892 204.573 91.8186C204.912 91.5479 205.304 91.3515 205.724 91.2422C205.659 91.4369 205.573 91.6971 205.506 91.8983C207.255 91.415 207.255 91.415 208.475 89.2742C207.491 88.6117 207.69 86.9782 206.308 86.6393L199.211 77.9242C197.958 78.5059 197.62 80.0016 196.432 80.6576C196.082 80.4029 195.615 80.0617 195.265 79.8037C195.348 79.608 195.458 79.3456 195.539 79.1477L195.087 78.5518C195.136 78.3463 195.196 78.074 195.252 77.8685C193.889 76.879 192.445 76.0056 190.936 75.2576L190.511 74.6442C190.402 74.8257 190.267 75.0674 190.162 75.2488C187.319 75.3582 186.953 75.3669 187.196 77.4771L186.604 77.8302C186.602 78.2986 186.638 78.7663 186.713 79.2286H186.725C186.547 79.994 186.152 80.7003 186.047 81.4886C187.564 82.3184 187.563 83.2291 187.561 83.2379C187.517 83.5132 187.441 83.7826 187.335 84.0404C186.761 85.2573 185.09 85.1338 184.493 86.3255C183.946 87.4309 185.245 88.5045 184.553 89.6132L183.787 89.5487C183.432 88.1416 183.166 86.7134 182.991 85.2726C177.517 84.8626 177.731 82.7372 177.939 80.6806C177.502 80.6521 176.907 80.6106 176.466 80.5712C175.677 82.1019 175.677 82.1019 174.85 82.4715C174.802 80.6576 174.802 80.6576 173.714 79.854C177.946 75.7157 177.946 75.7157 178.079 75.6643L178.101 75.5769C178.11 75.5484 178.116 75.52 178.125 75.4916L178.148 75.4052C178.155 75.3768 178.162 75.3483 178.17 75.321C178.177 75.2937 178.185 75.2631 178.194 75.2357C178.203 75.2084 178.208 75.1789 178.217 75.1493C178.226 75.1198 178.232 75.0925 178.241 75.0641C178.25 75.0356 178.255 75.0072 178.263 74.9788C179.269 74.3348 180.423 73.9554 181.39 73.2426C181.321 73.4678 181.227 73.7674 181.158 73.9915L181.819 74.1828C181.813 74.3928 181.803 74.6748 181.796 74.8848C183.338 74.6005 183.646 74.0516 183.968 73.1824C184.278 73.5225 184.692 73.9751 185.004 74.314C185.235 74.3217 185.54 74.3326 185.77 74.3425C185.819 74.1336 185.879 73.8559 185.934 73.6482L185.244 73.5126C185.045 72.6828 185.045 72.6828 183.881 72.0246C184.185 71.6831 184.376 71.2562 184.428 70.8022C185.151 70.3321 185.776 69.7351 186.482 69.2442C186.411 68.7784 186.304 68.1607 186.215 67.6982L186.851 67.3801C186.92 66.9341 186.844 66.4777 186.632 66.079L187.298 65.8472C188.145 66.2845 189.219 65.8636 189.997 66.5546L190.728 66.4649L190.413 66.946H190.425L191.053 67.2325C189.765 68.5084 189.765 68.5084 189.664 68.8233C190.419 69.1589 190.419 69.1589 192.37 68.1902L192.906 68.6855C192.824 68.8615 192.824 68.8615 191.244 70.6207C191.263 70.8285 191.289 71.1062 191.307 71.3128C190.586 71.5961 189.809 71.7051 189.038 71.631C188.671 71.9909 188.35 72.3949 188.082 72.8337L188.348 73.47L188.712 73.3814H188.721L188.611 74.0647C188.909 73.6934 189.301 73.4088 189.746 73.2404L189.899 73.9292C192.594 74.5655 195.213 78.7869 197.944 76.0011C197.709 75.6446 197.378 75.1822 197.117 74.8432C198.55 75.2598 198.55 75.2598 199.134 75.1461C199.243 74.7382 199.352 74.1872 199.421 73.7717C199.089 73.4528 198.875 73.0314 198.812 72.5756C197.45 72.0727 197.467 71.5632 197.49 70.7902L198.201 70.7213C199.417 71.9929 199.417 71.9929 199.818 72.1427C200.574 71.5946 201.276 70.9767 201.916 70.2971C201.714 69.9264 201.425 69.4443 201.195 69.0944L200.429 69.3043C200.419 69.0857 200.408 68.7992 200.4 68.5827C199.368 67.9857 198.384 67.309 197.457 66.559L198.152 66.4496C197.545 64.4116 197.545 64.4116 194.276 63.409C194.311 63.2057 194.358 62.9345 194.394 62.7312C191.751 62.6218 190.066 60.0536 187.381 60.0612C187.26 59.8939 187.098 59.6731 186.976 59.5058H186.648C183.149 60.7774 183.149 60.7774 181.883 63.6703L182.636 63.6846C182.789 63.7687 182.767 63.7688 182.745 63.7688H182.284C182.244 63.9973 182.19 64.3034 182.151 64.5341C182.761 65.0031 183.244 65.6143 183.9 66.0287C183.9 66.255 183.89 66.5579 183.885 66.7842C183.712 66.9351 183.485 67.1373 183.313 67.2871C183.106 67.403 183.083 67.403 183.058 67.403H182.561C182.487 66.8654 182.232 66.3691 181.837 65.997L181.519 65.9697C181.14 65.6906 180.866 65.2927 180.741 64.8395C180.615 64.3864 180.646 63.9042 180.827 63.4703C180.66 63.3456 180.439 63.1805 180.272 63.0548C180.144 61.0638 182.335 61.1097 183.252 60.0251C183.435 59.7824 183.433 59.7824 183.432 59.7824H183.414C179.915 59.309 179.915 59.309 176.686 64.9998C175.483 65.2983 174.609 66.2025 173.477 66.6311C173.57 66.8148 173.696 67.0586 173.788 67.2412L173.558 67.883L172.852 67.8732C172.798 67.649 172.727 67.3505 172.673 67.1264C172.95 66.7035 173.158 66.2387 173.289 65.7499C173.79 65.7849 173.805 65.7553 173.819 65.7258C173.834 65.6963 173.847 65.6668 173.863 65.6384L173.905 65.5498C173.92 65.5203 173.933 65.4908 173.948 65.4612C173.964 65.4317 173.977 65.4022 173.992 65.3727C174.007 65.3432 174.022 65.3147 174.035 65.2852C174.048 65.2557 174.064 65.2273 174.079 65.1967C174.093 65.166 174.108 65.1398 174.12 65.1103C173.608 64.7701 173.123 64.3895 172.671 63.9721C173.864 61.113 173.864 61.113 174.498 60.4198L173.943 59.9825C173.25 60.1093 172.724 60.6385 172.035 60.7697C171.609 61.4181 171.37 62.1714 170.893 62.7902C170.996 62.2917 171.064 61.7863 171.095 61.2781L170.432 61.0266L170.019 61.6247C169.889 61.4585 169.714 61.2366 169.582 61.0715H168.881C168.997 60.609 168.99 60.609 168.99 60.609L168.304 60.5532C168.434 60.1239 168.438 59.6659 168.313 59.2347C167.569 59.2248 167.033 59.2183 166.691 58.688C165.473 58.8257 165.473 58.8258 161.834 62.0774C161.943 62.5778 161.93 63.0971 161.797 63.5916C162.292 63.5009 162.292 63.5009 165.427 61.7231C165.139 62.0828 164.738 62.5486 164.429 62.8908L164.959 63.3664L164.244 63.8256C164.353 64.0235 164.494 64.287 164.6 64.4816C165.318 64.4663 166.032 64.381 166.749 64.3723C165.81 64.8763 164.695 64.7473 163.738 65.1868C163.745 65.4241 163.757 65.739 163.765 65.9762C162.607 65.9587 161.797 64.791 160.568 65.0162C160.421 64.8708 160.223 64.674 160.076 64.5264C159.93 64.6762 159.735 64.8741 159.59 65.0239C159.687 64.4868 159.904 63.9784 160.224 63.5359C158.233 63.9924 156.286 64.6183 154.402 65.4066C154.292 65.2273 154.135 64.9867 154.022 64.8063C152.907 64.6718 152.421 64.1131 151.244 62.764C151.266 62.5365 151.294 62.2326 151.315 62.0052C150.912 62.2208 150.529 62.4726 150.17 62.7574L149.996 62.6601C145.165 66.3381 145.165 66.3381 144.133 68.7303C143.751 68.9567 143.772 68.9304 143.794 68.9031L143.857 68.8244L143.921 68.7445L143.984 68.6669C144.005 68.6396 144.027 68.6144 144.048 68.5882L144.111 68.5095L144.175 68.4308C144.196 68.4056 144.217 68.3794 144.238 68.3531C143.314 68.8298 142.161 69.4224 141.004 72.2607L141.441 71.7141C141.447 71.9491 141.455 72.2607 141.461 72.498C139.87 73.5771 139.87 73.5771 136.78 79.6255L137.444 79.8638C137.36 80.0147 137.36 80.0147 133.727 84.4931C134.828 84.0098 136.333 83.3472 139.572 78.6098L139.47 79.2909C140.425 79.1019 141.306 78.6471 142.014 77.9789L142.47 78.5562C144.615 78.6415 144.345 81.4634 144.34 81.4907C144.141 83.2775 144.371 85.0858 145.01 86.7661C144.917 87.022 144.917 87.022 144.844 91.8589C146.738 93.7285 145.591 97.6339 145.454 97.8723C145.419 97.9324 141.945 104.002 146.103 112.508C145.994 112.684 145.862 112.92 145.758 113.097L146.226 113.657C146.648 113.671 147.21 113.703 147.633 113.74C148.802 115.45 149.163 117.579 150.503 119.201C150.245 119.618 150.111 120.099 150.117 120.589C152.181 122.459 152.181 122.459 152.238 123.852C153.015 124.537 153.741 125.278 154.41 126.067L154.957 125.652C154.94 125.279 154.821 124.917 154.613 124.606C154.406 124.296 154.117 124.048 153.778 123.889C153.526 122.376 152.582 121.073 152.428 119.528C154.033 121.99 156.044 124.168 157.543 126.706L157.548 126.85C157.548 126.898 157.548 126.945 157.556 126.995L157.561 127.138C157.561 127.186 157.567 127.233 157.569 127.28C157.571 127.327 157.575 127.375 157.577 127.423C157.579 127.471 157.577 127.519 157.583 127.566C157.59 127.613 157.589 127.663 157.591 127.71C157.593 127.757 157.591 127.805 157.599 127.854C158.984 131.918 164.671 131.254 166.001 135.379L166.674 135.063C166.76 134.729 166.784 134.729 166.81 134.729H167.043C167.068 134.729 167.094 134.729 167.118 134.729H167.348C167.441 134.916 167.567 135.166 167.656 135.353C170.667 135.529 172.545 138.976 175.9 138.164C176.767 139.079 177.255 140.273 178.142 141.174C178.104 141.393 178.054 141.695 178.017 141.916C179.087 141.949 179.342 141.957 181.227 143.214L181.791 142.703C182.309 143.252 183.017 143.582 183.77 143.628C183.97 143.201 184.12 142.752 184.217 142.291L184.967 142.331C186.058 143.674 186.659 145.348 186.671 147.078C185.327 148.317 185.327 148.317 185.249 149.156C185.215 149.178 182.027 151.423 184.691 153.449C184.237 153.862 183.478 154.558 184.168 156.393C184.293 156.608 184.475 156.783 184.695 156.9C185.216 157.249 185.689 157.664 186.102 158.135L196.418 170.381C196.383 185.705 196.383 185.705 197.396 187.237C197.475 187.011 197.579 186.712 197.659 186.485C198.087 187.541 198.087 187.541 197.31 189.219L197.876 189.676C197.658 191.327 199.298 193.175 200.938 193.933C201.324 194.174 201.338 194.174 201.351 194.174H201.652C202.029 194.47 202.492 194.638 202.972 194.652C203.452 194.666 203.923 194.527 204.318 194.254C203.39 193.703 202.597 192.951 201.997 192.054C202.468 191.475 202.627 190.692 203.228 190.195C203.223 190.167 203.217 190.136 203.211 190.107C203.204 190.077 203.199 190.047 203.191 190.016C203.183 189.985 203.179 189.957 203.172 189.927C203.166 189.898 203.159 189.866 203.153 189.837C203.146 189.807 203.142 189.776 203.135 189.745C203.129 189.713 203.123 189.685 203.118 189.655C203.11 189.625 203.103 189.594 203.098 189.563C203.091 189.534 203.086 189.503 203.078 189.474C202.842 189.398 202.532 189.301 202.289 189.225C202.248 189.021 202.192 188.749 202.151 188.542C202.384 188.451 202.698 188.329 202.925 188.236C203.075 187.033 203.075 187.033 203.858 186.437C203.46 186.199 203.11 185.89 202.825 185.524C203.335 185.541 203.846 185.533 204.355 185.498C204.465 185.034 204.646 184.421 204.793 183.968C207.549 183.915 207.854 183.093 208.182 182.232C207.949 181.779 207.787 181.291 207.703 180.788C212.15 181.264 214.768 175.258 214.796 175.197C216.054 172.245 219.59 172.263 221.489 170.144C223.548 167.848 224.27 162.913 224.3 162.29H224.322L225.001 162.151C225.985 160.338 228.036 159.3 228.667 157.224" fill="#00EBFF"/>
<path d="M138.216 80.6511C138.207 80.6631 138.073 80.8206 138.055 80.8381C138.105 80.7714 138.159 80.7082 138.218 80.6489" fill="#00EBFF"/>
<path d="M185.503 56.4161C185.489 56.4383 185.47 56.4562 185.446 56.4675C185.403 56.4785 185.358 56.4869 185.314 56.4926C185.327 56.466 185.35 56.4451 185.377 56.4336C185.42 56.422 185.463 56.4135 185.506 56.4084V56.4161M189.018 56.3286C189.008 56.3509 188.989 56.3684 188.967 56.3778C188.924 56.3906 188.881 56.4002 188.837 56.4063C188.841 56.3928 188.848 56.3804 188.858 56.3702C188.868 56.36 188.88 56.3521 188.893 56.3472C188.936 56.3341 188.979 56.325 189.022 56.3199V56.3286M188.694 53.1415C188.682 53.162 188.663 53.178 188.641 53.1875C188.602 53.1988 188.562 53.2076 188.522 53.2137C188.533 53.189 188.553 53.1695 188.579 53.159C188.618 53.147 188.658 53.139 188.699 53.135V53.1415M189.664 52.8299C189.654 52.8485 189.623 52.9076 189.605 52.9119C189.588 52.9163 189.612 52.8234 189.613 52.8223C189.635 52.792 189.659 52.7638 189.686 52.7381C189.697 52.7304 189.7 52.7315 189.699 52.7447C189.691 52.7745 189.68 52.8032 189.664 52.8299ZM189.964 52.9185C189.9 52.9775 189.879 52.9808 189.869 52.983C189.793 52.971 189.978 52.6211 190.04 52.5118C190.125 52.5555 190.105 52.6102 190.031 52.7184C189.967 52.8081 189.938 52.8562 189.984 52.8977L189.964 52.9185ZM194.935 52.96C194.872 53.0694 194.795 52.9786 194.746 52.9196C194.676 52.8343 194.637 52.796 194.62 52.8693C194.599 52.8496 194.579 52.831 194.578 52.76C194.583 52.669 194.594 52.5784 194.611 52.4888C194.671 52.479 194.857 52.4484 194.928 52.5522C194.954 52.5924 194.967 52.6397 194.966 52.6878C194.966 52.7808 194.955 52.8736 194.935 52.9644M197.688 51.4808C197.685 51.4908 197.68 51.5002 197.673 51.5081C197.666 51.516 197.657 51.5223 197.648 51.5267C197.612 51.5369 197.575 51.5446 197.539 51.5496C197.541 51.5397 197.546 51.5304 197.552 51.5223C197.559 51.5143 197.567 51.5075 197.576 51.5026C197.613 51.4893 197.652 51.4798 197.692 51.4742V51.4808M185.27 51.4939C185.238 51.5343 185.225 51.5354 185.219 51.5365C185.19 51.5365 185.213 51.4458 185.213 51.4458C185.213 51.4458 185.227 51.4337 185.233 51.4294L185.255 51.4097C185.301 51.3747 185.323 51.3714 185.319 51.3998C185.309 51.4342 185.293 51.4661 185.27 51.4939ZM192.517 50.9822C192.222 51.0223 191.93 51.0807 191.642 51.1571C191.572 51.3255 191.568 51.3955 191.625 51.4545C191.515 51.4786 191.445 51.4217 191.337 51.3364C191.268 51.2692 191.184 51.2185 191.093 51.1882C191.001 51.1579 190.904 51.1488 190.808 51.1615C191.118 51.0691 191.417 50.9457 191.702 50.793C191.601 50.9155 191.614 50.933 191.702 50.9341H191.711C191.794 50.9341 191.812 50.945 191.777 51.0128C191.862 50.9592 191.972 50.9505 192.04 50.8663C192.082 50.9111 192.149 50.9264 192.423 50.9538C192.457 50.9564 192.491 50.9615 192.524 50.9691C192.52 50.9743 192.514 50.9787 192.508 50.9822M193.409 50.7143C193.236 50.845 193.032 50.9286 192.816 50.957C192.779 50.9584 192.741 50.9509 192.707 50.9352C192.755 50.8995 192.809 50.8725 192.867 50.8554L192.889 50.8477C192.998 50.8182 193.107 50.8083 193.217 50.7799C193.274 50.7664 193.33 50.7439 193.381 50.7132C193.39 50.7092 193.399 50.7059 193.409 50.7034L193.404 50.7121M193.934 50.4858C193.905 50.5134 193.872 50.5362 193.836 50.5536C193.764 50.5941 193.739 50.6104 193.727 50.6378C193.631 50.5951 193.669 50.5623 193.777 50.5022C193.845 50.4639 193.873 50.4464 193.887 50.4191C193.915 50.4311 193.96 50.4508 193.935 50.4858M187.135 50.0769C187.12 50.0952 187.1 50.1098 187.079 50.1195C187.042 50.1282 187.006 50.1348 186.969 50.1392C186.984 50.1203 187.002 50.1053 187.024 50.0955C187.062 50.0851 187.1 50.0767 187.139 50.0703L187.133 50.0769M187.37 50.0769C187.355 50.0951 187.335 50.1093 187.312 50.1185C187.276 50.1274 187.24 50.1344 187.203 50.1392C187.218 50.1197 187.238 50.1042 187.26 50.0944C187.298 50.0832 187.337 50.0748 187.377 50.0693L187.372 50.0769M200.524 49.5073C200.48 49.5508 200.421 49.5762 200.359 49.5783C200.272 49.5783 200.261 49.5335 200.284 49.5127C200.307 49.492 200.37 49.4712 200.538 49.4974L200.524 49.5073ZM202.855 48.4281C202.866 48.3924 202.873 48.3558 202.876 48.3188C202.761 48.1985 202.761 48.1985 202.098 48.1942C201.952 47.935 201.952 47.935 201.967 47.8093C201.42 47.853 200.873 47.7437 200.327 47.8356L200.436 47.7918C199.742 47.6242 199.032 47.5358 198.318 47.5283C197.976 47.5442 197.643 47.6421 197.346 47.8137C196.386 47.5493 195.365 47.6026 194.438 47.9657C194.391 47.9409 194.34 47.9261 194.287 47.9222C194.235 47.9183 194.182 47.9254 194.132 47.9431C194.083 47.9608 194.037 47.9887 193.999 48.025C193.96 48.0612 193.93 48.1051 193.91 48.1537L193.865 48.1646C193.393 48.099 193.44 48.6938 193.113 48.8294C193.103 48.8196 192.149 47.9165 191.738 48.6862C191.381 48.6129 191.192 48.9212 190.911 49.035C190.905 48.9956 190.9 48.9431 190.894 48.9027C190.542 48.6676 189.813 49.1519 189.782 49.1727C189.282 48.9792 188.588 49.4384 188.387 49.5838C188.642 49.8178 188.886 49.4909 189.139 49.5729C189.056 49.5788 188.974 49.6012 188.899 49.6387C188.824 49.6762 188.757 49.7281 188.702 49.7915C188.764 49.8333 188.836 49.8585 188.91 49.8648C188.825 50.0343 188.537 50.1316 188.654 50.3732C188.736 50.3885 188.819 50.3885 188.901 50.3732C189.069 51.0609 189.754 50.84 190.039 50.7132C189.93 50.8543 189.959 50.9013 190.059 51.0041C190.258 50.9581 190.375 50.7744 190.562 50.7088C190.468 50.9275 190.468 50.9275 190.562 51.0784C190.343 51.1332 190.113 51.1332 189.894 51.0784C189.621 51.3845 189.666 51.9268 189.15 52.0493C189.308 51.8984 189.369 51.6808 189.513 51.5212L189.372 51.5015C189.355 51.3189 189.426 51.1451 189.424 50.9647C188.986 51.0073 188.986 51.0073 188.641 51.3747C188.635 51.2804 188.65 51.1859 188.683 51.0974C188.716 51.0089 188.767 50.9283 188.833 50.8608C188.646 50.8163 188.451 50.8122 188.262 50.8488C187.864 49.8451 187.864 49.8451 187.715 49.785C187.228 49.5882 187.041 50.16 186.646 50.1961C185.97 50.2562 185.662 50.9166 185.074 51.1309C185.046 51.2093 185.009 51.2844 184.965 51.355H184.85C184.522 51.7628 184.542 51.8645 184.581 52.046L184.774 52.1083C184.665 52.1954 184.57 52.2982 184.492 52.4134C184.621 52.5752 184.621 52.5752 186.022 52.4965C185.665 52.7523 185.17 52.7086 184.845 53.0355C184.915 53.3865 184.915 53.3864 184.962 53.4728C185.057 53.503 185.157 53.5178 185.257 53.5166C185.154 53.5983 185.085 53.7151 185.063 53.8446C185.316 54.0274 185.614 54.1372 185.925 54.1616C186.236 54.1861 186.548 54.1245 186.826 53.9834C186.84 54.0151 186.854 54.0567 186.866 54.0927L186.999 54.1452C187.158 54.0564 187.307 53.9509 187.444 53.8303C187.881 53.9287 188.029 53.4575 188.368 53.3646C187.841 53.8817 187.841 53.8817 187.751 54.1638C188.724 54.5421 188.724 54.5421 188.383 54.8953C188.586 54.3486 187.876 54.2513 187.451 54.4328C187.114 54.5782 186.795 54.716 187.154 55.3239C186.676 55.6005 186.09 55.595 185.623 55.8968C185.624 55.8146 185.604 55.7336 185.566 55.6606C185.361 55.7951 185.102 55.8476 184.949 56.0618C184.528 55.8268 184.153 56.1581 183.746 56.1559C183.329 55.5371 183.191 55.3293 181.797 55.6234C181.715 55.7856 181.601 55.929 181.461 56.0444C182.008 56.7113 182.209 56.9606 183.293 56.6523C183.261 56.8031 183.261 56.8031 183.403 57.434C183.145 57.6658 183.145 57.6658 182.702 58.4967H182.857C182.876 58.629 182.876 58.629 182.792 58.9472C184.67 58.98 184.67 58.98 184.938 58.7701C184.832 58.8997 184.764 59.0553 184.739 59.2205C185.4 59.2526 186.062 59.2292 186.719 59.1506C187.265 58.9942 187.686 58.0004 188.278 58.5241C188.293 58.6736 188.254 58.8237 188.169 58.9472C188.399 59.1254 188.399 59.1254 190.027 59.027C190.324 58.6454 190.585 58.2376 190.89 57.8626C189.93 56.872 188.041 57.2066 186.711 57.7926C186.483 57.6441 186.223 57.5509 185.952 57.5206C185.682 57.4902 185.408 57.5234 185.152 57.6177C185.194 57.5521 185.194 57.5521 185.106 56.9201C185.364 56.989 185.474 56.883 185.665 56.5298C186.549 56.6118 187.435 56.6479 188.316 56.7485C188.418 56.5836 188.578 56.4625 188.764 56.4084C189.106 56.8141 189.455 56.7441 190.418 56.485C190.329 56.602 190.228 56.7113 190.141 56.8305C190.913 56.7334 191.673 56.5568 192.409 56.3035C192.49 56.1958 192.548 56.0715 192.577 55.9394C192.606 55.8072 192.606 55.6703 192.577 55.5382C192.39 55.5216 192.203 55.5732 192.051 55.6836C191.942 55.4463 191.959 55.4255 192.056 55.2921C192.698 55.3752 192.782 54.7302 193.156 54.4645C193.793 54.6154 194.232 54.1299 194.771 53.967C194.86 53.6773 195.108 53.4925 195.263 53.2465C195.205 53.1642 195.142 53.0854 195.075 53.0103C195.386 52.7436 195.386 52.7436 195.281 52.4637C195.344 52.4233 195.415 52.3954 195.489 52.3817C195.504 52.3521 195.522 52.3128 195.537 52.2833C195.489 52.2231 195.452 52.1555 195.427 52.0832C196.052 51.6568 196.756 52.2363 197.389 51.9279C198.175 51.5431 198.667 50.7537 199.495 50.4257C199.584 50.3963 199.675 50.3733 199.768 50.3568C200.31 50.2593 200.812 50.0041 201.21 49.6232C201.195 49.5904 201.175 49.5477 201.161 49.5138C201.048 49.4892 200.931 49.4848 200.816 49.5007C201.445 49.2274 202.119 49.0809 202.759 48.8447C202.78 48.7026 202.817 48.5633 202.869 48.4292" fill="#00EBFF"/>
<path d="M260.125 59.3603C260.161 59.3942 260.172 59.4084 260.181 59.416C260.19 59.4237 260.19 59.4412 260.197 59.4532C260.174 59.4327 260.152 59.4108 260.131 59.3876C260.123 59.3778 260.123 59.3636 260.116 59.3526L260.125 59.3603ZM257.891 57.2381C257.912 57.2545 257.932 57.2724 257.951 57.2917C257.96 57.3026 257.966 57.3157 257.975 57.3267C257.951 57.3081 257.928 57.288 257.907 57.2665C257.898 57.2567 257.894 57.2425 257.884 57.2304L257.891 57.2381ZM257.479 56.8904C257.505 56.9094 257.528 56.931 257.549 56.9549C257.559 56.9659 257.558 56.9691 257.557 56.9713V56.9812C257.53 56.9591 257.504 56.9354 257.48 56.9101C257.469 56.8992 257.471 56.8959 257.472 56.8926V56.8817L257.481 56.8904M256.54 56.031L256.587 56.0682C256.593 56.0714 256.598 56.0759 256.601 56.0813C256.524 56.03 256.451 55.9722 256.383 55.9086C256.395 55.9086 256.545 56.03 256.546 56.031M252.541 52.7958L250.953 51.7266L250.98 51.7451C251.696 52.2308 252.382 52.7576 253.036 53.3228L252.917 53.2529C253.914 54.0619 254.519 54.5485 254.713 54.6983C254.699 54.6841 254.68 54.6677 254.668 54.6534C254.84 54.7628 254.996 54.8951 255.165 55.0099L255.113 54.9716C255.155 54.9971 255.196 55.0249 255.235 55.0547L255.183 55.047L255.199 55.0973C255.124 55.068 255.053 55.0278 254.99 54.9782C256.038 55.8091 256.968 56.7767 258.013 57.6142C257.974 57.604 257.937 57.5873 257.904 57.565C258.438 58.1449 259.016 58.6833 259.632 59.1755C259.576 59.1166 259.517 59.0612 259.455 59.0093C259.611 59.0924 259.708 59.2477 259.855 59.3439C259.825 59.309 259.796 59.2725 259.77 59.2345C260.426 59.3373 260.696 59.9999 261.243 60.2634C261.221 60.1858 261.221 60.1858 261.041 60.0021C261.168 60.1208 261.308 60.2246 261.458 60.3115C261.413 60.2175 261.413 60.2175 261.219 60.025L261.166 60.036C259.221 58.3632 257.339 56.6226 255.332 55.0186L255.38 55.0492C255.236 54.9063 255.08 54.7747 254.915 54.6556L254.961 54.6895C254.912 54.6469 254.862 54.6064 254.809 54.5649C254.878 54.6108 254.945 54.6589 255.012 54.7059C252.964 53.0812 252.964 53.0812 252.543 52.7937" fill="#00EBFF"/>
<path d="M275.739 160.18C275.746 160.154 275.755 160.129 275.764 160.104C275.609 160.165 275.53 160.412 275.45 160.556C274.344 162.49 271.679 166.159 271.654 166.192C270.896 167.379 269.965 168.444 268.891 169.353C268.918 169.203 270.645 166.471 270.663 166.447C271.351 165.438 272.217 164.555 272.835 163.495C273.437 162.296 274.211 161.191 275.131 160.215C276.161 159.02 277.025 157.691 277.7 156.265C277.162 157.635 276.505 158.955 275.738 160.212C275.738 160.203 275.738 160.191 275.744 160.183" fill="#00EBFF"/>
<path d="M272.314 102.113C272.291 102.049 272.264 101.987 272.233 101.927C272.249 101.96 272.263 101.995 272.278 102.029C272.287 102.056 272.299 102.082 272.313 102.107M272.231 101.917C272.216 101.886 272.199 101.854 272.182 101.823L272.226 101.912M272.166 101.803L272.178 101.823C272.102 101.675 272.008 101.536 271.898 101.41C271.898 101.433 271.922 101.463 271.988 101.544C272.054 101.624 272.114 101.71 272.169 101.798" fill="#00EBFF"/>
<path d="M253.097 87.9167C253.115 88.0151 253.056 87.9977 252.987 87.9758C252.86 87.9364 252.824 87.9594 252.878 88.1693C252.863 88.1674 252.85 88.1627 252.837 88.1554C252.824 88.1481 252.813 88.1383 252.805 88.1267L252.797 88.1146C252.736 88.0403 252.719 87.943 252.667 87.8654C252.629 87.8096 252.591 87.803 252.578 87.803C252.537 87.803 252.469 87.7156 252.469 87.7079C252.469 87.7003 252.503 87.7003 252.613 87.7331C252.849 87.8041 252.972 87.8151 253.051 87.7702C253.072 87.8174 253.088 87.8664 253.1 87.9167M252.044 86.7512C252.092 86.9142 252.044 87.0355 251.906 86.959L251.891 86.9502V86.9349L251.885 86.9185V86.9043L251.88 86.889V86.8737L251.874 86.8573V86.842L251.869 86.8267V86.8103L251.863 86.7961L251.858 86.7808L251.852 86.7644V86.7491V86.7337L251.847 86.7184L251.841 86.7031C251.851 86.7042 251.861 86.7042 251.871 86.7031C251.916 86.6944 251.92 86.6725 251.899 86.5719C251.976 86.5468 252.044 86.6474 252.074 86.7501M256.975 86.35C256.967 86.1942 256.924 86.0422 256.849 85.9054C256.774 85.7686 256.669 85.6505 256.542 85.56C256.415 85.4696 256.269 85.409 256.115 85.383C255.961 85.357 255.804 85.3661 255.654 85.4097C255.506 85.191 255.352 84.9614 254.47 83.6123C254.208 83.7303 253.173 83.1509 253.038 82.0936C253.284 82.2992 253.207 82.93 253.639 82.8207C253.628 82.4806 253.64 82.1403 253.673 81.8017C253.315 81.7383 252.952 81.8432 252.595 81.7744C252.314 81.7402 252.048 81.6264 251.829 81.4463C251.939 79.7779 251.939 79.7779 251.696 79.4958C251.556 79.3329 251.04 79.4127 250.874 79.4379C250.598 79.5247 250.3 79.5003 250.042 79.3701C250.505 79.1634 250.493 78.7042 250.001 77.9258C249.978 77.9586 249.951 78.0023 249.929 78.0351C249.665 78.3883 249.432 78.5151 248.683 78.3752C248.709 78.8617 248.573 79.3384 248.597 79.826C248.552 79.7797 248.493 79.7477 248.43 79.7339C248.366 79.7201 248.3 79.7251 248.239 79.7482C248.178 79.7714 248.126 79.8118 248.087 79.8644C248.049 79.917 248.027 79.9797 248.023 80.0447C248.023 80.13 248.023 80.13 248.916 80.9008C248.619 81.1982 249.004 81.7208 249.318 81.981C248.737 81.9154 249.143 82.602 249.148 82.6086C249.174 82.6368 249.204 82.6601 249.237 82.6775C249.41 82.777 249.616 82.6665 249.789 82.7627C249.932 82.8436 249.869 83.0634 250.037 83.1268C250.133 83.1629 250.216 83.0853 250.269 83.0339C250.353 82.9563 250.364 82.9595 250.438 82.9825C250.461 83.1601 250.469 83.3393 250.462 83.5182C250.649 83.6293 250.861 83.6932 251.078 83.7044C251.296 83.7157 251.513 83.6739 251.711 83.5827C251.74 83.6959 251.78 83.8058 251.832 83.9107C252.031 84.2202 252.413 84.3328 252.625 84.628C252.735 84.7799 252.625 84.9658 252.701 85.1233C252.427 85.2556 252.427 85.2556 251.637 85.1954C251.681 85.8908 251.685 85.9608 251.255 85.8514C251.494 86.4619 251.693 87.0867 251.853 87.7221C252.334 87.8457 252.334 87.8457 252.429 87.9408C252.439 87.9769 252.451 88.0141 252.462 88.0501C252.473 88.0862 252.485 88.1234 252.497 88.1595L252.53 88.2688L252.564 88.3781C252.575 88.4153 252.586 88.4525 252.599 88.4875C252.608 88.5244 252.619 88.5609 252.632 88.5968C252.643 88.6329 252.653 88.669 252.665 88.7061C252.677 88.7433 252.687 88.7794 252.699 88.8155C252.579 89.0341 252.313 89.103 252.205 89.3272C252.109 89.5327 252.125 89.6005 252.191 89.8859C252.375 89.8225 252.509 89.9711 252.675 89.9952C253.171 89.4343 253.247 89.3479 253.919 89.5163C253.809 88.3792 255.449 89.0112 255.465 89.0177C255.888 88.611 256.121 88.4241 256.423 88.9489C256.464 88.7302 256.513 88.6591 256.872 88.5039C257.091 88.4098 257.171 88.3738 257.183 87.6008C257.001 87.4816 256.746 87.5461 256.583 87.3821C256.74 87.2641 256.86 87.1037 256.928 86.9198C256.997 86.736 257.011 86.5364 256.97 86.3445" fill="#00EBFF"/>
<path d="M263.969 81.613C263.969 81.613 263.969 81.6676 263.963 81.6621C263.955 81.6464 263.949 81.6299 263.945 81.613H263.961H263.969ZM287.258 115.229L287.251 115.219V115.244V115.252C287.252 115.244 287.252 115.236 287.251 115.228M284.955 101.267C285.316 102.925 285.363 103.139 285.222 103.275C285.162 103.275 285.106 103.226 284.916 102.901C284.725 102.577 284.727 102.573 284.672 102.488C284.629 102.423 284.563 102.379 284.533 102.304L284.292 101.353C284.272 101.244 284.307 101.143 284.292 101.038C284.245 100.72 284.163 100.409 284.105 100.093C284.215 99.9581 284.194 99.4978 284.383 99.6553C284.694 99.9089 284.483 100.359 284.756 100.626C284.767 100.606 284.772 100.583 284.771 100.559C284.84 100.786 284.874 100.9 284.957 101.269M276.038 100.53C276.013 100.653 276.025 100.781 276.074 100.896C276.178 101.187 276.238 101.493 276.252 101.802C276.132 101.642 276.019 101.68 275.77 101.81C275.451 101.978 275.342 101.892 275.261 101.416C275.31 101.46 275.374 101.484 275.44 101.482C275.645 101.418 275.658 101.214 275.723 100.242C275.866 100.275 275.891 100.594 276.043 100.483C276.043 100.497 276.043 100.516 276.038 100.53ZM284.238 98.2186C284.182 98.1398 284.132 98.0568 284.088 97.9704C284.028 97.806 283.976 97.6385 283.933 97.4686C283.907 97.3702 283.897 97.3527 283.88 97.3429C283.864 97.333 283.88 97.3177 283.88 97.3122C284.017 97.614 284.129 97.9263 284.216 98.246L284.208 98.2328M269.141 97.0302C269.146 97.0553 269.154 97.0914 269.159 97.1187C269.133 97.1326 269.104 97.1411 269.074 97.1439C268.946 97.1439 268.879 97.0706 268.762 96.9022C268.645 96.7339 268.572 96.6508 268.45 96.6486C268.682 96.4059 268.997 96.4201 269.141 97.0302ZM268.364 96.3742C268.254 96.29 268.145 96.2123 268.041 96.1325C268.051 96.1424 268.066 96.1544 268.077 96.1631L268.296 96.325C268.32 96.3424 268.341 96.3599 268.365 96.3742M281.978 91.7821C282.064 92.0259 282.135 92.2741 282.218 92.5201C282.184 92.465 282.139 92.4174 282.086 92.3802C282.026 92.4523 282.019 92.4589 282.105 92.9356C282.19 93.4123 282.186 93.4506 282.16 93.585C282.175 93.6233 282.187 93.6627 282.2 93.7009C282.213 93.7392 282.226 93.7764 282.24 93.8103C282.254 93.8442 282.265 93.8868 282.279 93.9262C282.292 93.9655 282.305 94.0016 282.317 94.0355L282.356 94.1448C282.368 94.1831 282.38 94.2225 282.394 94.2607C282.409 94.299 282.42 94.3373 282.433 94.3766C282.446 94.416 282.459 94.4532 282.471 94.486C282.57 94.7046 282.598 94.7112 282.648 94.7145C283.207 95.9768 283.695 97.2689 284.112 98.5849C284.033 98.6494 284.033 98.6494 284.045 99.2147C283.86 98.5193 283.795 98.481 283.678 98.4679C283.632 98.3258 283.569 98.1399 283.517 97.9967C283.492 97.9355 283.458 97.8513 283.432 97.7889C283.245 97.3385 282.988 96.9219 282.783 96.4769C282.622 95.8978 282.422 95.3302 282.186 94.7779C281.784 94.2168 281.619 93.5209 281.725 92.8394C281.644 92.4295 281.592 92.0145 281.569 91.5974C281.598 91.0999 281.807 91.3196 281.809 91.3218C281.812 91.324 281.899 91.5154 281.983 91.7592M278.572 92.3058C278.608 92.5836 278.66 92.8589 278.73 93.1302C278.597 93.0922 278.46 93.072 278.323 93.0701C278.284 93.0788 278.249 93.0988 278.222 93.1274C278.195 93.156 278.177 93.192 278.171 93.2308C277.971 92.5507 278.043 92.4502 278.199 92.3179C278.254 92.2763 278.296 92.2218 278.324 92.1593C278.352 92.0969 278.363 92.0284 278.358 91.9603C278.417 91.9988 278.467 92.0495 278.505 92.1092C278.543 92.1688 278.567 92.2359 278.576 92.3058M264.141 82.6986C264.163 82.7416 264.175 82.7891 264.176 82.8374C264.177 82.8857 264.167 82.9336 264.147 82.9774C264.127 83.017 264.117 83.0603 264.116 83.1042C264.115 83.1482 264.124 83.1918 264.141 83.2322C264.062 83.2781 264.02 83.1764 263.957 83.0037C263.895 82.8309 263.848 82.7118 263.776 82.7653C263.776 82.7249 263.776 82.6713 263.812 82.656C263.841 82.6512 263.87 82.6554 263.896 82.668C263.928 82.6823 263.962 82.6883 263.997 82.6855C264.043 82.679 264.065 82.6582 264.094 82.6013C264.11 82.633 264.127 82.6637 264.141 82.6965M266.745 78.3909C266.782 78.4673 266.814 78.5462 266.839 78.627C266.881 78.7571 266.907 78.8916 266.949 79.0228C266.817 78.8211 266.652 78.643 266.461 78.4958C266.318 78.3913 266.191 78.2673 266.083 78.1274C266.083 78.1274 266.072 77.9994 266.192 78.018C266.312 78.0366 266.52 78.217 266.498 78.0738C266.606 78.1563 266.692 78.2636 266.749 78.3865M265.248 75.898C265.273 75.9451 265.264 75.9615 265.262 75.9669C265.249 75.9954 265.214 75.9943 265.195 76.015C265.178 75.9912 265.17 75.9621 265.173 75.933C265.173 75.9177 265.196 75.9112 265.211 75.9046C265.223 75.9019 265.233 75.8962 265.242 75.8882L265.248 75.898ZM266.82 75.0879C266.833 75.1972 266.798 75.207 266.787 75.2092C266.713 75.2092 266.605 75.0474 266.637 75.0124C266.669 74.9775 266.781 75.0485 266.819 75.0704V75.0879M266.813 75.6859C266.617 75.5571 266.383 75.5003 266.15 75.5252C266.107 75.3667 266.082 75.324 266.013 75.3011C265.971 75.1655 265.957 75.0278 266.186 75.0299C266.21 75.1125 266.205 75.201 266.171 75.2803C266.203 75.3301 266.247 75.3707 266.299 75.3976C266.351 75.4245 266.41 75.4369 266.469 75.4334C266.609 75.4399 266.687 75.476 266.813 75.6859ZM265.836 69.3588C265.768 69.3067 265.703 69.2513 265.641 69.1926C265.656 69.2013 265.836 69.3588 265.836 69.3588ZM260.575 68.6219C260.939 69.1445 260.822 69.3129 260.752 69.4145C260.859 69.5067 260.955 69.6122 261.036 69.7283C260.832 70.1121 260.794 70.181 261.179 70.8731H261.143L261.109 70.8785C261.097 70.8779 261.084 70.8779 261.072 70.8785H261.036L261.001 70.884H260.965H260.929H260.892C260.918 70.6281 260.856 70.3709 260.717 70.1547C260.42 69.5709 260.006 69.0614 259.682 68.4928C259.819 68.3994 259.985 68.359 260.149 68.3791C260.313 68.3992 260.465 68.4785 260.575 68.6022M264.729 66.8867C264.984 67.4336 265.372 67.9079 265.858 68.2665C265.683 68.2191 265.517 68.1453 265.365 68.0479C264.789 67.7559 264.691 67.745 264.606 67.7931C264.575 67.9396 264.75 68.1889 265.419 68.952V68.9641C265.253 68.9198 265.09 68.8639 264.932 68.7968C264.622 68.4838 264.34 68.1451 264.089 67.7843C263.828 67.3912 263.51 67.039 263.146 66.7391C263.343 66.7429 263.537 66.786 263.717 66.8659C264.313 67.0638 264.679 67.1666 264.701 66.8058C264.712 66.8299 264.728 66.8594 264.738 66.8823M258.778 63.7904C258.836 63.8514 258.888 63.918 258.933 63.9894C258.865 63.927 258.8 63.8605 258.74 63.7904C258.719 63.7631 258.702 63.7334 258.689 63.7018C258.689 63.7018 258.703 63.7018 258.777 63.7915M270.666 69.8912C268.436 67.2366 265.357 63.7783 262.943 61.2866L262.912 61.2571L262.356 60.7279C262.902 61.4008 263.413 62.1019 263.886 62.8282C263.744 62.6927 263.552 62.5112 263.407 62.3756L263.132 62.1001C263.459 63.1604 264.023 64.1325 264.781 64.9428C264.395 64.7426 264.064 64.4504 263.819 64.0921C263.453 63.9259 263.439 63.9106 263.424 63.8932C263.409 63.8757 263.393 63.8603 263.377 63.845C263.36 63.8297 263.345 63.8112 263.33 63.7948C263.314 63.7784 263.298 63.7619 263.284 63.7455L263.238 63.6963L263.191 63.6482C263.176 63.6318 263.161 63.6154 263.145 63.599L263.099 63.5509L262.632 63.0185C263.069 64.0995 263.81 65.0308 264.765 65.6993C264.702 65.871 264.616 66.1006 264.552 66.2723C262.426 63.1333 255.578 60.1495 253.884 60.4524C253.82 60.8537 253.716 61.3872 253.625 61.7841L253.058 61.9864C252.716 64.3698 252.716 64.3699 252.809 64.5557C252.743 64.7449 252.655 64.9931 252.59 65.1822C252.706 65.3364 252.857 65.5386 252.969 65.6928L253.599 65.6392C253.882 66.6167 254.215 67.5766 254.507 68.5497L254.539 68.8329C254.453 69.502 254.593 70.1777 254.48 70.8479C254.304 70.9233 254.074 71.0261 253.899 71.1026C253.318 77.3522 256.11 78.9179 257.826 79.2962C258.024 79.6099 258.286 80.0309 258.482 80.3469C258.459 79.917 258.529 79.4873 258.688 79.0875C258.848 78.6876 259.092 78.3272 259.405 78.0312C260.746 79.2571 262.153 80.4086 263.621 81.4807C264.015 81.5812 264.015 81.5801 264.014 81.5791C264.163 81.4096 264.362 81.1844 264.512 81.016C264.261 79.1234 262.724 77.4921 263.363 75.4203C260.729 73.3571 260.729 73.3571 261.046 71.7565C264.845 76.0205 264.845 76.0205 265.211 76.12C264.993 76.5901 264.625 77.3752 266.742 81.6698L266.105 81.6578C265.822 81.9879 265.46 82.2414 265.053 82.3947C264.988 82.5806 264.9 82.832 264.834 83.0157C263.862 82.1662 262.719 81.5484 261.722 80.7361C261.648 80.8083 261.552 80.9045 261.479 80.9755C260.89 80.3361 260.392 79.6192 259.997 78.8446C259.612 78.9926 259.294 79.2758 259.103 79.6413C258.912 80.0067 258.86 80.4293 258.958 80.8301L258.893 81.0564H258.888C259.408 82.129 260.13 83.089 260.643 84.1648L260.156 83.6826C259.686 84.3058 259.181 84.9015 258.643 85.467C258.514 85.8715 258.492 85.8726 258.469 85.8748L258.402 85.8803L258.335 85.8857H258.269H258.201C258.178 85.8857 258.156 85.8857 258.134 85.8857L258.066 85.8912H258C258.124 86.311 258.283 86.7195 258.476 87.1125C258.188 87.7127 257.479 88.0396 257.383 88.7656C257.4 88.9635 257.421 89.227 257.44 89.4216L256.838 89.6009C256.809 89.8021 256.77 90.0699 256.742 90.2711C256.368 90.1826 255.868 90.0863 255.486 90.0382C255.433 90.4652 255.515 90.8982 255.721 91.2759C253.925 91.0944 253.761 91.3918 253.436 91.9811C254.188 93.8573 256.498 94.2509 257.358 96.0265L256.798 96.3917L257.397 96.6399C257.467 97.0703 257.496 97.5062 257.486 97.942C251.857 98.598 251.857 98.598 251.521 98.8429C251.958 100.684 251.958 100.684 251.825 101.404L252.413 101.562C252.18 101.881 252.03 102.253 251.975 102.644C252.091 102.786 252.249 102.972 252.368 103.117C252.227 104.429 252.981 105.589 253.052 106.868C253.671 106.835 254.288 106.787 254.911 106.751C255.154 107.086 255.424 107.399 255.719 107.689C260.453 107.081 260.556 105.167 260.764 101.353C262.642 100.413 262.464 100.008 261.871 98.6658C262.706 98.4329 263.583 98.7445 264.414 98.4603C264.473 98.2514 264.551 97.9704 264.61 97.7616C264.967 97.5666 265.245 97.2551 265.399 96.8793C265.74 97.0462 266.029 97.302 266.235 97.6195C266.442 97.9371 266.56 98.3046 266.575 98.6833C269.199 98.4329 271.2 103.074 271.212 103.122C270.672 103.645 270.616 103.7 269.538 103.641C269.488 103.929 269.421 104.315 269.371 104.605C269.601 104.904 269.601 104.904 271.171 106.005C271.631 104.521 271.78 102.958 271.609 101.413L271.898 100.891C271.475 99.5656 269.841 99.0671 269.615 97.6107C270.449 97.9 271.217 98.3519 271.875 98.9402C271.835 99.2682 271.801 99.7176 271.797 100.051C271.995 100.488 272.241 101.086 272.412 101.537C272.449 101.331 272.5 101.058 272.536 100.854C273.503 102.873 274.973 104.639 275.636 106.814C275.77 105.715 276.06 104.641 276.498 103.624L276.625 103.544C276.382 102.773 276.31 101.958 276.414 101.156L276.662 100.974L276.713 100.193C276.684 98.5783 276.684 98.5783 276.385 93.4265L276.978 93.5533C277.267 94.1562 277.615 94.7287 278.018 95.2622C278.353 94.97 278.664 94.652 278.949 94.311C279.675 95.0181 280.349 95.7758 280.967 96.5786C280.932 96.9991 281.03 97.4197 281.247 97.7813C281.209 97.9573 281.158 98.1891 281.118 98.364C280.298 98.2361 280.134 98.2099 279.356 97.3057C279.01 97.3904 278.696 97.5747 278.453 97.8358C278.21 98.097 278.049 98.4235 277.989 98.7751C277.869 98.6057 277.707 98.3794 277.585 98.2088C276.449 99.4279 276.449 99.4279 278.051 106.081C278.189 105.95 278.372 105.774 278.51 105.644L279.102 105.98C279.137 106.155 279.185 106.389 279.222 106.563C279.314 106.145 279.425 105.579 279.49 105.16C279.866 105.4 280.304 105.523 280.749 105.514L280.9 104.807C280.912 104.825 282.088 106.556 281.198 107.971C281.549 108.498 281.745 108.788 281.436 110.609C280.342 110.379 280.342 110.379 279.825 109.831C279.799 110.224 279.745 110.746 279.693 111.136C279.114 110.913 278.512 110.756 277.897 110.667C277.799 110.508 277.666 110.295 277.57 110.135L276.955 110.116C276.736 109.852 276.736 109.852 276.1 108.23C275.84 108.633 275.84 108.633 274.699 112.618C274.462 112.301 274.158 112.04 273.808 111.854C273.458 111.668 273.071 111.561 272.676 111.542C272.518 110.872 272.272 110.225 271.944 109.619L271.414 109.959L270.815 109.796C270.727 109.365 270.574 108.95 270.361 108.566L269.765 108.432C267.617 104.424 267.617 104.424 266.768 105.447C265.884 105.211 265.059 105.818 264.18 105.623L263.919 105.631L263.632 105.661L263.607 105.669L263.52 105.686L263.192 105.77C262.604 105.977 262.031 106.224 261.436 106.414C261.15 106.423 260.867 106.475 260.596 106.568L260.555 106.606L252.431 112.4C252.406 113.068 252.676 113.712 252.604 114.384L252.038 114.612C252.087 114.808 252.147 115.069 252.198 115.268L252.766 115.535C252.015 116.738 250.484 117.259 249.992 118.682C249.616 118.9 249.617 118.929 249.617 118.958V119.049V119.139C249.617 119.168 249.617 119.199 249.617 119.229V119.319V119.41C249.617 119.439 249.617 119.47 249.617 119.499V119.589C248.254 121.004 247.657 122.003 246.788 126.93C248.892 128.951 246.876 131.912 246.016 133.176C246.672 134.132 246.672 134.132 246.37 134.896C246.771 135.69 246.771 135.69 246.807 137.54C247.211 137.718 247.65 137.802 248.091 137.788C249.485 139.226 249.485 139.226 249.545 140.073C249.384 140.2 249.169 140.366 249.007 140.493C248.634 140.165 248.63 140.192 248.627 140.226L248.617 140.325C248.617 140.359 248.609 140.392 248.605 140.425C248.6 140.458 248.598 140.493 248.596 140.526C248.594 140.558 248.588 140.592 248.585 140.625C248.582 140.658 248.577 140.693 248.575 140.727C248.573 140.761 248.566 140.793 248.564 140.827L248.551 140.928C249.428 141.193 250.261 141.587 251.023 142.097C251.023 142.303 251.013 142.582 251.01 142.788C255.51 145.587 259.326 141.86 263.495 141.502C264.063 142.079 264.042 142.98 264.631 143.545L265.24 143.505C265.276 143.691 265.324 143.942 265.359 144.125C265.477 143.987 265.63 143.804 265.747 143.669C265.806 143.844 265.886 144.079 265.945 144.255L266.552 144.195C266.593 144.43 266.616 144.669 266.62 144.908C266.499 146.404 265.162 147.422 265.021 148.915C264.86 150.615 265.955 152.124 265.779 153.826C265.725 154.337 265.469 154.984 265.383 155.488C264.979 157.82 264.59 158.281 263.998 158.979C263.938 159.049 254.804 178.003 254.778 178.112C256.955 177.887 258.991 176.926 260.548 175.388H260.555C264.727 172.296 267.286 167.779 270.732 164.044C270.551 164.482 270.294 165.062 270.092 165.49C271.001 164.526 271.804 163.466 272.485 162.33L272.55 162.15H272.559C278.363 156.545 278.85 148.182 283.254 141.851L283.444 141.622C283.494 141.414 283.563 141.139 283.616 140.932C283.552 141.098 283.467 141.319 283.406 141.485L283.371 141.523C284.1 138.381 285.323 135.364 285.776 132.156C285.379 132.731 284.928 133.266 284.43 133.757C284.179 133.005 284.093 132.209 284.18 131.421C284.127 130.328 284.144 129.232 284.229 128.141L283.708 127.731C283.714 127.33 283.72 126.798 283.721 126.397C283.759 125.873 283.759 125.873 283.758 125.873C283.736 125.829 283.736 125.829 282.093 115.686C283.686 117.407 283.899 121.973 284.367 131.977L284.332 132.322C286.105 130.573 287.118 127.589 287.343 123.439L287.351 123.431L287.357 123.425L287.363 123.416L287.371 123.408V123.4L287.377 123.393L287.382 123.386V123.379C287.65 120.873 287.582 118.344 287.18 115.856C287.259 116.561 287.151 117.274 286.866 117.923C286.9 117.522 286.887 117.118 286.829 116.72C286.585 116.344 286.584 116.296 286.581 116.248C286.578 116.2 286.581 116.152 286.574 116.104C286.568 116.055 286.574 116.007 286.574 115.959C286.574 115.911 286.574 115.863 286.568 115.815C286.561 115.767 286.562 115.719 286.561 115.671L286.552 115.527C286.552 115.478 286.552 115.431 286.546 115.382L286.537 115.239C286.28 114.535 286.124 113.799 286.072 113.052C286.685 114.217 287.127 115.463 287.384 116.754C287.205 112.971 286.71 107.936 286.157 104.188C284.227 95.8308 284.227 95.8308 282.767 91.8193C279.574 83.9899 279.574 83.9899 277.541 80.3261C273.527 73.6993 272.91 72.6803 270.643 69.8737" fill="#00EBFF"/>
</g>
</g>
<defs>
<filter id="filter0_d_9_32815" x="0" y="30.1235" width="417.961" height="378.357" filterUnits="userSpaceOnUse" color-interpolation-filters="sRGB">
<feFlood flood-opacity="0" result="BackgroundImageFix"/>
<feColorMatrix in="SourceAlpha" type="matrix" values="0 0 0 0 0 0 0 0 0 0 0 0 0 0 0 0 0 0 127 0" result="hardAlpha"/>
<feOffset dy="4"/>
<feGaussianBlur stdDeviation="2"/>
<feComposite in2="hardAlpha" operator="out"/>
<feColorMatrix type="matrix" values="0 0 0 0 0 0 0 0 0 0 0 0 0 0 0 0 0 0 0.25 0"/>
<feBlend mode="normal" in2="BackgroundImageFix" result="effect1_dropShadow_9_32815"/>
<feBlend mode="normal" in="SourceGraphic" in2="effect1_dropShadow_9_32815" result="shape"/>
</filter>
<linearGradient id="paint0_linear_9_32815" x1="210.207" y1="85.0172" x2="206.349" y2="246.119" gradientUnits="userSpaceOnUse">
<stop stop-color="white" stop-opacity="0"/>
<stop offset="1" stop-color="#0190CA"/>
</linearGradient>
<linearGradient id="paint1_linear_9_32815" x1="188.479" y1="140.821" x2="167.841" y2="10.4765" gradientUnits="userSpaceOnUse">
<stop stop-color="white"/>
<stop offset="1" stop-color="#7CC6E4"/>
</linearGradient>
<linearGradient id="paint2_linear_9_32815" x1="298.327" y1="218.521" x2="287.355" y2="149.849" gradientUnits="userSpaceOnUse">
<stop stop-color="white"/>
<stop offset="1" stop-color="#7CC6E4"/>
</linearGradient>
<linearGradient id="paint3_linear_9_32815" x1="283.909" y1="215.176" x2="267.831" y2="114.174" gradientUnits="userSpaceOnUse">
<stop stop-color="white"/>
<stop offset="1" stop-color="#7CC6E4"/>
</linearGradient>
<linearGradient id="paint4_linear_9_32815" x1="233.524" y1="190.183" x2="207.235" y2="23.6141" gradientUnits="userSpaceOnUse">
<stop stop-color="white"/>
<stop offset="1" stop-color="#7CC6E4"/>
</linearGradient>
<linearGradient class="animate-globe" id="paint5_linear_9_32815" x1="149.068" y1="177.955" x2="267.705" y2="59.3183" gradientUnits="userSpaceOnUse">
<stop stop-color="#FFC610"/>
<stop offset="0.227" stop-color="#FFD431"/>
<stop offset="0.574" stop-color="#FFE85D"/>
<stop offset="0.844" stop-color="#FFF479"/>
<stop offset="1" stop-color="#FFF984"/>
</linearGradient>
<linearGradient id="paint6_linear_9_32815" x1="199.628" y1="135.468" x2="197.507" y2="10.2005" gradientUnits="userSpaceOnUse">
<stop stop-color="white"/>
<stop offset="1" stop-color="#7CC6E4"/>
</linearGradient>
<linearGradient id="paint7_linear_9_32815" x1="262.574" y1="176.521" x2="262.07" y2="17.3809" gradientUnits="userSpaceOnUse">
<stop stop-color="white"/>
<stop offset="1" stop-color="#7CC6E4"/>
</linearGradient>
</defs>
</svg>
