<svg xmlns="http://www.w3.org/2000/svg" width="1440" height="932" viewBox="0 0 1440 932" fill="none" class="injected-svg" data-src="/assets/hero-CkUokRhk.svg" xmlns:xlink="http://www.w3.org/1999/xlink" role="img">                                                                                                                                                                                     <style>
    .svg-elem-4, .svg-elem-5, .svg-elem-6, .svg-elem-7, .svg-elem-8, .svg-elem-9, .svg-elem-10, .svg-elem-11, .svg-elem-12, .svg-elem-13 {
        stroke-dasharray: 1000;
        stroke-dashoffset: 1000;
        animation: draw 3s linear forwards; 
    }

    .svg-elem-5 {
        animation-delay: 0.2s;
    }

    .svg-elem-6 {
        animation-delay: 0.4s;
    }

    .svg-elem-7 {
        animation-delay: 0.6s;
    }

    .svg-elem-8 {
        animation-delay: 0.8s;
    }

    .svg-elem-9 {
        animation-delay: 1s;
    }

    .svg-elem-10 {
        animation-delay: 1.2s;
    }

    .svg-elem-11 {
        animation-delay: 1.4s;
    }

    .svg-elem-12 {
        animation-delay: 1.6s;
    }

    .svg-elem-13 {
        animation-delay: 1.8s;
    }
    
    @keyframes draw {
        to {
            stroke-dashoffset: 0;
        }
    }

   
    .svg-elem-14, .svg-elem-15, .svg-elem-16 {
        stroke-dasharray: 2000;
        stroke-dashoffset: 2000;
        animation: draw-square 3s linear forwards; 
    }

    .svg-elem-14 {
        animation-delay: 2s; 
    }

    .svg-elem-15 {
        animation-delay: 2.5s; 
    }

    .svg-elem-16 {
        animation-delay: 3s;
    }

    @keyframes draw-square {
        to {
            stroke-dashoffset: 0;
        }
    }

</style>
<path d="M0 16H1440V890H0V16Z" fill="#C8CEDE"></path>
<path d="M0 0H1440V874H0V0Z" fill="#092346"></path>
<path d="M1365 874L1208 735" stroke="#4C73CC" stroke-linecap="round"></path>
<path d="M853 874L755 778" stroke="#4C73CC" stroke-linecap="round"></path>
<path d="M1365 882L1365 874" stroke="#4C73CC" stroke-linecap="round"></path>
<path d="M853 882L853 874" stroke="#4C73CC" stroke-linecap="round"></path>
<path d="M853 882L1365 882" stroke="#4C73CC" stroke-linecap="round"></path>
<path d="M586 874L686 778" stroke="#4C73CC" stroke-linecap="round"></path>
<path d="M586 882L586 874" stroke="#4C73CC" stroke-linecap="round"></path>
<path d="M71 874L232 735" stroke="#4C73CC" stroke-linecap="round"></path>
<path d="M71 882L71 874" stroke="#4C73CC" stroke-linecap="round"></path>
<path d="M586 882L71 882" stroke="#4C73CC" stroke-linecap="round"></path>
<path d="M1139.45 621.519C1137.95 621.519 1136.46 621.873 1135.13 622.58L1009.55 695.096C1008.56 695.669 1007.97 696.376 1007.97 696.999C1008 697.268 1008.12 697.538 1008.29 697.757C1008.46 697.976 1008.68 698.161 1008.95 698.262L1135.76 771.468C1137.63 772.546 1141.05 772.378 1143.23 771.115L1268.82 698.599C1269.81 698.026 1270.4 697.319 1270.4 696.696C1270.37 696.427 1270.25 696.157 1270.08 695.938C1269.91 695.719 1269.69 695.551 1269.42 695.433L1142.61 622.226C1141.64 621.721 1140.54 621.485 1139.43 621.519H1139.45ZM1138.94 774.163C1137.49 774.197 1136.04 773.86 1134.76 773.186L1007.95 699.98C1007.38 699.71 1006.91 699.289 1006.57 698.767C1006.24 698.245 1006.03 697.639 1006 697.016C1006 695.652 1006.94 694.338 1008.56 693.395L1134.14 620.879C1136.97 619.262 1141.11 619.094 1143.59 620.525L1270.4 693.732C1270.97 694.001 1271.44 694.422 1271.8 694.944C1272.13 695.467 1272.34 696.073 1272.37 696.696C1272.37 698.06 1271.43 699.373 1269.81 700.317L1144.23 772.833C1142.61 773.725 1140.79 774.18 1138.96 774.163H1138.94Z" fill="#1B69FF"></path>
<path d="M297.758 771.484C299.61 772.562 303.046 772.394 305.235 771.13L430.816 698.614C431.809 698.042 432.399 697.334 432.399 696.711C432.365 696.442 432.247 696.173 432.079 695.954C431.91 695.735 431.692 695.549 431.422 695.448L304.612 622.242C302.759 621.164 299.324 621.333 297.134 622.596L171.553 695.112C170.56 695.684 169.97 696.391 169.97 697.015C170.004 697.284 170.122 697.553 170.29 697.772C170.459 697.991 170.678 698.16 170.947 698.278L297.758 771.484ZM300.957 774.179C299.509 774.212 298.061 773.875 296.781 773.202L169.97 699.995C169.398 699.726 168.926 699.305 168.573 698.783C168.236 698.261 168.034 697.655 168 697.031C168 695.667 168.943 694.354 170.56 693.411L296.141 620.895C298.953 619.278 303.113 619.109 305.588 620.541L432.399 693.748C432.971 694.017 433.443 694.438 433.797 694.96C434.133 695.482 434.336 696.088 434.369 696.728C434.369 698.092 433.426 699.406 431.809 700.349L306.228 772.865C304.612 773.758 302.793 774.212 300.957 774.195V774.179Z" fill="#1B69FF"></path>
<path d="M720.826 536.078C718.165 536.062 715.538 536.718 713.197 537.981L499.135 661.558C497.232 662.67 496.121 664.051 496.121 665.364C496.188 665.954 496.407 666.509 496.744 666.981C497.097 667.453 497.552 667.84 498.091 668.076L714.224 792.865C717.576 794.785 723.689 794.516 727.596 792.259L941.658 668.665C943.561 667.554 944.673 666.173 944.673 664.859C944.605 664.27 944.386 663.714 944.049 663.242C943.696 662.771 943.241 662.384 942.702 662.148L726.569 537.358C724.8 536.432 722.83 535.994 720.826 536.045V536.078ZM719.984 796.284C717.609 796.351 715.269 795.795 713.18 794.684L497.047 669.894C496.188 669.49 495.447 668.85 494.908 668.042C494.369 667.25 494.066 666.324 494.016 665.364C494.016 663.276 495.498 661.238 498.074 659.756L712.136 536.163C716.767 533.485 723.554 533.232 727.613 535.573L943.746 660.363C944.605 660.767 945.346 661.407 945.885 662.198C946.424 662.99 946.727 663.916 946.778 664.876C946.778 666.964 945.296 669.002 942.719 670.501L728.657 794.095C725.996 795.56 723.015 796.301 719.984 796.284Z" fill="#1B69FF"></path>
<path d="M720 809L795.344 884H644.656L720 809Z" fill="#C8CEDE"></path>
<path d="M720 832L795.344 907H644.656L720 832Z" fill="white"></path>
<path opacity="0.5" d="M1051.02 703.976V680.8L1055.26 678.44C1056.45 685.669 1064.99 690.446 1072.12 691.431L1120.66 719.792L1141.85 727.43L1209.48 692.564L1207.92 691.672C1213.7 688.977 1216.81 682.807 1219.94 677.176L1224.49 679.889L1227.19 680.651V704.217C1227.19 707.228 1225.2 710.22 1221.24 712.506L1153.48 751.572C1145.55 756.144 1132.64 756.144 1124.71 751.572L1056.95 712.506C1053.05 710.257 1051.07 707.302 1051 704.347C1051 704.217 1051 704.087 1051 703.957L1051.02 703.976Z" fill="#5284D8"></path>
<path d="M1051.02 683.363V668.03L1055.26 665.67C1056.45 672.9 1064.99 677.676 1072.12 678.661L1120.66 707.022L1141.85 714.661L1209.48 679.795L1207.92 678.903C1213.7 676.208 1216.81 670.038 1219.94 664.406L1224.49 667.12L1227.19 667.882V683.605C1227.19 686.616 1225.2 689.608 1221.24 691.894L1153.48 730.96C1145.55 735.532 1132.64 735.532 1124.71 730.96L1056.95 691.894C1053.05 689.645 1051.07 686.708 1051 683.735C1051 683.605 1051 683.475 1051 683.345L1051.02 683.363Z" fill="url(#paint0_linear_1019_4638-18)"></path>
<path opacity="0.3" d="M1072.12 678.681L1120.66 707.042L1139.1 713.696V734.437C1134.09 734.53 1129.14 733.359 1124.71 730.998L1056.95 691.932C1053.05 689.684 1051.07 686.747 1051 683.773C1051 683.643 1051 683.513 1051 683.383V668.05L1054.89 665.895H1055.3C1056.62 673.013 1065.05 677.715 1072.12 678.681Z" fill="#0F054C"></path>
<path d="M1139.11 622.907L1146.66 620.918L1163.44 630.768L1219.95 664.426C1216.82 670.057 1213.72 676.227 1207.93 678.922L1143.72 641.901C1142.31 641.139 1140.73 640.767 1139.11 640.804V622.925V622.907Z" fill="url(#paint1_linear_1019_4638-19)"></path>
<path d="M1153.5 715.404L1221.26 676.338C1229.18 671.766 1229.18 664.313 1221.26 659.741L1153.51 620.675C1145.59 616.103 1132.68 616.103 1124.75 620.675L1056.99 659.741C1049.07 664.313 1049.07 671.766 1056.99 676.338L1124.75 715.404C1132.68 719.976 1145.59 719.976 1153.51 715.404H1153.5Z" fill="url(#paint2_linear_1019_4638-20)"></path>
<path d="M1056.97 676.337L1124.73 715.403C1132.66 719.975 1145.57 719.975 1153.49 715.403L1221.25 676.337C1224.81 674.293 1226.76 671.672 1227.13 668.996C1227.6 672.304 1225.64 675.724 1221.25 678.251L1153.49 717.317C1145.57 721.889 1132.66 721.889 1124.73 717.317L1056.97 678.251C1052.58 675.724 1050.63 672.304 1051.09 668.996C1051.46 671.672 1053.42 674.293 1056.97 676.337Z" fill="white"></path>
<path d="M1151.58 714.306L1219.34 675.24C1226.22 671.282 1226.22 664.814 1219.34 660.855L1151.6 621.789C1144.72 617.831 1133.53 617.831 1126.65 621.789L1058.89 660.855C1052.01 664.814 1052.01 671.282 1058.89 675.24L1126.63 714.306C1133.51 718.283 1144.7 718.265 1151.58 714.306ZM1132.58 625.209C1136.68 623.127 1141.53 623.127 1145.63 625.209L1213.37 664.275C1216.96 666.356 1216.96 669.72 1213.37 671.802L1145.61 710.868C1141.52 712.931 1136.68 712.931 1132.57 710.868L1064.81 671.802C1061.22 669.72 1061.22 666.356 1064.81 664.275L1132.57 625.209H1132.58Z" fill="url(#paint3_linear_1019_4638-21)"></path>
<path opacity="0.5" d="M1083.69 669.109V489H1194.5V669.109C1194.43 670.001 1193.89 670.763 1193.09 671.134L1142.54 700.295C1140.38 701.391 1137.83 701.391 1135.65 700.295L1085.1 671.134C1084.28 670.781 1083.74 670.001 1083.69 669.109Z" fill="url(#paint4_linear_1019_4638-22)"></path>
<path d="M1136.21 587.688L1109.53 602.5L1136.25 617.368L1162.89 602.5L1136.21 587.688Z" fill="#84B5EA"></path>
<path d="M1136.16 617.273L1136.21 645.226L1162.89 630.413V602.387L1136.16 617.255V617.273Z" fill="#4688CF"></path>
<path d="M1109.55 602.406V630.433L1136.21 645.226V617.293L1109.55 602.406Z" fill="#75AAE2"></path>
<path opacity="0.5" d="M213.019 703.976V680.8L217.261 678.44C218.451 685.669 226.991 690.446 234.117 691.431L282.658 719.792L303.849 727.43L371.479 692.564L369.916 691.672C375.702 688.977 378.809 682.807 381.935 677.176L386.493 679.889L389.191 680.651V704.217C389.191 707.228 387.2 710.22 383.237 712.506L315.477 751.572C307.552 756.144 294.64 756.144 286.714 751.572L218.954 712.506C215.047 710.257 213.074 707.302 213 704.347C213 704.217 213 704.087 213 703.957L213.019 703.976Z" fill="#5284D8"></path>
<path d="M213.019 683.363V668.03L217.261 665.67C218.451 672.9 226.991 677.676 234.117 678.661L282.658 707.022L303.849 714.661L371.479 679.795L369.916 678.903C375.702 676.208 378.809 670.038 381.935 664.406L386.493 667.12L389.191 667.882V683.605C389.191 686.616 387.2 689.608 383.237 691.894L315.477 730.96C307.552 735.532 294.64 735.532 286.714 730.96L218.954 691.894C215.047 689.645 213.074 686.708 213 683.735C213 683.605 213 683.475 213 683.345L213.019 683.363Z" fill="url(#paint5_linear_1019_4638-23)"></path>
<path opacity="0.3" d="M234.117 678.681L282.658 707.042L301.096 713.696V734.437C296.091 734.53 291.142 733.359 286.714 730.998L218.954 691.932C215.047 689.684 213.074 686.747 213 683.773C213 683.643 213 683.513 213 683.383V668.05L216.888 665.895H217.298C218.619 673.013 227.047 677.715 234.117 678.681Z" fill="#0F054C"></path>
<path d="M301.109 622.907L308.663 620.918L325.445 630.768L381.949 664.426C378.823 670.057 375.716 676.227 369.93 678.922L305.723 641.901C304.309 641.139 302.728 640.767 301.109 640.804V622.925V622.907Z" fill="url(#paint6_linear_1019_4638-24)"></path>
<path d="M315.496 715.404L383.256 676.338C391.182 671.766 391.182 664.313 383.256 659.741L315.515 620.675C307.589 616.103 294.677 616.103 286.751 620.675L218.991 659.741C211.065 664.313 211.065 671.766 218.991 676.338L286.751 715.404C294.677 719.976 307.589 719.976 315.515 715.404H315.496Z" fill="url(#paint7_linear_1019_4638-25)"></path>
<path d="M218.97 676.337L286.73 715.403C294.656 719.975 307.568 719.975 315.493 715.403L383.253 676.337C386.807 674.293 388.761 671.672 389.133 668.996C389.598 672.304 387.644 675.724 383.253 678.251L315.493 717.317C307.568 721.889 294.656 721.889 286.73 717.317L218.97 678.251C214.579 675.724 212.625 672.304 213.091 668.996C213.463 671.672 215.416 674.293 218.97 676.337Z" fill="white"></path>
<path d="M313.58 714.306L381.341 675.24C388.224 671.282 388.224 664.814 381.341 660.855L313.599 621.789C306.715 617.831 295.533 617.831 288.65 621.789L220.89 660.855C214.006 664.814 214.006 671.282 220.89 675.24L288.631 714.306C295.515 718.283 306.697 718.265 313.58 714.306ZM294.585 625.209C298.678 623.127 303.534 623.127 307.627 625.209L375.368 664.275C378.959 666.356 378.959 669.72 375.368 671.802L307.608 710.868C303.515 712.931 298.678 712.931 294.566 710.868L226.806 671.802C223.215 669.72 223.215 666.356 226.806 664.275L294.566 625.209H294.585Z" fill="url(#paint8_linear_1019_4638-26)"></path>
<path opacity="0.5" d="M245.688 669.109V489H356.5V669.109C356.426 670.001 355.886 670.763 355.086 671.134L304.536 700.295C302.377 701.391 299.829 701.391 297.652 700.295L247.101 671.134C246.283 670.781 245.743 670.001 245.688 669.109Z" fill="url(#paint9_linear_1019_4638-27)"></path>
<path d="M298.211 587.688L271.531 602.5L298.248 617.368L324.891 602.5L298.211 587.688Z" fill="#84B5EA"></path>
<path d="M298.156 617.273L298.212 645.226L324.892 630.413V602.387L298.156 617.255V617.273Z" fill="#4688CF"></path>
<path d="M271.547 602.406V630.433L298.208 645.226V617.293L271.547 602.406Z" fill="#75AAE2"></path>
<g style="mix-blend-mode:multiply" opacity="0.54">
<path d="M835.889 670.092C841.082 673.216 841.102 678.261 835.934 681.37L728.552 745.956C723.384 749.064 714.991 749.053 709.798 745.93L601.893 681.049C596.699 677.925 596.679 672.88 601.847 669.771L709.228 544.874C714.396 541.766 722.789 541.778 727.982 544.9L835.889 670.092Z" fill="#5CAEFF"></path>
</g>
<path d="M845.619 577.425C845.606 577.57 845.596 577.715 845.57 577.861C845.548 577.979 845.512 578.095 845.481 578.213C845.446 578.35 845.412 578.487 845.364 578.623C845.324 578.735 845.27 578.847 845.219 578.959C845.156 579.104 845.094 579.245 845.018 579.386C844.963 579.488 844.897 579.589 844.834 579.691C844.734 579.852 844.629 580.013 844.511 580.171C844.438 580.264 844.366 580.356 844.289 580.448C844.106 580.667 843.912 580.876 843.707 581.074C843.63 581.146 843.562 581.225 843.479 581.298C843.348 581.417 843.201 581.531 843.058 581.646C842.931 581.747 842.809 581.851 842.672 581.951C842.516 582.063 842.345 582.169 842.177 582.281C842.009 582.393 841.841 582.508 841.655 582.616L730.46 647.234C730.039 647.474 729.605 647.692 729.162 647.888C729.033 647.946 728.902 648 728.77 648.055C728.418 648.201 728.058 648.337 727.689 648.465C727.557 648.51 727.428 648.558 727.294 648.6C727.063 648.673 726.824 648.738 726.587 648.802C726.407 648.851 726.229 648.904 726.046 648.948C725.797 649.008 725.542 649.058 725.288 649.11C725.114 649.145 724.943 649.182 724.767 649.216C724.253 649.307 723.731 649.378 723.205 649.434C723.044 649.451 722.88 649.461 722.717 649.475C722.409 649.501 722.099 649.523 721.788 649.536C721.59 649.545 721.392 649.549 721.194 649.553C720.942 649.558 720.691 649.56 720.439 649.557C720.23 649.557 720.021 649.547 719.812 649.539C719.579 649.53 719.346 649.518 719.114 649.502C718.902 649.487 718.69 649.469 718.48 649.448C718.25 649.427 718.021 649.401 717.793 649.372C717.588 649.346 717.383 649.317 717.178 649.286C716.936 649.247 716.694 649.205 716.452 649.159C716.26 649.122 716.069 649.087 715.879 649.043C715.592 648.98 715.309 648.909 715.028 648.834C714.87 648.792 714.711 648.753 714.555 648.707C714.046 648.562 713.557 648.395 713.079 648.209C713.013 648.183 712.951 648.154 712.886 648.127C712.244 647.873 711.621 647.574 711.021 647.233L599.087 582.609C596.377 581.044 595.023 578.991 595.028 576.941L595 682.26C594.994 684.311 596.348 686.364 599.058 687.928L710.992 752.552C711.592 752.893 712.215 753.192 712.856 753.446C712.898 753.464 712.934 753.488 712.977 753.504C713.001 753.514 713.028 753.52 713.049 753.53C713.526 753.716 714.02 753.88 714.524 754.028C714.565 754.039 714.602 754.057 714.644 754.068C714.759 754.101 714.88 754.123 714.997 754.155C715.278 754.227 715.561 754.3 715.848 754.363C715.925 754.381 716 754.403 716.077 754.419C716.19 754.443 716.307 754.458 716.421 754.48C716.662 754.525 716.902 754.567 717.148 754.605C717.246 754.62 717.342 754.642 717.438 754.657C717.534 754.671 717.656 754.679 717.76 754.692C717.988 754.721 718.217 754.747 718.446 754.769C718.556 754.78 718.664 754.796 718.774 754.806C718.884 754.815 718.979 754.815 719.081 754.822C719.313 754.838 719.546 754.85 719.779 754.86C719.895 754.864 720.011 754.875 720.127 754.878C720.22 754.878 720.313 754.878 720.406 754.878C720.657 754.882 720.909 754.878 721.16 754.875C721.285 754.875 721.409 754.875 721.534 754.875C721.607 754.875 721.68 754.863 721.752 754.86C722.063 754.846 722.372 754.824 722.682 754.798C722.805 754.788 722.931 754.785 723.054 754.773C723.093 754.769 723.127 754.761 723.169 754.757C723.695 754.702 724.216 754.629 724.732 754.539C724.756 754.535 724.782 754.533 724.804 754.529C724.955 754.502 725.099 754.464 725.248 754.434C725.502 754.383 725.757 754.332 726.008 754.272C726.19 754.227 726.366 754.176 726.547 754.126C726.785 754.062 727.023 753.998 727.256 753.924C727.305 753.908 727.358 753.897 727.406 753.882C727.491 753.854 727.567 753.818 727.65 753.789C728.019 753.663 728.379 753.527 728.73 753.379C728.862 753.324 728.995 753.27 729.124 753.212C729.567 753.016 730 752.797 730.42 752.558L841.629 687.934L841.797 687.834C841.924 687.758 842.031 687.676 842.152 687.597C842.32 687.488 842.49 687.379 842.646 687.268C842.782 687.169 842.905 687.065 843.032 686.963C843.177 686.848 843.322 686.734 843.452 686.616C843.479 686.592 843.513 686.569 843.539 686.543C843.593 686.493 843.63 686.439 843.684 686.389C843.889 686.191 844.083 685.982 844.266 685.763C844.305 685.716 844.356 685.673 844.393 685.626C844.43 685.579 844.453 685.532 844.488 685.486C844.606 685.328 844.711 685.167 844.81 685.006C844.853 684.939 844.908 684.873 844.946 684.805C844.966 684.77 844.977 684.732 844.995 684.701C845.068 684.556 845.133 684.417 845.196 684.274C845.232 684.19 845.281 684.108 845.313 684.023C845.323 683.995 845.327 683.966 845.337 683.938C845.385 683.802 845.419 683.665 845.455 683.527C845.479 683.435 845.516 683.343 845.534 683.25C845.539 683.225 845.539 683.201 845.543 683.177C845.569 683.032 845.579 682.887 845.592 682.741C845.601 682.648 845.622 682.554 845.624 682.459C845.624 682.419 845.624 682.379 845.624 682.339L845.653 577.02C845.653 577.156 845.632 577.29 845.619 577.425Z" fill="url(#paint10_linear_1019_4638-28)"></path>
<path d="M841.597 571.352C846.984 574.462 847.013 579.501 841.66 582.615L730.462 647.233C725.11 650.343 716.411 650.343 711.024 647.233L599.09 582.608C593.703 579.498 593.674 574.459 599.027 571.349L710.225 506.727C715.577 503.617 724.276 503.617 729.663 506.727L841.597 571.352Z" fill="url(#paint11_linear_1019_4638-29)"></path>
<path d="M840.738 563.987C840.726 564.126 840.716 564.264 840.691 564.402C840.67 564.516 840.636 564.628 840.606 564.741C840.572 564.873 840.54 565.004 840.493 565.135C840.455 565.242 840.404 565.353 840.357 565.457C840.297 565.595 840.238 565.732 840.164 565.869C840.111 565.967 840.048 566.063 839.988 566.159C839.892 566.314 839.791 566.468 839.677 566.62C839.61 566.709 839.537 566.798 839.464 566.887C839.288 567.097 839.102 567.298 838.904 567.488C838.832 567.56 838.759 567.633 838.686 567.706C838.561 567.819 838.42 567.929 838.282 568.039C838.16 568.137 838.042 568.237 837.911 568.33C837.761 568.439 837.597 568.542 837.436 568.647C837.274 568.753 837.112 568.865 836.934 568.97L730.065 631.077C729.669 631.306 729.248 631.513 728.818 631.707C728.694 631.763 728.567 631.815 728.442 631.868C728.102 632.01 727.756 632.141 727.402 632.262C727.275 632.305 727.151 632.351 727.023 632.392C726.8 632.465 726.571 632.523 726.343 632.586C726.17 632.632 725.999 632.683 725.823 632.725C725.584 632.784 725.339 632.832 725.096 632.882C724.93 632.915 724.765 632.954 724.595 632.983C724.101 633.071 723.6 633.139 723.094 633.192C722.939 633.209 722.782 633.218 722.626 633.231C722.329 633.256 722.031 633.278 721.733 633.291C721.542 633.299 721.352 633.303 721.161 633.307C720.919 633.311 720.677 633.313 720.435 633.31C720.234 633.31 720.032 633.301 719.832 633.294C719.608 633.284 719.384 633.273 719.161 633.257C718.958 633.244 718.754 633.226 718.551 633.206C718.333 633.185 718.111 633.161 717.892 633.134C717.694 633.109 717.497 633.081 717.301 633.051C717.067 633.015 716.834 632.973 716.603 632.93C716.419 632.894 716.235 632.857 716.052 632.818C715.776 632.757 715.505 632.689 715.235 632.618C715.083 632.577 714.931 632.539 714.781 632.495C714.295 632.353 713.821 632.195 713.362 632.016C713.299 631.992 713.239 631.963 713.176 631.938C712.56 631.693 711.961 631.406 711.384 631.078L603.811 568.969C601.206 567.465 599.905 565.492 599.91 563.52L599.883 573.329C599.877 575.299 601.178 577.273 603.783 578.779L711.357 640.886C711.933 641.214 712.532 641.501 713.148 641.745C713.188 641.761 713.221 641.784 713.264 641.801C713.287 641.81 713.312 641.816 713.336 641.825C713.795 642.004 714.269 642.162 714.753 642.303C714.793 642.315 714.826 642.332 714.868 642.342C714.979 642.374 715.095 642.396 715.208 642.426C715.478 642.499 715.749 642.566 716.026 642.626C716.098 642.643 716.171 642.665 716.244 642.68C716.352 642.703 716.462 642.717 716.573 642.738C716.805 642.782 717.036 642.822 717.27 642.859C717.365 642.874 717.457 642.895 717.552 642.908C717.647 642.921 717.759 642.93 717.862 642.943C718.08 642.97 718.298 642.995 718.522 643.015C718.627 643.025 718.731 643.041 718.836 643.051C718.942 643.06 719.033 643.06 719.131 643.066C719.354 643.082 719.577 643.094 719.802 643.102C719.914 643.107 720.025 643.117 720.137 643.12C720.226 643.12 720.316 643.12 720.404 643.12C720.646 643.124 720.888 643.12 721.131 643.12C721.25 643.12 721.37 643.12 721.49 643.12C721.563 643.12 721.631 643.109 721.702 643.105C722.001 643.092 722.298 643.071 722.595 643.046C722.714 643.036 722.835 643.034 722.954 643.022C722.991 643.022 723.027 643.011 723.064 643.007C723.572 642.954 724.071 642.885 724.565 642.798C724.589 642.793 724.614 642.792 724.638 642.787C724.783 642.762 724.921 642.725 725.063 642.696C725.308 642.647 725.553 642.598 725.794 642.54C725.969 642.498 726.139 642.448 726.312 642.401C726.541 642.339 726.77 642.277 726.993 642.207C727.041 642.191 727.091 642.18 727.139 642.165C727.219 642.139 727.293 642.103 727.373 642.076C727.727 641.956 728.073 641.825 728.411 641.683C728.538 641.63 728.665 641.578 728.79 641.521C729.215 641.333 729.631 641.122 730.035 640.891L836.902 578.788C836.956 578.756 837.01 578.724 837.063 578.692C837.184 578.62 837.288 578.54 837.404 578.465C837.565 578.36 837.73 578.256 837.879 578.147C838.01 578.052 838.127 577.953 838.25 577.857C838.388 577.746 838.528 577.639 838.654 577.523C838.68 577.5 838.712 577.478 838.737 577.455C838.789 577.407 838.825 577.355 838.874 577.31C839.072 577.12 839.259 576.919 839.434 576.709C839.471 576.664 839.52 576.622 839.556 576.576C839.592 576.531 839.613 576.487 839.647 576.443C839.76 576.29 839.861 576.136 839.957 575.981C839.998 575.916 840.051 575.853 840.088 575.787C840.106 575.755 840.117 575.72 840.134 575.688C840.207 575.552 840.267 575.415 840.327 575.277C840.362 575.197 840.409 575.118 840.44 575.037C840.45 575.01 840.453 574.982 840.463 574.955C840.509 574.824 840.542 574.692 840.576 574.561C840.599 574.471 840.635 574.383 840.653 574.293C840.658 574.27 840.657 574.246 840.661 574.221C840.687 574.083 840.696 573.944 840.708 573.805C840.716 573.715 840.737 573.625 840.74 573.535C840.74 573.496 840.74 573.457 840.74 573.418L840.767 563.609C840.771 563.73 840.75 563.858 840.738 563.987Z" fill="url(#paint12_linear_1019_4638-30)"></path>
<path d="M836.866 558.154C842.043 561.143 842.07 565.985 836.927 568.975L730.06 631.078C724.917 634.067 716.557 634.067 711.379 631.078L603.807 568.971C598.63 565.982 598.602 561.139 603.746 558.151L710.612 496.046C715.755 493.058 724.116 493.058 729.293 496.046L836.866 558.154Z" fill="url(#paint13_linear_1019_4638-31)"></path>
<path d="M845.619 509.329C845.606 509.474 845.596 509.619 845.57 509.765C845.548 509.883 845.512 509.999 845.481 510.117C845.446 510.254 845.412 510.391 845.364 510.527C845.324 510.64 845.27 510.751 845.219 510.863C845.156 511.008 845.094 511.149 845.018 511.291C844.963 511.392 844.897 511.493 844.834 511.595C844.734 511.756 844.629 511.917 844.511 512.075C844.438 512.168 844.366 512.26 844.289 512.352C844.107 512.571 843.913 512.78 843.707 512.978C843.63 513.051 843.562 513.129 843.479 513.202C843.348 513.321 843.201 513.435 843.058 513.55C842.931 513.652 842.809 513.755 842.672 513.855C842.516 513.968 842.345 514.073 842.177 514.185C842.009 514.297 841.841 514.412 841.655 514.52L730.46 579.141C730.038 579.38 729.605 579.599 729.162 579.795C729.033 579.852 728.902 579.906 728.77 579.962C728.418 580.107 728.058 580.244 727.689 580.372C727.557 580.417 727.428 580.465 727.294 580.507C727.063 580.579 726.824 580.644 726.587 580.709C726.407 580.757 726.229 580.81 726.046 580.854C725.797 580.915 725.542 580.965 725.288 581.016C725.114 581.052 724.943 581.089 724.767 581.122C724.253 581.213 723.731 581.284 723.205 581.34C723.044 581.358 722.88 581.368 722.717 581.382C722.408 581.407 722.099 581.43 721.788 581.443C721.59 581.451 721.392 581.456 721.194 581.459C720.942 581.465 720.691 581.466 720.439 581.463C720.23 581.46 720.021 581.454 719.811 581.446C719.579 581.436 719.346 581.424 719.114 581.408C718.902 581.394 718.69 581.376 718.48 581.355C718.25 581.333 718.021 581.307 717.793 581.278C717.588 581.252 717.383 581.223 717.178 581.192C716.935 581.154 716.693 581.111 716.452 581.065C716.26 581.028 716.069 580.993 715.879 580.949C715.592 580.887 715.309 580.816 715.028 580.741C714.87 580.699 714.711 580.659 714.555 580.614C714.046 580.468 713.557 580.301 713.079 580.115C713.013 580.09 712.951 580.06 712.886 580.034C712.244 579.779 711.621 579.48 711.021 579.139L599.087 514.515C596.377 512.95 595.023 510.897 595.028 508.848L595 553.856C594.994 555.906 596.348 557.959 599.058 559.524L710.992 624.148C711.592 624.489 712.215 624.788 712.856 625.042C712.898 625.059 712.934 625.083 712.977 625.1C713.001 625.11 713.028 625.116 713.049 625.126C713.526 625.312 714.02 625.477 714.524 625.623C714.565 625.636 714.602 625.652 714.644 625.664C714.759 625.697 714.88 625.719 714.997 625.75C715.278 625.823 715.561 625.896 715.848 625.959C715.925 625.976 716 626 716.077 626.015C716.19 626.039 716.307 626.053 716.421 626.075C716.662 626.121 716.902 626.163 717.148 626.201C717.246 626.216 717.342 626.239 717.438 626.253C717.534 626.266 717.656 626.275 717.76 626.288C717.988 626.317 718.217 626.343 718.446 626.365C718.556 626.375 718.664 626.393 718.774 626.402C718.884 626.41 718.979 626.411 719.081 626.418C719.313 626.434 719.546 626.447 719.779 626.455C719.895 626.46 720.011 626.471 720.127 626.474C720.22 626.474 720.313 626.474 720.406 626.474C720.657 626.478 720.909 626.474 721.16 626.471C721.285 626.471 721.409 626.471 721.534 626.471C721.607 626.471 721.68 626.459 721.752 626.455C722.063 626.442 722.372 626.42 722.682 626.394C722.805 626.383 722.931 626.381 723.054 626.369C723.093 626.365 723.127 626.357 723.169 626.353C723.695 626.298 724.217 626.226 724.732 626.135C724.756 626.13 724.782 626.128 724.804 626.124C724.955 626.097 725.099 626.059 725.248 626.029C725.502 625.978 725.757 625.927 726.008 625.867C726.19 625.822 726.366 625.771 726.547 625.721C726.785 625.657 727.023 625.593 727.256 625.519C727.305 625.503 727.358 625.492 727.406 625.477C727.491 625.449 727.567 625.413 727.65 625.384C728.019 625.258 728.379 625.122 728.73 624.974C728.862 624.919 728.995 624.865 729.124 624.807C729.567 624.611 730 624.393 730.42 624.153L841.619 559.532L841.787 559.433C841.913 559.356 842.021 559.274 842.142 559.196C842.309 559.086 842.48 558.978 842.636 558.866C842.772 558.767 842.894 558.663 843.021 558.561C843.167 558.446 843.312 558.332 843.442 558.214C843.469 558.19 843.502 558.167 843.529 558.141C843.582 558.091 843.62 558.037 843.674 557.987C843.879 557.789 844.073 557.58 844.255 557.361C844.295 557.314 844.346 557.271 844.383 557.224C844.42 557.177 844.443 557.13 844.478 557.084C844.595 556.926 844.701 556.765 844.8 556.604C844.842 556.537 844.898 556.471 844.936 556.403C844.956 556.369 844.967 556.33 844.985 556.299C845.057 556.154 845.123 556.015 845.185 555.872C845.222 555.788 845.27 555.706 845.302 555.622C845.313 555.593 845.317 555.564 845.327 555.536C845.375 555.4 845.408 555.263 845.445 555.125C845.469 555.033 845.506 554.941 845.524 554.848C845.529 554.824 845.528 554.798 845.533 554.775C845.559 554.63 845.569 554.485 845.582 554.339C845.591 554.245 845.612 554.152 845.614 554.057C845.614 554.017 845.614 553.977 845.614 553.937L845.643 508.928C845.653 509.063 845.632 509.197 845.619 509.329Z" fill="url(#paint14_linear_1019_4638-32)"></path>
<path d="M841.597 503.985C846.984 507.095 847.013 512.134 841.66 515.248L730.462 579.866C725.11 582.976 716.411 582.976 711.024 579.866L599.09 515.241C593.703 512.131 593.674 507.091 599.027 503.981L710.225 439.36C715.577 436.25 724.276 436.25 729.663 439.36L841.597 503.985Z" fill="#EFF3FA"></path>
<path d="M804.091 504.999C807.811 507.147 807.831 510.627 804.134 512.774L727.334 557.407C723.637 559.555 717.63 559.555 713.909 557.407L636.601 512.772C632.88 510.625 632.86 507.145 636.556 504.998L713.356 460.365C717.053 458.217 723.061 458.217 726.782 460.365L804.091 504.999Z" fill="#6C96FF"></path>
<mask id="mask0_1019_4638-34" style="mask-type:luminance" maskUnits="userSpaceOnUse" x="633" y="458" width="174" height="101">
<path d="M803.864 504.772C807.584 506.92 807.604 510.401 803.908 512.547L727.107 557.18C723.41 559.329 717.403 559.329 713.682 557.18L636.374 512.546C632.653 510.398 632.633 506.918 636.33 504.771L713.13 460.138C716.826 457.99 722.835 457.99 726.555 460.138L803.864 504.772Z" fill="white"></path>
</mask>
<g mask="url(#mask0_1019_4638-34)">
<path d="M802.411 541.104C806.131 543.252 806.151 546.733 802.454 548.879L725.654 593.512C721.957 595.661 715.95 595.661 712.229 593.512L634.921 548.878C631.2 546.73 631.18 543.25 634.877 541.103L711.677 496.47C715.373 494.322 721.382 494.322 725.102 496.47L802.411 541.104Z" fill="#6C96FF"></path>
</g>
<path d="M664 466.647C664 453.76 673.24 438.429 684.713 432.144C689.05 416.076 700.759 400.004 714.564 392.72C721.051 389.297 727.063 388.332 732.078 389.433L732.081 389.409L742.017 391.638C742.017 391.638 748.279 399.529 749.054 401.586C751.233 400.089 754.391 398.482 756.573 398.875L767.225 400.905C767.225 400.905 760.321 442.81 748.67 448.958C743.71 451.574 680.678 483.684 680.678 483.684L673.54 481.356L673.565 481.347C667.809 480.169 664 474.915 664 466.647Z" fill="#4688CF"></path>
<path d="M692.915 434.562C697.503 418.494 709.892 402.422 724.498 395.138C739.103 387.854 751.49 391.572 756.08 403.062C768.218 397.24 777.996 402.821 777.996 415.707C777.996 428.739 768.001 444.287 755.673 450.434C750.426 453.051 698.568 478.912 693.321 481.529C680.994 487.676 671 482.095 671 469.064C671 456.178 680.776 440.847 692.915 434.562Z" fill="#84B5EA"></path>
<path opacity="0.4" d="M656 208.546V523.194C656.101 523.584 656.352 523.889 656.704 524.041L718.581 558.605C719.905 559.181 721.43 559.13 722.704 558.435L783.994 524.21C784.447 524.007 784.799 523.618 784.966 523.126H785V207.801L720.508 173L656 208.546Z" fill="url(#paint15_linear_1019_4638-33)"></path>
<defs>
<linearGradient id="paint0_linear_1019_4638-18" x1="1210.83" y1="632.472" x2="1180.15" y2="743.33" gradientUnits="userSpaceOnUse">
<stop stop-color="#CAD1E0"></stop>
<stop offset="0.44" stop-color="white"></stop>
<stop offset="1" stop-color="#C8CEDE"></stop>
</linearGradient>
<linearGradient id="paint1_linear_1019_4638-19" x1="1221.14" y1="654.585" x2="1139.94" y2="654.585" gradientUnits="userSpaceOnUse">
<stop stop-color="#CAD1E0"></stop>
<stop offset="0.44" stop-color="white"></stop>
<stop offset="1" stop-color="#C8CEDE"></stop>
</linearGradient>
<linearGradient id="paint2_linear_1019_4638-20" x1="1225.73" y1="665.193" x2="1052.37" y2="665.193" gradientUnits="userSpaceOnUse">
<stop stop-color="white"></stop>
<stop offset="0.51" stop-color="#CAD1E0"></stop>
<stop offset="1" stop-color="#C8CEDE"></stop>
</linearGradient>
<linearGradient id="paint3_linear_1019_4638-21" x1="1225.18" y1="668.705" x2="1053.64" y2="668.705" gradientUnits="userSpaceOnUse">
<stop stop-color="white"></stop>
<stop offset="0.51" stop-color="#CAD1E0"></stop>
<stop offset="1" stop-color="#C8CEDE"></stop>
</linearGradient>
<linearGradient id="paint4_linear_1019_4638-22" x1="1139.86" y1="544.002" x2="1139.86" y2="691.847" gradientUnits="userSpaceOnUse">
<stop stop-color="#AADFF7" stop-opacity="0"></stop>
<stop offset="1" stop-color="#69A1E3"></stop>
</linearGradient>
<linearGradient id="paint5_linear_1019_4638-23" x1="372.832" y1="632.472" x2="342.153" y2="743.33" gradientUnits="userSpaceOnUse">
<stop stop-color="#CAD1E0"></stop>
<stop offset="0.44" stop-color="white"></stop>
<stop offset="1" stop-color="#C8CEDE"></stop>
</linearGradient>
<linearGradient id="paint6_linear_1019_4638-24" x1="383.136" y1="654.585" x2="301.935" y2="654.585" gradientUnits="userSpaceOnUse">
<stop stop-color="#CAD1E0"></stop>
<stop offset="0.44" stop-color="white"></stop>
<stop offset="1" stop-color="#C8CEDE"></stop>
</linearGradient>
<linearGradient id="paint7_linear_1019_4638-25" x1="387.725" y1="665.193" x2="214.367" y2="665.193" gradientUnits="userSpaceOnUse">
<stop stop-color="white"></stop>
<stop offset="0.51" stop-color="#CAD1E0"></stop>
<stop offset="1" stop-color="#C8CEDE"></stop>
</linearGradient>
<linearGradient id="paint8_linear_1019_4638-26" x1="387.183" y1="668.705" x2="215.637" y2="668.705" gradientUnits="userSpaceOnUse">
<stop stop-color="white"></stop>
<stop offset="0.51" stop-color="#CAD1E0"></stop>
<stop offset="1" stop-color="#C8CEDE"></stop>
</linearGradient>
<linearGradient id="paint9_linear_1019_4638-27" x1="301.858" y1="544.002" x2="301.858" y2="691.847" gradientUnits="userSpaceOnUse">
<stop stop-color="#AADFF7" stop-opacity="0"></stop>
<stop offset="1" stop-color="#69A1E3"></stop>
</linearGradient>
<linearGradient id="paint10_linear_1019_4638-28" x1="865.956" y1="384.946" x2="732.701" y2="830.373" gradientUnits="userSpaceOnUse">
<stop stop-color="white"></stop>
<stop offset="1" stop-color="#C5CCDC"></stop>
</linearGradient>
<linearGradient id="paint11_linear_1019_4638-29" x1="719.341" y1="661.034" x2="719.846" y2="521.231" gradientUnits="userSpaceOnUse">
<stop stop-color="white"></stop>
<stop offset="0.545" stop-color="#E7F5FF"></stop>
<stop offset="1" stop-color="#8BBFFF"></stop>
</linearGradient>
<linearGradient id="paint12_linear_1019_4638-30" x1="808.489" y1="420.714" x2="791.731" y2="678.966" gradientUnits="userSpaceOnUse">
<stop stop-color="#30508C"></stop>
<stop offset="1" stop-color="#5080D3"></stop>
</linearGradient>
<linearGradient id="paint13_linear_1019_4638-31" x1="927.476" y1="600.673" x2="542.113" y2="394.74" gradientUnits="userSpaceOnUse">
<stop stop-color="#30508C"></stop>
<stop offset="1" stop-color="#5080D3"></stop>
</linearGradient>
<linearGradient id="paint14_linear_1019_4638-32" x1="831.86" y1="344.404" x2="788.108" y2="678.805" gradientUnits="userSpaceOnUse">
<stop stop-color="white"></stop>
<stop offset="1" stop-color="#C5CCDC"></stop>
</linearGradient>
<linearGradient id="paint15_linear_1019_4638-33" x1="720.457" y1="512.073" x2="720.457" y2="287.652" gradientUnits="userSpaceOnUse">
<stop stop-color="#7F9DFF"></stop>
<stop offset="1" stop-color="white" stop-opacity="0"></stop>
</linearGradient>
</defs>
</svg>