<svg width="1440" height="986" viewBox="0 0 1440 986" fill="none" xmlns="http://www.w3.org/2000/svg">
<path d="M710.351 294.702L569.104 213.29L710.347 131.881L851.594 213.292L710.351 294.702Z" fill="#F2F5FC"/>
<path d="M710.351 978.18V294.702L851.596 213.292V978.18H710.351Z" fill="url(#paint0_linear_9_29099)"/>
<path d="M710.35 978.18V294.702L569.104 213.292V978.18H710.35Z" fill="url(#paint1_linear_9_29099)"/>
<g opacity="0.4">
<path d="M1251.15 275.491L1180.53 234.785L1251.15 194.08L1321.78 234.785L1251.15 275.491Z" fill="#F2F5FC"/>
<path d="M1251.15 805.89V275.489L1321.78 234.785V805.891L1251.15 805.89Z" fill="url(#paint2_linear_9_29099)"/>
<path d="M1251.15 805.891V275.49L1180.53 234.786V805.892L1251.15 805.891Z" fill="url(#paint3_linear_9_29099)"/>
</g>
<g opacity="0.2">
<path d="M1369.38 96.8993L1298.75 56.1934L1369.38 15.4883L1440 56.1942L1369.38 96.8993Z" fill="#F9FAFC"/>
<path d="M1369.37 627.297V96.8995L1440 56.1943V627.297H1369.37Z" fill="url(#paint4_linear_9_29099)"/>
<path d="M1369.38 627.297V96.8995L1298.75 56.1943V627.297H1369.38Z" fill="url(#paint5_linear_9_29099)"/>
</g>
<g opacity="0.4">
<path d="M188.846 260.001L259.469 219.295L188.847 178.59L118.22 219.296L188.846 260.001Z" fill="#F2F5FC"/>
<path d="M188.846 790.402V260.001L118.22 219.296V790.402L188.846 790.402Z" fill="url(#paint6_linear_9_29099)"/>
<path d="M188.847 790.402V260.001L259.469 219.296V790.402L188.847 790.402Z" fill="url(#paint7_linear_9_29099)"/>
</g>
<g opacity="0.2">
<path d="M70.621 81.4102L141.244 40.7043L70.6234 0L0 40.7059L70.621 81.4102Z" fill="#F2F5FC"/>
<path d="M70.6226 611.808V81.4104L0 40.7061V611.808H70.6226Z" fill="url(#paint8_linear_9_29099)"/>
<path d="M70.623 611.808V81.4104L141.246 40.7061V611.808H70.623Z" fill="url(#paint9_linear_9_29099)"/>
</g>
<path d="M1007.46 417.985L866.209 336.574L1007.45 255.165L1148.7 336.576L1007.46 417.985Z" fill="#F2F5FC"/>
<path d="M1007.45 904.611V417.985L1148.7 336.577V904.611H1007.45Z" fill="url(#paint10_linear_9_29099)"/>
<path d="M1007.46 904.611V417.985L866.209 336.577V904.611H1007.46Z" fill="url(#paint11_linear_9_29099)"/>
<path d="M413.245 417.985L272.001 336.574L413.245 255.165L554.492 336.576L413.245 417.985Z" fill="#F2F5FC"/>
<path d="M413.245 986.001V417.986L554.49 336.577V986.001H413.245Z" fill="url(#paint12_linear_9_29099)"/>
<path d="M413.245 904.611V417.985L272.001 336.577V904.611H413.245Z" fill="url(#paint13_linear_9_29099)"/>
<g opacity="0.2">
<path opacity="0.048" d="M660.232 174.88L663.532 172.275C663.61 172.228 669.367 167.756 669.439 167.793L676.237 162.791C677.583 162.108 679.079 161.771 680.588 161.811C681.839 161.806 683.071 162.117 684.17 162.714L729.153 188.323L734.957 191.625L785.747 220.54C786.249 220.81 786.69 221.182 787.041 221.631C787.392 222.079 787.647 222.596 787.788 223.148C787.832 223.355 787.859 223.565 787.867 223.777C787.843 224.561 787.604 225.324 787.176 225.981C786.747 226.638 786.146 227.165 785.437 227.504L781.698 229.278C781.619 229.326 775.116 232.306 775.046 232.266L763.753 237.097C762.406 237.78 760.91 238.116 759.399 238.075C758.147 238.079 756.914 237.768 755.814 237.171L715.321 213.805L707.873 209.507L659.925 181.848C659.409 181.571 658.958 181.187 658.603 180.721C658.248 180.256 657.996 179.721 657.864 179.151C657.831 178.972 657.81 178.791 657.803 178.61C657.825 177.825 658.063 177.062 658.492 176.403C658.92 175.745 659.523 175.218 660.232 174.88Z" fill="#ABB2E2"/>
<path opacity="0.095" d="M660.296 174.992L663.57 172.422C663.733 172.329 669.328 168.073 669.469 168.155L676.229 163.575C677.571 162.955 679.043 162.667 680.521 162.735C681.756 162.754 682.968 163.074 684.052 163.666L728.595 189.029L734.345 192.302L784.642 220.943C785.636 221.488 786.376 222.403 786.699 223.489C786.747 223.689 786.778 223.894 786.794 224.099C786.881 225.515 786.032 226.876 784.444 227.795L780.751 229.578C780.588 229.671 774.285 232.508 774.144 232.427L762.972 236.761C761.627 237.38 760.153 237.667 758.674 237.599C757.436 237.578 756.223 237.257 755.137 236.663L715.007 213.516L707.626 209.257L660.112 181.85C659.606 181.573 659.161 181.197 658.803 180.744C658.446 180.292 658.182 179.773 658.03 179.217C657.992 179.043 657.965 178.866 657.951 178.689C657.854 177.27 658.708 175.907 660.296 174.992Z" fill="#A7ADDF"/>
<path opacity="0.143" d="M660.363 175.103L663.611 172.566C663.855 172.426 669.292 168.39 669.504 168.511L676.225 164.354C677.299 163.735 679.093 163.652 680.458 163.652C681.677 163.697 682.87 164.026 683.94 164.613L728.044 189.732L733.734 192.973L783.537 221.339C784.511 221.883 785.25 222.767 785.611 223.822C785.662 224.017 785.7 224.216 785.723 224.416C785.854 225.803 785.037 227.16 783.452 228.074L779.807 229.864C779.564 230.005 773.456 232.695 773.244 232.576L762.194 236.415C761.12 237.033 759.317 237.11 757.953 237.11C756.73 237.064 755.535 236.734 754.463 236.146L714.698 213.215L707.384 208.998L660.299 181.848C659.297 181.287 658.546 180.369 658.195 179.278C658.154 179.108 658.121 178.936 658.099 178.762C657.952 177.376 658.775 176.017 660.363 175.103Z" fill="#A3A9DC"/>
<path opacity="0.19" d="M660.425 175.214L663.646 172.711C663.971 172.523 669.25 168.706 669.532 168.868L676.215 165.133C677.229 164.549 679.098 164.571 680.389 164.571C681.593 164.641 682.765 164.979 683.821 165.561L727.483 190.435L733.117 193.643L782.425 221.735C783.013 222.014 783.524 222.433 783.912 222.957C784.299 223.48 784.551 224.09 784.646 224.734C784.82 226.093 784.034 227.444 782.454 228.356L778.858 230.154C778.532 230.342 772.62 232.89 772.338 232.729L761.407 236.071C760.393 236.655 758.511 236.626 757.223 236.626C756.015 236.555 754.839 236.215 753.781 235.632L714.377 212.918L707.132 208.742L660.475 181.848C659.493 181.289 658.74 180.402 658.349 179.343C658.309 179.175 658.259 179.01 658.234 178.839C658.049 177.48 658.842 176.126 660.425 175.214Z" fill="#9FA4D8"/>
<path opacity="0.238" d="M660.488 175.325L663.685 172.856C664.092 172.621 669.211 169.022 669.563 169.226L676.208 165.915C677.162 165.364 679.108 165.492 680.321 165.492C681.508 165.586 682.66 165.933 683.702 166.509L726.924 191.139L732.5 194.316L781.315 222.133C782.252 222.674 782.991 223.5 783.423 224.491C783.482 224.676 783.531 224.863 783.57 225.053C783.789 226.385 783.035 227.731 781.458 228.64L777.909 230.449C777.502 230.685 771.786 233.089 771.433 232.886L760.623 235.733C759.669 236.284 757.709 236.148 756.495 236.148C755.303 236.051 754.146 235.703 753.1 235.125L714.062 212.622L706.883 208.485L660.655 181.846C659.694 181.289 658.94 180.433 658.51 179.409C658.466 179.244 658.408 179.086 658.379 178.918C658.144 177.584 658.909 176.235 660.488 175.325Z" fill="#9BA0D5"/>
<path opacity="0.286" d="M660.552 175.435L663.722 172.998C664.21 172.717 669.171 169.336 669.593 169.579L676.201 166.691C677.094 166.176 679.115 166.408 680.253 166.408C681.424 166.527 682.557 166.883 683.585 167.454L726.367 191.839L731.887 194.984L780.207 222.526C781.127 223.065 781.867 223.864 782.334 224.822C782.388 225.006 782.459 225.182 782.497 225.368C782.762 226.672 782.039 228.013 780.465 228.92L776.963 230.733C776.476 231.014 770.955 233.276 770.533 233.032L759.843 235.384C758.947 235.901 756.908 235.656 755.771 235.656C754.595 235.534 753.456 235.175 752.424 234.601L713.753 212.324L706.641 208.228L660.843 181.846C659.898 181.288 659.143 180.46 658.676 179.468C658.629 179.306 658.562 179.154 658.526 178.989C658.244 177.689 658.976 176.344 660.552 175.435Z" fill="#979BD2"/>
<path opacity="0.333" d="M660.616 175.545L663.761 173.145C664.331 172.816 669.133 169.653 669.626 169.938L676.194 167.471C677.029 166.991 679.126 167.328 680.188 167.328C681.341 167.472 682.455 167.837 683.469 168.403L725.811 192.541L731.274 195.654L779.101 222.921C780.004 223.458 780.744 224.23 781.242 225.155C781.3 225.335 781.38 225.503 781.424 225.683C781.734 226.961 781.042 228.295 779.472 229.201L776.018 231.02C775.449 231.349 770.123 233.467 769.631 233.183L759.061 235.039C758.227 235.52 756.108 235.17 755.045 235.17C753.885 235.022 752.765 234.654 751.745 234.084L713.436 212.025L706.392 207.973L661.022 181.847C660.094 181.291 659.337 180.49 658.833 179.533C658.785 179.376 658.708 179.226 658.667 179.067C658.34 177.791 659.044 176.452 660.616 175.545Z" fill="#9397CF"/>
<path opacity="0.381" d="M660.677 175.657L663.796 173.29C664.447 172.915 669.091 169.969 669.654 170.295L676.184 168.251C676.96 167.803 679.133 168.247 680.118 168.247C681.252 168.415 682.346 168.788 683.347 169.347L725.246 193.243L730.652 196.325L777.986 223.317C778.874 223.852 779.615 224.598 780.144 225.489C780.205 225.664 780.294 225.826 780.343 226.001C780.699 227.251 780.036 228.58 778.47 229.483L775.064 231.311C774.414 231.686 769.284 233.661 768.721 233.336L758.272 234.696C757.497 235.143 755.301 234.687 754.314 234.687C753.171 234.513 752.07 234.135 751.062 233.571L713.116 211.729L706.138 207.713L661.198 181.845C660.285 181.291 659.525 180.517 658.989 179.595C658.937 179.437 658.852 179.297 658.804 179.141C658.436 177.896 659.111 176.561 660.677 175.657Z" fill="#8F92CC"/>
<path opacity="0.429" d="M660.744 175.767L663.837 173.434C664.567 173.012 669.054 170.289 669.688 170.651L676.18 169.031C676.895 168.619 679.144 169.166 680.054 169.166C681.171 169.36 682.247 169.743 683.235 170.298L724.696 193.949L730.045 196.999L776.885 223.714C777.758 224.246 778.501 224.966 779.059 225.822C779.123 225.995 779.217 226.149 779.276 226.319C779.677 227.54 779.045 228.863 777.483 229.765L774.124 231.601C773.393 232.022 768.459 233.853 767.824 233.488L757.495 234.352C756.78 234.765 754.502 234.202 753.594 234.202C752.469 234.003 751.385 233.616 750.388 233.056L712.807 211.434L705.897 207.459L661.385 181.846C660.733 181.471 659.258 180.298 659.154 179.66C659.073 179.52 659.005 179.372 658.953 179.219C658.532 178 659.177 176.67 660.744 175.767Z" fill="#8B8EC9"/>
<path opacity="0.476" d="M660.808 175.875L663.875 173.575C664.689 173.103 669.016 170.598 669.72 171.005L676.173 169.807C676.829 169.429 679.154 170.082 679.988 170.082C681.087 170.301 682.143 170.693 683.119 171.242L724.142 194.648L729.433 197.667L775.778 224.111C776.359 224.446 777.863 225.59 777.97 226.155C778.065 226.306 778.144 226.467 778.206 226.635C778.655 227.83 778.049 229.151 776.492 230.047L773.184 231.89C772.37 232.362 767.633 234.046 766.929 233.64L756.721 234.008C756.065 234.386 753.71 233.716 752.877 233.716C751.769 233.491 750.703 233.093 749.719 232.537L712.497 211.138L705.653 207.202L661.571 181.846C660.973 181.501 659.413 180.309 659.318 179.723C659.231 179.587 659.158 179.444 659.1 179.294C658.629 178.105 659.244 176.78 660.808 175.875Z" fill="#8789C6"/>
<path opacity="0.524" d="M660.872 175.989L663.913 173.723C664.807 173.207 668.977 170.917 669.751 171.365L676.167 170.59C676.763 170.246 679.159 171.005 679.921 171.005C681 171.249 682.038 171.65 683.001 172.194L723.585 195.355L728.818 198.343L774.671 224.506C775.198 224.81 776.782 225.975 776.876 226.49C776.975 226.635 777.059 226.791 777.126 226.953C777.622 228.122 777.047 229.433 775.493 230.329L772.231 232.18C771.337 232.695 766.796 234.24 766.02 233.792L755.933 233.665C755.337 234.009 752.903 233.233 752.146 233.233C751.056 232.982 750.008 232.575 749.035 232.026L712.182 210.836L705.409 206.94L661.755 181.841C661.213 181.526 659.568 180.314 659.482 179.781C659.39 179.651 659.311 179.512 659.246 179.366C658.725 178.208 659.312 176.887 660.872 175.989Z" fill="#8385C2"/>
<path opacity="0.571" d="M660.935 176.099L663.951 173.868C664.928 173.305 668.937 171.234 669.779 171.721L676.159 171.369C676.696 171.06 679.171 171.919 679.855 171.919C680.915 172.189 681.934 172.599 682.885 173.139L723.028 196.054L728.205 199.01L773.562 224.903C774.034 225.178 775.7 226.361 775.786 226.825C775.891 226.964 775.981 227.114 776.055 227.271C776.599 228.412 776.055 229.718 774.5 230.613L771.285 232.472C770.31 233.034 765.965 234.437 765.119 233.947L755.153 233.324C754.615 233.634 752.103 232.75 751.421 232.75C750.35 232.474 749.32 232.058 748.358 231.513L711.869 210.542L705.16 206.689L661.934 181.843C661.447 181.562 659.717 180.327 659.641 179.847C659.543 179.722 659.459 179.587 659.388 179.445C658.822 178.315 659.379 176.996 660.935 176.099Z" fill="#7F80BF"/>
<path opacity="0.619" d="M661 176.21L663.993 174.012C665.049 173.403 668.902 171.55 669.816 172.078L676.154 172.149C676.632 171.874 679.183 172.841 679.791 172.841C680.831 173.136 681.831 173.555 682.771 174.088L722.473 196.76L727.592 199.684L772.456 225.303C772.878 225.546 774.62 226.75 774.698 227.162C774.808 227.295 774.903 227.44 774.983 227.593C775.576 228.706 775.057 230.006 773.508 230.895L770.341 232.761C769.284 233.371 765.134 234.627 764.218 234.098L754.373 232.98C753.896 233.254 751.302 232.264 750.698 232.264C749.647 231.962 748.634 231.536 747.683 230.997L711.558 210.24L704.916 206.424L662.12 181.838C661.686 181.588 659.873 180.332 659.806 179.905C659.702 179.785 659.611 179.655 659.534 179.516C658.917 178.418 659.446 177.106 661 176.21Z" fill="#7B7CBC"/>
<path opacity="0.667" d="M661.064 176.321L664.028 174.158C665.166 173.502 668.86 171.866 669.845 172.435L676.146 172.928C676.564 172.688 679.191 173.761 679.722 173.761C680.741 174.081 681.723 174.508 682.652 175.037L721.914 197.463L726.978 200.355L771.348 225.699C771.718 225.912 773.538 227.136 773.607 227.495C773.721 227.623 773.823 227.762 773.91 227.91C774.551 228.994 774.059 230.291 772.513 231.181L769.395 233.054C768.256 233.712 764.303 234.824 763.317 234.256L753.592 232.641C753.173 232.881 750.504 231.784 749.973 231.784C748.941 231.457 747.947 231.022 747.006 230.487L711.245 209.95L704.67 206.176L662.301 181.845C661.922 181.625 660.026 180.351 659.965 179.977C659.857 179.862 659.76 179.736 659.677 179.601C659.012 178.523 659.513 177.215 661.064 176.321Z" fill="#7777B9"/>
<path opacity="0.714" d="M661.127 176.432L664.066 174.303C665.286 173.595 668.82 172.18 669.877 172.792L676.138 173.709C676.496 173.502 679.2 174.68 679.655 174.68C680.653 175.026 681.618 175.462 682.536 175.984L721.356 198.166L726.362 201.026L770.238 226.095C770.554 226.277 772.456 227.52 772.512 227.829C772.633 227.951 772.74 228.085 772.833 228.228C773.524 229.283 773.06 230.576 771.517 231.464L768.445 233.346C767.225 234.049 763.468 235.017 762.411 234.409L752.806 232.299C752.448 232.505 749.7 231.302 749.244 231.302C748.232 230.949 747.255 230.504 746.324 229.974L710.927 209.655L704.42 205.92L662.481 181.845C662.156 181.658 660.176 180.36 660.125 180.041C660.011 179.93 659.908 179.808 659.818 179.677C659.106 178.627 659.579 177.324 661.127 176.432Z" fill="#7373B6"/>
<path opacity="0.762" d="M661.191 176.543L664.105 174.447C665.405 173.697 668.782 172.498 669.909 173.149L676.131 174.485C676.429 174.313 679.208 175.597 679.587 175.597C680.564 175.968 681.51 176.415 682.417 176.934L720.799 198.87L725.749 201.701L769.13 226.495C769.954 226.965 770.723 227.526 771.422 228.167C771.548 228.282 771.661 228.41 771.759 228.55C772.501 229.576 772.062 230.863 770.523 231.75L767.499 233.637C766.199 234.388 762.637 235.21 761.51 234.562L752.027 231.952C751.729 232.123 748.9 230.814 748.522 230.814C747.531 230.435 746.571 229.981 745.649 229.456L710.616 209.356L704.176 205.661L662.666 181.845C662.395 181.687 660.332 180.37 660.289 180.104C660.169 179.998 660.061 179.88 659.965 179.752C659.201 178.733 659.647 177.432 661.191 176.543Z" fill="#6F6EB3"/>
<path opacity="0.81" d="M661.255 176.653L664.142 174.591C665.525 173.795 668.742 172.814 669.94 173.504L676.124 175.267C676.361 175.13 679.219 176.517 679.521 176.517C680.476 176.912 681.404 177.367 682.301 177.879L720.243 199.571L725.135 202.368L768.024 226.887C768.84 227.354 769.612 227.893 770.332 228.497C770.463 228.607 770.582 228.729 770.687 228.862C771.479 229.859 771.065 231.142 769.53 232.028L766.555 233.924C765.172 234.721 761.805 235.403 760.608 234.71L751.244 231.609C751.008 231.746 748.1 230.328 747.796 230.328C746.827 229.925 745.883 229.461 744.972 228.94L710.302 209.06L703.929 205.405L662.849 181.844C662 181.359 661.197 180.797 660.449 180.167C660.325 180.066 660.211 179.952 660.109 179.828C659.295 178.838 659.714 177.541 661.255 176.653Z" fill="#6B6AB0"/>
<path opacity="0.857" d="M661.319 176.763L664.181 174.736C665.644 173.893 668.703 173.13 669.971 173.861L676.119 176.046C676.298 175.943 679.228 177.436 679.457 177.436C679.654 177.436 682.044 178.745 682.187 178.826L719.688 200.275L724.524 203.039L766.918 227.286C767.727 227.749 768.504 228.265 769.244 228.832C769.379 228.936 769.504 229.053 769.615 229.181C770.458 230.147 770.07 231.428 768.539 232.312L765.611 234.216C764.147 235.059 760.976 235.597 759.708 234.867L750.465 231.27C750.286 231.373 747.301 229.848 747.072 229.848C746.875 229.848 744.437 228.511 744.295 228.433L709.99 208.767L703.684 205.15L663.032 181.846C662.19 181.363 661.382 180.824 660.612 180.232C660.483 180.135 660.363 180.026 660.254 179.906C659.391 178.943 659.781 177.65 661.319 176.763Z" fill="#6765AC"/>
<path opacity="0.905" d="M661.382 176.874L664.217 174.88C665.762 173.989 668.663 173.446 670.001 174.218L676.11 176.825C676.229 176.758 679.236 178.355 679.388 178.355C679.519 178.355 681.972 179.72 682.065 179.775L719.128 200.977L723.906 203.711L765.805 227.682C765.911 227.742 768.127 229.063 768.146 229.165C768.287 229.263 768.417 229.374 768.536 229.498C769.43 230.434 769.067 231.713 767.538 232.594L764.658 234.505C763.112 235.396 760.138 235.79 758.8 235.019L749.677 230.926C749.558 230.995 746.494 229.364 746.342 229.364C746.21 229.364 743.706 227.97 743.612 227.915L709.667 208.467L703.429 204.893L663.215 181.843C663.106 181.78 660.79 180.401 660.773 180.294C660.638 180.202 660.512 180.096 660.397 179.98C659.484 179.05 659.848 177.762 661.382 176.874Z" fill="#6361A9"/>
<path opacity="0.952" d="M661.447 176.985L664.258 175.026C665.884 174.088 668.626 173.763 670.034 174.575L676.104 177.605C676.165 177.571 679.248 179.274 679.323 179.274C679.399 179.274 681.906 180.694 681.952 180.721L718.575 201.68L723.292 204.381L764.699 228.078C764.752 228.108 767.048 229.449 767.058 229.5C767.203 229.591 767.34 229.696 767.465 229.814C768.41 230.718 768.072 231.996 766.546 232.875L763.711 234.793C762.085 235.73 759.305 235.982 757.896 235.169L748.894 230.581C748.835 230.615 745.691 228.878 745.616 228.878C745.542 228.878 742.98 227.426 742.933 227.399L709.356 208.168L703.185 204.63L663.391 181.839C663.337 181.807 660.937 180.407 660.929 180.353C660.788 180.266 660.657 180.165 660.535 180.052C659.577 179.157 659.916 177.868 661.447 176.985Z" fill="#5F5CA6"/>
<path d="M757.001 235.324L709.049 207.873L661.097 180.422C659.618 179.569 659.804 178.08 661.511 177.095L664.295 175.17C665.172 174.683 666.15 174.408 667.153 174.367C668.155 174.326 669.153 174.521 670.066 174.935L718.018 202.385L765.971 229.837C767.45 230.689 767.264 232.179 765.556 233.163L762.772 235.088C761.895 235.575 760.917 235.85 759.915 235.891C758.912 235.932 757.914 235.738 757.001 235.324Z" fill="#5B58A3"/>
</g>
<path d="M759.025 238.009L665.918 179.625C663.597 178.289 661.716 174.699 661.716 171.605L658.473 172.883C658.473 139.758 689.095 127.53 713.981 141.874L719.266 144.945C744.154 159.29 766.431 198.837 766.431 231.961C766.431 233.722 765.821 234.94 764.867 235.415C764.147 235.777 760.024 238.586 759.025 238.009Z" fill="url(#paint14_linear_9_29099)"/>
<path d="M757.887 237.544L661.576 182.035C659.255 180.698 657.373 177.108 657.373 174.02C657.373 140.894 684.752 129.944 709.638 144.288L714.923 147.36C739.811 161.703 762.089 201.249 762.089 234.376C762.089 237.462 760.209 238.882 757.887 237.544Z" fill="url(#paint15_linear_9_29099)"/>
<path style="mix-blend-mode:color-dodge" d="M715.022 147.068L709.735 143.996C695.471 135.775 680.399 135.879 670.119 143.689C680.37 136.45 695.053 136.559 708.96 144.575L714.247 147.646C739.134 161.99 761.411 201.536 761.411 234.662C761.475 235.705 761.164 236.737 760.533 237.571C761.535 237.126 762.187 235.896 762.187 234.085C762.186 200.958 739.908 161.411 715.022 147.068Z" fill="url(#paint16_radial_9_29099)"/>
<path d="M665.31 177.97C664.494 177.442 663.822 176.721 663.352 175.872C662.882 175.022 662.629 174.07 662.615 173.1C664.112 145.643 684.634 135.033 709.732 149.5C734.83 163.967 755.352 198.232 756.848 227.418C756.943 229.265 755.722 230.085 754.154 229.181L665.31 177.97Z" fill="#333C5E"/>
<g style="mix-blend-mode:multiply">
<path d="M755.373 228.482L666.529 177.275C665.713 176.746 665.041 176.026 664.571 175.176C664.101 174.327 663.848 173.375 663.834 172.405C664.53 159.625 669.353 150.5 676.837 145.85C668.662 150.243 663.348 159.64 662.615 173.1C662.629 174.071 662.882 175.023 663.352 175.872C663.822 176.721 664.494 177.442 665.31 177.97L754.154 229.177C755.217 229.79 756.109 229.596 756.551 228.84C756.134 228.825 755.728 228.701 755.373 228.482Z" fill="#CED3F4"/>
</g>
<path d="M729.694 198.984L743.028 195.987C735.669 179.75 723.505 164.896 709.732 156.958C688.912 144.958 671.756 152.986 669.342 174.699L685.802 184.19C688.065 172.727 697.917 168.796 709.729 175.604C717.985 180.361 725.275 189.257 729.694 198.984Z" fill="url(#paint17_linear_9_29099)"/>
<path d="M730.429 200.671C731.934 204.233 733.017 207.958 733.658 211.771L750.118 221.26C749.267 213.528 747.288 205.962 744.244 198.801L730.429 200.671Z" fill="#FFE06A"/>
<path d="M719.263 219.716C724.455 216.683 724.398 206.946 719.136 197.969C713.873 188.991 705.398 184.172 700.206 187.205C695.015 190.238 695.072 199.974 700.334 208.952C705.596 217.93 714.071 222.749 719.263 219.716Z" fill="#AFB6E5"/>
<path d="M718.618 216.981C723.038 214.399 722.989 206.11 718.509 198.466C714.029 190.823 706.814 186.72 702.394 189.302C697.974 191.884 698.023 200.174 702.503 207.817C706.983 215.46 714.198 219.563 718.618 216.981Z" fill="url(#paint18_linear_9_29099)"/>
<path d="M703.85 194.977L742.529 186.86L715.605 214.349L703.85 194.977Z" fill="url(#paint19_linear_9_29099)"/>
<path d="M703.85 194.977L742.529 186.86L709.052 205.077L703.85 194.977Z" fill="url(#paint20_linear_9_29099)"/>
<path d="M718.08 217.266C722.502 214.685 722.457 206.395 717.98 198.749C713.502 191.103 706.288 186.997 701.866 189.577C697.445 192.158 697.49 200.448 701.967 208.094C706.445 215.74 713.659 219.846 718.08 217.266Z" fill="url(#paint21_linear_9_29099)"/>
<path d="M717.846 217.302C722.266 214.72 722.217 206.43 717.737 198.787C713.257 191.144 706.042 187.041 701.621 189.623C697.201 192.205 697.25 200.494 701.73 208.138C706.21 215.781 713.426 219.884 717.846 217.302Z" fill="url(#paint22_linear_9_29099)"/>
<path style="mix-blend-mode:color-dodge" d="M709.731 190.419C706.918 188.797 704.347 188.489 702.36 189.279C704.283 188.691 706.683 189.056 709.297 190.563C715.589 194.19 720.691 202.974 720.691 210.183C720.691 214.17 719.126 216.83 716.668 217.809C719.374 216.984 721.125 214.255 721.125 210.041C721.125 202.828 716.024 194.044 709.731 190.419Z" fill="url(#paint23_radial_9_29099)"/>
<defs>
<linearGradient id="paint0_linear_9_29099" x1="780.973" y1="970.531" x2="780.973" y2="503.95" gradientUnits="userSpaceOnUse">
<stop stop-color="white" stop-opacity="0"/>
<stop offset="1" stop-color="white"/>
</linearGradient>
<linearGradient id="paint1_linear_9_29099" x1="639.727" y1="1050.08" x2="639.727" y2="188.816" gradientUnits="userSpaceOnUse">
<stop stop-color="white" stop-opacity="0"/>
<stop offset="1" stop-color="#E0E7FD"/>
</linearGradient>
<linearGradient id="paint2_linear_9_29099" x1="1286.46" y1="816.742" x2="1286.46" y2="350.72" gradientUnits="userSpaceOnUse">
<stop stop-color="white" stop-opacity="0"/>
<stop offset="1" stop-color="white"/>
</linearGradient>
<linearGradient id="paint3_linear_9_29099" x1="1215.84" y1="896.126" x2="1215.84" y2="34.8986" gradientUnits="userSpaceOnUse">
<stop stop-color="white" stop-opacity="0"/>
<stop offset="1" stop-color="#E0E7FD"/>
</linearGradient>
<linearGradient id="paint4_linear_9_29099" x1="1404.68" y1="816.332" x2="1404.68" y2="350.312" gradientUnits="userSpaceOnUse">
<stop stop-color="white" stop-opacity="0"/>
<stop offset="1" stop-color="white"/>
</linearGradient>
<linearGradient id="paint5_linear_9_29099" x1="1334.07" y1="896.287" x2="1334.07" y2="35.0635" gradientUnits="userSpaceOnUse">
<stop stop-color="white" stop-opacity="0"/>
<stop offset="1" stop-color="#E0E7FD"/>
</linearGradient>
<linearGradient id="paint6_linear_9_29099" x1="153.533" y1="880.637" x2="153.533" y2="19.4093" gradientUnits="userSpaceOnUse">
<stop stop-color="white" stop-opacity="0"/>
<stop offset="1" stop-color="#E0E7FD"/>
</linearGradient>
<linearGradient id="paint7_linear_9_29099" x1="224.158" y1="801.253" x2="224.158" y2="335.231" gradientUnits="userSpaceOnUse">
<stop stop-color="white" stop-opacity="0"/>
<stop offset="1" stop-color="white"/>
</linearGradient>
<linearGradient id="paint8_linear_9_29099" x1="35.3113" y1="880.797" x2="35.3113" y2="19.5753" gradientUnits="userSpaceOnUse">
<stop stop-color="white" stop-opacity="0"/>
<stop offset="1" stop-color="#E0E7FD"/>
</linearGradient>
<linearGradient id="paint9_linear_9_29099" x1="105.934" y1="800.843" x2="105.934" y2="334.824" gradientUnits="userSpaceOnUse">
<stop stop-color="white" stop-opacity="0"/>
<stop offset="1" stop-color="white"/>
</linearGradient>
<linearGradient id="paint10_linear_9_29099" x1="1078.08" y1="776.235" x2="1078.08" y2="310.447" gradientUnits="userSpaceOnUse">
<stop stop-color="white" stop-opacity="0"/>
<stop offset="1" stop-color="white"/>
</linearGradient>
<linearGradient id="paint11_linear_9_29099" x1="936.832" y1="855.76" x2="936.832" y2="-5.37994" gradientUnits="userSpaceOnUse">
<stop stop-color="white" stop-opacity="0"/>
<stop offset="1" stop-color="#E0E7FD"/>
</linearGradient>
<linearGradient id="paint12_linear_9_29099" x1="483.868" y1="776.237" x2="483.868" y2="309.951" gradientUnits="userSpaceOnUse">
<stop stop-color="white" stop-opacity="0"/>
<stop offset="1" stop-color="white"/>
</linearGradient>
<linearGradient id="paint13_linear_9_29099" x1="342.623" y1="855.76" x2="342.623" y2="-5.37994" gradientUnits="userSpaceOnUse">
<stop stop-color="white" stop-opacity="0"/>
<stop offset="1" stop-color="#E0E7FD"/>
</linearGradient>
<linearGradient id="paint14_linear_9_29099" x1="692.048" y1="153.824" x2="745.399" y2="258.03" gradientUnits="userSpaceOnUse">
<stop stop-color="white"/>
<stop offset="1" stop-color="#C8CEDE"/>
</linearGradient>
<linearGradient id="paint15_linear_9_29099" x1="689.102" y1="219.66" x2="738.865" y2="158.998" gradientUnits="userSpaceOnUse">
<stop stop-color="#AFB6E5"/>
<stop offset="0.145" stop-color="#B5BCE8"/>
<stop offset="0.349" stop-color="#C7CDF0"/>
<stop offset="0.581" stop-color="#E5E9FF"/>
<stop offset="0.955" stop-color="#F4F4FB"/>
<stop offset="1" stop-color="#F7F6FB"/>
</linearGradient>
<radialGradient id="paint16_radial_9_29099" cx="0" cy="0" r="1" gradientUnits="userSpaceOnUse" gradientTransform="translate(777.559 187.701) scale(48.0488 47.9753)">
<stop stop-color="white"/>
<stop offset="1"/>
</radialGradient>
<linearGradient id="paint17_linear_9_29099" x1="630.509" y1="119.297" x2="684.96" y2="221.291" gradientUnits="userSpaceOnUse">
<stop stop-color="#AFB6E5"/>
<stop offset="0.145" stop-color="#B5BCE8"/>
<stop offset="0.349" stop-color="#C7CDF0"/>
<stop offset="0.581" stop-color="#E5E9FF"/>
<stop offset="0.855" stop-color="#F4F6FF"/>
<stop offset="1" stop-color="white"/>
</linearGradient>
<linearGradient id="paint18_linear_9_29099" x1="697.403" y1="195.413" x2="724.24" y2="195.696" gradientUnits="userSpaceOnUse">
<stop stop-color="#BCC2EB"/>
<stop offset="0.192" stop-color="#C6CCF0"/>
<stop offset="0.277" stop-color="#D0D4F0"/>
<stop offset="0.283" stop-color="#D1D5F0"/>
<stop offset="0.361" stop-color="#BDC3E9"/>
<stop offset="0.409" stop-color="#AFB6E5"/>
<stop offset="0.909" stop-color="#AFB6E5"/>
<stop offset="0.988" stop-color="#B9C0EA"/>
<stop offset="1" stop-color="#BCC2EB"/>
</linearGradient>
<linearGradient id="paint19_linear_9_29099" x1="-1367.84" y1="6061.75" x2="-1400.22" y2="6126.2" gradientUnits="userSpaceOnUse">
<stop stop-color="#AFB6E5"/>
<stop offset="0.145" stop-color="#B5BCE8"/>
<stop offset="0.349" stop-color="#C7CDF0"/>
<stop offset="0.581" stop-color="#E5E9FF"/>
<stop offset="0.955" stop-color="#F4F4FB"/>
<stop offset="1" stop-color="#F7F6FB"/>
</linearGradient>
<linearGradient id="paint20_linear_9_29099" x1="714.757" y1="175.675" x2="717.605" y2="199.285" gradientUnits="userSpaceOnUse">
<stop stop-color="#AFB6E5"/>
<stop offset="0.145" stop-color="#B5BCE8"/>
<stop offset="0.349" stop-color="#C7CDF0"/>
<stop offset="0.581" stop-color="#E5E9FF"/>
<stop offset="0.955" stop-color="#F4F4FB"/>
<stop offset="1" stop-color="#F7F6FB"/>
</linearGradient>
<linearGradient id="paint21_linear_9_29099" x1="1456.21" y1="2376.97" x2="1431.76" y2="2405" gradientUnits="userSpaceOnUse">
<stop stop-color="#BCC2EB"/>
<stop offset="0.192" stop-color="#C6CCF0"/>
<stop offset="0.277" stop-color="#D0D4F0"/>
<stop offset="0.283" stop-color="#D1D5F0"/>
<stop offset="0.361" stop-color="#BDC3E9"/>
<stop offset="0.409" stop-color="#AFB6E5"/>
<stop offset="0.909" stop-color="#AFB6E5"/>
<stop offset="0.988" stop-color="#B9C0EA"/>
<stop offset="1" stop-color="#BCC2EB"/>
</linearGradient>
<linearGradient id="paint22_linear_9_29099" x1="709.034" y1="229.249" x2="725.614" y2="202.149" gradientUnits="userSpaceOnUse">
<stop stop-color="#AFB6E5"/>
<stop offset="0.145" stop-color="#B5BCE8"/>
<stop offset="0.349" stop-color="#C7CDF0"/>
<stop offset="0.581" stop-color="#E5E9FF"/>
<stop offset="0.955" stop-color="#F4F4FB"/>
<stop offset="1" stop-color="#F7F6FB"/>
</linearGradient>
<radialGradient id="paint23_radial_9_29099" cx="0" cy="0" r="1" gradientUnits="userSpaceOnUse" gradientTransform="translate(1098.74 203.336) scale(12.2051 12.1867)">
<stop stop-color="white"/>
<stop offset="1"/>
</radialGradient>
</defs>
</svg>
