<svg width="348" height="266" viewBox="0 0 348 266" fill="none" xmlns="http://www.w3.org/2000/svg">
<path d="M343.029 165.999L186.094 261.909C179.409 266.089 171.072 266.089 164.387 261.909L5.05486 164.569C2.22806 162.679 0.556821 159.379 0.652321 155.869V105.479L162.811 33.549C169.181 30.479 176.496 30.389 182.924 33.299L347.403 106.899V157.299C347.499 160.799 345.837 164.099 343.02 165.999H343.029Z" fill="url(#paint0_linear_9_82662)"/>
<path d="M346.096 109.659L186.105 207.459C179.449 211.619 171.15 211.619 164.493 207.459L2.80215 108.659C1.2073 107.539 0.615166 105.379 1.39827 103.539C1.67522 102.829 2.17185 102.229 2.80215 101.829L162.841 4.01906C169.478 -0.120937 177.749 -0.120937 184.376 4.01906L346.106 102.849C347.7 103.969 348.293 106.129 347.509 107.959C347.232 108.669 346.736 109.269 346.106 109.669L346.096 109.659Z" fill="#F2F5FC"/>
<path d="M306.603 112.21L191.315 182.68C183.303 187.68 173.323 187.68 165.311 182.68L41.4663 107C39.6041 105.7 38.9164 103.19 39.8332 101.05C40.1579 100.22 40.731 99.51 41.4663 99.05L158.75 27.36C165.521 23.13 173.973 23.13 180.743 27.36L306.603 104.26C308.456 105.57 309.143 108.08 308.236 110.22C307.911 111.05 307.338 111.75 306.603 112.21Z" fill="#333C5E"/>
<path d="M306.71 112.358L294.839 119.418L180.755 49.7077C173.975 45.4777 165.532 45.4777 158.762 49.7077L53.0717 114.338L41.4684 107.008C39.6157 105.708 38.9186 103.198 39.8354 101.058C40.1123 100.238 40.6567 99.5377 41.3538 99.0677L158.771 26.9076C165.618 22.7176 174.099 22.7776 180.889 27.0476L306.825 104.268C308.668 105.628 309.327 108.168 308.4 110.318C308.047 111.168 307.455 111.878 306.691 112.348L306.71 112.358Z" fill="#E0E3ED"/>
<path d="M322.758 151.999C322.758 155.949 325.375 157.539 328.602 155.569C332.069 153.169 334.237 149.199 334.447 144.849C334.447 140.899 331.83 139.309 328.602 141.279C325.136 143.679 322.968 147.649 322.758 151.999Z" fill="url(#paint1_linear_9_82662)"/>
<path d="M327.102 153.737C330.569 151.347 332.746 147.367 332.956 143.017C332.956 142.257 332.832 141.497 332.574 140.777C333.902 141.647 334.628 143.227 334.456 144.847C334.246 149.187 332.078 153.167 328.611 155.567C326.09 157.107 323.97 156.457 323.148 154.237C324.466 154.797 325.956 154.607 327.112 153.737H327.102Z" fill="#A0A6BA"/>
<path d="M303.168 163.649C303.168 167.599 305.785 169.199 309.013 167.229C312.479 164.829 314.647 160.859 314.857 156.509C314.857 152.559 312.241 150.959 309.013 152.929C305.546 155.329 303.378 159.299 303.168 163.649Z" fill="url(#paint2_linear_9_82662)"/>
<path d="M307.512 165.398C310.979 162.998 313.146 159.017 313.356 154.677C313.356 153.917 313.232 153.158 312.974 152.438C314.302 153.308 315.028 154.888 314.856 156.518C314.646 160.858 312.468 164.837 309.011 167.237C306.49 168.767 304.37 168.118 303.539 165.898C304.857 166.458 306.356 166.268 307.512 165.398Z" fill="#A0A6BA"/>
<defs>
<linearGradient id="paint0_linear_9_82662" x1="-735.72" y1="154.353" x2="-735.72" y2="154.353" gradientUnits="userSpaceOnUse">
<stop stop-color="white"/>
<stop offset="0.51" stop-color="#CAD1E0"/>
<stop offset="1" stop-color="#C8CEDE"/>
</linearGradient>
<linearGradient id="paint1_linear_9_82662" x1="-761.692" y1="142.577" x2="-760.756" y2="142.577" gradientUnits="userSpaceOnUse">
<stop stop-color="#FFE06A"/>
<stop offset="1" stop-color="#FFCC00"/>
</linearGradient>
<linearGradient id="paint2_linear_9_82662" x1="-742.063" y1="161.107" x2="-741.128" y2="161.107" gradientUnits="userSpaceOnUse">
<stop stop-color="#5E98F7"/>
<stop offset="1" stop-color="#4670BA"/>
</linearGradient>
</defs>
</svg>
