<svg width="48" height="87" viewBox="0 0 48 87" fill="none" xmlns="http://www.w3.org/2000/svg">
<g clip-path="url(#clip0_9_90725)">
<path fill-rule="evenodd" clip-rule="evenodd" d="M5.12145 86.3984L1.89209 84.5604L1.7148 84.4367L1.55579 84.2881L1.41507 84.1081L1.2998 83.8976L1.20519 83.6628L1.13761 83.4007L1.09548 83.1128L1.08594 82.8037V27.6692L1.09548 27.3397L1.13761 27.0048L1.20519 26.6707L1.2998 26.3264L1.41507 25.9868L1.55579 25.6472L1.7148 25.3178L1.89209 24.993L2.09084 24.68L2.29993 24.3764L2.52969 24.0939L2.7682 23.8209L3.01863 23.5744L3.28496 23.3396L3.55685 23.1385L3.83908 22.964L9.74289 19.5993L13.2616 17.6079L30.8959 7.57629L33.9679 5.83133L40.3209 2.21777L40.5975 2.07301L40.875 1.96502L41.1413 1.89303L41.3926 1.85156H41.6311L41.8608 1.87738L42.0699 1.9392L42.2679 2.03154L45.4972 3.86414L45.2993 3.7765L45.0846 3.71468L44.8596 3.68886H44.6211L44.3643 3.72955L44.1036 3.80232L43.8325 3.91422L43.5502 4.05819L37.1964 7.67019L34.1245 9.41515L16.4902 19.4444L12.9746 21.4421L7.07004 24.8021L6.78781 24.9774L6.51591 25.1777L6.25435 25.4124L5.99835 25.6589L5.75985 25.9265L5.52929 26.2153L5.321 26.5189L5.12224 26.8319L4.94416 27.1558L4.78516 27.4845L4.65 27.8241L4.52916 28.1637L4.43535 28.5033L4.36698 28.8429L4.32564 29.1778L4.30974 29.5072V84.6441L4.32564 84.9532L4.36698 85.2411L4.43535 85.4986L4.52916 85.7333L4.65 85.9438L4.78516 86.1183L4.94416 86.2748L5.12145 86.3984Z" fill="#F0F3FA"/>
<path fill-rule="evenodd" clip-rule="evenodd" d="M42.454 1.21913L41.7035 1.40614L41.4713 1.52586L3.05684 23.0601L2.19266 24.0711L1.45886 25.5875L1.27203 26.7746L1.31973 83.0867L1.73075 83.7738L3.35021 84.6807L3.33908 84.4514V28.6088L3.47979 27.4734L4.05141 25.9671L4.9633 24.6079L5.82828 23.769L6.48099 23.3308L44.4367 2.19098L42.454 1.21913ZM4.80588 86.8122C4.69436 86.8122 4.58475 86.7836 4.48788 86.7293L0.680535 84.5046L0.302902 83.9678L0.0795018 83.327L0 82.5922V26.7495L0.139128 25.6134L0.715516 24.1078L1.6282 22.7479L2.49 21.9098L3.14271 21.4724L41.5158 0.161976L42.1908 0.0109549L42.5255 0L43.1615 0.115027L43.4636 0.239443L46.844 2.11743C46.9861 2.19466 47.0917 2.32369 47.1381 2.47676C47.1845 2.62983 47.1679 2.79471 47.0921 2.93592C47.0141 3.07598 46.8853 3.18187 46.7314 3.23237C46.5775 3.28287 46.4098 3.27425 46.2621 3.20822L45.793 3.07911L45.0481 3.26691L44.8096 3.38585L6.39353 24.9201L5.52855 25.9311L4.79396 27.4467L4.60474 28.6346L4.65403 84.9413L5.16682 85.6971C5.30098 85.7846 5.39451 85.9208 5.42699 86.0759C5.45946 86.231 5.42824 86.3925 5.34014 86.525C5.2833 86.6137 5.20438 86.6865 5.11086 86.7366C5.01735 86.7868 4.91236 86.8133 4.80588 86.8122Z" fill="#1B69FF"/>
<path fill-rule="evenodd" clip-rule="evenodd" d="M44.5178 65.0079L6.81968 86.0108C5.24873 86.8864 3.96875 86.1728 3.96875 84.427V28.6094C4.0267 27.6501 4.3154 26.7181 4.81107 25.8901C5.30674 25.0621 5.99518 24.3619 6.81968 23.8471L12.9214 20.4449L16.5555 18.4229L34.7773 8.27004L37.9518 6.50395L44.5178 2.84658C46.0832 1.97175 47.3632 2.68538 47.3632 4.43034V60.2464C47.3046 61.2049 47.0162 62.1362 46.5217 62.9639C46.0271 63.7916 45.3404 64.4923 44.5178 65.0087" fill="#F0F3FA"/>
<path fill-rule="evenodd" clip-rule="evenodd" d="M45.7899 3.07842C45.4525 3.09806 45.1251 3.19823 44.8359 3.37029L7.13214 24.3787C6.40538 24.8414 5.7985 25.4648 5.35985 26.1992C4.92119 26.9337 4.66291 27.7588 4.60557 28.6088V84.4257C4.57682 84.6595 4.60936 84.8966 4.70009 85.1146C4.79083 85.3325 4.93674 85.5239 5.12392 85.6706C5.35135 85.7545 5.59652 85.7808 5.83696 85.7471C6.07739 85.7135 6.30541 85.621 6.5001 85.4781L44.1983 64.476C44.9265 64.0142 45.5349 63.391 45.9746 62.6564C46.4143 61.9217 46.6731 61.0959 46.7304 60.2451V4.42822C46.7598 4.19425 46.7276 3.95676 46.6368 3.7386C46.546 3.52043 46.3998 3.32892 46.212 3.18249C46.0815 3.11217 45.9347 3.07631 45.7859 3.07842M5.55085 86.9993C5.17821 87.003 4.81121 86.9096 4.48711 86.7286C4.1006 86.4841 3.78925 86.1404 3.58665 85.7346C3.38406 85.3288 3.29791 84.8762 3.33752 84.4257V28.6088C3.39258 27.541 3.70906 26.502 4.25999 25.5804C4.81092 24.6589 5.57999 23.882 6.50169 23.3161L44.1991 2.31314C44.5839 2.05452 45.0313 1.90046 45.496 1.86652C45.9607 1.83258 46.4263 1.91997 46.8457 2.11986C47.2332 2.36499 47.5454 2.70942 47.749 3.11613C47.9525 3.52284 48.0396 3.97646 48.0008 4.42822V60.2451C47.945 61.3134 47.6277 62.3527 47.0759 63.2743C46.5242 64.196 45.7543 64.9728 44.8319 65.5386L7.13293 86.5408C6.65442 86.825 6.1095 86.9829 5.55085 86.9993Z" fill="#1B69FF"/>
<path fill-rule="evenodd" clip-rule="evenodd" d="M9.18359 27.7811V80.9258L43.491 61.8141V8.67578C32.0555 15.0401 20.6197 21.4085 9.18359 27.7811Z" fill="white"/>
<path fill-rule="evenodd" clip-rule="evenodd" d="M9.82195 28.1404V79.868L42.8549 61.4653V9.73304L9.82195 28.1404ZM9.18593 81.5401C9.07572 81.5416 8.96726 81.5129 8.87269 81.4572C8.77626 81.4047 8.69589 81.3277 8.63996 81.2343C8.58402 81.1408 8.55458 81.0343 8.55469 80.9259V27.7813C8.55535 27.6736 8.58516 27.568 8.64105 27.4755C8.69695 27.3829 8.77691 27.3067 8.87269 27.2546L43.1737 8.14379C43.271 8.09048 43.3804 8.0625 43.4918 8.0625C43.6031 8.0625 43.7125 8.09048 43.8098 8.14379C43.9048 8.1976 43.9837 8.27513 44.0386 8.36856C44.0934 8.46198 44.1223 8.56799 44.1222 8.67589V61.8111C44.1222 61.9189 44.0933 62.0248 44.0385 62.1181C43.9836 62.2114 43.9047 62.2888 43.8098 62.3424L9.50314 81.4564C9.40682 81.5121 9.29684 81.5408 9.18514 81.5394" fill="#1B69FF"/>
<path fill-rule="evenodd" clip-rule="evenodd" d="M21.1822 23.4993V18.0539C25.3831 15.7153 29.5837 13.3743 33.7841 11.031V16.4811L21.1822 23.4993ZM35.6476 17.2159V8.22266L19.3203 17.3199V26.3069L35.6476 17.2159Z" fill="#1B69FF"/>
<path fill-rule="evenodd" clip-rule="evenodd" d="M21.8214 18.4055V22.4385L33.1544 16.1238V12.0908L21.8214 18.4055ZM21.1854 24.1122C21.0738 24.112 20.9642 24.0832 20.8674 24.0285C20.7717 23.9751 20.692 23.898 20.6361 23.8047C20.5803 23.7115 20.5504 23.6054 20.5494 23.4972V18.051C20.5504 17.9428 20.5803 17.8368 20.6361 17.7435C20.692 17.6502 20.7717 17.5731 20.8674 17.5197L33.4676 10.4968C33.5652 10.4447 33.6745 10.4173 33.7856 10.4173C33.8967 10.4173 34.006 10.4447 34.1036 10.4968C34.2001 10.5494 34.2805 10.6266 34.3365 10.7201C34.3924 10.8137 34.4218 10.9204 34.4216 11.0289V16.479C34.421 16.5866 34.3912 16.692 34.3353 16.7845C34.2794 16.8769 34.1994 16.953 34.1036 17.0048L21.5034 24.0277C21.4068 24.083 21.2971 24.1127 21.1854 24.1122ZM19.9595 17.6715L35.0187 9.28319V16.8585L19.9579 25.2468L19.9595 17.6715ZM19.3234 26.9198C19.2134 26.9182 19.1055 26.8897 19.0094 26.8369C18.913 26.7844 18.8326 26.7074 18.7767 26.614C18.7207 26.5205 18.6913 26.414 18.6914 26.3056V17.3171C18.6913 17.2085 18.7208 17.1019 18.7767 17.0083C18.8326 16.9148 18.913 16.8376 19.0094 16.785L35.3367 7.68847C35.4344 7.63655 35.5437 7.60937 35.6547 7.60938C35.7657 7.60937 35.875 7.63655 35.9727 7.68847C36.069 7.74108 36.1493 7.81808 36.2052 7.9115C36.2611 8.00492 36.2907 8.11136 36.2907 8.21978V17.213C36.2898 17.3205 36.2599 17.4259 36.204 17.5183C36.1482 17.6107 36.0683 17.6868 35.9727 17.7388L19.6391 26.8361C19.5418 26.8895 19.4325 26.9181 19.3211 26.919" fill="#1B69FF"/>
<path fill-rule="evenodd" clip-rule="evenodd" d="M19.3174 17.3192L35.6447 8.22191L33.4099 6.98009L32.0703 6.23438L15.7422 15.3285L19.3174 17.3192Z" fill="#1B69FF"/>
<path fill-rule="evenodd" clip-rule="evenodd" d="M17.0112 15.3281L19.3167 16.6099L34.3752 8.22153L32.0696 6.93981L17.0112 15.3281ZM19.3167 17.9338C19.2067 17.9324 19.0987 17.9039 19.0027 17.8509L15.4251 15.8555C15.3282 15.8044 15.247 15.7285 15.1901 15.6358C15.1332 15.5432 15.1026 15.4372 15.1016 15.3289C15.1026 15.22 15.1331 15.1134 15.19 15.02C15.2469 14.9266 15.328 14.8498 15.4251 14.7976L31.7572 5.70034C31.854 5.64585 31.9636 5.61719 32.0752 5.61719C32.1867 5.61719 32.2964 5.64585 32.3932 5.70034L35.9708 7.691C36.0672 7.74351 36.1476 7.82049 36.2036 7.91392C36.2595 8.00736 36.289 8.11385 36.289 8.22231C36.289 8.33078 36.2595 8.43727 36.2036 8.5307C36.1476 8.62414 36.0672 8.70112 35.9708 8.75363L19.6355 17.8501C19.5384 17.9037 19.429 17.9323 19.3175 17.9331" fill="#1B69FF"/>
<path fill-rule="evenodd" clip-rule="evenodd" d="M4.80811 86.202L1.46903 84.342L1.28618 84.2168L1.12718 84.0657L0.981688 83.8834L0.862435 83.6698L0.764648 83.435L0.694686 83.1698L0.65096 82.8779L0.640625 82.5649V26.7481L0.65096 26.4147L0.693891 26.079L0.763853 25.7355L0.86164 25.392L0.980893 25.0485L1.12638 24.705L1.28538 24.3716L1.46824 24.043L1.47857 24.0273L4.81765 25.8873L4.80731 25.903L4.62366 26.2308L4.46466 26.5642L4.32394 26.9046L4.19435 27.2481L4.10213 27.5916L4.03138 27.9351L3.98845 28.2739L3.97175 28.6073V84.4241L3.98845 84.7371L4.03138 85.0282L4.10213 85.2888L4.19435 85.529L4.32394 85.7426L4.46387 85.9195L4.62287 86.076L4.80811 86.202Z" fill="#1B69FF"/>
<path fill-rule="evenodd" clip-rule="evenodd" d="M1.7395 24.8778L1.3722 25.8951L1.27203 26.7738L1.31973 83.086L1.73075 83.773L3.35021 84.6799L3.33908 84.4506V28.6072L3.47979 27.4718L3.97509 26.1181L1.7395 24.8778ZM4.80588 86.8114C4.69551 86.8123 4.58697 86.7836 4.49185 86.7285L0.680535 84.5031L0.302902 83.9663L0.0795018 83.3199L0 82.5906V26.748L0.139128 25.6118L0.715516 24.1063L0.915861 23.7463C0.956175 23.6725 1.01149 23.6075 1.07836 23.5556C1.14524 23.5036 1.22225 23.4657 1.30462 23.4443C1.47028 23.397 1.64802 23.4138 1.80151 23.4912L5.13582 25.352C5.28102 25.4339 5.38757 25.5689 5.43236 25.7276C5.4532 25.8056 5.45767 25.887 5.44551 25.9668C5.43334 26.0466 5.40479 26.1231 5.3616 26.1916L4.79475 27.4436L4.60554 28.6314L4.65483 84.9381L5.16762 85.694C5.30272 85.7806 5.39737 85.9164 5.43077 86.0717C5.46416 86.2269 5.43356 86.3889 5.3457 86.5219C5.28698 86.6098 5.20698 86.682 5.1129 86.732C5.01882 86.782 4.91359 86.8082 4.80668 86.8083" fill="#1B69FF"/>
<path fill-rule="evenodd" clip-rule="evenodd" d="M15.7446 17.1013L17.3347 17.987V25.2032L19.3159 26.3081V17.3219L15.7383 15.332L15.7446 17.1013Z" fill="#1B69FF"/>
<path fill-rule="evenodd" clip-rule="evenodd" d="M17.977 24.8532L18.6925 25.2491V17.673L16.387 16.3866V16.7458L17.659 17.4539C17.7561 17.5062 17.8374 17.5829 17.8944 17.6763C17.9514 17.7697 17.9821 17.8763 17.9834 17.9852L17.977 24.8532ZM19.3214 26.9213C19.2113 26.9197 19.1034 26.8912 19.0073 26.8384L17.0285 25.7335C16.9314 25.6813 16.8502 25.6046 16.7933 25.5112C16.7364 25.4178 16.7059 25.3111 16.705 25.2022V18.3397L15.4329 17.6261C15.3361 17.575 15.255 17.4992 15.1981 17.4067C15.1412 17.3142 15.1106 17.2084 15.1094 17.1002V15.3287C15.1105 15.2198 15.141 15.1132 15.1979 15.0198C15.2548 14.9264 15.3359 14.8496 15.4329 14.7974C15.5291 14.7433 15.6379 14.7148 15.7486 14.7148C15.8593 14.7148 15.9681 14.7433 16.0642 14.7974L19.6418 16.7872C19.7382 16.8399 19.8186 16.917 19.8745 17.0106C19.9304 17.1042 19.9599 17.2108 19.9598 17.3193V26.3032C19.9599 26.4116 19.9304 26.5181 19.8745 26.6116C19.8186 26.705 19.7382 26.782 19.6418 26.8345C19.5445 26.8879 19.4351 26.9164 19.3238 26.9174" fill="#1B69FF"/>
<path fill-rule="evenodd" clip-rule="evenodd" d="M31.8008 12.1354V15.1871L33.782 16.479V11.0273L31.8008 12.1354Z" fill="#1B69FF"/>
<path fill-rule="evenodd" clip-rule="evenodd" d="M32.4393 14.8599L33.1548 15.3239V12.093L32.4393 12.489V14.8599ZM33.7837 17.09C33.6587 17.0901 33.5365 17.0539 33.4323 16.9859L31.4447 15.6941C31.36 15.6385 31.2902 15.5635 31.2414 15.4756C31.1925 15.3878 31.166 15.2895 31.1641 15.1893V12.1376C31.1644 12.0286 31.1947 11.9217 31.2516 11.8282C31.3086 11.7347 31.3901 11.658 31.4876 11.6063L33.4688 10.5014C33.5656 10.4492 33.6741 10.4219 33.7844 10.4219C33.8948 10.4219 34.0033 10.4492 34.1001 10.5014C34.1964 10.554 34.2768 10.631 34.3327 10.7244C34.3886 10.8178 34.4181 10.9243 34.4181 11.0327V16.4828C34.4176 16.5946 34.3855 16.704 34.3254 16.7988C34.2653 16.8936 34.1796 16.97 34.0778 17.0196C33.9873 17.0693 33.8849 17.0944 33.7813 17.0924" fill="#1B69FF"/>
<path fill-rule="evenodd" clip-rule="evenodd" d="M21.1836 21.1008L31.8042 15.1875L33.7862 16.4794L21.1836 23.4968V21.1008Z" fill="#1B69FF"/>
<path fill-rule="evenodd" clip-rule="evenodd" d="M21.8189 21.4541V22.4392L32.5914 16.4375L31.7757 15.9054L21.8189 21.4541ZM21.1829 24.1145C21.0713 24.1146 20.9616 24.0857 20.8649 24.0308C20.7692 23.9775 20.6895 23.9003 20.6337 23.807C20.5778 23.7138 20.5479 23.6077 20.5469 23.4995V21.0996C20.5478 20.9913 20.5777 20.8853 20.6336 20.792C20.6894 20.6987 20.7692 20.6216 20.8649 20.5683L31.4903 14.6542C31.5928 14.596 31.7097 14.567 31.8279 14.5706C31.9462 14.5742 32.0611 14.6102 32.1597 14.6745L34.1409 15.9672C34.2303 16.0239 34.3032 16.1024 34.3524 16.1952C34.4016 16.288 34.4255 16.3917 34.4216 16.4963C34.4178 16.6009 34.3863 16.7027 34.3304 16.7917C34.2745 16.8807 34.1961 16.9539 34.1027 17.004L21.5009 24.0277C21.4043 24.0829 21.2946 24.1118 21.1829 24.1114" fill="#1B69FF"/>
<path fill-rule="evenodd" clip-rule="evenodd" d="M34.8352 23.4141C34.1724 23.8367 33.6189 24.4057 33.2186 25.0758C32.8184 25.7458 32.5825 26.4986 32.5296 27.2741C32.5013 27.482 32.5282 27.6935 32.6076 27.8881C32.687 28.0826 32.8163 28.2537 32.9828 28.3845C33.1848 28.4579 33.4024 28.4802 33.6155 28.4493C33.8286 28.4184 34.0304 28.3353 34.2023 28.2077C34.866 27.7858 35.4202 27.2169 35.8205 26.5465C36.2209 25.8761 36.4563 25.1228 36.5079 24.3468C36.5363 24.1394 36.51 23.9283 36.4315 23.7338C36.353 23.5393 36.2248 23.3681 36.0595 23.2365C35.8565 23.1629 35.638 23.1407 35.424 23.1717C35.2099 23.2027 35.008 23.2861 34.8352 23.4141ZM33.3437 29.6975C32.9946 29.7003 32.6507 29.6143 32.3452 29.4479C31.9797 29.2176 31.685 28.8936 31.4928 28.5107C31.3006 28.1278 31.2182 27.7005 31.2544 27.2749C31.3064 26.2812 31.6017 25.3146 32.1149 24.4574C32.6282 23.6001 33.3443 22.8777 34.2023 22.3515C34.5643 22.1079 34.9854 21.9632 35.4227 21.9321C35.86 21.901 36.2978 21.9847 36.6915 22.1746C37.0567 22.4048 37.3513 22.7286 37.5435 23.1112C37.7357 23.4938 37.8182 23.9207 37.7823 24.346C37.7302 25.3397 37.435 26.3063 36.9217 27.1635C36.4084 28.0208 35.6924 28.7432 34.8344 29.2695C34.3833 29.5362 33.8698 29.6842 33.3437 29.6975Z" fill="#1B69FF"/>
<path fill-rule="evenodd" clip-rule="evenodd" d="M18.1799 65.3096C17.5165 65.7323 16.9622 66.3013 16.5611 66.9714C16.1599 67.6416 15.9229 68.3945 15.8688 69.1705C15.8419 69.3789 15.8694 69.5907 15.9486 69.7857C16.0279 69.9808 16.1564 70.1528 16.3219 70.2855C16.5254 70.3565 16.7435 70.3775 16.9571 70.3467C17.1708 70.3159 17.3736 70.2342 17.5478 70.1087C18.2117 69.6865 18.7663 69.1176 19.1675 68.4474C19.5687 67.7771 19.8055 67.024 19.8589 66.2478C19.887 66.0401 19.86 65.8288 19.7806 65.6344C19.7012 65.44 19.5721 65.2691 19.4058 65.1383C19.2032 65.0634 18.9847 65.04 18.7705 65.07C18.5562 65.1001 18.3531 65.182 18.1799 65.3096ZM16.6892 71.5993C16.3379 71.6001 15.9922 71.5123 15.6851 71.3442C15.3214 71.1125 15.0286 70.7878 14.8379 70.4049C14.6471 70.0221 14.5657 69.5954 14.6023 69.1705C14.6543 68.1774 14.9495 67.2114 15.4628 66.3549C15.9761 65.4985 16.6923 64.7769 17.5502 64.2517C17.9127 64.007 18.3348 63.8616 18.7732 63.8305C19.2117 63.7994 19.6506 63.8838 20.045 64.0749C20.4088 64.3062 20.702 64.6305 20.8931 65.0131C21.0843 65.3957 21.1662 65.8222 21.1302 66.2471C21.0779 67.2403 20.7822 68.2064 20.2685 69.0629C19.7548 69.9194 19.0382 70.6409 18.1799 71.1658C17.7302 71.4363 17.216 71.5853 16.6892 71.5978" fill="#1B69FF"/>
<path fill-rule="evenodd" clip-rule="evenodd" d="M18.465 63.524C18.2995 63.5257 18.1399 63.4632 18.0209 63.35C17.9019 63.2368 17.8329 63.082 17.829 62.9191C17.7582 53.9627 22.169 49.4141 26.435 45.0243C30.236 41.1055 33.8287 37.4067 34.0672 30.7531C34.0732 30.6175 34.1247 30.4877 34.2136 30.384C34.3025 30.2802 34.4238 30.2083 34.5585 30.1796C34.6929 30.1498 34.8335 30.1631 34.9597 30.2176C35.0858 30.2721 35.191 30.3649 35.2597 30.4824L37.0358 33.6343C37.0762 33.7047 37.1017 33.7824 37.1108 33.8628C37.1198 33.9431 37.1123 34.0245 37.0886 34.1019C37.0649 34.1793 37.0256 34.2512 36.9729 34.3132C36.9202 34.3753 36.8554 34.4262 36.7822 34.4629C36.6341 34.5405 36.4612 34.5583 36.3001 34.5126C36.1389 34.4669 36.0022 34.3612 35.9188 34.218L35.1516 32.8479C34.2874 38.7166 30.7726 42.3458 27.3604 45.8576C23.2621 50.0784 19.0294 54.4439 19.0994 62.9113C19.0965 63.0746 19.0289 63.2303 18.9109 63.3452C18.793 63.4601 18.6341 63.5251 18.4682 63.5263L18.465 63.524Z" fill="#1B69FF"/>
<path fill-rule="evenodd" clip-rule="evenodd" d="M32.3424 35.0006C32.2315 34.9994 32.1229 34.9695 32.0275 34.9138C31.9321 34.8581 31.8533 34.7786 31.7991 34.6833C31.7449 34.5881 31.7172 34.4804 31.7188 34.3713C31.7204 34.2621 31.7512 34.1553 31.8081 34.0616L34.1678 30.441C34.2591 30.3028 34.4022 30.2055 34.5659 30.1705C34.7297 30.1355 34.9009 30.1655 35.0423 30.254C35.1124 30.2955 35.1734 30.3504 35.2216 30.4155C35.2698 30.4806 35.3043 30.5546 35.3229 30.6331C35.3415 30.7115 35.3439 30.7928 35.33 30.8722C35.3161 30.9516 35.2861 31.0274 35.2418 31.0952L32.883 34.7111C32.8242 34.7991 32.7441 34.8714 32.6499 34.9214C32.5556 34.9714 32.4502 34.9975 32.3432 34.9975" fill="#1B69FF"/>
<path fill-rule="evenodd" clip-rule="evenodd" d="M18.2703 40.2387C18.1594 40.2386 18.0503 40.2117 17.9523 40.1605C17.8808 40.1207 17.8181 40.0673 17.7677 40.0035C17.7172 39.9397 17.6802 39.8667 17.6586 39.7887C17.637 39.7107 17.6313 39.6293 17.6419 39.5491C17.6525 39.4689 17.6791 39.3916 17.7202 39.3216L22.1643 31.8966C22.2495 31.7551 22.3879 31.6524 22.5494 31.6105C22.711 31.5686 22.8828 31.591 23.0277 31.6728C23.1003 31.7115 23.1642 31.7642 23.2157 31.8277C23.2672 31.8912 23.3052 31.9642 23.3274 32.0425C23.3497 32.1207 23.3557 32.2026 23.3452 32.2831C23.3347 32.3637 23.3078 32.4414 23.2662 32.5116L18.8229 39.9359C18.7657 40.0292 18.6849 40.1062 18.5882 40.1593C18.4916 40.2124 18.3826 40.2398 18.2719 40.2387" fill="#1B69FF"/>
<path fill-rule="evenodd" clip-rule="evenodd" d="M22.8029 37.8141C22.6921 37.8133 22.5831 37.7865 22.4849 37.7359L18.0416 35.2609C17.9702 35.2209 17.9076 35.1675 17.8573 35.1036C17.807 35.0398 17.77 34.9668 17.7485 34.8889C17.7269 34.811 17.7212 34.7296 17.7316 34.6495C17.7421 34.5694 17.7685 34.4921 17.8094 34.422C17.8961 34.2807 18.035 34.1778 18.197 34.1351C18.359 34.0923 18.5315 34.113 18.6784 34.1928L23.1217 36.6678C23.2656 36.7486 23.371 36.8824 23.4147 37.0397C23.4583 37.197 23.4368 37.365 23.3547 37.5066C23.298 37.6006 23.2174 37.6784 23.1207 37.7322C23.0241 37.7861 22.9148 37.814 22.8037 37.8133" fill="#1B69FF"/>
<path fill-rule="evenodd" clip-rule="evenodd" d="M26.029 64.0664C25.9189 64.0663 25.8109 64.0374 25.7158 63.9827C25.6439 63.944 25.5807 63.8914 25.53 63.8282C25.4792 63.7649 25.4418 63.6923 25.4202 63.6145C25.3985 63.5367 25.393 63.4555 25.4039 63.3756C25.4148 63.2957 25.4419 63.2187 25.4837 63.1494L29.8626 55.8291C29.9487 55.6884 30.0871 55.5863 30.2484 55.5444C30.4098 55.5024 30.5814 55.524 30.7268 55.6046C30.7987 55.644 30.8618 55.6971 30.9126 55.7609C30.9633 55.8247 31.0006 55.8978 31.0222 55.9759C31.0438 56.054 31.0494 56.1356 31.0385 56.2159C31.0276 56.2962 31.0006 56.3735 30.9589 56.4434L26.58 63.7636C26.5224 63.8565 26.4415 63.9332 26.345 63.9863C26.2484 64.0394 26.1396 64.067 26.029 64.0664Z" fill="#1B69FF"/>
<path fill-rule="evenodd" clip-rule="evenodd" d="M30.5033 61.6771C30.3935 61.6756 30.2858 61.6471 30.1901 61.5942L25.8111 59.1559C25.7388 59.117 25.6751 59.0641 25.624 59.0004C25.5729 58.9367 25.5354 58.8635 25.5137 58.7851C25.4921 58.7068 25.4867 58.625 25.4979 58.5446C25.5091 58.4641 25.5367 58.3868 25.579 58.3171C25.6651 58.1764 25.8035 58.0743 25.9649 58.0325C26.1263 57.9907 26.2979 58.0125 26.4432 58.0933L30.8221 60.5316C30.8934 60.5715 30.9561 60.6249 31.0064 60.6888C31.0567 60.7526 31.0937 60.8256 31.1152 60.9035C31.1368 60.9815 31.1425 61.0628 31.132 61.1429C31.1216 61.2231 31.0952 61.3004 31.0543 61.3704C30.9976 61.4644 30.917 61.5422 30.8203 61.596C30.7237 61.6498 30.6144 61.6778 30.5033 61.6771Z" fill="#1B69FF"/>
<path fill-rule="evenodd" clip-rule="evenodd" d="M35.0517 49.0113C34.9423 49.0117 34.8346 48.984 34.7394 48.9308C34.6443 48.8776 34.5649 48.8008 34.5092 48.7081C34.4535 48.6154 34.4234 48.51 34.4219 48.4023C34.4204 48.2946 34.4476 48.1884 34.5007 48.0942L37.4916 43.0862C37.5791 42.9456 37.7186 42.8437 37.8807 42.802C38.0428 42.7603 38.2151 42.7819 38.3613 42.8624C38.4328 42.9022 38.4956 42.9556 38.546 43.0194C38.5964 43.0832 38.6335 43.1562 38.6551 43.2342C38.6767 43.3122 38.6824 43.3936 38.6718 43.4738C38.6612 43.554 38.6346 43.6313 38.5935 43.7013L35.5971 48.703C35.541 48.7963 35.4613 48.8738 35.3657 48.9277C35.2701 48.9816 35.1619 49.0109 35.0517 49.0113Z" fill="#1B69FF"/>
<path fill-rule="evenodd" clip-rule="evenodd" d="M38.1024 47.3799C37.9927 47.3776 37.8853 47.3491 37.7892 47.297L34.7928 45.6248C34.7212 45.5857 34.6583 45.5329 34.6078 45.4695C34.5572 45.4062 34.52 45.3335 34.4984 45.2558C34.4768 45.1781 34.4711 45.0969 34.4818 45.017C34.4925 44.9372 34.5193 44.8602 34.5606 44.7906C34.6473 44.6493 34.7866 44.5468 34.9489 44.505C35.1112 44.4632 35.2836 44.4854 35.4296 44.5669L38.4212 46.2343C38.4934 46.2734 38.5569 46.3264 38.6079 46.3902C38.6588 46.4539 38.6962 46.5271 38.7178 46.6054C38.7394 46.6837 38.7447 46.7655 38.7335 46.8458C38.7223 46.9262 38.6948 47.0035 38.6526 47.0732C38.5953 47.1665 38.5146 47.2437 38.4183 47.2974C38.3219 47.3511 38.2131 47.3795 38.1024 47.3799Z" fill="#1B69FF"/>
<path fill-rule="evenodd" clip-rule="evenodd" d="M15.8677 52.1331C15.7565 52.1306 15.6475 52.1021 15.5497 52.0502C15.4783 52.0103 15.4156 51.9569 15.3652 51.8931C15.3149 51.8293 15.2778 51.7563 15.2563 51.6783C15.2347 51.6003 15.229 51.5189 15.2395 51.4388C15.25 51.3587 15.2765 51.2813 15.3175 51.2113L18.3148 46.2096C18.3998 46.0681 18.5381 45.9651 18.6997 45.9231C18.8612 45.8811 19.0331 45.9033 19.1781 45.9851C19.2506 46.0233 19.3144 46.0756 19.3656 46.1389C19.4169 46.2022 19.4545 46.275 19.4762 46.3531C19.4979 46.4311 19.5033 46.5127 19.492 46.5928C19.4806 46.6729 19.4528 46.75 19.4103 46.8192L16.4194 51.8272C16.3621 51.9204 16.2814 51.9976 16.1851 52.0513C16.0887 52.105 15.98 52.1334 15.8693 52.1339" fill="#1B69FF"/>
<path fill-rule="evenodd" clip-rule="evenodd" d="M18.9258 50.4982C18.8142 50.4985 18.7046 50.4699 18.6078 50.4152L15.6161 48.7477C15.5437 48.7089 15.48 48.656 15.4288 48.5923C15.3776 48.5286 15.3401 48.4554 15.3184 48.377C15.2967 48.2987 15.2913 48.2168 15.3026 48.1364C15.3139 48.0559 15.3416 47.9786 15.384 47.9089C15.4709 47.7693 15.6092 47.6681 15.77 47.6264C15.9309 47.5847 16.1019 47.6058 16.2474 47.6851L19.2446 49.3597C19.316 49.3989 19.3787 49.4518 19.4291 49.5152C19.4796 49.5786 19.5167 49.6512 19.5383 49.7288C19.5599 49.8065 19.5656 49.8876 19.555 49.9674C19.5444 50.0472 19.5178 50.1242 19.4767 50.1938C19.4201 50.2878 19.3394 50.3656 19.2428 50.4194C19.1461 50.4732 19.0368 50.5012 18.9258 50.5005" fill="#1B69FF"/>
</g>
<defs>
<clipPath id="clip0_9_90725">
<rect width="48" height="87" fill="white"/>
</clipPath>
</defs>
</svg>
