<svg width="89" height="67" viewBox="0 0 89 67" fill="none" xmlns="http://www.w3.org/2000/svg">
<g clip-path="url(#clip0_9_90634)">
<mask id="mask0_9_90634" style="mask-type:luminance" maskUnits="userSpaceOnUse" x="0" y="0" width="89" height="67">
<path d="M89 0H0V67H89V0Z" fill="white"/>
</mask>
<g mask="url(#mask0_9_90634)">
<path fill-rule="evenodd" clip-rule="evenodd" d="M24.9524 1.24757C22.2833 0.171465 20.0351 0.49761 17.3819 1.43593C13.5444 3.07915 10.1864 5.65321 7.61771 8.92068C4.81821 12.3199 2.7349 16.2405 1.49089 20.4508C0.504989 23.601 0.358217 26.9503 1.06483 30.1733C1.52166 32.1643 2.70557 33.9176 4.38881 35.0959L6.38795 36.2008L9.89326 38.1193L30.4084 4.25001L24.9524 1.24757Z" fill="#1B69FF"/>
<path fill-rule="evenodd" clip-rule="evenodd" d="M21.6142 1.15953C20.2363 1.19991 18.876 1.47728 17.5939 1.97925C14.1018 3.41115 11.1608 5.668 8.09561 9.28262C5.34973 12.6262 3.304 16.4783 2.07795 20.614C1.08586 24.3821 0.96174 27.1211 1.65981 30.0451C2.08583 31.9013 3.18822 33.5364 4.75579 34.6373L9.66781 37.3241L29.58 4.46283L24.6785 1.76647C23.7072 1.36659 22.6661 1.1592 21.6142 1.15604M9.89229 38.6967C9.78557 38.6973 9.68035 38.6718 9.58595 38.6225L4.08413 35.6009C2.26607 34.3482 0.980417 32.4732 0.474939 30.3372C-0.256873 27.0159 -0.112256 23.5638 0.894838 20.314C2.16464 16.0272 4.2853 12.0347 7.13258 8.57016C10.3412 4.78287 13.4258 2.42312 17.1432 0.902279C19.5112 0.0633729 22.1072 -0.529617 25.1891 0.709557C25.2132 0.719377 25.2364 0.73104 25.2586 0.744439L30.7156 3.75037C30.784 3.78687 30.8443 3.8367 30.8929 3.89687C30.9414 3.95705 30.9771 4.02633 30.9979 4.10054C31.0187 4.17475 31.0242 4.25236 31.0139 4.32871C31.0037 4.40506 30.9779 4.47856 30.9383 4.54481L10.4178 38.4106C10.3342 38.5435 10.2015 38.6389 10.0481 38.6766C9.9974 38.6907 9.94493 38.6974 9.89229 38.6967Z" fill="#4069FA"/>
<path fill-rule="evenodd" clip-rule="evenodd" d="M20.6811 37.4468C28.719 33.0369 35.2358 22.3107 35.2358 13.4891C35.2358 4.66753 28.7217 1.07994 20.682 5.49509C12.6423 9.91025 6.12109 20.6381 6.12109 29.4615C6.12109 38.2848 12.6414 41.8567 20.6811 37.4468Z" fill="#F0F3FA"/>
<path fill-rule="evenodd" clip-rule="evenodd" d="M27.1805 4.18172C24.9956 4.26374 22.8666 4.88868 20.9894 5.99906C13.1319 10.3096 6.73747 20.8369 6.73747 29.4631C6.73747 33.512 8.14593 36.5145 10.6935 37.9115C13.2411 39.3085 16.6874 38.9736 20.3767 36.9435C28.2315 32.633 34.6242 22.1101 34.6242 13.4856C34.6242 9.42706 33.2157 6.422 30.6629 5.02673C29.5927 4.45227 28.3914 4.1598 27.1743 4.17736M14.1768 39.9216C12.7471 39.9405 11.3365 39.5955 10.0799 38.9196C7.13712 37.3046 5.51562 33.942 5.51562 29.4623C5.51562 20.4654 12.1812 9.48374 20.3802 4.99097C24.4595 2.74895 28.3328 2.40885 31.2773 4.02388C34.2219 5.6389 35.8496 9.0015 35.8496 13.4899C35.8496 22.4816 29.1831 33.4536 20.9894 37.9473V37.9525C18.922 39.1658 16.5793 39.8433 14.1777 39.9224" fill="#4069FA"/>
<path fill-rule="evenodd" clip-rule="evenodd" d="M27.1902 8.85758L26.809 8.70497C25.4955 8.28073 24.0824 8.26521 22.7597 8.6605C19.9834 9.55557 17.506 11.1836 15.5941 13.3695C12.8248 16.3496 10.891 19.9958 9.98492 23.9457C9.44345 26.1511 9.54974 28.464 10.2913 30.6116C10.704 31.6778 11.4317 32.5959 12.3793 33.246L13.8195 34.0309L14.3556 34.3265C16.2737 35.5953 17.6919 36.2773 22.1276 33.8425C26.5634 31.4078 32.611 21.4595 32.611 16.5848C32.611 11.71 31.2677 10.8668 29.1348 9.92845L27.1902 8.85758Z" fill="white"/>
<path fill-rule="evenodd" clip-rule="evenodd" d="M24.8235 8.95309C24.1758 8.96781 23.5321 9.05736 22.9054 9.21993C20.2422 10.0797 17.8689 11.6484 16.0453 13.7546C13.3473 16.6604 11.4634 20.2148 10.5804 24.0647C10.0693 26.1657 10.1678 28.367 10.8648 30.415C11.2358 31.3744 11.8925 32.1995 12.7477 32.7808L14.6588 33.8273C16.3314 34.933 17.5083 35.7135 21.8217 33.3433C26.1017 30.9896 31.9988 21.2812 31.9988 16.5852C31.9988 11.8256 30.6898 11.2527 28.8764 10.4574L26.5683 9.2365C26.005 9.05348 25.4163 8.95845 24.8235 8.95483M17.3824 36.0606C16.1506 36.0059 14.9681 35.565 14.0056 34.8013L12.0743 33.7453C11.0114 33.0347 10.1927 32.0198 9.72742 30.8362C8.94183 28.5842 8.82211 26.1568 9.38234 23.8397C10.3091 19.787 12.2906 16.0452 15.1298 12.9863C17.1095 10.7098 19.6873 9.02129 22.577 8.10808C24.0214 7.67848 25.5635 7.69399 26.9987 8.15255L27.4274 8.32696C27.4512 8.33655 27.4732 8.34614 27.4952 8.35661L29.438 9.43271C31.7021 10.4199 33.2232 11.4672 33.2232 16.5835C33.2232 21.6745 27.0709 31.8015 22.4326 34.3444C20.1747 35.5844 18.6236 36.058 17.3842 36.058" fill="#1B69FF"/>
<path fill-rule="evenodd" clip-rule="evenodd" d="M36.4379 61.3631L27.4219 54.5612L15.8752 33.7856C14.7255 32.9792 13.9165 31.781 13.6031 30.4204C13.0324 27.5849 13.342 24.6446 14.4914 21.9869C15.4486 19.5802 16.8047 17.3488 18.5037 15.3846C25.6446 7.44902 41.5541 10.141 50.6009 12.847C51.3281 13.0468 52.0033 13.3994 52.5805 13.881C53.1578 14.3625 53.6235 14.9616 53.946 15.6375L56.0639 19.9785C56.5872 21.0077 56.7224 22.188 56.4451 23.3071L54.6757 30.9209L64.3589 51.8866L54.2109 57.2593C54.416 57.9063 51.9768 60.6367 49.2294 59.8963C48.8464 60.4449 49.0973 61.6884 46.0251 61.5942C46.1572 62.1427 45.4019 62.6564 44.0286 62.6564L37.6139 61.8366C37.1863 61.7866 36.7794 61.623 36.4379 61.3631Z" fill="white"/>
<path fill-rule="evenodd" clip-rule="evenodd" d="M27.9035 54.1819L36.82 60.9071C37.072 61.1033 37.374 61.2264 37.6924 61.2629L44.1097 62.0774C44.9732 62.0774 45.3923 61.801 45.4301 61.7024C45.4081 61.6181 45.4077 61.5297 45.4289 61.4452C45.4501 61.3607 45.4923 61.2827 45.5516 61.2184C45.6143 61.1526 45.6902 61.1005 45.7746 61.0656C45.8589 61.0308 45.9497 61.0139 46.041 61.0161C48.0948 61.0702 48.2831 60.5662 48.4759 60.0726C48.5376 59.8973 48.6201 59.7299 48.7215 59.5738C48.7959 59.4713 48.9 59.3937 49.02 59.3513C49.14 59.309 49.2702 59.3038 49.3932 59.3366C49.8654 59.4473 50.3557 59.4592 50.8328 59.3717C51.31 59.2841 51.7635 59.099 52.1643 58.8282C52.7878 58.4851 53.2923 57.9635 53.6115 57.3317C53.5279 57.0701 53.6599 56.8879 53.9117 56.7545L63.572 51.6338L54.1177 31.1565C54.0666 31.0435 54.053 30.9174 54.079 30.7963L55.8501 23.1816C56.0981 22.1846 55.9766 21.1325 55.5077 20.2167L53.395 15.8757C53.1088 15.274 52.6946 14.7407 52.1809 14.3125C51.6672 13.8843 51.0661 13.5712 50.4187 13.3947C44.9988 11.7701 26.7081 7.15347 18.9659 15.7597C17.3127 17.6745 15.9933 19.849 15.0619 22.1936C13.8893 25.3539 13.6208 27.8523 14.2 30.2871C14.4769 31.5149 15.2064 32.5962 16.2458 33.3191C16.3181 33.3698 16.3782 33.4356 16.4219 33.5119L27.9035 54.1819ZM44.0507 63.2329H44.026L37.533 62.4079C36.9956 62.3489 36.485 62.144 36.0577 61.8158L27.0452 55.0139C26.9791 54.9649 26.9239 54.9028 26.8833 54.8316L15.399 34.1642C14.2014 33.2836 13.3567 32.0119 13.0143 30.574C12.3752 27.8881 12.6551 25.1865 13.9175 21.7899C14.8951 19.3217 16.2835 17.0335 18.0249 15.0202C26.2723 5.85587 45.1828 10.6103 50.784 12.2898C51.5902 12.5149 52.3385 12.908 52.9789 13.4428C53.6192 13.9776 54.1369 14.6417 54.4971 15.3908L56.616 19.7318C57.1959 20.8773 57.3462 22.1895 57.0403 23.4345L55.3149 30.8609L64.9101 51.6539C64.9708 51.7868 64.9778 51.9377 64.9297 52.0756C64.8816 52.2134 64.7819 52.3278 64.6513 52.3951L54.792 57.6143C54.5963 58.1488 54.2718 58.6277 53.8466 59.0096C53.2951 59.5636 52.627 59.9903 51.8899 60.2593C51.1529 60.5282 50.365 60.6327 49.5824 60.5653C49.2638 61.3405 48.696 62.1306 46.5384 62.1751C46.4933 62.2751 46.434 62.3681 46.3623 62.4515C46.0526 62.7352 45.6861 62.9513 45.2867 63.0857C44.8872 63.2201 44.4638 63.27 44.0437 63.232" fill="#1B69FF"/>
<path fill-rule="evenodd" clip-rule="evenodd" d="M62.7084 52.5758L56.9486 48.2802L52.5472 41.8017L48.6959 38.1331C47.8005 37.3124 47.08 36.3225 46.5767 35.2217C46.0734 34.121 45.7976 32.9315 45.7654 31.7235L45.5894 27.1174L37.253 26.3326L33.9555 30.0823C33.5423 30.6014 32.9854 30.9899 32.3528 31.2004C31.7203 31.4109 31.0395 31.4342 30.3938 31.2675L27.289 30.3597C27.149 30.3216 27.0202 30.2512 26.913 30.1542C26.8059 30.0571 26.7236 29.9363 26.6728 29.8015C26.6191 29.6706 26.599 29.5286 26.6144 29.3881C26.6298 29.2476 26.6801 29.1131 26.7608 28.9967L33.2424 19.2838C33.4584 18.9321 33.7471 18.6296 34.0895 18.3964C34.432 18.1631 34.8204 18.0043 35.2292 17.9304L49.0771 15.8863C49.2277 15.8739 49.3792 15.8945 49.5208 15.9466C49.6625 15.9988 49.7908 16.0812 49.8966 16.1881L58.2594 23.1845C65.5332 29.2731 62.0763 29.1641 69.3202 30.8131C71.5853 31.3978 73.8042 32.1453 75.9594 33.0499C81.0404 42.6145 73.4189 49.6187 65.9751 51.818C65.9751 51.818 63.3492 52.841 62.704 52.5785" fill="#F0F3FA"/>
<path fill-rule="evenodd" clip-rule="evenodd" d="M62.979 52.0392C63.9334 51.9208 64.8653 51.6646 65.7449 51.2788C69.5301 50.1573 74.2124 47.4418 76.1323 43.1313C77.4677 40.1341 77.2643 36.8997 75.5161 33.5074L73.9835 32.9301C72.4247 32.2914 70.8183 31.773 69.1789 31.3796C64.5397 30.3227 64.0961 29.9477 62.5195 28.1452C61.0979 26.5066 59.537 24.9918 57.8539 23.6176L49.4912 16.6255C49.4033 16.5374 49.2897 16.4788 49.1663 16.4581L35.3282 18.5022C35.006 18.5684 34.701 18.6994 34.4319 18.887C34.1629 19.0747 33.9355 19.315 33.7639 19.5931L27.2814 29.3059C27.2503 29.3472 27.231 29.396 27.2254 29.4472C27.2198 29.4985 27.2282 29.5503 27.2497 29.5972C27.2659 29.6472 27.2949 29.6921 27.334 29.7276C27.3731 29.7631 27.4208 29.7879 27.4725 29.7995L30.5799 30.7125C31.1107 30.8403 31.6675 30.8138 32.1836 30.6361C32.6996 30.4583 33.1529 30.137 33.4892 29.7105L36.7877 25.9607C36.8541 25.8891 36.9363 25.8336 37.0279 25.7985C37.1195 25.7634 37.2181 25.7497 37.3159 25.7584L45.6522 26.5433C45.7961 26.5531 45.9315 26.6147 46.0326 26.7166C46.1338 26.8184 46.1939 26.9534 46.2015 27.0961L46.3776 31.7084C46.404 32.843 46.6612 33.9606 47.1337 34.9945C47.6062 36.0284 48.2844 36.9572 49.1276 37.7255L52.9789 41.3881L57.4023 47.8822L62.979 52.0392ZM62.9931 53.1894C62.8129 53.1948 62.6335 53.1652 62.4649 53.1022C62.4165 53.0833 62.3706 53.0584 62.3284 53.0281L56.5705 48.7359C56.5172 48.6964 56.4714 48.648 56.4349 48.5929L52.0334 42.1145L48.2649 38.5443C47.3182 37.6725 46.5559 36.6228 46.0224 35.4565C45.4889 34.2901 45.1949 33.0302 45.1575 31.7502L45.0017 27.642L37.5192 26.9444L34.4268 30.4509C33.9358 31.06 33.276 31.5139 32.5284 31.7568C31.7808 31.9997 30.9778 32.021 30.2181 31.8183L27.1124 30.9105C26.8827 30.8484 26.6712 30.7331 26.4952 30.5743C26.3192 30.4154 26.1838 30.2174 26.1001 29.9966C26.0141 29.7823 25.9828 29.5504 26.0089 29.3214C26.035 29.0923 26.1177 28.8731 26.2497 28.6833L32.7331 18.9704C32.9954 18.5473 33.3457 18.1845 33.7607 17.906C34.1757 17.6275 34.6458 17.4398 35.1398 17.3554L48.9876 15.3113C49.2265 15.2843 49.4685 15.3093 49.6966 15.3846C49.9246 15.46 50.1334 15.5838 50.3081 15.7474L58.6708 22.7446C60.4016 24.1558 62.0065 25.712 63.4675 27.3961C64.8337 28.9658 65.0837 29.2431 69.4729 30.246C71.1701 30.6508 72.8325 31.1873 74.4448 31.8505L76.1851 32.5019C76.3257 32.5524 76.4424 32.6528 76.5126 32.7836C78.4915 36.5116 78.7511 40.244 77.2661 43.5778C75.178 48.2589 70.1595 51.1872 66.1595 52.3723C65.1546 52.805 64.0878 53.0798 62.9975 53.1868" fill="#1B69FF"/>
<path fill-rule="evenodd" clip-rule="evenodd" d="M49.2263 60.4783H49.206C46.2272 60.4975 43.3249 59.5447 40.9471 57.7671C38.5884 55.726 36.3575 53.5444 34.2666 51.2346C34.2148 51.1777 34.1753 51.1109 34.1506 51.0382C34.126 50.9656 34.1166 50.8888 34.1231 50.8124C34.1296 50.736 34.1519 50.6618 34.1885 50.5944C34.2252 50.5269 34.2754 50.4676 34.3361 50.4201C34.4609 50.3202 34.6194 50.2712 34.7793 50.283C34.9393 50.2948 35.0887 50.3666 35.1971 50.4838C37.239 52.7426 39.4192 54.875 41.7253 56.8689C43.8932 58.483 46.5381 59.3437 49.25 59.3176C49.3287 59.3164 49.4068 59.3309 49.4796 59.3602C49.5525 59.3896 49.6187 59.4332 49.6742 59.4884C49.7297 59.5436 49.7735 59.6093 49.8028 59.6816C49.8322 59.7539 49.8465 59.8313 49.8451 59.9092C49.8436 59.9871 49.8263 60.0639 49.7942 60.1351C49.7622 60.2062 49.716 60.2703 49.6584 60.3234C49.6008 60.3765 49.533 60.4175 49.4591 60.4441C49.3852 60.4707 49.3066 60.4824 49.228 60.4783" fill="#4069FA"/>
<path fill-rule="evenodd" clip-rule="evenodd" d="M54.2052 57.8943H54.1972L53.9332 57.889C51.3521 57.8542 48.6822 57.8202 46.2421 55.7961C44.1848 54.0878 38.5756 49.2087 37.4277 48.014C37.3733 47.9591 37.331 47.8937 37.3032 47.8218C37.2754 47.75 37.2628 47.6733 37.2662 47.5964C37.2695 47.5195 37.2888 47.4442 37.3228 47.375C37.3568 47.3059 37.4048 47.2443 37.4638 47.1943C37.5852 47.0909 37.7417 47.037 37.9016 47.0435C38.0616 47.05 38.2131 47.1163 38.3256 47.2292C39.4524 48.3995 45.0044 53.2236 47.0458 54.9224C49.1461 56.6603 51.4816 56.6952 53.9516 56.7249L54.2157 56.7301C54.294 56.7291 54.3716 56.7433 54.4443 56.772C54.5169 56.8008 54.5832 56.8434 54.6392 56.8975C54.6952 56.9516 54.7399 57.0161 54.7707 57.0874C54.8015 57.1586 54.8178 57.2351 54.8187 57.3126C54.8137 57.4691 54.7468 57.6173 54.6326 57.7254C54.5183 57.8335 54.3658 57.8929 54.2078 57.8908" fill="#4069FA"/>
<path fill-rule="evenodd" clip-rule="evenodd" d="M60.4264 54.9388H60.3595C56.7415 54.5638 52.9809 54.0109 50.2212 51.7392C48.0116 49.9228 43.1419 45.7945 42.1894 44.6242C42.1406 44.5649 42.1047 44.4963 42.0837 44.4226C42.0627 44.349 42.0572 44.2718 42.0676 44.196C42.0779 44.1202 42.1038 44.0472 42.1437 43.9817C42.1835 43.9162 42.2366 43.8594 42.2994 43.815C42.4278 43.72 42.5879 43.6772 42.7471 43.6956C42.9062 43.7139 43.0522 43.7919 43.1551 43.9135C43.928 44.8667 48.2185 48.5598 51.0187 50.8611C53.5143 52.9148 56.9237 53.4136 60.4906 53.7842C60.5672 53.7884 60.6422 53.8076 60.7113 53.8405C60.7805 53.8735 60.8424 53.9196 60.8935 53.9762C60.9446 54.0329 60.984 54.0989 61.0093 54.1706C61.0347 54.2423 61.0455 54.3183 61.0413 54.3942C61.037 54.47 61.0177 54.5443 60.9844 54.6128C60.9511 54.6813 60.9046 54.7426 60.8474 54.7932C60.7902 54.8439 60.7235 54.8829 60.6512 54.908C60.5788 54.9331 60.5021 54.9439 60.4255 54.9396" fill="#4069FA"/>
<path fill-rule="evenodd" clip-rule="evenodd" d="M46.0211 62.1907H45.9577C43.1786 61.9186 39.7076 61.3814 37.5518 59.5745C35.7719 58.0834 32.8564 55.4707 31.9065 54.4687C31.853 54.413 31.8116 54.347 31.7848 54.2748C31.7581 54.2026 31.7465 54.1257 31.7509 54.0489C31.7553 53.9721 31.7755 53.897 31.8103 53.8282C31.845 53.7594 31.8937 53.6985 31.9532 53.649C32.0754 53.5456 32.233 53.4926 32.3935 53.5008C32.554 53.5091 32.7052 53.5781 32.8159 53.6935C33.7146 54.6414 36.6161 57.2392 38.3617 58.7051C40.2587 60.2905 43.485 60.7841 46.0871 61.0361C46.1649 61.0418 46.2407 61.0628 46.3102 61.0977C46.3797 61.1327 46.4415 61.181 46.492 61.2398C46.5426 61.2986 46.5808 61.3668 46.6045 61.4403C46.6282 61.5139 46.637 61.5914 46.6303 61.6683C46.6122 61.8143 46.5403 61.9486 46.4283 62.0452C46.3163 62.1418 46.1722 62.1939 46.0237 62.1916" fill="#4069FA"/>
<path fill-rule="evenodd" clip-rule="evenodd" d="M83.6255 31.353L78.1034 28.3253C76.377 27.6095 74.4654 27.4568 72.6456 27.8892C69.6934 28.6253 66.9612 30.049 64.6763 32.0419C64.2538 32.3977 63.708 32.8817 63.3128 33.2628C59.6754 36.7708 56.898 41.0579 55.1938 45.7949C54.3939 48.0131 53.9167 50.3327 53.7766 52.6841C53.6938 56.3283 54.3047 59.854 57.5389 62.1789L63.0408 65.2005L83.6255 31.353Z" fill="#1B69FF"/>
<path fill-rule="evenodd" clip-rule="evenodd" d="M74.8924 28.2386C74.1756 28.249 73.4611 28.3234 72.7577 28.461C69.91 29.1802 67.2762 30.5613 65.0745 32.4898C64.6687 32.8308 64.1353 33.3043 63.7462 33.6749C60.1798 37.1251 57.4538 41.3349 55.7752 45.9847C54.9957 48.1542 54.5287 50.4217 54.3878 52.7204C54.3227 55.6731 54.6607 59.3863 57.909 61.7172L62.8201 64.4075L82.7895 31.5681L77.8027 28.8272C76.8822 28.4403 75.8932 28.2391 74.8933 28.2351M63.0446 65.7775C62.9384 65.7783 62.8339 65.7512 62.7418 65.699L57.2382 62.6817C53.4846 59.9906 53.0947 55.9216 53.1677 52.6672C53.3124 50.2593 53.8002 47.8839 54.6167 45.6114C56.3589 40.7919 59.1856 36.4285 62.8826 32.8517C63.292 32.4619 63.8465 31.9675 64.2788 31.6073C66.643 29.5613 69.4588 28.0933 72.4998 27.3212C74.449 26.8621 76.4949 27.0263 78.3441 27.7904L83.9339 30.8547C84.003 30.8907 84.064 30.9402 84.113 31.0004C84.1621 31.0606 84.1982 31.13 84.2191 31.2045C84.2401 31.279 84.2454 31.357 84.2348 31.4336C84.2242 31.5102 84.1979 31.5839 84.1575 31.65L63.5754 65.4853C63.5205 65.5751 63.4429 65.6493 63.3503 65.7003C63.2577 65.7514 63.1532 65.7777 63.0472 65.7766" fill="#4069FA"/>
<path fill-rule="evenodd" clip-rule="evenodd" d="M73.8329 64.5239C81.8744 60.1139 88.3894 49.3948 88.3894 40.5662C88.3894 31.7376 81.8753 28.1623 73.8329 32.5722C65.7906 36.9821 59.2773 47.7213 59.2773 56.5403C59.2773 65.3593 65.7915 68.9381 73.8329 64.5239Z" fill="#F0F3FA"/>
<path fill-rule="evenodd" clip-rule="evenodd" d="M80.332 31.2544C78.1469 31.3362 76.0175 31.9611 74.1401 33.0717C66.2808 37.3875 59.8864 47.9096 59.8864 56.5358C59.8864 60.59 61.2949 63.5924 63.8415 64.9894C66.3882 66.3864 69.839 66.0463 73.5247 64.0223C81.384 59.7066 87.7749 49.1845 87.7749 40.5643C87.7749 36.5102 86.3726 33.5078 83.8136 32.1055C82.7435 31.533 81.5437 31.2406 80.3276 31.2561M67.3249 67.0012C65.896 67.0179 64.4865 66.673 63.2297 65.9992C60.2834 64.3842 58.6602 61.0225 58.6602 56.5384C58.6602 47.5416 65.3301 36.5686 73.5221 32.0715C77.6049 29.8295 81.4808 29.4841 84.4262 31.1035C87.3717 32.7229 88.9976 36.0812 88.9976 40.5652C88.9976 49.5569 82.3268 60.528 74.1348 65.0269C72.0693 66.2436 69.7266 66.9228 67.3249 67.0012Z" fill="#4069FA"/>
<path fill-rule="evenodd" clip-rule="evenodd" d="M31.0203 57.1532L26.7632 57.0346C26.1381 57.0281 25.5364 56.7983 25.0687 56.3875L24.412 55.8198C24.1373 55.5926 23.9172 55.3076 23.7677 54.9855C23.6181 54.6635 23.5429 54.3125 23.5475 53.958V52.3735L23.1822 52.2793C22.6554 52.15 22.1839 51.8576 21.8362 51.4448L20.6549 50.0626C20.2919 49.6507 20.085 49.1266 20.0695 48.5801L20.0272 47.4744L19.5968 47.3305C18.9746 47.132 18.4441 46.7205 18.1003 46.1698L17.3538 44.9899C16.8687 44.2514 16.6426 43.3752 16.7103 42.4967L16.7402 41.9927C15.9138 41.6552 15.2091 41.0791 14.7177 40.3394C14.2263 39.5997 13.971 38.7306 13.9849 37.8452L14.0148 36.6157L14.1689 34.0327C14.3335 32.5955 14.867 32.2947 16.087 32.1962C16.6647 32.1413 17.2473 32.2241 17.786 32.4377L18.4691 32.7386C19.0057 32.9653 19.4661 33.3385 19.7966 33.8147C20.1503 34.2506 20.3619 34.7829 20.4031 35.3407L20.4374 35.7262L20.4454 36.9802L21.2535 37.329L22.1276 38.0554C22.4755 38.3321 22.7529 38.6858 22.9376 39.0881C23.1223 39.4904 23.2091 39.93 23.191 40.3716L23.1206 42.7008C23.502 42.8689 23.8639 43.0777 24.1998 43.3234L25.0748 43.9801C25.4487 44.2953 25.7475 44.6886 25.9499 45.1317C26.1523 45.5748 26.2533 46.0567 26.2456 46.543L26.1417 49.4373C27.0559 49.4938 27.9163 49.8844 28.5564 50.5335C28.858 50.7557 29.1121 51.0351 29.3037 51.3555C29.4953 51.6759 29.6207 52.0308 29.6726 52.3997L30.0476 54.8091L31.0203 57.1532Z" fill="#F0F3FA"/>
<path fill-rule="evenodd" clip-rule="evenodd" d="M16.4134 32.7615C16.3253 32.7615 16.2285 32.7667 16.1369 32.771C15.2082 32.8504 14.9098 32.9289 14.776 34.0948L14.5912 37.8524C14.5796 38.6255 14.8036 39.384 15.2341 40.0289C15.6646 40.6738 16.2814 41.175 17.004 41.4671C17.111 41.5153 17.2008 41.5941 17.262 41.6935C17.3233 41.7928 17.353 41.9081 17.3473 42.0243L17.3148 42.5283C17.2557 43.2886 17.4516 44.047 17.872 44.6858L18.6202 45.8665C18.8872 46.3033 19.3061 46.6283 19.7981 46.7804L20.2277 46.9287C20.3404 46.9653 20.4394 47.0349 20.5115 47.1283C20.5836 47.2217 20.6255 47.3345 20.6317 47.4519L20.674 48.5533C20.6839 48.9761 20.8442 49.3819 21.1264 49.6992L22.3095 51.0814C22.576 51.3978 22.9369 51.6225 23.3404 51.7232L23.7057 51.8165C23.832 51.8477 23.9445 51.9193 24.0256 52.0202C24.1068 52.1211 24.1521 52.2456 24.1546 52.3746V53.9591C24.1512 54.232 24.2095 54.5022 24.3251 54.75C24.4407 54.9977 24.6107 55.2167 24.8228 55.391L25.4839 55.9587C25.8403 56.2771 26.3024 56.4546 26.7823 56.4575L30.1168 56.5447L29.4839 55.0239L29.0737 52.4766C29.0302 52.1809 28.928 51.8966 28.7732 51.64C28.6183 51.3835 28.4138 51.1599 28.1714 50.9819C27.2577 50.2765 26.9293 50.0541 26.115 50.0227C25.9573 50.019 25.8074 49.9535 25.6983 49.8406C25.5893 49.7276 25.5299 49.5764 25.5332 49.4201L25.6344 46.5267C25.64 46.1315 25.5592 45.7398 25.3976 45.3786C25.2359 45.0173 24.9971 44.695 24.6978 44.4338L23.8245 43.7771C23.5175 43.5589 23.189 43.3722 22.8439 43.2199C22.7416 43.1718 22.6557 43.0953 22.5963 42.9999C22.5369 42.9044 22.5067 42.7939 22.5094 42.6818L22.5789 40.3465C22.5949 39.9921 22.5258 39.639 22.3772 39.3162C22.2286 38.9935 22.0048 38.7103 21.7242 38.4899L20.9143 37.8184L20.1889 37.508C20.0842 37.4632 19.9946 37.3896 19.9308 37.296C19.867 37.2023 19.8317 37.0925 19.8289 36.9795L19.7928 35.3898C19.7574 34.9404 19.5862 34.5119 19.3016 34.1602C19.034 33.7634 18.6552 33.4527 18.2118 33.2664L17.5287 32.9655C17.1739 32.8251 16.7944 32.7563 16.4125 32.7632M31.0209 57.7342H31.0051L26.7462 57.6199C25.977 57.6072 25.2374 57.3238 24.6599 56.8203L23.9997 56.2526C23.6626 55.972 23.3921 55.6213 23.2075 55.2253C23.023 54.8293 22.9288 54.3979 22.9319 53.9617V52.8211C22.317 52.6513 21.7687 52.3003 21.3597 51.8147L20.1757 50.4317C19.7285 49.9222 19.4729 49.2752 19.4521 48.6004L19.3835 47.8792C18.6312 47.6347 17.9907 47.1342 17.5753 46.4665L16.8262 45.291C16.28 44.4512 16.0236 43.4585 16.0956 42.4621L16.1044 42.3339C15.2646 41.9156 14.5618 41.2701 14.0775 40.472C13.5932 39.674 13.3474 38.7563 13.3684 37.8254L13.401 36.6046L13.5586 34.0015C13.7663 32.1493 14.6246 31.7342 16.0313 31.6156C16.7125 31.5534 17.3989 31.6535 18.0331 31.9077L18.7197 32.2086C19.3479 32.4741 19.8885 32.9085 20.2805 33.4626C20.7046 33.9862 20.9592 34.6245 21.0111 35.2939L21.0437 35.6741L21.0498 36.6072L21.5041 36.799C21.5582 36.8238 21.6088 36.8554 21.6546 36.8932L22.5287 37.6187C22.944 37.9493 23.2755 38.3715 23.4965 38.8517C23.7176 39.3319 23.8221 39.8566 23.8016 40.384L23.7427 42.3487C24.0341 42.4987 24.3137 42.6704 24.5789 42.8623L25.4539 43.519C25.9012 43.8912 26.2596 44.3571 26.5031 44.8831C26.7467 45.4091 26.8694 45.982 26.8624 46.5607L26.7788 48.9213C27.5928 49.1098 28.3411 49.5105 28.9461 50.082C29.306 50.3477 29.6095 50.6812 29.839 51.0634C30.0684 51.4456 30.2194 51.869 30.2832 52.3092L30.6582 54.7239L31.594 56.9406C31.6309 57.0294 31.6439 57.1261 31.6317 57.2214C31.6195 57.3166 31.5826 57.4071 31.5244 57.4839C31.4672 57.5616 31.3921 57.6246 31.3052 57.6675C31.2183 57.7104 31.1224 57.7321 31.0253 57.7307" fill="#1B69FF"/>
<path fill-rule="evenodd" clip-rule="evenodd" d="M14.7068 33.793L16.5554 35.156L16.352 38.1828C16.3459 38.257 16.2446 38.2814 16.1672 38.2814C16.0897 38.2814 15.9321 38.1384 15.8767 38.0887L15.1143 37.3631C14.9836 37.2712 14.8734 37.1537 14.7906 37.0177C14.7077 36.8818 14.654 36.7304 14.6328 36.573L14.7068 33.793Z" fill="white"/>
<path fill-rule="evenodd" clip-rule="evenodd" d="M15.2863 34.9572L15.2396 36.5862C15.2396 36.635 15.3391 36.7606 15.5424 36.9516L15.8021 37.1983L15.9218 35.4211L15.2863 34.9572ZM16.1666 38.8631C15.8877 38.8401 15.6287 38.711 15.4438 38.5029L14.6806 37.7765C14.4892 37.6313 14.3312 37.4472 14.2172 37.2367C14.1032 37.0262 14.0358 36.794 14.0195 36.5557L14.0961 33.7756C14.1009 33.6667 14.1365 33.5613 14.1987 33.4714C14.261 33.3816 14.3474 33.3108 14.4482 33.2672C14.5503 33.2212 14.6628 33.2029 14.7743 33.2141C14.8857 33.2253 14.9923 33.2656 15.0829 33.3308L16.9315 34.6938C17.0099 34.7495 17.0726 34.8241 17.1139 34.9104C17.1552 34.9968 17.1736 35.0921 17.1674 35.1874L16.9562 38.2204C16.9358 38.4018 16.8469 38.5688 16.7073 38.6879C16.5676 38.807 16.3876 38.8693 16.2035 38.8622L16.1666 38.8631Z" fill="#4069FA"/>
<path fill-rule="evenodd" clip-rule="evenodd" d="M17.272 38.4688L19.3997 39.8169L19.3865 42.4331C19.3869 42.4637 19.3807 42.494 19.3684 42.5222C19.3562 42.5503 19.338 42.5755 19.3152 42.5961C19.2691 42.6392 19.2077 42.6624 19.1444 42.6607H18.8803C18.6779 42.6628 18.4774 42.622 18.2921 42.5411C18.1069 42.4602 17.9413 42.341 17.8064 42.1915L17.6101 41.9787C17.3793 41.7322 17.2532 41.4071 17.2579 41.0709L17.272 38.4688Z" fill="white"/>
<path fill-rule="evenodd" clip-rule="evenodd" d="M17.8723 39.5518L17.8635 41.0727C17.8604 41.1683 17.8769 41.2635 17.9118 41.3526C17.9467 41.4418 17.9995 41.523 18.0668 41.5915L18.2631 41.8087C18.3933 41.9578 18.5765 42.0515 18.7746 42.0703L18.7878 40.1248L17.8723 39.5518ZM19.1425 43.2415H18.8714C18.5828 43.243 18.2972 43.184 18.0333 43.0682C17.7695 42.9525 17.5334 42.7827 17.3406 42.57L17.1434 42.3572C16.8156 42.0074 16.6357 41.5464 16.6407 41.0692L16.6566 38.4714C16.6586 38.3646 16.6899 38.2604 16.7471 38.17C16.8043 38.0795 16.8853 38.0061 16.9814 37.9577C17.0794 37.909 17.1883 37.8862 17.2978 37.8913C17.4073 37.8965 17.5136 37.9296 17.6064 37.9874L19.7411 39.3338C19.8243 39.385 19.893 39.4563 19.9409 39.5409C19.9887 39.6255 20.0142 39.7208 20.0149 39.8178L20.0008 42.4339C19.9999 42.5419 19.9765 42.6485 19.9321 42.747C19.8878 42.8456 19.8233 42.9341 19.7429 43.0069C19.5824 43.1577 19.369 43.2409 19.1478 43.2388" fill="#4069FA"/>
<path fill-rule="evenodd" clip-rule="evenodd" d="M20.8433 44.1289L22.9763 45.6698L22.9622 48.0897C22.9615 48.1204 22.9547 48.1505 22.9422 48.1785C22.9296 48.2065 22.9116 48.2318 22.8891 48.2528C22.8655 48.2744 22.8377 48.2911 22.8075 48.3021C22.7773 48.313 22.7452 48.3179 22.7131 48.3165H22.449C22.2465 48.3171 22.0463 48.2751 21.8614 48.1934C21.6766 48.1116 21.5114 47.9918 21.3768 47.8421L21.1805 47.6293C20.9483 47.3833 20.822 47.0573 20.8284 46.7206L20.8433 44.1289Z" fill="white"/>
<path fill-rule="evenodd" clip-rule="evenodd" d="M21.4444 45.295L21.4356 46.7269C21.4325 46.8231 21.4489 46.919 21.4839 47.0089C21.5188 47.0987 21.5715 47.1807 21.639 47.2501L21.8335 47.462C21.9644 47.612 22.1478 47.7073 22.3467 47.7288L22.3573 45.956L21.4444 45.295ZM22.7164 48.9H22.705L22.4409 48.8948C22.1522 48.8975 21.8662 48.8389 21.6022 48.7231C21.3381 48.6073 21.1022 48.4369 20.9101 48.2233L20.7155 48.0114C20.385 47.6628 20.2041 47.2007 20.2111 46.7225L20.2252 44.1256C20.2278 44.0161 20.2613 43.9094 20.3218 43.8178C20.3823 43.7261 20.4674 43.653 20.5676 43.6067C20.6699 43.5589 20.7832 43.5392 20.8958 43.5496C21.0084 43.56 21.1161 43.6002 21.2076 43.666L23.3362 45.2113C23.4112 45.2638 23.4723 45.3335 23.5145 45.4144C23.5566 45.4953 23.5785 45.585 23.5782 45.6761L23.5642 48.0951C23.563 48.2015 23.5403 48.3066 23.4974 48.4041C23.4544 48.5016 23.3921 48.5896 23.3142 48.6628C23.1516 48.8144 22.937 48.8992 22.7138 48.9" fill="#4069FA"/>
<path fill-rule="evenodd" clip-rule="evenodd" d="M24.3555 50.6758L26.484 52.1373L26.3009 54.2302C26.2945 54.2889 26.2658 54.3429 26.2207 54.3815C26.1756 54.42 26.1175 54.4401 26.0579 54.4378H25.7736C25.5714 54.4396 25.3711 54.3987 25.186 54.3178C25.001 54.2369 24.8355 54.1179 24.7005 53.9686L24.69 53.9538C24.4639 53.5552 24.3531 53.1026 24.3696 52.6457L24.3555 50.6758Z" fill="white"/>
<path fill-rule="evenodd" clip-rule="evenodd" d="M24.9746 51.8149L24.9808 52.6399C24.9738 52.9613 25.0337 53.2807 25.1568 53.5782C25.2265 53.6597 25.3123 53.7263 25.4088 53.7738C25.5054 53.8213 25.6108 53.8488 25.7184 53.8546L25.8452 52.4175L24.9746 51.8149ZM26.0609 55.0197H26.0547L25.7704 55.0144C25.4822 55.0185 25.1966 54.961 24.9329 54.8459C24.6692 54.7308 24.4336 54.5607 24.2422 54.3473C23.9119 53.8407 23.7435 53.2472 23.7589 52.6442L23.7422 50.6813C23.7417 50.572 23.7725 50.4648 23.8311 50.3721C23.8897 50.2795 23.9737 50.2053 24.0732 50.158C24.1739 50.1091 24.286 50.0875 24.3979 50.0953C24.5098 50.1031 24.6177 50.1401 24.7105 50.2025L26.8417 51.6693C26.9258 51.7263 26.9931 51.8043 27.0369 51.8954C27.0807 51.9866 27.0993 52.0876 27.0908 52.1882L26.9077 54.2811C26.8847 54.4873 26.7847 54.6776 26.6274 54.8145C26.4701 54.9515 26.2668 55.0253 26.0574 55.0214" fill="#4069FA"/>
<path fill-rule="evenodd" clip-rule="evenodd" d="M20.4412 36.9803C20.0812 37.0084 19.7229 37.0561 19.3682 37.1234C18.5925 37.2137 17.8671 37.5502 17.3004 38.0826C16.8602 38.6302 16.8074 41.1879 16.7361 41.9885C16.6481 38.6015 15.9438 36.7693 20.4412 36.9768" fill="#F0F3FA"/>
<path fill-rule="evenodd" clip-rule="evenodd" d="M16.7409 42.5739H16.7224C16.5696 42.5708 16.4235 42.5105 16.3137 42.4052C16.2038 42.2999 16.1382 42.1574 16.13 42.0062C16.1194 41.6007 16.1018 41.2213 16.0807 40.8603C16.0032 39.2749 15.9407 38.0261 16.8025 37.2064C17.4803 36.5646 18.6177 36.3178 20.4716 36.3972C20.6221 36.4013 20.7656 36.4615 20.8734 36.5658C20.9813 36.67 21.0455 36.8106 21.0534 36.9596C21.0559 37.1087 21.0007 37.253 20.8993 37.3631C20.7978 37.4732 20.6577 37.5407 20.5076 37.5518C20.101 37.5962 19.7691 37.639 19.4997 37.6895C18.8691 37.7713 18.2758 38.0317 17.7911 38.4395C17.5336 39.4033 17.3993 40.3953 17.3914 41.3922C17.3756 41.6591 17.3632 41.8815 17.3492 42.0393C17.3334 42.1874 17.2622 42.3243 17.1496 42.4231C17.037 42.5219 16.8912 42.5753 16.7409 42.573" fill="#4069FA"/>
<path fill-rule="evenodd" clip-rule="evenodd" d="M29.207 25.0625L30.8936 25.2456C30.9648 25.2518 31.0336 25.2741 31.0947 25.3108C31.1558 25.3476 31.2075 25.3978 31.2458 25.4575C31.7493 26.2232 28.6049 29.2204 28.0441 29.8378L25.9922 29.4436C26.6419 27.8927 27.5784 26.4757 28.7537 25.2657C28.8081 25.2 28.877 25.1475 28.9552 25.1124C29.0333 25.0774 29.1186 25.0606 29.2044 25.0634" fill="white"/>
<path fill-rule="evenodd" clip-rule="evenodd" d="M26.8689 29.0186L27.8275 29.2009L28.0238 29.0038C29.927 27.0487 30.5326 26.1845 30.6647 25.8043L29.2192 25.6517C28.248 26.6336 27.4531 27.7717 26.8689 29.0186ZM28.0484 30.4218C28.0066 30.4216 27.965 30.4167 27.9243 30.4069L25.875 30.0119C25.7872 29.995 25.7041 29.9593 25.6316 29.9073C25.5591 29.8554 25.4989 29.7884 25.4551 29.711C25.4133 29.6351 25.3899 29.5505 25.387 29.464C25.3841 29.3776 25.4017 29.2916 25.4384 29.2131C26.1161 27.5978 27.0927 26.1222 28.3178 24.8625C28.438 24.732 28.5869 24.6307 28.753 24.5666C28.9192 24.5025 29.098 24.4772 29.2756 24.4927L30.9622 24.6671C31.1243 24.6813 31.281 24.7318 31.4205 24.8147C31.5601 24.8977 31.6788 25.0109 31.7677 25.1459C32.3355 26.0179 31.2545 27.3923 28.9208 29.7878C28.7351 29.9753 28.5942 30.1235 28.5088 30.2168C28.4508 30.2808 28.3798 30.3318 28.3005 30.3667C28.2211 30.4016 28.1352 30.4194 28.0484 30.4191" fill="#4069FA"/>
<path fill-rule="evenodd" clip-rule="evenodd" d="M23.1231 42.7004C22.1389 42.7989 20.9153 43.0902 20.469 43.9151C20.2045 45.083 20.0571 46.2739 20.0288 47.4705C19.9267 45.0165 19.2172 42.5225 23.1275 42.7004" fill="#F0F3FA"/>
<path fill-rule="evenodd" clip-rule="evenodd" d="M20.0265 48.0551H20.0071C19.8558 48.0534 19.7107 47.995 19.6011 47.8916C19.4915 47.7882 19.4255 47.6475 19.4164 47.4979C19.4041 47.2058 19.3856 46.9154 19.3654 46.6258C19.2676 45.2533 19.1682 43.8353 20.0978 42.9327C20.5233 42.5951 21.0147 42.3484 21.5412 42.2083C22.0677 42.0681 22.6177 42.0374 23.1568 42.1183C23.3076 42.1204 23.4519 42.1801 23.5594 42.285C23.667 42.3898 23.7296 42.5317 23.7343 42.6811C23.7389 42.8305 23.6852 42.9759 23.5844 43.0871C23.4835 43.1983 23.3433 43.2667 23.1929 43.2781C22.0423 43.3923 21.2712 43.7141 21.0194 44.1815C20.8294 45.0019 20.7236 45.8393 20.7034 46.6808C20.6796 47.0296 20.6585 47.3322 20.6347 47.5345C20.6157 47.6794 20.5436 47.8122 20.4321 47.9077C20.3205 48.0033 20.1774 48.0548 20.03 48.0525" fill="#4069FA"/>
<path fill-rule="evenodd" clip-rule="evenodd" d="M26.0782 49.4498C23.7014 49.598 23.69 50.5512 23.5377 52.4618C23.4849 50.1213 23.2683 49.3504 26.0782 49.4498Z" fill="#F0F3FA"/>
<path fill-rule="evenodd" clip-rule="evenodd" d="M23.545 52.9679H23.5309C23.4583 52.9752 23.385 52.968 23.3153 52.9467C23.2456 52.9254 23.1809 52.8905 23.1251 52.8439C23.0692 52.7974 23.0234 52.7403 22.9903 52.6759C22.9572 52.6115 22.9375 52.5412 22.9323 52.4691L22.92 52.0392C22.8874 50.8541 22.8628 49.9995 23.4684 49.4318C23.949 48.9774 24.7008 48.8143 26.1093 48.8641C26.2622 48.8681 26.4079 48.9295 26.5168 49.0359C26.6258 49.1422 26.69 49.2856 26.6964 49.437C26.6956 49.5892 26.6356 49.7352 26.5289 49.8447C26.4221 49.9542 26.2769 50.0187 26.1234 50.0247C24.339 50.1338 24.3047 50.5628 24.1638 52.3653C24.1638 52.3854 24.1577 52.4089 24.155 52.4342V52.4438C24.1256 52.5844 24.0506 52.7116 23.9414 52.8061C23.8322 52.9006 23.6949 52.9571 23.5503 52.967" fill="#4069FA"/>
<path fill-rule="evenodd" clip-rule="evenodd" d="M36.5375 24.4258C36.7197 24.9141 37.4116 26.1699 36.4336 27.2896C36.7187 26.9935 37.0679 26.7655 37.4549 26.6226C37.8419 26.4797 38.2566 26.4257 38.6678 26.4646C37.4142 26.1638 37.0366 25.1365 36.5375 24.4258Z" fill="#F0F3FA"/>
<path fill-rule="evenodd" clip-rule="evenodd" d="M36.4341 27.872C36.2853 27.8721 36.1413 27.8195 36.0282 27.7237C35.97 27.6754 35.9221 27.6161 35.8874 27.5493C35.8526 27.4824 35.8317 27.4093 35.8259 27.3343C35.8201 27.2593 35.8294 27.1839 35.8535 27.1126C35.8775 27.0412 35.9156 26.9753 35.9657 26.9188C36.1925 26.6174 36.3213 26.2548 36.3352 25.8791C36.349 25.5034 36.2472 25.1325 36.0432 24.8154L35.964 24.6227C35.9142 24.488 35.9173 24.3398 35.9725 24.2072C36.0278 24.0747 36.1312 23.9675 36.2624 23.9068C36.3957 23.8422 36.5479 23.8266 36.6917 23.8629C36.8355 23.8992 36.9617 23.9849 37.0476 24.1047C37.1488 24.2478 37.2466 24.4056 37.346 24.5687C37.4813 24.8815 37.6828 25.162 37.9369 25.3911C38.1909 25.6202 38.4917 25.7927 38.8188 25.8968C38.9607 25.9286 39.0856 26.0113 39.1695 26.129C39.2534 26.2468 39.2903 26.3912 39.273 26.5342C39.2518 26.6773 39.1787 26.8079 39.0674 26.9015C38.9561 26.9951 38.8142 27.0452 38.6682 27.0427C38.34 27.0188 38.0104 27.0642 37.7012 27.1757C37.392 27.2873 37.1101 27.4624 36.8742 27.6897C36.8171 27.748 36.7487 27.7942 36.673 27.8256C36.5973 27.8569 36.5161 27.8727 36.4341 27.872Z" fill="#4069FA"/>
<path fill-rule="evenodd" clip-rule="evenodd" d="M47.6136 26.1211C46.6069 26.7179 45.4502 27.0202 44.2773 26.9931C46.0379 27.1614 45.456 27.7239 45.655 28.7372C45.7096 27.1327 46.7122 26.8554 47.6136 26.1211Z" fill="#F0F3FA"/>
<path fill-rule="evenodd" clip-rule="evenodd" d="M45.6526 29.3202C45.5126 29.3225 45.376 29.2765 45.2664 29.1902C45.1567 29.1038 45.0807 28.9824 45.0514 28.8467C45.0055 28.5891 44.9851 28.3277 44.9907 28.0662C44.9957 27.9538 44.9884 27.8413 44.9686 27.7305C44.7304 27.6303 44.4748 27.5767 44.216 27.5726C44.0665 27.5631 43.9263 27.4976 43.8238 27.3894C43.7213 27.2813 43.6642 27.1385 43.6641 26.9901C43.6695 26.842 43.7305 26.7011 43.8352 26.5952C43.9399 26.4892 44.0807 26.4258 44.2301 26.4172C45.2072 26.4487 46.1752 26.2221 47.0347 25.7605L47.3252 25.6123C47.4576 25.5445 47.6102 25.5256 47.7554 25.5592C47.9006 25.5928 48.029 25.6765 48.1174 25.7954C48.2026 25.9127 48.2392 26.0577 48.2199 26.2009C48.2006 26.344 48.1268 26.4744 48.0136 26.5654C47.8111 26.7285 47.6016 26.8767 47.3974 27.0198C46.7143 27.4942 46.3014 27.7802 46.2671 28.7639C46.2582 28.9095 46.1957 29.0468 46.0913 29.1497C45.987 29.2526 45.8481 29.3139 45.7011 29.322L45.6526 29.3202Z" fill="#4069FA"/>
</g>
</g>
<defs>
<clipPath id="clip0_9_90634">
<rect width="89" height="67" fill="white"/>
</clipPath>
</defs>
</svg>
