<svg width="82" height="94" viewBox="0 0 82 94" fill="none" xmlns="http://www.w3.org/2000/svg">
<g clip-path="url(#clip0_698_6507)">
<path fill-rule="evenodd" clip-rule="evenodd" d="M8.92932 50.4658V90.2148C8.88645 90.7134 8.96397 91.2151 9.15539 91.6775C9.34682 92.1399 9.64641 92.5494 10.0292 92.8718L2.47131 88.5089C2.08787 88.1858 1.78776 87.7751 1.59631 87.3116C1.40487 86.8482 1.32761 86.3454 1.37121 85.8458V46.0879L8.92932 50.4658Z" fill="#CEE7FD"/>
<path fill-rule="evenodd" clip-rule="evenodd" d="M2.05822 47.2964V85.8503C2.01471 86.2436 2.06842 86.6415 2.21471 87.009C2.36101 87.3766 2.59527 87.7026 2.89708 87.9584L8.30504 91.0763C8.26696 90.7981 8.24532 90.518 8.2401 90.2373V50.8694L2.05822 47.2964ZM10.0292 93.5674C9.90934 93.5657 9.79167 93.5352 9.68615 93.4784L2.12902 89.1144C1.6417 88.7299 1.25472 88.2333 1.00084 87.6669C0.746967 87.1004 0.63372 86.4809 0.671009 85.8613V46.0913C0.672581 45.9697 0.705827 45.8506 0.767445 45.7457C0.829063 45.6409 0.917095 45.5538 1.02257 45.4933C1.12805 45.4327 1.24738 45.4007 1.36901 45.4004C1.49063 45.4 1.61035 45.4314 1.71618 45.4913L9.27916 49.8613C9.3843 49.9225 9.47156 50.01 9.53258 50.1152C9.5936 50.2204 9.62618 50.3397 9.62706 50.4613V90.2134C9.57991 90.6045 9.63089 91.0012 9.77526 91.3678C9.91963 91.7344 10.153 92.0594 10.4542 92.3134C10.5713 92.4009 10.6576 92.5233 10.7008 92.663C10.744 92.8026 10.7416 92.9525 10.6944 93.0908C10.6472 93.2292 10.5574 93.3491 10.4379 93.4332C10.3183 93.5174 10.1753 93.5615 10.0292 93.5593V93.5674Z" fill="#23356B"/>
<path fill-rule="evenodd" clip-rule="evenodd" d="M59.123 20.9414V60.6934C59.0413 62.1732 58.6129 63.6132 57.8726 64.8972C57.1323 66.1812 56.1008 67.2733 54.8611 68.0854L12.73 92.4104C10.386 93.7624 8.46094 92.6524 8.46094 89.9424V50.1904L59.123 20.9414Z" fill="white"/>
<path fill-rule="evenodd" clip-rule="evenodd" d="M9.15296 50.5912V89.9421C9.10253 90.3495 9.15994 90.7629 9.31946 91.1411C9.47898 91.5193 9.73496 91.849 10.0619 92.0972C10.4407 92.2539 10.8538 92.3097 11.2606 92.259C11.6675 92.2084 12.0541 92.053 12.3829 91.8081L54.5089 67.4832C55.6656 66.7593 56.6154 65.7486 57.266 64.5492C57.9727 63.3833 58.3708 62.0565 58.423 60.6941V22.1421L9.15296 50.5881V50.5912ZM10.83 93.6792C10.3169 93.6844 9.81165 93.5539 9.36511 93.3011C8.8215 92.9364 8.3859 92.4321 8.10437 91.8411C7.82285 91.25 7.70569 90.5941 7.76502 89.9421V50.1902C7.76447 50.0682 7.79643 49.9481 7.85779 49.8427C7.91915 49.7372 8.00755 49.6499 8.11389 49.5901L58.777 20.3351C58.8818 20.2742 59.0008 20.2422 59.122 20.2422C59.2431 20.2422 59.3621 20.2742 59.4669 20.3351C59.5721 20.3962 59.6596 20.4838 59.7206 20.589C59.7816 20.6942 59.8142 20.8136 59.8151 20.9352V60.6871C59.7329 62.29 59.2715 63.8505 58.4686 65.2402C57.6658 66.63 56.5444 67.8092 55.1969 68.6812L13.0719 93.0001C12.3971 93.4185 11.6235 93.6527 10.83 93.6792Z" fill="#23356B"/>
<path fill-rule="evenodd" clip-rule="evenodd" d="M13.1987 30.2155C33.7097 18.3715 49.0727 9.49755 55.3247 5.89055C55.7557 5.57704 56.2625 5.38443 56.793 5.33256C57.3234 5.2807 57.858 5.37142 58.3416 5.5955C58.776 5.90273 59.1211 6.32001 59.3411 6.80449C59.5611 7.28897 59.6483 7.82329 59.5938 8.35258V21.2176L8.92969 50.4666V37.6015C9.01119 36.1216 9.44021 34.6818 10.1819 33.3986C10.9236 32.1154 11.9571 31.0248 13.1987 30.2155Z" fill="#2B1F51"/>
<path fill-rule="evenodd" clip-rule="evenodd" d="M13.5452 30.8119C12.3949 31.5438 11.4465 32.5526 10.7871 33.746C10.0796 34.9115 9.68134 36.2384 9.63015 37.601V49.262L58.9002 20.8159V8.35597C59.0056 7.94728 58.9744 7.5153 58.8111 7.12611C58.6477 6.73692 58.3612 6.41192 57.9956 6.20094C57.6301 5.98997 57.2054 5.90463 56.7866 5.9579C56.3679 6.01118 55.9784 6.20019 55.6773 6.49599L13.5452 30.8159V30.8119ZM8.93313 51.157C8.81265 51.1578 8.69426 51.1252 8.59109 51.063C8.48439 51.0036 8.39591 50.9164 8.3345 50.8108C8.27309 50.7052 8.24114 50.585 8.24221 50.4629V37.5969C8.32144 35.9949 8.78103 34.4348 9.58303 33.0457C10.385 31.6566 11.5065 30.4785 12.8543 29.6089L54.9861 5.28395C55.5016 4.86475 56.1324 4.61205 56.7947 4.55922C57.457 4.50639 58.1199 4.65588 58.6953 4.98805C59.2708 5.32023 59.7318 5.81935 60.0174 6.41933C60.3029 7.0193 60.3994 7.69184 60.2942 8.34792V21.2129C60.2947 21.3349 60.2625 21.4549 60.2012 21.5603C60.1399 21.6658 60.0514 21.7531 59.9451 21.813L9.28225 51.0619C9.17664 51.1253 9.05531 51.1578 8.93216 51.1559L8.93313 51.157Z" fill="#23356B"/>
<path fill-rule="evenodd" clip-rule="evenodd" d="M5.19873 25.5919C19.2447 17.4859 33.2888 9.37994 47.3308 1.27394C47.7428 0.985887 48.2181 0.801722 48.7166 0.736953C49.215 0.672183 49.722 0.728779 50.1938 0.901992L58.1938 5.51894C57.7207 5.34612 57.2129 5.28976 56.7134 5.35451C56.2139 5.41925 55.7372 5.60328 55.3237 5.89101L54.7097 6.23903L54.0488 6.62794C40.4302 14.4893 26.8134 22.3533 13.1987 30.22C11.9551 31.0272 10.9202 32.1171 10.1782 33.4008C9.43629 34.6844 9.00835 36.1254 8.92969 37.606V50.471L0.929688 45.853V32.9879C1.00847 31.506 1.43637 30.0637 2.17822 28.7785C2.92008 27.4932 3.95494 26.4014 5.19873 25.5919Z" fill="#FCFCFC"/>
<path fill-rule="evenodd" clip-rule="evenodd" d="M1.62524 45.4498L8.2373 49.2638V37.6028C8.31436 36.0025 8.77203 34.4435 9.57202 33.0554C10.372 31.6672 11.4914 30.4898 12.8374 29.6208L54.9834 5.28582C55.2351 5.14516 55.4957 5.02084 55.7634 4.91375L49.8474 1.4948C49.4784 1.38447 49.0888 1.36174 48.7095 1.4284C48.3302 1.49506 47.9716 1.64931 47.6624 1.87884L5.55444 26.1858C4.41553 26.9352 3.46719 27.9401 2.7854 29.1207C2.10361 30.3012 1.70723 31.6248 1.62744 32.9858V45.4438L1.62524 45.4498ZM8.92529 51.1587C8.80482 51.1595 8.68644 51.1269 8.58325 51.0648L0.583252 46.4478C0.477528 46.3872 0.389633 46.2998 0.328369 46.1945C0.267106 46.0892 0.234757 45.9697 0.234375 45.8478V32.9858C0.310468 31.3851 0.767552 29.8257 1.56763 28.4372C2.3677 27.0487 3.4875 25.8713 4.83423 25.0027C4.84023 24.9967 4.84029 24.9968 4.85229 24.9968L46.9773 0.672784C47.4825 0.332855 48.0617 0.118505 48.6665 0.0475394C49.2713 -0.0234264 49.8842 0.0510846 50.4543 0.264825L58.5325 4.91778C58.6878 5.00513 58.8035 5.14887 58.8557 5.31927C58.9079 5.48967 58.8927 5.67365 58.813 5.83306C58.7333 5.99247 58.5951 6.11514 58.4275 6.17559C58.2598 6.23604 58.0754 6.22964 57.9124 6.15777C57.5369 6.02605 57.135 5.98847 56.7417 6.04827C56.3484 6.10807 55.9755 6.26345 55.6562 6.50079L13.5364 30.8138C12.3985 31.563 11.4516 32.5684 10.772 33.7492C10.0923 34.93 9.69863 36.2535 9.62231 37.6138V50.4728C9.62214 50.5946 9.5899 50.7142 9.52881 50.8195C9.46772 50.9248 9.38002 51.0122 9.27441 51.0728C9.16938 51.1322 9.05006 51.1616 8.92944 51.1578L8.92529 51.1587Z" fill="#23356B"/>
<path fill-rule="evenodd" clip-rule="evenodd" d="M10.5547 32.8026L2.55981 28.1855C1.57062 29.5978 1.005 31.2631 0.929688 32.9856V45.8506L8.92969 50.4685V37.6035C9.00279 35.881 9.56659 34.2154 10.5547 32.8026Z" fill="#FCFCFC"/>
<path fill-rule="evenodd" clip-rule="evenodd" d="M1.62524 45.4478L8.2373 49.2619V37.6009C8.28743 35.9913 8.75091 34.4216 9.58325 33.0429L2.78833 29.1169C2.07745 30.288 1.67677 31.6209 1.62427 32.9898L1.62524 45.4478ZM8.92529 51.1568C8.80482 51.1575 8.68644 51.125 8.58325 51.0628L0.583252 46.4459C0.477528 46.3853 0.389633 46.2979 0.328369 46.1926C0.267106 46.0873 0.234757 45.9678 0.234375 45.8459V32.9829C0.307454 31.1211 0.914264 29.3196 1.98242 27.7929C2.07873 27.6471 2.22725 27.5437 2.39746 27.5041C2.56767 27.4645 2.74665 27.4916 2.89746 27.5799L10.8975 32.1969C10.9795 32.2443 11.0509 32.308 11.1077 32.384C11.1644 32.46 11.2051 32.5467 11.2273 32.6389C11.2481 32.7324 11.2498 32.8291 11.2327 32.9234C11.2155 33.0177 11.1799 33.1076 11.1274 33.1878C10.2111 34.4843 9.68814 36.0176 9.62134 37.6038V50.4629C9.62106 50.5846 9.58867 50.7041 9.52759 50.8094C9.46651 50.9147 9.37897 51.0021 9.27344 51.0628C9.16961 51.1252 9.05058 51.1578 8.92944 51.1568H8.92529Z" fill="#23356B"/>
<path fill-rule="evenodd" clip-rule="evenodd" d="M52.3953 80.488L47.4062 77.6071C53.2512 80.8961 60.5251 75.3871 64.2451 71.1421C69.4291 65.2191 74.0112 55.1061 72.0452 47.2301C71.8138 46.0829 71.3523 44.9944 70.6887 44.0304C70.0251 43.0664 69.1731 42.2468 68.1841 41.6211L73.4211 44.6561C78.6751 47.9921 77.8492 56.434 76.2212 61.613C73.8002 69.3 67.2823 78.587 59.3533 80.978C58.2224 81.3804 57.0204 81.5447 55.823 81.4603C54.6256 81.376 53.4586 81.045 52.3953 80.488Z" fill="#23356B"/>
<path fill-rule="evenodd" clip-rule="evenodd" d="M52.7373 79.8871C53.7185 80.3978 54.795 80.6993 55.8987 80.7724C57.0024 80.8456 58.1092 80.6888 59.1492 80.312C66.7362 78.028 73.1491 69.071 75.5571 61.412C77.3171 55.812 77.7181 48.2121 73.0471 45.2471L71.7661 44.508C72.1808 45.3225 72.5001 46.1822 72.7173 47.07C74.7773 55.33 70.0422 65.58 64.7642 71.608C61.4102 75.44 56.4643 79.094 51.7153 79.301L52.7373 79.8921V79.8871ZM56.2273 82.166C54.7667 82.1796 53.3278 81.8114 52.0532 81.098C52.0532 81.0964 52.0526 81.0949 52.0515 81.0937C52.0504 81.0926 52.0487 81.092 52.0471 81.092L47.0571 78.211C46.9111 78.1131 46.8079 77.9633 46.7681 77.7921C46.7282 77.6208 46.7548 77.4408 46.8425 77.2884C46.9303 77.1361 47.0726 77.0227 47.2407 76.9712C47.4088 76.9197 47.5903 76.9339 47.7483 77.011C53.2743 80.116 60.3893 74.501 63.7183 70.693C68.9263 64.741 73.2241 54.8351 71.3701 47.4071C71.163 46.3483 70.742 45.343 70.1328 44.4526C69.5236 43.5623 68.739 42.8056 67.8272 42.229C67.6915 42.1254 67.5986 41.9759 67.5654 41.8085C67.5323 41.641 67.5615 41.4673 67.6475 41.3199C67.7335 41.1725 67.8702 41.0616 68.0322 41.008C68.1943 40.9545 68.3702 40.9619 68.5271 41.029L73.7632 44.063C79.1242 47.463 78.7882 55.7541 76.8752 61.8291C74.3542 69.8411 67.5942 79.222 59.5461 81.649C58.4709 81.9819 57.3529 82.1567 56.2273 82.166Z" fill="#23356B"/>
<path fill-rule="evenodd" clip-rule="evenodd" d="M61.2163 44.8389C53.2043 49.4669 46.7031 60.715 46.7031 69.967C46.7031 79.219 53.2033 82.9609 61.2163 78.3389C69.2293 73.7169 75.7163 62.462 75.7163 53.217C75.7163 43.972 69.2223 40.2179 61.2163 44.8389Z" fill="white"/>
<path fill-rule="evenodd" clip-rule="evenodd" d="M67.6907 43.5529C65.518 43.6388 63.4055 44.2902 61.5618 45.4429C53.7568 49.9539 47.4038 60.9529 47.4038 69.9689C47.4038 74.1779 48.7907 77.3019 51.3037 78.7539C53.8167 80.2059 57.2137 79.8459 60.8687 77.7449C68.6737 73.2339 75.0266 62.2349 75.0266 53.2189C75.0266 49.0039 73.6397 45.8799 71.1267 44.4279C70.0787 43.8372 68.8926 43.5355 67.6897 43.5539L67.6907 43.5529ZM54.7368 81.0209C53.2929 81.041 51.8698 80.6739 50.6157 79.9579C47.6457 78.2469 46.0156 74.6979 46.0156 69.9689C46.0156 60.5099 52.6816 48.9689 60.8706 44.2449C64.9616 41.8769 68.8526 41.5179 71.8167 43.2299C74.7807 44.9419 76.4167 48.4899 76.4167 53.2199C76.4167 62.6789 69.7508 74.2199 61.5618 78.9439C59.5068 80.2202 57.1544 80.9363 54.7368 81.0209Z" fill="#23356B"/>
<path fill-rule="evenodd" clip-rule="evenodd" d="M57.7947 38.889C61.4497 36.834 66.2086 35.3291 70.1756 37.4661L75.1646 40.342C67.8316 36.693 59.1347 43.4651 54.6067 48.7551C48.5437 55.8461 43.3356 67.4351 45.1956 76.8291C45.41 78.3219 45.9275 79.7551 46.7164 81.0404C47.5052 82.3257 48.5486 83.4361 49.7825 84.3031C48.5955 83.6181 45.1368 81.7111 44.2208 81.0211C38.5058 76.7051 39.4385 67.0991 41.2505 61.1001C43.8785 52.4201 49.9017 43.559 57.7947 38.889Z" fill="#23356B"/>
<path fill-rule="evenodd" clip-rule="evenodd" d="M58.1385 39.4899C50.9065 43.7759 44.6895 52.131 41.9205 61.3C39.9785 67.729 39.5205 76.5999 44.6415 80.4639C45.1172 80.8022 45.6103 81.1157 46.1185 81.403C45.3388 80.0232 44.796 78.5223 44.5125 76.9629C42.5875 67.2029 48.1195 55.263 54.0765 48.305C58.2865 43.387 64.6624 38.622 70.7384 38.622H70.8036L69.8343 38.061C65.9493 35.983 61.3344 37.6889 58.1344 39.4899H58.1385ZM49.7845 84.9899C49.6622 84.9902 49.5419 84.9578 49.4364 84.8959L48.3145 84.259C46.7205 83.359 44.5415 82.1279 43.8045 81.5729C38.1245 77.2799 38.4194 68.0729 40.5924 60.8959C43.4614 51.4089 49.9155 42.747 57.4435 38.29C57.4467 38.2867 57.4509 38.2846 57.4554 38.284C60.9554 36.312 66.0634 34.4639 70.5094 36.8489L75.5155 39.7359C75.658 39.8331 75.7597 39.9796 75.8009 40.1471C75.8421 40.3147 75.8198 40.4915 75.7386 40.6437C75.6574 40.7959 75.523 40.9127 75.3609 40.9719C75.1988 41.031 75.0206 41.0281 74.8604 40.9639C68.3134 37.6989 60.1354 43.364 55.1344 49.2C49.3904 55.919 44.0405 67.385 45.8775 76.69C46.0702 78.0936 46.5508 79.4422 47.2894 80.6513C48.028 81.8604 49.0086 82.9038 50.1695 83.716C50.295 83.798 50.3904 83.9183 50.4417 84.0591C50.4931 84.1999 50.4977 84.3536 50.4544 84.4971C50.4112 84.6406 50.3226 84.7663 50.202 84.8553C50.0814 84.9443 49.9354 84.9919 49.7855 84.9909L49.7845 84.9899Z" fill="#23356B"/>
<path fill-rule="evenodd" clip-rule="evenodd" d="M52.1392 80.3359L47.1562 77.4609L52.3933 80.49L52.1392 80.3359Z" fill="#23356B"/>
<path fill-rule="evenodd" clip-rule="evenodd" d="M52.3998 81.1846C52.2777 81.1826 52.158 81.1503 52.0516 81.0906L46.8087 78.0626C46.6517 77.9676 46.5379 77.815 46.4915 77.6374C46.4452 77.4599 46.4701 77.2712 46.5606 77.1116C46.6523 76.9528 46.8031 76.837 46.9801 76.7894C47.1571 76.7418 47.3458 76.7662 47.5047 76.8575H47.5106L52.4937 79.7325L52.5057 79.7446L52.7538 79.8976C52.832 79.9435 52.9004 80.0044 52.9549 80.0769C53.0095 80.1493 53.0491 80.2318 53.0716 80.3197C53.0941 80.4075 53.0988 80.499 53.0858 80.5887C53.0728 80.6785 53.0422 80.7647 52.9957 80.8425C52.9341 80.946 52.8469 81.0319 52.7425 81.0918C52.6381 81.1517 52.5201 81.1836 52.3998 81.1846Z" fill="#23356B"/>
<path fill-rule="evenodd" clip-rule="evenodd" d="M73.1682 44.5031C71.7158 43.6975 70.0461 43.3709 68.3972 43.57C66.4061 43.8226 64.4906 44.4926 62.7761 45.5361C60.6963 46.7679 58.8036 48.2909 57.1553 50.059C53.489 53.9888 50.7687 58.704 49.2021 63.845C48.4893 66.1564 48.1135 68.5585 48.0862 70.9771C48.0386 72.9846 48.419 74.9791 49.2021 76.8281C49.8287 78.3687 50.9509 79.6566 52.3911 80.4883C53.8314 81.3201 55.5077 81.6483 57.1553 81.4211C59.147 81.1744 61.0632 80.5059 62.7761 79.46C64.8558 78.226 66.7486 76.7013 68.3972 74.9321C72.0706 71.0068 74.7933 66.2902 76.3552 61.1461C77.0658 58.8342 77.4416 56.4325 77.4712 54.0141C77.516 52.0088 77.1357 50.0167 76.3552 48.169C75.7066 46.6412 74.591 45.358 73.1682 44.5031ZM50.0833 55.1721C53.3303 49.5391 57.8231 44.627 62.7771 41.772C67.7311 38.917 72.2232 38.6431 75.4712 40.5151C78.7192 42.3871 80.7322 46.4151 80.7322 52.1341C80.7322 57.8531 78.7192 64.2021 75.4712 69.8341C72.2232 75.466 67.7371 80.3721 62.7771 83.2341C57.8171 86.0961 53.3303 86.363 50.0833 84.4851C46.8363 82.6071 44.8281 78.593 44.8281 72.866C44.8281 67.139 46.8363 60.798 50.0833 55.178V55.1721Z" fill="#CEE7FD"/>
<path fill-rule="evenodd" clip-rule="evenodd" d="M69.3438 44.2189C69.0607 44.2189 68.7647 44.2309 68.4697 44.2599C66.5774 44.5032 64.7571 45.141 63.1267 46.132C61.1044 47.3313 59.2638 48.8129 57.6599 50.532C54.0656 54.3802 51.4012 59.0012 49.8718 64.0399C49.1783 66.2864 48.8126 68.6211 48.7859 70.972C48.7389 72.8791 49.0971 74.7745 49.8369 76.533C50.4037 77.9423 51.4262 79.121 52.7415 79.8809C54.0567 80.6408 55.5888 80.938 57.0928 80.725C58.9857 80.4862 60.8065 79.8484 62.4348 78.8539C64.4575 77.6573 66.297 76.1755 67.8967 74.454C71.4928 70.6063 74.159 65.9851 75.6899 60.946C76.3847 58.6998 76.7504 56.3649 76.7759 54.0139C76.823 52.1068 76.4647 50.2113 75.7249 48.4529C75.1357 47.0589 74.1205 45.887 72.8247 45.105C71.7646 44.5061 70.5643 44.2006 69.3469 44.22L69.3438 44.2189ZM56.2078 82.158C54.7497 82.1792 53.3127 81.8105 52.0449 81.09C50.4922 80.1686 49.2753 78.7742 48.5728 77.111C47.7476 75.1731 47.3451 73.0817 47.3918 70.976C47.4203 68.4914 47.8059 66.0238 48.5369 63.649C50.1336 58.4009 52.9104 53.588 56.6548 49.579C58.3493 47.7618 60.2958 46.1971 62.4348 44.9329C64.2318 43.839 66.2404 43.1387 68.3279 42.878C70.1205 42.6609 71.9356 43.0187 73.5117 43.8999C73.5117 43.9007 73.5119 43.9014 73.5122 43.9021C73.5125 43.9028 73.5131 43.9034 73.5137 43.9038C73.5142 43.9043 73.5149 43.9048 73.5156 43.9049C73.5164 43.9051 73.5171 43.9051 73.5178 43.9049C75.0676 44.83 76.283 46.2238 76.9888 47.8849C77.8117 49.8208 78.2123 51.91 78.1638 54.013C78.1383 56.4993 77.7548 58.969 77.0249 61.346C75.4262 66.5925 72.6472 71.4031 68.9009 75.409C67.211 77.2306 65.2659 78.7978 63.1267 80.0619C61.328 81.1565 59.3168 81.8551 57.2268 82.111C56.8875 82.1441 56.5467 82.1597 56.2058 82.158H56.2078ZM70.7959 40.003C72.3117 39.981 73.8057 40.3642 75.1238 41.1129C78.2938 42.9359 80.0359 46.8509 80.0359 52.1299C80.0359 57.5499 78.1999 63.708 74.8689 69.476C71.5379 75.244 67.1228 79.9149 62.4348 82.6249C57.8598 85.2639 53.6028 85.707 50.4348 83.876C47.2668 82.045 45.5227 78.1379 45.5227 72.8599C45.5227 67.4399 47.3587 61.282 50.6877 55.513C54.0187 49.745 58.4349 45.08 63.1279 42.371C65.4349 40.9283 68.0772 40.1121 70.7959 40.003ZM54.7607 86.3739C53.0023 86.3986 51.2696 85.9522 49.7419 85.081C46.1289 82.997 44.1328 78.6569 44.1328 72.8599C44.1328 67.2029 46.0327 60.7979 49.4807 54.8229C52.9357 48.8419 57.5338 43.9949 62.4338 41.1669C67.4468 38.2669 72.2058 37.8259 75.8188 39.9099C79.4318 41.9939 81.4187 46.339 81.4187 52.132C81.4187 57.788 79.5188 64.194 76.0698 70.175C72.6208 76.156 68.0228 80.997 63.1218 83.826C60.6063 85.3925 57.7224 86.2711 54.7607 86.3739Z" fill="#23356B"/>
<path fill-rule="evenodd" clip-rule="evenodd" d="M54.6846 61.6791L62.5777 63.9291L63.2776 62.4471L55.3897 60.198L54.6895 61.6801L54.6846 61.6791ZM62.9556 65.4511C62.8919 65.4517 62.8284 65.4439 62.7666 65.428L53.5205 62.7881C53.4245 62.7592 53.3355 62.7106 53.2591 62.6455C53.1827 62.5805 53.1206 62.5003 53.0767 62.4101C53.0356 62.318 53.0146 62.2183 53.0157 62.1175C53.0167 62.0167 53.0396 61.9173 53.0826 61.8261L54.3826 59.0691C54.4515 58.9199 54.5717 58.8002 54.7212 58.732C54.8708 58.6637 55.0397 58.6513 55.1975 58.6971L64.4495 61.3361C64.5451 61.3653 64.6334 61.4146 64.7083 61.4807C64.7832 61.5469 64.8432 61.6284 64.8841 61.7196C64.9249 61.8109 64.9457 61.9097 64.9451 62.0097C64.9445 62.1096 64.9226 62.2084 64.8807 62.2991L63.5877 65.057C63.5301 65.1755 63.4402 65.2754 63.3284 65.3451C63.2166 65.4148 63.0873 65.4515 62.9556 65.4511Z" fill="#23356B"/>
<path fill-rule="evenodd" clip-rule="evenodd" d="M60.8035 67.2331C60.6826 67.2338 60.5639 67.2009 60.4605 67.1381C60.3812 67.0934 60.3117 67.0334 60.2557 66.9617C60.1997 66.89 60.1583 66.808 60.1341 66.7202C60.1099 66.6325 60.1034 66.5408 60.1148 66.4505C60.1262 66.3602 60.1553 66.2731 60.2005 66.1941L70.9337 47.62C70.978 47.5402 71.0378 47.4702 71.1097 47.414C71.1816 47.3578 71.2642 47.3166 71.3524 47.2929C71.4405 47.2692 71.5325 47.2634 71.6229 47.276C71.7133 47.2886 71.8002 47.3193 71.8785 47.3661C72.0371 47.4581 72.1529 47.6092 72.2003 47.7863C72.2477 47.9634 72.2231 48.1521 72.1317 48.3111L61.4036 66.885C61.3433 66.9909 61.2559 67.0789 61.1505 67.14C61.0451 67.2012 60.9254 67.2333 60.8035 67.2331Z" fill="#23356B"/>
<path fill-rule="evenodd" clip-rule="evenodd" d="M4.68337 90.4847C4.53182 90.4842 4.3847 90.4339 4.26442 90.3417C3.79703 89.956 3.42812 89.4647 3.18801 88.9083C2.94789 88.3519 2.84334 87.7464 2.88332 87.1417V47.3707C2.87978 47.2774 2.89523 47.1844 2.92848 47.0972C2.96174 47.0099 3.01218 46.9303 3.07692 46.863C3.14167 46.7958 3.21929 46.7422 3.30519 46.7057C3.3911 46.6691 3.48357 46.6504 3.57692 46.6504C3.67028 46.6504 3.76274 46.6691 3.84865 46.7057C3.93456 46.7422 4.01217 46.7958 4.07692 46.863C4.14167 46.9303 4.1921 47.0099 4.22536 47.0972C4.25862 47.1844 4.27382 47.2774 4.27028 47.3707V87.1237C4.22472 87.5165 4.27706 87.9145 4.42238 88.2822C4.56771 88.65 4.80153 88.9761 5.10329 89.2317C5.24946 89.3436 5.34566 89.5085 5.37111 89.6908C5.39657 89.8731 5.34922 90.0581 5.23928 90.2057C5.17514 90.2927 5.09151 90.3634 4.99489 90.4119C4.89827 90.4604 4.79147 90.4853 4.68337 90.4847Z" fill="#23356B"/>
<path fill-rule="evenodd" clip-rule="evenodd" d="M7.00163 91.8256C6.85013 91.8257 6.70288 91.7758 6.58269 91.6836C6.11552 91.2973 5.74627 90.8061 5.50505 90.25C5.26384 89.6939 5.15756 89.0886 5.19475 88.4835V48.7136C5.19475 48.6225 5.21261 48.5322 5.24748 48.448C5.28236 48.3638 5.33343 48.2873 5.39787 48.2229C5.46232 48.1585 5.53902 48.1073 5.62322 48.0724C5.70742 48.0375 5.79746 48.0195 5.8886 48.0195C5.97973 48.0195 6.07002 48.0375 6.15422 48.0724C6.23842 48.1073 6.31488 48.1585 6.37932 48.2229C6.44376 48.2873 6.49508 48.3638 6.52995 48.448C6.56483 48.5322 6.58269 48.6225 6.58269 48.7136V88.4675C6.5395 88.8606 6.59334 89.2584 6.73943 89.6259C6.88552 89.9933 7.11929 90.3194 7.42058 90.5756C7.56582 90.6883 7.6609 90.8536 7.68523 91.0359C7.70955 91.2181 7.6613 91.4027 7.55071 91.5496C7.48717 91.6353 7.40436 91.705 7.30901 91.7529C7.21366 91.8009 7.10836 91.8257 7.00163 91.8256Z" fill="#23356B"/>
</g>
<defs>
<clipPath id="clip0_698_6507">
<rect width="81.188" height="93.678" fill="white" transform="translate(0.242188)"/>
</clipPath>
</defs>
</svg>
