<svg xmlns="http://www.w3.org/2000/svg" width="1440" height="969" viewBox="0 0 1440 969" fill="none" class="injected-svg" data-src="/assets/hero-Ba7gfOJm.svg" xmlns:xlink="http://www.w3.org/1999/xlink" role="img">
<mask id="mask0_1029_4641-57" style="mask-type:luminance" maskUnits="userSpaceOnUse" x="-35" y="-1" width="1511" height="970">
<path d="M1467.86 -0.722778H-35V334.322L-6.94884 352.843C-25.2279 394.625 -35 438.676 -35 484.189C-35 751.939 303.245 969 720.5 969C1137.75 969 1476 751.939 1476 484.189C1476 437.13 1465.55 391.617 1446.05 348.591L1467.88 334.322V-0.722778H1467.86Z" fill="white"></path>
</mask>
<g mask="url(#mask0_1029_4641-57)">
<rect x="-35.2344" y="-0.924072" width="1511.47" height="970.092" fill="#C8CEDE"></rect>
</g>
<path fill-rule="evenodd" clip-rule="evenodd" d="M716.238 915.891C1131.15 915.891 1467.48 698.78 1467.48 430.945C1467.48 385.399 1457.75 341.331 1439.58 299.549L1467.86 281.062V-54H-35V281.062L-7.06538 299.499C-25.2612 341.297 -35 385.399 -35 430.945C-35 698.78 301.348 915.891 716.238 915.891Z" fill="#092346"></path>
<path d="M1021.64 400.517C1020.14 400.517 1018.66 400.871 1017.33 401.578L891.749 474.094C890.755 474.667 890.166 475.374 890.166 475.997C890.199 476.267 890.317 476.536 890.486 476.755C890.654 476.974 890.873 477.159 891.142 477.26L1017.95 550.467C1019.82 551.545 1023.24 551.376 1025.43 550.113L1151.01 477.597C1152 477.024 1152.59 476.317 1152.59 475.694C1152.56 475.425 1152.44 475.155 1152.27 474.936C1152.11 474.717 1151.89 474.549 1151.62 474.431L1024.81 401.225C1023.83 400.719 1022.74 400.484 1021.62 400.517H1021.64ZM1021.14 553.161C1019.69 553.195 1018.24 552.858 1016.96 552.185L890.149 478.978C889.576 478.709 889.105 478.288 888.768 477.766C888.431 477.244 888.229 476.637 888.195 476.014C888.195 474.65 889.138 473.336 890.755 472.393L1016.34 399.877C1019.17 398.261 1023.31 398.092 1025.78 399.524L1152.59 472.73C1153.17 473 1153.64 473.421 1153.99 473.943C1154.33 474.465 1154.53 475.071 1154.56 475.694C1154.56 477.058 1153.62 478.372 1152 479.315L1026.42 551.831C1024.81 552.724 1022.99 553.178 1021.15 553.161H1021.14Z" fill="#1B69FF"></path>
<path d="M419.5 550.484C421.352 551.561 424.788 551.393 426.977 550.13L552.558 477.614C553.552 477.041 554.141 476.334 554.141 475.711C554.107 475.441 553.989 475.172 553.821 474.953C553.653 474.734 553.434 474.549 553.164 474.448L426.354 401.241C424.501 400.164 421.066 400.332 418.877 401.595L293.296 474.111C292.302 474.684 291.713 475.391 291.713 476.014C291.746 476.284 291.864 476.553 292.033 476.772C292.201 476.991 292.42 477.159 292.689 477.277L419.5 550.484ZM422.699 553.178C421.251 553.212 419.803 552.875 418.523 552.201L291.713 478.995C291.14 478.725 290.668 478.305 290.315 477.782C289.978 477.26 289.776 476.654 289.742 476.031C289.742 474.667 290.685 473.353 292.302 472.41L417.883 399.894C420.695 398.278 424.855 398.109 427.331 399.54L554.141 472.747C554.714 473.017 555.185 473.438 555.539 473.96C555.876 474.482 556.078 475.088 556.111 475.728C556.111 477.092 555.168 478.405 553.552 479.349L427.971 551.865C426.354 552.757 424.535 553.212 422.699 553.195V553.178Z" fill="#1B69FF"></path>
<path d="M720.826 561.077C718.165 561.06 715.538 561.717 713.197 562.98L499.135 686.557C497.232 687.668 496.121 689.049 496.121 690.363C496.188 690.952 496.407 691.508 496.744 691.979C497.097 692.451 497.552 692.838 498.091 693.074L714.224 817.864C717.576 819.783 723.689 819.514 727.596 817.257L941.658 693.664C943.561 692.552 944.673 691.171 944.673 689.857C944.605 689.268 944.386 688.712 944.049 688.241C943.696 687.769 943.241 687.382 942.702 687.146L726.569 562.357C724.8 561.43 722.83 560.993 720.826 561.043V561.077ZM719.984 821.282C717.609 821.35 715.269 820.794 713.18 819.682L497.047 694.893C496.188 694.489 495.447 693.849 494.908 693.04C494.369 692.249 494.066 691.323 494.016 690.363C494.016 688.275 495.498 686.237 498.074 684.755L712.136 561.161C716.767 558.483 723.554 558.231 727.613 560.571L943.746 685.361C944.605 685.765 945.346 686.405 945.885 687.197C946.424 687.988 946.727 688.914 946.778 689.874C946.778 691.963 945.296 694 942.719 695.499L728.657 819.093C725.996 820.558 723.015 821.299 719.984 821.282Z" fill="#1B69FF"></path>
<path d="M994.674 871.417C996.324 872.781 997.284 874.802 997.284 876.941H998.244C998.244 874.516 997.166 872.209 995.28 870.676L994.674 871.417ZM1387.8 692.754C1389.18 691.036 1389.77 688.813 1389.45 686.641L1388.51 686.776C1388.8 688.695 1388.27 690.649 1387.06 692.165L1387.8 692.754ZM997.284 898.092C997.284 903.313 1002.15 907.203 1007.24 905.924L1007 904.997C1002.54 906.109 998.244 902.707 998.244 898.092H997.284ZM1380.44 652.235C1382.51 653.296 1383.95 655.283 1384.28 657.591L1385.23 657.456C1384.86 654.846 1383.22 652.589 1380.88 651.393L1380.44 652.252V652.235ZM1389.45 686.624L1385.23 657.456L1384.28 657.591L1388.51 686.759L1389.45 686.624ZM1374.97 707.439C1379.64 702.757 1384.97 696.274 1387.8 692.754L1387.06 692.165C1384.23 695.684 1378.93 702.134 1374.3 706.782L1374.97 707.456V707.439ZM1380.88 651.376L1100.67 508.449L1100.23 509.308L1380.44 652.235L1380.88 651.376ZM1007.24 905.924C1102.84 882.043 1263.96 818.925 1374.99 707.439L1374.31 706.765C1263.47 818.082 1102.54 881.134 1007.02 904.997L1007.25 905.924H1007.24ZM997.284 876.941V898.092H998.244V876.941H997.284ZM850.82 752.858L994.674 871.417L995.28 870.676L851.427 752.117L850.82 752.858Z" fill="#1B69FF"></path>
<path d="M57.6922 654.711C55.3345 655.923 53.7178 658.197 53.3642 660.824L54.3072 660.959C54.6272 658.651 56.0587 656.631 58.1301 655.57L57.6922 654.728V654.711ZM50.0802 684.519C49.7603 686.826 50.4002 689.116 51.9495 690.868L52.6737 690.228C51.3264 688.695 50.7539 686.674 51.0233 684.637L50.0802 684.502V684.519ZM489.959 910.555C489.723 915.152 485.328 918.402 480.899 917.224L480.646 918.15C485.682 919.497 490.633 915.809 490.902 910.605L489.942 910.555H489.959ZM381.438 890.986C420.458 902.033 462.475 913.317 480.646 918.15L480.899 917.224C462.728 912.39 420.71 901.107 381.707 890.06L381.455 890.986H381.438ZM166.837 794.926C191.727 810.672 232.482 831.033 273.438 849.271C314.395 867.526 355.604 883.677 381.438 890.986L381.69 890.06C355.924 882.768 314.765 866.634 273.826 848.396C232.886 830.157 192.182 809.814 167.342 794.101L166.837 794.91V794.926ZM493.31 885.883C493.344 885.731 493.479 885.462 493.765 885.041C494.035 884.62 494.405 884.115 494.893 883.492C495.853 882.262 497.201 880.662 498.902 878.742C502.287 874.903 507.036 869.8 512.677 863.889C523.961 852.05 538.831 836.927 553.634 822.04C568.437 807.136 583.189 792.468 594.237 781.521C599.76 776.048 604.358 771.501 607.575 768.335C609.191 766.752 610.454 765.506 611.313 764.647C611.751 764.226 612.071 763.906 612.29 763.687C612.408 763.569 612.492 763.502 612.543 763.434C612.576 763.401 612.593 763.384 612.61 763.367C612.61 763.367 612.61 763.367 612.273 763.03C611.936 762.693 611.936 762.693 611.936 762.693C611.936 762.693 611.903 762.727 611.869 762.761C611.818 762.811 611.734 762.895 611.616 763.013C611.397 763.232 611.061 763.552 610.64 763.973C609.781 764.815 608.518 766.062 606.901 767.661C603.684 770.844 599.087 775.374 593.563 780.848C582.516 791.794 567.763 806.479 552.96 821.366C538.157 836.27 523.287 851.393 511.987 863.232C506.345 869.16 501.596 874.263 498.194 878.119C496.493 880.039 495.129 881.656 494.152 882.919C493.664 883.542 493.277 884.081 492.99 884.536C492.704 884.974 492.502 885.344 492.418 885.647L493.344 885.9L493.31 885.883ZM490.885 910.622C491.104 906.345 491.424 901.225 491.828 896.644C492.233 892.047 492.721 888.022 493.294 885.883L492.367 885.63C491.778 887.87 491.273 891.979 490.869 896.56C490.464 901.157 490.144 906.277 489.926 910.572L490.885 910.622ZM51.9159 690.885C63.3844 703.902 117.157 763.535 166.82 794.943L167.325 794.135C117.797 762.811 64.1085 703.279 52.6232 690.261L51.899 690.901L51.9159 690.885ZM53.3305 660.841L50.0465 684.536L50.9896 684.67L54.2736 660.975L53.3305 660.841ZM341.205 508.955L57.6585 654.744L58.0964 655.587L341.643 509.797L341.205 508.955Z" fill="#1B69FF"></path>
<path opacity="0.5" d="M335.237 464.974V441.799L339.479 439.438C340.67 446.668 349.21 451.445 356.336 452.43L404.877 480.79L426.068 488.429L493.698 453.563L492.135 452.671C497.921 449.976 501.028 443.806 504.154 438.175L508.712 440.888L511.41 441.65V465.216C511.41 468.227 509.419 471.219 505.456 473.505L437.696 512.571C429.77 517.143 416.858 517.143 408.932 512.571L341.172 473.505C337.265 471.256 335.293 468.301 335.219 465.346C335.219 465.216 335.219 465.086 335.219 464.956L335.237 464.974Z" fill="#5284D8"></path>
<path d="M335.237 444.363V429.031L339.479 426.67C340.67 433.9 349.21 438.676 356.336 439.661L404.877 468.022L426.068 475.661L493.698 440.795L492.135 439.903C497.921 437.208 501.028 431.038 504.154 425.407L508.712 428.12L511.41 428.882V444.605C511.41 447.616 509.419 450.608 505.456 452.894L437.696 491.96C429.77 496.532 416.858 496.532 408.932 491.96L341.172 452.894C337.265 450.645 335.293 447.709 335.219 444.735C335.219 444.605 335.219 444.475 335.219 444.345L335.237 444.363Z" fill="url(#paint0_linear_1029_4641-30)"></path>
<path opacity="0.3" d="M356.336 439.68L404.877 468.041L423.314 474.694V495.435C418.309 495.528 413.36 494.358 408.932 491.997L341.172 452.931C337.265 450.682 335.293 447.746 335.219 444.772C335.219 444.642 335.219 444.512 335.219 444.382V429.049L339.107 426.893H339.517C340.838 434.012 349.266 438.714 356.336 439.68Z" fill="#0F054C"></path>
<path d="M423.328 383.906L430.882 381.917L447.664 391.767L504.168 425.425C501.042 431.057 497.935 437.227 492.149 439.922L427.942 402.9C426.528 402.138 424.947 401.766 423.328 401.803V383.925V383.906Z" fill="url(#paint1_linear_1029_4641-31)"></path>
<path d="M437.715 476.404L505.475 437.338C513.401 432.766 513.401 425.314 505.475 420.742L437.734 381.676C429.808 377.104 416.896 377.104 408.97 381.676L341.21 420.742C333.284 425.314 333.284 432.766 341.21 437.338L408.97 476.404C416.896 480.976 429.808 480.976 437.734 476.404H437.715Z" fill="url(#paint2_linear_1029_4641-32)"></path>
<path d="M341.196 437.338L408.956 476.404C416.882 480.976 429.794 480.976 437.72 476.404L505.48 437.338C509.034 435.294 510.987 432.673 511.359 429.997C511.824 433.305 509.871 436.725 505.48 439.253L437.72 478.319C429.794 482.891 416.882 482.891 408.956 478.319L341.196 439.253C336.805 436.725 334.852 433.305 335.317 429.997C335.689 432.673 337.643 435.294 341.196 437.338Z" fill="white"></path>
<path d="M435.799 475.308L503.559 436.242C510.443 432.283 510.443 425.815 503.559 421.857L435.818 382.791C428.934 378.832 417.752 378.832 410.868 382.791L343.108 421.857C336.224 425.815 336.224 432.283 343.108 436.242L410.85 475.308C417.734 479.285 428.915 479.266 435.799 475.308ZM416.803 386.211C420.897 384.129 425.752 384.129 429.846 386.211L497.587 425.277C501.178 427.358 501.178 430.722 497.587 432.804L429.827 471.869C425.734 473.932 420.896 473.932 416.785 471.869L349.025 432.804C345.434 430.722 345.434 427.358 349.025 425.277L416.785 386.211H416.803Z" fill="url(#paint3_linear_1029_4641-33)"></path>
<path d="M423.409 386L399.766 399.132L423.409 412.263L447.053 399.132L423.409 386Z" fill="url(#paint4_linear_1029_4641-34)"></path>
<path d="M423.406 412.263V437.046L447.05 423.915V399.132L423.406 412.263Z" fill="url(#paint5_linear_1029_4641-35)"></path>
<path d="M399.766 399.132V423.915L423.409 437.046V412.263L399.766 399.132Z" fill="#1B69FF"></path>
<path d="M423.409 328L399.766 341.132L423.409 354.263L447.053 341.132L423.409 328Z" fill="url(#paint6_linear_1029_4641-36)"></path>
<path d="M423.406 354.263V379.046L447.05 365.915V341.132L423.406 354.263Z" fill="url(#paint7_linear_1029_4641-37)"></path>
<path d="M399.766 341.132V365.915L423.409 379.046V354.263L399.766 341.132Z" fill="#1B69FF"></path>
<path opacity="0.5" d="M367.906 430.109V250H478.719V430.109C478.644 431.001 478.105 431.763 477.305 432.134L426.754 461.295C424.596 462.391 422.047 462.391 419.871 461.295L369.32 432.134C368.502 431.781 367.962 431.001 367.906 430.109Z" fill="url(#paint8_linear_1029_4641-38)"></path>
<path opacity="0.5" d="M933.019 464.974V441.799L937.261 439.438C938.451 446.668 946.991 451.445 954.117 452.43L1002.66 480.79L1023.85 488.429L1091.48 453.563L1089.92 452.671C1095.7 449.976 1098.81 443.806 1101.94 438.175L1106.49 440.888L1109.19 441.65V465.216C1109.19 468.227 1107.2 471.219 1103.24 473.505L1035.48 512.571C1027.55 517.143 1014.64 517.143 1006.71 512.571L938.954 473.505C935.047 471.256 933.074 468.301 933 465.346C933 465.216 933 465.086 933 464.956L933.019 464.974Z" fill="#5284D8"></path>
<path d="M933.019 444.363V429.031L937.261 426.67C938.451 433.9 946.991 438.676 954.117 439.661L1002.66 468.022L1023.85 475.661L1091.48 440.795L1089.92 439.903C1095.7 437.208 1098.81 431.038 1101.94 425.407L1106.49 428.12L1109.19 428.882V444.605C1109.19 447.616 1107.2 450.608 1103.24 452.894L1035.48 491.96C1027.55 496.532 1014.64 496.532 1006.71 491.96L938.954 452.894C935.047 450.645 933.074 447.709 933 444.735C933 444.605 933 444.475 933 444.345L933.019 444.363Z" fill="url(#paint9_linear_1029_4641-39)"></path>
<path opacity="0.3" d="M954.117 439.68L1002.66 468.041L1021.1 474.694V495.435C1016.09 495.528 1011.14 494.358 1006.71 491.997L938.954 452.931C935.047 450.682 933.074 447.746 933 444.772C933 444.642 933 444.512 933 444.382V429.049L936.888 426.893H937.298C938.619 434.012 947.047 438.714 954.117 439.68Z" fill="#0F054C"></path>
<path d="M1021.11 383.906L1028.66 381.917L1045.44 391.767L1101.95 425.425C1098.82 431.057 1095.72 437.227 1089.93 439.922L1025.72 402.9C1024.31 402.138 1022.73 401.766 1021.11 401.803V383.925V383.906Z" fill="url(#paint10_linear_1029_4641-40)"></path>
<path d="M1035.5 476.404L1103.26 437.338C1111.18 432.766 1111.18 425.314 1103.26 420.742L1035.51 381.676C1027.59 377.104 1014.68 377.104 1006.75 381.676L938.991 420.742C931.065 425.314 931.065 432.766 938.991 437.338L1006.75 476.404C1014.68 480.976 1027.59 480.976 1035.51 476.404H1035.5Z" fill="url(#paint11_linear_1029_4641-41)"></path>
<path d="M938.97 437.338L1006.73 476.404C1014.66 480.976 1027.57 480.976 1035.49 476.404L1103.25 437.338C1106.81 435.294 1108.76 432.673 1109.13 429.997C1109.6 433.305 1107.64 436.725 1103.25 439.253L1035.49 478.319C1027.57 482.891 1014.66 482.891 1006.73 478.319L938.97 439.253C934.579 436.725 932.625 433.305 933.091 429.997C933.463 432.673 935.416 435.294 938.97 437.338Z" fill="white"></path>
<path d="M1033.58 475.308L1101.34 436.242C1108.22 432.283 1108.22 425.815 1101.34 421.857L1033.6 382.791C1026.72 378.832 1015.53 378.832 1008.65 382.791L940.89 421.857C934.006 425.815 934.006 432.283 940.89 436.242L1008.63 475.308C1015.51 479.285 1026.7 479.266 1033.58 475.308ZM1014.58 386.211C1018.68 384.129 1023.53 384.129 1027.63 386.211L1095.37 425.277C1098.96 427.358 1098.96 430.722 1095.37 432.804L1027.61 471.869C1023.52 473.932 1018.68 473.932 1014.57 471.869L946.806 432.804C943.215 430.722 943.215 427.358 946.806 425.277L1014.57 386.211H1014.58Z" fill="url(#paint12_linear_1029_4641-42)"></path>
<path d="M1021.41 385L997.766 398.132L1021.41 411.263L1045.05 398.132L1021.41 385Z" fill="url(#paint13_linear_1029_4641-43)"></path>
<path d="M1021.41 411.263V436.046L1045.05 422.915V398.132L1021.41 411.263Z" fill="url(#paint14_linear_1029_4641-44)"></path>
<path d="M997.766 398.132V422.915L1021.41 436.046V411.263L997.766 398.132Z" fill="#1B69FF"></path>
<path d="M1021.41 330L997.766 343.132L1021.41 356.263L1045.05 343.132L1021.41 330Z" fill="url(#paint15_linear_1029_4641-45)"></path>
<path d="M1021.41 356.263V381.046L1045.05 367.915V343.132L1021.41 356.263Z" fill="url(#paint16_linear_1029_4641-46)"></path>
<path d="M997.766 343.132V367.915L1021.41 381.046V356.263L997.766 343.132Z" fill="#1B69FF"></path>
<path opacity="0.5" d="M965.688 430.109V250H1076.5V430.109C1076.43 431.001 1075.89 431.763 1075.09 432.134L1024.54 461.295C1022.38 462.391 1019.83 462.391 1017.65 461.295L967.101 432.134C966.283 431.781 965.743 431.001 965.688 430.109Z" fill="url(#paint17_linear_1029_4641-47)"></path>
<g style="mix-blend-mode:multiply" opacity="0.54">
<path d="M835.889 701.092C841.082 704.217 841.102 709.262 835.934 712.37L728.552 776.956C723.384 780.065 714.991 780.053 709.798 776.931L601.893 712.05C596.699 708.925 596.679 703.88 601.847 700.772L709.228 575.875C714.396 572.767 722.789 572.778 727.982 575.901L835.889 701.092Z" fill="#5CAEFF"></path>
</g>
<path d="M845.619 608.425C845.606 608.57 845.596 608.716 845.57 608.861C845.548 608.979 845.512 609.096 845.481 609.213C845.446 609.35 845.412 609.487 845.364 609.623C845.324 609.735 845.27 609.847 845.219 609.959C845.156 610.104 845.094 610.245 845.018 610.386C844.963 610.488 844.897 610.59 844.834 610.691C844.734 610.853 844.629 611.013 844.511 611.171C844.438 611.264 844.366 611.356 844.289 611.448C844.106 611.667 843.912 611.876 843.707 612.074C843.63 612.147 843.562 612.225 843.479 612.299C843.348 612.417 843.201 612.531 843.058 612.646C842.931 612.748 842.809 612.852 842.672 612.951C842.516 613.064 842.345 613.169 842.177 613.281C842.009 613.393 841.841 613.508 841.655 613.617L730.46 678.234C730.039 678.474 729.605 678.692 729.162 678.888C729.033 678.946 728.902 679 728.77 679.056C728.418 679.201 728.058 679.338 727.689 679.466C727.557 679.51 727.428 679.559 727.294 679.601C727.063 679.673 726.824 679.738 726.587 679.803C726.407 679.851 726.229 679.904 726.046 679.948C725.797 680.008 725.542 680.058 725.288 680.11C725.114 680.145 724.943 680.183 724.767 680.216C724.253 680.307 723.731 680.378 723.205 680.434C723.044 680.452 722.88 680.461 722.717 680.475C722.409 680.501 722.099 680.524 721.788 680.537C721.59 680.545 721.392 680.55 721.194 680.553C720.942 680.559 720.691 680.56 720.439 680.557C720.23 680.557 720.021 680.547 719.812 680.539C719.579 680.53 719.346 680.518 719.114 680.502C718.902 680.487 718.69 680.47 718.48 680.449C718.25 680.427 718.021 680.401 717.793 680.372C717.588 680.346 717.383 680.317 717.178 680.286C716.936 680.247 716.694 680.205 716.452 680.159C716.26 680.122 716.069 680.087 715.879 680.043C715.592 679.98 715.309 679.909 715.028 679.835C714.87 679.793 714.711 679.753 714.555 679.708C714.046 679.562 713.557 679.395 713.079 679.209C713.013 679.184 712.951 679.154 712.886 679.128C712.244 678.873 711.621 678.574 711.021 678.233L599.087 613.609C596.377 612.044 595.023 609.991 595.028 607.942L595 713.26C594.994 715.311 596.348 717.364 599.058 718.928L710.992 783.553C711.592 783.894 712.215 784.192 712.856 784.446C712.898 784.464 712.934 784.488 712.977 784.505C713.001 784.514 713.028 784.521 713.049 784.53C713.526 784.716 714.02 784.88 714.524 785.028C714.565 785.039 714.602 785.057 714.644 785.068C714.759 785.101 714.88 785.124 714.997 785.155C715.278 785.228 715.561 785.3 715.848 785.363C715.925 785.381 716 785.403 716.077 785.419C716.19 785.443 716.307 785.458 716.421 785.48C716.662 785.526 716.902 785.568 717.148 785.605C717.246 785.621 717.342 785.643 717.438 785.657C717.534 785.672 717.656 785.679 717.76 785.693C717.988 785.722 718.217 785.747 718.446 785.77C718.556 785.78 718.664 785.797 718.774 785.806C718.884 785.815 718.979 785.815 719.081 785.823C719.313 785.839 719.546 785.85 719.779 785.86C719.895 785.864 720.011 785.875 720.127 785.879C720.22 785.879 720.313 785.879 720.406 785.879C720.657 785.882 720.909 785.879 721.16 785.875C721.285 785.875 721.409 785.875 721.534 785.875C721.607 785.875 721.68 785.863 721.752 785.86C722.063 785.847 722.372 785.824 722.682 785.798C722.805 785.788 722.931 785.786 723.054 785.773C723.093 785.77 723.127 785.761 723.169 785.757C723.695 785.702 724.216 785.629 724.732 785.539C724.756 785.535 724.782 785.534 724.804 785.529C724.955 785.502 725.099 785.464 725.248 785.434C725.502 785.383 725.757 785.332 726.008 785.272C726.19 785.228 726.366 785.176 726.547 785.127C726.785 785.062 727.023 784.998 727.256 784.925C727.305 784.909 727.358 784.897 727.406 784.882C727.491 784.854 727.567 784.818 727.65 784.789C728.019 784.663 728.379 784.527 728.73 784.38C728.862 784.324 728.995 784.271 729.124 784.212C729.567 784.016 730 783.798 730.42 783.558L841.629 718.934L841.797 718.834C841.924 718.758 842.031 718.676 842.152 718.598C842.32 718.489 842.49 718.38 842.646 718.268C842.782 718.169 842.905 718.066 843.032 717.963C843.177 717.848 843.322 717.734 843.452 717.616C843.479 717.592 843.513 717.569 843.539 717.543C843.593 717.493 843.63 717.439 843.684 717.389C843.889 717.191 844.083 716.982 844.266 716.764C844.305 716.716 844.356 716.673 844.393 716.626C844.43 716.58 844.453 716.533 844.488 716.487C844.606 716.328 844.711 716.168 844.81 716.006C844.853 715.939 844.908 715.873 844.946 715.805C844.966 715.77 844.977 715.732 844.995 715.701C845.068 715.556 845.133 715.417 845.196 715.274C845.232 715.19 845.281 715.108 845.313 715.023C845.323 714.995 845.327 714.967 845.337 714.938C845.385 714.802 845.419 714.665 845.455 714.528C845.479 714.435 845.516 714.343 845.534 714.25C845.539 714.225 845.539 714.201 845.543 714.177C845.569 714.032 845.579 713.887 845.592 713.742C845.601 713.648 845.622 713.554 845.624 713.46C845.624 713.42 845.624 713.38 845.624 713.339L845.653 608.02C845.653 608.157 845.632 608.29 845.619 608.425Z" fill="url(#paint18_linear_1029_4641-48)"></path>
<path d="M841.597 602.354C846.984 605.464 847.013 610.503 841.66 613.617L730.462 678.235C725.11 681.345 716.411 681.345 711.024 678.235L599.09 613.609C593.703 610.499 593.674 605.46 599.027 602.35L710.225 537.729C715.577 534.619 724.276 534.619 729.663 537.729L841.597 602.354Z" fill="url(#paint19_linear_1029_4641-49)"></path>
<path d="M840.738 594.987C840.726 595.126 840.716 595.265 840.691 595.403C840.67 595.516 840.636 595.628 840.606 595.741C840.572 595.873 840.54 596.005 840.493 596.135C840.455 596.243 840.404 596.353 840.357 596.458C840.297 596.595 840.238 596.733 840.164 596.869C840.111 596.967 840.048 597.064 839.988 597.16C839.892 597.315 839.791 597.469 839.677 597.621C839.61 597.71 839.537 597.799 839.464 597.887C839.288 598.098 839.102 598.298 838.904 598.488C838.832 598.561 838.759 598.633 838.686 598.706C838.561 598.82 838.42 598.929 838.282 599.04C838.16 599.138 838.042 599.237 837.911 599.33C837.761 599.439 837.597 599.542 837.436 599.648C837.274 599.753 837.112 599.866 836.934 599.97L730.065 662.077C729.669 662.307 729.248 662.513 728.818 662.708C728.694 662.763 728.567 662.815 728.442 662.869C728.102 663.01 727.756 663.142 727.402 663.262C727.275 663.305 727.151 663.352 727.023 663.392C726.8 663.465 726.571 663.524 726.343 663.586C726.17 663.633 725.999 663.684 725.823 663.726C725.584 663.784 725.339 663.833 725.096 663.882C724.93 663.916 724.765 663.955 724.595 663.983C724.101 664.071 723.6 664.139 723.094 664.192C722.939 664.209 722.782 664.219 722.626 664.232C722.329 664.256 722.031 664.278 721.733 664.291C721.542 664.299 721.352 664.304 721.161 664.307C720.919 664.312 720.677 664.314 720.435 664.311C720.234 664.311 720.032 664.301 719.832 664.294C719.608 664.285 719.384 664.274 719.161 664.258C718.958 664.244 718.754 664.227 718.551 664.207C718.333 664.185 718.111 664.161 717.892 664.134C717.694 664.11 717.497 664.081 717.301 664.051C717.067 664.015 716.834 663.974 716.603 663.93C716.419 663.895 716.235 663.857 716.052 663.818C715.776 663.758 715.505 663.69 715.235 663.618C715.083 663.578 714.931 663.54 714.781 663.496C714.295 663.354 713.821 663.196 713.362 663.017C713.299 662.992 713.239 662.964 713.176 662.938C712.56 662.693 711.961 662.406 711.384 662.079L603.811 599.97C601.206 598.466 599.905 596.492 599.91 594.52L599.883 604.33C599.877 606.299 601.178 608.273 603.783 609.779L711.357 671.887C711.933 672.214 712.532 672.501 713.148 672.746C713.188 672.762 713.221 672.785 713.264 672.802C713.287 672.81 713.312 672.817 713.336 672.826C713.795 673.004 714.269 673.163 714.753 673.304C714.793 673.315 714.826 673.332 714.868 673.343C714.979 673.375 715.095 673.397 715.208 673.426C715.478 673.499 715.749 673.566 716.026 673.626C716.098 673.643 716.171 673.666 716.244 673.681C716.352 673.703 716.462 673.717 716.573 673.738C716.805 673.783 717.036 673.823 717.27 673.86C717.365 673.874 717.457 673.895 717.552 673.908C717.647 673.921 717.759 673.93 717.862 673.943C718.08 673.971 718.298 673.995 718.522 674.016C718.627 674.026 718.731 674.042 718.836 674.051C718.942 674.061 719.033 674.06 719.131 674.067C719.354 674.083 719.577 674.094 719.802 674.103C719.914 674.107 720.025 674.118 720.137 674.12C720.226 674.12 720.316 674.12 720.404 674.12C720.646 674.124 720.888 674.12 721.131 674.12C721.25 674.12 721.37 674.12 721.49 674.12C721.563 674.12 721.631 674.11 721.702 674.106C722.001 674.093 722.298 674.072 722.595 674.046C722.714 674.037 722.835 674.035 722.954 674.022C722.991 674.022 723.027 674.011 723.064 674.007C723.572 673.955 724.071 673.886 724.565 673.799C724.589 673.793 724.614 673.793 724.638 673.788C724.783 673.762 724.921 673.726 725.063 673.697C725.308 673.647 725.553 673.599 725.794 673.541C725.969 673.498 726.139 673.448 726.312 673.402C726.541 673.339 726.77 673.278 726.993 673.207C727.041 673.192 727.091 673.181 727.139 673.166C727.219 673.139 727.293 673.104 727.373 673.077C727.727 672.956 728.073 672.825 728.411 672.684C728.538 672.63 728.665 672.579 728.79 672.522C729.215 672.333 729.631 672.123 730.035 671.892L836.902 609.788C836.956 609.757 837.01 609.725 837.063 609.693C837.184 609.62 837.288 609.54 837.404 609.465C837.565 609.36 837.73 609.257 837.879 609.148C838.01 609.053 838.127 608.953 838.25 608.857C838.388 608.747 838.528 608.639 838.654 608.524C838.68 608.5 838.712 608.479 838.737 608.455C838.789 608.407 838.825 608.356 838.874 608.31C839.072 608.12 839.259 607.919 839.434 607.709C839.471 607.664 839.52 607.623 839.556 607.577C839.592 607.531 839.613 607.488 839.647 607.443C839.76 607.291 839.861 607.137 839.957 606.982C839.998 606.916 840.051 606.854 840.088 606.788C840.106 606.755 840.117 606.721 840.134 606.688C840.207 606.552 840.267 606.415 840.327 606.278C840.362 606.197 840.409 606.119 840.44 606.037C840.45 606.01 840.453 605.983 840.463 605.955C840.509 605.824 840.542 605.693 840.576 605.561C840.599 605.472 840.635 605.383 840.653 605.294C840.658 605.271 840.657 605.247 840.661 605.221C840.687 605.083 840.696 604.944 840.708 604.806C840.716 604.715 840.737 604.625 840.74 604.535C840.74 604.497 840.74 604.457 840.74 604.419L840.767 594.609C840.771 594.73 840.75 594.859 840.738 594.987Z" fill="url(#paint20_linear_1029_4641-50)"></path>
<path d="M836.866 589.152C842.043 592.142 842.07 596.984 836.927 599.973L730.06 662.077C724.917 665.066 716.557 665.066 711.379 662.077L603.807 599.97C598.63 596.981 598.602 592.138 603.746 589.149L710.612 527.045C715.755 524.056 724.116 524.056 729.293 527.045L836.866 589.152Z" fill="url(#paint21_linear_1029_4641-51)"></path>
<path d="M845.619 540.328C845.606 540.473 845.596 540.618 845.57 540.764C845.548 540.882 845.512 540.998 845.481 541.116C845.446 541.253 845.412 541.39 845.364 541.526C845.324 541.639 845.27 541.75 845.219 541.862C845.156 542.007 845.094 542.148 845.018 542.29C844.963 542.391 844.897 542.492 844.834 542.594C844.734 542.755 844.629 542.916 844.511 543.074C844.438 543.167 844.366 543.259 844.289 543.351C844.107 543.57 843.913 543.779 843.707 543.977C843.63 544.05 843.562 544.128 843.479 544.201C843.348 544.32 843.201 544.434 843.058 544.549C842.931 544.651 842.809 544.754 842.672 544.854C842.516 544.967 842.345 545.072 842.177 545.184C842.009 545.296 841.841 545.411 841.655 545.52L730.46 610.14C730.038 610.379 729.605 610.598 729.162 610.794C729.033 610.851 728.902 610.906 728.77 610.961C728.418 611.106 728.058 611.243 727.689 611.371C727.557 611.416 727.428 611.464 727.294 611.506C727.063 611.578 726.824 611.643 726.587 611.708C726.407 611.756 726.229 611.809 726.046 611.853C725.797 611.914 725.542 611.964 725.288 612.015C725.114 612.051 724.943 612.088 724.767 612.121C724.253 612.212 723.731 612.283 723.205 612.339C723.044 612.357 722.88 612.367 722.717 612.381C722.408 612.406 722.099 612.429 721.788 612.442C721.59 612.45 721.392 612.455 721.194 612.458C720.942 612.464 720.691 612.465 720.439 612.462C720.23 612.459 720.021 612.453 719.811 612.445C719.579 612.435 719.346 612.423 719.114 612.407C718.902 612.393 718.69 612.375 718.48 612.354C718.25 612.332 718.021 612.306 717.793 612.277C717.588 612.251 717.383 612.222 717.178 612.191C716.935 612.153 716.693 612.11 716.452 612.064C716.26 612.027 716.069 611.992 715.879 611.948C715.592 611.886 715.309 611.815 715.028 611.74C714.87 611.698 714.711 611.658 714.555 611.613C714.046 611.467 713.557 611.3 713.079 611.114C713.013 611.089 712.951 611.059 712.886 611.033C712.244 610.778 711.621 610.479 711.021 610.138L599.087 545.514C596.377 543.949 595.023 541.896 595.028 539.847L595 584.855C594.994 586.905 596.348 588.958 599.058 590.523L710.992 655.147C711.592 655.488 712.215 655.787 712.856 656.041C712.898 656.058 712.934 656.082 712.977 656.099C713.001 656.109 713.028 656.115 713.049 656.125C713.526 656.311 714.02 656.476 714.524 656.622C714.565 656.635 714.602 656.651 714.644 656.663C714.759 656.696 714.88 656.718 714.997 656.749C715.278 656.822 715.561 656.895 715.848 656.958C715.925 656.975 716 656.999 716.077 657.014C716.19 657.038 716.307 657.052 716.421 657.074C716.662 657.12 716.902 657.162 717.148 657.2C717.246 657.215 717.342 657.238 717.438 657.252C717.534 657.265 717.656 657.274 717.76 657.287C717.988 657.316 718.217 657.342 718.446 657.364C718.556 657.374 718.664 657.392 718.774 657.401C718.884 657.409 718.979 657.41 719.081 657.417C719.313 657.433 719.546 657.446 719.779 657.454C719.895 657.459 720.011 657.47 720.127 657.473C720.22 657.473 720.313 657.473 720.406 657.473C720.657 657.477 720.909 657.473 721.16 657.47C721.285 657.47 721.409 657.47 721.534 657.47C721.607 657.47 721.68 657.458 721.752 657.454C722.063 657.441 722.372 657.419 722.682 657.393C722.805 657.382 722.931 657.38 723.054 657.368C723.093 657.364 723.127 657.356 723.169 657.352C723.695 657.297 724.217 657.225 724.732 657.134C724.756 657.129 724.782 657.127 724.804 657.123C724.955 657.096 725.099 657.058 725.248 657.029C725.502 656.977 725.757 656.926 726.008 656.866C726.19 656.821 726.366 656.77 726.547 656.72C726.785 656.656 727.023 656.592 727.256 656.518C727.305 656.502 727.358 656.491 727.406 656.476C727.491 656.448 727.567 656.412 727.65 656.383C728.019 656.257 728.379 656.121 728.73 655.973C728.862 655.918 728.995 655.864 729.124 655.806C729.567 655.61 730 655.392 730.42 655.152L841.619 590.531L841.787 590.432C841.913 590.355 842.021 590.273 842.142 590.195C842.309 590.085 842.48 589.977 842.636 589.865C842.772 589.766 842.894 589.662 843.021 589.56C843.167 589.445 843.312 589.331 843.442 589.213C843.469 589.189 843.502 589.166 843.529 589.14C843.582 589.09 843.62 589.036 843.674 588.986C843.879 588.788 844.073 588.579 844.255 588.36C844.295 588.313 844.346 588.27 844.383 588.223C844.42 588.176 844.443 588.129 844.478 588.083C844.595 587.925 844.701 587.764 844.8 587.603C844.842 587.536 844.898 587.47 844.936 587.402C844.956 587.368 844.967 587.329 844.985 587.298C845.057 587.153 845.123 587.014 845.185 586.871C845.222 586.787 845.27 586.705 845.302 586.621C845.313 586.592 845.317 586.563 845.327 586.535C845.375 586.399 845.408 586.262 845.445 586.124C845.469 586.032 845.506 585.94 845.524 585.847C845.529 585.823 845.528 585.797 845.533 585.774C845.559 585.629 845.569 585.484 845.582 585.338C845.591 585.244 845.612 585.151 845.614 585.056C845.614 585.016 845.614 584.976 845.614 584.936L845.643 539.927C845.653 540.062 845.632 540.196 845.619 540.328Z" fill="url(#paint22_linear_1029_4641-52)"></path>
<path d="M841.597 534.986C846.984 538.096 847.013 543.135 841.66 546.248L730.462 610.866C725.11 613.976 716.411 613.976 711.024 610.866L599.09 546.241C593.703 543.131 593.674 538.092 599.027 534.982L710.225 470.36C715.577 467.25 724.276 467.25 729.663 470.36L841.597 534.986Z" fill="#EFF3FA"></path>
<path d="M804.091 536C807.811 538.148 807.831 541.628 804.134 543.775L727.334 588.408C723.637 590.556 717.63 590.556 713.909 588.408L636.601 543.773C632.88 541.626 632.86 538.146 636.556 535.999L713.356 491.366C717.053 489.218 723.061 489.218 726.782 491.366L804.091 536Z" fill="#6C96FF"></path>
<mask id="mask1_1029_4641-58" style="mask-type:luminance" maskUnits="userSpaceOnUse" x="633" y="489" width="174" height="101">
<path d="M803.864 535.774C807.584 537.922 807.604 541.402 803.908 543.549L727.107 588.182C723.41 590.33 717.403 590.33 713.682 588.182L636.374 543.548C632.653 541.4 632.633 537.92 636.33 535.773L713.13 491.14C716.826 488.992 722.835 488.992 726.555 491.14L803.864 535.774Z" fill="white"></path>
</mask>
<g mask="url(#mask1_1029_4641-58)">
<path d="M802.411 572.106C806.131 574.254 806.151 577.734 802.454 579.881L725.654 624.513C721.957 626.662 715.95 626.662 712.229 624.513L634.921 579.879C631.2 577.731 631.18 574.251 634.877 572.104L711.677 527.472C715.373 525.324 721.382 525.324 725.102 527.472L802.411 572.106Z" fill="#6C96FF"></path>
</g>
<path opacity="0.23" d="M720.178 354.22L769.176 384.381C773.894 387.284 777.687 394.515 777.587 400.43L775.688 515.721C775.586 521.631 771.636 524.096 766.913 521.197L717.951 491.06C713.235 488.155 709.442 480.921 709.541 475.01L711.407 359.702C711.512 353.778 715.466 351.314 720.178 354.22Z" fill="url(#paint23_linear_1029_4641-53)"></path>
<path opacity="0.53" d="M697.916 372.53L746.914 402.691C751.632 405.594 755.424 412.825 755.325 418.74L753.425 534.03C753.322 539.941 749.372 542.406 744.65 539.507L695.688 509.368C690.97 506.467 687.178 499.231 687.275 493.32L689.174 378.03C689.244 372.089 693.178 369.669 697.916 372.53Z" fill="url(#paint24_linear_1029_4641-54)"></path>
<path d="M673.761 392.082L721.99 421.156C726.708 424.059 730.501 431.29 730.401 437.204L730.76 550.069C730.658 555.981 726.708 558.445 721.985 555.546L673.413 527.687C668.695 524.784 664.902 517.549 665.002 511.639V397.614C665.101 391.702 669.024 389.218 673.761 392.082Z" fill="url(#paint25_linear_1029_4641-55)"></path>
<path d="M694.897 449.786C691.124 447.552 688.509 450.995 688.966 457.485C689.464 464.012 692.954 471.205 696.728 473.513C696.761 473.513 696.763 473.549 696.798 473.547C700.534 475.745 703.15 472.34 702.692 465.816C702.194 459.289 698.705 452.097 694.93 449.788C694.93 449.826 694.929 449.788 694.897 449.788" fill="#F2F5FC"></path>
<path d="M697.223 477.343C690.811 473.54 686.278 478.915 687.085 489.396C687.133 489.959 687.395 490.482 687.818 490.856L709.295 503.865C709.672 504.075 709.926 503.789 709.867 503.212L709.784 502.135C709.761 501.763 709.723 501.392 709.669 501.024C708.987 495.362 707.127 489.907 704.208 485.008C702.53 481.981 700.176 479.381 697.329 477.412H697.296C697.296 477.374 697.259 477.376 697.226 477.34" fill="#F2F5FC"></path>
<path d="M710.451 465.29C707.198 463.37 704.898 466.331 705.314 472.011C705.73 477.692 708.787 483.948 712.048 485.949C712.08 485.949 712.081 485.985 712.114 485.983C715.368 487.902 717.641 484.906 717.22 479.26C716.798 473.579 713.747 467.326 710.487 465.331C710.487 465.293 710.487 465.293 710.451 465.295" fill="#F2F5FC"></path>
<path d="M712.596 489.307C711.493 488.576 710.199 488.187 708.877 488.187C708.476 488.212 708.409 488.989 708.712 489.741C709.12 490.679 709.462 491.625 709.808 492.605C711.19 496.463 711.913 500.525 711.949 504.623C711.945 504.893 711.999 505.16 712.108 505.406C712.217 505.653 712.379 505.873 712.581 506.051L722.395 512.039C723.013 512.425 723.457 511.896 723.374 510.859C723.359 510.514 723.31 510.168 723.295 509.823C722.695 504.913 721.084 500.181 718.564 495.925C717.132 493.275 715.084 491.008 712.593 489.315" fill="#F2F5FC"></path>
<path d="M680.28 446.724C677.027 444.804 674.753 447.803 675.176 453.447C675.596 459.13 678.615 465.385 681.907 467.341C681.939 467.341 681.942 467.377 681.974 467.375C685.228 469.295 687.502 466.336 687.079 460.653C686.655 454.969 683.606 448.717 680.345 446.721C680.345 446.759 680.315 446.761 680.28 446.721" fill="#F2F5FC"></path>
<path d="M681.779 470.357C679.686 469.098 677.781 469.064 676.357 470.041C674.347 471.355 673.192 474.633 673.399 479.25L673.445 480.251C673.471 480.735 673.599 481.208 673.819 481.639C674.04 482.071 674.349 482.451 674.726 482.755L684.539 488.744C684.883 488.955 685.101 488.59 685.009 488.021C684.349 484.539 684.498 480.952 685.445 477.537C685.639 476.933 685.892 476.35 686.2 475.795C686.299 475.475 686.312 475.135 686.239 474.809C686.166 474.482 686.009 474.18 685.783 473.932C684.68 472.553 683.364 471.359 681.885 470.392H681.853C681.844 470.383 681.833 470.374 681.822 470.369C681.81 470.363 681.797 470.359 681.784 470.359" fill="#F2F5FC"></path>
<path opacity="0.4" d="M656 239.546V554.194C656.101 554.584 656.352 554.889 656.704 555.041L718.581 589.605C719.905 590.181 721.43 590.13 722.704 589.435L783.994 555.21C784.447 555.007 784.799 554.618 784.966 554.126H785V238.801L720.508 204L656 239.546Z" fill="url(#paint26_linear_1029_4641-56)"></path>
<defs>
<linearGradient id="paint0_linear_1029_4641-30" x1="495.051" y1="393.472" x2="464.372" y2="504.33" gradientUnits="userSpaceOnUse">
<stop stop-color="#CAD1E0"></stop>
<stop offset="0.44" stop-color="white"></stop>
<stop offset="1" stop-color="#C8CEDE"></stop>
</linearGradient>
<linearGradient id="paint1_linear_1029_4641-31" x1="505.355" y1="415.584" x2="424.154" y2="415.584" gradientUnits="userSpaceOnUse">
<stop stop-color="#CAD1E0"></stop>
<stop offset="0.44" stop-color="white"></stop>
<stop offset="1" stop-color="#C8CEDE"></stop>
</linearGradient>
<linearGradient id="paint2_linear_1029_4641-32" x1="509.944" y1="426.194" x2="336.585" y2="426.194" gradientUnits="userSpaceOnUse">
<stop stop-color="white"></stop>
<stop offset="0.51" stop-color="#CAD1E0"></stop>
<stop offset="1" stop-color="#C8CEDE"></stop>
</linearGradient>
<linearGradient id="paint3_linear_1029_4641-33" x1="509.402" y1="429.707" x2="337.856" y2="429.707" gradientUnits="userSpaceOnUse">
<stop stop-color="white"></stop>
<stop offset="0.51" stop-color="#CAD1E0"></stop>
<stop offset="1" stop-color="#C8CEDE"></stop>
</linearGradient>
<linearGradient id="paint4_linear_1029_4641-34" x1="423.409" y1="386" x2="423.409" y2="412.263" gradientUnits="userSpaceOnUse">
<stop stop-color="#AADFF7"></stop>
<stop offset="1" stop-color="#69A1E3"></stop>
</linearGradient>
<linearGradient id="paint5_linear_1029_4641-35" x1="435.228" y1="399.132" x2="435.228" y2="437.046" gradientUnits="userSpaceOnUse">
<stop stop-color="white"></stop>
<stop offset="0.506" stop-color="#CAD1E0"></stop>
<stop offset="1" stop-color="#C8CEDE"></stop>
</linearGradient>
<linearGradient id="paint6_linear_1029_4641-36" x1="423.409" y1="328" x2="423.409" y2="354.263" gradientUnits="userSpaceOnUse">
<stop stop-color="#AADFF7"></stop>
<stop offset="1" stop-color="#69A1E3"></stop>
</linearGradient>
<linearGradient id="paint7_linear_1029_4641-37" x1="435.228" y1="341.132" x2="435.228" y2="379.046" gradientUnits="userSpaceOnUse">
<stop stop-color="white"></stop>
<stop offset="0.506" stop-color="#CAD1E0"></stop>
<stop offset="1" stop-color="#C8CEDE"></stop>
</linearGradient>
<linearGradient id="paint8_linear_1029_4641-38" x1="424.077" y1="305.002" x2="424.077" y2="452.847" gradientUnits="userSpaceOnUse">
<stop stop-color="#AADFF7" stop-opacity="0"></stop>
<stop offset="1" stop-color="#69A1E3"></stop>
</linearGradient>
<linearGradient id="paint9_linear_1029_4641-39" x1="1092.83" y1="393.472" x2="1062.15" y2="504.33" gradientUnits="userSpaceOnUse">
<stop stop-color="#CAD1E0"></stop>
<stop offset="0.44" stop-color="white"></stop>
<stop offset="1" stop-color="#C8CEDE"></stop>
</linearGradient>
<linearGradient id="paint10_linear_1029_4641-40" x1="1103.14" y1="415.584" x2="1021.94" y2="415.584" gradientUnits="userSpaceOnUse">
<stop stop-color="#CAD1E0"></stop>
<stop offset="0.44" stop-color="white"></stop>
<stop offset="1" stop-color="#C8CEDE"></stop>
</linearGradient>
<linearGradient id="paint11_linear_1029_4641-41" x1="1107.73" y1="426.194" x2="934.367" y2="426.194" gradientUnits="userSpaceOnUse">
<stop stop-color="white"></stop>
<stop offset="0.51" stop-color="#CAD1E0"></stop>
<stop offset="1" stop-color="#C8CEDE"></stop>
</linearGradient>
<linearGradient id="paint12_linear_1029_4641-42" x1="1107.18" y1="429.707" x2="935.637" y2="429.707" gradientUnits="userSpaceOnUse">
<stop stop-color="white"></stop>
<stop offset="0.51" stop-color="#CAD1E0"></stop>
<stop offset="1" stop-color="#C8CEDE"></stop>
</linearGradient>
<linearGradient id="paint13_linear_1029_4641-43" x1="1021.41" y1="385" x2="1021.41" y2="411.263" gradientUnits="userSpaceOnUse">
<stop stop-color="#AADFF7"></stop>
<stop offset="1" stop-color="#69A1E3"></stop>
</linearGradient>
<linearGradient id="paint14_linear_1029_4641-44" x1="1033.23" y1="398.132" x2="1033.23" y2="436.046" gradientUnits="userSpaceOnUse">
<stop stop-color="white"></stop>
<stop offset="0.506" stop-color="#CAD1E0"></stop>
<stop offset="1" stop-color="#C8CEDE"></stop>
</linearGradient>
<linearGradient id="paint15_linear_1029_4641-45" x1="1021.41" y1="330" x2="1021.41" y2="356.263" gradientUnits="userSpaceOnUse">
<stop stop-color="#AADFF7"></stop>
<stop offset="1" stop-color="#69A1E3"></stop>
</linearGradient>
<linearGradient id="paint16_linear_1029_4641-46" x1="1033.23" y1="343.132" x2="1033.23" y2="381.046" gradientUnits="userSpaceOnUse">
<stop stop-color="white"></stop>
<stop offset="0.506" stop-color="#CAD1E0"></stop>
<stop offset="1" stop-color="#C8CEDE"></stop>
</linearGradient>
<linearGradient id="paint17_linear_1029_4641-47" x1="1021.86" y1="305.002" x2="1021.86" y2="452.847" gradientUnits="userSpaceOnUse">
<stop stop-color="#AADFF7" stop-opacity="0"></stop>
<stop offset="1" stop-color="#69A1E3"></stop>
</linearGradient>
<linearGradient id="paint18_linear_1029_4641-48" x1="865.956" y1="415.946" x2="732.701" y2="861.373" gradientUnits="userSpaceOnUse">
<stop stop-color="white"></stop>
<stop offset="1" stop-color="#C5CCDC"></stop>
</linearGradient>
<linearGradient id="paint19_linear_1029_4641-49" x1="719.341" y1="692.036" x2="719.846" y2="552.232" gradientUnits="userSpaceOnUse">
<stop stop-color="white"></stop>
<stop offset="0.545" stop-color="#E7F5FF"></stop>
<stop offset="1" stop-color="#8BBFFF"></stop>
</linearGradient>
<linearGradient id="paint20_linear_1029_4641-50" x1="808.489" y1="451.714" x2="791.731" y2="709.967" gradientUnits="userSpaceOnUse">
<stop stop-color="#30508C"></stop>
<stop offset="1" stop-color="#5080D3"></stop>
</linearGradient>
<linearGradient id="paint21_linear_1029_4641-51" x1="927.476" y1="631.672" x2="542.113" y2="425.739" gradientUnits="userSpaceOnUse">
<stop stop-color="#30508C"></stop>
<stop offset="1" stop-color="#5080D3"></stop>
</linearGradient>
<linearGradient id="paint22_linear_1029_4641-52" x1="831.86" y1="375.403" x2="788.108" y2="709.804" gradientUnits="userSpaceOnUse">
<stop stop-color="white"></stop>
<stop offset="1" stop-color="#C5CCDC"></stop>
</linearGradient>
<linearGradient id="paint23_linear_1029_4641-53" x1="-320.806" y1="1025.57" x2="-322.744" y2="1025.68" gradientUnits="userSpaceOnUse">
<stop stop-color="#AADFF7"></stop>
<stop offset="1" stop-color="#69A1E3"></stop>
</linearGradient>
<linearGradient id="paint24_linear_1029_4641-54" x1="-322.09" y1="1025.36" x2="-320.726" y2="1025.66" gradientUnits="userSpaceOnUse">
<stop stop-color="#AADFF7"></stop>
<stop offset="1" stop-color="#69A1E3"></stop>
</linearGradient>
<linearGradient id="paint25_linear_1029_4641-55" x1="-322.656" y1="1025.51" x2="-321.509" y2="1025.59" gradientUnits="userSpaceOnUse">
<stop stop-color="#5E98F7"></stop>
<stop offset="1" stop-color="#4670BA" stop-opacity="0.69"></stop>
</linearGradient>
<linearGradient id="paint26_linear_1029_4641-56" x1="720.457" y1="543.073" x2="720.457" y2="318.652" gradientUnits="userSpaceOnUse">
<stop stop-color="#7F9DFF"></stop>
<stop offset="1" stop-color="white" stop-opacity="0"></stop>
</linearGradient>
</defs>
</svg>