<svg width="239" height="72" viewBox="0 0 239 72" fill="none" xmlns="http://www.w3.org/2000/svg">
<mask id="mask0_9_105572" style="mask-type:luminance" maskUnits="userSpaceOnUse" x="47" y="18" width="143" height="35">
<path d="M189.878 18H47.8945V52.7077H189.878V18Z" fill="white"/>
</mask>
<g mask="url(#mask0_9_105572)">
<mask id="mask1_9_105572" style="mask-type:luminance" maskUnits="userSpaceOnUse" x="47" y="18" width="143" height="35">
<path d="M189.878 18H47.8945V52.7077H189.878V18Z" fill="white"/>
</mask>
<g mask="url(#mask1_9_105572)">
<path d="M60.5419 31.8442C59.5737 31.8088 58.6176 32.0664 57.8003 32.5827C57.0614 33.0759 56.4444 33.7284 55.9953 34.4916C55.522 35.2895 55.1893 36.1617 55.0114 37.0707C54.8192 37.9896 54.7217 38.9255 54.7204 39.8639C54.7226 40.7785 54.8202 41.6905 55.0114 42.5851C55.1856 43.4654 55.5018 44.312 55.9479 45.0922C56.3753 45.8355 56.977 46.4656 57.7018 46.9291C58.5101 47.4263 59.4483 47.6752 60.3987 47.6445C61.0891 47.6888 61.7812 47.5905 62.4314 47.3559C63.0816 47.1212 63.6757 46.7552 64.1762 46.2811C65.1059 45.2697 65.687 43.9907 65.8352 42.6295H72.424C72.1721 45.5292 70.7925 48.2175 68.5777 50.1248C66.2593 51.9099 63.3796 52.8234 60.448 52.7039C58.6964 52.7233 56.9575 52.4071 55.3267 51.7725C53.8336 51.1926 52.4807 50.3062 51.3567 49.1713C50.2456 48.0267 49.3786 46.6713 48.8076 45.1864C48.1861 43.5657 47.8766 41.8435 47.8953 40.1095C47.8783 38.3011 48.1627 36.5023 48.737 34.7861C49.2577 33.2145 50.1009 31.7672 51.2134 30.5353C52.3239 29.3275 53.6859 28.374 55.2049 27.7412C56.9138 27.0476 58.7472 26.7071 60.5931 26.7405C62.031 26.7361 63.4627 26.9287 64.8476 27.3128C66.162 27.6719 67.4008 28.2622 68.5052 29.0556C69.5753 29.8326 70.4685 30.8246 71.1267 31.967C71.8291 33.2359 72.2236 34.65 72.2789 36.0968H65.5925C65.1424 33.2624 63.4595 31.8455 60.5437 31.8461" fill="#FF6D2D"/>
<path d="M88.8735 18.0012C90.7463 17.9513 92.6107 18.2677 94.3603 18.9326C95.7534 19.4749 97.0098 20.3137 98.0411 21.3898C98.9758 22.3896 99.6814 23.5784 100.109 24.8744C100.543 26.1852 100.763 27.5563 100.76 28.936C100.76 30.3066 100.542 31.6686 100.114 32.9717C99.6898 34.2765 98.9837 35.4736 98.0449 36.4794C97.0138 37.5563 95.7573 38.3957 94.3641 38.9384C92.6142 39.6026 90.75 39.919 88.8773 39.8698H80.9419V52.0904H73.3906V18.0003L88.8735 18.0012ZM86.8044 34.0434C87.6433 34.0452 88.4811 33.981 89.3097 33.8514C90.057 33.7445 90.776 33.4937 91.4263 33.1129C92.0465 32.7357 92.5534 32.2001 92.8938 31.5621C93.2971 30.7462 93.4889 29.8432 93.4518 28.9351C93.4889 28.0275 93.2971 27.1251 92.8938 26.3098C92.5538 25.6715 92.0469 25.1358 91.4263 24.7591C90.7762 24.3779 90.0571 24.127 89.3097 24.0206C88.4811 23.8906 87.6433 23.8261 86.8044 23.8277H80.9382V34.0461L86.8044 34.0434Z" fill="#FF6D2D"/>
<path d="M101.476 31.0332C102.167 29.9955 103.09 29.1298 104.173 28.503C105.314 27.8476 106.558 27.3868 107.853 27.1396C109.206 26.8707 110.584 26.7349 111.964 26.7344C113.235 26.7354 114.504 26.8233 115.762 26.9975C116.979 27.1533 118.164 27.4994 119.272 28.023C120.302 28.5073 121.197 29.2365 121.876 30.1461C122.594 31.2085 122.948 32.4727 122.884 33.7507V46.599C122.881 47.6681 122.946 48.7364 123.078 49.7975C123.137 50.5999 123.367 51.3809 123.75 52.0895H116.823C116.694 51.7067 116.59 51.316 116.512 50.9199C116.43 50.5179 116.374 50.1113 116.343 49.7024C115.285 50.798 113.959 51.6037 112.495 52.0415C111.03 52.4865 109.507 52.712 107.975 52.7107C106.854 52.72 105.737 52.5755 104.656 52.2815C103.676 52.0189 102.759 51.5641 101.959 50.9439C101.183 50.3325 100.566 49.5469 100.156 48.6519C99.7001 47.6143 99.4779 46.4902 99.5054 45.3584C99.4587 44.1613 99.7145 42.9716 100.249 41.8978C100.708 41.033 101.366 40.2883 102.171 39.7248C102.992 39.1677 103.905 38.7557 104.868 38.5073C105.873 38.2375 106.893 38.0218 107.923 37.8611C108.95 37.7005 109.961 37.5731 110.954 37.479C111.845 37.4002 112.728 37.2568 113.597 37.0498C114.261 36.9077 114.885 36.6225 115.425 36.2144C115.653 36.0185 115.829 35.7704 115.938 35.4915C116.047 35.2127 116.085 34.9117 116.05 34.6147C116.079 34.0129 115.955 33.4136 115.69 32.8719C115.465 32.46 115.134 32.1154 114.73 31.8741C114.301 31.6237 113.827 31.4603 113.335 31.3932C112.769 31.3103 112.198 31.2702 111.627 31.2732C110.502 31.2101 109.388 31.5121 108.453 32.1335C108.036 32.4876 107.7 32.9262 107.467 33.4197C107.235 33.9132 107.111 34.4503 107.105 34.995H100.275C100.313 33.5908 100.728 32.2222 101.479 31.0313M114.974 40.6036C114.517 40.7523 114.052 40.8722 113.579 40.9627C113.084 41.0575 112.563 41.1378 112.018 41.2036C111.473 41.2701 110.927 41.3458 110.38 41.4445C109.868 41.54 109.362 41.6677 108.866 41.8267C108.4 41.9699 107.96 42.1882 107.564 42.4728C107.194 42.745 106.889 43.0957 106.672 43.4993C106.432 43.9894 106.317 44.5305 106.337 45.075C106.321 45.6026 106.436 46.1259 106.672 46.599C106.885 46.9987 107.201 47.3358 107.587 47.5765C108 47.8249 108.457 47.9951 108.932 48.0787C109.456 48.1742 109.988 48.2218 110.521 48.2208C111.604 48.2818 112.684 48.0512 113.645 47.5535C114.322 47.1702 114.886 46.6185 115.281 45.9528C115.621 45.3724 115.842 44.7313 115.932 44.0661C116.003 43.5609 116.043 43.052 116.052 42.5421V40.011C115.738 40.2816 115.37 40.485 114.973 40.6082" fill="#FF6D2D"/>
<path d="M132.259 27.4064V30.844H132.404C133.185 29.4898 134.357 28.3998 135.77 27.7157C137.089 27.077 138.535 26.7425 140.002 26.7372C141.536 26.6851 143.065 26.9361 144.5 27.4757C145.588 27.9064 146.542 28.6146 147.265 29.5286C147.972 30.4769 148.457 31.569 148.686 32.7261C148.967 34.1013 149.102 35.5018 149.09 36.9049V52.0913H142.259V38.1529C142.365 36.5743 142.033 34.9969 141.298 33.5929C140.912 33.0666 140.394 32.6506 139.795 32.3867C139.195 32.1229 138.537 32.0206 137.885 32.0901C137.128 32.022 136.365 32.1361 135.662 32.4226C134.958 32.7091 134.335 33.1596 133.844 33.736C133.012 34.8332 132.595 36.64 132.595 39.1563V52.0913H125.766V27.4092L132.259 27.4064Z" fill="#FF6D2D"/>
<path d="M159.195 46.1675C159.798 46.6903 160.5 47.0898 161.259 47.3433C162.019 47.5967 162.821 47.699 163.62 47.6445C164.884 47.6781 166.127 47.32 167.176 46.6199C168.017 46.1237 168.662 45.3566 169.003 44.446H175.017C174.336 47.0116 172.769 49.2588 170.591 50.7968C168.425 52.1185 165.917 52.7821 163.376 52.7057C161.569 52.7324 159.774 52.4169 158.087 51.7762C156.576 51.1967 155.212 50.2926 154.094 49.1288C152.979 47.9449 152.12 46.5473 151.57 45.022C150.96 43.3383 150.659 41.5597 150.681 39.7706C150.666 38.0113 150.976 36.2641 151.594 34.6152C152.17 33.0782 153.055 31.673 154.193 30.4845C155.334 29.3122 156.699 28.3788 158.209 27.7392C159.845 27.0556 161.605 26.7147 163.38 26.7377C165.297 26.6924 167.196 27.1103 168.914 27.9552C170.441 28.7333 171.765 29.8533 172.78 31.2266C173.808 32.6316 174.551 34.2205 174.97 35.9057C175.424 37.6988 175.588 39.5521 175.455 41.3962H157.52C157.614 43.5925 158.174 45.1839 159.201 46.1703M166.92 33.1845C166.43 32.7112 165.844 32.3472 165.201 32.1165C164.558 31.8859 163.873 31.794 163.192 31.8469C162.254 31.8161 161.322 32.0059 160.472 32.4008C159.802 32.7256 159.212 33.1908 158.742 33.7642C158.324 34.2703 158.013 34.8544 157.828 35.482C157.664 36.0103 157.56 36.5548 157.516 37.1057H168.624C168.43 35.6693 167.84 34.3141 166.919 33.19" fill="#FF6D2D"/>
<path d="M184.108 18H177.277V52.0874H184.108V18Z" fill="#FF6D2D"/>
<path d="M185.948 20.0538C186.052 19.8152 186.202 19.5989 186.39 19.4168C186.578 19.2356 186.798 19.0913 187.04 18.9913C187.292 18.8892 187.562 18.8378 187.834 18.8399C188.104 18.8381 188.371 18.8895 188.621 18.9913C188.863 19.0912 189.084 19.2356 189.272 19.4168C189.458 19.5992 189.607 19.8155 189.71 20.0538C189.823 20.3041 189.88 20.5754 189.878 20.8494C189.88 21.1274 189.823 21.4027 189.71 21.6571C189.607 21.8983 189.459 22.1177 189.272 22.3033C189.085 22.4854 188.864 22.6296 188.621 22.7279C188.371 22.8295 188.104 22.8809 187.834 22.8793C187.562 22.8812 187.292 22.8298 187.04 22.7279C186.797 22.6295 186.576 22.4853 186.388 22.3033C186.201 22.1181 186.051 21.8987 185.947 21.6571C185.837 21.4019 185.78 21.1271 185.781 20.8494C185.781 20.5757 185.838 20.3049 185.948 20.0538ZM186.282 21.5381C186.361 21.7449 186.481 21.9334 186.636 22.0919C186.786 22.2482 186.967 22.3723 187.168 22.4565C187.379 22.5461 187.607 22.5911 187.837 22.5885C188.063 22.5905 188.287 22.5456 188.494 22.4565C188.694 22.3712 188.874 22.2476 189.026 22.0928C189.18 21.9332 189.3 21.745 189.38 21.539C189.465 21.3193 189.508 21.0857 189.506 20.8504C189.507 20.6193 189.465 20.39 189.38 20.1747C189.299 19.9723 189.179 19.7878 189.026 19.6319C188.874 19.4775 188.694 19.3543 188.494 19.2691C188.287 19.1798 188.063 19.1345 187.837 19.1362C187.607 19.134 187.379 19.1792 187.168 19.2691C186.968 19.353 186.787 19.4764 186.636 19.6319C186.482 19.7869 186.362 19.9716 186.282 20.1747C186.196 20.3895 186.153 20.619 186.155 20.8504C186.152 21.0859 186.195 21.3189 186.282 21.5381ZM187.956 19.6771C188.179 19.6596 188.401 19.7189 188.585 19.8451C188.657 19.9082 188.713 19.9869 188.748 20.075C188.784 20.163 188.799 20.2581 188.791 20.3528C188.799 20.4393 188.787 20.5265 188.756 20.6076C188.725 20.6887 188.675 20.7617 188.611 20.8208C188.484 20.9237 188.328 20.9852 188.164 20.9971L188.846 22.0402H188.448L187.797 21.0248H187.405V22.0402H187.033V19.6781L187.956 19.6771ZM187.795 20.7267C187.874 20.7281 187.952 20.7251 188.031 20.7174C188.1 20.7136 188.167 20.698 188.231 20.6713C188.288 20.6471 188.336 20.6066 188.369 20.555C188.406 20.4884 188.424 20.413 188.421 20.3371C188.425 20.2707 188.408 20.2045 188.373 20.1479C188.345 20.1015 188.304 20.0638 188.256 20.039C188.202 20.0128 188.145 19.9957 188.086 19.9882C188.024 19.9794 187.962 19.9747 187.9 19.9744H187.411V20.7248L187.795 20.7267Z" fill="#2B2523"/>
</g>
</g>
</svg>
