<svg width="664" height="371" viewBox="0 0 664 371" fill="none" xmlns="http://www.w3.org/2000/svg">
<g opacity="0.71">
<path d="M112.891 197.412H228.838L357.909 123.468C374.53 113.945 403.567 115.14 422.762 126.135L547.176 197.412H663.065V213.222H663.028C663.501 219.666 659.879 225.887 651.891 230.463L418.096 364.401C401.475 373.924 372.437 372.729 353.242 361.732L128.769 233.136C118.797 227.423 113.488 220.19 112.976 213.222H112.891V197.412Z" fill="#F0F4FC"/>
<path d="M417.869 348.842L651.665 214.904C668.286 205.381 666.203 188.746 647.008 177.751L422.535 49.1516C403.34 38.1549 374.304 36.9605 357.681 46.484L123.885 180.422C107.264 189.945 109.347 206.58 128.542 217.574L353.016 346.171C372.21 357.169 401.246 358.363 417.869 348.842Z" fill="#FBFDFF"/>
</g>
<path d="M0.96217 185.8C0.96217 185.8 -1.20271 181.35 0.96217 172.39C3.12705 163.429 9.62229 167.605 9.62229 167.605C12.0693 182.269 29.4599 174.277 43.9948 176.284L143.002 233.735L186.204 249.214L324.119 178.592L320.934 176.765C332.719 171.301 339.473 175 345.85 163.602L355.133 169.093L360.65 170.635L360.245 186.293C360.245 192.381 356.199 198.469 348.114 203.101L209.943 282.262C193.766 291.527 167.441 291.527 151.262 282.262L13.0944 203.103C5.13991 198.546 1.09466 192.58 0.968669 186.596C0.962754 186.328 0.974001 186.06 0.985239 185.792L0.96217 185.8Z" fill="url(#paint0_linear_9_111895)"/>
<path d="M209.66 267.69L347.827 188.532C364.005 179.258 364.005 164.182 347.827 154.916L209.66 75.7569C193.488 66.4916 167.162 66.4916 150.983 75.7622L12.8139 154.916C-3.36419 164.189 -3.36414 179.266 12.8086 188.531L150.977 267.69C167.157 276.956 193.482 276.956 209.66 267.69Z" fill="#333C5E"/>
<path d="M284.375 233.891L284.524 233.637L512.172 364.765L511.876 365.273L284.227 234.144L284.375 233.891Z" fill="url(#paint1_linear_9_111895)"/>
<path d="M258.391 359.982L258.326 359.882L258.07 359.489L336.273 309.36C338.262 308.086 339.887 306.326 340.995 304.25C342.102 302.174 342.654 299.85 342.598 297.502C342.541 295.154 341.879 292.859 340.673 290.837C339.468 288.816 337.759 287.135 335.712 285.956L264.108 244.711L264.257 244.457L264.405 244.203L336.008 285.447C338.143 286.677 339.924 288.43 341.182 290.538C342.439 292.646 343.13 295.039 343.188 297.488C343.247 299.936 342.672 302.359 341.517 304.524C340.363 306.689 338.667 308.524 336.594 309.853L258.391 359.982Z" fill="url(#paint2_linear_9_111895)"/>
<path d="M485.768 210.606L485.446 210.113L399.975 264.902C396.532 267.109 392.541 268.329 388.442 268.426C384.344 268.523 380.299 267.493 376.754 265.451L305.219 224.245L305.07 224.5L304.922 224.753L376.771 266.139C380.315 268.181 384.36 269.211 388.458 269.114C392.556 269.018 396.548 267.799 399.991 265.592L485.768 210.606Z" fill="url(#paint3_linear_9_111895)"/>
<path d="M264.35 246.813C265.657 246.813 266.716 245.762 266.716 244.465C266.716 243.168 265.657 242.117 264.35 242.117C263.044 242.117 261.984 243.168 261.984 244.465C261.984 245.762 263.044 246.813 264.35 246.813Z" fill="#6FA6E3"/>
<path d="M284.401 235.719C285.708 235.719 286.767 234.668 286.767 233.371C286.767 232.075 285.708 231.023 284.401 231.023C283.094 231.023 282.035 232.075 282.035 233.371C282.035 234.668 283.094 235.719 284.401 235.719Z" fill="#6FA6E3"/>
<path d="M304.569 225.68C305.876 225.68 306.935 224.629 306.935 223.332C306.935 222.035 305.876 220.984 304.569 220.984C303.262 220.984 302.203 222.035 302.203 223.332C302.203 224.629 303.262 225.68 304.569 225.68Z" fill="#6FA6E3"/>
<path d="M180.32 253.315C188.837 253.315 197.355 251.455 203.845 247.736L311.797 185.894C318.296 182.169 321.879 177.137 321.884 171.722C321.89 166.307 318.296 161.275 311.797 157.551L203.849 95.7075C190.879 88.2799 169.774 88.2693 156.794 95.7075L48.8452 157.551C42.3388 161.275 38.7578 166.307 38.7578 171.722C38.7578 177.137 42.3405 182.169 48.8393 185.899L156.788 247.736C163.277 251.455 171.799 253.315 180.32 253.315Z" stroke="#6DA4E3" stroke-width="2"/>
<path d="M12.8114 188.529L150.98 267.689C167.158 276.954 193.483 276.954 209.66 267.689L347.83 188.529C355.061 184.383 359.047 179.083 359.818 173.652C360.765 180.369 356.776 187.269 347.83 192.402L209.662 271.556C193.484 280.827 167.159 280.827 150.982 271.556L12.8114 192.403C3.86555 187.278 -0.120574 180.376 0.828188 173.659C1.59418 179.084 5.58503 184.39 12.8114 188.529Z" fill="#242B43"/>
<path d="M187.844 1.96057C188.009 1.98346 188.174 2.01104 188.333 2.04802L183.953 1.00446C182.652 0.688102 181.383 0.259056 179.889 0.500284C177.101 0.955743 174.346 3.23303 172.508 5.94231C170.95 8.17669 170.068 10.8066 169.967 13.5219L169.914 43.0405C169.914 45.3113 170.742 47.3321 172.451 48.2688C173.431 48.8053 174.667 48.9514 175.786 49.2173L179.877 50.1846C177.486 49.6147 176.238 47.2752 176.243 44.5365L176.296 15.018C176.436 11.8259 177.625 8.76694 179.681 6.30797C181.87 3.60398 185.068 1.62015 187.844 1.97348L187.844 1.96057Z" fill="#FFD73E"/>
<path d="M184.159 2.66072C188.486 0.636983 191.987 2.8908 191.977 7.69542L191.924 37.2145C191.924 42.0162 188.4 47.5492 184.075 49.5771C179.749 51.6049 176.244 49.3458 176.254 44.5406L176.307 15.0221C176.317 10.2145 179.831 4.67859 184.159 2.66072Z" fill="#FFE06A"/>
<path d="M202.863 163.014L190.486 155.822C188.112 154.441 184.785 154.733 180.935 156.956L193.312 164.148C197.162 161.925 200.489 161.634 202.863 163.014Z" fill="#7EC2F5"/>
<path d="M171.365 189.484L183.742 196.677C181.313 195.265 179.915 192.085 179.902 187.508C179.988 178.424 185.24 168.811 193.312 164.15L180.935 156.957C172.862 161.618 167.611 171.231 167.525 180.315C167.537 184.893 168.935 188.072 171.365 189.484Z" fill="#7EC2F5"/>
<path d="M193.312 164.147C185.239 168.808 179.988 178.421 179.902 187.505C179.927 196.523 185.328 200.116 193.401 195.455C201.362 190.859 206.725 181.052 206.699 172.034C206.674 163.014 201.049 159.68 193.312 164.147Z" fill="#579AE2"/>
<path d="M182.854 159.091L170.477 151.898L170.486 154.99L182.863 162.183L182.854 159.091Z" fill="#7EC2F5"/>
<path d="M215.957 69.775L203.58 62.5822C198.187 62.0821 189.208 63.7825 178.556 69.9319L190.933 77.1244C201.585 70.975 210.565 69.2752 215.957 69.775Z" fill="#7EC2F5"/>
<path d="M190.934 77.1261L178.556 69.9336C158.822 81.3267 150 99.0663 150.041 113.239C150.078 126.252 157.053 130.87 162.793 134.784C168.307 138.698 170.568 144.103 170.478 151.898L182.855 159.091C182.945 151.296 180.684 145.891 175.17 141.976C169.43 138.063 162.455 133.444 162.418 120.432C162.378 106.259 171.2 88.5195 190.934 77.1261Z" fill="#7EC2F5"/>
<path d="M190.933 77.1232C171.199 88.5166 162.378 106.257 162.418 120.429C162.455 133.442 169.43 138.06 175.17 141.974C180.684 145.888 182.945 151.293 182.855 159.088L182.864 162.18L202.71 150.722L202.809 146.148C203.233 137.128 200.741 129.662 193.987 124.27C189.147 120.483 185.208 117.338 185.191 111.411C185.173 105.355 188.638 99.4834 196.149 94.7599C201.083 91.9114 207.031 90.541 210.964 91.3681L215.957 69.7735C210.565 69.2737 201.585 70.9735 190.933 77.1232Z" fill="#579AE2"/>
<path d="M138.299 86.8758L119.531 74.7898C117.493 73.4815 116.9 70.6108 117.446 67.6926C118.103 64.5001 119.748 61.5908 122.151 59.3699C122.656 58.9368 123.174 58.5296 123.705 58.1485C124.295 57.751 124.925 57.4165 125.585 57.1507C126.747 56.643 128.038 56.5016 129.284 56.7457L122.945 55.2514C120.753 54.7302 117.924 55.8624 115.814 57.8779C113.437 60.0787 111.802 62.9532 111.132 66.1096C110.563 69.0554 111.146 71.9608 113.202 73.2849L131.972 85.371C133.016 86.0436 134.41 86.1979 135.658 86.4932L139.651 87.4381C139.171 87.3251 138.714 87.1318 138.3 86.8665L138.299 86.8758Z" fill="#FFD73E"/>
<path d="M125.1 57.3588C127.111 56.3851 129.15 56.3692 130.635 57.3171L149.404 69.4032C152.457 71.3665 152.448 76.876 149.383 81.6965C148.053 83.8875 146.133 85.6658 143.838 86.8304C141.83 87.8035 139.788 87.8193 138.303 86.8726L119.534 74.7865C116.48 72.8232 116.49 67.3137 119.555 62.4933C120.885 60.3024 122.805 58.524 125.1 57.3588Z" fill="#FFE06A"/>
<path d="M128.238 121.413C129.23 121.079 130.294 121.015 131.32 121.229L125.866 119.943C125.037 119.667 124.16 119.56 123.288 119.63C122.417 119.7 121.569 119.945 120.795 120.349L94.2096 132.774C92.8715 133.422 91.6635 134.307 90.6446 135.384C88.2167 137.861 86.7129 141.085 86.3817 144.525C86.2095 147.33 87.2447 149.844 89.5468 150.646C90.622 150.966 91.7129 151.232 92.8154 151.441L96.3206 152.276C93.9511 151.717 92.7078 149.422 92.6888 146.72C92.6971 143.487 94.1705 139.97 96.6749 137.207C97.7588 135.989 99.0711 134.992 100.539 134.272L127.133 121.844C127.491 121.677 127.86 121.534 128.238 121.416V121.413Z" fill="#FFD73E"/>
<path d="M127.132 121.842C131.46 119.822 134.96 122.077 134.951 126.877C134.941 131.677 131.428 137.211 127.101 139.24L100.506 151.659C96.1786 153.68 92.6781 151.428 92.6875 146.624C92.697 141.819 96.2069 136.29 100.537 134.261L127.132 121.842Z" fill="#FFE06A"/>
<path d="M268.532 55.8609C269.524 55.5275 270.587 55.4651 271.612 55.6801L265.283 54.1922C263.857 53.9272 262.383 54.1435 261.095 54.8067L234.501 67.2221C228.523 70.0141 224.605 79.1133 227.741 83.5059C228.349 84.3702 229.258 84.981 230.292 85.2209L236.621 86.7158C236.052 86.6118 235.518 86.3688 235.068 86.0086C234.575 85.6438 234.162 85.1833 233.855 84.6551C233.121 83.2805 232.833 81.7147 233.03 80.1716C233.48 76.4914 235.253 73.0959 238.023 70.6081C238.861 69.8477 239.805 69.2117 240.827 68.7199L267.424 56.2946C267.782 56.1254 268.151 55.9815 268.529 55.8638L268.532 55.8609Z" fill="#FFD73E"/>
<path d="M267.435 56.2926C271.76 54.2695 275.261 56.5274 275.254 61.3273C275.247 66.1272 271.73 71.6573 267.404 73.6904L240.807 86.1087C236.479 88.1295 232.979 85.8739 232.988 81.074C232.998 76.2741 236.511 70.7399 240.838 68.7109L267.435 56.2926Z" fill="#FFE06A"/>
<path d="M218.343 49.0393C215.392 46.6745 216.114 41.1263 218.732 37.0107L237.563 7.36247C239.861 3.74815 243.925 0.809387 247.292 1.61055L242.814 0.549963C241.497 0.238303 240.23 -0.188396 238.719 0.0903964C235.849 0.618634 233.028 3.03562 231.235 5.86052L212.392 35.5316C210.455 38.5796 209.575 42.2297 210.388 45.0241C210.556 45.69 210.868 46.3118 211.302 46.8467C211.736 47.3816 212.281 47.8169 212.901 48.1225C213.639 48.4016 214.402 48.6103 215.179 48.7458L217.625 49.3028L220.059 49.8786C219.43 49.7308 218.844 49.4438 218.343 49.0393Z" fill="#FFD73E"/>
<path d="M243.104 2.22141C245.112 1.24828 247.154 1.23302 248.639 2.17974C251.695 4.14243 251.685 9.65196 248.618 14.473L229.775 44.1435C228.445 46.3348 226.524 48.1135 224.228 49.2786C222.221 50.2512 220.18 50.2664 218.695 49.3197C215.64 47.357 215.65 41.8475 218.717 37.0264L237.56 7.36234C238.886 5.16751 240.807 3.38628 243.104 2.22141Z" fill="#FFE06A"/>
<defs>
<linearGradient id="paint0_linear_9_111895" x1="122.621" y1="242.107" x2="213.088" y2="131.911" gradientUnits="userSpaceOnUse">
<stop stop-color="#333C5E"/>
<stop offset="1" stop-color="#4F5982"/>
</linearGradient>
<linearGradient id="paint1_linear_9_111895" x1="287.874" y1="236.401" x2="349.289" y2="337.483" gradientUnits="userSpaceOnUse">
<stop stop-color="#77ABD4"/>
<stop offset="0.955" stop-color="#BAC3DE" stop-opacity="0.01"/>
<stop offset="1" stop-color="white" stop-opacity="0"/>
</linearGradient>
<linearGradient id="paint2_linear_9_111895" x1="259.432" y1="246.634" x2="316.585" y2="286.573" gradientUnits="userSpaceOnUse">
<stop stop-color="#77ABD4"/>
<stop offset="0.955" stop-color="#BAC3DE" stop-opacity="0.01"/>
<stop offset="1" stop-color="white" stop-opacity="0"/>
</linearGradient>
<linearGradient id="paint3_linear_9_111895" x1="307.815" y1="211.352" x2="326.867" y2="266.85" gradientUnits="userSpaceOnUse">
<stop stop-color="#77ABD4"/>
<stop offset="0.955" stop-color="#BAC3DE" stop-opacity="0.01"/>
<stop offset="1" stop-color="white" stop-opacity="0"/>
</linearGradient>
</defs>
</svg>
