<svg width="1096" height="573" viewBox="0 0 1096 573" fill="none" xmlns="http://www.w3.org/2000/svg">
<path d="M931.998 376.999C931.445 376.999 930.998 377.447 930.998 377.999C930.998 378.551 931.445 378.999 931.998 378.999L931.998 376.999ZM1022 200.999C1022 245.279 1024.09 278.496 1025.29 303.375C1025.89 315.821 1026.26 326.159 1026.03 334.76C1025.81 343.367 1024.99 350.169 1023.23 355.565C1021.49 360.935 1018.83 364.899 1014.9 367.867C1010.95 370.851 1005.66 372.884 998.551 374.251C984.302 376.994 963.173 376.999 931.998 376.999L931.998 378.999C963.073 378.999 984.444 379.003 998.929 376.215C1006.19 374.817 1011.82 372.702 1016.11 369.463C1020.41 366.208 1023.29 361.875 1025.14 356.183C1026.98 350.516 1027.81 343.49 1028.03 334.812C1028.26 326.128 1027.88 315.724 1027.29 303.279C1026.09 278.377 1024 245.219 1024 200.999L1022 200.999Z" fill="#1B69FF"/>
<path d="M932 378.001C910 423 941 507.001 898.5 507.001C856 507 739.5 507 739 507" stroke="#1B69FF" stroke-width="2" stroke-linecap="square"/>
<path d="M169.299 376.999C169.851 376.999 170.299 377.447 170.299 377.999C170.299 378.551 169.851 378.999 169.299 378.999L169.299 376.999ZM79.2991 200.999C79.299 245.279 77.2035 278.496 76.0088 303.375C75.4111 315.821 75.0399 326.159 75.2644 334.76C75.4891 343.367 76.3097 350.169 78.0626 355.565C79.8071 360.935 82.4703 364.899 86.3971 367.867C90.3444 370.851 95.6417 372.884 102.746 374.251C116.995 376.994 138.124 376.999 169.299 376.999L169.299 378.999C138.224 378.999 116.853 379.003 102.368 376.215C95.1049 374.817 89.4763 372.702 85.1911 369.463C80.8855 366.208 78.0096 361.875 76.1604 356.183C74.3195 350.516 73.4916 343.49 73.2651 334.812C73.0385 326.128 73.4134 315.724 74.0111 303.279C75.207 278.377 77.299 245.219 77.2991 200.999L79.2991 200.999Z" fill="#1B69FF"/>
<path d="M169.297 378.001C191.297 423 159.297 491.001 201.797 491C244.297 490.999 349 491 349.5 491" stroke="#1B69FF" stroke-width="2" stroke-linecap="square"/>
<mask id="mask0_1031_4649" style="mask-type:luminance" maskUnits="userSpaceOnUse" x="0" y="0" width="146" height="221">
<path d="M146 0.368164H0V220.168H146V0.368164Z" fill="white"/>
</mask>
<g mask="url(#mask0_1031_4649)">
<path d="M146.006 161.528C146.247 163.614 145.124 165.539 142.637 167.063L82.1511 202.199C77.0972 205.167 68.2731 204.766 62.417 201.397L4.89912 167.945C1.77055 166.1 0.0859375 163.774 0.0859375 161.528V136.981H146.006V161.528Z" fill="url(#paint0_linear_1031_4649)"/>
<path d="M3.45308 132.248L63.939 97.0319C68.9928 94.0638 77.817 94.4649 83.673 97.8341L141.271 131.366C147.127 134.735 147.769 139.869 142.715 142.837L82.2291 178.053C77.1752 181.021 68.351 180.62 62.495 177.251L4.81682 143.719C-0.959003 140.35 -1.60076 135.216 3.45308 132.248Z" fill="url(#paint1_linear_1031_4649)"/>
<path d="M146.006 127.836C146.247 129.922 145.124 131.847 142.637 133.371L82.1511 168.507C77.0972 171.475 68.2731 171.074 62.417 167.705L4.89912 134.254C1.77055 132.409 0.0859375 130.082 0.0859375 127.836V103.289H146.006V127.836Z" fill="url(#paint2_linear_1031_4649)"/>
<path d="M3.45308 98.2353L63.939 63.3399C68.9928 60.452 77.817 60.7729 83.673 64.1421L141.191 97.3529C147.047 100.722 147.688 105.776 142.635 108.744L82.1488 143.639C77.095 146.527 68.2708 146.206 62.4148 142.837L4.81682 109.626C-0.959003 106.257 -1.60076 101.123 3.45308 98.2353Z" fill="url(#paint3_linear_1031_4649)"/>
<path d="M146.006 93.342C146.247 95.4277 145.124 97.3529 142.637 98.7969L82.1511 133.933C77.0972 136.821 68.2731 136.5 62.417 133.131L4.89912 99.7595C1.77055 97.9145 0.0859375 95.5881 0.0859375 93.342V68.7146H146.006V93.342Z" fill="url(#paint4_linear_1031_4649)"/>
<path d="M3.45308 63.741L63.939 28.8458C68.9928 25.9579 77.817 26.2788 83.673 29.648L141.191 62.7784C147.047 66.1476 147.688 71.2014 142.635 74.1695L82.1488 109.065C77.095 111.953 68.2708 111.632 62.4148 108.263L4.81682 75.0519C-0.959003 71.6827 -1.60076 66.6289 3.45308 63.741Z" fill="url(#paint5_linear_1031_4649)"/>
<g opacity="0.4">
<path d="M145.92 162.812C145.679 164.897 144.235 166.903 141.508 168.427L112.709 184.952L83.9099 201.477C77.0912 204.926 69.0692 204.926 62.3308 201.477L33.5319 184.952L4.73297 168.427C2.24616 166.983 0.802198 165.138 0.401099 163.293H0V44.4885H146V162.731L145.92 162.812Z" fill="url(#paint6_linear_1031_4649)"/>
<path d="M145.92 161.769C145.92 161.929 145.92 162.09 145.92 162.25C145.92 164.496 144.396 166.742 141.427 168.427L83.8297 201.477C77.011 204.927 68.989 204.927 62.2506 201.477L4.73297 168.427C1.92528 166.823 0.4011 164.737 0.32088 162.571H0.240662L0 17.2141H146L145.92 161.769Z" fill="url(#paint7_linear_1031_4649)"/>
</g>
<g opacity="0.4">
<path d="M0.0802155 68.6209C0.320877 66.5352 1.76483 64.5297 4.49231 63.0055L33.2912 46.4804L62.0901 29.9553C68.9088 26.5059 76.9308 26.5059 83.6692 29.9553L112.468 46.4804L141.267 63.0055C143.754 64.4495 145.198 66.2945 145.599 68.1395H146V186.944H0V68.7011L0.0802155 68.6209Z" fill="url(#paint8_linear_1031_4649)"/>
<path d="M0.0802155 69.6637C0.0802155 69.5032 0.0802155 69.3428 0.0802155 69.1823C0.0802155 66.9362 1.6044 64.6901 4.57254 63.0055L62.1703 29.9552C68.989 26.5058 77.011 26.5058 83.7494 29.9552L141.267 63.0055C144.075 64.6099 145.599 66.6955 145.679 68.8615H145.759L146 214.218H0L0.0802155 69.6637Z" fill="url(#paint9_linear_1031_4649)"/>
</g>
</g>
<mask id="mask1_1031_4649" style="mask-type:luminance" maskUnits="userSpaceOnUse" x="950" y="0" width="146" height="221">
<path d="M1096 0.368164H950V220.168H1096V0.368164Z" fill="white"/>
</mask>
<g mask="url(#mask1_1031_4649)">
<path d="M1096.01 161.528C1096.25 163.614 1095.12 165.539 1092.64 167.063L1032.15 202.199C1027.1 205.167 1018.27 204.766 1012.42 201.397L954.899 167.945C951.771 166.1 950.086 163.774 950.086 161.528V136.981H1096.01V161.528Z" fill="url(#paint10_linear_1031_4649)"/>
<path d="M953.453 132.248L1013.94 97.0319C1018.99 94.0638 1027.82 94.4649 1033.67 97.8341L1091.27 131.366C1097.13 134.735 1097.77 139.869 1092.71 142.837L1032.23 178.053C1027.18 181.021 1018.35 180.62 1012.49 177.251L954.817 143.719C949.041 140.35 948.399 135.216 953.453 132.248Z" fill="url(#paint11_linear_1031_4649)"/>
<path d="M1096.01 127.836C1096.25 129.922 1095.12 131.847 1092.64 133.371L1032.15 168.507C1027.1 171.475 1018.27 171.074 1012.42 167.705L954.899 134.254C951.771 132.409 950.086 130.082 950.086 127.836V103.289H1096.01V127.836Z" fill="url(#paint12_linear_1031_4649)"/>
<path d="M953.453 98.2353L1013.94 63.3399C1018.99 60.452 1027.82 60.7729 1033.67 64.1421L1091.19 97.3529C1097.05 100.722 1097.69 105.776 1092.63 108.744L1032.15 143.639C1027.1 146.527 1018.27 146.206 1012.41 142.837L954.817 109.626C949.041 106.257 948.399 101.123 953.453 98.2353Z" fill="url(#paint13_linear_1031_4649)"/>
<path d="M1096.01 93.342C1096.25 95.4277 1095.12 97.3529 1092.64 98.7969L1032.15 133.933C1027.1 136.821 1018.27 136.5 1012.42 133.131L954.899 99.7595C951.771 97.9145 950.086 95.5881 950.086 93.342V68.7146H1096.01V93.342Z" fill="url(#paint14_linear_1031_4649)"/>
<path d="M953.453 63.741L1013.94 28.8458C1018.99 25.9579 1027.82 26.2788 1033.67 29.648L1091.19 62.7784C1097.05 66.1476 1097.69 71.2014 1092.63 74.1695L1032.15 109.065C1027.1 111.953 1018.27 111.632 1012.41 108.263L954.817 75.0519C949.041 71.6827 948.399 66.6289 953.453 63.741Z" fill="url(#paint15_linear_1031_4649)"/>
<g opacity="0.4">
<path d="M1095.92 162.812C1095.68 164.897 1094.24 166.903 1091.51 168.427L1062.71 184.952L1033.91 201.477C1027.09 204.926 1019.07 204.926 1012.33 201.477L983.532 184.952L954.733 168.427C952.246 166.983 950.802 165.138 950.401 163.293H950V44.4885H1096V162.731L1095.92 162.812Z" fill="url(#paint16_linear_1031_4649)"/>
<path d="M1095.92 161.769C1095.92 161.929 1095.92 162.09 1095.92 162.25C1095.92 164.496 1094.4 166.742 1091.43 168.427L1033.83 201.477C1027.01 204.927 1018.99 204.927 1012.25 201.477L954.733 168.427C951.925 166.823 950.401 164.737 950.321 162.571H950.241L950 17.2141H1096L1095.92 161.769Z" fill="url(#paint17_linear_1031_4649)"/>
</g>
<g opacity="0.4">
<path d="M950.08 68.6209C950.321 66.5352 951.765 64.5297 954.492 63.0055L983.291 46.4804L1012.09 29.9553C1018.91 26.5059 1026.93 26.5059 1033.67 29.9553L1062.47 46.4804L1091.27 63.0055C1093.75 64.4495 1095.2 66.2945 1095.6 68.1395H1096V186.944H950V68.7011L950.08 68.6209Z" fill="url(#paint18_linear_1031_4649)"/>
<path d="M950.08 69.6637C950.08 69.5032 950.08 69.3428 950.08 69.1823C950.08 66.9362 951.604 64.6901 954.573 63.0055L1012.17 29.9552C1018.99 26.5058 1027.01 26.5058 1033.75 29.9552L1091.27 63.0055C1094.07 64.6099 1095.6 66.6955 1095.68 68.8615H1095.76L1096 214.218H950L950.08 69.6637Z" fill="url(#paint19_linear_1031_4649)"/>
</g>
</g>
<path d="M385.052 527.267C317.592 479.196 322.685 408.52 400.242 363.755C477.798 318.99 600.298 316.042 683.751 354.82M723.244 378.945C782.573 426.747 774.978 493.671 700.46 536.649C625.942 579.626 509.964 584.094 427.047 549.962" stroke="#007BFC" stroke-width="2" stroke-dasharray="1000 1000"/>
<path d="M431.877 562.203L426.516 549.694L443.492 547.013" stroke="#007BFC" stroke-dasharray="34.47 34.47"/>
<path d="M679.37 342.4L684.642 354.909L667.844 357.59" stroke="#007BFC" stroke-dasharray="34.47 34.47"/>
<path fill-rule="evenodd" clip-rule="evenodd" d="M643.561 434.878C644.455 448.638 635.788 462.487 617.56 473.031C582.892 493.045 526.601 493.045 491.844 473.12C474.242 462.934 465.575 449.621 465.843 436.308C465.664 445.69 465.932 414.774 465.932 414.774H643.472L643.561 434.878Z" fill="url(#paint20_linear_1031_4649)"/>
<path fill-rule="evenodd" clip-rule="evenodd" d="M491.845 378.945C526.602 358.841 582.893 358.841 617.561 378.855C652.229 398.87 652.229 431.393 617.561 451.497C582.893 471.601 526.513 471.601 491.845 451.587C457.177 431.572 457.177 399.048 491.845 378.945Z" fill="url(#paint21_linear_1031_4649)"/>
<path fill-rule="evenodd" clip-rule="evenodd" d="M643.561 399.852C644.455 413.612 635.788 427.64 617.56 438.184C582.803 458.288 526.512 458.288 491.844 438.273C474.242 428.087 465.575 414.685 465.843 401.282C465.664 410.664 465.932 379.659 465.932 379.659H643.561V399.852Z" fill="url(#paint22_linear_1031_4649)"/>
<path fill-rule="evenodd" clip-rule="evenodd" d="M491.845 344.098C526.602 323.994 582.893 323.994 617.561 344.008C652.229 364.023 652.229 396.546 617.561 416.65C582.893 436.754 526.513 436.754 491.845 416.74C457.177 396.725 457.177 364.202 491.845 344.098Z" fill="url(#paint23_linear_1031_4649)"/>
<path fill-rule="evenodd" clip-rule="evenodd" d="M643.561 366.078C644.455 379.838 635.788 393.687 617.56 404.231C582.892 424.245 526.601 424.245 491.844 404.32C474.242 394.134 465.575 380.821 465.843 367.508C465.664 376.889 465.932 345.974 465.932 345.974H643.472L643.561 366.078Z" fill="url(#paint24_linear_1031_4649)"/>
<path fill-rule="evenodd" clip-rule="evenodd" d="M491.845 310.145C526.602 290.041 582.893 290.041 617.561 310.055C652.229 330.07 652.229 362.593 617.561 382.697C582.893 402.801 526.513 402.801 491.845 382.787C457.177 362.772 457.177 330.248 491.845 310.145Z" fill="url(#paint25_linear_1031_4649)"/>
<path fill-rule="evenodd" clip-rule="evenodd" d="M643.56 328.372C644.454 342.132 635.787 356.16 617.559 366.703C582.802 386.807 526.511 386.807 491.843 366.793C474.241 356.607 465.574 343.204 465.842 329.802C465.842 329.444 465.931 328.997 465.931 328.64V308.179H643.56V328.372Z" fill="url(#paint26_linear_1031_4649)"/>
<path fill-rule="evenodd" clip-rule="evenodd" d="M491.845 274.404C526.602 254.3 582.893 254.3 617.561 274.315C652.229 294.329 652.229 326.853 617.561 346.957C582.893 367.061 526.513 367.061 491.845 347.046C457.177 327.032 457.177 294.508 491.845 274.404Z" fill="#65719B"/>
<path fill-rule="evenodd" clip-rule="evenodd" d="M572.166 309.34C572.345 312.11 570.647 314.88 566.894 317.025C559.925 321.045 548.578 321.045 541.608 317.025C537.855 314.88 536.158 312.021 536.426 309.251C536.426 308.983 536.426 301.299 536.426 301.299L572.166 303.086V309.34Z" fill="#D9DBDE"/>
<path fill-rule="evenodd" clip-rule="evenodd" d="M566.899 309.966C559.93 313.986 548.582 313.986 541.613 309.966C535.448 306.392 534.733 300.941 539.469 296.92L539.111 296.831L569.491 270.026L572.171 302.192C572.35 304.962 570.563 307.821 566.899 309.966Z" fill="white"/>
<path d="M601.656 320.062L577.531 334.359" stroke="white" stroke-width="6" stroke-linecap="round" stroke-linejoin="round"/>
<path d="M566.971 526.641C576.71 521.101 592.614 521.101 602.354 526.641C612.093 532.181 612.093 541.116 602.354 546.656C592.614 552.195 576.71 552.195 566.971 546.656C557.232 541.116 557.142 532.181 566.971 526.641Z" stroke="#007BFC" stroke-dasharray="140.4 140.4"/>
<path fill-rule="evenodd" clip-rule="evenodd" d="M597.261 542.277C590.292 546.209 578.944 546.209 571.975 542.277C568.401 540.222 566.703 537.631 566.703 535.04C566.703 534.951 566.703 534.951 566.703 534.951V512.97H602.443V535.04C602.622 537.542 600.835 540.222 597.261 542.277Z" fill="url(#paint27_linear_1031_4649)"/>
<path fill-rule="evenodd" clip-rule="evenodd" d="M571.977 506.269C578.946 502.338 590.294 502.338 597.263 506.269C604.233 510.201 604.233 516.634 597.263 520.565C590.294 524.497 578.946 524.497 571.977 520.565C565.008 516.634 565.008 510.201 571.977 506.269Z" fill="url(#paint28_linear_1031_4649)"/>
<path d="M667.94 399.763C677.679 394.223 693.583 394.223 703.322 399.763C713.062 405.303 713.062 414.238 703.322 419.778C693.583 425.317 677.679 425.317 667.94 419.778C658.2 414.238 658.111 405.303 667.94 399.763Z" stroke="#007BFC" stroke-dasharray="140.4 140.4"/>
<path fill-rule="evenodd" clip-rule="evenodd" d="M698.222 415.4C691.253 419.331 679.905 419.331 672.936 415.4C669.362 413.345 667.664 410.754 667.664 408.162C667.664 408.073 667.664 408.073 667.664 408.073V386.093H703.404V408.162C703.583 410.664 701.796 413.345 698.222 415.4Z" fill="url(#paint29_linear_1031_4649)"/>
<path fill-rule="evenodd" clip-rule="evenodd" d="M672.938 379.391C679.907 375.46 691.255 375.46 698.224 379.391C705.194 383.323 705.194 389.756 698.224 393.688C691.255 397.619 679.907 397.619 672.938 393.688C665.969 389.756 665.969 383.323 672.938 379.391Z" fill="url(#paint30_linear_1031_4649)"/>
<path d="M399.893 398.87C409.632 393.33 425.536 393.33 435.276 398.87C445.015 404.409 445.015 413.344 435.276 418.884C425.536 424.424 409.632 424.424 399.893 418.884C390.153 413.344 390.064 404.409 399.893 398.87Z" stroke="#007BFC" stroke-dasharray="140.4 140.4"/>
<path fill-rule="evenodd" clip-rule="evenodd" d="M430.175 414.506C423.206 418.438 411.858 418.438 404.889 414.506C401.315 412.451 399.617 409.86 399.617 407.269C399.617 407.179 399.617 407.179 399.617 407.179V385.199H435.357V407.269C435.536 409.771 433.749 412.451 430.175 414.506Z" fill="url(#paint31_linear_1031_4649)"/>
<path fill-rule="evenodd" clip-rule="evenodd" d="M404.891 378.498C411.86 374.566 423.208 374.566 430.177 378.498C437.147 382.429 437.147 388.863 430.177 392.794C423.208 396.725 411.86 396.725 404.891 392.794C397.922 388.863 397.922 382.429 404.891 378.498Z" fill="url(#paint32_linear_1031_4649)"/>
<path fill-rule="evenodd" clip-rule="evenodd" d="M338.505 362.861C337.879 394.67 358.519 426.568 400.603 450.872C483.431 498.585 617.725 498.496 700.553 450.693C742.638 426.39 763.367 394.402 762.652 362.593C762.652 362.325 762.652 314.88 762.652 314.701C762.831 283.25 742.191 251.798 700.553 227.763C617.725 180.05 483.431 180.139 400.603 227.942C358.966 251.977 338.237 283.518 338.415 314.969C338.505 315.059 338.505 362.504 338.505 362.861ZM700.643 268.596C617.815 220.883 483.521 220.972 400.693 268.775C368.258 287.449 348.601 310.681 341.542 334.984C348.601 359.198 368.348 382.34 400.693 401.014C483.521 448.727 617.815 448.638 700.643 400.835C733.077 382.161 752.734 358.93 759.882 334.626C752.645 310.412 732.988 287.271 700.643 268.596Z" fill="url(#paint33_linear_1031_4649)"/>
<defs>
<linearGradient id="paint0_linear_1031_4649" x1="0.0248902" y1="170.545" x2="145.995" y2="170.545" gradientUnits="userSpaceOnUse">
<stop stop-color="#1D53DA"/>
<stop offset="1" stop-color="#3F75FC"/>
</linearGradient>
<linearGradient id="paint1_linear_1031_4649" x1="0.00780371" y1="137.551" x2="146.016" y2="137.551" gradientUnits="userSpaceOnUse">
<stop stop-color="#0B3EBF"/>
<stop offset="1" stop-color="#2E5FDB"/>
</linearGradient>
<linearGradient id="paint2_linear_1031_4649" x1="0.0248902" y1="170.545" x2="145.995" y2="170.545" gradientUnits="userSpaceOnUse">
<stop stop-color="#1D53DA"/>
<stop offset="1" stop-color="#3F75FC"/>
</linearGradient>
<linearGradient id="paint3_linear_1031_4649" x1="0.00780371" y1="137.551" x2="146.016" y2="137.551" gradientUnits="userSpaceOnUse">
<stop stop-color="#0B3EBF"/>
<stop offset="1" stop-color="#2E5FDB"/>
</linearGradient>
<linearGradient id="paint4_linear_1031_4649" x1="0.0248902" y1="170.545" x2="145.995" y2="170.545" gradientUnits="userSpaceOnUse">
<stop stop-color="#1D53DA"/>
<stop offset="1" stop-color="#3F75FC"/>
</linearGradient>
<linearGradient id="paint5_linear_1031_4649" x1="35.5131" y1="106.444" x2="110.507" y2="31.4492" gradientUnits="userSpaceOnUse">
<stop stop-color="#0397F6"/>
<stop offset="1" stop-color="#00BAFF"/>
</linearGradient>
<linearGradient id="paint6_linear_1031_4649" x1="73.004" y1="204.027" x2="73.004" y2="44.523" gradientUnits="userSpaceOnUse">
<stop stop-color="#17BDFF"/>
<stop offset="0.8" stop-color="#17BDFF" stop-opacity="0"/>
</linearGradient>
<linearGradient id="paint7_linear_1031_4649" x1="73" y1="204.025" x2="73" y2="17.2141" gradientUnits="userSpaceOnUse">
<stop stop-color="#51B9FF"/>
<stop offset="0.7" stop-color="#2389F0" stop-opacity="0.7"/>
<stop offset="1" stop-color="#2389F0" stop-opacity="0"/>
</linearGradient>
<linearGradient id="paint8_linear_1031_4649" x1="72.996" y1="27.4051" x2="72.996" y2="186.909" gradientUnits="userSpaceOnUse">
<stop stop-color="#17BDFF"/>
<stop offset="0.8" stop-color="#17BDFF" stop-opacity="0"/>
</linearGradient>
<linearGradient id="paint9_linear_1031_4649" x1="73" y1="27.4075" x2="73" y2="214.218" gradientUnits="userSpaceOnUse">
<stop stop-color="#51B9FF"/>
<stop offset="0.7" stop-color="#2389F0" stop-opacity="0.7"/>
<stop offset="1" stop-color="#2389F0" stop-opacity="0"/>
</linearGradient>
<linearGradient id="paint10_linear_1031_4649" x1="950.025" y1="170.545" x2="1095.99" y2="170.545" gradientUnits="userSpaceOnUse">
<stop stop-color="#1D53DA"/>
<stop offset="1" stop-color="#3F75FC"/>
</linearGradient>
<linearGradient id="paint11_linear_1031_4649" x1="950.008" y1="137.551" x2="1096.02" y2="137.551" gradientUnits="userSpaceOnUse">
<stop stop-color="#0B3EBF"/>
<stop offset="1" stop-color="#2E5FDB"/>
</linearGradient>
<linearGradient id="paint12_linear_1031_4649" x1="950.025" y1="170.545" x2="1095.99" y2="170.545" gradientUnits="userSpaceOnUse">
<stop stop-color="#1D53DA"/>
<stop offset="1" stop-color="#3F75FC"/>
</linearGradient>
<linearGradient id="paint13_linear_1031_4649" x1="950.008" y1="137.551" x2="1096.02" y2="137.551" gradientUnits="userSpaceOnUse">
<stop stop-color="#0B3EBF"/>
<stop offset="1" stop-color="#2E5FDB"/>
</linearGradient>
<linearGradient id="paint14_linear_1031_4649" x1="950.025" y1="170.545" x2="1095.99" y2="170.545" gradientUnits="userSpaceOnUse">
<stop stop-color="#1D53DA"/>
<stop offset="1" stop-color="#3F75FC"/>
</linearGradient>
<linearGradient id="paint15_linear_1031_4649" x1="985.513" y1="106.444" x2="1060.51" y2="31.4492" gradientUnits="userSpaceOnUse">
<stop stop-color="#0397F6"/>
<stop offset="1" stop-color="#00BAFF"/>
</linearGradient>
<linearGradient id="paint16_linear_1031_4649" x1="1023" y1="204.027" x2="1023" y2="44.523" gradientUnits="userSpaceOnUse">
<stop stop-color="#17BDFF"/>
<stop offset="0.8" stop-color="#17BDFF" stop-opacity="0"/>
</linearGradient>
<linearGradient id="paint17_linear_1031_4649" x1="1023" y1="204.025" x2="1023" y2="17.2141" gradientUnits="userSpaceOnUse">
<stop stop-color="#51B9FF"/>
<stop offset="0.7" stop-color="#2389F0" stop-opacity="0.7"/>
<stop offset="1" stop-color="#2389F0" stop-opacity="0"/>
</linearGradient>
<linearGradient id="paint18_linear_1031_4649" x1="1023" y1="27.4051" x2="1023" y2="186.909" gradientUnits="userSpaceOnUse">
<stop stop-color="#17BDFF"/>
<stop offset="0.8" stop-color="#17BDFF" stop-opacity="0"/>
</linearGradient>
<linearGradient id="paint19_linear_1031_4649" x1="1023" y1="27.4075" x2="1023" y2="214.218" gradientUnits="userSpaceOnUse">
<stop stop-color="#51B9FF"/>
<stop offset="0.7" stop-color="#2389F0" stop-opacity="0.7"/>
<stop offset="1" stop-color="#2389F0" stop-opacity="0"/>
</linearGradient>
<linearGradient id="paint20_linear_1031_4649" x1="465.834" y1="451.444" x2="643.621" y2="451.444" gradientUnits="userSpaceOnUse">
<stop offset="0.0418994" stop-color="#BBC1D4"/>
<stop offset="1" stop-color="#F6F9FF"/>
</linearGradient>
<linearGradient id="paint21_linear_1031_4649" x1="465.821" y1="415.25" x2="643.634" y2="415.25" gradientUnits="userSpaceOnUse">
<stop stop-color="#99A1BE"/>
<stop offset="1" stop-color="#B3BACF"/>
</linearGradient>
<linearGradient id="paint22_linear_1031_4649" x1="465.834" y1="451.444" x2="643.621" y2="451.444" gradientUnits="userSpaceOnUse">
<stop offset="0.0418994" stop-color="#BBC1D4"/>
<stop offset="1" stop-color="#F6F9FF"/>
</linearGradient>
<linearGradient id="paint23_linear_1031_4649" x1="465.821" y1="415.25" x2="643.634" y2="415.25" gradientUnits="userSpaceOnUse">
<stop stop-color="#99A1BE"/>
<stop offset="1" stop-color="#B3BACF"/>
</linearGradient>
<linearGradient id="paint24_linear_1031_4649" x1="465.834" y1="451.444" x2="643.621" y2="451.444" gradientUnits="userSpaceOnUse">
<stop offset="0.0418994" stop-color="#BBC1D4"/>
<stop offset="1" stop-color="#F6F9FF"/>
</linearGradient>
<linearGradient id="paint25_linear_1031_4649" x1="465.821" y1="415.25" x2="643.634" y2="415.25" gradientUnits="userSpaceOnUse">
<stop stop-color="#99A1BE"/>
<stop offset="1" stop-color="#B3BACF"/>
</linearGradient>
<linearGradient id="paint26_linear_1031_4649" x1="465.821" y1="344.936" x2="643.62" y2="344.936" gradientUnits="userSpaceOnUse">
<stop offset="0.01" stop-color="#3F4B75"/>
<stop offset="1" stop-color="#636F99"/>
</linearGradient>
<linearGradient id="paint27_linear_1031_4649" x1="566.76" y1="529.063" x2="602.505" y2="529.063" gradientUnits="userSpaceOnUse">
<stop stop-color="#1D53DA"/>
<stop offset="1" stop-color="#3F75FC"/>
</linearGradient>
<linearGradient id="paint28_linear_1031_4649" x1="566.762" y1="513.396" x2="602.518" y2="513.396" gradientUnits="userSpaceOnUse">
<stop stop-color="#0397F6"/>
<stop offset="1" stop-color="#00BAFF"/>
</linearGradient>
<linearGradient id="paint29_linear_1031_4649" x1="566.754" y1="529.063" x2="602.499" y2="529.063" gradientUnits="userSpaceOnUse">
<stop stop-color="#1D53DA"/>
<stop offset="1" stop-color="#3F75FC"/>
</linearGradient>
<linearGradient id="paint30_linear_1031_4649" x1="566.757" y1="513.396" x2="602.513" y2="513.396" gradientUnits="userSpaceOnUse">
<stop stop-color="#0397F6"/>
<stop offset="1" stop-color="#00BAFF"/>
</linearGradient>
<linearGradient id="paint31_linear_1031_4649" x1="566.759" y1="529.063" x2="602.505" y2="529.063" gradientUnits="userSpaceOnUse">
<stop stop-color="#1D53DA"/>
<stop offset="1" stop-color="#3F75FC"/>
</linearGradient>
<linearGradient id="paint32_linear_1031_4649" x1="566.762" y1="513.396" x2="602.518" y2="513.396" gradientUnits="userSpaceOnUse">
<stop stop-color="#0397F6"/>
<stop offset="1" stop-color="#00BAFF"/>
</linearGradient>
<linearGradient id="paint33_linear_1031_4649" x1="465.82" y1="451.444" x2="643.607" y2="451.444" gradientUnits="userSpaceOnUse">
<stop offset="0.0418994" stop-color="#BBC1D4"/>
<stop offset="1" stop-color="#F6F9FF"/>
</linearGradient>
</defs>
</svg>
