<svg width="51" height="58" viewBox="0 0 51 58" fill="none" xmlns="http://www.w3.org/2000/svg">
<path d="M33.4976 46.7303C33.4976 46.7303 28.8976 51.5723 20.0396 46.6723C16.5706 44.7523 13.7396 43.1503 11.5706 41.9113C11.0447 41.6104 10.6068 41.1771 10.3004 40.6544C9.99407 40.1317 9.82993 39.5379 9.82437 38.9321C9.8188 38.3262 9.97201 37.7295 10.2687 37.2013C10.5655 36.6731 10.9953 36.2317 11.5156 35.9213L27.4976 26.3633L30.8126 37.6143L33.4976 46.7303Z" fill="#2B1F51"/>
<path d="M27.5376 49.3828C29.8654 49.4683 32.1341 48.6395 33.8587 47.0738C33.9189 47.0103 33.9615 46.9321 33.982 46.8469C34.0025 46.7618 34.0003 46.6728 33.9757 46.5888L27.9757 26.2208C27.9538 26.1474 27.9154 26.0801 27.8634 26.0239C27.8113 25.9677 27.7471 25.9242 27.6756 25.8968C27.6046 25.8696 27.5284 25.8588 27.4526 25.865C27.3768 25.8712 27.3033 25.8944 27.2377 25.9328L11.2547 35.4918C10.6595 35.8471 10.1678 36.3521 9.82851 36.9565C9.48918 37.5609 9.31401 38.2436 9.32049 38.9367C9.32696 39.6298 9.51484 40.3091 9.86541 40.907C10.216 41.505 10.717 42.0007 11.3187 42.3448C13.9327 43.8448 16.7847 45.4448 19.7937 47.1098C22.1387 48.5161 24.8046 49.2986 27.5376 49.3828ZM32.9296 46.5748C31.9706 47.4018 27.7467 50.3648 20.2817 46.2348C17.2757 44.5718 14.4276 42.9708 11.8176 41.4768C11.3667 41.2196 10.9911 40.8487 10.7283 40.4011C10.4655 39.9534 10.3246 39.4447 10.3198 38.9256C10.3149 38.4065 10.4462 37.8952 10.7006 37.4428C10.955 36.9903 11.3236 36.6124 11.7696 36.3468L27.1987 27.1198L32.9296 46.5748Z" fill="#2B1F51"/>
<path d="M26.1276 15.828C23.8296 17.3212 21.9178 19.3372 20.5485 21.711C19.1793 24.0849 18.3915 26.7492 18.2496 29.486C18.2109 30.7164 18.4932 31.9358 19.0686 33.024C22.3136 40.287 33.5506 45.873 34.1416 46.167C34.6906 45.237 45.1136 27.575 48.7346 16.627C49.4623 14.9158 49.8535 13.0803 49.8866 11.221C49.8726 6.19601 46.3186 4.17101 41.9456 6.69601C38.7616 8.53401 36.0366 13.308 34.7836 15.758C34.6233 16.0932 34.3716 16.3764 34.0576 16.575C33.9535 16.6537 33.8275 16.6982 33.6971 16.7021C33.5667 16.706 33.4382 16.6693 33.3296 16.597C32.3598 15.7329 31.1437 15.194 29.8521 15.0561C28.5604 14.9182 27.258 15.1881 26.1276 15.828Z" fill="#333C5E"/>
<path d="M34.1397 46.6669C34.2268 46.6672 34.3125 46.6448 34.3883 46.6018C34.464 46.5588 34.5273 46.4968 34.5717 46.4219C35.6967 44.5159 45.6717 27.4899 49.2087 16.7849C49.9535 15.0226 50.3531 13.1338 50.3857 11.2209C50.3777 8.61287 49.4637 6.65286 47.8127 5.70286C46.1617 4.75286 43.9787 4.94587 41.6957 6.26387C38.4627 8.12987 35.6957 12.8709 34.3367 15.5309C34.2199 15.7799 34.0365 15.9917 33.8067 16.1429C33.7548 16.1797 33.6933 16.2006 33.6297 16.2029C32.5855 15.2718 31.2749 14.6929 29.8834 14.548C28.492 14.4032 27.0902 14.6998 25.8767 15.3959C21.3767 17.9959 17.7347 24.3139 17.7497 29.4889C17.7089 30.8061 18.0137 32.111 18.6337 33.2739C21.8337 40.4409 32.6897 46.0039 33.9167 46.6149C33.9861 46.6489 34.0624 46.6667 34.1397 46.6669ZM45.4957 6.10786C46.1319 6.09807 46.7593 6.25752 47.3137 6.56987C48.6437 7.33387 49.3787 8.98686 49.3857 11.2239C49.3514 13.0176 48.9729 14.788 48.2707 16.4389C44.9307 26.5339 35.8257 42.3049 33.9487 45.5089C31.6407 44.3139 22.3757 39.2029 19.5237 32.8209C18.9786 31.796 18.7118 30.6461 18.7497 29.4859C18.8899 26.8369 19.6538 24.2585 20.9792 21.9607C22.3046 19.6629 24.1539 17.7106 26.3767 16.2629C27.4206 15.6744 28.6228 15.428 29.8141 15.5584C31.0054 15.6888 32.1258 16.1894 33.0177 16.9899C33.2039 17.1265 33.4282 17.2018 33.6592 17.2052C33.8902 17.2086 34.1165 17.14 34.3067 17.0089C34.7055 16.7622 35.0254 16.4065 35.2287 15.9839C36.5387 13.4249 39.1857 8.86787 42.1957 7.12987C43.1882 6.50825 44.3256 6.15601 45.4957 6.10786Z" fill="#2B1F51"/>
<path d="M9.23083 24.3871C9.18779 25.6187 9.47066 26.8399 10.0508 27.9271C12.4008 33.2071 15.2708 35.2971 18.9108 37.4171L30.9308 44.3971C27.2008 42.1471 21.2708 37.9771 19.0708 33.0271C18.4907 31.9399 18.2078 30.7187 18.2508 29.4871C18.2485 28.9075 18.2954 28.3288 18.3908 27.7571C18.4008 27.6571 18.4108 27.5671 18.4208 27.4671C18.5208 26.8865 18.6544 26.3122 18.8208 25.7471L18.9408 25.3571C19.1127 24.8071 19.313 24.2664 19.5408 23.7371C19.5565 23.6855 19.5766 23.6353 19.6008 23.5871C19.8508 23.0171 20.1408 22.4571 20.4408 21.9071C20.5208 21.7771 20.6008 21.6371 20.6808 21.4971C20.9708 21.0171 21.2808 20.5371 21.6108 20.0771C21.6508 20.0148 21.6942 19.9547 21.7408 19.8971C22.1134 19.3917 22.514 18.9076 22.9408 18.4471C23.0208 18.3671 23.0908 18.2871 23.1708 18.2071C23.5761 17.7782 24.0069 17.3741 24.4608 16.9971C24.5308 16.9471 24.5908 16.8971 24.6608 16.8471C25.1207 16.4703 25.6088 16.1293 26.1208 15.8271C26.3708 15.6871 26.6208 15.5771 26.8608 15.4671C27.0008 15.4171 27.1308 15.3671 27.2608 15.3171C27.4208 15.2671 27.5808 15.2171 27.7408 15.1771C27.8654 15.1388 27.9923 15.1087 28.1208 15.0871C28.2761 15.0573 28.4331 15.0372 28.5909 15.0271L28.9508 14.9971C29.1008 14.9971 29.2508 14.9971 29.3908 15.0071C29.5108 15.0171 29.6208 15.0171 29.7308 15.0271C29.8808 15.0471 30.0208 15.0671 30.1608 15.0971L30.4608 15.1571C30.6108 15.1971 30.7508 15.2371 30.8808 15.2771C30.9708 15.3071 31.0608 15.3271 31.1408 15.3571C31.1898 15.3797 31.2398 15.3997 31.2908 15.4171L33.3308 16.5971V16.6071L33.3908 16.6371C33.4787 16.6874 33.5803 16.7084 33.6808 16.6971C33.7186 16.6918 33.7556 16.6817 33.7908 16.6671C33.8531 16.6598 33.9138 16.643 33.9708 16.6171C33.9984 16.6058 34.0252 16.5924 34.0508 16.5771C34.2023 16.4869 34.3375 16.372 34.4508 16.2371C34.4608 16.2371 34.4608 16.2371 34.4608 16.2271C34.5889 16.0861 34.6966 15.9279 34.7808 15.7571C34.9708 15.3971 35.2008 14.9571 35.4508 14.5071C35.5208 14.3871 35.6008 14.2471 35.6708 14.1071C35.8808 13.7471 36.1108 13.3571 36.3508 12.9671C36.4408 12.8171 36.5208 12.6771 36.6108 12.5271C36.9508 12.0071 37.3008 11.4671 37.6808 10.9371C37.7308 10.8671 37.7909 10.7971 37.8409 10.7271C38.1709 10.2771 38.5208 9.8371 38.8808 9.4171C39.1008 9.1571 39.3308 8.8971 39.5608 8.6571C39.5988 8.60577 39.6425 8.55882 39.6908 8.5171C39.9942 8.19631 40.3183 7.89567 40.6608 7.6171C40.7408 7.5471 40.8208 7.4871 40.8908 7.4271C41.224 7.16044 41.5748 6.91655 41.9408 6.6971C42.2008 6.5471 42.4608 6.4171 42.7108 6.2971C43.1101 6.11047 43.525 5.95955 43.9508 5.8461C44.0208 5.8261 44.0808 5.8061 44.1508 5.7861C44.5178 5.69509 44.8931 5.64149 45.2708 5.6261C45.3338 5.61778 45.3973 5.61444 45.4608 5.6161C45.8074 5.61095 46.1532 5.64789 46.4908 5.7261C46.5358 5.73345 46.5795 5.7469 46.6208 5.7661C46.9533 5.84908 47.2729 5.97692 47.5708 6.1461L38.5608 1.0461C38.2586 0.878493 37.9359 0.750762 37.6008 0.666099C37.5595 0.646907 37.5158 0.633448 37.4708 0.626098C37.1332 0.547886 36.7873 0.510948 36.4408 0.516098C36.3773 0.514443 36.3138 0.517789 36.2508 0.5261C35.873 0.541487 35.4978 0.595094 35.1308 0.6861C35.0608 0.7061 35.0008 0.726101 34.9308 0.746101C34.505 0.859226 34.0901 1.00981 33.6908 1.1961C33.6869 1.19988 33.6822 1.20274 33.677 1.20447C33.6718 1.2062 33.6663 1.20675 33.6608 1.2061C33.4208 1.3261 33.1708 1.4561 32.9208 1.5961C32.5548 1.81555 32.204 2.05944 31.8708 2.3261C31.8008 2.3861 31.7208 2.4461 31.6408 2.5161C31.2983 2.79466 30.9742 3.0953 30.6708 3.4161C30.6225 3.45781 30.5789 3.50476 30.5408 3.5561C30.3708 3.7261 30.2108 3.8961 30.0508 4.0861C29.9808 4.1561 29.9308 4.2361 29.8608 4.3161C29.5008 4.7361 29.1508 5.1761 28.8208 5.6261C28.7708 5.6961 28.7108 5.7661 28.6608 5.8361C28.2808 6.3661 27.9309 6.9061 27.5909 7.4261C27.5009 7.5761 27.4208 7.7161 27.3308 7.8661C27.0908 8.2661 26.8608 8.6461 26.6508 9.0161C26.5708 9.1461 26.5008 9.2761 26.4308 9.4161C26.1808 9.8661 25.9508 10.2961 25.7608 10.6561C25.6732 10.8304 25.5622 10.9919 25.4308 11.1361C25.3175 11.271 25.1822 11.3859 25.0308 11.4761C24.9493 11.5192 24.8616 11.5496 24.7708 11.5661C24.736 11.582 24.6989 11.5921 24.6608 11.5961H24.6408L23.3108 10.8161C23.1308 10.7161 22.9508 10.6161 22.7508 10.5261C22.6908 10.4961 22.6208 10.4661 22.5508 10.4361C22.4108 10.3761 22.2708 10.3161 22.1308 10.2661C22.0424 10.2316 21.9523 10.2016 21.8608 10.1761C21.7275 10.1361 21.5875 10.0961 21.4408 10.0561L21.1408 9.9961C21.0008 9.9761 20.8608 9.9461 20.7108 9.9261C20.6008 9.9161 20.4908 9.9161 20.3708 9.9061C20.2308 9.8961 20.0808 9.8961 19.9308 9.8961L19.5708 9.9261C19.4131 9.93624 19.2561 9.95628 19.1008 9.9861C18.9723 10.0077 18.8454 10.0378 18.7208 10.0761C18.5608 10.1161 18.4008 10.1661 18.2408 10.2161C18.1108 10.2661 17.9809 10.3161 17.8408 10.3661C17.7701 10.4021 17.6965 10.4322 17.6208 10.4561C17.4508 10.5361 17.2808 10.6261 17.1008 10.7261C16.5888 11.0283 16.1007 11.3693 15.6408 11.7461C15.5708 11.7961 15.5108 11.8461 15.4408 11.8961C14.9869 12.2731 14.5561 12.6772 14.1508 13.1061C14.0708 13.1861 14.0008 13.2661 13.9208 13.3461C13.8308 13.4461 13.7408 13.5361 13.6508 13.6361C13.3308 14.0061 13.0208 14.3961 12.7208 14.7961C12.6742 14.8537 12.6309 14.9138 12.5909 14.9761C12.2609 15.4361 11.9508 15.9161 11.6608 16.3961C11.5808 16.5361 11.5008 16.6761 11.4208 16.8061C11.1208 17.3461 10.8408 17.8861 10.6008 18.4361C10.5915 18.4516 10.5848 18.4685 10.5808 18.4861C10.5566 18.5343 10.5365 18.5845 10.5208 18.6361C10.293 19.1654 10.0927 19.7061 9.92084 20.2561L9.80084 20.6461C9.63441 21.2112 9.50086 21.7855 9.40085 22.3661C9.39085 22.4661 9.38085 22.5561 9.37085 22.6561C9.33085 22.9261 9.28083 23.1861 9.26083 23.4461C9.24083 23.7671 9.23083 24.0771 9.23083 24.3871Z" fill="white"/>
<path d="M30.931 44.8979C31.0401 44.8978 31.1463 44.862 31.2332 44.7959C31.3201 44.7298 31.3829 44.6371 31.4122 44.5319C31.4414 44.4267 31.4354 44.3148 31.3951 44.2133C31.3548 44.1119 31.2824 44.0264 31.1889 43.9699C27.7669 41.9049 21.7009 37.7119 19.5279 32.8239C18.9776 31.8006 18.7094 30.6492 18.7509 29.4879C18.7492 28.9338 18.794 28.3805 18.8849 27.8339L18.9159 27.5519C19.0109 26.9908 19.1391 26.4358 19.2999 25.8899L19.418 25.5049C19.5851 24.9728 19.779 24.4495 19.9989 23.9369C19.9989 23.9299 20.0389 23.8299 20.0409 23.8229C20.2689 23.3079 20.5229 22.802 20.8799 22.1469C20.9499 22.0359 21.033 21.8899 21.116 21.7469C21.422 21.2389 21.7159 20.7849 22.0159 20.3709C22.0487 20.3189 22.0844 20.2688 22.1229 20.2209C22.4909 19.7209 22.8869 19.2422 23.3089 18.7869L23.5239 18.563C23.9175 18.1454 24.3363 17.7523 24.7779 17.3859L24.9539 17.2539C25.4002 16.8876 25.874 16.5559 26.371 16.2619C26.571 16.1509 26.7709 16.0569 26.9709 15.9619L27.065 15.9189C27.156 15.8889 27.2779 15.8419 27.3989 15.7959C27.5579 15.7439 27.7079 15.6959 27.8589 15.6589C27.9708 15.6249 28.0847 15.5978 28.1999 15.5779C28.3379 15.5507 28.4776 15.5327 28.6179 15.5239L28.9889 15.4919C29.0889 15.4919 29.2219 15.4919 29.3509 15.5029L29.681 15.5229C29.798 15.5379 29.925 15.5559 30.052 15.5829L30.3599 15.6449C30.4709 15.6759 30.6059 15.7139 30.7299 15.7529L30.9599 15.8229C31.0019 15.8409 31.042 15.8599 31.086 15.8759L33.004 16.9859C33.0348 17.0115 33.0684 17.0336 33.104 17.0519C33.291 17.1638 33.509 17.2129 33.7259 17.1919C33.7918 17.1825 33.8567 17.1675 33.9199 17.1469C34.0143 17.1335 34.1058 17.1048 34.1909 17.0619L34.2959 17.0079C34.4912 16.8934 34.6659 16.7471 34.8129 16.5749L34.8249 16.5639C34.9851 16.3884 35.1198 16.1911 35.2249 15.9779L35.3249 15.7859C35.4909 15.4719 35.68 15.1129 35.8829 14.7479C35.952 14.6289 36.0369 14.4789 36.1129 14.3299C36.3059 13.9989 36.534 13.6139 36.772 13.2299L37.0869 12.7049C37.4039 12.2199 37.73 11.7199 38.082 11.2279L38.2439 11.0159C38.5619 10.5839 38.9039 10.1539 39.2559 9.74295C39.4709 9.48795 39.6949 9.23594 39.9169 9.00294L40 8.90295C40.306 8.58375 40.6309 8.28321 40.9729 8.00295L41.211 7.80295C41.5202 7.55669 41.8453 7.33088 42.1839 7.12695C42.4339 6.98195 42.6839 6.85795 42.9229 6.74295C43.2948 6.5694 43.6813 6.42918 44.078 6.32395L44.198 6.28895C44.5515 6.19443 44.9143 6.13877 45.28 6.12295C45.3382 6.1145 45.3971 6.11082 45.4559 6.11195C45.7619 6.10823 46.0671 6.14181 46.3649 6.21195C46.4047 6.22837 46.4459 6.24109 46.4879 6.24995C46.75 6.31514 47.0031 6.41185 47.2419 6.53795L47.3199 6.58195C47.4347 6.64721 47.5707 6.66442 47.6981 6.62982C47.8255 6.59523 47.9341 6.51164 48.0001 6.39729C48.0661 6.28295 48.0842 6.14714 48.0505 6.01949C48.0167 5.89184 47.9338 5.78272 47.8199 5.71595L47.7269 5.66295L38.8029 0.611946C38.4761 0.429064 38.1273 0.288598 37.7649 0.193947C37.7004 0.168053 37.6334 0.148626 37.565 0.135949C37.1104 0.00505121 36.6335 -0.0290184 36.1649 0.0359462C35.7769 0.0512037 35.3915 0.106837 35.0149 0.201947L34.8829 0.240948C34.4099 0.364789 33.9485 0.529406 33.504 0.732949C33.4802 0.740725 33.4571 0.750423 33.435 0.761948C33.19 0.884948 32.9349 1.01795 32.6759 1.16195C32.2886 1.39281 31.9174 1.64973 31.565 1.93095L31.3119 2.13995C30.9566 2.4297 30.6205 2.74236 30.306 3.07595C30.2499 3.12231 30.2002 3.17576 30.1579 3.23495C30.0059 3.38295 29.838 3.56395 29.668 3.76495C29.6234 3.81113 29.5819 3.86024 29.5439 3.91195L29.4799 3.99195C29.1129 4.42195 28.7539 4.87195 28.4159 5.33195L28.254 5.54495C27.9 6.03895 27.573 6.53895 27.254 7.02595L26.8129 7.75695C26.6019 8.10695 26.3999 8.44295 26.2129 8.76995C26.1339 8.89795 26.0579 9.03995 25.9809 9.19395C25.7389 9.62795 25.5069 10.0619 25.3159 10.4249C25.2483 10.5603 25.1625 10.6858 25.0609 10.7979C24.9819 10.894 24.8877 10.9764 24.7819 11.0419C24.762 11.0523 24.7409 11.0601 24.7189 11.0649L23.5609 10.3869C23.3609 10.2739 23.1609 10.1679 22.9539 10.0719C22.9129 10.0509 22.8479 10.0219 22.7819 9.99295C22.5709 9.90395 22.434 9.84595 22.297 9.79295C22.229 9.76426 22.1591 9.7402 22.0879 9.72095C21.8699 9.65395 21.7239 9.61195 21.5669 9.56995L21.0309 9.46995C20.9479 9.45495 20.8629 9.44095 20.7749 9.42895L20.4109 9.40695C20.2509 9.39495 20.0899 9.39495 19.9279 9.39495L19.5279 9.42595C19.3524 9.43756 19.1777 9.45994 19.0049 9.49295C18.8583 9.51736 18.7134 9.55075 18.5709 9.59295C18.4349 9.62695 18.2709 9.67695 18.1109 9.72695L17.6699 9.89095V10.4309L17.504 9.95995C17.489 9.96495 17.4159 9.99195 17.4039 9.99895C17.2239 10.0839 17.0439 10.1789 16.8549 10.2839C16.3174 10.6001 15.8052 10.9575 15.323 11.3529L15.1459 11.4849C14.6661 11.88 14.2116 12.3049 13.785 12.7569L13.2749 13.2979C12.9416 13.6839 12.6223 14.0819 12.3169 14.4919C12.2665 14.5544 12.2195 14.6195 12.1759 14.6869C11.8649 15.1199 11.553 15.5949 11.229 16.1329C11.146 16.2799 11.0689 16.4139 10.9919 16.5389C10.6299 17.1869 10.3629 17.719 10.1389 18.2309C10.1339 18.2419 10.1289 18.2549 10.1239 18.2679C10.0992 18.3172 10.0784 18.3683 10.0619 18.4209C9.8259 18.9701 9.61861 19.5312 9.44093 20.1019L9.31993 20.4949C9.14748 21.0798 9.00894 21.6741 8.90495 22.2749L8.83495 22.813C8.80395 23.013 8.77395 23.2079 8.75795 23.4039C8.73695 23.7399 8.72694 24.061 8.72694 24.382C8.68215 25.7021 8.98896 27.0104 9.61595 28.1729C12.056 33.6659 15.155 35.8049 18.655 37.8439L30.6759 44.8239C30.7527 44.8711 30.8408 44.8967 30.931 44.8979ZM28.9509 14.4979L28.5509 14.5309C28.3761 14.5418 28.202 14.5638 28.03 14.5969C27.8831 14.6215 27.7378 14.6548 27.595 14.6969C27.453 14.7329 27.2829 14.7849 27.1139 14.8389L26.5629 15.0529C26.3389 15.1529 26.1089 15.2599 25.8779 15.3889C25.3419 15.7057 24.8305 16.0624 24.3479 16.4559L24.1709 16.5889C23.692 16.984 23.2381 17.4085 22.8119 17.8599L22.5889 18.0919C22.1434 18.5709 21.7257 19.0751 21.3379 19.6019C21.2872 19.6659 21.2401 19.7326 21.1969 19.8019C20.8969 20.2239 20.5829 20.7019 20.2549 21.2409C20.1709 21.3869 20.094 21.5219 20.017 21.6469C19.632 22.347 19.3679 22.8819 19.1449 23.3889C19.1195 23.4355 19.0993 23.4848 19.0849 23.5359C18.8502 24.083 18.6436 24.6418 18.466 25.2099L18.345 25.6019C18.1723 26.1874 18.0341 26.7824 17.931 27.3839L17.8949 27.7109C17.797 28.3018 17.7495 28.9 17.7529 29.4989C17.7098 30.8158 18.0158 32.1206 18.6399 33.2809C19.7703 35.601 21.3491 37.6742 23.285 39.3809L19.164 36.9879C15.698 34.9689 12.8639 33.0049 10.5099 27.7269C9.95943 26.7036 9.69127 25.5522 9.73296 24.3909C9.73296 24.0909 9.74295 23.7909 9.76195 23.4829C9.77495 23.3189 9.80194 23.1509 9.82994 22.9829L9.90095 22.4229C9.99784 21.8746 10.1254 21.3321 10.2829 20.7979L10.401 20.4119C10.5677 19.8794 10.7616 19.3557 10.9819 18.8429L11.0229 18.7309C11.0432 18.6975 11.059 18.6615 11.0699 18.6239C11.2889 18.1299 11.5369 17.6389 11.8599 17.0579C11.9319 16.9419 12.0149 16.7959 12.0969 16.6509C12.3969 16.1559 12.7039 15.6889 12.9969 15.2759C13.0303 15.2235 13.0663 15.1727 13.1049 15.1239C13.4139 14.7139 13.7159 14.3329 14.0289 13.9709L14.5019 13.4709C14.8958 13.053 15.315 12.6596 15.7569 12.2929L15.931 12.1629C16.3782 11.7959 16.8529 11.4636 17.3509 11.1689C17.5119 11.0799 17.672 10.9939 17.832 10.9189C17.9205 10.8919 18.0059 10.8557 18.0869 10.8109L18.3779 10.7109C18.5539 10.6539 18.698 10.6109 18.841 10.5729C18.9527 10.5384 19.0666 10.5113 19.1819 10.4919C19.3198 10.4643 19.4595 10.4462 19.5999 10.4379L19.97 10.4069C20.07 10.4069 20.2059 10.4069 20.3339 10.4179L21.341 10.5589C21.455 10.5899 21.5879 10.6279 21.7119 10.6669C21.7848 10.6855 21.8566 10.7082 21.927 10.7349C22.081 10.7919 22.1999 10.8429 22.3199 10.8939L22.5269 10.9859C22.7269 11.0779 22.8989 11.1719 23.0669 11.2659L24.3869 12.0399C24.4706 12.078 24.5611 12.0989 24.6529 12.1014C24.7448 12.104 24.8363 12.0882 24.922 12.0549C25.0454 12.0303 25.1641 11.9864 25.2739 11.9249C25.4768 11.806 25.6581 11.6535 25.81 11.4739C25.9694 11.2993 26.104 11.1034 26.2099 10.8919C26.3929 10.5439 26.6229 10.1179 26.8699 9.67195C26.9439 9.52595 27.0059 9.40795 27.0789 9.28995C27.2699 8.95495 27.4669 8.62595 27.6729 8.28295L28.0959 7.58295C28.4059 7.10895 28.724 6.61895 29.069 6.13895L29.2299 5.92795C29.5479 5.49295 29.8909 5.06295 30.2429 4.65295C30.2749 4.61595 30.3079 4.57395 30.3429 4.53295C30.3631 4.50452 30.3855 4.47776 30.41 4.45295C30.589 4.24195 30.7399 4.08195 30.8999 3.92195L30.9889 3.82195C31.2947 3.50212 31.62 3.20155 31.9629 2.92195L32.2039 2.72195C32.5123 2.47627 32.8367 2.25144 33.1749 2.04895C33.4049 1.91995 33.638 1.79895 33.862 1.68595L33.9119 1.66395C34.2848 1.49003 34.6723 1.34948 35.0699 1.24395L35.1839 1.20995C35.5392 1.11505 35.9036 1.05905 36.271 1.04295C36.3292 1.03463 36.3881 1.03095 36.4469 1.03195C36.7529 1.02822 37.0581 1.0618 37.3559 1.13195C37.3959 1.14776 37.437 1.16046 37.479 1.16995C37.7727 1.24392 38.0557 1.35551 38.3209 1.50195L44.8209 5.17995C44.5598 5.21168 44.3007 5.25842 44.0449 5.31995L43.9189 5.35695C43.4338 5.48419 42.961 5.65419 42.5059 5.86495C42.2429 5.99195 41.9709 6.12695 41.6999 6.28295C41.3145 6.51386 40.945 6.77044 40.5939 7.05095L40.341 7.25995C39.9877 7.54925 39.6537 7.86124 39.341 8.19395C39.2837 8.2432 39.2324 8.2989 39.1879 8.35995C38.9769 8.57795 38.74 8.84595 38.513 9.11395C38.147 9.54095 37.7899 9.98995 37.452 10.4499L37.2879 10.6659C36.9279 11.1659 36.5879 11.6809 36.2689 12.1769L35.9359 12.7299C35.6969 13.1179 35.466 13.5109 35.254 13.8749C35.174 14.0319 35.0979 14.1619 35.0329 14.2749C34.8209 14.6569 34.6329 15.0229 34.4589 15.3429L34.3519 15.5429C34.2899 15.6708 34.2112 15.7898 34.1179 15.8969C34.1059 15.9082 34.0945 15.9202 34.0839 15.9329C34.0078 16.0238 33.9173 16.1015 33.8159 16.1629L33.716 16.1939C33.698 16.1972 33.6803 16.2015 33.6629 16.2069L33.603 16.1909L33.591 16.1839L31.5499 15.0039C31.5033 14.9763 31.4522 14.957 31.3989 14.9469C31.373 14.9251 31.3421 14.91 31.3089 14.9029C31.2679 14.8869 31.209 14.8679 31.142 14.8499L31.0419 14.8189C30.9059 14.7769 30.76 14.7349 30.604 14.6939L30.271 14.6259C30.1259 14.5949 29.971 14.5729 29.81 14.5509L29.444 14.5279C29.277 14.4979 29.1139 14.4979 28.9509 14.4979ZM24.7259 11.4539L24.7469 11.5779L24.7089 11.4779L24.7259 11.4539ZM24.6609 11.0989L24.651 11.3379L24.5609 11.1129C24.5933 11.103 24.627 11.0989 24.6609 11.0989Z" fill="#2B1F51"/>
<path d="M9.23474 24.3884C9.1917 25.62 9.47457 26.8412 10.0547 27.9284C12.4047 33.2084 15.2747 35.2984 18.9147 37.4184L30.9348 44.3984C27.2048 42.1484 21.2747 37.9784 19.0747 33.0284C18.4946 31.9412 18.2117 30.72 18.2547 29.4884C18.2524 28.9089 18.2993 28.3301 18.3947 27.7584C18.4047 27.6584 18.4147 27.5684 18.4247 27.4684C18.5248 26.8879 18.6583 26.3136 18.8247 25.7484L18.9447 25.3584C19.1166 24.8084 19.3169 24.2677 19.5447 23.7384C19.5604 23.6868 19.5805 23.6366 19.6047 23.5884C19.8547 23.0184 20.1447 22.4584 20.4447 21.9084C20.5247 21.7784 20.6048 21.6384 20.6848 21.4984C20.9748 21.0184 21.2847 20.5384 21.6147 20.0784C21.6547 20.0161 21.6981 19.956 21.7448 19.8984C22.1173 19.393 22.5179 18.9089 22.9447 18.4484C23.0247 18.3684 23.0947 18.2884 23.1747 18.2084C23.58 17.7795 24.0108 17.3755 24.4648 16.9984C24.5348 16.9484 24.5947 16.8984 24.6647 16.8484C25.1246 16.4717 25.6128 16.1307 26.1248 15.8284C26.3748 15.6884 26.6247 15.5784 26.8647 15.4684C27.0047 15.4184 27.1347 15.3684 27.2647 15.3184C27.4247 15.2684 27.5848 15.2184 27.7448 15.1784C27.8693 15.1401 27.9962 15.1101 28.1248 15.0884C28.28 15.0586 28.437 15.0386 28.5948 15.0284L28.9547 14.9984C29.1047 14.9984 29.2547 14.9984 29.3947 15.0084C29.5147 15.0184 29.6247 15.0184 29.7347 15.0284C29.8847 15.0484 30.0247 15.0684 30.1647 15.0984L30.4648 15.1584C30.6148 15.1984 30.7547 15.2384 30.8847 15.2784C30.9747 15.3084 31.0647 15.3284 31.1447 15.3584C31.1937 15.381 31.2437 15.401 31.2947 15.4184L24.6447 11.5984L23.3148 10.8184C23.1348 10.7184 22.9547 10.6184 22.7547 10.5284C22.6947 10.4984 22.6247 10.4684 22.5547 10.4384C22.4147 10.3784 22.2747 10.3184 22.1347 10.2684C22.0463 10.234 21.9562 10.2039 21.8647 10.1784C21.7314 10.1384 21.5914 10.0984 21.4447 10.0584L21.1447 9.99844C21.0047 9.97844 20.8648 9.94844 20.7148 9.92844C20.6048 9.91844 20.4948 9.91844 20.3748 9.90844C20.2348 9.89844 20.0848 9.89844 19.9348 9.89844L19.5747 9.92844C19.417 9.93858 19.26 9.95862 19.1047 9.98844C18.9762 10.0101 18.8493 10.0401 18.7247 10.0784C18.5647 10.1184 18.4047 10.1684 18.2448 10.2184C18.1147 10.2684 17.9848 10.3184 17.8448 10.3684C17.774 10.4044 17.7004 10.4345 17.6248 10.4584C17.4548 10.5384 17.2847 10.6284 17.1047 10.7284C16.5927 11.0307 16.1046 11.3717 15.6447 11.7484C15.5747 11.7984 15.5147 11.8484 15.4447 11.8984C14.9908 12.2755 14.56 12.6795 14.1548 13.1084C14.0748 13.1884 14.0047 13.2684 13.9247 13.3484C13.8347 13.4484 13.7448 13.5384 13.6548 13.6384C13.3348 14.0084 13.0247 14.3984 12.7247 14.7984C12.6781 14.856 12.6348 14.9161 12.5948 14.9784C12.2648 15.4384 11.9547 15.9184 11.6647 16.3984C11.5847 16.5384 11.5047 16.6784 11.4247 16.8084C11.1247 17.3484 10.8447 17.8884 10.6047 18.4384C10.5954 18.4539 10.5887 18.4708 10.5847 18.4884C10.5605 18.5366 10.5404 18.5868 10.5247 18.6384C10.2969 19.1677 10.0966 19.7084 9.92474 20.2584L9.80475 20.6484C9.63832 21.2136 9.50477 21.7879 9.40475 22.3684C9.39475 22.4684 9.38476 22.5584 9.37476 22.6584C9.33476 22.9284 9.28474 23.1884 9.26474 23.4484C9.24474 23.7684 9.23474 24.0784 9.23474 24.3884Z" fill="#D4E6FC"/>
<path d="M30.9328 44.8977C31.042 44.8976 31.1482 44.8617 31.2351 44.7956C31.322 44.7295 31.3848 44.6368 31.4141 44.5316C31.4433 44.4264 31.4373 44.3145 31.397 44.2131C31.3567 44.1116 31.2843 44.0261 31.1908 43.9697C27.7688 41.9047 21.7028 37.7117 19.5298 32.8237C18.9795 31.8003 18.7113 30.6489 18.7528 29.4877C18.751 28.9336 18.7959 28.3803 18.8868 27.8337L18.9178 27.5517C19.0128 26.9906 19.141 26.4356 19.3018 25.8897L19.4198 25.5047C19.5869 24.9724 19.7812 24.449 20.0018 23.9367C20.0018 23.9297 20.0408 23.8297 20.0428 23.8227C20.2708 23.3077 20.5249 22.8017 20.8819 22.1467C20.9519 22.0357 21.0348 21.8897 21.1178 21.7467C21.4238 21.2387 21.7178 20.7847 22.0178 20.3707C22.0506 20.3186 22.0863 20.2686 22.1248 20.2207C22.4928 19.7207 22.8887 19.2419 23.3108 18.7867L23.5258 18.5627C23.9194 18.1451 24.3382 17.7521 24.7798 17.3857L24.9558 17.2537C25.4021 16.8873 25.8759 16.5557 26.3728 16.2617C26.5728 16.1507 26.7728 16.0567 26.9728 15.9617L27.0668 15.9187C27.1578 15.8887 27.2798 15.8417 27.4008 15.7957C27.5598 15.7437 27.7098 15.6957 27.8608 15.6587C27.9727 15.6246 28.0866 15.5975 28.2018 15.5777C28.3398 15.5504 28.4795 15.5324 28.6198 15.5237L28.9908 15.4917C29.0908 15.4917 29.2238 15.4917 29.3528 15.5027L29.6828 15.5227C29.7998 15.5377 29.9268 15.5557 30.0538 15.5827L30.3618 15.6447C30.4728 15.6757 30.6078 15.7137 30.7318 15.7527L30.9618 15.8227C31.0347 15.8588 31.1116 15.8864 31.1908 15.9047C31.3073 15.9284 31.4284 15.9099 31.5325 15.8524C31.6365 15.7949 31.7167 15.7022 31.7586 15.591C31.8005 15.4797 31.8014 15.3572 31.7611 15.2453C31.7208 15.1335 31.642 15.0397 31.5388 14.9807L23.5618 10.3807C23.3618 10.2677 23.1618 10.1617 22.9548 10.0657C22.9138 10.0447 22.8488 10.0157 22.7828 9.98667C22.5718 9.89767 22.4348 9.83967 22.2978 9.78667C22.2299 9.75798 22.16 9.73393 22.0888 9.71467C21.8708 9.64767 21.7248 9.60567 21.5678 9.56367L21.0318 9.46367C20.9488 9.44867 20.8638 9.43467 20.7758 9.42267L20.4118 9.40067C20.2519 9.38867 20.0908 9.38867 19.9288 9.38867L19.5288 9.41967C19.3533 9.43129 19.1786 9.45366 19.0058 9.48667C18.8593 9.51108 18.7143 9.54448 18.5718 9.58667C18.4358 9.62067 18.2718 9.67067 18.1118 9.72067L17.6708 9.88467L17.5078 9.95367C17.4928 9.95867 17.4198 9.98567 17.4078 9.99267C17.2278 10.0777 17.0478 10.1727 16.8588 10.2777C16.3213 10.5939 15.8091 10.9513 15.3268 11.3467L15.1498 11.4787C14.67 11.8738 14.2154 12.2986 13.7888 12.7507L13.2788 13.2917C12.9455 13.6777 12.6262 14.0757 12.3208 14.4857C12.2704 14.5481 12.2233 14.6132 12.1798 14.6807C11.8688 15.1137 11.5568 15.5887 11.2328 16.1267C11.1498 16.2737 11.0728 16.4077 10.9958 16.5327C10.6338 17.1807 10.3668 17.7127 10.1428 18.2247C10.1378 18.2357 10.1328 18.2487 10.1278 18.2617C10.103 18.3109 10.0823 18.3621 10.0658 18.4147C9.8298 18.9638 9.62252 19.5249 9.44484 20.0957L9.32384 20.4887C9.15139 21.0735 9.01282 21.6678 8.90883 22.2687L8.83882 22.8067C8.80782 23.0067 8.77783 23.2017 8.76183 23.3977C8.74083 23.7337 8.73085 24.0547 8.73085 24.3757C8.68606 25.6958 8.99284 27.0041 9.61983 28.1667C12.0598 33.6597 15.1588 35.7987 18.6588 37.8377L30.6798 44.8177C30.7554 44.8666 30.8428 44.8943 30.9328 44.8977ZM28.7198 14.5157L28.5508 14.5297C28.3759 14.5405 28.2019 14.5626 28.0298 14.5957C27.8829 14.6202 27.7377 14.6536 27.5948 14.6957C27.4528 14.7317 27.2828 14.7837 27.1138 14.8377L26.5629 15.0517C26.3389 15.1517 26.1088 15.2587 25.8778 15.3877C25.3418 15.7044 24.8303 16.0611 24.3478 16.4547L24.1708 16.5877C23.6919 16.9827 23.238 17.4072 22.8118 17.8587L22.5888 18.0907C22.1432 18.5696 21.7256 19.0738 21.3378 19.6007C21.2871 19.6646 21.24 19.7314 21.1968 19.8007C20.8968 20.2227 20.5828 20.7007 20.2548 21.2397C20.1708 21.3857 20.0938 21.5207 20.0168 21.6457C19.6318 22.3457 19.3678 22.8807 19.1448 23.3877C19.1193 23.4343 19.0992 23.4836 19.0848 23.5347C18.8501 24.0818 18.6435 24.6405 18.4658 25.2087L18.3448 25.6007C18.1722 26.1861 18.034 26.7811 17.9308 27.3827L17.8948 27.7097C17.7969 28.3006 17.7494 28.8987 17.7528 29.4977C17.7097 30.8145 18.0157 32.1193 18.6398 33.2797C19.7702 35.5997 21.3489 37.673 23.2848 39.3797L19.1638 36.9867C15.6978 34.9677 12.8638 33.0037 10.5098 27.7257C9.95934 26.7023 9.69115 25.5509 9.73283 24.3897C9.73283 24.0897 9.74283 23.7897 9.76183 23.4817C9.77483 23.3177 9.80185 23.1497 9.82985 22.9817L9.90083 22.4217C9.99772 21.8733 10.1252 21.3308 10.2828 20.7967L10.4008 20.4107C10.5675 19.8781 10.7615 19.3544 10.9818 18.8417L11.0228 18.7297C11.0431 18.6962 11.0589 18.6602 11.0698 18.6227C11.2888 18.1287 11.5368 17.6377 11.8598 17.0567C11.9318 16.9407 12.0148 16.7947 12.0968 16.6497C12.3968 16.1547 12.7038 15.6877 12.9968 15.2747C13.0302 15.2222 13.0663 15.1715 13.1048 15.1227C13.4138 14.7127 13.7158 14.3317 14.0288 13.9697L14.5018 13.4697C14.8957 13.0518 15.3149 12.6584 15.7569 12.2917L15.9308 12.1617C16.3781 11.7946 16.8528 11.4623 17.3508 11.1677C17.5118 11.0787 17.6718 10.9927 17.8318 10.9177C17.9203 10.8906 18.0058 10.8544 18.0868 10.8097L18.3778 10.7097C18.5538 10.6527 18.6978 10.6097 18.8408 10.5717C18.9526 10.5371 19.0665 10.5101 19.1818 10.4907C19.3198 10.463 19.4594 10.445 19.5998 10.4367L19.9698 10.4057C20.0698 10.4057 20.2058 10.4057 20.3338 10.4167L21.3408 10.5577C21.4548 10.5887 21.5878 10.6267 21.7118 10.6657C21.7847 10.6842 21.8565 10.7069 21.9268 10.7337C22.0808 10.7907 22.1998 10.8417 22.3198 10.8927L22.5268 10.9847C22.7268 11.0767 22.8988 11.1707 23.0668 11.2647L28.7198 14.5157Z" fill="#2B1F51"/>
<path d="M24.1732 54.5985C24.1732 54.5985 19.5732 59.4405 10.7152 54.5405C7.24623 52.6205 4.41524 51.0185 2.24624 49.7795C1.72038 49.4785 1.2825 49.045 0.976159 48.5223C0.66982 47.9995 0.505709 47.4056 0.500146 46.7997C0.494584 46.1939 0.647761 45.5971 0.944452 45.0688C1.24114 44.5405 1.671 44.0991 2.19125 43.7885L18.1732 34.2305L21.4882 45.4825L24.1732 54.5985Z" fill="#2B1F51"/>
<path d="M18.2157 57.2468C20.5434 57.3317 22.8122 56.5035 24.5377 54.9388C24.5981 54.8752 24.6407 54.7968 24.6613 54.7115C24.6818 54.6262 24.6795 54.537 24.6547 54.4528L18.6547 34.0858C18.6332 34.0125 18.5951 33.9451 18.5435 33.8887C18.4919 33.8324 18.4281 33.7887 18.3569 33.7609C18.2857 33.733 18.2091 33.7219 18.133 33.7283C18.0568 33.7347 17.9832 33.7585 17.9177 33.7978L1.93565 43.3558C1.34025 43.711 0.848294 44.2159 0.508713 44.8203C0.169132 45.4248 -0.00620458 46.1076 0.000167694 46.8009C0.00653997 47.4941 0.194394 48.1736 0.545029 48.7717C0.895663 49.3698 1.39684 49.8656 1.99867 50.2098C4.62967 51.7158 7.48166 53.3188 10.4747 54.9748C12.8188 56.3803 15.4837 57.1625 18.2157 57.2468ZM23.6087 54.4398C22.6497 55.2668 18.4277 58.2318 10.9597 54.0998C7.97167 52.4468 5.12566 50.8468 2.49666 49.3468C2.0463 49.0894 1.67125 48.7185 1.40889 48.2711C1.14653 47.8236 1.00604 47.3152 1.00139 46.7965C0.996735 46.2778 1.12808 45.767 1.38237 45.3149C1.63666 44.8628 2.005 44.4852 2.45067 44.2198L17.8787 34.9928L23.6087 54.4398Z" fill="#2B1F51"/>
<path d="M18.9242 34.7059C17.4176 35.6845 16.1642 37.0059 15.2667 38.5621C14.3691 40.1182 13.8529 41.8649 13.7602 43.6589C13.7342 44.4658 13.9193 45.2655 14.2972 45.9789C16.4242 50.7399 23.7902 54.4019 24.1782 54.5949C24.5372 53.9849 31.3712 42.4059 33.7452 35.2289C34.2218 34.1069 34.4781 32.9037 34.5002 31.6849C34.4912 28.3909 32.1612 27.0629 29.2942 28.7179C27.2072 29.9239 25.4202 33.0529 24.5942 34.6589C24.4893 34.8789 24.3243 35.0647 24.1182 35.1949C24.0499 35.2467 23.9672 35.2759 23.8815 35.2784C23.7958 35.2809 23.7115 35.2566 23.6402 35.2089C23.0049 34.6436 22.2086 34.2911 21.3629 34.2009C20.5172 34.1107 19.6645 34.2873 18.9242 34.7059Z" fill="white"/>
<path d="M24.1762 55.0953C24.2634 55.0945 24.3489 55.0709 24.4241 55.0269C24.4994 54.9829 24.5618 54.9199 24.6053 54.8443C25.3423 53.5973 31.8743 42.4603 34.2163 35.3813C34.711 34.2094 34.9762 32.9533 34.9973 31.6813C35.0653 30.9526 34.9366 30.2189 34.6248 29.5567C34.313 28.8946 33.8293 28.3281 33.2242 27.9163C32.5577 27.5985 31.8183 27.465 31.0827 27.5295C30.3471 27.594 29.6422 27.8543 29.0412 28.2833C26.8832 29.5293 25.0502 32.6693 24.1502 34.4303C24.0893 34.5619 23.9944 34.6748 23.8752 34.7573C23.1615 34.1557 22.2808 33.7867 21.3514 33.6998C20.4219 33.613 19.4881 33.8124 18.6752 34.2713C17.0974 35.2994 15.7845 36.6855 14.8435 38.3169C13.9026 39.9482 13.3601 41.7787 13.2603 43.6593C13.2326 44.5527 13.4395 45.4377 13.8602 46.2263C15.9792 50.9763 23.1422 54.6383 23.9522 55.0403C24.0215 55.0762 24.0983 55.0951 24.1762 55.0953ZM31.6213 28.5043C32.0082 28.4982 32.3898 28.5948 32.7272 28.7843C33.1754 29.1133 33.529 29.5545 33.7523 30.0637C33.9756 30.5728 34.0608 31.1318 33.9992 31.6843C33.9762 32.8379 33.7325 33.9764 33.2813 35.0383C31.1373 41.5153 25.2622 51.7383 23.9812 53.9323C22.2712 53.0323 16.5452 49.7943 14.7482 45.7733C14.402 45.1228 14.2321 44.3929 14.2553 43.6563C14.346 41.9497 14.8385 40.2886 15.6926 38.8082C16.5466 37.3279 17.7382 36.0701 19.1703 35.1373C19.825 34.7698 20.5785 34.6168 21.3247 34.6998C22.0709 34.7829 22.7723 35.0978 23.3302 35.6003C23.4795 35.7116 23.6595 35.7738 23.8456 35.7785C24.0317 35.7831 24.2146 35.73 24.3692 35.6263C24.6594 35.448 24.8923 35.1901 25.0403 34.8833C25.8893 33.2223 27.6053 30.2673 29.5403 29.1503C30.1661 28.7581 30.8833 28.5354 31.6213 28.5043Z" fill="#2B1F51"/>
<path d="M7.8414 40.3167C7.82072 41.1235 8.00661 41.9221 8.38141 42.6367C9.50996 45.3394 11.5718 47.5468 14.1914 48.8567L22.0714 53.4267C19.6214 51.9667 15.7414 49.2267 14.2914 45.9767C13.9156 45.2628 13.7329 44.463 13.7614 43.6567C13.7623 43.2783 13.7924 42.9005 13.8514 42.5267C13.8614 42.4667 13.8614 42.3967 13.8714 42.3367C13.9353 41.9552 14.0222 41.5779 14.1314 41.2067C14.1614 41.1267 14.1814 41.0367 14.2114 40.9567C14.3214 40.5967 14.4514 40.2467 14.6014 39.8867C14.6188 39.8587 14.6323 39.8284 14.6414 39.7967C14.8114 39.4267 14.9914 39.0567 15.2014 38.6967L15.3514 38.4267C15.5414 38.1067 15.7514 37.7967 15.9614 37.4967L16.0514 37.3767C16.2924 37.0449 16.5528 36.7277 16.8314 36.4267C16.8814 36.3767 16.9314 36.3167 16.9814 36.2667C17.2499 35.9879 17.5337 35.7241 17.8314 35.4767C17.8722 35.4403 17.9157 35.4069 17.9614 35.3767C18.2636 35.1289 18.5845 34.9049 18.9214 34.7067C19.0914 34.6167 19.2514 34.5467 19.4114 34.4767C19.4957 34.4374 19.5825 34.404 19.6714 34.3767C19.7714 34.3367 19.8814 34.3067 19.9814 34.2767C20.0814 34.2467 20.1514 34.2367 20.2314 34.2267C20.3331 34.203 20.437 34.1896 20.5414 34.1867C20.6175 34.1747 20.6944 34.168 20.7714 34.1667C20.868 34.1617 20.9648 34.1617 21.0614 34.1667C21.1414 34.1767 21.2114 34.1767 21.2814 34.1867C21.3814 34.1967 21.4714 34.2167 21.5714 34.2267C21.6368 34.2458 21.7037 34.2592 21.7714 34.2667C21.8627 34.2888 21.9528 34.3155 22.0414 34.3467C22.1014 34.3667 22.1614 34.3867 22.2114 34.4067C22.2469 34.4139 22.2808 34.4275 22.3114 34.4467L23.6414 35.2067V35.2167L23.6814 35.2367C23.7407 35.2746 23.8121 35.2888 23.8814 35.2767C23.9056 35.2735 23.9292 35.2667 23.9514 35.2567C23.9892 35.2514 24.0262 35.2414 24.0614 35.2267L24.1214 35.1967C24.2195 35.138 24.3073 35.0637 24.3814 34.9767C24.3841 34.9767 24.3866 34.9757 24.3885 34.9738C24.3904 34.9719 24.3914 34.9694 24.3914 34.9667C24.4739 34.8724 24.5444 34.7683 24.6014 34.6567C24.7214 34.4267 24.8714 34.1367 25.0314 33.8467C25.0814 33.7567 25.1314 33.6667 25.1814 33.5867C25.3214 33.3467 25.4714 33.0867 25.6214 32.8367C25.6814 32.7367 25.7414 32.6467 25.8014 32.5467C26.0214 32.1967 26.2514 31.8467 26.5014 31.5067C26.5324 31.4584 26.5657 31.4117 26.6014 31.3667C26.8214 31.0667 27.0514 30.7767 27.2814 30.5067C27.4314 30.3367 27.5814 30.1667 27.7314 30.0067C27.7555 29.9746 27.7823 29.9445 27.8114 29.9167C28.0123 29.707 28.226 29.5099 28.4514 29.3267C28.4989 29.2806 28.549 29.2372 28.6014 29.1967C28.8314 29.0267 29.0614 28.8567 29.2914 28.7167C29.4614 28.6267 29.6314 28.5367 29.7914 28.4567C30.0569 28.3364 30.331 28.2362 30.6114 28.1567C30.6514 28.1467 30.6914 28.1367 30.7414 28.1267C30.9806 28.0665 31.2251 28.0296 31.4714 28.0167H31.6014C31.8267 28.0142 32.0515 28.0377 32.2714 28.0867C32.3023 28.0886 32.3327 28.0954 32.3614 28.1067C32.578 28.1631 32.7864 28.2471 32.9814 28.3567L27.0714 25.0167C26.8764 24.9071 26.668 24.823 26.4514 24.7667L26.3614 24.7367C26.1411 24.6911 25.9163 24.671 25.6914 24.6767H25.5614C25.3114 24.6854 25.0631 24.7223 24.8214 24.7867C24.7814 24.7967 24.7414 24.8067 24.6914 24.8167C24.4133 24.8934 24.1423 24.9938 23.8814 25.1167C23.8714 25.1167 23.8714 25.1167 23.8614 25.1267C23.7014 25.1967 23.5414 25.2867 23.3814 25.3767C23.1407 25.5207 22.9101 25.6811 22.6914 25.8567L22.5414 25.9767C22.3214 26.1567 22.1114 26.3567 21.9014 26.5667L21.8114 26.6567C21.7114 26.7767 21.6014 26.8867 21.4914 27.0067L21.3714 27.1567C21.1314 27.4367 20.9114 27.7267 20.6914 28.0167C20.6604 28.0676 20.6234 28.1146 20.5814 28.1567C20.3314 28.5067 20.1014 28.8567 19.8814 29.2067C19.8214 29.2967 19.7714 29.3967 19.7114 29.4867C19.5514 29.7467 19.4014 29.9967 19.2714 30.2367L19.1214 30.5067C18.9614 30.7967 18.8014 31.0767 18.6814 31.3167C18.6256 31.4321 18.555 31.5396 18.4714 31.6367C18.3973 31.7237 18.3095 31.798 18.2114 31.8567C18.153 31.8812 18.0928 31.9013 18.0314 31.9167C18.0114 31.9167 17.9914 31.9367 17.9714 31.9367L17.9514 31.9267L17.0814 31.4267C16.9614 31.3567 16.8414 31.2867 16.7114 31.2267C16.6714 31.2067 16.6214 31.1967 16.5814 31.1767C16.4914 31.1367 16.4014 31.0967 16.3014 31.0567C16.2414 31.0367 16.1914 31.0267 16.1314 31.0067C16.0399 30.9742 15.9463 30.9474 15.8514 30.9267C15.786 30.9077 15.7191 30.8943 15.6514 30.8867C15.5614 30.8667 15.4714 30.8567 15.3714 30.8367C15.3014 30.8367 15.2314 30.8267 15.1514 30.8267C15.0514 30.8267 14.9614 30.8167 14.8614 30.8167C14.7814 30.8267 14.7014 30.8267 14.6214 30.8367C14.5214 30.8467 14.4214 30.8567 14.3214 30.8767C14.2214 30.8967 14.1514 30.9167 14.0714 30.9367L13.7514 31.0267C13.6714 31.0567 13.5814 31.0967 13.4914 31.1267C13.4466 31.1509 13.3998 31.171 13.3514 31.1867C13.2331 31.2367 13.1193 31.297 13.0114 31.3667C12.6769 31.5648 12.3561 31.7853 12.0514 32.0267C12.0014 32.0667 11.9614 32.0967 11.9214 32.1267C11.6213 32.375 11.3374 32.6423 11.0714 32.9267C11.0214 32.9767 10.9714 33.0267 10.9214 33.0867L10.7414 33.2667C10.5314 33.5167 10.3314 33.7667 10.1314 34.0367C10.1025 34.0752 10.0757 34.1152 10.0514 34.1567C9.83139 34.4567 9.63141 34.7667 9.44141 35.0867C9.39141 35.1767 9.3314 35.2567 9.2814 35.3567C9.0914 35.7067 8.90139 36.0567 8.74139 36.4167C8.74139 36.4267 8.73141 36.4467 8.73141 36.4567C8.71396 36.4847 8.70049 36.515 8.69141 36.5467C8.54223 36.8961 8.41203 37.2533 8.30139 37.6167C8.26878 37.6981 8.24206 37.7816 8.2214 37.8667C8.1111 38.2376 8.02425 38.615 7.96139 38.9967C7.95139 39.0567 7.9414 39.1167 7.9314 39.1867C7.9114 39.3567 7.8814 39.5367 7.8714 39.7067C7.8514 39.9067 7.8414 40.1167 7.8414 40.3167Z" fill="white"/>
<path d="M22.0711 53.9271C22.1808 53.9273 22.2874 53.8915 22.3747 53.8251C22.4619 53.7587 22.525 53.6655 22.5541 53.5598C22.5831 53.4541 22.5767 53.3418 22.5357 53.2401C22.4947 53.1385 22.4214 53.0531 22.3271 52.9971C20.1111 51.6771 16.1791 48.9821 14.7491 45.7731C14.4022 45.123 14.2338 44.3925 14.2611 43.6561C14.2628 43.3039 14.2908 42.9522 14.3451 42.6041C14.3451 42.5911 14.3591 42.4831 14.3601 42.4691C14.4183 42.0891 14.5025 41.7136 14.6121 41.3451C14.6191 41.3311 14.6341 41.2791 14.6491 41.2271C14.6491 41.2171 14.6871 41.1121 14.6901 41.1021C14.7964 40.7549 14.9206 40.4135 15.0621 40.0791C15.0681 40.0671 15.1121 39.9651 15.1171 39.9521C15.2581 39.6521 15.4311 39.2941 15.6321 38.9521L15.7621 38.7211C15.9621 38.3771 16.1681 38.0771 16.3721 37.7871L16.4301 37.7091C16.6688 37.3797 16.9269 37.0648 17.2031 36.7661L17.2791 36.6841C17.5534 36.3945 17.8445 36.1213 18.1511 35.8661L17.9241 35.4071L18.2601 35.7821C18.5469 35.546 18.8515 35.3324 19.1711 35.1431C19.3041 35.0731 19.4461 35.0111 19.5861 34.9501C19.6627 34.9133 19.7419 34.8822 19.8231 34.8571C19.904 34.826 19.9865 34.7989 20.0701 34.7761C20.1438 34.7555 20.2186 34.7392 20.2941 34.7271C20.375 34.7067 20.4578 34.6943 20.5411 34.6901C20.6601 34.6791 20.7151 34.6711 20.7711 34.6711C20.8317 34.6669 20.8925 34.6669 20.9531 34.6711H21.0611L21.3461 34.7041L21.4731 34.7231C21.5489 34.7421 21.6257 34.7565 21.7031 34.7661C21.7301 34.7731 21.7971 34.7971 21.8661 34.8191L22.0281 34.8761L23.3221 35.6041C23.3526 35.6297 23.3862 35.6512 23.4221 35.6681C23.581 35.767 23.7703 35.8053 23.9551 35.7761C24.069 35.7505 24.1809 35.7171 24.2901 35.6761C24.4644 35.5872 24.6207 35.4669 24.7511 35.3211C24.7571 35.3141 24.7651 35.3061 24.7711 35.2981C24.8822 35.1711 24.977 35.0307 25.0531 34.8801L25.1071 34.7801C25.2131 34.5741 25.3391 34.3331 25.4721 34.0921C25.5331 33.9861 25.5721 33.9171 25.6101 33.8551L25.6661 33.7551L26.2331 32.8051C26.4421 32.4731 26.6661 32.1331 26.9081 31.8051L26.5881 31.3901L26.9881 31.6901C27.2231 31.3701 27.4461 31.0901 27.6681 30.8281C27.8081 30.6691 27.9561 30.5031 28.1021 30.3461C28.1121 30.3361 28.1391 30.3031 28.1571 30.2821L28.1791 30.2601C28.3674 30.0647 28.5678 29.8813 28.7791 29.7111C28.8257 29.6661 28.8748 29.6237 28.9261 29.5841C29.1371 29.4281 29.3491 29.2711 29.5621 29.1421C29.7321 29.0531 29.8841 28.9731 30.0261 28.9021C30.2651 28.7946 30.5118 28.705 30.7641 28.6341L30.8641 28.6111C31.072 28.5569 31.2847 28.5234 31.4991 28.5111H31.6071C31.7934 28.5089 31.9793 28.528 32.1611 28.5681C32.1991 28.5773 32.2381 28.582 32.2771 28.5821C32.4217 28.6317 32.5624 28.6918 32.6981 28.7621L32.7411 28.7871C32.8561 28.8534 32.9927 28.8714 33.1209 28.8369C33.2491 28.8025 33.3583 28.7186 33.4246 28.6036C33.4909 28.4887 33.5088 28.3521 33.4744 28.2239C33.44 28.0957 33.3561 27.9864 33.2411 27.9201L33.1871 27.8891L27.3251 24.5761C27.0941 24.4448 26.8471 24.3439 26.5901 24.2761L26.4631 24.2371C26.2045 24.1852 25.9408 24.1624 25.6771 24.1691H25.5691C25.2755 24.177 24.9838 24.2196 24.7001 24.2961L24.6001 24.3191C24.2842 24.4038 23.9763 24.5163 23.6801 24.6551L23.6591 24.6661C23.4881 24.7411 23.3181 24.8361 23.1471 24.9321C22.884 25.0888 22.632 25.2635 22.3931 25.4551L22.3141 25.5181L22.2351 25.5811C22.0021 25.7721 21.7791 25.9811 21.5571 26.2051L21.4361 26.3291C21.3761 26.4031 21.3101 26.4711 21.2431 26.5421L21.1331 26.6601L21.0511 26.7601C20.7511 27.1101 20.5281 27.4081 20.3021 27.7061C20.2851 27.7241 20.2021 27.8361 20.1841 27.8571C19.9281 28.2151 19.6931 28.5731 19.4681 28.9311C19.4391 28.9741 19.4051 29.0311 19.3681 29.0911L19.3011 29.2011C19.1281 29.4831 18.9721 29.7421 18.8391 29.9901L18.5621 30.4901C18.4441 30.7041 18.3321 30.9071 18.2411 31.0901C18.2044 31.1657 18.1588 31.2365 18.1051 31.3011C18.0795 31.3308 18.0514 31.3582 18.0211 31.3831L17.3381 30.9901C17.1991 30.9091 17.0691 30.8351 16.9281 30.7701C16.9111 30.7611 16.8281 30.7301 16.8101 30.7241L16.4951 30.5901C16.4761 30.5821 16.3741 30.5511 16.3551 30.5461C16.2239 30.5013 16.0904 30.4636 15.9551 30.4331C15.8835 30.4127 15.8102 30.3983 15.7361 30.3901C15.7061 30.3831 15.6471 30.3731 15.5871 30.3631L15.3091 30.3301C15.2601 30.3301 15.2091 30.3231 15.1561 30.3231L14.8661 30.3141L14.7171 30.3241C14.6661 30.3241 14.6171 30.3311 14.5621 30.3381C14.45 30.3472 14.3385 30.3625 14.2281 30.3841L13.3371 30.6501C13.3021 30.6611 13.2685 30.6762 13.2371 30.6951C13.065 30.7602 12.9001 30.843 12.7451 30.9421C12.3962 31.1476 12.0621 31.3772 11.7451 31.6291L11.6371 31.7121C11.3074 31.981 10.9963 32.272 10.7061 32.5831C10.6468 32.6406 10.5904 32.701 10.5371 32.7641L10.3881 32.9091C10.1411 33.1991 9.93614 33.4571 9.73014 33.7361C9.71814 33.7511 9.66315 33.8361 9.65415 33.8481C9.41815 34.1711 9.20914 34.4941 9.01114 34.8281L8.95115 34.9281C8.91115 34.9901 8.87214 35.0541 8.83414 35.1281C8.63414 35.4911 8.44612 35.8451 8.28412 36.2111C8.27525 36.2307 8.26759 36.2507 8.26114 36.2711C8.24357 36.3099 8.2282 36.3496 8.21512 36.3901C8.06455 36.7419 7.93368 37.1018 7.82312 37.4681C7.78459 37.5616 7.75447 37.6583 7.73313 37.7571C7.62092 38.1384 7.53341 38.5266 7.47113 38.9191L7.42014 39.2781C7.40114 39.4111 7.38313 39.5451 7.37613 39.6781C7.35613 39.8781 7.34513 40.1031 7.34513 40.3201C7.32461 41.2127 7.53361 42.0955 7.95212 42.8841C9.123 45.6633 11.248 47.933 13.9441 49.2841L21.8241 53.8541C21.8987 53.8996 21.9838 53.9248 22.0711 53.9271ZM20.4501 33.6911C20.3444 33.6973 20.2394 33.7123 20.1361 33.7361C20.0631 33.7463 19.9907 33.7603 19.9191 33.7781L19.7881 33.8121C19.6881 33.8421 19.5821 33.8741 19.4881 33.9121C19.3854 33.9434 19.2852 33.9822 19.1881 34.0281C19.0221 34.1011 18.8601 34.1731 18.6881 34.2631C18.3227 34.4768 17.9746 34.7189 17.6471 34.9871C17.5849 35.0275 17.527 35.0741 17.4741 35.1261C17.1752 35.3736 16.8908 35.6381 16.6221 35.9181L16.5381 36.0081C16.5311 36.0141 16.4661 36.0841 16.4601 36.0911C16.1684 36.4081 15.8956 36.742 15.6431 37.0911L15.5581 37.2041C15.3341 37.5231 15.1181 37.8441 14.9211 38.1741L14.7651 38.4541C14.5501 38.8221 14.3651 39.2061 14.1871 39.5911C14.1684 39.625 14.1527 39.6605 14.1401 39.6971C13.9856 40.0623 13.8497 40.4351 13.7331 40.8141C13.7241 40.8351 13.7071 40.8911 13.6901 40.9471C13.6901 40.9581 13.6551 41.0591 13.6511 41.0701C13.5363 41.4607 13.4448 41.8577 13.3771 42.2591C13.3771 42.2731 13.3641 42.3831 13.3621 42.3971C13.2976 42.8148 13.2642 43.2366 13.2621 43.6591C13.2324 44.5537 13.4394 45.4402 13.8621 46.2291C14.4018 47.3722 15.1247 48.4193 16.0021 49.3291L14.4451 48.4291C11.9148 47.1739 9.92391 45.0456 8.84012 42.4371C8.49384 41.786 8.32161 41.0564 8.34012 40.3191C8.33996 40.1325 8.34932 39.9459 8.36814 39.7601C8.37514 39.6361 8.39113 39.5251 8.40613 39.4161L8.45313 39.0891C8.51154 38.7246 8.59441 38.3645 8.70115 38.0111C8.71808 37.9385 8.74046 37.8673 8.76813 37.7981C8.87642 37.4415 9.00393 37.091 9.15012 36.7481C9.18195 36.6964 9.20463 36.6396 9.21714 36.5801C9.36514 36.2541 9.53713 35.9371 9.70813 35.6211C9.74813 35.5451 9.77214 35.5071 9.79514 35.4701L9.87714 35.3341C10.0521 35.0411 10.2441 34.7441 10.4541 34.4571C10.4641 34.4431 10.5081 34.3741 10.5171 34.3571C10.7261 34.0771 10.9171 33.8341 11.1231 33.5921L11.2731 33.4451C11.3441 33.3631 11.3841 33.3231 11.4231 33.2841C11.6785 33.0107 11.9515 32.7542 12.2401 32.5161L12.3641 32.4161C12.6482 32.1909 12.9472 31.9851 13.2591 31.8001C13.3495 31.7418 13.4444 31.6909 13.5431 31.6481C13.5943 31.6305 13.6444 31.6098 13.6931 31.5861C13.7441 31.5671 13.7931 31.5481 13.8411 31.5281L14.4281 31.3651C14.5011 31.3501 14.5851 31.3431 14.6681 31.3341L14.9201 31.3131L15.5411 31.3741C15.5916 31.3805 15.6417 31.3895 15.6911 31.4011C15.7859 31.4221 15.8794 31.4485 15.9711 31.4801C15.9801 31.4801 16.0761 31.5121 16.0851 31.5141L16.3541 31.6231C16.3691 31.6301 16.4741 31.6721 16.4901 31.6771C16.6121 31.7321 16.7151 31.7931 16.8191 31.8521L17.7011 32.3601C17.7722 32.3983 17.8504 32.4213 17.9308 32.4277C18.0112 32.4341 18.092 32.4237 18.1681 32.3971L18.1871 32.3911C18.2713 32.3711 18.353 32.3423 18.4311 32.3051C18.5871 32.2181 18.7265 32.1044 18.8431 31.9691C18.9561 31.8401 19.0513 31.6965 19.1261 31.5421C19.2121 31.3701 19.3181 31.1801 19.4261 30.9811L19.6781 30.5271C19.8321 30.2421 19.9781 30.0001 20.1331 29.7491C20.1591 29.7111 20.1911 29.6551 20.2231 29.6001L20.2921 29.4851C20.5151 29.1311 20.7411 28.7851 20.9851 28.4471C21.0358 28.3947 21.0798 28.3363 21.1161 28.2731C21.2991 28.0351 21.5161 27.7531 21.7461 27.4811L21.8171 27.3931L21.9561 27.2361C22.0371 27.1491 22.1181 27.0641 22.1921 26.9751C22.4491 26.7221 22.6461 26.5331 22.8541 26.3631L22.9951 26.2501C23.1955 26.0881 23.407 25.9404 23.6281 25.8081C23.7691 25.7291 23.9121 25.6471 24.0571 25.5841L24.0901 25.5681C24.3242 25.4577 24.5675 25.3677 24.8171 25.2991L24.9411 25.2701C25.1489 25.2124 25.3627 25.1789 25.5781 25.1701H25.6871C25.8805 25.1632 26.074 25.1803 26.2631 25.2211C26.4556 25.2727 26.6412 25.3468 26.8161 25.4421L30.6721 27.6211L30.6201 27.6331L30.5051 27.6601C30.1876 27.748 29.8773 27.8603 29.5771 27.9961C29.4141 28.0771 29.2571 28.1601 29.0981 28.2441C28.8283 28.4072 28.5673 28.5845 28.3161 28.7751C28.2221 28.8501 28.1601 28.9001 28.0961 28.9621C27.867 29.1485 27.6496 29.3489 27.4451 29.5621C27.4147 29.5908 27.3864 29.6216 27.3601 29.6541C27.2081 29.8181 27.0601 29.9911 26.9021 30.1641C26.6581 30.4511 26.4191 30.7511 26.1931 31.0641C26.1464 31.1225 26.1036 31.184 26.0651 31.2481C25.8361 31.5531 25.5991 31.9141 25.3721 32.2741L24.7921 33.2451C24.7051 33.3891 24.6601 33.4711 24.6131 33.5531C24.4511 33.8461 24.3221 34.0951 24.2131 34.3071L24.1551 34.4181C24.119 34.4899 24.0743 34.5571 24.0221 34.6181L24.0041 34.6371C23.9686 34.6818 23.9256 34.72 23.8771 34.7501H23.8671L22.5561 34.0021C22.4871 33.9595 22.4114 33.9287 22.3321 33.9111C22.2886 33.8916 22.2438 33.8749 22.1981 33.8611C22.0751 33.8211 21.9761 33.7901 21.8761 33.7681C21.8253 33.7623 21.7748 33.7533 21.7251 33.7411C21.6902 33.729 21.6539 33.7213 21.6171 33.7181L21.3291 33.6781C21.2991 33.6731 21.2511 33.6701 21.2021 33.6671C21.1811 33.6671 21.0791 33.6561 21.0581 33.6561C20.9446 33.6493 20.8307 33.6493 20.7171 33.6561C20.6341 33.6576 20.5512 33.665 20.4691 33.6781L20.4501 33.6911ZM17.8871 31.4441C17.8421 31.4571 17.7931 31.4721 17.7821 31.4771C17.8155 31.4619 17.8508 31.4515 17.8871 31.4461V31.4441Z" fill="#2B1F51"/>
<path d="M7.8414 40.3164C7.82072 41.1231 8.00658 41.9217 8.38138 42.6364C9.50993 45.3391 11.5718 47.5465 14.1914 48.8564L22.0714 53.4264C19.6214 51.9664 15.7414 49.2264 14.2914 45.9764C13.9156 45.2625 13.7329 44.4627 13.7614 43.6564C13.7623 43.278 13.7924 42.9002 13.8514 42.5264C13.8614 42.4664 13.8614 42.3964 13.8714 42.3364C13.9353 41.9549 14.0221 41.5775 14.1314 41.2064C14.1614 41.1264 14.1814 41.0364 14.2114 40.9564C14.3214 40.5964 14.4514 40.2464 14.6014 39.8864C14.6188 39.8584 14.6323 39.8281 14.6414 39.7964C14.8114 39.4264 14.9914 39.0564 15.2014 38.6964L15.3514 38.4264C15.5414 38.1064 15.7514 37.7964 15.9614 37.4964L16.0514 37.3764C16.2924 37.0446 16.5528 36.7274 16.8314 36.4264C16.8814 36.3764 16.9314 36.3164 16.9814 36.2664C17.2499 35.9876 17.5337 35.7238 17.8314 35.4764C17.8722 35.44 17.9157 35.4065 17.9614 35.3764C18.2636 35.1285 18.5845 34.9045 18.9214 34.7064C19.0914 34.6164 19.2514 34.5464 19.4114 34.4764C19.4956 34.4371 19.5825 34.4037 19.6714 34.3764C19.7714 34.3364 19.8814 34.3064 19.9814 34.2764C20.0814 34.2464 20.1514 34.2364 20.2314 34.2264C20.3331 34.2026 20.437 34.1892 20.5414 34.1864C20.6175 34.1744 20.6944 34.1677 20.7714 34.1664C20.868 34.1614 20.9648 34.1614 21.0614 34.1664C21.1414 34.1764 21.2114 34.1764 21.2814 34.1864C21.3814 34.1964 21.4714 34.2164 21.5714 34.2264C21.6368 34.2455 21.7037 34.2589 21.7714 34.2664C21.8627 34.2885 21.9528 34.3152 22.0414 34.3464C22.1014 34.3664 22.1614 34.3864 22.2114 34.4064C22.2469 34.4136 22.2808 34.4271 22.3114 34.4464L17.9714 31.9364L17.9514 31.9264L17.0814 31.4264C16.9614 31.3564 16.8414 31.2864 16.7114 31.2264C16.6714 31.2064 16.6214 31.1964 16.5814 31.1764C16.4914 31.1364 16.4014 31.0964 16.3014 31.0564C16.2414 31.0364 16.1914 31.0264 16.1314 31.0064C16.0398 30.9738 15.9463 30.9471 15.8514 30.9264C15.786 30.9073 15.7191 30.8939 15.6514 30.8864C15.5614 30.8664 15.4714 30.8564 15.3714 30.8364C15.3014 30.8364 15.2314 30.8264 15.1514 30.8264C15.0514 30.8264 14.9614 30.8164 14.8614 30.8164C14.7814 30.8264 14.7014 30.8264 14.6214 30.8364C14.5214 30.8464 14.4214 30.8564 14.3214 30.8764C14.2214 30.8964 14.1514 30.9164 14.0714 30.9364L13.7514 31.0264C13.6714 31.0564 13.5814 31.0964 13.4914 31.1264C13.4466 31.1506 13.3998 31.1707 13.3514 31.1864C13.233 31.2364 13.1193 31.2966 13.0114 31.3664C12.6769 31.5645 12.3561 31.785 12.0514 32.0264C12.0014 32.0664 11.9614 32.0964 11.9214 32.1264C11.6213 32.3747 11.3374 32.6419 11.0714 32.9264C11.0214 32.9764 10.9714 33.0264 10.9214 33.0864L10.7414 33.2664C10.5314 33.5164 10.3314 33.7664 10.1314 34.0364C10.1024 34.0748 10.0757 34.1149 10.0514 34.1564C9.83139 34.4564 9.63141 34.7664 9.44141 35.0864C9.39141 35.1764 9.3314 35.2564 9.2814 35.3564C9.0914 35.7064 8.90139 36.0564 8.74139 36.4164C8.74139 36.4264 8.73138 36.4464 8.73138 36.4564C8.71393 36.4844 8.70049 36.5147 8.69141 36.5464C8.54223 36.8958 8.41203 37.253 8.30139 37.6164C8.26878 37.6977 8.24206 37.7813 8.2214 37.8664C8.1111 38.2372 8.02425 38.6147 7.96139 38.9964C7.95139 39.0564 7.9414 39.1164 7.9314 39.1864C7.9114 39.3564 7.8814 39.5364 7.8714 39.7064C7.8514 39.9064 7.8414 40.1164 7.8414 40.3164Z" fill="#D4E6FC"/>
<path d="M22.0705 53.9273C22.1801 53.9275 22.2868 53.8916 22.3741 53.8252C22.4613 53.7589 22.5243 53.6657 22.5534 53.56C22.5825 53.4543 22.5761 53.3419 22.5351 53.2403C22.4941 53.1386 22.4208 53.0532 22.3265 52.9973C20.1105 51.6773 16.1785 48.9823 14.7485 45.7733C14.4016 45.1231 14.2332 44.3927 14.2605 43.6563C14.2621 43.304 14.2902 42.9523 14.3445 42.6043C14.3445 42.5913 14.3585 42.4833 14.3595 42.4693C14.4176 42.0893 14.5018 41.7137 14.6115 41.3453C14.6185 41.3313 14.6335 41.2793 14.6485 41.2273C14.6485 41.2173 14.6865 41.1123 14.6895 41.1023C14.7958 40.7551 14.9199 40.4136 15.0615 40.0793C15.0675 40.0673 15.1115 39.9653 15.1165 39.9523C15.2575 39.6523 15.4305 39.2943 15.6315 38.9523L15.7615 38.7213C15.9615 38.3773 16.1675 38.0773 16.3715 37.7873L16.4295 37.7093C16.6682 37.3798 16.9263 37.0649 17.2025 36.7663L17.2785 36.6843C17.5527 36.3946 17.8439 36.1214 18.1505 35.8663L17.9235 35.4073L18.2595 35.7823C18.5463 35.5462 18.8509 35.3325 19.1705 35.1433C19.3035 35.0733 19.4455 35.0113 19.5855 34.9503C19.6621 34.9134 19.7413 34.8824 19.8225 34.8573C19.9034 34.8261 19.9859 34.7991 20.0695 34.7763C20.1432 34.7557 20.218 34.7393 20.2935 34.7273C20.3744 34.7068 20.4571 34.6944 20.5405 34.6903C20.6595 34.6793 20.7145 34.6713 20.7705 34.6713C20.8311 34.667 20.8919 34.667 20.9525 34.6713H21.0605L21.3455 34.7043L21.4725 34.7233C21.5482 34.7423 21.625 34.7566 21.7025 34.7663C21.7295 34.7733 21.7965 34.7963 21.8655 34.8193L22.0275 34.8763L22.0335 34.8683L22.0605 34.8833C22.1727 34.9437 22.3038 34.959 22.4269 34.926C22.55 34.8931 22.6558 34.8144 22.7228 34.706C22.7899 34.5976 22.813 34.4677 22.7874 34.3429C22.7619 34.218 22.6897 34.1077 22.5855 34.0343C22.5668 34.0208 22.5471 34.0088 22.5265 33.9983L17.3265 30.9983C17.1875 30.9173 17.0575 30.8433 16.9165 30.7783C16.8995 30.7693 16.8165 30.7383 16.7985 30.7323L16.4835 30.5983C16.4645 30.5903 16.3625 30.5593 16.3435 30.5543C16.2123 30.5095 16.0788 30.4717 15.9435 30.4413C15.8718 30.4208 15.7986 30.4065 15.7245 30.3983C15.6945 30.3913 15.6355 30.3813 15.5755 30.3713L15.2975 30.3383C15.2485 30.3383 15.1975 30.3313 15.1445 30.3313L14.8545 30.3223L14.7055 30.3323C14.6545 30.3323 14.6055 30.3393 14.5505 30.3463C14.4384 30.3553 14.3269 30.3707 14.2165 30.3923L13.3255 30.6583C13.2905 30.6692 13.2569 30.6843 13.2255 30.7033C13.0534 30.7683 12.8885 30.8511 12.7335 30.9503C12.3846 31.1558 12.0505 31.3853 11.7335 31.6373L11.6255 31.7203C11.2958 31.9891 10.9847 32.2801 10.6945 32.5913C10.6352 32.6487 10.5787 32.7091 10.5255 32.7723L10.3765 32.9173C10.1295 33.2073 9.92451 33.4653 9.71851 33.7443C9.70651 33.7593 9.65152 33.8443 9.64252 33.8563C9.40652 34.1793 9.19752 34.5023 8.99952 34.8363L8.93952 34.9363C8.89952 34.9983 8.86051 35.0623 8.82251 35.1363C8.62251 35.4993 8.4345 35.8533 8.2725 36.2193C8.26362 36.2388 8.25596 36.2588 8.24952 36.2793C8.23195 36.318 8.2166 36.3578 8.20353 36.3983C8.05295 36.75 7.92206 37.1099 7.8115 37.4763C7.77296 37.5697 7.74285 37.6664 7.7215 37.7653C7.60807 38.1455 7.51923 38.5326 7.45551 38.9243L7.40451 39.2833C7.38551 39.4163 7.36751 39.5503 7.36051 39.6833C7.34051 39.8833 7.3295 40.1083 7.3295 40.3253C7.30899 41.2178 7.51799 42.1007 7.9365 42.8893C9.10737 45.6685 11.2323 47.9381 13.9285 49.2893L21.8085 53.8593C21.8879 53.9056 21.9786 53.9291 22.0705 53.9273ZM20.0915 33.7463C20.0445 33.7543 19.9835 33.7673 19.9185 33.7823L19.7875 33.8163C19.6875 33.8463 19.5815 33.8783 19.4875 33.9163C19.3848 33.9475 19.2845 33.9863 19.1875 34.0323C19.0215 34.1053 18.8595 34.1773 18.6875 34.2673C18.3221 34.4809 17.974 34.723 17.6465 34.9913C17.5843 35.0316 17.5263 35.0782 17.4735 35.1303C17.1746 35.3778 16.8901 35.6422 16.6215 35.9223L16.5375 36.0123C16.5305 36.0183 16.4655 36.0883 16.4595 36.0953C16.1678 36.4123 15.895 36.7462 15.6425 37.0953L15.5575 37.2083C15.3335 37.5273 15.1175 37.8483 14.9205 38.1783L14.7645 38.4583C14.5495 38.8263 14.3645 39.2103 14.1865 39.5953C14.1678 39.6292 14.1521 39.6646 14.1395 39.7013C13.9849 40.0664 13.8491 40.4393 13.7325 40.8183C13.7235 40.8393 13.7065 40.8953 13.6895 40.9513C13.6895 40.9623 13.6545 41.0633 13.6505 41.0743C13.5357 41.4648 13.4442 41.8618 13.3765 42.2633C13.3765 42.2773 13.3635 42.3873 13.3615 42.4013C13.297 42.8189 13.2636 43.2407 13.2615 43.6633C13.2318 44.5578 13.4388 45.4444 13.8615 46.2333C14.4012 47.3763 15.124 48.4234 16.0015 49.3333L14.4445 48.4333C11.9141 47.178 9.9233 45.0497 8.83951 42.4413C8.49349 41.79 8.32127 41.0605 8.33951 40.3233C8.33933 40.1366 8.34866 39.95 8.3675 39.7643C8.3745 39.6403 8.39052 39.5293 8.40552 39.4203L8.45252 39.0933C8.51093 38.7288 8.59377 38.3686 8.7005 38.0153C8.71744 37.9427 8.73985 37.8715 8.76752 37.8023C8.87581 37.4456 9.00332 37.0951 9.14951 36.7523C9.18134 36.7005 9.20399 36.6437 9.2165 36.5843C9.3645 36.2583 9.53652 35.9413 9.70752 35.6253C9.74752 35.5493 9.7715 35.5113 9.7945 35.4743L9.8765 35.3383C10.0515 35.0453 10.2435 34.7483 10.4535 34.4613C10.4635 34.4473 10.5075 34.3783 10.5165 34.3613C10.7255 34.0813 10.9165 33.8383 11.1225 33.5963L11.2725 33.4493C11.3435 33.3673 11.3835 33.3273 11.4225 33.2883C11.6782 33.0148 11.9511 32.7579 12.2395 32.5193L12.3635 32.4193C12.6476 32.194 12.9466 31.9882 13.2585 31.8033C13.3488 31.7449 13.4438 31.694 13.5425 31.6513C13.5939 31.6338 13.644 31.6127 13.6925 31.5883C13.7435 31.5703 13.7925 31.5513 13.8405 31.5313L14.4275 31.3683C14.5005 31.3533 14.5845 31.3463 14.6675 31.3373L14.9195 31.3163L15.5405 31.3773C15.5913 31.3837 15.6417 31.3927 15.6915 31.4043C15.7859 31.4253 15.8791 31.4517 15.9705 31.4833C15.9795 31.4833 16.0755 31.5153 16.0845 31.5173L16.3535 31.6263C16.3685 31.6333 16.4735 31.6753 16.4895 31.6803C16.6115 31.7353 16.7145 31.7963 16.8185 31.8553L20.0915 33.7463Z" fill="#2B1F51"/>
</svg>
