<svg width="65" height="100" viewBox="0 0 65 100" fill="none" xmlns="http://www.w3.org/2000/svg">
<g clip-path="url(#clip0_698_6497)">
<path d="M13.6869 93.5501C12.9691 93.5576 12.2618 93.3766 11.6359 93.0251C10.0719 92.1421 9.21094 90.2791 9.21094 87.7831V37.8311C9.31416 35.2842 10.0132 32.797 11.252 30.5693C12.4908 28.3416 14.2348 26.4355 16.3439 25.0041L48.1189 5.90406C50.1399 4.68906 52.0879 4.49306 53.5999 5.34806C55.1619 6.23306 56.0229 8.09406 56.0229 10.5901V60.5381C55.9195 63.0851 55.2201 65.5724 53.9809 67.8001C52.7418 70.0278 50.9974 71.9338 48.8879 73.3651L17.1139 92.465C16.0902 93.1289 14.9062 93.5038 13.6869 93.5501ZM51.5449 6.32706C50.5984 6.37245 49.6815 6.67118 48.8899 7.19206L17.1159 26.2921C13.5809 28.4161 10.7059 33.5921 10.7059 37.8371V87.7851C10.7059 89.7191 11.2959 91.1181 12.3709 91.7271C13.3949 92.3061 14.8079 92.1161 16.3439 91.1901L48.1189 72.09C51.6529 69.967 54.5289 64.7901 54.5289 60.5461V10.5941C54.5289 8.66006 53.9369 7.26106 52.8639 6.65406C52.4606 6.43083 52.0059 6.31674 51.5449 6.32306V6.32706Z" fill="#1B69FF"/>
<path opacity="0.43" d="M4.50725 88.7179C3.78941 88.7255 3.08217 88.5445 2.45625 88.1929C0.892253 87.3099 0.03125 85.4469 0.03125 82.9509V33.0029C0.134697 30.4559 0.834083 27.9686 2.07324 25.7409C3.3124 23.5132 5.05678 21.6071 7.16624 20.1759L38.9402 1.07593C40.9622 -0.139069 42.9092 -0.335068 44.4212 0.519932C45.9832 1.40293 46.8443 3.26593 46.8443 5.76193V55.7119C46.7413 58.2592 46.0424 60.7467 44.8036 62.9748C43.5648 65.2029 41.8206 67.1093 39.7112 68.5409L7.93625 87.6409C6.91125 88.3025 5.72644 88.6746 4.50725 88.7179ZM42.3672 1.49493C41.4207 1.54012 40.5037 1.83887 39.7122 2.35993L7.93724 21.4599C4.40324 23.5839 1.52725 28.7599 1.52725 33.0039V82.9519C1.52725 84.8859 2.11925 86.2869 3.19225 86.8939C4.21725 87.4729 5.62725 87.2829 7.16725 86.3569L38.9413 67.2569C42.4763 65.1339 45.3512 59.9569 45.3512 55.7109V5.76593C45.3512 3.83193 44.7612 2.43093 43.6862 1.82393C43.2828 1.60114 42.8281 1.48772 42.3672 1.49493Z" fill="#1B69FF"/>
<path d="M25.3423 31.4658C21.5923 33.7198 18.5703 39.1568 18.5703 43.6528V93.5988C18.5703 98.0938 21.5913 99.8988 25.3423 97.6448L57.1173 78.5448C60.8683 76.2908 63.8883 70.8538 63.8883 66.3588V16.4148C63.8883 11.9198 60.8673 10.1148 57.1173 12.3688L25.3423 31.4658Z" fill="#FCFCFC" stroke="black" stroke-width="1.5"/>
<path d="M33.0781 41.0964C31.9006 41.9061 30.9266 42.9775 30.2326 44.2267C29.5386 45.4759 29.1435 46.8689 29.0781 48.2964V77.8085C29.0781 80.4655 30.8631 81.5314 33.0781 80.1994L51.8531 68.9155C53.0308 68.106 54.0049 67.0346 54.6989 65.7853C55.393 64.5361 55.788 63.143 55.8531 61.7155V32.2025C55.8531 29.5475 54.0691 28.4795 51.8531 29.8115L33.0781 41.0964ZM33.0781 43.3095L51.8531 32.0245C53.0531 31.3035 54.0081 31.8735 54.0081 33.3125V62.8255C53.9749 63.5946 53.7629 64.3453 53.3888 65.0182C53.0147 65.691 52.4889 66.2673 51.8531 66.7014L33.0781 77.9855C31.8781 78.7065 30.9231 78.1365 30.9231 76.6985V47.1855C30.9566 46.4164 31.1687 45.6657 31.5428 44.9929C31.9169 44.3201 32.4425 43.7437 33.0781 43.3095ZM41.5421 42.8334V46.6714L38.6491 46.4915L37.7561 48.9465L40.5561 49.1465L37.7561 52.7115L38.6491 54.0934L41.5421 50.4355V54.2735L43.3891 53.1624V49.3255L46.2831 49.5054L47.1751 47.0495L44.3751 46.8495L47.1751 43.2855L46.2831 41.9024L43.3891 45.5605V41.7234L41.5421 42.8334ZM34.3101 63.2285C34.0357 63.4127 33.8088 63.6594 33.6482 63.9483C33.4875 64.2372 33.3977 64.5601 33.3861 64.8905C33.3861 65.5175 33.7861 65.7575 34.3101 65.4415L50.0101 56.0074C50.2843 55.823 50.5109 55.5762 50.6713 55.2874C50.8318 54.9985 50.9215 54.6757 50.9331 54.3455C50.9331 53.7195 50.5331 53.4794 50.0101 53.7944L34.3101 63.2285ZM34.3101 68.7625C34.0357 68.9467 33.8088 69.1934 33.6482 69.4823C33.4875 69.7712 33.3977 70.0941 33.3861 70.4245C33.3861 71.0515 33.7861 71.2904 34.3101 70.9754L42.4661 66.0755C42.7403 65.891 42.9669 65.6442 43.1273 65.3553C43.2878 65.0665 43.3775 64.7437 43.3891 64.4135C43.3891 63.7865 42.9891 63.5475 42.4661 63.8625L34.3101 68.7625Z" fill="#27292B"/>
</g>
<defs>
<clipPath id="clip0_698_6497">
<rect width="64.606" height="99.396" fill="white" transform="translate(0.03125)"/>
</clipPath>
</defs>
</svg>
