<svg width="251" height="318" viewBox="0 0 251 318" fill="none" xmlns="http://www.w3.org/2000/svg">
<g style="mix-blend-mode:multiply" opacity="0.54">
<path d="M240.889 233.092C246.082 236.217 246.102 241.262 240.934 244.37L133.552 308.956C128.384 312.065 119.991 312.053 114.798 308.931L6.8927 244.05C1.69946 240.925 1.6791 235.88 6.84691 232.772L114.228 107.875C119.396 104.767 127.789 104.778 132.982 107.901L240.889 233.092Z" fill="#5CAEFF"/>
</g>
<path d="M250.619 140.425C250.606 140.57 250.596 140.716 250.57 140.861C250.548 140.979 250.512 141.096 250.481 141.213C250.446 141.35 250.412 141.487 250.364 141.623C250.324 141.735 250.27 141.847 250.219 141.959C250.156 142.104 250.094 142.245 250.018 142.386C249.963 142.488 249.897 142.59 249.834 142.691C249.734 142.853 249.629 143.013 249.511 143.171C249.438 143.264 249.366 143.356 249.289 143.448C249.106 143.667 248.912 143.876 248.707 144.074C248.63 144.147 248.562 144.225 248.479 144.299C248.348 144.417 248.201 144.531 248.058 144.646C247.931 144.748 247.809 144.852 247.672 144.951C247.516 145.064 247.345 145.169 247.177 145.281C247.009 145.393 246.841 145.508 246.655 145.617L135.46 210.234C135.039 210.474 134.605 210.692 134.162 210.888C134.033 210.946 133.902 211 133.77 211.056C133.418 211.201 133.058 211.338 132.689 211.466C132.557 211.51 132.428 211.559 132.294 211.601C132.063 211.673 131.824 211.738 131.587 211.803C131.407 211.851 131.229 211.904 131.046 211.948C130.797 212.008 130.542 212.058 130.288 212.11C130.114 212.145 129.943 212.183 129.767 212.216C129.253 212.307 128.731 212.378 128.205 212.434C128.044 212.452 127.88 212.461 127.717 212.475C127.409 212.501 127.099 212.524 126.788 212.537C126.59 212.545 126.392 212.55 126.194 212.553C125.942 212.559 125.691 212.56 125.439 212.557C125.23 212.557 125.021 212.547 124.812 212.539C124.579 212.53 124.346 212.518 124.114 212.502C123.902 212.487 123.69 212.47 123.48 212.449C123.25 212.427 123.021 212.401 122.793 212.372C122.588 212.346 122.383 212.317 122.178 212.286C121.936 212.247 121.694 212.205 121.452 212.159C121.26 212.122 121.069 212.087 120.879 212.043C120.592 211.98 120.309 211.909 120.028 211.835C119.87 211.793 119.711 211.753 119.555 211.708C119.046 211.562 118.557 211.395 118.079 211.209C118.013 211.184 117.951 211.154 117.886 211.128C117.244 210.873 116.621 210.574 116.021 210.233L4.08733 145.609C1.37699 144.044 0.0225453 141.991 0.0283584 139.942L1.86414e-05 245.26C-0.00579442 247.311 1.34794 249.364 4.05828 250.928L115.992 315.553C116.592 315.894 117.215 316.192 117.856 316.446C117.898 316.464 117.934 316.488 117.977 316.505C118.001 316.514 118.028 316.521 118.049 316.53C118.526 316.716 119.02 316.88 119.524 317.028C119.565 317.039 119.602 317.057 119.644 317.068C119.759 317.101 119.88 317.124 119.997 317.155C120.278 317.228 120.561 317.3 120.848 317.363C120.925 317.381 121 317.403 121.077 317.419C121.19 317.443 121.307 317.458 121.421 317.48C121.662 317.526 121.902 317.568 122.148 317.605C122.246 317.621 122.342 317.643 122.438 317.657C122.534 317.672 122.656 317.679 122.76 317.693C122.988 317.722 123.217 317.747 123.446 317.77C123.556 317.78 123.664 317.797 123.774 317.806C123.884 317.815 123.979 317.815 124.081 317.823C124.313 317.839 124.546 317.85 124.779 317.86C124.895 317.864 125.011 317.875 125.127 317.879C125.22 317.879 125.313 317.879 125.406 317.879C125.657 317.882 125.909 317.879 126.16 317.875C126.285 317.875 126.409 317.875 126.534 317.875C126.607 317.875 126.68 317.863 126.752 317.86C127.063 317.847 127.372 317.824 127.682 317.798C127.805 317.788 127.931 317.786 128.054 317.773C128.093 317.77 128.127 317.761 128.169 317.757C128.695 317.702 129.216 317.629 129.732 317.539C129.756 317.535 129.782 317.534 129.804 317.529C129.955 317.502 130.099 317.464 130.248 317.434C130.502 317.383 130.757 317.332 131.008 317.272C131.19 317.228 131.366 317.176 131.547 317.127C131.785 317.062 132.023 316.998 132.256 316.925C132.305 316.909 132.358 316.897 132.406 316.882C132.491 316.854 132.567 316.818 132.65 316.789C133.019 316.663 133.379 316.527 133.73 316.38C133.862 316.324 133.995 316.271 134.124 316.212C134.567 316.016 135 315.798 135.42 315.558L246.629 250.934L246.797 250.834C246.924 250.758 247.031 250.676 247.152 250.598C247.32 250.489 247.49 250.38 247.646 250.268C247.782 250.169 247.905 250.066 248.032 249.963C248.177 249.848 248.322 249.734 248.452 249.616C248.479 249.592 248.513 249.569 248.539 249.543C248.593 249.493 248.63 249.439 248.684 249.389C248.889 249.191 249.083 248.982 249.266 248.764C249.305 248.716 249.356 248.673 249.393 248.626C249.43 248.58 249.453 248.533 249.488 248.487C249.606 248.328 249.711 248.168 249.81 248.006C249.853 247.939 249.908 247.873 249.946 247.805C249.966 247.77 249.977 247.732 249.995 247.701C250.068 247.556 250.133 247.417 250.196 247.274C250.232 247.19 250.281 247.108 250.313 247.023C250.323 246.995 250.327 246.967 250.337 246.938C250.385 246.802 250.419 246.665 250.455 246.528C250.479 246.435 250.516 246.343 250.534 246.25C250.539 246.225 250.539 246.201 250.543 246.177C250.569 246.032 250.579 245.887 250.592 245.742C250.601 245.648 250.622 245.554 250.624 245.46C250.624 245.42 250.624 245.38 250.624 245.339L250.653 140.02C250.653 140.157 250.632 140.29 250.619 140.425Z" fill="url(#paint0_linear_9_47025)"/>
<path d="M246.597 134.354C251.984 137.464 252.013 142.503 246.66 145.617L135.462 210.235C130.11 213.345 121.411 213.345 116.024 210.235L4.09002 145.609C-1.2965 142.499 -1.32557 137.46 4.0268 134.35L115.225 69.7286C120.577 66.6186 129.276 66.6186 134.663 69.7286L246.597 134.354Z" fill="url(#paint1_linear_9_47025)"/>
<path d="M245.738 126.987C245.726 127.126 245.716 127.265 245.691 127.403C245.67 127.516 245.636 127.628 245.606 127.741C245.572 127.873 245.54 128.005 245.493 128.135C245.455 128.243 245.404 128.353 245.357 128.458C245.297 128.595 245.238 128.733 245.164 128.869C245.111 128.967 245.048 129.064 244.988 129.16C244.892 129.315 244.791 129.469 244.677 129.621C244.61 129.71 244.537 129.799 244.464 129.887C244.288 130.098 244.102 130.298 243.904 130.488C243.832 130.561 243.759 130.633 243.686 130.706C243.561 130.82 243.42 130.929 243.282 131.04C243.16 131.138 243.042 131.237 242.911 131.33C242.761 131.439 242.597 131.542 242.436 131.648C242.274 131.753 242.112 131.866 241.934 131.97L135.065 194.077C134.669 194.307 134.248 194.513 133.818 194.708C133.694 194.763 133.567 194.815 133.442 194.869C133.102 195.01 132.756 195.142 132.402 195.262C132.275 195.305 132.151 195.352 132.023 195.392C131.8 195.465 131.571 195.524 131.343 195.586C131.17 195.633 130.999 195.684 130.823 195.726C130.584 195.784 130.339 195.833 130.096 195.882C129.93 195.916 129.765 195.955 129.595 195.983C129.101 196.071 128.6 196.139 128.094 196.192C127.939 196.209 127.782 196.219 127.626 196.232C127.329 196.256 127.031 196.278 126.733 196.291C126.542 196.299 126.352 196.304 126.161 196.307C125.919 196.312 125.677 196.314 125.435 196.311C125.234 196.311 125.032 196.301 124.832 196.294C124.608 196.285 124.384 196.274 124.161 196.258C123.958 196.244 123.754 196.227 123.551 196.207C123.333 196.185 123.111 196.161 122.892 196.134C122.694 196.11 122.497 196.081 122.301 196.051C122.067 196.015 121.834 195.974 121.603 195.93C121.419 195.895 121.235 195.857 121.052 195.818C120.776 195.758 120.505 195.69 120.235 195.618C120.083 195.578 119.931 195.54 119.781 195.496C119.295 195.354 118.821 195.196 118.362 195.017C118.299 194.992 118.239 194.964 118.176 194.938C117.56 194.693 116.961 194.406 116.384 194.079L8.81101 131.97C6.20603 130.466 4.90465 128.492 4.91046 126.52L4.88283 136.33C4.87702 138.299 6.17843 140.273 8.7834 141.779L116.357 203.887C116.933 204.214 117.532 204.501 118.148 204.746C118.188 204.762 118.221 204.785 118.264 204.802C118.287 204.81 118.312 204.817 118.336 204.826C118.795 205.004 119.269 205.163 119.753 205.304C119.793 205.315 119.826 205.332 119.868 205.343C119.979 205.375 120.095 205.397 120.208 205.426C120.478 205.499 120.749 205.566 121.026 205.626C121.098 205.643 121.171 205.666 121.244 205.681C121.352 205.703 121.462 205.717 121.573 205.738C121.805 205.783 122.036 205.823 122.27 205.86C122.365 205.874 122.457 205.895 122.552 205.908C122.647 205.921 122.759 205.93 122.862 205.943C123.08 205.971 123.298 205.995 123.522 206.016C123.627 206.026 123.731 206.042 123.836 206.051C123.942 206.061 124.033 206.06 124.131 206.067C124.354 206.083 124.577 206.094 124.802 206.103C124.914 206.107 125.025 206.118 125.137 206.12C125.226 206.12 125.316 206.12 125.404 206.12C125.646 206.124 125.888 206.12 126.131 206.12C126.25 206.12 126.37 206.12 126.49 206.12C126.563 206.12 126.631 206.11 126.702 206.106C127.001 206.093 127.298 206.072 127.595 206.046C127.714 206.037 127.835 206.035 127.954 206.022C127.991 206.022 128.027 206.011 128.064 206.007C128.572 205.955 129.071 205.886 129.565 205.799C129.589 205.793 129.614 205.793 129.638 205.788C129.783 205.762 129.921 205.726 130.063 205.697C130.308 205.647 130.553 205.599 130.794 205.541C130.969 205.498 131.139 205.448 131.312 205.402C131.541 205.339 131.77 205.278 131.993 205.207C132.041 205.192 132.091 205.181 132.139 205.166C132.219 205.139 132.293 205.104 132.373 205.077C132.727 204.956 133.073 204.825 133.411 204.684C133.538 204.63 133.665 204.579 133.79 204.522C134.215 204.333 134.631 204.123 135.035 203.892L241.902 141.788C241.956 141.757 242.01 141.725 242.063 141.693C242.184 141.62 242.288 141.54 242.404 141.465C242.565 141.36 242.73 141.257 242.879 141.148C243.01 141.053 243.127 140.953 243.25 140.857C243.388 140.747 243.528 140.639 243.654 140.524C243.68 140.5 243.712 140.479 243.737 140.455C243.789 140.407 243.825 140.356 243.874 140.31C244.072 140.12 244.259 139.919 244.434 139.709C244.471 139.664 244.52 139.623 244.556 139.577C244.592 139.531 244.613 139.488 244.647 139.443C244.76 139.291 244.861 139.137 244.957 138.982C244.998 138.916 245.051 138.854 245.088 138.788C245.106 138.755 245.117 138.721 245.134 138.688C245.207 138.552 245.267 138.415 245.327 138.278C245.362 138.197 245.409 138.119 245.44 138.037C245.45 138.01 245.453 137.983 245.463 137.955C245.509 137.824 245.542 137.693 245.576 137.561C245.599 137.472 245.635 137.383 245.653 137.294C245.658 137.271 245.657 137.247 245.661 137.221C245.687 137.083 245.696 136.944 245.708 136.806C245.716 136.715 245.737 136.625 245.74 136.535C245.74 136.497 245.74 136.457 245.74 136.419L245.767 126.609C245.771 126.73 245.75 126.859 245.738 126.987Z" fill="url(#paint2_linear_9_47025)"/>
<path d="M241.87 121.152C247.047 124.142 247.074 128.984 241.931 131.973L135.064 194.077C129.92 197.066 121.561 197.066 116.383 194.077L8.81051 131.97C3.63398 128.981 3.60638 124.138 8.75021 121.149L115.616 59.0449C120.759 56.0563 129.12 56.0563 134.297 59.0449L241.87 121.152Z" fill="url(#paint3_linear_9_47025)"/>
<path d="M250.619 72.3277C250.606 72.473 250.596 72.6184 250.57 72.7637C250.548 72.8821 250.512 72.9984 250.481 73.1161C250.446 73.2527 250.412 73.3901 250.364 73.5259C250.324 73.6386 250.27 73.7497 250.219 73.8616C250.156 74.007 250.094 74.1479 250.018 74.2896C249.963 74.3913 249.897 74.4924 249.834 74.5941C249.734 74.7554 249.629 74.916 249.511 75.0737C249.438 75.1674 249.366 75.2589 249.289 75.3512C249.107 75.5703 248.913 75.7792 248.707 75.9769C248.63 76.0495 248.562 76.128 248.479 76.2014C248.348 76.3198 248.201 76.4339 248.058 76.5487C247.931 76.6512 247.809 76.7544 247.672 76.8539C247.516 76.9665 247.345 77.0719 247.177 77.1838C247.009 77.2957 246.841 77.4112 246.655 77.5195L135.46 142.14C135.038 142.379 134.605 142.598 134.162 142.794C134.033 142.851 133.902 142.906 133.77 142.961C133.418 143.106 133.058 143.243 132.689 143.371C132.557 143.416 132.428 143.464 132.294 143.506C132.063 143.578 131.824 143.643 131.587 143.708C131.407 143.756 131.229 143.809 131.046 143.853C130.797 143.914 130.542 143.964 130.288 144.015C130.114 144.051 129.943 144.088 129.767 144.121C129.253 144.212 128.731 144.283 128.205 144.339C128.044 144.357 127.88 144.367 127.717 144.381C127.408 144.406 127.099 144.429 126.788 144.442C126.59 144.45 126.392 144.455 126.194 144.458C125.942 144.464 125.691 144.465 125.439 144.462C125.23 144.459 125.021 144.453 124.811 144.445C124.579 144.435 124.346 144.423 124.114 144.407C123.902 144.393 123.69 144.375 123.48 144.354C123.25 144.332 123.021 144.306 122.793 144.277C122.588 144.251 122.383 144.222 122.178 144.191C121.935 144.153 121.693 144.11 121.452 144.064C121.26 144.027 121.069 143.992 120.879 143.948C120.592 143.886 120.309 143.815 120.028 143.74C119.87 143.698 119.711 143.658 119.555 143.613C119.046 143.467 118.557 143.3 118.079 143.114C118.013 143.089 117.951 143.059 117.886 143.033C117.244 142.778 116.621 142.479 116.021 142.138L4.08733 77.5144C1.37699 75.9492 0.0225453 73.8958 0.0283584 71.8467L1.86414e-05 116.855C-0.00579442 118.905 1.34794 120.958 4.05828 122.523L115.992 187.147C116.592 187.488 117.215 187.787 117.856 188.041C117.898 188.058 117.934 188.082 117.977 188.099C118.001 188.109 118.028 188.115 118.049 188.125C118.526 188.311 119.02 188.476 119.524 188.622C119.565 188.635 119.602 188.651 119.644 188.663C119.759 188.696 119.88 188.718 119.997 188.749C120.278 188.822 120.561 188.895 120.848 188.958C120.925 188.975 121 188.999 121.077 189.014C121.19 189.038 121.307 189.052 121.421 189.074C121.662 189.12 121.902 189.162 122.148 189.2C122.246 189.215 122.342 189.238 122.438 189.252C122.534 189.265 122.656 189.274 122.76 189.287C122.988 189.316 123.217 189.342 123.446 189.364C123.556 189.374 123.664 189.392 123.774 189.401C123.884 189.409 123.979 189.41 124.081 189.417C124.313 189.433 124.546 189.446 124.779 189.454C124.895 189.459 125.011 189.47 125.127 189.473C125.22 189.473 125.313 189.473 125.406 189.473C125.657 189.477 125.909 189.473 126.16 189.47C126.285 189.47 126.409 189.47 126.534 189.47C126.607 189.47 126.68 189.458 126.752 189.454C127.063 189.441 127.372 189.419 127.682 189.393C127.805 189.382 127.931 189.38 128.054 189.368C128.093 189.364 128.127 189.356 128.169 189.352C128.695 189.297 129.217 189.225 129.732 189.134C129.756 189.129 129.782 189.127 129.804 189.123C129.955 189.096 130.099 189.058 130.248 189.029C130.502 188.977 130.757 188.926 131.008 188.866C131.19 188.821 131.366 188.77 131.547 188.72C131.785 188.656 132.023 188.592 132.256 188.518C132.305 188.502 132.358 188.491 132.406 188.476C132.491 188.448 132.567 188.412 132.65 188.383C133.019 188.257 133.379 188.121 133.73 187.973C133.862 187.918 133.995 187.864 134.124 187.806C134.567 187.61 135 187.392 135.42 187.152L246.619 122.531L246.787 122.432C246.913 122.355 247.021 122.273 247.142 122.195C247.309 122.085 247.48 121.977 247.636 121.865C247.772 121.766 247.894 121.662 248.021 121.56C248.167 121.445 248.312 121.331 248.442 121.213C248.469 121.189 248.502 121.166 248.529 121.14C248.582 121.09 248.62 121.036 248.674 120.986C248.879 120.788 249.073 120.579 249.255 120.36C249.295 120.313 249.346 120.27 249.383 120.223C249.42 120.176 249.443 120.129 249.478 120.083C249.595 119.925 249.701 119.764 249.8 119.603C249.842 119.536 249.898 119.47 249.936 119.402C249.956 119.368 249.967 119.329 249.985 119.298C250.057 119.153 250.123 119.014 250.185 118.871C250.222 118.787 250.27 118.705 250.302 118.621C250.313 118.592 250.317 118.563 250.327 118.535C250.375 118.399 250.408 118.262 250.445 118.124C250.469 118.032 250.506 117.94 250.524 117.847C250.529 117.823 250.528 117.797 250.533 117.774C250.559 117.629 250.569 117.484 250.582 117.338C250.591 117.244 250.612 117.151 250.614 117.056C250.614 117.016 250.614 116.976 250.614 116.936L250.643 71.9273C250.653 72.0618 250.632 72.1962 250.619 72.3277Z" fill="url(#paint4_linear_9_47025)"/>
<path d="M246.597 66.9855C251.984 70.0955 252.013 75.1347 246.66 78.2484L135.462 142.866C130.11 145.976 121.411 145.976 116.024 142.866L4.09002 78.2411C-1.2965 75.1311 -1.32557 70.0919 4.0268 66.9819L115.225 2.36032C120.577 -0.749665 129.276 -0.749665 134.663 2.36032L246.597 66.9855Z" fill="#EFF3FA"/>
<path d="M209.087 68C212.807 70.1479 212.827 73.6277 209.131 75.7749L132.33 120.408C128.633 122.556 122.626 122.556 118.905 120.408L41.5967 75.7735C37.8756 73.6255 37.856 70.1457 41.5524 67.9985L118.352 23.3658C122.049 21.2179 128.057 21.2179 131.778 23.3658L209.087 68Z" fill="#6C96FF"/>
<mask id="mask0_9_47025" style="mask-type:luminance" maskUnits="userSpaceOnUse" x="38" y="21" width="174" height="101">
<path d="M208.864 67.774C212.584 69.9219 212.604 73.4025 208.908 75.549L132.107 120.182C128.41 122.33 122.403 122.33 118.682 120.182L41.3737 75.5475C37.6534 73.3996 37.633 69.9197 41.3301 67.7725L118.13 23.1399C121.826 20.9919 127.835 20.9919 131.555 23.1399L208.864 67.774Z" fill="white"/>
</mask>
<g mask="url(#mask0_9_47025)">
<path d="M207.411 104.106C211.131 106.254 211.151 109.734 207.454 111.881L130.654 156.513C126.957 158.662 120.95 158.662 117.229 156.513L39.9206 111.879C36.2002 109.731 36.1799 106.251 39.877 104.104L116.677 59.4715C120.373 57.3236 126.382 57.3236 130.102 59.4715L207.411 104.106Z" fill="#6C96FF"/>
</g>
<defs>
<linearGradient id="paint0_linear_9_47025" x1="270.956" y1="-52.054" x2="137.701" y2="393.373" gradientUnits="userSpaceOnUse">
<stop stop-color="white"/>
<stop offset="1" stop-color="#C5CCDC"/>
</linearGradient>
<linearGradient id="paint1_linear_9_47025" x1="124.341" y1="224.036" x2="124.846" y2="84.2323" gradientUnits="userSpaceOnUse">
<stop stop-color="white"/>
<stop offset="0.545" stop-color="#E7F5FF"/>
<stop offset="1" stop-color="#8BBFFF"/>
</linearGradient>
<linearGradient id="paint2_linear_9_47025" x1="213.489" y1="-16.286" x2="196.731" y2="241.967" gradientUnits="userSpaceOnUse">
<stop stop-color="#30508C"/>
<stop offset="1" stop-color="#5080D3"/>
</linearGradient>
<linearGradient id="paint3_linear_9_47025" x1="332.48" y1="163.672" x2="-52.8832" y2="-42.261" gradientUnits="userSpaceOnUse">
<stop stop-color="#30508C"/>
<stop offset="1" stop-color="#5080D3"/>
</linearGradient>
<linearGradient id="paint4_linear_9_47025" x1="236.86" y1="-92.5973" x2="193.108" y2="241.804" gradientUnits="userSpaceOnUse">
<stop stop-color="white"/>
<stop offset="1" stop-color="#C5CCDC"/>
</linearGradient>
</defs>
</svg>
