<svg width="177" height="138" viewBox="0 0 177 138" fill="none" xmlns="http://www.w3.org/2000/svg">
<path opacity="0.5" d="M0.233439 86.9745V63.7988L4.47545 61.4385C5.66618 68.6681 14.2059 73.4445 21.3317 74.4295L69.8726 102.79L91.0639 110.429L158.694 75.5632L157.131 74.6711C162.917 71.9763 166.024 65.806 169.15 60.1747L173.708 62.8881L176.406 63.6501V87.2161C176.406 90.2269 174.415 93.2191 170.452 95.5051L102.692 134.571C94.7664 139.143 81.8544 139.143 73.9286 134.571L6.1685 95.5051C2.26141 93.2563 0.289264 90.3012 0.214844 87.3462C0.214844 87.2161 0.214844 87.086 0.214844 86.9559L0.233439 86.9745Z" fill="#5284D8"/>
<path d="M0.233439 66.3635V51.0307L4.47545 48.6704C5.66618 55.9 14.2059 60.6764 21.3317 61.6614L69.8726 90.0224L91.0639 97.6609L158.694 62.7951L157.131 61.903C162.917 59.2082 166.024 53.0379 169.15 47.4066L173.708 50.1201L176.406 50.882V66.6051C176.406 69.6159 174.415 72.6081 170.452 74.8941L102.692 113.96C94.7664 118.532 81.8544 118.532 73.9286 113.96L6.1685 74.8941C2.26141 72.6453 0.289264 69.7088 0.214844 66.7352C0.214844 66.6051 0.214844 66.475 0.214844 66.3449L0.233439 66.3635Z" fill="url(#paint0_linear_9_46953)"/>
<path opacity="0.3" d="M21.3317 61.68L69.8726 90.041L88.3104 96.6945V117.435C83.3056 117.528 78.3566 116.358 73.9286 113.997L6.16849 74.9312C2.26141 72.6824 0.289264 69.746 0.214844 66.7723C0.214844 66.6422 0.214844 66.5122 0.214844 66.3821V51.0493L4.10332 48.8934H4.51264C5.8336 56.0115 14.2618 60.7136 21.3317 61.68Z" fill="#0F054C"/>
<path d="M88.3281 5.90596L95.8818 3.91736L112.664 13.7675L169.168 47.4252C166.042 53.0565 162.935 59.2268 157.149 61.9216L92.9422 24.9C91.5282 24.138 89.9468 23.7663 88.3281 23.8035V5.92456V5.90596Z" fill="url(#paint1_linear_9_46953)"/>
<path d="M102.711 98.4043L170.471 59.3383C178.397 54.7664 178.397 47.3137 170.471 42.7418L102.73 3.67579C94.804 -0.896161 81.892 -0.896161 73.9661 3.67579L6.20607 42.7418C-1.71973 47.3137 -1.71973 54.7664 6.20607 59.3383L73.9661 98.4043C81.892 102.976 94.804 102.976 102.73 98.4043H102.711Z" fill="url(#paint2_linear_9_46953)"/>
<path d="M6.1885 59.3383L73.9486 98.4043C81.8744 102.976 94.7863 102.976 102.712 98.4043L170.472 59.3383C174.026 57.294 175.979 54.6735 176.351 51.9972C176.817 55.3053 174.863 58.725 170.472 61.2526L102.712 100.319C94.7863 104.891 81.8744 104.891 73.9486 100.319L6.1885 61.2526C1.79768 58.725 -0.155873 55.3053 0.309257 51.9972C0.68136 54.6735 2.63491 57.294 6.1885 59.3383Z" fill="white"/>
<path d="M100.795 97.3078L168.555 58.2418C175.439 54.2831 175.439 47.8155 168.555 43.8568L100.814 4.79088C93.93 0.83224 82.7483 0.83224 75.8644 4.79088L8.10434 43.8568C1.22043 47.8155 1.22043 54.2831 8.10434 58.2418L75.8458 97.3078C82.7297 101.285 93.9114 101.266 100.795 97.3078ZM81.7995 8.21054C85.8926 6.129 90.7485 6.129 94.8417 8.21054L162.583 47.2765C166.174 49.3581 166.174 52.722 162.583 54.8035L94.8231 93.8695C90.7299 95.9324 85.8926 95.9324 81.7808 93.8695L14.0208 54.8035C10.43 52.722 10.43 49.3581 14.0208 47.2765L81.7808 8.21054H81.7995Z" fill="url(#paint3_linear_9_46953)"/>
<defs>
<linearGradient id="paint0_linear_9_46953" x1="160.047" y1="15.4721" x2="129.368" y2="126.33" gradientUnits="userSpaceOnUse">
<stop stop-color="#CAD1E0"/>
<stop offset="0.44" stop-color="white"/>
<stop offset="1" stop-color="#C8CEDE"/>
</linearGradient>
<linearGradient id="paint1_linear_9_46953" x1="170.355" y1="37.5844" x2="89.1538" y2="37.5844" gradientUnits="userSpaceOnUse">
<stop stop-color="#CAD1E0"/>
<stop offset="0.44" stop-color="white"/>
<stop offset="1" stop-color="#C8CEDE"/>
</linearGradient>
<linearGradient id="paint2_linear_9_46953" x1="174.94" y1="48.1939" x2="1.58157" y2="48.1939" gradientUnits="userSpaceOnUse">
<stop stop-color="white"/>
<stop offset="0.51" stop-color="#CAD1E0"/>
<stop offset="1" stop-color="#C8CEDE"/>
</linearGradient>
<linearGradient id="paint3_linear_9_46953" x1="174.398" y1="51.7067" x2="2.8521" y2="51.7067" gradientUnits="userSpaceOnUse">
<stop stop-color="white"/>
<stop offset="0.51" stop-color="#CAD1E0"/>
<stop offset="1" stop-color="#C8CEDE"/>
</linearGradient>
</defs>
</svg>
