<svg width="94" height="128" viewBox="0 0 94 128" fill="none" xmlns="http://www.w3.org/2000/svg">
<path d="M87.1312 9.22296L74.3112 1.87896C73.7502 1.47096 73.1492 1.12496 72.5102 0.84696L72.3212 0.73896L72.3132 0.75496C68.8642 -0.64704 64.4092 -0.14004 59.5492 2.66496L20.0622 25.46C9.20522 31.729 0.324219 47.115 0.324219 59.653V105.244C0.324219 111.358 2.44722 115.694 5.87122 117.822L5.83822 117.881L20.0842 125.953L28.0962 112.004L59.5492 93.847C70.4042 87.578 79.2892 72.192 79.2892 59.654V22.876L87.1312 9.22296Z" fill="white"/>
<path d="M87.1312 9.22301L73.4082 6.00501C72.8472 5.59601 70.0452 5.60701 69.4062 5.32801L68.3892 4.92001L66.5572 4.58001C63.1082 3.17801 64.4092 -0.140987 59.5492 2.66401L20.0622 25.46C9.20522 31.729 0.324219 47.115 0.324219 59.653V105.244C0.324219 111.358 2.44722 115.694 5.87122 117.822L5.83822 117.881L20.0842 125.953L28.0962 112.004L59.5492 93.847C70.4042 87.578 79.2892 72.192 79.2892 59.654V22.876L87.1312 9.22301Z" fill="#EEEEEE"/>
<path d="M1.07622 53.085C0.597218 55.316 0.324219 57.527 0.324219 59.653V105.244C0.324219 111.358 2.44722 115.694 5.87122 117.822L5.83822 117.881L20.0842 125.953L28.0962 112.004L59.5492 93.847C61.3932 92.782 63.1762 91.436 64.8712 89.902L1.07622 53.085Z" fill="#ECECEC"/>
<path d="M33.6326 33.3289C22.7756 39.5979 13.8906 54.9839 13.8906 67.5219V113.113C13.8906 125.651 22.7756 130.779 33.6326 124.511L73.1166 101.715C83.9736 95.4459 92.8586 80.0599 92.8586 67.5219V21.9319C92.8586 9.39393 83.9736 4.26593 73.1166 10.5339L33.6326 33.3289Z" fill="white"/>
<path opacity="0.2" d="M92.8586 21.9319C92.8586 9.39393 83.9736 4.26593 73.1166 10.5339L33.6326 33.3289C22.7756 39.5979 13.8906 54.9839 13.8906 67.5219V113.113C13.8906 125.651 22.7756 130.779 33.6326 124.511" fill="white"/>
<path d="M24.8631 128H24.8611C17.7031 128 13.0781 122.156 13.0781 113.113V67.5219C13.0781 54.6929 22.1151 39.0369 33.2241 32.6249L72.7101 9.82892C75.9111 7.98092 78.9991 7.04492 81.8881 7.04492C89.0461 7.04492 93.6731 12.8889 93.6731 21.9319V67.5229C93.6731 80.3519 84.6341 96.0079 73.5251 102.42L34.0391 125.216C30.8381 127.063 27.7521 128 24.8631 128ZM81.8891 8.67392C79.2891 8.67392 76.4751 9.53692 73.5261 11.2379L34.0391 34.0329C23.3791 40.1889 14.7051 55.2119 14.7051 67.5219V113.113C14.7051 121.291 18.5961 126.372 24.8611 126.372H24.8631C27.4631 126.372 30.2751 125.508 33.2241 123.807L72.7101 101.012C83.3701 94.8569 92.0441 79.8329 92.0441 67.5229V21.9319C92.0451 13.7539 88.1541 8.67392 81.8891 8.67392Z" fill="white"/>
<path d="M31.5391 79.839L31.5901 97.578L50.1461 89.79L31.5901 97.578L50.0741 69.277L31.5391 79.839Z" fill="#0DA2D6"/>
<path d="M50.0699 69.277L31.5859 97.578L50.1419 89.79L50.0699 69.277Z" fill="#20B5EC"/>
<path d="M76.8419 26.4199L52.3119 65.5809L52.2539 44.7379L52.3119 65.5809L76.9119 51.1499L76.8419 26.4199Z" fill="#20B5EC"/>
<path d="M76.8419 26.4199L52.2539 44.7379L52.3119 65.5809L76.8419 26.4199Z" fill="#0DA2D6"/>
<path d="M50.0137 46.4059L31.4688 60.0159L31.5367 77.7289L50.0788 66.9069L31.5367 77.7289L50.0137 46.4059Z" fill="#20B5EC"/>
<path d="M50.0161 46.4059L31.5391 77.7289L50.0811 66.9069L50.0161 46.4059Z" fill="#0DA2D6"/>
<path d="M52.2891 68.1459L52.3801 88.8149L76.9911 78.5889L76.9281 53.9639L76.9911 78.5889L52.3801 88.8149L76.9281 53.9639L52.2891 68.1459Z" fill="#20B5EC"/>
<path d="M76.9269 53.9639L52.3789 88.8149L76.9899 78.5889L76.9269 53.9639Z" fill="#0DA2D6"/>
</svg>
