<svg width="484" height="351" viewBox="0 0 484 351" fill="none" xmlns="http://www.w3.org/2000/svg">
<g clip-path="url(#clip0_712_4809)">
<mask id="mask0_712_4809" style="mask-type:luminance" maskUnits="userSpaceOnUse" x="0" y="0" width="584" height="351">
<path d="M583.688 0H0V351H583.688V0Z" fill="white"/>
</mask>
<g mask="url(#mask0_712_4809)">
<path d="M181.89 350.703C168.88 350.704 156.155 346.9 145.283 339.76L9.56364 250.762C6.48956 248.747 3.99338 245.966 2.32039 242.695C0.6474 239.423 -0.144724 235.773 0.0217291 232.103C0.188182 228.433 1.30745 224.87 3.26973 221.763C5.23201 218.656 7.96962 216.112 11.2136 214.383L210.504 108.108C216.35 105.002 222.91 103.486 229.527 103.714C236.143 103.941 242.584 105.904 248.202 109.404L402.051 205.575C405.197 207.541 407.771 210.299 409.516 213.572C411.26 216.844 412.114 220.517 411.991 224.223C411.869 227.929 410.774 231.538 408.818 234.688C406.861 237.839 404.11 240.421 400.841 242.176L213.464 342.756C203.759 347.972 192.91 350.702 181.89 350.703ZM228.223 104.829C222.23 104.825 216.329 106.296 211.04 109.112L11.7492 215.387C8.67978 217.024 6.08947 219.43 4.23283 222.37C2.3762 225.31 1.31716 228.682 1.15973 232.155C1.00229 235.627 1.75184 239.081 3.33485 242.177C4.91787 245.272 7.27982 247.903 10.1885 249.81L145.913 338.813C155.781 345.29 167.217 348.983 179.013 349.501C190.809 350.018 202.526 347.342 212.924 341.754L400.298 241.173C403.391 239.512 405.994 237.069 407.845 234.088C409.697 231.107 410.732 227.692 410.848 224.186C410.964 220.679 410.156 217.204 408.506 214.107C406.855 211.011 404.42 208.401 401.443 206.541L247.597 110.37C241.787 106.744 235.073 104.825 228.223 104.829Z" fill="url(#paint0_linear_712_4809)"/>
<path opacity="0.26" d="M27.807 6.10721L113.575 -26.1992L198.825 6.04607V204.026L124.53 229.799C119.475 231.652 113.928 231.663 108.865 229.832L27.8008 203.976L27.807 6.10721Z" fill="url(#paint1_linear_712_4809)"/>
<path d="M287.277 163.136L217.771 119.732L132.053 165.258L119.758 161.407L119.387 171.985L145.787 188.47C146.981 185.003 150.169 181.743 154.981 179.189C166.414 173.117 183.451 173.007 192.96 178.945C199.732 183.174 200.866 189.343 196.84 194.739L207.792 202.632L214.722 215.902L235.564 204.832L235.936 194.254L212.947 194.794C210.432 189.38 213.535 183.053 221.805 178.66C233.238 172.587 250.277 172.478 259.786 178.416C264.216 181.184 266.364 184.838 265.989 188.671L299.591 170.825L299.962 160.247L287.277 163.136Z" fill="#B3BACB"/>
<path d="M267.325 150.68L266.026 187.697C266.034 188.024 266.022 188.351 265.992 188.677L299.594 170.831L299.965 160.253L287.275 163.138L267.325 150.68Z" fill="#B3BACB"/>
<path d="M208.746 192.68L212.29 192.804C211.264 187.886 214.534 182.525 221.81 178.662C229.601 174.524 239.987 173.162 248.829 174.588L249.585 153.106L210.186 151.727L208.746 192.68Z" fill="#B3BACB"/>
<path d="M367.789 213.416L302.729 172.785L263.903 193.406C262.988 193.859 261.936 193.95 260.957 193.66C260.052 193.364 259.665 192.739 260.006 192.13C260.633 191.042 261.006 189.828 261.1 188.576C261.112 188.389 261.121 188.203 261.119 188.018L261.49 177.44L250.604 178.088C243.605 176.056 234.607 176.527 227.448 179.467L217.372 180.068L217.001 190.646C216.965 193.504 218.628 196.285 222.088 198.444C226.978 201.496 234.431 202.707 242.03 201.678C242.481 201.582 242.949 201.592 243.395 201.708C243.842 201.824 244.255 202.043 244.602 202.347C245.042 202.888 244.766 203.572 243.925 204.019L232.536 210.063L246.136 234.018L241.383 269.873C241.553 269.788 241.732 269.713 241.9 269.623C246.945 266.944 249.801 263.248 249.84 259.582H249.849L249.968 256.186C250.241 255.975 250.55 255.816 250.879 255.715C251.355 255.551 251.858 255.484 252.36 255.519C252.862 255.553 253.351 255.688 253.8 255.915L286.173 276.134L378.768 226.481L379.258 212.5L367.789 213.416Z" fill="#B3BACB"/>
<path d="M145.789 188.471C146.983 185.005 150.171 181.745 154.982 179.191C162.867 175.001 173.416 173.654 182.324 175.166L182.972 156.677L150.36 155.535L146.879 157.383L145.789 188.471Z" fill="#B3BACB"/>
<path d="M212.454 193.433L202.263 193.076L201.211 223.079L235.567 204.832L235.938 194.254L212.949 194.795C212.749 194.354 212.583 193.899 212.454 193.433Z" fill="#B3BACB"/>
<path d="M244.021 233.947L232.402 210.139L224.501 214.329L204.715 214.456L204.344 225.034L238.362 246.277C238.594 246.382 238.774 246.574 238.864 246.812C238.954 247.05 238.947 247.313 238.843 247.545C238.764 247.721 238.634 247.869 238.471 247.97C238.061 248.264 237.597 248.474 237.106 248.588C236.614 248.701 236.105 248.716 235.608 248.632C229.998 247.8 224.274 248.226 218.849 249.879L206.15 250.175L205.737 261.912C205.656 264.809 207.318 267.633 210.821 269.822C218.375 274.539 231.725 274.578 241.058 270.028L244.021 233.947Z" fill="#B3BACB"/>
<path d="M260.881 193.631C260.036 193.324 259.678 192.722 260.008 192.131C260.543 191.192 260.893 190.159 261.04 189.089L261.448 177.441L256.896 177.713L256.312 194.349L260.85 194.508L260.881 193.631Z" fill="#B3BACB"/>
<path d="M195.983 195.199L191.141 195.313L173.039 194.68L172.668 205.258L201.212 223.083L201.584 212.505L195.983 195.199Z" fill="#B3BACB"/>
<path d="M265.637 267.669L254.613 260.786C254.182 263.212 252.757 265.607 250.467 267.768L202.823 268.073C198.502 262.303 201.288 254.964 210.545 250.048C216.038 247.131 223.058 245.507 230.01 245.423L230.38 234.845L213.33 235.007L200.579 227.043L185.079 235.275L165.175 235.465L164.804 246.043C171.641 246.084 178.06 247.623 182.548 250.425C190.16 255.178 190.668 262.387 184.706 268.189L136.724 268.496C135.305 266.61 134.663 264.253 134.928 261.909L122.352 268.588L102.567 268.714L102.195 279.293L157.259 313.678C165.395 318.759 174.727 321.611 184.316 321.947C193.905 322.282 203.413 320.09 211.885 315.59L282.403 278.141L282.774 267.563L265.637 267.669Z" fill="#B3BACB"/>
<path d="M182.546 250.424C183.648 251.106 184.668 251.913 185.585 252.828L186.221 234.664L185.077 235.27L165.172 235.459L164.801 246.038C171.636 246.082 178.056 247.619 182.546 250.424Z" fill="#B3BACB"/>
<path d="M210.544 250.046C216.037 247.129 223.057 245.506 230.009 245.421L230.381 234.843L213.331 235.005L212.043 234.201L199.049 233.746L198.062 261.871L200.863 261.969C201.074 257.705 204.353 253.333 210.544 250.046Z" fill="#B3BACB"/>
<path d="M224.008 273.375C230.163 273.62 236.727 272.372 241.897 269.628C246.836 267.006 249.666 263.412 249.824 259.826L250.182 249.617L224.873 248.73L224.008 273.375Z" fill="#B3BACB"/>
<path d="M266.363 178.098L299.965 160.252L235.34 119.897C230.11 116.631 224.111 114.798 217.947 114.582C211.783 114.366 205.671 115.776 200.225 118.668L119.754 161.406L146.154 177.892C147.347 174.425 150.536 171.165 155.348 168.61C166.781 162.538 183.819 162.428 193.328 168.367C202.838 174.305 201.272 184.076 189.838 190.148C184.611 192.805 178.887 194.347 173.032 194.676L201.576 212.5L235.932 194.254C229.263 194.159 223.115 192.632 218.684 189.865C209.175 183.927 210.74 174.156 222.174 168.084C233.608 162.011 250.645 161.902 260.154 167.84C264.592 170.609 266.74 174.263 266.363 178.098Z" fill="#F0F3FA"/>
<path d="M286.546 265.562L375.783 218.167C376.71 217.674 377.491 216.947 378.047 216.057C378.603 215.168 378.915 214.148 378.952 213.1C378.989 212.052 378.749 211.013 378.256 210.087C377.764 209.161 377.036 208.38 376.146 207.824L303.106 162.215L264.276 182.831C263.361 183.284 262.309 183.375 261.33 183.085C260.425 182.788 260.038 182.164 260.379 181.553C262.773 177.276 261.282 172.899 256.392 169.848C248.612 164.988 234.672 165.078 225.317 170.047C215.962 175.016 214.681 183.009 222.462 187.867C227.351 190.921 234.804 192.13 242.403 191.103C242.855 191.006 243.322 191.016 243.769 191.133C244.216 191.249 244.629 191.468 244.976 191.772C245.417 192.314 245.139 192.996 244.299 193.444L204.719 214.462L238.736 235.705C238.968 235.81 239.149 236.002 239.239 236.24C239.329 236.478 239.321 236.742 239.217 236.974C239.139 237.149 239.009 237.297 238.845 237.398C238.435 237.692 237.972 237.902 237.48 238.016C236.989 238.13 236.479 238.144 235.982 238.06C228.549 236.899 220.147 238.19 214.051 241.425C204.697 246.394 203.416 254.388 211.196 259.246C218.977 264.104 232.916 264.016 242.271 259.047C248.367 255.81 251.278 251.09 249.872 246.73C249.675 246.12 250.239 245.468 251.247 245.14C251.723 244.976 252.226 244.91 252.728 244.944C253.23 244.978 253.719 245.113 254.168 245.341L286.546 265.562Z" fill="#F0F3FA"/>
<path d="M212.691 304.781L282.769 267.564L254.981 250.211C254.272 254.195 250.895 258.093 245.402 261.011C233.969 267.083 216.932 267.193 207.422 261.255C197.913 255.316 199.479 245.546 210.912 239.473C216.404 236.557 223.424 234.933 230.377 234.848L200.944 216.469L165.17 235.469C172.008 235.509 178.426 237.049 182.915 239.85C192.424 245.789 190.859 255.56 179.425 261.632C167.991 267.705 150.954 267.814 141.445 261.875C136.955 259.072 134.812 255.262 135.295 251.335L102.562 268.719L157.206 302.838C165.47 307.999 174.948 310.895 184.688 311.236C194.428 311.577 204.085 309.351 212.691 304.781Z" fill="#F0F3FA"/>
<path d="M156.44 223.374L197.605 201.512L197.976 190.934L180.841 191.044L165.235 181.298C165.121 181.249 165.019 181.178 164.933 181.088C164.847 180.999 164.779 180.894 164.734 180.779C164.689 180.664 164.666 180.541 164.669 180.417C164.671 180.293 164.698 180.171 164.748 180.058C164.808 179.916 164.902 179.792 165.022 179.696C165.757 179.096 166.699 178.812 167.643 178.905C174.355 179.349 181.228 177.998 186.499 175.196C191.4 172.593 194.08 169.158 194.405 165.779C194.433 165.485 194.444 165.189 194.436 164.893L194.807 154.315L188.866 157.105C181.003 152.535 167.447 152.708 158.277 157.574C153.006 160.373 150.113 164.209 150.338 168.098C150.371 168.691 149.737 169.266 148.757 169.541C147.84 169.817 146.853 169.727 146.001 169.291L115.776 150.41L37.5498 191.96L28.1682 193.996L27.7969 206.46L99.2171 253.761L137.337 233.516C138.204 233.092 139.194 232.992 140.128 233.233L139.933 238.785L139.925 239.024C139.879 241.959 141.628 244.764 145.004 246.873C152.784 251.731 166.724 251.642 176.079 246.673C181.102 244.006 183.793 240.465 184.009 237.006V236.997C184.02 236.836 184.028 236.675 184.026 236.516L184.43 224.996L171.222 225.958C166.994 225.135 162.656 225.05 158.399 225.706C157.942 225.81 157.466 225.807 157.01 225.695C156.554 225.583 156.131 225.367 155.774 225.063C155.321 224.516 155.59 223.824 156.44 223.374Z" fill="url(#paint2_linear_712_4809)"/>
<path d="M165.255 154.956L164.375 180.033L164.769 180.046C164.833 179.916 164.919 179.797 165.023 179.695C165.757 179.095 166.699 178.811 167.643 178.904C174.356 179.348 181.228 177.997 186.499 175.195C191.401 172.592 194.081 169.157 194.405 165.778C194.434 165.484 194.444 165.188 194.436 164.892L194.807 154.314L188.867 157.104C182.834 153.598 173.443 152.894 165.255 154.956Z" fill="url(#paint3_linear_712_4809)"/>
<path d="M153.406 214.372L153.741 225.036L155.735 223.967C155.919 223.715 156.161 223.511 156.441 223.373L197.605 201.512L197.976 190.934L153.406 214.372Z" fill="url(#paint4_linear_712_4809)"/>
<path d="M138.624 233.141L138.633 233.136L139.161 222.18L99.59 243.184L99.2188 253.762L137.339 233.517C137.74 233.314 138.176 233.187 138.624 233.141Z" fill="url(#paint5_linear_712_4809)"/>
<path d="M158.403 225.703C158.247 225.726 158.091 225.741 157.933 225.747L157.07 250.356C163.542 250.811 170.598 249.589 176.084 246.676C181.107 244.008 183.798 240.467 184.015 237.008V236.999C184.025 236.838 184.033 236.677 184.032 236.518L184.436 224.998L171.227 225.96C167 225.135 162.661 225.049 158.403 225.703Z" fill="url(#paint6_linear_712_4809)"/>
<path d="M99.5918 243.186L137.712 222.941C138.635 222.484 139.699 222.396 140.685 222.697C141.59 223.004 141.96 223.643 141.586 224.255C138.953 228.578 140.406 233.192 145.38 236.297C153.159 241.156 167.099 241.067 176.455 236.098C185.81 231.129 187.091 223.136 179.31 218.277C174.336 215.172 166.468 213.964 158.774 215.127C158.316 215.232 157.841 215.228 157.385 215.116C156.929 215.005 156.506 214.788 156.148 214.484C155.69 213.94 155.962 213.248 156.812 212.797L197.975 190.935L165.606 170.719C165.376 170.619 165.196 170.432 165.105 170.199C165.013 169.966 165.019 169.706 165.119 169.477C165.18 169.337 165.274 169.213 165.394 169.117C166.128 168.517 167.071 168.233 168.014 168.327C174.73 168.77 181.6 167.419 186.87 164.618C196.225 159.649 197.506 151.655 189.725 146.796C181.945 141.938 168.006 142.027 158.65 146.995C153.383 149.794 150.487 153.631 150.712 157.519C150.745 158.113 150.11 158.691 149.131 158.962C148.215 159.238 147.227 159.148 146.375 158.712L116.147 139.836L33.6963 183.624C32.0815 184.482 30.7209 185.749 29.7516 187.298C28.7823 188.847 28.2384 190.624 28.1744 192.45C28.1103 194.276 28.5285 196.087 29.3869 197.7C30.2453 199.313 31.5138 200.673 33.0646 201.641L99.5918 243.186Z" fill="url(#paint7_linear_712_4809)"/>
<path opacity="0.4" d="M55.668 -43.756L56.7631 186.442L56.7748 186.448C56.8093 186.584 56.874 186.711 56.9642 186.819C57.0545 186.927 57.1678 187.014 57.296 187.072L102.51 215.297C103.001 215.509 103.534 215.609 104.069 215.587C104.604 215.566 105.127 215.425 105.6 215.174L151.465 189.844C151.634 189.768 151.786 189.658 151.911 189.52C152.036 189.383 152.132 189.222 152.192 189.046L152.22 189.031V-44.3042L103.945 -70.0625L55.668 -43.756Z" fill="url(#paint8_linear_712_4809)"/>
<path d="M103.691 96.7363L82.707 108.833L103.691 120.9L125.193 108.818L103.691 96.7363Z" fill="#23356B"/>
<path d="M103.781 120.476L103.955 142.845L125.193 131.06V108.818L103.781 120.476Z" fill="#5468A5"/>
<path d="M82.6953 108.789L82.7166 131.059L103.954 142.844V120.501L82.6953 108.789Z" fill="#5E98F7"/>
<path d="M103.695 151L82.7109 163.097L103.695 175.163L125.197 163.082L103.695 151Z" fill="#23356B"/>
<path d="M103.785 174.739L103.959 197.108L125.197 185.323V163.082L103.785 174.739Z" fill="#5468A5"/>
<path d="M82.6992 163.055L82.7205 185.324L103.958 197.109V174.766L82.6992 163.055Z" fill="#5E98F7"/>
<path d="M318.587 153.349L318.759 153.646L583.355 0.185949L583.012 -0.408203L318.414 153.052L318.587 153.349Z" fill="url(#paint9_linear_712_4809)"/>
<path d="M289.084 4.41211L289.009 4.52887L288.711 4.9884L379.607 63.6535C381.918 65.1451 383.807 67.2043 385.094 69.6341C386.381 72.0639 387.023 74.7829 386.957 77.5312C386.892 80.2794 386.122 82.9649 384.72 85.3308C383.319 87.6966 381.334 89.6637 378.954 91.0439L295.729 139.314L295.901 139.611L296.074 139.908L379.299 91.6401C381.78 90.2009 383.85 88.1497 385.311 85.6826C386.773 83.2156 387.576 80.4152 387.644 77.5494C387.712 74.6836 387.043 71.8482 385.702 69.3145C384.36 66.7807 382.389 64.6334 379.979 63.0779L289.084 4.41211Z" fill="url(#paint10_linear_712_4809)"/>
<path d="M553.366 183.788L552.992 184.364L453.649 120.245C449.646 117.661 445.007 116.234 440.244 116.121C435.481 116.008 430.779 117.212 426.659 119.602L343.513 167.825L343.341 167.528L343.168 167.231L426.678 118.797C430.798 116.408 435.5 115.203 440.263 115.316C445.026 115.429 449.665 116.856 453.667 119.439L553.366 183.788Z" fill="url(#paint11_linear_712_4809)"/>
<path d="M296.008 142.351C297.527 142.351 298.758 141.12 298.758 139.603C298.758 138.086 297.527 136.855 296.008 136.855C294.489 136.855 293.258 138.086 293.258 139.603C293.258 141.12 294.489 142.351 296.008 142.351Z" fill="url(#paint12_linear_712_4809)"/>
<path d="M318.625 156.706C320.144 156.706 321.375 155.476 321.375 153.958C321.375 152.441 320.144 151.211 318.625 151.211C317.106 151.211 315.875 152.441 315.875 153.958C315.875 155.476 317.106 156.706 318.625 156.706Z" fill="url(#paint13_linear_712_4809)"/>
<path d="M342.758 171.64C344.277 171.64 345.508 170.41 345.508 168.892C345.508 167.375 344.277 166.145 342.758 166.145C341.239 166.145 340.008 167.375 340.008 168.892C340.008 170.41 341.239 171.64 342.758 171.64Z" fill="url(#paint14_linear_712_4809)"/>
</g>
</g>
<defs>
<linearGradient id="paint0_linear_712_4809" x1="-72.1005" y1="277.588" x2="356.969" y2="-50.0533" gradientUnits="userSpaceOnUse">
<stop stop-color="white" stop-opacity="0"/>
<stop offset="0.506" stop-color="#2979E4"/>
<stop offset="1" stop-color="#2979E4"/>
</linearGradient>
<linearGradient id="paint1_linear_712_4809" x1="179.328" y1="44.3274" x2="186.298" y2="304.451" gradientUnits="userSpaceOnUse">
<stop stop-color="white" stop-opacity="0"/>
<stop offset="1" stop-color="#2979E4"/>
</linearGradient>
<linearGradient id="paint2_linear_712_4809" x1="43.2832" y1="138.938" x2="90.6928" y2="219.68" gradientUnits="userSpaceOnUse">
<stop stop-color="#5E98F7"/>
<stop offset="1" stop-color="#4670BA"/>
</linearGradient>
<linearGradient id="paint3_linear_712_4809" x1="-1675.26" y1="757.679" x2="-1674.71" y2="757.679" gradientUnits="userSpaceOnUse">
<stop stop-color="#5E98F7"/>
<stop offset="1" stop-color="#4670BA"/>
</linearGradient>
<linearGradient id="paint4_linear_712_4809" x1="-1683.76" y1="756.378" x2="-1683.12" y2="756.601" gradientUnits="userSpaceOnUse">
<stop stop-color="#5E98F7"/>
<stop offset="1" stop-color="#4670BA"/>
</linearGradient>
<linearGradient id="paint5_linear_712_4809" x1="-1680.78" y1="756.839" x2="-1680.03" y2="756.988" gradientUnits="userSpaceOnUse">
<stop stop-color="#5E98F7"/>
<stop offset="1" stop-color="#4670BA"/>
</linearGradient>
<linearGradient id="paint6_linear_712_4809" x1="-1672.49" y1="757.648" x2="-1671.4" y2="757.824" gradientUnits="userSpaceOnUse">
<stop stop-color="#5E98F7"/>
<stop offset="1" stop-color="#4670BA"/>
</linearGradient>
<linearGradient id="paint7_linear_712_4809" x1="-1696.73" y1="754.045" x2="-1696.22" y2="754.045" gradientUnits="userSpaceOnUse">
<stop stop-color="#C2DBF3"/>
<stop offset="1" stop-color="#849DDB"/>
</linearGradient>
<linearGradient id="paint8_linear_712_4809" x1="104.041" y1="179.884" x2="102.351" y2="15.363" gradientUnits="userSpaceOnUse">
<stop stop-color="#4B62AC"/>
<stop offset="1" stop-color="white" stop-opacity="0"/>
</linearGradient>
<linearGradient id="paint9_linear_712_4809" x1="577.527" y1="-0.562248" x2="477.513" y2="179.545" gradientUnits="userSpaceOnUse">
<stop stop-color="#5E98F7" stop-opacity="0"/>
<stop offset="1" stop-color="#4670BA"/>
</linearGradient>
<linearGradient id="paint10_linear_712_4809" x1="291.481" y1="38.5572" x2="360.751" y2="87.8284" gradientUnits="userSpaceOnUse">
<stop stop-color="#5E98F7" stop-opacity="0"/>
<stop offset="1" stop-color="#4670BA"/>
</linearGradient>
<linearGradient id="paint11_linear_712_4809" x1="502.077" y1="165.098" x2="477.542" y2="116.104" gradientUnits="userSpaceOnUse">
<stop stop-color="#5E98F7" stop-opacity="0"/>
<stop offset="1" stop-color="#4670BA"/>
</linearGradient>
<linearGradient id="paint12_linear_712_4809" x1="298.758" y1="139.603" x2="293.258" y2="139.603" gradientUnits="userSpaceOnUse">
<stop stop-color="#5E98F7"/>
<stop offset="1" stop-color="#4670BA"/>
</linearGradient>
<linearGradient id="paint13_linear_712_4809" x1="305.568" y1="253.327" x2="300.068" y2="253.327" gradientUnits="userSpaceOnUse">
<stop stop-color="#5E98F7"/>
<stop offset="1" stop-color="#4670BA"/>
</linearGradient>
<linearGradient id="paint14_linear_712_4809" x1="345.508" y1="168.892" x2="340.008" y2="168.892" gradientUnits="userSpaceOnUse">
<stop stop-color="#5E98F7"/>
<stop offset="1" stop-color="#4670BA"/>
</linearGradient>
<clipPath id="clip0_712_4809">
<rect width="484" height="351" fill="white"/>
</clipPath>
</defs>
</svg>
