<svg width="129" height="159" viewBox="0 0 129 159" fill="none" xmlns="http://www.w3.org/2000/svg">
<g clip-path="url(#clip0_9_94251)">
<g clip-path="url(#clip1_9_94251)">
<path fill-rule="evenodd" clip-rule="evenodd" d="M15.9525 91.5062L13.3645 89.7472C12.9964 89.112 12.8154 88.3858 12.8425 87.6522L12.8564 45.9112C12.9376 44.3967 13.3756 42.9227 14.1347 41.6096C14.8938 40.2965 15.9525 39.1814 17.2244 38.3552L76.0295 4.43527C76.472 4.12023 76.9893 3.92663 77.5299 3.87399C78.0705 3.82135 78.6155 3.91146 79.1104 4.13522L81.6915 5.89426C81.1962 5.67188 80.6515 5.58261 80.1112 5.63522C79.5708 5.68784 79.0535 5.88044 78.6104 6.19418L19.8055 40.1142C18.5359 40.9431 17.479 42.0588 16.7201 43.3713C15.9611 44.6838 15.5215 46.1565 15.4365 47.6703L15.4224 89.4112C15.3951 90.1459 15.5791 90.8729 15.9525 91.5062Z" fill="#005BEA"/>
<path fill-rule="evenodd" clip-rule="evenodd" d="M14.0083 89.1663L14.5873 89.5592C14.5884 89.5164 14.5856 89.4736 14.5792 89.4313L14.6013 47.6682C14.6901 46.0109 15.1681 44.3979 15.9965 42.9597C16.8248 41.5215 17.9803 40.2987 19.3693 39.3903L78.1893 5.46326C78.4511 5.3147 78.7235 5.18569 79.0043 5.07727L78.6403 4.83325C78.0893 4.54825 77.4243 4.62629 76.4403 5.17029L17.6403 39.0833C16.4929 39.8361 15.5386 40.848 14.8544 42.0376C14.1701 43.2271 13.7752 44.561 13.7013 45.9313L13.6803 87.6512C13.6614 88.1761 13.7745 88.6974 14.0093 89.1672L14.0083 89.1663ZM15.9523 92.3473C15.7811 92.3471 15.614 92.2947 15.4733 92.1973L12.8993 90.4382C12.7933 90.3726 12.705 90.2819 12.6423 90.1742C12.202 89.4159 11.9794 88.5508 11.9993 87.6742L12.0133 45.9113C12.0927 44.2526 12.5668 42.6368 13.3962 41.1982C14.2257 39.7597 15.3865 38.5399 16.7822 37.6403L75.6083 3.7052C76.1764 3.32191 76.8338 3.09155 77.517 3.03638C78.2001 2.9812 78.886 3.10313 79.5083 3.39026L82.1682 5.19824C82.3454 5.31917 82.4696 5.50323 82.5154 5.71277C82.5611 5.92231 82.5249 6.14144 82.4143 6.32519C82.3037 6.50895 82.127 6.6434 81.9204 6.70105C81.7138 6.75869 81.493 6.73519 81.3032 6.63525C80.9303 6.47575 80.5216 6.41888 80.1193 6.47058C79.717 6.52227 79.3358 6.68059 79.0153 6.9292L20.2313 40.8423C19.0813 41.5929 18.1246 42.6042 17.439 43.7941C16.7533 44.984 16.358 46.3188 16.2853 47.6902L16.2633 89.4103C16.242 89.9936 16.3858 90.5711 16.6782 91.0763C16.7515 91.2044 16.7903 91.3494 16.7905 91.4969C16.7908 91.6445 16.7525 91.7896 16.6797 91.918C16.6068 92.0463 16.5018 92.1536 16.375 92.229C16.2481 92.3045 16.1039 92.3455 15.9563 92.3483L15.9523 92.3473Z" fill="#005BEA"/>
<path fill-rule="evenodd" clip-rule="evenodd" d="M19.8069 40.1095L78.6129 6.18955C81.0129 4.80255 82.9729 5.93854 82.9729 8.70554L82.9589 50.4535C82.873 51.9669 82.433 53.4391 81.6743 54.7514C80.9157 56.0638 79.8595 57.1798 78.5908 58.0095L19.7849 91.9305C17.3849 93.3175 15.4168 92.1805 15.4238 89.4065L15.4379 47.6645C15.5234 46.151 15.9633 44.6787 16.7222 43.3664C17.4811 42.0541 18.5378 40.9385 19.8069 40.1095Z" fill="#CEE7FD"/>
<path fill-rule="evenodd" clip-rule="evenodd" d="M80.5479 6.44111C80.0101 6.46731 79.4881 6.63233 79.0329 6.92011L20.227 40.8411C19.0856 41.5959 18.135 42.6054 17.4503 43.7901C16.7655 44.9748 16.3652 46.3024 16.281 47.6682L16.259 89.4101C16.1536 89.8041 16.1808 90.2219 16.3365 90.5989C16.4922 90.9759 16.7677 91.2911 17.1204 91.4959C17.4732 91.7007 17.8835 91.7838 18.288 91.7321C18.6926 91.6805 19.069 91.497 19.359 91.2102L78.165 57.2822C79.3055 56.5265 80.2553 55.5167 80.9399 54.3322C81.6245 53.1477 82.0254 51.8206 82.1109 50.4551L82.1259 8.7071C82.1725 8.31495 82.1183 7.91744 81.9681 7.55219C81.8179 7.18695 81.577 6.86616 81.268 6.62019C81.0479 6.49651 80.7984 6.43458 80.546 6.44111H80.5479ZM17.848 93.3691C17.2995 93.3743 16.7594 93.2338 16.2829 92.9621C15.7078 92.5759 15.2468 92.0425 14.9478 91.4177C14.6489 90.7928 14.5229 90.0992 14.583 89.4091L14.6049 47.6672C14.6959 46.0078 15.1762 44.3931 16.0069 42.9538C16.8377 41.5145 17.9956 40.2909 19.3869 39.3821L78.193 5.46211C78.7404 5.02282 79.4078 4.75917 80.1076 4.70551C80.8075 4.65186 81.5072 4.81075 82.1152 5.16145C82.7232 5.51214 83.2112 6.0383 83.5152 6.67097C83.8192 7.30363 83.925 8.01326 83.8189 8.7071L83.805 50.4551C83.723 52.1177 83.2456 53.7366 82.4126 55.1777C81.5795 56.6188 80.4147 57.8404 79.015 58.7412L20.2099 92.6611C19.4983 93.1009 18.6832 93.3448 17.847 93.3681L17.848 93.3691Z" fill="#005BEA"/>
<path fill-rule="evenodd" clip-rule="evenodd" d="M20.0627 43.2452L35.5527 34.3082L78.3458 9.62409C79.4458 8.98809 80.3397 9.50217 80.3397 10.7822L80.3258 51.4232C80.2882 52.116 80.0879 52.7902 79.7413 53.3913C79.3947 53.9924 78.9116 54.5035 78.3308 54.8831L30.0408 82.7341L20.0468 88.5031C18.9468 89.1321 18.0527 88.6251 18.0527 87.3461L18.0668 46.7051C18.1043 46.0122 18.3045 45.3378 18.6512 44.7366C18.998 44.1355 19.4816 43.6246 20.0627 43.2452Z" fill="white"/>
<path fill-rule="evenodd" clip-rule="evenodd" d="M79.2327 10.1939C79.0672 10.2077 78.9077 10.2616 78.7677 10.3508L20.4847 43.9708C20.0321 44.2767 19.6547 44.6814 19.381 45.1543C19.1073 45.6272 18.9444 46.1559 18.9047 46.7008L18.8908 87.3418C18.8908 87.6708 18.9757 87.8639 19.0547 87.9069C19.1542 87.9266 19.2569 87.9247 19.3556 87.9012C19.4543 87.8778 19.5467 87.8333 19.6267 87.7709L77.9168 54.1509C78.3667 53.8431 78.7413 53.4375 79.0125 52.9646C79.2836 52.4917 79.4443 51.9636 79.4827 51.4198L79.5037 10.7788C79.5037 10.4578 79.4177 10.2569 79.3387 10.2139C79.3056 10.1975 79.2686 10.1903 79.2317 10.1929L79.2327 10.1939ZM19.1547 89.6089C18.8239 89.6131 18.498 89.5288 18.2107 89.3649C17.8793 89.1472 17.6119 88.845 17.4362 88.4896C17.2604 88.1342 17.1826 87.7384 17.2107 87.3429L17.2247 46.7018C17.2655 45.8609 17.5068 45.0419 17.9285 44.3132C18.3501 43.5845 18.9399 42.9672 19.6487 42.5128L77.9318 8.89283C78.2525 8.6523 78.6369 8.51151 79.0371 8.48792C79.4373 8.46432 79.8357 8.55896 80.1825 8.76014C80.5293 8.96131 80.8092 9.26013 80.9874 9.61927C81.1656 9.9784 81.2342 10.3819 81.1847 10.7798L81.1697 51.4209C81.1292 52.2618 80.8881 53.0807 80.4666 53.8095C80.0451 54.5382 79.4554 55.1555 78.7467 55.6099L20.4627 89.2308C20.0667 89.4688 19.6155 89.5994 19.1537 89.6099L19.1547 89.6089Z" fill="#005BEA"/>
<path fill-rule="evenodd" clip-rule="evenodd" d="M28.9922 48.504L69.4182 25.1641V53.0291L28.9922 76.37V48.504Z" fill="white"/>
<path fill-rule="evenodd" clip-rule="evenodd" d="M29.8275 48.9916V74.9126L68.5805 52.5446V26.6235L29.8275 48.9916ZM28.9915 77.2156C28.8431 77.2174 28.6973 77.1775 28.5704 77.1006C28.4417 77.0275 28.3347 76.9215 28.2605 76.7933C28.1863 76.6652 28.1477 76.5196 28.1484 76.3716V48.5056C28.1478 48.3575 28.1866 48.2118 28.2608 48.0835C28.3349 47.9552 28.4417 47.849 28.5704 47.7756L69.0036 24.4355C69.1314 24.3622 69.2762 24.3239 69.4236 24.3242C69.571 24.3246 69.7157 24.3637 69.8432 24.4376C69.9706 24.5116 70.0764 24.6178 70.1498 24.7456C70.2232 24.8734 70.2617 25.0183 70.2615 25.1657V53.0306C70.2622 53.1787 70.2235 53.3242 70.1493 53.4523C70.0751 53.5804 69.9682 53.6865 69.8395 53.7596L29.4065 77.0996C29.2817 77.1761 29.1379 77.2163 28.9915 77.2156Z" fill="#005BEA"/>
<path fill-rule="evenodd" clip-rule="evenodd" d="M39.2352 49.2277C39.7862 48.9137 40.2292 49.1707 40.2292 49.7997C40.2107 50.1439 40.111 50.4788 39.9382 50.777C39.7655 51.0753 39.5246 51.3284 39.2352 51.5157C38.6922 51.8307 38.2422 51.5807 38.2422 50.9437C38.2632 50.6002 38.3638 50.2664 38.5361 49.9686C38.7085 49.6707 38.9479 49.4171 39.2352 49.2277Z" fill="#A6EDF8"/>
<path fill-rule="evenodd" clip-rule="evenodd" d="M38.7916 52.4853C38.5565 52.487 38.3249 52.4277 38.1196 52.3133C37.8883 52.1695 37.6998 51.9662 37.574 51.7246C37.4482 51.4831 37.3898 51.2122 37.4046 50.9402C37.4235 50.4492 37.5624 49.9703 37.8093 49.5454C38.0561 49.1206 38.4033 48.7628 38.8205 48.5032C39.0435 48.3462 39.3068 48.2562 39.5793 48.2437C39.8517 48.2312 40.122 48.2967 40.3585 48.4327C40.5949 48.5686 40.7877 48.7693 40.914 49.011C41.0403 49.2528 41.095 49.5255 41.0716 49.7973C41.0519 50.2891 40.9127 50.7686 40.6662 51.1946C40.4197 51.6206 40.0731 51.9801 39.6566 52.2422C39.3947 52.398 39.0963 52.4819 38.7916 52.4853Z" fill="#005BEA"/>
<path fill-rule="evenodd" clip-rule="evenodd" d="M39.2352 55.3811C39.7862 55.0591 40.2292 55.3172 40.2292 55.9462C40.2114 56.2905 40.1119 56.6256 39.9391 56.9239C39.7663 57.2223 39.5251 57.4753 39.2352 57.6621C38.6922 57.9771 38.2422 57.7191 38.2422 57.0901C38.2624 56.7474 38.3628 56.4143 38.5353 56.1174C38.7077 55.8206 38.9475 55.5684 39.2352 55.3811Z" fill="#A6EDF8"/>
<path fill-rule="evenodd" clip-rule="evenodd" d="M38.7919 58.6428C38.5559 58.6447 38.3237 58.5829 38.1199 58.4639C37.8878 58.3209 37.6988 58.1179 37.5729 57.8761C37.447 57.6344 37.389 57.3629 37.4049 57.0908C37.4246 56.599 37.5637 56.1195 37.8104 55.6936C38.0572 55.2678 38.4039 54.9085 38.8208 54.6469C39.0447 54.4916 39.3082 54.4031 39.5805 54.3919C39.8527 54.3806 40.1226 54.447 40.3585 54.5833C40.5945 54.7195 40.7868 54.9201 40.9131 55.1615C41.0394 55.4029 41.0945 55.6754 41.0719 55.9469C41.0531 56.4389 40.9142 56.9187 40.6676 57.3449C40.421 57.771 40.0741 58.1304 39.6569 58.3919C39.3968 58.5525 39.0976 58.6387 38.7919 58.6409V58.6428Z" fill="#005BEA"/>
<path fill-rule="evenodd" clip-rule="evenodd" d="M39.2352 61.9134C39.7862 61.5984 40.2292 61.8485 40.2292 62.4775C40.2106 62.8216 40.1109 63.1564 39.9381 63.4546C39.7654 63.7529 39.5245 64.006 39.2352 64.1934C38.6922 64.5084 38.2422 64.2505 38.2422 63.6285C38.2615 63.2847 38.3616 62.9503 38.5341 62.6524C38.7066 62.3545 38.9468 62.1013 39.2352 61.9134Z" fill="#A6EDF8"/>
<path fill-rule="evenodd" clip-rule="evenodd" d="M38.7913 65.1747C38.5557 65.174 38.3242 65.1123 38.1193 64.9957C37.8888 64.853 37.7008 64.6512 37.575 64.4111C37.4492 64.1709 37.3903 63.9014 37.4044 63.6307C37.4222 63.1385 37.5605 62.6583 37.8074 62.2321C38.0544 61.806 38.4021 61.447 38.8203 61.1867C39.0432 61.0298 39.3063 60.9398 39.5787 60.9273C39.851 60.9148 40.1213 60.9802 40.3577 61.116C40.5942 61.2518 40.7869 61.4523 40.9133 61.6939C41.0397 61.9355 41.0946 62.208 41.0714 62.4797C41.0518 62.9715 40.9128 63.4512 40.6662 63.8772C40.4197 64.3033 40.073 64.6628 39.6563 64.9247C39.3949 65.0824 39.0966 65.1693 38.7913 65.1747Z" fill="#005BEA"/>
<path fill-rule="evenodd" clip-rule="evenodd" d="M123.34 83.0625V86.2515C123.198 86.6864 122.97 87.0887 122.671 87.4347C122.371 87.7807 122.006 88.0634 121.596 88.2665L62.5537 122.367C61.2961 123.034 59.8956 123.387 58.4718 123.396C56.8487 123.477 55.2337 123.119 53.7968 122.359L17.5448 101.393C17.1352 101.187 16.7701 100.902 16.4708 100.555C16.1715 100.208 15.9439 99.805 15.8008 99.3695V96.1805C15.944 96.6151 16.1717 97.0169 16.4711 97.3629C16.7704 97.7089 17.1354 97.9923 17.5448 98.1965L53.7968 119.164C55.2332 119.925 56.8481 120.285 58.4718 120.207C59.8962 120.196 61.2967 119.84 62.5537 119.171L121.596 85.0785C122.005 84.8743 122.37 84.591 122.669 84.245C122.969 83.899 123.197 83.4971 123.34 83.0625Z" fill="#CEE7FD"/>
<path fill-rule="evenodd" clip-rule="evenodd" d="M16.6429 99.2459C16.8899 99.8734 17.3681 100.382 17.979 100.668L54.2159 121.628C55.5228 122.311 56.9889 122.633 58.4619 122.558C59.7472 122.55 61.011 122.228 62.1439 121.621L121.178 87.5429C121.78 87.2492 122.251 86.7424 122.5 86.1209V85.4918C122.343 85.5992 122.185 85.6992 122.028 85.7919L62.9719 119.898C61.4885 120.658 59.8456 121.054 58.1789 121.054C56.5122 121.054 54.8694 120.658 53.3859 119.898L17.1209 98.9238C16.9639 98.8238 16.7999 98.7239 16.6419 98.6099L16.6429 99.2459ZM58.302 124.241C56.5924 124.294 54.8987 123.898 53.391 123.09L17.1259 102.116C16.1117 101.595 15.3457 100.692 14.9959 99.6068C14.9756 99.5298 14.9658 99.4505 14.9669 99.3709V96.1819C14.966 95.9789 15.0388 95.7823 15.1715 95.6287C15.3042 95.475 15.4879 95.3746 15.6889 95.3458C15.8885 95.3222 16.0902 95.3693 16.2586 95.4789C16.4271 95.5885 16.5517 95.7537 16.6109 95.9458C16.7237 96.2816 16.9036 96.5911 17.1396 96.8554C17.3756 97.1196 17.6629 97.333 17.984 97.4828L54.2209 118.436C55.522 119.135 56.9926 119.457 58.4669 119.365C59.752 119.363 61.0167 119.044 62.1489 118.436L121.183 84.3508C121.5 84.2021 121.783 83.9904 122.015 83.7288C122.247 83.4671 122.424 83.161 122.534 82.8289C122.594 82.6361 122.72 82.4706 122.89 82.361C123.06 82.2514 123.262 82.2047 123.463 82.2289C123.664 82.2586 123.847 82.3593 123.979 82.5127C124.112 82.6661 124.185 82.8621 124.185 83.0648V86.2538C124.184 86.3337 124.173 86.4132 124.15 86.4899C123.802 87.5697 123.041 88.4683 122.034 88.9899L62.978 123.09C61.6044 123.831 60.0707 124.226 58.51 124.241H58.302Z" fill="#005BEA"/>
<path fill-rule="evenodd" clip-rule="evenodd" d="M17.5472 93.1257L76.5882 59.0408C77.9457 58.3539 79.4457 57.9961 80.9671 57.9961C82.4885 57.9961 83.9886 58.3539 85.3461 59.0408L121.597 80.0077C124.006 81.4077 124.006 83.6818 121.597 85.0768L62.5551 119.169C61.1968 119.853 59.6968 120.209 58.1758 120.208C56.6548 120.207 55.1553 119.848 53.7981 119.162L17.5461 98.1947C15.1381 96.8007 15.1382 94.5207 17.5472 93.1257Z" fill="white"/>
<path fill-rule="evenodd" clip-rule="evenodd" d="M17.9686 93.8524C17.6028 94.0113 17.2835 94.2608 17.0408 94.5773C16.7981 94.8938 16.6401 95.267 16.5817 95.6615C16.6383 96.0556 16.7958 96.4283 17.0388 96.7437C17.2818 97.059 17.602 97.3062 17.9686 97.4614L54.2196 118.428C55.4497 119.041 56.8051 119.36 58.1793 119.362C59.5536 119.363 60.9094 119.046 62.1406 118.435L121.182 84.3424C121.58 84.2362 121.932 84.0014 122.182 83.6743C122.433 83.3473 122.568 82.9465 122.568 82.5344C122.567 82.1224 122.429 81.7222 122.177 81.3962C121.925 81.0703 121.572 80.8368 121.174 80.7324L84.9226 59.7655C83.6939 59.152 82.3395 58.8326 80.9662 58.8326C79.5929 58.8326 78.2383 59.152 77.0096 59.7655L17.9686 93.8505V93.8524ZM58.1797 121.038C56.5078 121.07 54.8556 120.673 53.3796 119.887L17.1287 98.9235C16.4727 98.6672 15.9093 98.2189 15.5121 97.6373C15.1149 97.0557 14.9023 96.3677 14.9023 95.6635C14.9023 94.9592 15.1149 94.2713 15.5121 93.6897C15.9093 93.1081 16.4727 92.6598 17.1287 92.4034L76.1697 58.3114C77.6573 57.5571 79.3017 57.1641 80.9696 57.1641C82.6375 57.1641 84.282 57.5571 85.7697 58.3114L122.021 79.2855C122.678 79.5399 123.242 79.9869 123.641 80.5681C124.039 81.1493 124.252 81.8374 124.252 82.542C124.252 83.2465 124.039 83.9345 123.641 84.5157C123.242 85.0969 122.678 85.5441 122.021 85.7985L62.9786 119.898C61.5014 120.679 59.8502 121.072 58.1797 121.04V121.038Z" fill="#005BEA"/>
<path fill-rule="evenodd" clip-rule="evenodd" d="M81.0183 105.051L97.1674 95.7223L84.8003 88.5742L68.6523 97.9033L81.0183 105.051Z" fill="#CEE7FD"/>
<path fill-rule="evenodd" clip-rule="evenodd" d="M70.3331 97.9012L81.0201 104.085L95.4891 95.7212L84.8021 89.5453L70.3331 97.9012ZM81.0201 105.893C80.8716 105.895 80.7255 105.856 80.5981 105.779L68.2302 98.6302C68.1022 98.5573 67.9957 98.4518 67.9216 98.3243C67.8476 98.1969 67.8086 98.0522 67.8086 97.9048C67.8086 97.7574 67.8476 97.6127 67.9216 97.4852C67.9957 97.3578 68.1022 97.2522 68.2302 97.1792L84.3792 87.8433C84.5073 87.7694 84.6527 87.7305 84.8007 87.7305C84.9486 87.7305 85.094 87.7694 85.2222 87.8433L97.5891 94.9912C97.7155 95.0663 97.8202 95.1731 97.8929 95.3009C97.9657 95.4287 98.0039 95.5732 98.0039 95.7202C98.0039 95.8673 97.9657 96.0118 97.8929 96.1396C97.8202 96.2675 97.7155 96.3741 97.5891 96.4492L81.4412 105.778C81.3139 105.854 81.1684 105.894 81.0201 105.894V105.893Z" fill="#005BEA"/>
<path fill-rule="evenodd" clip-rule="evenodd" d="M24.939 94.3132C42.839 83.9799 60.7299 73.6466 78.6119 63.3132C79.3376 62.9494 80.1385 62.7605 80.9503 62.7617C81.7621 62.7629 82.5624 62.9542 83.287 63.3202L101.581 73.9003C101.861 73.9989 102.103 74.1821 102.274 74.4244C102.445 74.6668 102.536 74.9564 102.535 75.2531C102.535 75.5497 102.441 75.8387 102.269 76.0801C102.096 76.3215 101.853 76.5032 101.573 76.6002C83.6877 86.9336 65.7993 97.2669 47.908 107.6C47.1834 107.968 46.3821 108.159 45.5696 108.158C44.7571 108.156 43.9565 107.963 43.233 107.593L24.939 97.0133C24.6585 96.916 24.4153 96.7336 24.2432 96.4917C24.071 96.2498 23.9785 95.9601 23.9785 95.6632C23.9785 95.3663 24.071 95.0768 24.2432 94.8348C24.4153 94.5929 24.6585 94.4106 24.939 94.3132Z" fill="#CEE7FD"/>
<path fill-rule="evenodd" clip-rule="evenodd" d="M25.3584 95.0442C25.0224 95.2372 24.8154 95.4803 24.8154 95.6663C24.8154 95.8523 25.0224 96.0953 25.3584 96.2953L43.6525 106.875C44.2497 107.165 44.9048 107.315 45.5685 107.315C46.2322 107.315 46.8873 107.165 47.4845 106.875L101.157 75.8752C101.492 75.6822 101.7 75.4392 101.7 75.2532C101.7 75.0672 101.492 74.8242 101.157 74.6312L82.8634 64.0432C82.266 63.7542 81.611 63.6041 80.9474 63.6041C80.2838 63.6041 79.6289 63.7542 79.0315 64.0432L25.3584 95.0442ZM45.5685 108.998C44.6059 109.016 43.655 108.785 42.8085 108.326L24.5144 97.7462C24.105 97.5743 23.7556 97.2853 23.5101 96.9153C23.2646 96.5453 23.134 96.1109 23.1348 95.6669C23.1355 95.2228 23.2675 94.789 23.5143 94.4198C23.761 94.0506 24.1115 93.7628 24.5215 93.5923L78.1875 62.5923C79.0394 62.1518 79.9844 61.9219 80.9435 61.9219C81.9025 61.9219 82.8476 62.1518 83.6995 62.5923L101.999 73.1722C102.409 73.3448 102.759 73.6346 103.004 74.0051C103.25 74.3757 103.38 74.8105 103.38 75.255C103.379 75.6995 103.247 76.1339 103 76.5037C102.753 76.8734 102.403 77.162 101.992 77.3333L48.3195 108.333C47.4757 108.79 46.5277 109.019 45.5685 108.998Z" fill="#005BEA"/>
<path fill-rule="evenodd" clip-rule="evenodd" d="M48.5004 91.3478L51.1384 89.8248C51.4374 89.673 51.768 89.5938 52.1034 89.5938C52.4388 89.5938 52.7695 89.673 53.0685 89.8248L55.7064 91.3478C55.8223 91.3879 55.9228 91.4632 55.9939 91.5631C56.065 91.663 56.1033 91.7826 56.1033 91.9053C56.1033 92.0279 56.065 92.1475 55.9939 92.2474C55.9228 92.3474 55.8223 92.4226 55.7064 92.4628L53.0614 93.9858C52.7636 94.1375 52.4342 94.2166 52.1 94.2166C51.7658 94.2166 51.4363 94.1375 51.1384 93.9858L48.5004 92.4628C48.3845 92.4226 48.284 92.3474 48.2129 92.2474C48.1418 92.1475 48.1035 92.0279 48.1035 91.9053C48.1035 91.7826 48.1418 91.663 48.2129 91.5631C48.284 91.4632 48.3845 91.3879 48.5004 91.3478Z" fill="white"/>
<path fill-rule="evenodd" clip-rule="evenodd" d="M49.2178 91.9023L51.5627 93.2533C51.7334 93.3311 51.9188 93.3713 52.1063 93.3713C52.2939 93.3713 52.4792 93.3311 52.6498 93.2533L54.9868 91.9023L52.6498 90.5513C52.4791 90.4737 52.2938 90.4336 52.1063 90.4336C51.9188 90.4336 51.7334 90.4737 51.5627 90.5513L49.2178 91.9023ZM52.1058 95.0553C51.6216 95.0631 51.1435 94.9449 50.7188 94.7123L48.0808 93.1824C47.8371 93.0679 47.6309 92.8864 47.4866 92.6591C47.3422 92.4318 47.2656 92.1681 47.2656 91.8988C47.2656 91.6295 47.3422 91.3658 47.4866 91.1385C47.6309 90.9113 47.8371 90.7298 48.0808 90.6154L50.7258 89.0933C51.1519 88.8678 51.6267 88.75 52.1088 88.75C52.5909 88.75 53.0657 88.8678 53.4918 89.0933L56.1298 90.6154C56.3735 90.7308 56.5794 90.9129 56.7236 91.1407C56.8678 91.3686 56.9443 91.6327 56.9443 91.9023C56.9443 92.172 56.8678 92.4361 56.7236 92.6639C56.5794 92.8918 56.3735 93.0739 56.1298 93.1893L53.4847 94.7123C53.0618 94.9442 52.586 95.0624 52.1038 95.0553H52.1058Z" fill="#005BEA"/>
<path fill-rule="evenodd" clip-rule="evenodd" d="M38.1362 97.3317L35.5062 98.8547C35.391 98.895 35.2909 98.9698 35.2199 99.0691C35.1488 99.1684 35.1103 99.2873 35.1094 99.4094C35.1085 99.5315 35.1454 99.6509 35.215 99.7512C35.2846 99.8515 35.3836 99.9278 35.4983 99.9697L38.1362 101.493C38.4354 101.644 38.7659 101.723 39.1012 101.723C39.4365 101.723 39.7672 101.644 40.0663 101.493L42.7042 99.9697C42.8209 99.9308 42.9225 99.8564 42.9946 99.7568C43.0668 99.6573 43.1059 99.5376 43.1067 99.4147C43.1075 99.2917 43.0698 99.1716 42.9989 99.0712C42.928 98.9707 42.8274 98.8951 42.7113 98.8547L40.0733 97.3317C39.7728 97.1803 39.4411 97.1016 39.1048 97.1016C38.7684 97.1016 38.4367 97.1803 38.1362 97.3317Z" fill="white"/>
<path fill-rule="evenodd" clip-rule="evenodd" d="M36.2197 99.4119L38.5577 100.763C38.7284 100.841 38.9137 100.881 39.1012 100.881C39.2887 100.881 39.474 100.841 39.6447 100.763L41.9886 99.4119L39.6447 98.0608C39.474 97.9829 39.2887 97.9426 39.1012 97.9426C38.9137 97.9426 38.7283 97.9829 38.5577 98.0608L36.2197 99.4119ZM39.1007 102.564C38.6191 102.571 38.144 102.452 37.7217 102.221L35.0767 100.698C34.8394 100.574 34.6391 100.39 34.496 100.164C34.3528 99.938 34.272 99.6782 34.2617 99.4109C34.2702 99.1422 34.351 98.8808 34.4957 98.6543C34.6404 98.4278 34.8436 98.2446 35.0837 98.1239L37.7217 96.6008C38.1493 96.3756 38.6254 96.2578 39.1088 96.2578C39.5921 96.2578 40.0681 96.3756 40.4957 96.6008L43.1337 98.1239C43.3716 98.2467 43.5726 98.4305 43.7158 98.6567C43.8591 98.8829 43.9395 99.1433 43.9487 99.4109C43.9405 99.6796 43.8597 99.941 43.715 100.168C43.5703 100.394 43.367 100.577 43.1267 100.698L40.4886 102.221C40.0638 102.454 39.5855 102.573 39.1007 102.566V102.564Z" fill="#005BEA"/>
<path fill-rule="evenodd" clip-rule="evenodd" d="M44.6345 101.086L41.9965 102.609C41.8806 102.649 41.7801 102.724 41.709 102.824C41.6379 102.924 41.5996 103.044 41.5996 103.166C41.5996 103.289 41.6379 103.409 41.709 103.509C41.7801 103.608 41.8806 103.684 41.9965 103.724L44.6345 105.247C44.9324 105.398 45.2618 105.477 45.5959 105.477C45.9301 105.477 46.2596 105.398 46.5575 105.247L49.1956 103.731C49.3122 103.692 49.4137 103.618 49.486 103.518C49.5582 103.419 49.5976 103.299 49.5985 103.176C49.5994 103.053 49.5618 102.933 49.491 102.833C49.4201 102.732 49.3196 102.656 49.2035 102.616L46.5656 101.086C46.2663 100.934 45.9354 100.855 45.6 100.855C45.2645 100.855 44.9338 100.934 44.6345 101.086Z" fill="white"/>
<path fill-rule="evenodd" clip-rule="evenodd" d="M42.7173 103.162L45.0553 104.521C45.2259 104.599 45.4112 104.639 45.5988 104.639C45.7863 104.639 45.9716 104.599 46.1422 104.521L48.4792 103.17L46.1422 101.812C45.9716 101.734 45.7863 101.694 45.5988 101.694C45.4112 101.694 45.2259 101.734 45.0553 101.812L42.7173 103.162ZM45.5913 106.315C45.1103 106.321 44.6356 106.206 44.2113 105.979L41.5732 104.449C41.3295 104.335 41.1233 104.153 40.9789 103.926C40.8345 103.699 40.7578 103.435 40.7578 103.166C40.7578 102.897 40.8345 102.633 40.9789 102.406C41.1233 102.179 41.3295 101.997 41.5732 101.883L44.2113 100.353C44.64 100.131 45.1156 100.016 45.5983 100.016C46.0809 100.016 46.5565 100.131 46.9852 100.353L49.6223 101.883C49.8661 101.997 50.0722 102.179 50.2167 102.406C50.3611 102.633 50.4377 102.897 50.4377 103.166C50.4377 103.435 50.3611 103.699 50.2167 103.926C50.0722 104.153 49.8661 104.335 49.6223 104.449L46.9773 105.979C46.5505 106.204 46.0738 106.318 45.5913 106.31V106.315Z" fill="#005BEA"/>
<path fill-rule="evenodd" clip-rule="evenodd" d="M40.0725 93.9833L42.7104 92.4542C43.2464 92.1542 43.2464 91.6543 42.7104 91.3463L40.0725 89.8233C39.7757 89.6687 39.4461 89.5873 39.1115 89.586C38.7768 89.5846 38.4466 89.6632 38.1484 89.8153L35.5105 91.3383C35.3937 91.3774 35.2921 91.4523 35.2201 91.5524C35.1481 91.6524 35.1094 91.7725 35.1094 91.8958C35.1094 92.019 35.1481 92.1391 35.2201 92.2392C35.2921 92.3392 35.3937 92.4141 35.5105 92.4533L38.1405 93.9823C38.4398 94.1344 38.7706 94.2137 39.1063 94.2139C39.442 94.2141 39.7731 94.135 40.0725 93.9833Z" fill="white"/>
<path fill-rule="evenodd" clip-rule="evenodd" d="M36.2268 91.8966L38.5638 93.2556C38.7343 93.3333 38.9195 93.3735 39.1068 93.3735C39.2942 93.3735 39.4793 93.3333 39.6498 93.2556L41.9868 91.9047L39.6498 90.5466C39.4784 90.4722 39.2936 90.4337 39.1068 90.4337C38.92 90.4337 38.7352 90.4722 38.5638 90.5466L36.2268 91.8966ZM39.1068 95.0497C38.6258 95.0589 38.1506 94.9431 37.7278 94.7136L35.0828 93.1836C34.839 93.0691 34.633 92.8877 34.4886 92.6604C34.3443 92.4331 34.2676 92.1694 34.2676 91.9002C34.2676 91.6309 34.3443 91.3672 34.4886 91.1399C34.633 90.9126 34.839 90.7312 35.0828 90.6167L37.7278 89.0867C38.1551 88.8642 38.6301 88.7486 39.1118 88.75C39.5936 88.7514 40.0678 88.8696 40.4938 89.0946L43.1318 90.6167C43.3776 90.7294 43.5857 90.9102 43.7317 91.1377C43.8777 91.3652 43.9553 91.6298 43.9553 91.9002C43.9553 92.1705 43.8777 92.4351 43.7317 92.6626C43.5857 92.8901 43.3776 93.0709 43.1318 93.1836L40.4938 94.7136C40.0684 94.944 39.5905 95.0599 39.1068 95.0497Z" fill="#005BEA"/>
<path fill-rule="evenodd" clip-rule="evenodd" d="M46.5714 90.2316L49.2084 88.7086C49.325 88.6697 49.4266 88.5953 49.4988 88.4957C49.571 88.3962 49.6101 88.2765 49.6109 88.1536C49.6116 88.0306 49.574 87.9106 49.5031 87.8102C49.4322 87.7098 49.3316 87.634 49.2155 87.5936L46.5774 86.0636C46.2778 85.9139 45.9474 85.8359 45.6124 85.8359C45.2775 85.8359 44.9471 85.9139 44.6475 86.0636L42.0094 87.5936C41.4734 87.8936 41.4734 88.3935 42.0094 88.7015L44.6475 90.2316C44.9455 90.3831 45.2751 90.462 45.6094 90.462C45.9437 90.462 46.2734 90.3831 46.5714 90.2316Z" fill="white"/>
<path fill-rule="evenodd" clip-rule="evenodd" d="M42.7247 88.1459L45.0618 89.5039C45.2324 89.5817 45.4177 89.6219 45.6052 89.6219C45.7928 89.6219 45.9781 89.5817 46.1487 89.5039L48.4938 88.153L46.1558 86.7949C45.9834 86.7189 45.7971 86.6796 45.6088 86.6796C45.4204 86.6796 45.2341 86.7189 45.0618 86.7949L42.7247 88.1459ZM45.6047 91.3059C45.123 91.3129 44.6477 91.1943 44.2257 90.9619L41.5878 89.4329C41.3424 89.3199 41.1345 89.139 40.9888 88.9115C40.8431 88.684 40.7656 88.4196 40.7656 88.1494C40.7656 87.8793 40.8431 87.6148 40.9888 87.3873C41.1345 87.1598 41.3424 86.9789 41.5878 86.866L44.2257 85.3429C44.6534 85.1177 45.1295 85 45.6128 85C46.0961 85 46.5721 85.1177 46.9998 85.3429L49.6377 86.866C49.8755 86.9889 50.0764 87.1729 50.2196 87.399C50.3628 87.6252 50.4433 87.8854 50.4528 88.153C50.4431 88.4204 50.3618 88.6803 50.2172 88.9055C50.0725 89.1307 49.87 89.3128 49.6307 89.4329L46.9927 90.9619C46.5677 91.1939 46.0898 91.3118 45.6057 91.304L45.6047 91.3059Z" fill="#005BEA"/>
<path fill-rule="evenodd" clip-rule="evenodd" d="M36.2119 96.213L33.5739 97.735C33.2747 97.8864 32.9442 97.9653 32.6089 97.9653C32.2736 97.9653 31.9431 97.8864 31.6439 97.735L29.0059 96.2059C28.8902 96.1664 28.7898 96.0917 28.7188 95.9923C28.6477 95.8929 28.6094 95.7737 28.6094 95.6515C28.6094 95.5293 28.6477 95.4101 28.7188 95.3107C28.7898 95.2112 28.8902 95.1366 29.0059 95.097L31.6509 93.567C31.9486 93.4151 32.2782 93.3359 32.6124 93.3359C32.9467 93.3359 33.2761 93.4151 33.5739 93.567L36.2119 95.097C36.3291 95.136 36.431 95.2108 36.5033 95.3109C36.5756 95.4111 36.6145 95.5315 36.6145 95.655C36.6145 95.7785 36.5756 95.8989 36.5033 95.999C36.431 96.0992 36.3291 96.1741 36.2119 96.213Z" fill="white"/>
<path fill-rule="evenodd" clip-rule="evenodd" d="M29.7275 95.649L32.0656 97.0081C32.236 97.0858 32.4212 97.126 32.6085 97.126C32.7959 97.126 32.981 97.0858 33.1515 97.0081L35.4885 95.657L33.1515 94.298C32.9823 94.22 32.7983 94.1797 32.6121 94.1797C32.4258 94.1797 32.2417 94.22 32.0725 94.298L29.7275 95.649ZM32.6095 98.8091C32.1258 98.812 31.6491 98.694 31.2225 98.4661L28.5845 96.936C28.3465 96.8133 28.1456 96.6294 28.0023 96.4032C27.8591 96.177 27.7787 95.9167 27.7695 95.649C27.779 95.3817 27.8604 95.1218 28.005 94.8967C28.1497 94.6717 28.3523 94.4897 28.5916 94.37L31.2295 92.847C31.6557 92.6217 32.1305 92.5039 32.6125 92.5039C33.0946 92.5039 33.5693 92.6217 33.9955 92.847L36.6335 94.37C36.877 94.4846 37.0828 94.6661 37.2269 94.8933C37.3711 95.1205 37.4476 95.384 37.4476 95.6531C37.4476 95.9221 37.3711 96.1857 37.2269 96.4128C37.0828 96.64 36.877 96.8215 36.6335 96.936L33.9955 98.4661C33.5693 98.6942 33.0929 98.8114 32.6095 98.8091Z" fill="#005BEA"/>
<path fill-rule="evenodd" clip-rule="evenodd" d="M42.0018 95.1014L44.6399 93.5784C44.9391 93.4266 45.2699 93.3477 45.6053 93.3477C45.9408 93.3477 46.2717 93.4266 46.5709 93.5784L49.2089 95.1014C49.3248 95.1416 49.4253 95.2169 49.4965 95.3168C49.5676 95.4167 49.6057 95.5363 49.6057 95.6589C49.6057 95.7816 49.5676 95.9012 49.4965 96.0011C49.4253 96.101 49.3248 96.1763 49.2089 96.2164L46.5638 97.7384C46.2659 97.8898 45.9366 97.9688 45.6024 97.9688C45.2683 97.9688 44.9388 97.8898 44.6409 97.7384L42.0029 96.2164C41.887 96.1764 41.7864 96.1012 41.7152 96.0013C41.644 95.9015 41.6056 95.782 41.6055 95.6593C41.6054 95.5367 41.6436 95.417 41.7146 95.317C41.7856 95.217 41.886 95.1417 42.0018 95.1014Z" fill="white"/>
<path fill-rule="evenodd" clip-rule="evenodd" d="M42.7181 95.6582L45.0562 97.0093C45.2268 97.0871 45.4121 97.1274 45.5996 97.1274C45.7871 97.1274 45.9725 97.0871 46.1431 97.0093L48.4871 95.6582L46.1431 94.3073C45.9737 94.2294 45.7896 94.1891 45.6031 94.1891C45.4167 94.1891 45.2325 94.2294 45.0631 94.3073L42.7181 95.6582ZM45.6061 98.8102C45.1219 98.8177 44.644 98.6996 44.2191 98.4673L41.5811 96.9373C41.3373 96.823 41.1311 96.6415 40.9867 96.4143C40.8423 96.1871 40.7656 95.9234 40.7656 95.6542C40.7656 95.3849 40.8423 95.1214 40.9867 94.8942C41.1311 94.6669 41.3373 94.4855 41.5811 94.3712L44.2261 92.8483C44.6515 92.6246 45.125 92.5078 45.6056 92.5078C46.0862 92.5078 46.5597 92.6246 46.9851 92.8483L49.6301 94.3782C49.8684 94.4987 50.0697 94.6813 50.2131 94.9065C50.3565 95.1317 50.4367 95.3913 50.4451 95.6582C50.4357 95.9258 50.3553 96.186 50.212 96.4122C50.0688 96.6384 49.868 96.8223 49.6301 96.9452L46.9851 98.4673C46.5625 98.6978 46.0874 98.8149 45.6061 98.8073V98.8102Z" fill="#005BEA"/>
<path fill-rule="evenodd" clip-rule="evenodd" d="M61.496 83.8385L64.1339 82.3165C64.433 82.165 64.7637 82.0859 65.099 82.0859C65.4343 82.0859 65.7649 82.165 66.064 82.3165L68.7019 83.8466C68.8177 83.8858 68.9183 83.9603 68.9895 84.0597C69.0607 84.1591 69.099 84.2783 69.099 84.4005C69.099 84.5228 69.0607 84.642 68.9895 84.7413C68.9183 84.8407 68.8177 84.9152 68.7019 84.9545L66.064 86.4766C65.7649 86.6282 65.4343 86.7072 65.099 86.7072C64.7637 86.7072 64.433 86.6282 64.1339 86.4766L61.496 84.9545C61.3802 84.9141 61.2799 84.8387 61.2089 84.7388C61.1379 84.6388 61.0996 84.5191 61.0996 84.3965C61.0996 84.2739 61.1379 84.1543 61.2089 84.0543C61.2799 83.9543 61.3802 83.8789 61.496 83.8385Z" fill="white"/>
<path fill-rule="evenodd" clip-rule="evenodd" d="M62.2189 84.399L64.5568 85.749C64.7274 85.8269 64.9128 85.8672 65.1003 85.8672C65.2879 85.8672 65.4732 85.8269 65.6438 85.749L67.9808 84.399L65.6428 83.0491C65.4722 82.9713 65.2869 82.9312 65.0994 82.9312C64.9118 82.9312 64.7264 82.9713 64.5558 83.0491L62.2178 84.4L62.2189 84.399ZM65.1008 87.551C64.6166 87.5591 64.1386 87.441 63.7139 87.2081L61.0758 85.6781C60.8324 85.5635 60.6266 85.382 60.4824 85.1548C60.3383 84.9276 60.2617 84.6641 60.2617 84.395C60.2617 84.126 60.3383 83.8624 60.4824 83.6353C60.6266 83.4081 60.8324 83.2266 61.0758 83.1121L63.7208 81.5891C64.1484 81.3639 64.6245 81.2461 65.1078 81.2461C65.5911 81.2461 66.0673 81.3639 66.4949 81.5891L69.1249 83.119C69.369 83.2333 69.5754 83.4149 69.7198 83.6426C69.8643 83.8702 69.9407 84.1343 69.9401 84.4039C69.9394 84.6735 69.8618 84.9374 69.7163 85.1643C69.5708 85.3913 69.3635 85.5719 69.1188 85.6851L66.4808 87.2081C66.0581 87.4393 65.5826 87.5568 65.1008 87.5491V87.551Z" fill="#005BEA"/>
<path fill-rule="evenodd" clip-rule="evenodd" d="M67.9945 87.6001L70.6326 86.0701C70.9317 85.9187 71.2623 85.8398 71.5975 85.8398C71.9328 85.8398 72.2634 85.9187 72.5625 86.0701L75.1936 87.6001C75.3105 87.6393 75.4119 87.7142 75.4839 87.8142C75.5559 87.9142 75.5946 88.0344 75.5946 88.1576C75.5946 88.2808 75.5559 88.4009 75.4839 88.501C75.4119 88.601 75.3105 88.6759 75.1936 88.7151L72.5556 90.2382C72.2566 90.3901 71.926 90.4692 71.5906 90.4692C71.2552 90.4692 70.9245 90.3901 70.6255 90.2382L67.9876 88.7081C67.8715 88.6686 67.7709 88.5937 67.6998 88.4938C67.6288 88.3939 67.591 88.2742 67.5918 88.1516C67.5926 88.0291 67.6318 87.9099 67.7041 87.8109C67.7764 87.7119 67.878 87.6381 67.9945 87.6001Z" fill="white"/>
<path fill-rule="evenodd" clip-rule="evenodd" d="M68.7092 88.1478L71.0472 89.5059C71.2179 89.5837 71.4033 89.624 71.5908 89.624C71.7784 89.624 71.9637 89.5837 72.1343 89.5059L74.4783 88.1548L72.1412 86.7958C71.9689 86.7199 71.7826 86.6808 71.5942 86.6808C71.4059 86.6808 71.2196 86.7199 71.0472 86.7958L68.7092 88.1478ZM71.5983 91.3008C71.1114 91.3112 70.6304 91.1926 70.2042 90.9568L67.5732 89.4338C67.3295 89.3196 67.1233 89.1381 66.9789 88.9109C66.8345 88.6837 66.7578 88.4201 66.7578 88.1509C66.7578 87.8816 66.8345 87.618 66.9789 87.3907C67.1233 87.1635 67.3295 86.9821 67.5732 86.8678L70.2113 85.3378C70.6399 85.1158 71.1156 85 71.5983 85C72.081 85 72.5566 85.1158 72.9852 85.3378L75.6152 86.8678C75.8607 86.9806 76.0686 87.1615 76.2144 87.3889C76.3601 87.6163 76.4376 87.8808 76.4376 88.1509C76.4376 88.421 76.3601 88.6854 76.2144 88.9128C76.0686 89.1403 75.8607 89.321 75.6152 89.4338L72.9773 90.9568C72.5566 91.193 72.0807 91.3132 71.5983 91.3048V91.3008Z" fill="#005BEA"/>
<path fill-rule="evenodd" clip-rule="evenodd" d="M53.0675 86.4767L55.7124 84.9467C55.8282 84.9074 55.9288 84.8328 56 84.7334C56.0712 84.634 56.1095 84.515 56.1095 84.3927C56.1095 84.2704 56.0712 84.1512 56 84.0519C55.9288 83.9525 55.8282 83.8779 55.7124 83.8386L53.0754 82.3167C52.7762 82.165 52.4455 82.0859 52.11 82.0859C51.7745 82.0859 51.4437 82.165 51.1444 82.3167L48.5005 83.8317C48.3846 83.8718 48.284 83.9471 48.2129 84.047C48.1418 84.1469 48.1035 84.2665 48.1035 84.3892C48.1035 84.5118 48.1418 84.6314 48.2129 84.7313C48.284 84.8312 48.3846 84.9065 48.5005 84.9467L51.1444 86.4767C51.4422 86.6283 51.7717 86.7074 52.106 86.7074C52.4402 86.7074 52.7697 86.6283 53.0675 86.4767Z" fill="white"/>
<path fill-rule="evenodd" clip-rule="evenodd" d="M49.2178 84.3915L51.5627 85.7495C51.732 85.8272 51.9161 85.8673 52.1023 85.8673C52.2885 85.8673 52.4726 85.8272 52.6418 85.7495H52.6488L54.9858 84.3986L52.6488 83.0396C52.4773 82.9655 52.2926 82.9274 52.1058 82.9274C51.9191 82.9274 51.7342 82.9655 51.5627 83.0396L49.2178 84.3915ZM52.0988 87.5505C51.6172 87.5574 51.1421 87.4392 50.7198 87.2075L48.0818 85.6775C47.8422 85.5563 47.6396 85.3731 47.495 85.1469C47.3504 84.9207 47.2692 84.6598 47.2598 84.3915C47.2683 84.1238 47.3493 83.8635 47.494 83.6381C47.6388 83.4127 47.8419 83.2307 48.0818 83.1116L50.7198 81.5825C51.1486 81.3603 51.6247 81.2449 52.1077 81.2461C52.5906 81.2473 53.0661 81.3651 53.4938 81.5895L56.1318 83.1126C56.3696 83.2355 56.5704 83.4195 56.7136 83.6456C56.8568 83.8718 56.9373 84.132 56.9468 84.3995C56.937 84.6668 56.8555 84.9266 56.7109 85.1516C56.5663 85.3766 56.3638 85.5587 56.1248 85.6786L53.4868 87.2085C53.0631 87.4402 52.5866 87.5581 52.1038 87.5505H52.0988Z" fill="#005BEA"/>
<path fill-rule="evenodd" clip-rule="evenodd" d="M59.5739 82.7234L62.2119 81.2004C62.3278 81.1603 62.4283 81.085 62.4994 80.9851C62.5705 80.8852 62.6088 80.7656 62.6088 80.6429C62.6088 80.5203 62.5705 80.4007 62.4994 80.3008C62.4283 80.2009 62.3278 80.1256 62.2119 80.0854L59.5739 78.5624C59.2747 78.4109 58.9442 78.332 58.6089 78.332C58.2736 78.332 57.943 78.4109 57.6439 78.5624L55.0059 80.0854C54.8902 80.125 54.7898 80.1996 54.7188 80.2991C54.6477 80.3985 54.6094 80.5177 54.6094 80.6399C54.6094 80.7621 54.6477 80.8813 54.7188 80.9807C54.7898 81.0801 54.8902 81.1549 55.0059 81.1945L57.6439 82.7244C57.9431 82.8756 58.2737 82.9544 58.609 82.9542C58.9443 82.9541 59.2748 82.8749 59.5739 82.7234Z" fill="white"/>
<path fill-rule="evenodd" clip-rule="evenodd" d="M55.7271 80.6387L58.0641 81.9977C58.2346 82.0754 58.4197 82.1156 58.6071 82.1156C58.7944 82.1156 58.9795 82.0754 59.15 81.9977L61.488 80.6467L59.15 79.2877C58.9795 79.21 58.7944 79.1698 58.6071 79.1698C58.4197 79.1698 58.2346 79.21 58.0641 79.2877L55.7271 80.6387ZM58.608 83.7977C58.1238 83.8056 57.6458 83.6874 57.2211 83.4547L54.583 81.9237C54.3379 81.8108 54.1302 81.63 53.9846 81.4027C53.8391 81.1754 53.7617 80.9111 53.7617 80.6412C53.7617 80.3713 53.8391 80.1071 53.9846 79.8798C54.1302 79.6525 54.3379 79.4716 54.583 79.3586L57.2211 77.8357C57.6486 77.6101 58.1246 77.4922 58.608 77.4922C59.0914 77.4922 59.5675 77.6101 59.995 77.8357L62.6331 79.3586C62.8766 79.473 63.0825 79.6545 63.2267 79.8816C63.3709 80.1087 63.4475 80.3722 63.4475 80.6412C63.4475 80.9103 63.3709 81.1738 63.2267 81.4009C63.0825 81.628 62.8766 81.8093 62.6331 81.9237L59.988 83.4547C59.5653 83.6859 59.0898 83.8034 58.608 83.7957V83.7977Z" fill="#005BEA"/>
<path fill-rule="evenodd" clip-rule="evenodd" d="M54.9985 87.5923L57.6365 86.0703C57.9356 85.9188 58.2661 85.8398 58.6014 85.8398C58.9367 85.8398 59.2674 85.9188 59.5665 86.0703L62.2045 87.5923C62.3204 87.6324 62.4209 87.7077 62.4921 87.8076C62.5632 87.9075 62.6013 88.0271 62.6013 88.1498C62.6013 88.2724 62.5632 88.392 62.4921 88.4919C62.4209 88.5919 62.3204 88.6671 62.2045 88.7073L59.5665 90.2302C59.2674 90.3817 58.9367 90.4607 58.6014 90.4607C58.2661 90.4607 57.9356 90.3817 57.6365 90.2302L54.9985 88.7073C54.8826 88.6671 54.7821 88.5919 54.7109 88.4919C54.6398 88.392 54.6016 88.2724 54.6016 88.1498C54.6016 88.0271 54.6398 87.9075 54.7109 87.8076C54.7821 87.7077 54.8826 87.6324 54.9985 87.5923Z" fill="white"/>
<path fill-rule="evenodd" clip-rule="evenodd" d="M55.7129 88.1488L58.0579 89.5078C58.2295 89.5826 58.4149 89.6207 58.6022 89.6195C58.7894 89.6183 58.9743 89.5779 59.1449 89.5009L61.4899 88.1499L59.1449 86.7988C58.9741 86.7215 58.7889 86.6815 58.6014 86.6815C58.414 86.6815 58.2286 86.7215 58.0579 86.7988L55.7129 88.1499V88.1488ZM58.6008 91.3019C58.1168 91.3097 57.6391 91.1912 57.2148 90.9579L54.5769 89.4288C54.3332 89.3144 54.127 89.1329 53.9827 88.9056C53.8383 88.6783 53.7617 88.4146 53.7617 88.1454C53.7617 87.8761 53.8383 87.6124 53.9827 87.3851C54.127 87.1578 54.3332 86.9763 54.5769 86.8618L57.2148 85.3389C57.6423 85.1138 58.1183 84.9961 58.6014 84.9961C59.0846 84.9961 59.5604 85.1138 59.9879 85.3389L62.6259 86.8699C62.8641 86.9902 63.0656 87.1724 63.2092 87.3975C63.3528 87.6225 63.4332 87.882 63.4419 88.1488C63.4317 88.4169 63.3501 88.6775 63.2056 88.9036C63.0611 89.1296 62.8589 89.313 62.6199 89.4348L59.9819 90.9579C59.5592 91.1901 59.0831 91.3093 58.6008 91.3019Z" fill="#005BEA"/>
<path fill-rule="evenodd" clip-rule="evenodd" d="M48.4972 98.8606L64.1312 89.8246C64.4303 89.6728 64.7608 89.5938 65.0962 89.5938C65.4315 89.5938 65.7621 89.6728 66.0612 89.8246L68.6992 91.3536C68.8151 91.3938 68.9156 91.4691 68.9867 91.569C69.0578 91.6689 69.0961 91.7885 69.0961 91.9111C69.0961 92.0338 69.0578 92.1534 68.9867 92.2533C68.9156 92.3532 68.8151 92.4285 68.6992 92.4686L53.0652 101.498C52.765 101.645 52.4349 101.722 52.1002 101.722C51.7656 101.722 51.4353 101.645 51.1351 101.498L48.4972 99.9675C48.3818 99.928 48.2816 99.8535 48.2107 99.7543C48.1398 99.655 48.1016 99.5361 48.1016 99.4141C48.1016 99.2921 48.1398 99.1731 48.2107 99.0739C48.2816 98.9746 48.3818 98.9001 48.4972 98.8606Z" fill="white"/>
<path fill-rule="evenodd" clip-rule="evenodd" d="M49.2161 99.4108L51.5541 100.769C51.7246 100.847 51.9097 100.887 52.097 100.887C52.2844 100.887 52.4695 100.847 52.64 100.769L67.9741 91.9118L65.6371 90.5527C65.4676 90.4753 65.2834 90.4353 65.097 90.4353C64.9107 90.4353 64.7266 90.4753 64.5571 90.5527L49.2161 99.4108ZM52.0901 102.563C51.6095 102.569 51.1351 102.453 50.7111 102.227L48.0731 100.697C47.8294 100.582 47.6232 100.401 47.4789 100.174C47.3345 99.9463 47.2578 99.6826 47.2578 99.4133C47.2578 99.1441 47.3345 98.8804 47.4789 98.6531C47.6232 98.4258 47.8294 98.2442 48.0731 98.1298H48.0801L63.7151 89.0938C64.1418 88.8694 64.6169 88.7527 65.099 88.7539C65.5811 88.7551 66.0555 88.8743 66.4811 89.1008L69.119 90.6238C69.3645 90.7366 69.5725 90.9174 69.7183 91.1448C69.864 91.3722 69.9414 91.6366 69.9414 91.9067C69.9414 92.1769 69.864 92.4413 69.7183 92.6687C69.5725 92.8961 69.3645 93.077 69.119 93.1898L53.4771 102.226C53.0506 102.453 52.5735 102.569 52.0901 102.563Z" fill="#005BEA"/>
<path fill-rule="evenodd" clip-rule="evenodd" d="M83.1008 71.3502L85.7378 69.8271C86.038 69.6788 86.3684 69.6016 86.7032 69.6016C87.0381 69.6016 87.3686 69.6788 87.6688 69.8271L90.3058 71.3562C90.4219 71.3966 90.5225 71.4723 90.5934 71.5728C90.6643 71.6732 90.7021 71.7933 90.7013 71.9163C90.7005 72.0392 90.6613 72.1588 90.5891 72.2583C90.5169 72.3578 90.4154 72.4323 90.2988 72.4712L87.6688 73.9941C87.3696 74.1459 87.0388 74.2251 86.7032 74.2251C86.3677 74.2251 86.037 74.1459 85.7378 73.9941L83.1008 72.4712C82.9873 72.4278 82.8896 72.3511 82.8207 72.251C82.7518 72.1509 82.7148 72.0322 82.7148 71.9106C82.7148 71.7891 82.7518 71.6705 82.8207 71.5704C82.8896 71.4703 82.9873 71.3936 83.1008 71.3502Z" fill="white"/>
<path fill-rule="evenodd" clip-rule="evenodd" d="M83.8114 71.9175L86.1554 73.2684C86.3259 73.3462 86.5111 73.3865 86.6985 73.3865C86.8859 73.3865 87.071 73.3462 87.2415 73.2684L89.5785 71.9175L87.2415 70.5585C87.07 70.4845 86.8852 70.4464 86.6985 70.4464C86.5117 70.4464 86.3269 70.4845 86.1554 70.5585L83.8114 71.9175ZM86.6914 75.0695C86.2088 75.0775 85.7327 74.9567 85.3124 74.7195L82.6744 73.1965C82.436 73.0765 82.2344 72.8942 82.0909 72.6691C81.9475 72.4439 81.8674 72.1843 81.8594 71.9175C81.8689 71.6499 81.9494 71.3897 82.0927 71.1636C82.2359 70.9374 82.4366 70.7534 82.6744 70.6305L85.3204 69.1074C85.7461 68.8804 86.2211 68.7617 86.7035 68.7617C87.1859 68.7617 87.6608 68.8804 88.0864 69.1074L90.7245 70.6305C90.9688 70.7458 91.1752 70.9283 91.3195 71.1567C91.4637 71.3851 91.5399 71.6499 91.5391 71.92C91.5382 72.1902 91.4604 72.4545 91.3147 72.682C91.169 72.9095 90.9615 73.0907 90.7164 73.2045L88.0864 74.7195C87.6619 74.9563 87.1824 75.077 86.6964 75.0695H86.6914Z" fill="#005BEA"/>
<path fill-rule="evenodd" clip-rule="evenodd" d="M89.5983 75.1127L92.2363 73.5897C92.5341 73.4383 92.8633 73.3594 93.1973 73.3594C93.5313 73.3594 93.8606 73.4383 94.1583 73.5897L96.7963 75.1196C96.913 75.1579 97.0147 75.2322 97.0868 75.3317C97.1589 75.4312 97.1978 75.5508 97.1978 75.6737C97.1978 75.7966 97.1589 75.9163 97.0868 76.0157C97.0147 76.1152 96.913 76.1894 96.7963 76.2277L94.1513 77.7577C93.8523 77.9063 93.5228 77.9831 93.189 77.9819C92.8551 77.9807 92.5261 77.9015 92.2283 77.7507L89.5903 76.2277C89.4743 76.1872 89.3737 76.1114 89.3029 76.0109C89.232 75.9104 89.1944 75.7903 89.1953 75.6674C89.1962 75.5444 89.2355 75.4248 89.3078 75.3253C89.38 75.2259 89.4816 75.1515 89.5983 75.1127Z" fill="white"/>
<path fill-rule="evenodd" clip-rule="evenodd" d="M90.3115 75.6696L92.6486 77.0276C92.8197 77.1037 93.0048 77.143 93.192 77.143C93.3793 77.143 93.5644 77.1037 93.7355 77.0276L96.0735 75.6765L93.7355 74.3115C93.5639 74.2373 93.379 74.199 93.192 74.199C93.0051 74.199 92.8201 74.2373 92.6486 74.3115L90.3115 75.6696ZM93.1935 78.8215C92.7093 78.8286 92.2316 78.7104 91.8065 78.4785L89.1686 76.9556C88.9238 76.8408 88.7169 76.6585 88.5721 76.4302C88.4274 76.2019 88.3509 75.937 88.3516 75.6666C88.3522 75.3963 88.4299 75.1318 88.5757 74.9042C88.7215 74.6765 88.9293 74.4953 89.1746 74.3816L91.8055 72.8595C92.2335 72.6352 92.7096 72.5185 93.1928 72.5195C93.6759 72.5206 94.1515 72.6394 94.5785 72.8656L97.2166 74.3886C97.4603 74.503 97.6663 74.6845 97.8107 74.9118C97.955 75.139 98.0317 75.4027 98.0317 75.672C98.0317 75.9413 97.955 76.205 97.8107 76.4323C97.6663 76.6596 97.4603 76.8411 97.2166 76.9556L94.5715 78.4785C94.1497 78.7104 93.6748 78.8279 93.1935 78.8215Z" fill="#005BEA"/>
<path fill-rule="evenodd" clip-rule="evenodd" d="M81.1696 70.2429L83.8156 68.7119C83.9315 68.6718 84.0319 68.5965 84.103 68.4966C84.1742 68.3967 84.2124 68.2771 84.2124 68.1544C84.2124 68.0318 84.1742 67.9122 84.103 67.8123C84.0319 67.7123 83.9315 67.6371 83.8156 67.5969L81.1696 66.074C80.8718 65.9226 80.5425 65.8438 80.2085 65.8438C79.8745 65.8438 79.5453 65.9226 79.2476 66.074L76.6095 67.5969C76.4929 67.6359 76.3914 67.7103 76.3192 67.8098C76.247 67.9093 76.2078 68.029 76.207 68.152C76.2063 68.2749 76.244 68.3949 76.315 68.4954C76.3859 68.5958 76.4864 68.6715 76.6026 68.7119L79.2395 70.2429C79.5398 70.3905 79.8699 70.4673 80.2045 70.4673C80.5391 70.4673 80.8693 70.3905 81.1696 70.2429Z" fill="white"/>
<path fill-rule="evenodd" clip-rule="evenodd" d="M77.3237 68.1558L79.6617 69.5138C79.8327 69.5898 80.0176 69.629 80.2047 69.629C80.3918 69.629 80.5767 69.5898 80.7477 69.5138L83.0847 68.1627L80.7477 66.8048C80.5782 66.7274 80.3941 66.6873 80.2078 66.6873C80.0214 66.6873 79.8372 66.7274 79.6677 66.8048L77.3237 68.1558ZM80.2057 71.3087C79.7241 71.3159 79.2489 71.1978 78.8268 70.9658L76.1818 69.4428C75.9381 69.3274 75.7321 69.1452 75.5879 68.9174C75.4437 68.6895 75.3672 68.4254 75.3672 68.1558C75.3672 67.8861 75.4437 67.622 75.5879 67.3942C75.7321 67.1663 75.9381 66.9842 76.1818 66.8688L78.8268 65.3458C79.2531 65.1202 79.7282 65.0027 80.2106 65.0039C80.6929 65.0051 81.1676 65.125 81.5928 65.3528L84.2378 66.8757C84.4812 66.9903 84.687 67.1719 84.8312 67.3991C84.9753 67.6262 85.0519 67.8898 85.0519 68.1588C85.0519 68.4279 84.9753 68.6914 84.8312 68.9186C84.687 69.1458 84.4812 69.3272 84.2378 69.4418L81.5928 70.9647C81.1678 71.197 80.6899 71.3155 80.2057 71.3087Z" fill="#005BEA"/>
<path fill-rule="evenodd" clip-rule="evenodd" d="M76.6039 75.1127L79.2418 73.5897C79.541 73.4383 79.8716 73.3594 80.2069 73.3594C80.5422 73.3594 80.8727 73.4383 81.1719 73.5897L83.8098 75.1127C83.9257 75.1528 84.0263 75.2281 84.0974 75.328C84.1685 75.4279 84.2068 75.5475 84.2068 75.6702C84.2068 75.7928 84.1685 75.9124 84.0974 76.0123C84.0263 76.1122 83.9257 76.1875 83.8098 76.2277L81.1719 77.7507C80.8727 77.9021 80.5422 77.981 80.2069 77.981C79.8716 77.981 79.541 77.9021 79.2418 77.7507L76.6039 76.2277C76.4884 76.187 76.3885 76.1116 76.3177 76.0117C76.247 75.9119 76.209 75.7925 76.209 75.6702C76.209 75.5478 76.247 75.4285 76.3177 75.3286C76.3885 75.2288 76.4884 75.1533 76.6039 75.1127Z" fill="white"/>
<path fill-rule="evenodd" clip-rule="evenodd" d="M77.3241 75.67L79.6621 77.021C79.8321 77.1005 80.0174 77.1417 80.2051 77.1417C80.3927 77.1417 80.5782 77.1005 80.7482 77.021L83.0851 75.67L80.7482 74.312C80.5768 74.2378 80.3919 74.1995 80.2051 74.1995C80.0183 74.1995 79.8335 74.2378 79.6621 74.312L77.3241 75.67ZM80.2062 78.822C79.7221 78.8282 79.2445 78.71 78.8191 78.479L76.1821 76.9561C75.9448 76.8325 75.7443 76.6484 75.6012 76.4224C75.4581 76.1963 75.3774 75.9363 75.3672 75.6689C75.3757 75.4012 75.4558 75.1406 75.5991 74.9143C75.7424 74.688 75.9437 74.5042 76.1821 74.382L78.8271 72.86C79.2538 72.6363 79.7283 72.5195 80.2101 72.5195C80.6918 72.5195 81.1665 72.6363 81.5931 72.86L84.2311 74.389C84.4705 74.5081 84.6729 74.6902 84.8165 74.9158C84.9601 75.1413 85.0396 75.4016 85.0461 75.6689C85.0377 75.9376 84.9568 76.199 84.8121 76.4255C84.6675 76.6521 84.4643 76.8354 84.2241 76.9561L81.5931 78.479C81.1679 78.7114 80.6897 78.8299 80.2051 78.823L80.2062 78.822Z" fill="#005BEA"/>
<path fill-rule="evenodd" clip-rule="evenodd" d="M83.1002 78.8632L85.7372 77.3401C86.0364 77.1884 86.3672 77.1094 86.7027 77.1094C87.0381 77.1094 87.369 77.1884 87.6682 77.3401L90.2982 78.8701C90.8342 79.1771 90.8342 79.6771 90.2982 79.9781L87.6602 81.5071C87.3611 81.6588 87.0305 81.7379 86.6952 81.7379C86.3599 81.7379 86.0293 81.6588 85.7302 81.5071L83.0922 79.9781C82.9766 79.9372 82.8766 79.8612 82.8062 79.7607C82.7357 79.6603 82.6984 79.5404 82.6992 79.4177C82.7001 79.2951 82.7393 79.1758 82.8112 79.0764C82.883 78.977 82.984 78.9025 83.1002 78.8632Z" fill="white"/>
<path fill-rule="evenodd" clip-rule="evenodd" d="M83.8109 79.4224L86.1479 80.7814C86.3203 80.8572 86.5066 80.8964 86.6949 80.8964C86.8833 80.8964 87.0696 80.8572 87.2419 80.7814L89.579 79.4303L87.2419 78.0724C87.0715 77.9946 86.8863 77.9543 86.699 77.9543C86.5116 77.9543 86.3265 77.9946 86.156 78.0724L83.8109 79.4224ZM86.6909 82.5753C86.2103 82.5814 85.7359 82.4659 85.3119 82.2394L82.674 80.7094C82.4303 80.594 82.2243 80.4118 82.0801 80.184C81.9359 79.9561 81.8594 79.692 81.8594 79.4224C81.8594 79.1527 81.9359 78.8886 82.0801 78.6608C82.2243 78.4329 82.4303 78.2508 82.674 78.1354L85.3119 76.6134C85.7401 76.3901 86.216 76.2734 86.699 76.2734C87.1819 76.2734 87.6577 76.3901 88.0859 76.6134L90.7159 78.1433C90.9597 78.2576 91.1659 78.439 91.3103 78.6663C91.4547 78.8935 91.5315 79.1572 91.5315 79.4264C91.5315 79.6956 91.4547 79.9593 91.3103 80.1865C91.1659 80.4137 90.9597 80.5951 90.7159 80.7094L88.078 82.2323C87.6549 82.4646 87.1785 82.5828 86.6959 82.5753H86.6909Z" fill="#005BEA"/>
<path fill-rule="evenodd" clip-rule="evenodd" d="M68.1709 77.7502L70.8159 76.2272C70.9318 76.187 71.0323 76.1118 71.1034 76.0118C71.1745 75.9119 71.2128 75.7923 71.2128 75.6697C71.2128 75.547 71.1745 75.4274 71.1034 75.3275C71.0323 75.2276 70.9318 75.1523 70.8159 75.1122L68.1709 73.5822C67.8731 73.4305 67.5436 73.3516 67.2094 73.3516C66.8751 73.3516 66.5457 73.4305 66.2479 73.5822L63.6099 75.1052C63.4935 75.1449 63.3925 75.22 63.3209 75.3199C63.2494 75.4199 63.2109 75.5398 63.2109 75.6627C63.2109 75.7857 63.2494 75.9055 63.3209 76.0055C63.3925 76.1055 63.4935 76.1805 63.6099 76.2202L66.2479 77.7502C66.5458 77.9017 66.8752 77.9806 67.2094 77.9806C67.5435 77.9806 67.873 77.9017 68.1709 77.7502Z" fill="white"/>
<path fill-rule="evenodd" clip-rule="evenodd" d="M64.3267 75.6641L66.6716 77.022C66.8421 77.0997 67.0273 77.1399 67.2146 77.1399C67.402 77.1399 67.5872 77.0997 67.7577 77.022L70.0956 75.671L67.7577 74.313C67.5872 74.2352 67.402 74.195 67.2146 74.195C67.0272 74.195 66.8421 74.2352 66.6716 74.313L64.3267 75.6641ZM67.2076 78.817C66.7257 78.824 66.2502 78.7058 65.8276 78.474L63.1826 76.9511C62.9382 76.8361 62.7317 76.6537 62.5873 76.4254C62.4429 76.1972 62.3665 75.9324 62.3672 75.6622C62.3679 75.3921 62.4458 75.1279 62.5914 74.9004C62.7371 74.6729 62.9447 74.4917 63.1897 74.3781L65.8276 72.855C66.2546 72.6307 66.7299 72.5142 67.2122 72.5156C67.6944 72.517 68.169 72.6363 68.5946 72.863L71.2396 74.385C71.4831 74.4996 71.689 74.681 71.8331 74.9082C71.9773 75.1354 72.0538 75.3989 72.0538 75.668C72.0538 75.937 71.9773 76.2006 71.8331 76.4277C71.689 76.6549 71.4831 76.8365 71.2396 76.9511L68.5946 78.474C68.1692 78.7061 67.6921 78.8242 67.2076 78.817Z" fill="#005BEA"/>
<path fill-rule="evenodd" clip-rule="evenodd" d="M74.6708 73.9976L77.3158 72.4746C77.4296 72.4314 77.5276 72.3546 77.5968 72.2544C77.666 72.1542 77.703 72.0353 77.703 71.9136C77.703 71.7918 77.666 71.673 77.5968 71.5728C77.5276 71.4726 77.4296 71.3957 77.3158 71.3525L74.6777 69.8296C74.3782 69.6796 74.0478 69.6016 73.7128 69.6016C73.3778 69.6016 73.0474 69.6796 72.7478 69.8296L70.1097 71.3525C69.9938 71.3927 69.8934 71.468 69.8223 71.5679C69.7511 71.6678 69.7129 71.7874 69.7129 71.91C69.7129 72.0327 69.7511 72.1523 69.8223 72.2522C69.8934 72.3521 69.9938 72.4274 70.1097 72.4675L72.7478 73.9966C73.0466 74.145 73.3756 74.2224 73.7092 74.2225C74.0428 74.2227 74.3719 74.1457 74.6708 73.9976Z" fill="white"/>
<path fill-rule="evenodd" clip-rule="evenodd" d="M70.8335 71.9081L73.1705 73.2661C73.3398 73.3439 73.5238 73.3842 73.7101 73.3842C73.8963 73.3842 74.0803 73.3439 74.2495 73.2661H74.2576L76.5946 71.9152L74.2576 70.5562C74.0868 70.4787 73.9016 70.4386 73.7141 70.4386C73.5266 70.4386 73.3413 70.4787 73.1705 70.5562L70.8335 71.9081ZM73.7135 75.0671C73.2282 75.0762 72.7494 74.9552 72.3265 74.717L69.6896 73.1941C69.4441 73.0813 69.2362 72.9005 69.0905 72.6731C68.9447 72.4457 68.8672 72.1812 68.8672 71.9111C68.8672 71.641 68.9447 71.3766 69.0905 71.1492C69.2362 70.9218 69.4441 70.7408 69.6896 70.6281L72.3265 69.1051C72.7528 68.8796 73.2278 68.7617 73.7101 68.7617C74.1923 68.7617 74.6672 68.8796 75.0935 69.1051L77.7385 70.6281C77.982 70.7426 78.1879 70.9242 78.332 71.1514C78.4762 71.3786 78.5527 71.6421 78.5527 71.9111C78.5527 72.1802 78.4762 72.4437 78.332 72.6709C78.1879 72.8981 77.982 73.0795 77.7385 73.1941L75.0935 74.717C74.6729 74.9545 74.1965 75.0754 73.7135 75.0671Z" fill="#005BEA"/>
<path fill-rule="evenodd" clip-rule="evenodd" d="M70.1106 78.8633L72.7486 77.3402C73.0464 77.1885 73.3759 77.1094 73.7101 77.1094C74.0443 77.1094 74.3739 77.1885 74.6716 77.3402L77.3165 78.8633C77.4326 78.9038 77.5332 78.9795 77.604 79.08C77.6749 79.1804 77.7124 79.3006 77.7116 79.4236C77.7107 79.5465 77.6714 79.6662 77.5991 79.7656C77.5269 79.8651 77.4253 79.9394 77.3086 79.9783L74.6706 81.5002C74.3713 81.6519 74.0406 81.7308 73.7051 81.7308C73.3696 81.7308 73.0389 81.6519 72.7396 81.5002L70.1016 79.9783C69.9855 79.9377 69.8851 79.8618 69.8144 79.7612C69.7436 79.6607 69.7061 79.5404 69.7071 79.4175C69.708 79.2945 69.7475 79.175 69.8198 79.0756C69.8922 78.9762 69.9939 78.902 70.1106 78.8633Z" fill="white"/>
<path fill-rule="evenodd" clip-rule="evenodd" d="M70.8257 79.4215L73.1637 80.7805C73.3342 80.858 73.5193 80.8982 73.7067 80.8982C73.894 80.8982 74.0792 80.858 74.2498 80.7805L76.5867 79.4215L74.2498 78.0715C74.0805 77.9944 73.8969 77.954 73.7109 77.9528C73.525 77.9516 73.3409 77.9897 73.1707 78.0646L70.8257 79.4226V79.4215ZM73.7067 82.5746C73.2224 82.5829 72.7443 82.4647 72.3197 82.2316L69.6818 80.7085C69.4381 80.5931 69.2321 80.4109 69.0879 80.1831C68.9437 79.9553 68.8672 79.6911 68.8672 79.4215C68.8672 79.1519 68.9437 78.8879 69.0879 78.66C69.2321 78.4322 69.4381 78.2499 69.6818 78.1345H69.6897L72.3267 76.6125C72.753 76.3873 73.228 76.2695 73.7102 76.2695C74.1924 76.2695 74.6674 76.3873 75.0938 76.6125L77.7386 78.1426C77.9761 78.2631 78.1766 78.4456 78.3188 78.6708C78.4611 78.8959 78.5399 79.1553 78.5468 79.4215C78.5382 79.6893 78.458 79.9498 78.3147 80.1761C78.1714 80.4025 77.9701 80.5863 77.7317 80.7085L75.0938 82.2316C74.6689 82.4639 74.1909 82.5821 73.7067 82.5746Z" fill="#005BEA"/>
<path fill-rule="evenodd" clip-rule="evenodd" d="M76.6028 82.6172L79.2407 81.0942C79.5398 80.9425 79.8705 80.8633 80.2058 80.8633C80.5412 80.8633 80.8717 80.9425 81.1708 81.0942L83.8087 82.6241C83.9251 82.6634 84.0262 82.7384 84.0975 82.8384C84.1689 82.9384 84.2068 83.0583 84.2061 83.1812C84.2053 83.304 84.1657 83.4235 84.0931 83.5226C84.0206 83.6217 83.9186 83.6954 83.8018 83.7332L81.1708 85.2622C80.8706 85.4136 80.539 85.4924 80.2028 85.4924C79.8665 85.4924 79.535 85.4136 79.2347 85.2622L76.6038 83.7332C76.4879 83.6929 76.3875 83.6175 76.3164 83.5176C76.2453 83.4177 76.2071 83.2982 76.207 83.1755C76.2069 83.0529 76.2449 82.9333 76.3158 82.8333C76.3867 82.7332 76.487 82.6577 76.6028 82.6172Z" fill="white"/>
<path fill-rule="evenodd" clip-rule="evenodd" d="M77.3182 83.1759L79.6632 84.5338C79.8337 84.6116 80.0188 84.6519 80.2062 84.6519C80.3935 84.6519 80.5788 84.6116 80.7493 84.5338L83.0862 83.1829L80.7493 81.8239C80.5788 81.7462 80.3935 81.7061 80.2062 81.7061C80.0188 81.7061 79.8337 81.7462 79.6632 81.8239L77.3182 83.1748V83.1759ZM80.1982 86.3358C79.7156 86.344 79.2395 86.2232 78.8192 85.9858L76.1823 84.4629C75.9437 84.343 75.7421 84.1607 75.5986 83.9355C75.4552 83.7104 75.3751 83.4507 75.3672 83.1838C75.3757 82.9161 75.4559 82.6555 75.5992 82.4292C75.7426 82.2029 75.9439 82.0191 76.1823 81.8969L78.8273 80.3749C79.2533 80.1492 79.7281 80.0312 80.2102 80.0312C80.6923 80.0312 81.1672 80.1492 81.5933 80.3749L84.2312 81.8969C84.4691 82.0196 84.6701 82.2036 84.8134 82.4298C84.9566 82.656 85.037 82.9163 85.0463 83.1838C85.0375 83.4514 84.9565 83.7116 84.8118 83.9368C84.667 84.162 84.464 84.3438 84.2242 84.4629L81.5933 85.9858C81.1673 86.2235 80.686 86.3442 80.1982 86.3358Z" fill="#005BEA"/>
<path fill-rule="evenodd" clip-rule="evenodd" d="M58.5217 123.394V120.206H58.4718C56.8482 120.283 55.2335 119.923 53.7968 119.163L17.5448 98.1957C17.1353 97.9915 16.7704 97.7083 16.4711 97.3623C16.1717 97.0163 15.9439 96.6143 15.8008 96.1797V99.3688C15.9438 99.8043 16.1715 100.207 16.4708 100.554C16.7701 100.902 17.1351 101.186 17.5448 101.392L53.7968 122.359C55.234 123.117 56.8488 123.475 58.4718 123.395L58.5217 123.394Z" fill="#005BEA"/>
<path fill-rule="evenodd" clip-rule="evenodd" d="M43.068 55.1532C42.8833 55.1531 42.704 55.0921 42.5575 54.9798C42.411 54.8675 42.3055 54.71 42.2574 54.5318C42.2094 54.3535 42.2215 54.1643 42.2917 53.9936C42.362 53.8228 42.4864 53.6801 42.646 53.5872L58.451 44.4582C58.5465 44.3989 58.6528 44.3594 58.7638 44.3421C58.8748 44.3247 58.9882 44.3299 59.0971 44.3572C59.2061 44.3846 59.3085 44.4334 59.3982 44.5011C59.4878 44.5688 59.563 44.6539 59.6191 44.7513C59.6753 44.8486 59.7112 44.9562 59.725 45.0677C59.7387 45.1792 59.7298 45.2924 59.6989 45.4004C59.6681 45.5085 59.6157 45.6092 59.5451 45.6966C59.4745 45.784 59.387 45.8563 59.2879 45.9092L43.482 55.0381C43.3569 55.1131 43.2138 55.1529 43.068 55.1532Z" fill="#005BEA"/>
<path fill-rule="evenodd" clip-rule="evenodd" d="M43.068 49.0048C42.8833 49.0047 42.704 48.9438 42.5575 48.8315C42.411 48.7191 42.3055 48.5616 42.2574 48.3833C42.2094 48.2051 42.2215 48.016 42.2917 47.8453C42.362 47.6745 42.4864 47.5316 42.646 47.4388L58.451 38.3099C58.5465 38.2506 58.6528 38.211 58.7638 38.1936C58.8748 38.1763 58.9882 38.1814 59.0971 38.2088C59.2061 38.2361 59.3085 38.2851 59.3982 38.3528C59.4878 38.4205 59.563 38.5055 59.6191 38.6028C59.6753 38.7002 59.7112 38.8078 59.725 38.9194C59.7387 39.0309 59.7298 39.144 59.6989 39.252C59.6681 39.36 59.6157 39.4607 59.5451 39.5481C59.4745 39.6355 59.387 39.7079 59.2879 39.7608L43.482 48.8898C43.3569 48.9647 43.2138 49.0044 43.068 49.0048Z" fill="#005BEA"/>
<path fill-rule="evenodd" clip-rule="evenodd" d="M43.068 61.6874C42.8833 61.6873 42.704 61.6264 42.5575 61.5141C42.411 61.4018 42.3055 61.2442 42.2574 61.066C42.2094 60.8877 42.2215 60.6986 42.2917 60.5279C42.362 60.3572 42.4864 60.2143 42.646 60.1214L55.428 52.7364C55.523 52.6802 55.6283 52.6437 55.7376 52.6287C55.847 52.6138 55.9582 52.6208 56.0648 52.6495C56.1714 52.6782 56.2712 52.7279 56.3583 52.7957C56.4453 52.8635 56.5181 52.9482 56.572 53.0445C56.6837 53.2379 56.7142 53.4676 56.6566 53.6834C56.599 53.8992 56.4582 54.0835 56.265 54.1955L43.483 61.5734C43.3575 61.6482 43.2141 61.6876 43.068 61.6874Z" fill="#005BEA"/>
</g>
</g>
<path d="M16.4856 155.154C16.0003 155.154 15.613 155.079 15.3236 154.93C15.0436 154.781 14.843 154.524 14.7216 154.16C14.6003 153.787 14.5396 153.264 14.5396 152.592V148.938H13.5456V148H14.5396V145.858H15.6176V148H17.8156V148.938H15.6176V152.27C15.6176 152.765 15.6363 153.152 15.6736 153.432C15.7203 153.703 15.8136 153.894 15.9536 154.006C16.0936 154.118 16.313 154.174 16.6116 154.174C16.705 154.174 16.8263 154.169 16.9756 154.16C17.125 154.151 17.2743 154.141 17.4236 154.132C17.5823 154.113 17.7223 154.099 17.8436 154.09L17.9136 155C17.783 155.019 17.629 155.037 17.4516 155.056C17.2743 155.084 17.097 155.107 16.9196 155.126C16.7516 155.145 16.607 155.154 16.4856 155.154ZM21.5758 155.14C20.8758 155.14 20.3205 155.005 19.9098 154.734C19.5085 154.463 19.2192 154.062 19.0418 153.53C18.8645 152.998 18.7758 152.335 18.7758 151.542C18.7758 150.655 18.8972 149.946 19.1398 149.414C19.3825 148.873 19.7232 148.481 20.1618 148.238C20.6005 147.986 21.1185 147.86 21.7158 147.86C22.6492 147.86 23.3538 148.121 23.8298 148.644C24.3058 149.157 24.5438 149.988 24.5438 151.136L24.4878 151.962H19.8818C19.8912 152.69 20.0265 153.241 20.2878 153.614C20.5492 153.987 21.0205 154.174 21.7018 154.174C21.9632 154.174 22.2478 154.169 22.5558 154.16C22.8732 154.141 23.1858 154.123 23.4938 154.104C23.8018 154.085 24.0632 154.067 24.2778 154.048L24.3058 154.902C24.0818 154.939 23.8065 154.977 23.4798 155.014C23.1625 155.051 22.8358 155.079 22.4998 155.098C22.1638 155.126 21.8558 155.14 21.5758 155.14ZM19.8818 151.08H23.4518C23.4518 150.221 23.3118 149.624 23.0318 149.288C22.7612 148.943 22.3225 148.77 21.7158 148.77C21.3238 148.77 20.9925 148.849 20.7218 149.008C20.4512 149.157 20.2412 149.4 20.0918 149.736C19.9518 150.072 19.8818 150.52 19.8818 151.08ZM28.7562 155.14C28.0189 155.14 27.4402 155.019 27.0202 154.776C26.6002 154.524 26.3015 154.123 26.1242 153.572C25.9562 153.021 25.8722 152.293 25.8722 151.388C25.8722 150.539 25.9655 149.857 26.1522 149.344C26.3482 148.821 26.6609 148.443 27.0902 148.21C27.5195 147.977 28.0795 147.86 28.7702 147.86C28.9289 147.86 29.1202 147.874 29.3442 147.902C29.5775 147.921 29.8155 147.949 30.0582 147.986C30.3009 148.014 30.5109 148.042 30.6882 148.07L30.6462 148.966C30.4875 148.947 30.3055 148.929 30.1002 148.91C29.8949 148.891 29.6942 148.877 29.4982 148.868C29.3022 148.849 29.1389 148.84 29.0082 148.84C28.4762 148.84 28.0609 148.924 27.7622 149.092C27.4729 149.26 27.2675 149.531 27.1462 149.904C27.0342 150.268 26.9782 150.763 26.9782 151.388C26.9782 152.069 27.0295 152.615 27.1322 153.026C27.2349 153.427 27.4309 153.717 27.7202 153.894C28.0095 154.071 28.4389 154.16 29.0082 154.16C29.1389 154.16 29.3022 154.155 29.4982 154.146C29.7035 154.127 29.9089 154.109 30.1142 154.09C30.3289 154.071 30.5155 154.057 30.6742 154.048L30.7022 154.944C30.5155 154.972 30.3009 155 30.0582 155.028C29.8155 155.056 29.5775 155.079 29.3442 155.098C29.1109 155.126 28.9149 155.14 28.7562 155.14ZM32.2639 155V144.962H33.3419V148.378C33.5099 148.303 33.7105 148.229 33.9439 148.154C34.1865 148.07 34.4432 148 34.7139 147.944C34.9845 147.888 35.2412 147.86 35.4839 147.86C35.9692 147.86 36.3659 147.925 36.6739 148.056C36.9819 148.177 37.2199 148.378 37.3879 148.658C37.5652 148.929 37.6865 149.283 37.7519 149.722C37.8172 150.151 37.8499 150.674 37.8499 151.29V155H36.7579V151.332C36.7579 150.725 36.7205 150.24 36.6459 149.876C36.5805 149.512 36.4452 149.251 36.2399 149.092C36.0345 148.924 35.7172 148.84 35.2879 148.84C35.0545 148.84 34.8119 148.863 34.5599 148.91C34.3172 148.947 34.0885 148.999 33.8739 149.064C33.6592 149.129 33.4819 149.19 33.3419 149.246V155H32.2639ZM39.7971 155V148H40.8751V148.49C41.0337 148.397 41.2297 148.303 41.4631 148.21C41.7057 148.117 41.9624 148.037 42.2331 147.972C42.5037 147.897 42.7651 147.86 43.0171 147.86C43.5024 147.86 43.8991 147.925 44.2071 148.056C44.5151 148.177 44.7531 148.378 44.9211 148.658C45.0984 148.929 45.2197 149.283 45.2851 149.722C45.3597 150.151 45.3971 150.674 45.3971 151.29V155H44.3051V151.332C44.3051 150.725 44.2677 150.24 44.1931 149.876C44.1277 149.512 43.9877 149.251 43.7731 149.092C43.5677 148.924 43.2504 148.84 42.8211 148.84C42.5877 148.84 42.3451 148.868 42.0931 148.924C41.8504 148.971 41.6217 149.036 41.4071 149.12C41.1924 149.195 41.0151 149.269 40.8751 149.344V155H39.7971ZM47.3303 155V148H48.4083V155H47.3303ZM47.3303 146.46V145.2H48.4083V146.46H47.3303ZM53.0101 155.14C52.2728 155.14 51.6941 155.019 51.2741 154.776C50.8541 154.524 50.5554 154.123 50.3781 153.572C50.2101 153.021 50.1261 152.293 50.1261 151.388C50.1261 150.539 50.2194 149.857 50.4061 149.344C50.6021 148.821 50.9148 148.443 51.3441 148.21C51.7734 147.977 52.3334 147.86 53.0241 147.86C53.1828 147.86 53.3741 147.874 53.5981 147.902C53.8314 147.921 54.0694 147.949 54.3121 147.986C54.5548 148.014 54.7648 148.042 54.9421 148.07L54.9001 148.966C54.7414 148.947 54.5594 148.929 54.3541 148.91C54.1488 148.891 53.9481 148.877 53.7521 148.868C53.5561 148.849 53.3928 148.84 53.2621 148.84C52.7301 148.84 52.3148 148.924 52.0161 149.092C51.7268 149.26 51.5214 149.531 51.4001 149.904C51.2881 150.268 51.2321 150.763 51.2321 151.388C51.2321 152.069 51.2834 152.615 51.3861 153.026C51.4888 153.427 51.6848 153.717 51.9741 153.894C52.2634 154.071 52.6928 154.16 53.2621 154.16C53.3928 154.16 53.5561 154.155 53.7521 154.146C53.9574 154.127 54.1628 154.109 54.3681 154.09C54.5828 154.071 54.7694 154.057 54.9281 154.048L54.9561 154.944C54.7694 154.972 54.5548 155 54.3121 155.028C54.0694 155.056 53.8314 155.079 53.5981 155.098C53.3648 155.126 53.1688 155.14 53.0101 155.14ZM58.0438 155.14C57.3998 155.14 56.9098 154.958 56.5738 154.594C56.2378 154.23 56.0698 153.698 56.0698 152.998C56.0698 152.541 56.1491 152.167 56.3078 151.878C56.4664 151.589 56.7044 151.369 57.0218 151.22C57.3484 151.061 57.7498 150.963 58.2258 150.926L60.3818 150.716V150.114C60.3818 149.638 60.2744 149.302 60.0598 149.106C59.8544 148.91 59.5464 148.812 59.1358 148.812C58.9024 148.812 58.6224 148.821 58.2958 148.84C57.9784 148.859 57.6611 148.882 57.3438 148.91C57.0264 148.938 56.7464 148.966 56.5038 148.994L56.4478 148.168C56.6718 148.121 56.9424 148.075 57.2598 148.028C57.5771 147.981 57.9084 147.944 58.2538 147.916C58.5991 147.879 58.9164 147.86 59.2058 147.86C59.7378 147.86 60.1718 147.944 60.5078 148.112C60.8438 148.271 61.0864 148.518 61.2358 148.854C61.3944 149.181 61.4738 149.601 61.4738 150.114V153.656C61.4924 153.861 61.5718 154.011 61.7118 154.104C61.8611 154.197 62.0478 154.258 62.2718 154.286L62.2298 155.14C62.0991 155.14 61.9731 155.135 61.8518 155.126C61.7304 155.117 61.6138 155.098 61.5018 155.07C61.3991 155.051 61.2964 155.028 61.1938 155C61.0724 154.953 60.9558 154.897 60.8438 154.832C60.7411 154.767 60.6384 154.687 60.5358 154.594C60.3584 154.669 60.1298 154.748 59.8498 154.832C59.5791 154.916 59.2851 154.986 58.9678 155.042C58.6598 155.107 58.3518 155.14 58.0438 155.14ZM58.2258 154.23C58.4778 154.23 58.7391 154.207 59.0098 154.16C59.2804 154.113 59.5371 154.057 59.7798 153.992C60.0224 153.927 60.2231 153.866 60.3818 153.81V151.528L58.3518 151.724C57.9318 151.761 57.6284 151.883 57.4418 152.088C57.2644 152.293 57.1758 152.587 57.1758 152.97C57.1758 153.362 57.2644 153.67 57.4418 153.894C57.6191 154.118 57.8804 154.23 58.2258 154.23ZM63.6291 155V144.962H64.7071V155H63.6291ZM72.0729 155.14C71.8582 155.14 71.5969 155.126 71.2889 155.098C70.9902 155.07 70.6915 155.037 70.3929 155C70.0942 154.953 69.8282 154.911 69.5949 154.874L69.6509 153.936C69.8842 153.964 70.1455 153.997 70.4349 154.034C70.7335 154.071 71.0229 154.104 71.3029 154.132C71.5829 154.151 71.8069 154.16 71.9749 154.16C72.3575 154.16 72.6749 154.127 72.9269 154.062C73.1789 153.987 73.3702 153.866 73.5009 153.698C73.6315 153.53 73.6969 153.292 73.6969 152.984C73.6969 152.751 73.6455 152.569 73.5429 152.438C73.4495 152.307 73.2675 152.2 72.9969 152.116C72.7355 152.032 72.3529 151.953 71.8489 151.878C71.3262 151.794 70.8875 151.691 70.5329 151.57C70.1875 151.439 69.9309 151.248 69.7629 150.996C69.5949 150.744 69.5109 150.385 69.5109 149.918C69.5109 149.395 69.6322 148.985 69.8749 148.686C70.1175 148.387 70.4302 148.177 70.8129 148.056C71.2049 147.925 71.6109 147.86 72.0309 147.86C72.2922 147.86 72.5769 147.874 72.8849 147.902C73.2022 147.93 73.5102 147.967 73.8089 148.014C74.1075 148.051 74.3642 148.089 74.5789 148.126L74.5509 149.064C74.3269 149.027 74.0655 148.994 73.7669 148.966C73.4682 148.929 73.1695 148.901 72.8709 148.882C72.5722 148.854 72.3109 148.84 72.0869 148.84C71.8069 148.84 71.5549 148.873 71.3309 148.938C71.1069 148.994 70.9295 149.097 70.7989 149.246C70.6682 149.395 70.6029 149.605 70.6029 149.876C70.6029 150.081 70.6495 150.249 70.7429 150.38C70.8362 150.501 71.0135 150.604 71.2749 150.688C71.5362 150.772 71.9142 150.856 72.4089 150.94C72.9875 151.033 73.4495 151.15 73.7949 151.29C74.1495 151.43 74.4062 151.626 74.5649 151.878C74.7235 152.13 74.8029 152.485 74.8029 152.942C74.8029 153.483 74.6909 153.917 74.4669 154.244C74.2522 154.561 73.9395 154.79 73.5289 154.93C73.1275 155.07 72.6422 155.14 72.0729 155.14ZM78.5383 155.14C77.941 155.14 77.4837 155.019 77.1663 154.776C76.849 154.533 76.6297 154.155 76.5083 153.642C76.3963 153.129 76.3403 152.466 76.3403 151.654V148H77.4183V151.654C77.4183 152.27 77.4463 152.76 77.5023 153.124C77.5677 153.488 77.703 153.754 77.9083 153.922C78.1137 154.081 78.4217 154.16 78.8323 154.16C79.243 154.16 79.6163 154.104 79.9523 153.992C80.2883 153.88 80.559 153.768 80.7643 153.656V148H81.8423V155H80.7643V154.51C80.4657 154.678 80.139 154.827 79.7843 154.958C79.439 155.079 79.0237 155.14 78.5383 155.14ZM83.8615 158.094V148H84.9395V148.504C85.0888 148.411 85.2755 148.317 85.4995 148.224C85.7328 148.121 85.9802 148.037 86.2415 147.972C86.5028 147.897 86.7548 147.86 86.9975 147.86C87.5948 147.86 88.0802 147.986 88.4535 148.238C88.8268 148.481 89.1022 148.863 89.2795 149.386C89.4662 149.909 89.5595 150.585 89.5595 151.416C89.5595 152.331 89.4522 153.063 89.2375 153.614C89.0322 154.155 88.7008 154.547 88.2435 154.79C87.7955 155.023 87.2122 155.14 86.4935 155.14C86.2042 155.14 85.9102 155.121 85.6115 155.084C85.3222 155.047 85.0982 155.014 84.9395 154.986V158.094H83.8615ZM86.4375 154.188C86.9415 154.188 87.3382 154.095 87.6275 153.908C87.9262 153.721 88.1362 153.427 88.2575 153.026C88.3788 152.615 88.4395 152.079 88.4395 151.416C88.4395 150.473 88.2995 149.811 88.0195 149.428C87.7395 149.036 87.3475 148.84 86.8435 148.84C86.6195 148.84 86.3862 148.868 86.1435 148.924C85.9102 148.98 85.6862 149.05 85.4715 149.134C85.2568 149.209 85.0795 149.288 84.9395 149.372V154.048C85.0888 154.067 85.3082 154.095 85.5975 154.132C85.8868 154.169 86.1668 154.188 86.4375 154.188ZM91.258 158.094V148H92.336V148.504C92.4853 148.411 92.672 148.317 92.896 148.224C93.1293 148.121 93.3767 148.037 93.638 147.972C93.8993 147.897 94.1513 147.86 94.394 147.86C94.9913 147.86 95.4767 147.986 95.85 148.238C96.2233 148.481 96.4987 148.863 96.676 149.386C96.8627 149.909 96.956 150.585 96.956 151.416C96.956 152.331 96.8487 153.063 96.634 153.614C96.4287 154.155 96.0973 154.547 95.64 154.79C95.192 155.023 94.6087 155.14 93.89 155.14C93.6007 155.14 93.3067 155.121 93.008 155.084C92.7187 155.047 92.4947 155.014 92.336 154.986V158.094H91.258ZM93.834 154.188C94.338 154.188 94.7347 154.095 95.024 153.908C95.3227 153.721 95.5327 153.427 95.654 153.026C95.7753 152.615 95.836 152.079 95.836 151.416C95.836 150.473 95.696 149.811 95.416 149.428C95.136 149.036 94.744 148.84 94.24 148.84C94.016 148.84 93.7827 148.868 93.54 148.924C93.3067 148.98 93.0827 149.05 92.868 149.134C92.6533 149.209 92.476 149.288 92.336 149.372V154.048C92.4853 154.067 92.7047 154.095 92.994 154.132C93.2833 154.169 93.5633 154.188 93.834 154.188ZM101.342 155.14C100.558 155.14 99.9472 155.005 99.5085 154.734C99.0792 154.463 98.7758 154.053 98.5985 153.502C98.4305 152.951 98.3465 152.256 98.3465 151.416C98.3465 150.613 98.4398 149.951 98.6265 149.428C98.8225 148.905 99.1398 148.513 99.5785 148.252C100.017 147.991 100.605 147.86 101.342 147.86C102.089 147.86 102.682 147.991 103.12 148.252C103.559 148.513 103.872 148.905 104.058 149.428C104.254 149.951 104.352 150.613 104.352 151.416C104.352 152.256 104.264 152.951 104.086 153.502C103.918 154.053 103.615 154.463 103.176 154.734C102.747 155.005 102.136 155.14 101.342 155.14ZM101.342 154.202C101.884 154.202 102.29 154.109 102.56 153.922C102.831 153.726 103.008 153.423 103.092 153.012C103.186 152.601 103.232 152.069 103.232 151.416C103.232 150.772 103.176 150.259 103.064 149.876C102.952 149.493 102.761 149.218 102.49 149.05C102.22 148.882 101.837 148.798 101.342 148.798C100.857 148.798 100.474 148.882 100.194 149.05C99.9238 149.218 99.7325 149.493 99.6205 149.876C99.5085 150.259 99.4525 150.772 99.4525 151.416C99.4525 152.069 99.4945 152.601 99.5785 153.012C99.6718 153.423 99.8538 153.726 100.124 153.922C100.395 154.109 100.801 154.202 101.342 154.202ZM106.065 155V148H107.143V148.938C107.32 148.817 107.544 148.686 107.815 148.546C108.085 148.397 108.384 148.257 108.711 148.126C109.037 147.995 109.364 147.902 109.691 147.846V148.952C109.373 149.017 109.051 149.106 108.725 149.218C108.398 149.321 108.095 149.433 107.815 149.554C107.544 149.675 107.32 149.783 107.143 149.876V155H106.065ZM113.214 155.154C112.729 155.154 112.341 155.079 112.052 154.93C111.772 154.781 111.571 154.524 111.45 154.16C111.329 153.787 111.268 153.264 111.268 152.592V148.938H110.274V148H111.268V145.858H112.346V148H114.544V148.938H112.346V152.27C112.346 152.765 112.365 153.152 112.402 153.432C112.449 153.703 112.542 153.894 112.682 154.006C112.822 154.118 113.041 154.174 113.34 154.174C113.433 154.174 113.555 154.169 113.704 154.16C113.853 154.151 114.003 154.141 114.152 154.132C114.311 154.113 114.451 154.099 114.572 154.09L114.642 155C114.511 155.019 114.357 155.037 114.18 155.056C114.003 155.084 113.825 155.107 113.648 155.126C113.48 155.145 113.335 155.154 113.214 155.154Z" fill="black"/>
<defs>
<clipPath id="clip0_9_94251">
<rect width="129" height="125" fill="white"/>
</clipPath>
<clipPath id="clip1_9_94251">
<rect width="122" height="125" fill="white" transform="translate(7 1)"/>
</clipPath>
</defs>
</svg>
