<svg width="305" height="251" viewBox="0 0 305 251" fill="none" xmlns="http://www.w3.org/2000/svg">
<path d="M284.841 224.618C286.485 224.628 288.102 224.207 289.533 223.397C294.258 220.715 296.974 214.086 296.974 205.208C296.974 189.878 288.774 172.45 278.696 166.356C274.525 163.832 270.371 163.496 267.003 165.406C262.278 168.086 259.562 174.717 259.562 183.593C259.562 198.925 267.762 216.353 277.839 222.445C279.933 223.795 282.354 224.547 284.841 224.618ZM271.709 165.833C273.89 165.911 276.009 166.585 277.838 167.781C287.472 173.608 295.313 190.397 295.313 205.207C295.313 213.344 292.846 219.602 288.713 221.943C285.848 223.568 282.383 223.248 278.693 221.017C269.058 215.191 261.218 198.403 261.218 183.591C261.218 175.454 263.685 169.198 267.818 166.854C269.004 166.18 270.345 165.828 271.709 165.836V165.833Z" fill="#DEE4F8"/>
<path opacity="0.33" d="M292.022 221.556C293.665 221.566 295.281 221.146 296.711 220.336C301.442 217.654 304.152 211.026 304.152 202.148C304.152 186.818 295.954 169.388 285.875 163.294C281.705 160.77 277.55 160.434 274.183 162.344C269.458 165.024 266.742 171.655 266.742 180.533C266.742 195.863 274.942 213.293 285.019 219.385C287.113 220.735 289.535 221.486 292.022 221.556ZM285.019 164.721C294.653 170.547 302.494 187.337 302.494 202.147C302.494 210.284 300.029 216.542 295.898 218.884C293.033 220.507 289.568 220.187 285.878 217.957C276.244 212.131 268.403 195.341 268.403 180.531C268.403 172.392 270.87 166.136 275.003 163.794C277.868 162.171 281.333 162.491 285.022 164.721H285.019Z" fill="#DEE4F8"/>
<path d="M270.676 170.536C280.538 176.501 288.55 193.596 288.55 208.675C288.55 223.754 280.538 231.162 270.676 225.198C260.813 219.234 252.801 202.139 252.801 187.059C252.801 171.98 260.813 164.575 270.676 170.536Z" fill="#F6F8FA" stroke="#DEE4F8" stroke-width="2"/>
<path d="M267.538 203.05C267.48 203.05 267.423 203.043 267.367 203.03C267.256 203.004 267.152 202.953 267.064 202.881C266.976 202.809 266.905 202.717 266.857 202.613L264.038 196.501C263.955 196.32 263.946 196.113 264.015 195.926C264.083 195.738 264.223 195.586 264.403 195.502C264.584 195.418 264.79 195.41 264.977 195.479C265.163 195.548 265.315 195.688 265.399 195.869L267.817 201.109L278.087 192.854C278.242 192.731 278.439 192.674 278.636 192.695C278.833 192.717 279.013 192.816 279.137 192.971C279.199 193.048 279.245 193.137 279.272 193.231C279.3 193.326 279.308 193.426 279.297 193.524C279.287 193.622 279.257 193.718 279.209 193.804C279.162 193.891 279.098 193.967 279.021 194.029L268.003 202.885C267.871 202.991 267.707 203.049 267.538 203.05Z" fill="#DEE4F8"/>
<path fill-rule="evenodd" clip-rule="evenodd" d="M95.7422 -38.7433C95.7422 -38.8483 95.7837 -38.949 95.8577 -39.0232C95.9317 -39.0975 96.0321 -39.1392 96.1367 -39.1392C96.2413 -39.1392 96.3416 -39.0975 96.4156 -39.0232C96.4896 -38.949 96.5312 -38.8483 96.5312 -38.7433V78.6942C96.5312 82.3823 97.1934 85.0732 98.5517 87.2349C99.9099 89.3967 101.992 91.0736 104.818 92.7062L252.605 188.529C252.651 188.554 252.692 188.588 252.725 188.629C252.758 188.67 252.782 188.717 252.797 188.768C252.811 188.819 252.815 188.872 252.809 188.925C252.802 188.977 252.785 189.028 252.759 189.074C252.733 189.119 252.698 189.159 252.656 189.191C252.614 189.223 252.566 189.246 252.514 189.259C252.463 189.272 252.41 189.274 252.358 189.266C252.306 189.258 252.256 189.239 252.212 189.211L104.427 93.3942C101.491 91.6931 99.3234 89.9506 97.8857 87.6594C96.4479 85.3683 95.7429 82.5412 95.7429 78.6964L95.7422 -38.7433Z" fill="#DEE4F8"/>
<path fill-rule="evenodd" clip-rule="evenodd" d="M88.1387 -33.8049C88.1387 -33.9102 88.1804 -34.0111 88.2546 -34.0856C88.3287 -34.1601 88.4294 -34.2019 88.5343 -34.2019C88.6392 -34.2019 88.7399 -34.1601 88.8141 -34.0856C88.8883 -34.0111 88.9299 -33.9102 88.9299 -33.8049V103.691C88.9299 107.545 89.3642 110.739 90.8627 113.577C92.3612 116.416 94.9404 118.922 99.2372 121.411L169.826 162.313C170.492 162.691 171.046 163.241 171.432 163.905C171.817 164.569 172.02 165.323 172.02 166.092C172.02 166.86 171.817 167.615 171.432 168.279C171.046 168.943 170.492 169.492 169.826 169.871L106.793 206.394C106.749 206.42 106.699 206.437 106.648 206.444C106.597 206.451 106.544 206.447 106.495 206.434C106.445 206.42 106.398 206.397 106.357 206.365C106.316 206.334 106.281 206.294 106.256 206.249C106.23 206.204 106.213 206.155 106.206 206.103C106.2 206.052 106.203 205.999 106.217 205.949C106.23 205.899 106.253 205.852 106.285 205.811C106.316 205.77 106.356 205.735 106.4 205.71L169.43 169.188C169.976 168.88 170.431 168.431 170.747 167.888C171.051 167.339 171.211 166.721 171.211 166.093C171.211 165.465 171.051 164.847 170.747 164.297C170.432 163.755 169.978 163.306 169.432 162.998L98.8419 122.096C94.4094 119.525 91.7349 116.916 90.1644 113.947C88.5939 110.978 88.1394 107.665 88.1394 103.691L88.1387 -33.8049Z" fill="#DEE4F8"/>
<path fill-rule="evenodd" clip-rule="evenodd" d="M79.4312 -28.9726C79.4312 -29.0779 79.4729 -29.1789 79.5471 -29.2533C79.6213 -29.3278 79.7219 -29.3696 79.8269 -29.3696C79.9318 -29.3696 80.0324 -29.3278 80.1066 -29.2533C80.1808 -29.1789 80.2225 -29.0779 80.2225 -28.9726V109.412C80.1754 112.694 81.0138 115.927 82.649 118.77C84.2841 121.612 86.655 123.957 89.5105 125.557L128.708 148.22C129.375 148.599 129.929 149.148 130.315 149.812C130.701 150.476 130.905 151.231 130.906 152C130.906 152.768 130.704 153.523 130.319 154.188C129.934 154.853 129.381 155.403 128.715 155.783L-16.5718 240.055C-16.6621 240.104 -16.7679 240.116 -16.8667 240.088C-16.9656 240.06 -17.0497 239.994 -17.1012 239.905C-17.1527 239.816 -17.1674 239.71 -17.1424 239.61C-17.1173 239.51 -17.0544 239.424 -16.967 239.37L128.319 155.099C128.865 154.788 129.319 154.338 129.635 153.794C129.951 153.25 130.118 152.632 130.118 152.002C130.118 151.373 129.951 150.754 129.635 150.21C129.319 149.666 128.865 149.216 128.319 148.906L89.119 126.243C86.1433 124.574 83.6724 122.129 81.9674 119.166C80.2623 116.204 79.3866 112.834 79.4327 109.413L79.4312 -28.9726Z" fill="#DEE4F8"/>
<path d="M74.4589 246.401C72.8157 246.41 71.1985 245.989 69.7669 245.179C65.0419 242.497 62.3262 235.868 62.3262 226.99C62.3262 211.66 70.5259 194.232 80.6044 188.138C84.7752 185.614 88.9294 185.278 92.2969 187.188C97.0219 189.868 99.7377 196.499 99.7377 205.375C99.7377 220.707 91.5379 238.135 81.4609 244.228C79.3671 245.577 76.9464 246.329 74.4589 246.401ZM87.5914 187.616C85.41 187.694 83.2911 188.367 81.4624 189.563C71.8279 195.39 63.9874 212.179 63.9874 226.989C63.9874 235.126 66.4542 241.384 70.5874 243.726C73.4524 245.351 76.9174 245.031 80.6074 242.799C90.2419 236.973 98.0824 220.185 98.0824 205.373C98.0824 197.236 95.6157 190.98 91.4824 188.636C90.2964 187.961 88.9548 187.61 87.5914 187.618V187.616Z" fill="#DEE4F8"/>
<path opacity="0.33" d="M67.2762 243.339C65.6341 243.348 64.0179 242.928 62.5872 242.118C57.857 239.437 55.1465 232.808 55.1465 223.93C55.1465 208.6 63.3447 191.17 73.4232 185.076C77.594 182.552 81.7482 182.216 85.1157 184.126C89.8407 186.806 92.5565 193.437 92.5565 202.315C92.5565 217.645 84.3567 235.075 74.2797 241.167C72.1856 242.517 69.7641 243.268 67.2762 243.339ZM74.2797 186.503C64.6452 192.329 56.8047 209.119 56.8047 223.929C56.8047 232.066 59.2692 238.324 63.4002 240.666C66.2652 242.289 69.7302 241.969 73.4202 239.739C83.0547 233.913 90.8952 217.123 90.8952 202.313C90.8952 194.174 88.4285 187.918 84.2952 185.577C81.4302 183.953 77.9652 184.273 74.2767 186.503H74.2797Z" fill="#DEE4F8"/>
<path d="M88.6267 192.318C78.7642 198.283 70.752 215.378 70.752 230.457C70.752 245.537 78.7642 252.945 88.6267 246.98C98.4892 241.016 106.501 223.921 106.501 208.842C106.501 193.762 98.4892 186.357 88.6267 192.318Z" fill="#F6F8FA" stroke="#DEE4F8" stroke-width="2"/>
<path d="M86.7539 227.941V217.691" stroke="#DEE4F8" stroke-width="1.5" stroke-linecap="round" stroke-linejoin="round"/>
<path d="M84 226.87L86.754 227.944L89.5073 222.847" stroke="#DEE4F8" stroke-width="1.5" stroke-linecap="round" stroke-linejoin="round"/>
<path d="M93.457 210.754V221.004" stroke="#DEE4F8" stroke-width="1.5" stroke-linecap="round" stroke-linejoin="round"/>
<path d="M96.2123 211.827L93.4591 210.752L90.7051 215.85" stroke="#DEE4F8" stroke-width="1.5" stroke-linecap="round" stroke-linejoin="round"/>
</svg>
