<svg width="65" height="90" viewBox="0 0 65 90" fill="none" xmlns="http://www.w3.org/2000/svg">
<path fill-rule="evenodd" clip-rule="evenodd" d="M52.5252 14.1002C54.9795 15.2002 57.1951 16.8201 59.0096 18.8701L60.8528 15.8701C62.5909 13.2901 56.0682 8.80014 54.6739 10.5901L52.5156 14.1002H52.5252Z" fill="#0064C8"/>
<path fill-rule="evenodd" clip-rule="evenodd" d="M20.37 80.4128L12.625 75.7328L12.8255 75.8528L13.0261 75.9628L13.2267 76.0728L13.4368 76.1728L13.6469 76.2728L13.857 76.3728L14.0671 76.4628L14.2867 76.5528L14.5064 76.6328L14.726 76.7128L14.9456 76.7828L15.1653 76.8528L15.3945 76.9128L15.6237 76.9728L15.8529 77.0228L16.0821 77.0728L16.3208 77.1228L16.5596 77.1628L16.7983 77.2028L17.0371 77.2328L17.2758 77.2628L17.5146 77.2828L17.7629 77.3028H18.0112L18.2595 77.3228H19.014L19.2718 77.3028L19.5297 77.2828L19.7875 77.2628L20.0453 77.2328L20.2936 77.2028L20.5515 77.1728L20.8094 77.1328L21.0672 77.0928L21.325 77.0428L21.5829 76.9928L21.8407 76.9328L22.0986 76.8728L22.366 76.8028L22.6334 76.7328L22.9008 76.6628L23.1682 76.5828L23.4356 76.5028L23.703 76.4128L23.9704 76.3228L24.2473 76.2228L24.5243 76.1228L24.8012 76.0128L25.0782 75.9028L25.3551 75.7828L25.6321 75.6628L25.9091 75.5428L26.186 75.4128L26.4725 75.2728L26.759 75.1328L27.0455 74.9928L27.332 74.8428L27.6185 74.6928L27.905 74.5328L28.1915 74.3728L28.478 74.2028L28.7645 74.0328L29.051 73.8528L29.3375 73.6728L29.624 73.4928L29.9105 73.3028L30.197 73.1128L30.4835 72.9128L30.77 72.7128L31.0565 72.5128L31.343 72.3028L31.6199 72.0928L31.8969 71.8828L32.1739 71.6628L32.4508 71.4428L32.7277 71.2228L33.0047 70.9928L33.2817 70.7628L33.5586 70.5328L33.826 70.2928L34.0934 70.0528L34.3608 69.8128L34.6282 69.5628L34.8956 69.3128L35.163 69.0628L35.4304 68.8028L35.6882 68.5428L35.9461 68.2828L36.204 68.0228L36.4618 67.7528L36.7197 67.4828L36.9775 67.2128L37.2353 66.9328L37.4836 66.6528L37.7415 66.3628L37.9994 66.0728L38.2572 65.7728L38.515 65.4728L38.7729 65.1728L39.0212 64.8728L39.2695 64.5628L39.5178 64.2528L39.7661 63.9428L40.0144 63.6328L40.2531 63.3128L40.4919 62.9928L40.7306 62.6728L40.9694 62.3528L41.2081 62.0228L41.4469 61.6928L41.6761 61.3628L41.9053 61.0328L42.1345 60.7028L42.3637 60.3628L42.5833 60.0228L42.803 59.6828L43.0226 59.3428L43.2423 59.0028L43.462 58.6528L43.6721 58.3028L43.8822 57.9528L44.0922 57.6028L44.3023 57.2528L44.5029 56.9028L44.7034 56.5428L44.904 56.1828L45.1046 55.8228L45.2955 55.4628L45.4866 55.1028L45.6775 54.7428L45.8685 54.3828L46.05 54.0228L46.2315 53.6528L46.4129 53.2828L46.5944 52.9128L46.7663 52.5428L46.9381 52.1728L47.11 51.8028L47.2724 51.4328L47.4347 51.0628L47.5971 50.6828L47.7595 50.3028L47.9122 49.9228L48.065 49.5428L48.2178 49.1628L48.3611 48.7828L48.5044 48.4028L48.6476 48.0228L48.7813 47.6428L48.915 47.2628L49.0487 46.8828L49.1728 46.5028L49.297 46.1228L49.4211 45.7428L49.5357 45.3628L49.6503 44.9828L49.7649 44.6028L49.87 44.2228L49.9751 43.8528L50.0705 43.4828L50.166 43.1128L50.2616 42.7428L50.357 42.3728L50.443 42.0028L50.5289 41.6328L50.6149 41.2628L50.6913 40.8928L50.7677 40.5228L50.8441 40.1528L50.9109 39.7828L50.9778 39.4128L51.0447 39.0528L51.102 38.6928L51.1593 38.3328L51.2166 37.9728L51.2643 37.6128L51.312 37.2528L51.3503 36.8928L51.3884 36.5328L51.4266 36.1728L51.4553 35.8128L51.4839 35.4528L51.5126 35.0928L51.5317 34.7328L51.5508 34.3728L51.5699 34.0128V33.6628L51.589 33.3128V32.9628V32.6128V31.9128L51.5795 31.5728V31.2328L51.5508 30.8928L51.5317 30.5628L51.5126 30.2328L51.4839 29.9028L51.4553 29.5828L51.4266 29.2628L51.3884 28.9428L51.3503 28.6328L51.312 28.3228L51.2643 28.0128L51.2166 27.7128L51.1593 27.4128L51.102 27.1128L51.0447 26.8228L50.9778 26.5328L50.9109 26.2428L50.8441 25.9628L50.7677 25.6828L50.6913 25.4028L50.6149 25.1328L50.5289 24.8628L50.443 24.5928L50.357 24.3328L50.2616 24.0728L50.166 23.8228L50.0705 23.5728L49.9751 23.3228L49.87 23.0828L49.7649 22.8328L49.6503 22.5928L49.5357 22.3528L49.4211 22.1128L49.297 21.8828L49.1728 21.6528L49.0487 21.4328L48.915 21.2128L48.7813 20.9928L48.6476 20.7828L48.5044 20.5728L48.3611 20.3628L48.2178 20.1628L48.065 19.9628L47.9122 19.7728L47.7595 19.5828L47.5971 19.4028L47.4347 19.2228L47.2724 19.0428L47.11 18.8728L46.9381 18.7028L46.7663 18.5428L46.5944 18.3828L46.4129 18.2228L46.2315 18.0728L46.05 17.9228L45.8685 17.7828L45.6775 17.6428L45.4866 17.5128L45.2955 17.3828L45.1046 17.2528L44.904 17.1328L52.6491 21.8128L52.8496 21.9328L53.0406 22.0628L53.2316 22.1928L53.4226 22.3228L53.6136 22.4628L53.7951 22.6028L53.9765 22.7528L54.158 22.9028L54.3394 23.0628L54.5113 23.2228L54.6832 23.3828L54.8551 23.5528L55.0174 23.7228L55.1798 23.9028L55.3422 24.0828L55.5045 24.2628L55.6573 24.4528L55.8101 24.6428L55.9629 24.8428L56.1061 25.0428L56.2494 25.2528L56.3926 25.4628L56.5264 25.6728L56.6601 25.8928L56.7937 26.1128L56.9274 26.3328L57.0516 26.5628L57.1757 26.7928L57.2903 27.0328L57.4049 27.2728L57.5195 27.5128L57.6246 27.7628L57.7297 28.0028L57.8251 28.2528L57.9207 28.5028L58.0161 28.7528L58.1116 29.0128L58.1976 29.2728L58.2835 29.5428L58.3695 29.8128L58.4459 30.0828L58.5223 30.3628L58.5987 30.6428L58.6655 30.9228L58.7324 31.2128L58.7993 31.5028L58.8566 31.7928L58.9138 32.0928L58.9711 32.3928L59.0189 32.6928L59.0666 33.0028L59.1049 33.3128L59.143 33.6228L59.1812 33.9428L59.2099 34.2628L59.2385 34.5828L59.2672 34.9128L59.2863 35.2428L59.3054 35.5728L59.3245 35.9128V36.2528L59.3436 36.5928V36.9428V37.2928V38.0028L59.3341 38.3528V38.7028L59.3054 39.0628L59.2863 39.4228L59.2672 39.7828L59.2385 40.1428L59.2099 40.5028L59.1812 40.8628L59.143 41.2228L59.1049 41.5828L59.0666 41.9428L59.0189 42.3028L58.9711 42.6628L58.9138 43.0228L58.8566 43.3828L58.7993 43.7428L58.7324 44.1028L58.6655 44.4728L58.5987 44.8428L58.5223 45.2128L58.4459 45.5828L58.3695 45.9528L58.2835 46.3228L58.1976 46.6928L58.1116 47.0628L58.0161 47.4328L57.9207 47.8028L57.8251 48.1728L57.7297 48.5428L57.6246 48.9128L57.5195 49.2928L57.4049 49.6728L57.2903 50.0528L57.1757 50.4328L57.0516 50.8128L56.9274 51.1928L56.7937 51.5728L56.6601 51.9528L56.5264 52.3328L56.3926 52.7128L56.2494 53.0928L56.1061 53.4728L55.9629 53.8528L55.8101 54.2328L55.6573 54.6128L55.5045 54.9928L55.3422 55.3728L55.1798 55.7428L55.0174 56.1128L54.8551 56.4828L54.6832 56.8528L54.5113 57.2228L54.3394 57.5928L54.158 57.9628L53.9765 58.3328L53.7951 58.7028L53.6136 59.0628L53.4226 59.4228L53.2316 59.7828L53.0406 60.1428L52.8496 60.5028L52.6491 60.8628L52.4485 61.2228L52.248 61.5828L52.0474 61.9328L51.8373 62.2828L51.6272 62.6328L51.4171 62.9828L51.207 63.3328L50.9874 63.6828L50.7677 64.0228L50.548 64.3628L50.3284 64.7028L50.1087 65.0428L49.8796 65.3828L49.6503 65.7128L49.4211 66.0428L49.192 66.3728L48.9532 66.7028L48.7145 67.0328L48.4757 67.3528L48.237 67.6728L47.9982 67.9928L47.7595 68.3128L47.5111 68.6228L47.2628 68.9328L47.0146 69.2428L46.7663 69.5528L46.5179 69.8528L46.2601 70.1528L46.0022 70.4528L45.7444 70.7528L45.4866 71.0428L45.2287 71.3328L44.9804 71.6128L44.7225 71.8928L44.4647 72.1628L44.2069 72.4328L43.949 72.7028L43.6911 72.9628L43.4333 73.2228L43.1754 73.4828L42.908 73.7428L42.6406 73.9928L42.3732 74.2428L42.1058 74.4928L41.8384 74.7328L41.571 74.9728L41.3036 75.2128L41.0267 75.4428L40.7497 75.6728L40.4728 75.9028L40.1958 76.1228L39.9189 76.3428L39.642 76.5628L39.365 76.7728L39.088 76.9828L38.8016 77.1928L38.515 77.3928L38.2285 77.5928L37.9421 77.7928L37.6555 77.9828L37.3691 78.1728L37.0825 78.3528L36.796 78.5328L36.5096 78.7128L36.223 78.8828L35.9366 79.0528L35.65 79.2128L35.3635 79.3728L35.0771 79.5228L34.7905 79.6728L34.5041 79.8128L34.2175 79.9528L33.931 80.0828L33.6541 80.2128L33.3772 80.3328L33.1002 80.4528L32.8232 80.5728L32.5463 80.6828L32.2694 80.7928L31.9924 80.8928L31.7154 80.9928L31.448 81.0828L31.1806 81.1728L30.9132 81.2528L30.6458 81.3328L30.3784 81.4028L30.111 81.4728L29.8436 81.5428L29.5858 81.6028L29.3279 81.6628L29.0701 81.7128L28.8122 81.7628L28.5544 81.8028L28.2966 81.8428L28.0387 81.8728L27.7904 81.9028L27.5325 81.9328L27.2747 81.9528L27.0169 81.9728H26.759L26.5011 81.9928H25.7467L25.4984 81.9728L25.2501 81.9528L25.0114 81.9328L24.7726 81.9028L24.5339 81.8728L24.2951 81.8328L24.0564 81.7928L23.8176 81.7428L23.5884 81.6928L23.3592 81.6428L23.13 81.5828L22.9008 81.5228L22.6811 81.4528L22.4615 81.3828L22.2419 81.3028L22.0222 81.2228L21.8025 81.1328L21.5924 81.0428L21.3823 80.9428L21.1722 80.8428L20.9622 80.7428L20.7616 80.6328L20.561 80.5228L20.3605 80.4028L20.37 80.4128Z" fill="url(#paint0_linear_9_82646)"/>
<path fill-rule="evenodd" clip-rule="evenodd" d="M34.0866 22.3902C21.6334 29.9202 11.5391 48.2202 11.5391 63.2802C11.5391 78.3402 21.6334 84.4402 34.0866 76.9102C46.5398 69.3802 56.6342 51.0802 56.6342 36.0202C56.6342 20.9602 46.5398 14.8602 34.0866 22.3902Z" fill="#1983DB"/>
<path fill-rule="evenodd" clip-rule="evenodd" d="M28.7766 12.7126L29.4929 12.2927L30.2091 11.8927L30.9158 11.5127L31.6225 11.1627L32.3197 10.8326L33.0168 10.5327L33.7044 10.2527L34.392 9.99265L35.0701 9.76266L35.7386 9.55264L36.4071 9.37265L37.066 9.21265L37.7154 9.07266L38.3648 8.96265L39.0047 8.87265L39.635 8.80264L40.2557 8.75266L40.8669 8.72266H41.4781L42.0702 8.74265L42.6623 8.78265L43.2449 8.84265L43.8179 8.93265L44.3813 9.04266L44.9352 9.17267L45.4796 9.32266L46.0144 9.49265L46.5396 9.68265L47.0553 9.89267L47.5519 10.1227L48.039 10.3827L55.784 15.0627L55.297 14.8026L54.8004 14.5727L54.2847 14.3626L53.7594 14.1727L53.2246 14.0027L52.6803 13.8527L52.1264 13.7227L51.5629 13.6126L50.9899 13.5226L50.4074 13.4626L49.8153 13.4227L49.2232 13.4026H48.612L48.0008 13.4326L47.38 13.4827L46.7497 13.5526L46.1099 13.6427L45.4605 13.7527L44.8111 13.8927L44.1521 14.0526L43.4836 14.2327L42.8151 14.4427L42.1371 14.6727L41.4495 14.9326L40.7619 15.2126L40.0647 15.5127L39.3676 15.8427L38.6609 16.1927L37.9542 16.5727L37.2379 16.9727L36.5217 17.3927L35.8054 17.8427L35.0892 18.3127L34.3825 18.7927L33.6758 19.2927L32.9786 19.8127L32.2815 20.3527L31.5939 20.9026C31.5939 20.9026 31.2501 21.1827 30.9063 21.4727C30.5625 21.7627 30.2282 22.0627 30.2282 22.0627L29.5597 22.6627L28.8912 23.2827L28.2323 23.9227L27.5829 24.5727L26.9335 25.2327L26.2936 25.9127L25.6633 26.6027L25.0426 27.3026L24.4314 28.0226L23.8297 28.7527L23.2376 29.4926L22.6455 30.2426L22.063 31.0127L21.49 31.7927L20.9265 32.5826L20.3726 33.3827L19.8283 34.1927L19.2935 35.0127L18.7682 35.8326L18.2525 36.6627L17.7559 37.5027L17.2689 38.3527L16.7914 39.2027L16.3234 40.0627L15.865 40.9326L15.4162 41.8026L14.9864 42.6826L14.5662 43.5727L14.1556 44.4626L13.764 45.3626L13.382 46.2627L13.0096 47.1626L12.6562 48.0727L12.3124 48.9826L11.9877 49.8927L11.6726 50.8026L11.3765 51.7127L11.09 52.6327L10.8226 53.5526L10.5648 54.4726L10.326 55.3927L10.0968 56.3127L9.88674 57.2326L9.68617 58.1427L9.50474 59.0526L9.34238 59.9627L9.19914 60.8727L9.06542 61.7827L8.95083 62.6826L8.85532 63.5827L8.77893 64.4826L8.72164 65.3727L8.67387 66.2627L8.64522 67.1427V68.0227V68.8827L8.67387 69.7326L8.72164 70.5627L8.77893 71.3827L8.85532 72.1826L8.95083 72.9627L9.06542 73.7326L9.19914 74.4826L9.34238 75.2127L9.50474 75.9226L9.68617 76.6227L9.88674 77.3026L10.0968 77.9627L10.326 78.6026L10.5648 79.2226L10.8226 79.8327L11.09 80.4226L11.3765 80.9926L11.6726 81.5426L11.9877 82.0727L12.3124 82.5827L12.6562 83.0727L13.0096 83.5426L13.382 84.0027L13.764 84.4427L14.1556 84.8626L14.5662 85.2627L14.9864 85.6427L15.4162 86.0027L15.865 86.3427L16.3234 86.6626L8.57839 81.9826L8.11998 81.6626L7.67113 81.3227L7.24137 80.9627L6.82117 80.5827L6.41052 80.1826L6.01897 79.7627L5.63698 79.3227L5.26454 78.8626L4.91117 78.3927L4.56738 77.9027L4.24268 77.3927L3.92752 76.8626L3.63147 76.3127L3.34498 75.7426L3.07758 75.1527L2.81974 74.5426L2.58099 73.9226L2.35177 73.2827L2.14167 72.6227L1.94113 71.9427L1.75968 71.2426L1.59732 70.5327L1.45407 69.8026L1.32039 69.0526L1.20579 68.2827L1.11029 67.5027L1.03387 66.7027L0.967041 65.8827L0.919274 65.0526L0.890625 64.2027V63.3427V62.4627L0.919274 61.5827L0.967041 60.6927L1.03387 59.8026L1.11029 58.9027L1.20579 58.0027L1.32039 57.1026L1.45407 56.1927L1.59732 55.2827L1.75968 54.3727L1.94113 53.4627L2.14167 52.5526L2.35177 51.6327L2.58099 50.7127L2.81974 49.7926L3.07758 48.8727L3.34498 47.9527L3.63147 47.0327L3.92752 46.1227L4.24268 45.2126L4.56738 44.3026L4.91117 43.3927L5.26454 42.4827L5.63698 41.5826L6.01897 40.6826L6.41052 39.7927L6.82117 38.9026L7.24137 38.0127L7.67113 37.1327L8.11998 36.2627L8.57839 35.3927L9.04633 34.5327L9.52383 33.6826L10.0109 32.8326L10.5075 31.9926L11.0232 31.1627L11.5484 30.3427L12.0832 29.5226L12.6276 28.7126L13.1815 27.9127L13.7449 27.1227L14.3179 26.3427L14.9005 25.5727L15.4926 24.8227L16.0847 24.0826L16.6863 23.3527L17.2975 22.6327L17.9183 21.9326L18.5486 21.2426L19.1884 20.5627L19.8378 19.9026L20.4872 19.2527L21.1462 18.6126L21.8147 17.9926L22.4832 17.3927L23.1612 16.8026L23.8488 16.2327L24.5364 15.6826L25.2336 15.1427L25.9307 14.6227L26.6374 14.1227L27.3441 13.6427L28.0604 13.1727L28.7862 12.7227L28.7766 12.7126Z" fill="url(#paint1_linear_9_82646)"/>
<path fill-rule="evenodd" clip-rule="evenodd" d="M19.9911 80.1605L12.2461 75.4805L12.4371 75.6105L12.6376 75.7305L20.3827 80.4105L20.1821 80.2905L19.9911 80.1605Z" fill="#333C5E"/>
<path fill-rule="evenodd" clip-rule="evenodd" d="M52.6696 21.8514L44.9246 17.1714L44.724 17.0514L44.5234 16.9414L52.2685 21.6214L52.469 21.7314L52.6696 21.8514Z" fill="#333C5E"/>
<path fill-rule="evenodd" clip-rule="evenodd" d="M16.792 39.2024C21.8439 30.0424 28.8154 22.0524 36.5223 17.3924C44.2291 12.7324 51.2007 12.2924 56.2526 15.3524C61.3046 18.4124 64.4274 24.9524 64.4274 34.2624C64.4274 43.5724 61.3046 53.9024 56.2526 63.0524C51.2007 72.2024 44.2291 80.2024 36.5223 84.8624C28.8154 89.5224 21.8439 89.9624 16.792 86.9024C11.74 83.8424 8.61719 77.3024 8.61719 67.9924C8.61719 58.6824 11.74 48.3524 16.792 39.2024ZM52.6618 21.8524C50.408 20.5424 47.8104 20.0124 45.251 20.3324C42.1568 20.7424 39.1772 21.8224 36.5128 23.5224C33.2849 25.5324 30.3434 28.0124 27.784 30.8924C22.0827 37.2824 17.8425 44.9624 15.4168 53.3324C14.309 57.0924 13.7264 61.0024 13.6882 64.9324C13.6118 68.1924 14.2039 71.4424 15.4168 74.4524C17.4223 79.6124 22.5124 82.7024 27.784 81.9324C30.8782 81.5324 33.8579 80.4424 36.5128 78.7424C39.7502 76.7324 42.6916 74.2524 45.251 71.3724C50.9524 64.9824 55.183 57.3024 57.6183 48.9424C58.7261 45.1824 59.3086 41.2724 59.3468 37.3424C59.4232 34.0824 58.8311 30.8324 57.6183 27.8324C56.606 25.3424 54.8679 23.2624 52.6618 21.8724V21.8524Z" fill="#F2F5FC" stroke="#F2F5FC"/>
<path d="M48.709 26.5437L32.1016 56.6641L32.697 57.0241L49.3045 26.9037L48.709 26.5437Z" fill="#C9C9C9"/>
<path fill-rule="evenodd" clip-rule="evenodd" d="M33.8852 57.7619L32.6914 57.0418L40.3409 43.1619L49.2988 26.9219L50.483 27.6419L47.5034 33.0518L33.8852 57.7619Z" fill="#EAEAEA"/>
<path fill-rule="evenodd" clip-rule="evenodd" d="M23.9923 56.5203C24.6322 56.1403 25.1479 56.4502 25.1479 57.2202C25.1001 58.0702 24.6704 58.8503 23.9923 59.3103L18.1477 62.8502C17.5079 63.2302 16.9922 62.9203 16.9922 62.1503C17.0399 61.3003 17.4697 60.5203 18.1477 60.0603L23.9923 56.5203ZM47.3898 45.1703C46.75 45.5503 46.2343 45.2403 46.2343 44.4703C46.282 43.6203 46.7118 42.8403 47.3898 42.3803L53.2344 38.8403C53.8743 38.4603 54.39 38.7703 54.39 39.5403C54.3422 40.3903 53.9125 41.1703 53.2344 41.6303L47.3898 45.1703ZM34.5355 65.6903C34.5833 64.8403 35.013 64.0602 35.6911 63.6002C36.3309 63.2202 36.8466 63.5302 36.8466 64.3002V71.3703C36.7989 72.2202 36.3691 73.0003 35.6911 73.4603C35.0512 73.8403 34.5355 73.5303 34.5355 72.7603V65.6903ZM36.8466 36.0103C36.7989 36.8603 36.3787 37.6403 35.6911 38.1003C35.0512 38.4803 34.5355 38.1702 34.5355 37.4002V30.3302C34.5833 29.4802 35.013 28.7002 35.6911 28.2402C36.3309 27.8602 36.8466 28.1703 36.8466 28.9403V36.0103Z" fill="#EAEAEA"/>
<path fill-rule="evenodd" clip-rule="evenodd" d="M39.1019 11.0312V13.6112L39.0827 13.7213L39.0541 13.8312L39.0159 13.9413L38.9681 14.0512L38.9108 14.1613L38.844 14.2712L38.7676 14.3813L38.6817 14.4912L38.5861 14.5912L38.4811 14.6913L38.3665 14.7913L38.2424 14.8913L38.1086 14.9813L37.9654 15.0713L37.8126 15.1613L37.6598 15.2412L37.4975 15.3213L37.3351 15.3913L37.1632 15.4513L36.9913 15.5113L36.8194 15.5612L36.6379 15.6112L36.4565 15.6512L36.2751 15.6913L36.0841 15.7213L35.893 15.7513L35.7021 15.7712H35.511L35.3201 15.7913H34.7471L34.556 15.7712L34.3651 15.7513L34.1741 15.7213L33.983 15.6913L33.8016 15.6512L33.6202 15.6112L33.4387 15.5612L33.2668 15.5113L33.0949 15.4513L32.923 15.3913L32.7606 15.3213L32.5983 15.2412L32.4455 15.1613L32.2927 15.0713L32.1495 14.9813L32.0157 14.8913L31.8916 14.7913L31.777 14.6913L31.672 14.5912L31.5765 14.4912L31.4905 14.3813L31.4141 14.2712L31.3473 14.1613L31.29 14.0512L31.2422 13.9413L31.204 13.8312L31.1753 13.7213L31.1562 13.6112V11.0312L31.1753 11.1413L31.204 11.2513L31.2422 11.3612L31.29 11.4713L31.3473 11.5812L31.4141 11.6913L31.4905 11.8012L31.5765 11.9113L31.672 12.0113L31.777 12.1112L31.8916 12.2112L32.0157 12.3112L32.1495 12.4012L32.2927 12.4912L32.4455 12.5812L32.5983 12.6613L32.7606 12.7412L32.923 12.8112L33.0949 12.8712L33.2668 12.9312L33.4387 12.9813L33.6202 13.0312L33.8016 13.0713L33.983 13.1112L34.1741 13.1413L34.3651 13.1713L34.556 13.1913H34.7471L34.938 13.2112H35.511L35.7021 13.1913L35.893 13.1713L36.0841 13.1413L36.2751 13.1112L36.4565 13.0713L36.6379 13.0312L36.8194 12.9813L36.9913 12.9312L37.1632 12.8712L37.3351 12.8112L37.4975 12.7412L37.6598 12.6613L37.8126 12.5812L37.9654 12.4912L38.1086 12.4012L38.2424 12.3112L38.3665 12.2112L38.4811 12.1112L38.5861 12.0113L38.6817 11.9113L38.7676 11.8012L38.844 11.6913L38.9108 11.5812L38.9681 11.4713L39.0159 11.3612L39.0541 11.2513L39.0827 11.1413L39.1019 11.0312Z" fill="url(#paint2_linear_9_82646)"/>
<path fill-rule="evenodd" clip-rule="evenodd" d="M43.6961 6.49219V8.80219L43.6483 9.05219L43.5815 9.30219L43.4955 9.54221L43.3905 9.7822L43.2663 10.0222L43.1135 10.2622L42.9416 10.4922L42.7506 10.7222L42.5405 10.9422L42.3113 11.1622L42.063 11.3722L41.7956 11.5822L41.5091 11.7822L41.2035 11.9722L40.8788 12.1522L40.5446 12.3222L40.2008 12.4822L39.8474 12.6322L39.4845 12.7722L39.1121 12.8922L38.7301 13.0022L38.3481 13.1022L37.9565 13.1922L37.5554 13.2722L37.1543 13.3422L36.7532 13.3922L36.3426 13.4322L35.9319 13.4622L35.5213 13.4822H35.1106H34.7L34.2893 13.4622L33.8787 13.4322L33.468 13.3922L33.0574 13.3422L32.6563 13.2722L32.2552 13.1922L31.8636 13.1022L31.4816 13.0022L31.0996 12.8922L30.7271 12.7722L30.3643 12.6322L30.0109 12.4822L29.6671 12.3222L29.3329 12.1522L29.0082 11.9722L28.7026 11.7822L28.4161 11.5822L28.1487 11.3722L27.9004 11.1622L27.6712 10.9422L27.4611 10.7222L27.2701 10.4922L27.0982 10.2622L26.9454 10.0222L26.8212 9.7822L26.7162 9.54221L26.6302 9.30219L26.5634 9.05219L26.5156 8.80219V6.49219L26.5634 6.74219L26.6302 6.99219L26.7162 7.23221L26.8212 7.4722L26.9454 7.71219L27.0982 7.95221L27.2701 8.18219L27.4611 8.4122L27.6712 8.6322L27.9004 8.8522L28.1487 9.06219L28.4161 9.27219L28.7026 9.4722L29.0082 9.6622L29.3329 9.84219L29.6671 10.0122L30.0109 10.1722L30.3643 10.3222L30.7271 10.4622L31.0996 10.5822L31.4816 10.6922L31.8636 10.7922L32.2552 10.8822L32.6563 10.9622L33.0574 11.0322L33.468 11.0822L33.8787 11.1222L34.2893 11.1522L34.7 11.1722H35.1106H35.5213L35.9319 11.1522L36.3426 11.1222L36.7532 11.0822L37.1543 11.0322L37.5554 10.9622L37.9565 10.8822L38.3481 10.7922L38.7301 10.6922L39.1121 10.5822L39.4845 10.4622L39.8474 10.3222L40.2008 10.1722L40.5446 10.0122L40.8788 9.84219L41.2035 9.6622L41.5091 9.4722L41.7956 9.27219L42.063 9.06219L42.3113 8.8522L42.5405 8.6322L42.7506 8.4122L42.9416 8.18219L43.1135 7.95221L43.2568 7.71219L43.3809 7.4722L43.486 7.23221L43.5719 6.99219L43.6388 6.74219L43.6865 6.5022L43.6961 6.49219Z" fill="url(#paint3_linear_9_82646)"/>
<path fill-rule="evenodd" clip-rule="evenodd" d="M29.0368 2.31156C32.8664 0.281563 37.3835 0.281563 41.2131 2.31156C44.5747 4.34156 44.5747 7.64158 41.2131 9.67158C37.3835 11.7016 32.8664 11.7016 29.0368 9.67158C25.6752 7.64158 25.6752 4.34156 29.0368 2.31156Z" fill="#F2F5FC" stroke="#F2F5FC"/>
<defs>
<linearGradient id="paint0_linear_9_82646" x1="42.0873" y1="19.3268" x2="42.0873" y2="84.1668" gradientUnits="userSpaceOnUse">
<stop stop-color="white"/>
<stop offset="0.51" stop-color="#CAD1E0"/>
<stop offset="1" stop-color="#C8CEDE"/>
</linearGradient>
<linearGradient id="paint1_linear_9_82646" x1="33.1307" y1="0.763559" x2="33.1307" y2="78.6535" gradientUnits="userSpaceOnUse">
<stop stop-color="white"/>
<stop offset="0.51" stop-color="#CAD1E0"/>
<stop offset="1" stop-color="#C8CEDE"/>
</linearGradient>
<linearGradient id="paint2_linear_9_82646" x1="30.8908" y1="14.3397" x2="30.8908" y2="19.0997" gradientUnits="userSpaceOnUse">
<stop stop-color="white"/>
<stop offset="0.51" stop-color="#CAD1E0"/>
<stop offset="1" stop-color="#C8CEDE"/>
</linearGradient>
<linearGradient id="paint3_linear_9_82646" x1="27.7567" y1="3.02918" x2="27.7567" y2="10.0492" gradientUnits="userSpaceOnUse">
<stop stop-color="white"/>
<stop offset="0.51" stop-color="#CAD1E0"/>
<stop offset="1" stop-color="#C8CEDE"/>
</linearGradient>
</defs>
</svg>
