<svg width="439" height="540" viewBox="0 0 439 540" fill="none" xmlns="http://www.w3.org/2000/svg">
<g opacity="0.79">
<path d="M-89.1055 553.936C-89.1055 553.936 -88.031 257.251 -86.2509 249.846C-84.4708 242.44 -79.1386 245.894 -79.1386 245.894C-77.1287 258.014 -62.847 251.408 -50.9098 253.067L30.4003 300.549L65.8805 313.34L179.142 254.971L176.528 253.462C186.209 248.945 191.752 252 196.991 242.582L204.614 247.12L209.145 248.395L205.961 554.344C205.961 559.376 202.639 564.406 195.997 568.231L87.5409 630.762L82.5235 633.655C69.238 641.312 47.6178 641.312 34.3316 633.655L-79.1408 568.231C-85.6734 564.466 -88.9957 559.533 -89.0996 554.588C-89.1047 554.369 -89.0952 554.149 -89.0864 553.924L-89.1055 553.936Z" fill="url(#paint0_linear_924_4639)"/>
<path d="M-80.6534 242.338L31.2548 177.871C41.043 172.233 52.1532 169.287 63.4532 169.333C74.7532 169.379 85.839 172.415 95.5809 178.133L202.84 241.089C204.573 242.106 206.01 243.559 207.007 245.303C208.004 247.047 208.526 249.021 208.522 251.029C208.518 253.037 207.988 255.009 206.984 256.749C205.98 258.489 204.538 259.936 202.8 260.947L88.6025 327.36C80.5313 332.054 71.3582 334.527 62.018 334.527C52.6778 334.527 43.5047 332.054 35.4335 327.36L-80.6893 259.824C-82.2215 258.932 -83.4922 257.655 -84.3741 256.118C-85.2561 254.582 -85.7185 252.842 -85.7148 251.071C-85.7112 249.3 -85.2418 247.561 -84.3535 246.028C-83.4652 244.496 -82.1893 243.223 -80.6534 242.338Z" fill="url(#paint1_linear_924_4639)"/>
</g>
<g opacity="0.45">
<path d="M142.768 713.192C142.768 713.192 141.799 136.577 143.573 129.174C145.348 121.771 150.686 125.223 150.686 125.223C152.696 137.342 166.977 130.737 178.915 132.395L260.225 179.877L295.705 192.668L408.972 134.303L406.358 132.794C416.039 128.277 421.582 131.332 426.821 121.914L434.444 126.452L438.975 127.727L437.834 713.602C437.834 718.634 434.512 723.664 427.87 727.49L319.414 790.025L314.397 792.918C301.111 800.575 279.491 800.575 266.205 792.918L152.732 727.494C146.2 723.729 142.877 718.796 142.773 713.851C142.768 713.632 142.778 713.412 142.787 713.186L142.768 713.192Z" fill="url(#paint2_linear_924_4639)"/>
<path d="M149.177 121.67L261.085 57.2035C270.873 51.565 281.983 48.6186 293.283 48.6646C304.583 48.7106 315.669 51.7473 325.411 57.4653L432.67 120.421C434.403 121.438 435.84 122.891 436.837 124.635C437.834 126.379 438.356 128.353 438.352 130.361C438.348 132.369 437.818 134.341 436.814 136.081C435.81 137.821 434.368 139.268 432.63 140.279L318.433 206.692C310.361 211.386 301.188 213.859 291.848 213.859C282.508 213.859 273.335 211.386 265.264 206.692L149.141 139.156C147.609 138.264 146.338 136.987 145.456 135.45C144.574 133.914 144.112 132.174 144.115 130.403C144.119 128.632 144.588 126.893 145.477 125.36C146.365 123.828 147.641 122.555 149.177 121.67Z" fill="url(#paint3_linear_924_4639)"/>
</g>
<path d="M267.01 50.2288C282.265 41.6114 297.178 26.9128 309.678 8.17811L309.847 8.08166C322.347 12.3984 337.261 9.90306 352.52 0.931877L353.105 0.589844L352.282 29.0514C349.388 73.1698 334.318 92.3723 310.065 133.391L309.474 133.732C285.221 120.68 270.153 118.852 267.258 78.0698L266.434 50.5584L267.01 50.2288Z" fill="url(#paint4_linear_924_4639)"/>
<path d="M312.779 114.719C331.605 83.5331 341.076 67.8434 343.359 33.6164L343.879 15.6484C331.791 21.1069 320.202 22.8464 309.761 20.7706C299.323 34.883 287.734 46.5059 275.646 54.9867L276.166 72.3553C278.451 103.954 287.921 108.722 306.75 118.202C307.736 118.699 308.739 119.206 309.761 119.723L312.779 114.719Z" fill="url(#paint5_linear_924_4639)"/>
<g opacity="0.79">
<g style="mix-blend-mode:multiply">
<path d="M70.4604 266.977C69.69 266.985 68.9302 266.798 68.252 266.433L43.9882 253.162C43.5039 252.913 43.0952 252.539 42.8043 252.079C42.5134 251.619 42.351 251.09 42.334 250.546C42.3381 250.014 42.4848 249.491 42.7591 249.034C43.0334 248.577 43.425 248.201 43.8937 247.946L93.6658 219.361C94.3401 218.981 95.103 218.787 95.877 218.797C96.6492 218.789 97.4109 218.977 98.0898 219.345L122.351 232.613C122.835 232.862 123.243 233.236 123.534 233.696C123.825 234.156 123.988 234.685 124.005 235.229C124.001 235.762 123.853 236.284 123.579 236.741C123.304 237.199 122.912 237.574 122.444 237.829L72.6716 266.415C71.997 266.793 71.2341 266.987 70.4604 266.977Z" fill="white"/>
<path d="M122.331 232.647C122.809 232.893 123.213 233.262 123.501 233.717C123.788 234.171 123.949 234.694 123.967 235.231C123.962 235.758 123.817 236.274 123.545 236.726C123.274 237.177 122.887 237.548 122.423 237.8L72.6513 266.385C71.9769 266.764 71.2134 266.955 70.4401 266.939C69.6714 266.941 68.9144 266.752 68.2379 266.388L44.0032 253.133C43.5246 252.887 43.1205 252.518 42.8329 252.064C42.5452 251.609 42.3844 251.087 42.3672 250.55C42.3712 250.023 42.5165 249.507 42.7877 249.055C43.0589 248.603 43.4462 248.232 43.9095 247.98L93.6502 219.413C94.3234 219.034 95.084 218.836 95.8569 218.84C96.6282 218.827 97.3898 219.013 98.0681 219.38L122.331 232.647Z" fill="#FEFEFE"/>
<path d="M122.315 232.678C122.788 232.921 123.187 233.285 123.471 233.734C123.755 234.183 123.914 234.699 123.932 235.23C123.927 235.75 123.783 236.26 123.515 236.706C123.247 237.152 122.865 237.519 122.407 237.768L72.6348 266.353C71.9607 266.73 71.1968 266.918 70.4243 266.897C69.6575 266.894 68.9032 266.702 68.2285 266.338L44.0231 253.099C43.5502 252.857 43.1511 252.492 42.8668 252.044C42.5825 251.595 42.4234 251.079 42.4062 250.548C42.4104 250.028 42.5539 249.518 42.8219 249.072C43.0899 248.626 43.4725 248.26 43.9302 248.011L93.6415 219.461C94.3133 219.082 95.0716 218.882 95.8433 218.88C96.6137 218.862 97.3756 219.044 98.0538 219.41L122.315 232.678Z" fill="#FDFDFD"/>
<path d="M122.296 232.706C122.763 232.946 123.158 233.306 123.439 233.749C123.72 234.192 123.877 234.702 123.894 235.226C123.89 235.74 123.747 236.244 123.482 236.684C123.217 237.125 122.839 237.486 122.387 237.732L72.6151 266.317C71.9414 266.693 71.1775 266.878 70.4061 266.852C69.6404 266.843 68.8882 266.649 68.2145 266.286L44.0393 253.063C43.5722 252.823 43.1777 252.463 42.8967 252.02C42.6158 251.577 42.4585 251.067 42.4414 250.543C42.4456 250.029 42.5875 249.526 42.8522 249.086C43.117 248.645 43.4951 248.283 43.9471 248.038L93.6277 219.505C94.298 219.127 95.0535 218.924 95.8236 218.916C96.5931 218.893 97.355 219.073 98.0324 219.438L122.296 232.706Z" fill="#FCFCFC"/>
<path d="M122.279 232.738C122.739 232.975 123.129 233.329 123.406 233.766C123.684 234.203 123.84 234.706 123.858 235.223C123.854 235.731 123.713 236.228 123.451 236.663C123.19 237.098 122.816 237.455 122.369 237.697L72.5972 266.282C71.9239 266.657 71.1601 266.84 70.3897 266.809C69.6257 266.795 68.8761 266.598 68.2041 266.235L44.058 253.028C43.5967 252.792 43.2071 252.437 42.9294 252C42.6516 251.563 42.4959 251.06 42.4785 250.543C42.4826 250.036 42.6228 249.539 42.8843 249.103C43.1459 248.668 43.5193 248.311 43.9658 248.069L93.6157 219.554C94.2862 219.175 95.0411 218.969 95.8115 218.956C96.5799 218.928 97.342 219.104 98.0192 219.468L122.279 232.738Z" fill="#FBFBFB"/>
<path d="M122.261 232.771C122.716 233.004 123.101 233.355 123.375 233.787C123.65 234.219 123.804 234.716 123.821 235.227C123.817 235.728 123.678 236.219 123.419 236.649C123.161 237.078 122.792 237.431 122.351 237.67L72.5787 266.255C71.9056 266.629 71.1413 266.808 70.3718 266.773C69.6092 266.752 68.8625 266.552 68.1922 266.188L44.0762 252.995C43.6203 252.762 43.2352 252.411 42.9608 251.979C42.6864 251.547 42.5327 251.05 42.5156 250.539C42.5196 250.038 42.6579 249.547 42.9163 249.118C43.1746 248.688 43.5436 248.336 43.9847 248.097L93.6037 219.599C94.2723 219.22 95.0241 219.012 95.7924 218.992C96.56 218.959 97.3223 219.133 97.9991 219.497L122.261 232.771Z" fill="#FAFAFB"/>
<path d="M122.243 232.806C122.693 233.036 123.073 233.382 123.344 233.809C123.615 234.235 123.767 234.726 123.785 235.23C123.78 235.725 123.644 236.21 123.388 236.634C123.133 237.058 122.768 237.406 122.333 237.642L72.5604 266.227C71.888 266.601 71.1236 266.779 70.355 266.739C69.5941 266.714 68.8497 266.512 68.1804 266.15L44.0929 252.975C43.6429 252.745 43.2626 252.399 42.9914 251.973C42.7203 251.547 42.5683 251.056 42.5508 250.552C42.5547 250.057 42.6913 249.572 42.9466 249.148C43.2019 248.723 43.5664 248.375 44.0022 248.14L93.5913 219.659C94.2588 219.281 95.0078 219.07 95.7746 219.044C96.5414 219.006 97.3042 219.177 97.9808 219.54L122.243 232.806Z" fill="#F9F9FA"/>
<path d="M122.224 232.834C122.668 233.062 123.044 233.403 123.311 233.824C123.579 234.245 123.73 234.729 123.747 235.227C123.742 235.716 123.607 236.194 123.355 236.612C123.103 237.031 122.743 237.374 122.313 237.607L72.5411 266.192C71.8689 266.564 71.1044 266.738 70.3372 266.691C69.5781 266.661 68.8363 266.456 68.1685 266.094L44.1109 252.938C43.6666 252.711 43.2912 252.37 43.0234 251.949C42.7556 251.529 42.6053 251.044 42.5879 250.546C42.5921 250.058 42.7272 249.58 42.9792 249.162C43.2313 248.743 43.5909 248.4 44.0209 248.167L93.5793 219.704C94.2456 219.326 94.9927 219.113 95.7583 219.081C96.5241 219.038 97.2869 219.207 97.9629 219.568L122.224 232.834Z" fill="#F8F8F9"/>
<path d="M122.205 232.868C122.644 233.092 123.014 233.429 123.279 233.844C123.543 234.259 123.692 234.737 123.71 235.228C123.705 235.711 123.571 236.183 123.322 236.596C123.073 237.009 122.718 237.347 122.293 237.577L72.521 266.162C71.849 266.533 71.0842 266.703 70.3179 266.652C69.5601 266.616 68.8203 266.41 68.1535 266.049L44.1252 252.907C43.6866 252.683 43.3159 252.346 43.0514 251.931C42.7869 251.516 42.6384 251.038 42.6211 250.547C42.6252 250.065 42.7588 249.593 43.0076 249.18C43.2565 248.767 43.6116 248.428 44.036 248.199L93.5637 219.754C94.2291 219.376 94.9739 219.16 95.7382 219.121C96.5029 219.073 97.2659 219.239 97.9414 219.6L122.205 232.868Z" fill="#F7F7F8"/>
<path d="M122.189 232.9C122.622 233.121 122.988 233.454 123.249 233.863C123.51 234.272 123.657 234.744 123.675 235.229C123.671 235.705 123.539 236.17 123.293 236.578C123.047 236.985 122.697 237.32 122.278 237.546L72.5058 266.131C71.8342 266.501 71.0691 266.668 70.304 266.612C69.5484 266.57 68.8115 266.361 68.1463 266.001L44.148 252.875C43.715 252.655 43.349 252.323 43.0878 251.913C42.8265 251.504 42.6796 251.032 42.6621 250.547C42.6662 250.072 42.798 249.606 43.0436 249.199C43.2893 248.791 43.6399 248.457 44.0588 248.231L93.5556 219.803C94.22 219.426 94.9627 219.206 95.7258 219.162C96.4896 219.109 97.253 219.272 97.9283 219.632L122.189 232.9Z" fill="#F6F6F7"/>
<path d="M122.172 232.933C122.599 233.151 122.959 233.479 123.217 233.882C123.474 234.286 123.619 234.751 123.636 235.23C123.632 235.699 123.502 236.158 123.259 236.56C123.017 236.962 122.671 237.292 122.257 237.515L72.485 266.1C71.8135 266.469 71.0481 266.633 70.284 266.572C69.5301 266.524 68.7958 266.313 68.1321 265.953L44.1631 252.843C43.7364 252.625 43.3758 252.298 43.1184 251.894C42.8611 251.491 42.7163 251.026 42.6992 250.547C42.7034 250.078 42.8335 249.619 43.0759 249.217C43.3183 248.815 43.6642 248.486 44.0775 248.263L93.5444 219.852C94.2077 219.475 94.948 219.253 95.7095 219.203C96.4721 219.145 97.2356 219.305 97.9105 219.664L122.172 232.933Z" fill="#F5F5F6"/>
<path d="M122.153 232.962C122.574 233.177 122.931 233.5 123.185 233.898C123.44 234.297 123.583 234.756 123.601 235.228C123.596 235.691 123.468 236.144 123.228 236.54C122.989 236.937 122.647 237.261 122.239 237.481L72.4672 266.066C71.7972 266.434 71.0331 266.595 70.2714 266.53C69.5192 266.477 68.787 266.263 68.1245 265.903L44.1848 252.81C43.763 252.596 43.4063 252.272 43.1516 251.874C42.8969 251.476 42.7535 251.016 42.7363 250.544C42.7404 250.081 42.8688 249.628 43.108 249.232C43.3472 248.835 43.6885 248.51 44.0964 248.291L93.5333 219.898C94.1957 219.521 94.9337 219.296 95.6939 219.24C96.4542 219.177 97.2164 219.334 97.8897 219.692L122.153 232.962Z" fill="#F4F4F5"/>
<path d="M122.135 232.997C122.551 233.208 122.902 233.527 123.154 233.919C123.405 234.312 123.547 234.764 123.565 235.23C123.56 235.686 123.434 236.133 123.197 236.524C122.961 236.915 122.625 237.235 122.222 237.452L72.4502 266.037C71.7802 266.404 71.0153 266.563 70.2544 266.492C69.504 266.433 68.7745 266.217 68.1134 265.858L44.203 252.78C43.7873 252.569 43.4356 252.251 43.1843 251.858C42.933 251.466 42.7911 251.014 42.7734 250.548C42.7776 250.092 42.9043 249.645 43.1405 249.254C43.3766 248.864 43.7134 248.543 44.1158 248.327L93.522 219.952C94.1834 219.575 94.9194 219.348 95.6783 219.285C96.4379 219.217 97.2008 219.372 97.8741 219.729L122.135 232.997Z" fill="#F3F3F4"/>
<path d="M122.118 233.031C122.528 233.24 122.874 233.554 123.122 233.941C123.37 234.328 123.51 234.774 123.528 235.233C123.524 235.683 123.399 236.124 123.166 236.51C122.933 236.896 122.6 237.212 122.203 237.426L72.431 266.011C71.7609 266.377 70.9954 266.532 70.2352 266.456C69.4866 266.392 68.7594 266.173 68.0994 265.815L44.219 252.754C43.8091 252.545 43.4622 252.232 43.2142 251.845C42.9663 251.458 42.8263 251.012 42.8086 250.553C42.8123 250.103 42.9372 249.662 43.1701 249.276C43.403 248.89 43.7355 248.574 44.1327 248.361L93.5082 220.001C94.1687 219.625 94.9025 219.395 95.66 219.326C96.4192 219.254 97.1829 219.406 97.8559 219.765L122.118 233.031Z" fill="#F2F2F3"/>
<path d="M122.101 233.058C122.505 233.264 122.847 233.573 123.092 233.954C123.336 234.336 123.474 234.775 123.492 235.228C123.488 235.671 123.364 236.106 123.134 236.485C122.904 236.865 122.577 237.176 122.185 237.386L72.4133 265.971C71.7433 266.338 70.9771 266.491 70.2174 266.41C69.4705 266.34 68.7454 266.119 68.0867 265.761L44.2363 252.716C43.832 252.511 43.49 252.201 43.2454 251.82C43.0009 251.439 42.863 250.999 42.8457 250.547C42.8497 250.103 42.9728 249.669 43.2026 249.289C43.4323 248.909 43.76 248.598 44.1514 248.389L93.4961 220.048C94.1556 219.672 94.8871 219.439 95.6428 219.364C96.4009 219.286 97.1653 219.434 97.8386 219.791L122.101 233.058Z" fill="#F1F1F3"/>
<path d="M122.085 233.094C122.484 233.296 122.821 233.6 123.062 233.976C123.304 234.352 123.44 234.785 123.458 235.231C123.454 235.668 123.332 236.096 123.105 236.471C122.878 236.845 122.555 237.151 122.17 237.358L72.3975 265.944C71.7272 266.309 70.9602 266.458 70.2016 266.371C69.4574 266.295 68.7356 266.071 68.0789 265.713L44.2579 252.684C43.8592 252.482 43.5218 252.178 43.2804 251.803C43.039 251.427 42.9024 250.994 42.8848 250.548C42.8888 250.111 43.0105 249.682 43.237 249.308C43.4635 248.934 43.7865 248.628 44.1723 248.421L93.4869 220.098C94.1456 219.722 94.875 219.487 95.6293 219.406C96.3867 219.322 97.1518 219.468 97.8252 219.824L122.085 233.094Z" fill="#F0F0F2"/>
<path d="M122.064 233.124C122.457 233.323 122.789 233.623 123.027 233.993C123.265 234.363 123.4 234.789 123.417 235.229C123.413 235.66 123.293 236.082 123.069 236.45C122.846 236.819 122.527 237.121 122.147 237.324L72.3746 265.909C71.7043 266.274 70.9365 266.42 70.1788 266.327C69.4346 266.247 68.7135 266.021 68.0562 265.664L44.2643 252.654C43.8716 252.455 43.539 252.155 43.301 251.785C43.0629 251.415 42.928 250.989 42.9102 250.549C42.9141 250.118 43.0341 249.697 43.2574 249.328C43.4807 248.959 43.7992 248.657 44.1794 248.454L93.4634 220.149C94.121 219.773 94.848 219.535 95.6006 219.448C96.3572 219.359 97.1229 219.501 97.7964 219.857L122.064 233.124Z" fill="#EFF0F1"/>
<path d="M122.046 233.156C122.434 233.352 122.761 233.647 122.996 234.012C123.231 234.376 123.364 234.797 123.382 235.23C123.378 235.654 123.259 236.07 123.039 236.433C122.819 236.796 122.505 237.093 122.13 237.294L72.3577 265.879C71.6873 266.243 70.9188 266.386 70.1619 266.288C69.421 266.201 68.7036 265.973 68.0488 265.617L44.2862 252.62C43.8992 252.425 43.5715 252.13 43.3368 251.765C43.1021 251.401 42.969 250.981 42.9512 250.548C42.9552 250.124 43.0735 249.708 43.2936 249.345C43.5136 248.982 43.8274 248.685 44.2021 248.485L93.4552 220.199C94.1124 219.824 94.8377 219.583 95.5889 219.49C96.3447 219.395 97.1113 219.535 97.7847 219.891L122.046 233.156Z" fill="#EEEFF0"/>
<path d="M122.025 233.188C122.407 233.381 122.73 233.671 122.962 234.03C123.193 234.389 123.325 234.803 123.343 235.229C123.338 235.648 123.221 236.057 123.004 236.415C122.787 236.772 122.477 237.065 122.108 237.262L72.3359 265.847C71.6665 266.21 70.8989 266.35 70.1443 266.248C69.4053 266.155 68.6903 265.925 68.0364 265.569L44.3039 252.589C43.9223 252.396 43.5991 252.106 43.3675 251.747C43.1359 251.388 43.0042 250.974 42.9863 250.548C42.9905 250.13 43.1073 249.721 43.3242 249.363C43.5412 249.006 43.8505 248.713 44.2197 248.516L93.4422 220.245C94.0983 219.87 94.8212 219.627 95.5706 219.527C96.3242 219.428 97.09 219.566 97.7622 219.92L122.025 233.188Z" fill="#EDEEEF"/>
<path d="M122.012 233.221C122.388 233.41 122.706 233.696 122.934 234.05C123.162 234.403 123.292 234.811 123.31 235.231C123.305 235.642 123.19 236.045 122.976 236.397C122.762 236.75 122.458 237.038 122.094 237.232L72.3219 265.817C71.6526 266.179 70.8846 266.316 70.1312 266.209C69.3942 266.111 68.6815 265.878 68.029 265.522L44.325 252.558C43.9494 252.369 43.6311 252.083 43.403 251.73C43.1748 251.377 43.0452 250.97 43.0273 250.55C43.0314 250.138 43.1463 249.735 43.3601 249.383C43.5739 249.031 43.8786 248.743 44.2423 248.549L93.4347 220.296C94.0896 219.921 94.8101 219.675 95.5575 219.569C96.3099 219.465 97.076 219.6 97.7481 219.953L122.012 233.221Z" fill="#ECEDEE"/>
<path d="M121.993 233.252C122.363 233.438 122.677 233.72 122.901 234.067C123.126 234.415 123.254 234.816 123.272 235.23C123.267 235.635 123.154 236.031 122.943 236.378C122.732 236.724 122.432 237.008 122.074 237.199L72.3022 265.784C71.6331 266.145 70.8649 266.279 70.1129 266.167C69.3779 266.063 68.6673 265.828 68.0158 265.473L44.3418 252.525C43.9723 252.339 43.6591 252.058 43.4342 251.712C43.2093 251.365 43.0811 250.964 43.0625 250.552C43.0666 250.146 43.1798 249.75 43.3904 249.403C43.601 249.057 43.9011 248.773 44.2592 248.583L93.4209 220.347C94.0764 219.972 94.7963 219.722 95.5435 219.611C96.2947 219.503 97.0611 219.634 97.7327 219.987L121.993 233.252Z" fill="#EBECED"/>
<path d="M121.974 233.281C122.339 233.464 122.648 233.741 122.869 234.083C123.091 234.425 123.217 234.82 123.235 235.226C123.23 235.625 123.118 236.016 122.911 236.357C122.703 236.698 122.407 236.977 122.055 237.164L72.2826 265.75C71.6138 266.11 70.8454 266.241 70.0948 266.123C69.3619 266.015 68.654 265.777 68.0037 265.423L44.3619 252.491C43.9976 252.308 43.6889 252.031 43.4674 251.689C43.2458 251.347 43.1195 250.952 43.1016 250.546C43.1056 250.147 43.2171 249.756 43.4245 249.415C43.6318 249.074 43.9273 248.795 44.2799 248.608L93.4116 220.39C94.0654 220.016 94.7821 219.764 95.5263 219.646C96.2761 219.532 97.0431 219.66 97.7148 220.012L121.974 233.281Z" fill="#EAEBEC"/>
<path d="M121.958 233.314C122.317 233.494 122.622 233.766 122.84 234.102C123.059 234.438 123.184 234.827 123.202 235.228C123.198 235.62 123.088 236.004 122.884 236.34C122.68 236.675 122.389 236.949 122.042 237.134L72.2699 265.72C71.6012 266.079 70.8324 266.208 70.083 266.085C69.3522 265.97 68.6467 265.73 67.9976 265.376L44.3829 252.46C44.0238 252.281 43.7191 252.009 43.5004 251.673C43.2816 251.336 43.1568 250.948 43.1387 250.547C43.1426 250.155 43.2522 249.771 43.4564 249.435C43.6606 249.1 43.9516 248.825 44.2988 248.641L93.3997 220.441C94.0528 220.067 94.7674 219.812 95.5099 219.688C96.2586 219.569 97.0256 219.695 97.6968 220.047L121.958 233.314Z" fill="#E9EAEB"/>
<path d="M121.94 233.348C122.292 233.525 122.592 233.793 122.807 234.123C123.021 234.454 123.144 234.836 123.162 235.23C123.158 235.616 123.049 235.994 122.848 236.324C122.647 236.654 122.361 236.924 122.02 237.105L72.2475 265.691C71.579 266.049 70.8096 266.174 70.0618 266.046C69.333 265.926 68.6297 265.683 67.9816 265.33L44.3963 252.43C44.0435 252.253 43.7443 251.986 43.5294 251.655C43.3146 251.325 43.1918 250.943 43.1738 250.549C43.1779 250.163 43.2861 249.785 43.4871 249.455C43.688 249.126 43.9743 248.856 44.3157 248.675L93.3859 220.492C94.0381 220.118 94.7504 219.861 95.491 219.731C96.2384 219.606 97.0062 219.729 97.6773 220.08L121.94 233.348Z" fill="#E8E9EB"/>
<path d="M121.922 233.379C122.269 233.553 122.564 233.816 122.775 234.141C122.987 234.466 123.108 234.842 123.126 235.229C123.121 235.609 123.015 235.981 122.817 236.305C122.619 236.63 122.337 236.895 122 237.072L72.2283 265.658C71.5601 266.015 70.7906 266.137 70.0443 266.004C69.3175 265.878 68.6163 265.634 67.9691 265.28L44.413 252.397C44.0659 252.223 43.7712 251.96 43.5596 251.635C43.348 251.31 43.227 250.935 43.209 250.548C43.213 250.168 43.3195 249.796 43.5172 249.472C43.715 249.148 43.9965 248.883 44.3325 248.705L93.3726 220.539C94.0241 220.166 94.7346 219.906 95.4734 219.77C96.2194 219.64 96.9873 219.76 97.6581 220.11L121.922 233.379Z" fill="#E7E8EA"/>
<path d="M121.904 233.413C122.245 233.583 122.535 233.842 122.743 234.161C122.951 234.481 123.071 234.85 123.089 235.23C123.085 235.604 122.98 235.969 122.785 236.288C122.59 236.607 122.313 236.868 121.983 237.042L72.2106 265.627C71.5423 265.984 70.7723 266.103 70.0272 265.965C69.3027 265.834 68.604 265.587 67.9579 265.234L44.431 252.37C44.0896 252.2 43.8 251.942 43.5917 251.622C43.3834 251.303 43.2641 250.934 43.2461 250.553C43.25 250.18 43.3548 249.815 43.5493 249.496C43.7439 249.177 44.0209 248.917 44.3513 248.742L93.3608 220.594C94.0117 220.221 94.7201 219.958 95.4571 219.816C96.2017 219.681 96.9699 219.798 97.6404 220.149L121.904 233.413Z" fill="#E6E7E9"/>
<path d="M121.888 233.441C122.224 233.608 122.509 233.862 122.714 234.175C122.919 234.489 123.037 234.852 123.055 235.226C123.051 235.593 122.947 235.952 122.756 236.266C122.564 236.579 122.292 236.835 121.967 237.006L72.1946 265.592C71.5265 265.948 70.756 266.064 70.0125 265.92C69.2902 265.783 68.5941 265.534 67.9493 265.181L44.4538 252.329C44.1179 252.162 43.8328 251.909 43.6277 251.595C43.4226 251.281 43.305 250.918 43.2871 250.544C43.2911 250.177 43.3942 249.818 43.5855 249.505C43.7768 249.192 44.0493 248.936 44.3741 248.764L93.3528 220.634C94.0031 220.261 94.7095 219.995 95.4447 219.847C96.1877 219.707 96.9563 219.821 97.6266 220.171L121.888 233.441Z" fill="#E5E6E8"/>
<path d="M121.869 233.475C122.199 233.639 122.479 233.888 122.681 234.197C122.882 234.505 122.998 234.861 123.016 235.229C123.012 235.59 122.911 235.943 122.722 236.25C122.534 236.558 122.266 236.809 121.946 236.978L72.1742 265.563C71.5063 265.919 70.7356 266.031 69.9937 265.883C69.2735 265.74 68.5794 265.489 67.9355 265.137L44.4679 252.301C44.1378 252.137 43.8576 251.888 43.6559 251.579C43.4542 251.271 43.3384 250.915 43.3203 250.547C43.3242 250.186 43.4257 249.833 43.6139 249.526C43.8022 249.218 44.0701 248.967 44.3896 248.798L93.3383 220.686C93.9878 220.313 94.6921 220.044 95.4252 219.89C96.1669 219.745 96.9362 219.856 97.6063 220.205L121.869 233.475Z" fill="#E4E5E7"/>
<path d="M121.851 233.505C122.175 233.666 122.451 233.91 122.649 234.213C122.847 234.516 122.961 234.866 122.979 235.227C122.975 235.581 122.875 235.928 122.69 236.23C122.505 236.532 122.242 236.779 121.928 236.944L72.1555 265.529C71.4874 265.884 70.7159 265.994 69.975 265.839C69.2583 265.691 68.5675 265.437 67.9256 265.085L44.488 252.266C44.1638 252.105 43.8883 251.861 43.69 251.559C43.4916 251.256 43.3775 250.906 43.3594 250.545C43.3635 250.191 43.4633 249.845 43.6483 249.543C43.8333 249.241 44.0967 248.994 44.4105 248.829L93.3284 220.734C93.9774 220.361 94.6796 220.09 95.4108 219.93C96.1513 219.779 96.9211 219.887 97.5912 220.236L121.851 233.505Z" fill="#E3E4E6"/>
<path d="M121.832 233.538C122.15 233.696 122.421 233.936 122.616 234.232C122.811 234.529 122.923 234.873 122.941 235.227C122.937 235.575 122.839 235.916 122.657 236.212C122.475 236.509 122.216 236.751 121.908 236.913L72.1357 265.499C71.4677 265.853 70.6961 265.96 69.9568 265.801C69.2404 265.647 68.55 265.39 67.9073 265.039L44.4991 252.236C44.1806 252.079 43.9099 251.839 43.7148 251.542C43.5197 251.245 43.4071 250.902 43.3887 250.547C43.3928 250.2 43.4908 249.859 43.6726 249.563C43.8544 249.266 44.1131 249.024 44.4214 248.863L93.3086 220.785C93.9571 220.413 94.6575 220.139 95.3867 219.973C96.1256 219.817 96.8958 219.922 97.5657 220.27L121.832 233.538Z" fill="#E2E3E5"/>
<path d="M121.816 233.569C122.129 233.724 122.395 233.959 122.586 234.251C122.778 234.542 122.889 234.879 122.907 235.227C122.903 235.569 122.806 235.902 122.627 236.194C122.448 236.485 122.194 236.722 121.891 236.88L72.119 265.466C71.4511 265.82 70.6789 265.923 69.9414 265.759C69.2281 265.599 68.5411 265.34 67.9001 264.99L44.521 252.203C44.2081 252.049 43.9421 251.813 43.7503 251.522C43.5585 251.231 43.4478 250.894 43.4297 250.545C43.4336 250.204 43.53 249.87 43.7086 249.579C43.8872 249.288 44.1413 249.051 44.4442 248.892L93.3006 220.832C93.9484 220.46 94.6466 220.184 95.3735 220.011C96.1115 219.851 96.8824 219.954 97.5518 220.303L121.816 233.569Z" fill="#E1E2E4"/>
<path d="M121.796 233.605C122.103 233.757 122.364 233.987 122.552 234.273C122.741 234.559 122.85 234.889 122.868 235.231C122.864 235.566 122.769 235.894 122.593 236.179C122.418 236.465 122.168 236.697 121.871 236.853L72.0985 265.439C71.4307 265.791 70.6583 265.891 69.9224 265.722C69.2117 265.557 68.5268 265.296 67.8868 264.946L44.5379 252.175C44.2308 252.023 43.9695 251.793 43.781 251.507C43.5924 251.222 43.4833 250.891 43.4648 250.549C43.4687 250.214 43.5634 249.887 43.7388 249.601C43.9142 249.315 44.1638 249.083 44.4611 248.927L93.2875 220.885C93.9347 220.513 94.631 220.234 95.356 220.055C96.092 219.889 96.8632 219.988 97.5328 220.336L121.796 233.605Z" fill="#E0E1E3"/>
<path d="M121.78 233.635C122.082 233.784 122.338 234.01 122.523 234.29C122.708 234.571 122.815 234.895 122.833 235.23C122.829 235.559 122.736 235.88 122.563 236.16C122.391 236.44 122.146 236.668 121.854 236.821L72.0819 265.406C71.4142 265.758 70.6415 265.855 69.9073 265.681C69.1987 265.51 68.5161 265.246 67.8769 264.896L44.5571 252.142C44.2559 251.993 43.9997 251.768 43.8147 251.488C43.6296 251.208 43.5223 250.883 43.5039 250.548C43.5078 250.22 43.6008 249.899 43.773 249.619C43.9452 249.338 44.19 249.11 44.4817 248.958L93.2782 220.932C93.9251 220.561 94.6195 220.279 95.3423 220.095C96.0767 219.923 96.8481 220.02 97.5176 220.366L121.78 233.635Z" fill="#E0E0E3"/>
<path d="M121.761 233.666C122.057 233.812 122.308 234.033 122.49 234.308C122.672 234.582 122.778 234.9 122.796 235.229C122.792 235.551 122.7 235.866 122.531 236.141C122.362 236.415 122.121 236.639 121.835 236.788L72.0629 265.374C71.3952 265.725 70.6217 265.819 69.889 265.639C69.183 265.463 68.5025 265.197 67.8644 264.847L44.5741 252.109C44.2784 251.964 44.0265 251.743 43.8446 251.469C43.6628 251.194 43.5574 250.877 43.5391 250.548C43.5429 250.226 43.6342 249.911 43.8032 249.636C43.9722 249.362 44.2125 249.138 44.4987 248.989L93.2644 220.981C93.9107 220.609 94.6032 220.325 95.324 220.134C96.057 219.957 96.8291 220.051 97.4986 220.397L121.761 233.666Z" fill="#DFDFE2"/>
<path d="M121.745 233.696C122.035 233.839 122.282 234.055 122.46 234.324C122.639 234.593 122.742 234.905 122.761 235.227C122.756 235.543 122.667 235.852 122.501 236.121C122.335 236.39 122.099 236.609 121.818 236.754L72.0458 265.34C71.378 265.691 70.6039 265.782 69.8727 265.597C69.169 265.415 68.4906 265.147 67.8532 264.798L44.5921 252.076C44.3022 251.933 44.0553 251.717 43.8767 251.448C43.6982 251.179 43.5946 250.868 43.5762 250.546C43.5802 250.23 43.6697 249.921 43.8356 249.652C44.0015 249.383 44.2374 249.165 44.5181 249.019L93.2531 221.025C93.8988 220.654 94.5893 220.367 95.3077 220.17C96.0392 219.988 96.812 220.078 97.4816 220.424L121.745 233.696Z" fill="#DEDEE1"/>
<path d="M121.726 233.73C122.01 233.869 122.252 234.081 122.427 234.345C122.602 234.608 122.704 234.913 122.723 235.229C122.719 235.538 122.63 235.841 122.468 236.104C122.305 236.368 122.073 236.582 121.798 236.724L72.0261 265.31C71.3585 265.66 70.5839 265.748 69.8544 265.558C69.1534 265.371 68.4773 265.101 67.8409 264.754L44.609 252.048C44.3248 251.909 44.0827 251.697 43.9074 251.434C43.7321 251.17 43.63 250.866 43.6113 250.55C43.6154 250.241 43.7037 249.938 43.8663 249.675C44.029 249.412 44.2602 249.197 44.5352 249.055L93.2394 221.081C93.8845 220.71 94.5727 220.42 95.2887 220.217C96.0186 220.03 96.7919 220.118 97.4611 220.464L121.726 233.73Z" fill="#DDDDE0"/>
<path d="M121.707 233.76C121.986 233.896 122.223 234.103 122.395 234.361C122.567 234.619 122.667 234.918 122.686 235.227C122.681 235.529 122.594 235.825 122.435 236.083C122.275 236.34 122.049 236.549 121.78 236.689L72.0077 265.274C71.34 265.624 70.565 265.709 69.8374 265.513C69.1389 265.32 68.4653 265.047 67.8297 264.699L44.6272 252.009C44.3487 251.873 44.1113 251.666 43.9394 251.408C43.7674 251.15 43.667 250.852 43.6484 250.543C43.6527 250.24 43.7392 249.944 43.8986 249.687C44.0581 249.429 44.2846 249.22 44.5539 249.081L93.2281 221.125C93.8731 220.755 94.5598 220.462 95.2738 220.253C96.0019 220.061 96.7757 220.146 97.4448 220.491L121.707 233.76Z" fill="#DCDCDF"/>
<path d="M121.689 233.792C121.962 233.925 122.195 234.128 122.363 234.38C122.532 234.632 122.631 234.924 122.649 235.227C122.645 235.523 122.56 235.813 122.404 236.066C122.247 236.318 122.025 236.523 121.761 236.659L71.989 265.245C71.3212 265.594 70.5458 265.676 69.8196 265.475C69.1235 265.276 68.4518 265.001 67.817 264.653L44.6451 251.979C44.3725 251.846 44.14 251.644 43.9715 251.392C43.8029 251.14 43.7041 250.848 43.6855 250.545C43.6895 250.248 43.7741 249.958 43.9304 249.706C44.0866 249.454 44.3088 249.249 44.5728 249.113L93.2163 221.174C93.8607 220.805 94.5452 220.511 95.2568 220.297C95.9834 220.099 96.7579 220.181 97.4271 220.526L121.689 233.792Z" fill="#DBDBDE"/>
<path d="M121.672 233.824C121.939 233.954 122.167 234.153 122.332 234.399C122.497 234.645 122.594 234.931 122.613 235.227C122.609 235.517 122.526 235.801 122.373 236.048C122.219 236.295 122.002 236.495 121.743 236.628L71.9713 265.214C71.3033 265.562 70.5274 265.64 69.8033 265.433C69.1098 265.23 68.4403 264.952 67.8065 264.605L44.664 251.947C44.397 251.817 44.1691 251.619 44.0037 251.373C43.8384 251.126 43.7413 250.841 43.7227 250.545C43.7265 250.254 43.8094 249.971 43.9625 249.724C44.1155 249.477 44.333 249.276 44.5915 249.144L93.2042 221.223C93.8483 220.853 94.5311 220.555 95.2405 220.333C95.9652 220.13 96.7401 220.209 97.4093 220.553L121.672 233.824Z" fill="#DADADD"/>
<path d="M121.653 233.857C121.915 233.984 122.138 234.177 122.3 234.418C122.462 234.659 122.557 234.938 122.576 235.228C122.572 235.512 122.49 235.79 122.34 236.031C122.19 236.272 121.977 236.468 121.724 236.598L71.9516 265.184C71.2835 265.531 70.507 265.607 69.7843 265.395C69.0936 265.185 68.4263 264.905 67.7933 264.559L44.6801 251.914C44.4188 251.787 44.1957 251.594 44.0337 251.353C43.8717 251.112 43.7765 250.833 43.7578 250.543C43.7619 250.26 43.8432 249.982 43.993 249.741C44.1428 249.5 44.3556 249.304 44.6084 249.174L93.1902 221.271C93.834 220.901 94.5151 220.6 95.2222 220.373C95.9452 220.165 96.7206 220.241 97.3894 220.585L121.653 233.857Z" fill="#D9D9DC"/>
<path d="M121.637 233.89C121.893 234.014 122.111 234.203 122.27 234.438C122.428 234.673 122.522 234.946 122.541 235.229C122.537 235.506 122.457 235.777 122.31 236.013C122.163 236.249 121.955 236.44 121.707 236.566L71.9349 265.152C71.2669 265.499 70.4899 265.571 69.7691 265.355C69.081 265.14 68.4162 264.857 67.7841 264.51L44.7 251.885C44.4447 251.762 44.2268 251.573 44.0681 251.338C43.9095 251.103 43.816 250.83 43.7969 250.547C43.8008 250.27 43.8805 249.998 44.0272 249.762C44.174 249.527 44.3823 249.335 44.6298 249.209L93.1818 221.323C93.8251 220.953 94.5044 220.65 95.2093 220.417C95.9307 220.204 96.7067 220.276 97.3758 220.62L121.637 233.89Z" fill="#D8D8DB"/>
<path d="M121.62 233.921C121.869 234.041 122.083 234.226 122.238 234.455C122.393 234.685 122.485 234.951 122.504 235.228C122.499 235.499 122.421 235.763 122.278 235.994C122.134 236.224 121.93 236.41 121.688 236.534L71.9162 265.12C71.2483 265.465 70.4708 265.535 69.7519 265.313C69.0661 265.093 68.4029 264.808 67.7712 264.462L44.715 251.853C44.4651 251.732 44.2518 251.548 44.0963 251.319C43.9409 251.089 43.849 250.823 43.8301 250.547C43.834 250.276 43.912 250.011 44.0556 249.78C44.1991 249.55 44.4028 249.364 44.6448 249.241L93.166 221.372C93.8089 221.003 94.4862 220.696 95.1883 220.457C95.9081 220.238 96.685 220.308 97.3541 220.652L121.62 233.921Z" fill="#D7D7DB"/>
<path d="M121.601 233.954C121.845 234.071 122.054 234.251 122.206 234.475C122.358 234.699 122.448 234.959 122.467 235.229C122.463 235.494 122.386 235.753 122.246 235.977C122.106 236.202 121.906 236.384 121.67 236.504L71.8978 265.09C71.5669 265.261 71.2056 265.365 70.8344 265.397C70.4631 265.428 70.0892 265.387 69.7341 265.274C69.0507 265.048 68.3893 264.76 67.7579 264.415L44.7332 251.822C44.4891 251.705 44.2805 251.525 44.1284 251.301C43.9764 251.077 43.8862 250.817 43.8672 250.548C43.871 250.283 43.9473 250.024 44.0877 249.799C44.2281 249.575 44.4272 249.393 44.6636 249.273L93.1542 221.425C93.797 221.056 94.4727 220.746 95.1727 220.501C95.8907 220.277 96.6681 220.344 97.3371 220.688L121.601 233.954Z" fill="#D6D6DA"/>
<path d="M121.582 233.985C121.821 234.099 122.025 234.274 122.173 234.492C122.322 234.71 122.41 234.964 122.429 235.227C122.425 235.485 122.35 235.738 122.213 235.957C122.076 236.176 121.881 236.353 121.651 236.47L71.8784 265.056C71.5475 265.226 71.1859 265.33 70.8146 265.36C70.4434 265.39 70.0699 265.346 69.7157 265.231C69.0356 264.999 68.3767 264.71 67.7466 264.365L44.7511 251.788C44.5128 251.674 44.3091 251.499 44.1604 251.281C44.0116 251.062 43.9232 250.809 43.9043 250.545C43.9083 250.287 43.9829 250.035 44.12 249.816C44.2571 249.597 44.4516 249.42 44.6823 249.303L93.1428 221.47C93.7852 221.101 94.459 220.789 95.1564 220.538C95.8723 220.308 96.6503 220.372 97.3193 220.715L121.582 233.985Z" fill="#D5D5D9"/>
<path d="M121.564 234.015C121.797 234.126 121.996 234.297 122.141 234.509C122.287 234.722 122.374 234.969 122.393 235.226C122.388 235.478 122.315 235.724 122.181 235.938C122.047 236.152 121.857 236.325 121.631 236.438L71.8592 265.024C71.5283 265.194 71.1667 265.297 70.7955 265.325C70.4242 265.354 70.0509 265.308 69.6977 265.191C69.0204 264.953 68.3639 264.659 67.7347 264.314L44.77 251.756C44.5374 251.645 44.3383 251.475 44.1928 251.263C44.0473 251.05 43.9605 250.803 43.9414 250.546C43.9454 250.294 44.0183 250.048 44.1523 249.835C44.2862 249.621 44.476 249.448 44.7012 249.335L93.131 221.519C93.7732 221.15 94.4452 220.835 95.1401 220.578C95.4937 220.462 95.867 220.417 96.2382 220.446C96.6093 220.475 96.971 220.577 97.3023 220.747L121.564 234.015Z" fill="#D4D4D8"/>
<path d="M121.547 234.049C121.774 234.157 121.968 234.323 122.11 234.53C122.253 234.737 122.337 234.978 122.356 235.228C122.352 235.473 122.281 235.713 122.15 235.921C122.019 236.13 121.834 236.298 121.614 236.408L71.8422 264.994C71.5113 265.164 71.1494 265.266 70.7782 265.293C70.4071 265.32 70.0342 265.272 69.6821 265.151C69.0074 264.909 68.3529 264.614 67.7243 264.27L44.788 251.725C44.5611 251.617 44.3667 251.452 44.2246 251.245C44.0824 251.038 43.9975 250.797 43.9785 250.547C43.9825 250.301 44.0537 250.062 44.1844 249.854C44.3151 249.646 44.5003 249.478 44.7199 249.367L93.1197 221.569C93.7614 221.199 94.4316 220.882 95.1238 220.618C95.4764 220.5 95.8493 220.453 96.2204 220.48C96.5915 220.508 96.9533 220.609 97.2846 220.778L121.547 234.049Z" fill="#D3D3D7"/>
<path d="M121.531 234.082C121.752 234.187 121.942 234.348 122.08 234.55C122.219 234.751 122.302 234.986 122.321 235.23C122.317 235.469 122.247 235.703 122.12 235.905C121.992 236.108 121.812 236.271 121.597 236.379L71.8252 264.965C71.4941 265.134 71.1319 265.235 70.7607 265.26C70.3895 265.285 70.017 265.234 69.666 265.111C68.9942 264.863 68.3418 264.566 67.7139 264.222L44.804 251.693C44.5829 251.589 44.3934 251.427 44.2546 251.226C44.1158 251.025 44.0327 250.79 44.0137 250.547C44.0176 250.308 44.087 250.074 44.2145 249.872C44.342 249.669 44.5226 249.506 44.7367 249.398L93.1057 221.617C93.7473 221.248 94.4159 220.928 95.1055 220.659C95.457 220.538 95.8295 220.489 96.2005 220.515C96.5716 220.541 96.9335 220.641 97.2647 220.81L121.531 234.082Z" fill="#D2D2D6"/>
<path d="M121.513 234.114C121.728 234.216 121.913 234.372 122.048 234.568C122.184 234.764 122.265 234.992 122.284 235.229C122.28 235.462 122.212 235.689 122.088 235.886C121.963 236.083 121.787 236.242 121.578 236.346L71.8058 264.932C71.4749 265.102 71.1126 265.202 70.7415 265.226C70.3703 265.25 69.9981 265.197 69.648 265.072C68.9793 264.819 68.3291 264.519 67.7019 264.176L44.8242 251.664C44.6088 251.562 44.4241 251.405 44.2886 251.21C44.1532 251.014 44.0718 250.786 44.0527 250.549C44.0565 250.316 44.1243 250.089 44.2488 249.892C44.3732 249.695 44.5494 249.536 44.7582 249.432L93.0965 221.668C93.7379 221.3 94.4047 220.977 95.0918 220.702C95.4427 220.579 95.815 220.528 96.1862 220.553C96.5573 220.578 96.9194 220.679 97.2503 220.848L121.513 234.114Z" fill="#D1D1D5"/>
<path d="M121.49 234.142C121.7 234.24 121.88 234.392 122.012 234.583C122.144 234.773 122.223 234.995 122.242 235.225C122.238 235.452 122.172 235.673 122.051 235.864C121.929 236.056 121.758 236.21 121.554 236.311L71.7822 264.897C71.4512 265.066 71.0888 265.165 70.7177 265.188C70.3466 265.21 69.9748 265.155 69.6259 265.027C68.9598 264.769 68.3115 264.467 67.6849 264.124L44.8372 251.625C44.6274 251.527 44.4473 251.375 44.315 251.185C44.1828 250.995 44.1031 250.773 44.084 250.543C44.088 250.316 44.1541 250.096 44.2752 249.904C44.3963 249.713 44.5676 249.558 44.7705 249.457L93.0788 221.711C93.72 221.343 94.3851 221.017 95.0696 220.736C95.4192 220.61 95.7911 220.556 96.1622 220.579C96.5333 220.603 96.8957 220.702 97.2267 220.871L121.49 234.142Z" fill="#D0D1D4"/>
<path d="M121.477 234.176C121.68 234.272 121.855 234.42 121.984 234.604C122.112 234.789 122.19 235.004 122.209 235.228C122.205 235.448 122.14 235.663 122.022 235.849C121.904 236.035 121.737 236.185 121.539 236.282L71.7667 264.869C71.4357 265.037 71.0729 265.135 70.7017 265.156C70.3305 265.177 69.9591 265.121 69.6111 264.99C68.9478 264.726 68.3013 264.421 67.6751 264.079L44.8569 251.598C44.6535 251.502 44.4788 251.355 44.3503 251.17C44.2219 250.986 44.1442 250.771 44.125 250.547C44.129 250.327 44.1934 250.112 44.3114 249.927C44.4294 249.741 44.5963 249.591 44.7939 249.493L93.0714 221.765C93.7123 221.396 94.3756 221.068 95.0572 220.781C95.4058 220.652 95.7774 220.596 96.1485 220.618C96.5197 220.639 96.8824 220.738 97.2136 220.907L121.477 234.176Z" fill="#CFD0D3"/>
<path d="M121.457 234.209C121.656 234.301 121.827 234.445 121.952 234.624C122.078 234.804 122.154 235.013 122.173 235.232C122.169 235.446 122.106 235.654 121.991 235.835C121.876 236.015 121.714 236.161 121.521 236.255L71.7494 264.841C71.4183 265.009 71.0554 265.106 70.6843 265.126C70.3132 265.145 69.9421 265.087 69.5952 264.954C68.9349 264.684 68.2906 264.377 67.6651 264.035L44.876 251.571C44.6778 251.479 44.5075 251.336 44.3819 251.157C44.2563 250.979 44.1797 250.77 44.1602 250.552C44.1641 250.339 44.2269 250.13 44.3417 249.95C44.4565 249.769 44.6189 249.624 44.811 249.529L93.0577 221.818C93.6988 221.45 94.3606 221.118 95.0398 220.826C95.3873 220.694 95.7584 220.636 96.1295 220.656C96.5007 220.676 96.8635 220.774 97.1946 220.943L121.457 234.209Z" fill="#CECFD3"/>
<path d="M121.441 234.24C121.634 234.33 121.799 234.468 121.921 234.641C122.043 234.814 122.118 235.017 122.137 235.228C122.133 235.435 122.072 235.637 121.96 235.812C121.849 235.987 121.691 236.127 121.504 236.218L71.732 264.805C71.4008 264.973 71.0378 265.069 70.6667 265.087C70.2957 265.104 69.9251 265.043 69.5794 264.908C68.9222 264.633 68.28 264.324 67.6552 263.982L44.8961 251.534C44.7038 251.444 44.5381 251.306 44.4158 251.133C44.2935 250.96 44.2189 250.758 44.1992 250.547C44.2032 250.34 44.2644 250.138 44.376 249.963C44.4875 249.788 44.6452 249.647 44.8316 249.556L93.0484 221.863C93.689 221.495 94.3488 221.161 95.0248 220.863C95.3712 220.728 95.742 220.668 96.1132 220.687C96.4844 220.706 96.8476 220.802 97.1788 220.971L121.441 234.24Z" fill="#CDCED2"/>
<path d="M121.423 234.272C121.61 234.358 121.77 234.492 121.889 234.659C122.008 234.827 122.081 235.023 122.101 235.228C122.096 235.429 122.037 235.624 121.928 235.794C121.819 235.963 121.666 236.099 121.485 236.187L71.713 264.773C71.3817 264.941 71.0183 265.036 70.6472 265.053C70.2761 265.069 69.9058 265.006 69.5611 264.867C69.4213 264.867 67.7546 263.996 67.6426 263.934L44.9129 251.503C44.726 251.417 44.565 251.283 44.446 251.116C44.3269 250.948 44.254 250.752 44.2344 250.547C44.2384 250.347 44.2979 250.151 44.4063 249.982C44.5146 249.813 44.6677 249.676 44.8486 249.589L93.0346 221.913C93.1451 221.848 94.8644 220.903 95.0108 220.903C95.3561 220.766 95.7266 220.704 96.0978 220.722C96.469 220.739 96.8322 220.834 97.1634 221.003L121.423 234.272Z" fill="#CCCDD1"/>
<path d="M121.406 234.305C121.587 234.388 121.743 234.518 121.859 234.68C121.974 234.842 122.045 235.031 122.065 235.229C122.061 235.423 122.003 235.613 121.898 235.777C121.793 235.94 121.644 236.072 121.469 236.156L71.6965 264.742C71.3652 264.91 71.0016 265.004 70.6305 265.019C70.2595 265.034 69.8896 264.969 69.546 264.828C69.4187 264.828 67.7345 263.943 67.6327 263.886L44.9321 251.471C44.7513 251.388 44.5954 251.259 44.4798 251.097C44.3643 250.935 44.2932 250.746 44.2734 250.548C44.2775 250.354 44.3352 250.164 44.4403 250C44.5455 249.837 44.6939 249.705 44.8692 249.621L93.0245 221.962C93.1248 221.904 94.8631 220.944 94.9919 220.944C95.3361 220.805 95.7064 220.74 96.0775 220.756C96.4487 220.772 96.812 220.867 97.1431 221.035L121.406 234.305Z" fill="#CBCCD0"/>
<path d="M121.388 234.338C121.563 234.418 121.715 234.543 121.827 234.699C121.939 234.856 122.009 235.039 122.028 235.23C122.024 235.419 121.967 235.602 121.865 235.76C121.763 235.918 121.619 236.045 121.449 236.126L71.6773 264.712C71.3456 264.879 70.9816 264.972 70.6105 264.985C70.2393 264.997 69.8698 264.929 69.5276 264.785C69.4127 264.785 67.7117 263.888 67.6194 263.835L44.949 251.436C44.7738 251.356 44.6225 251.232 44.5102 251.076C44.3978 250.919 44.3284 250.737 44.3086 250.545C44.3126 250.357 44.3688 250.174 44.4709 250.015C44.5729 249.857 44.717 249.73 44.8869 249.649L93.0112 222.008C93.102 221.956 94.858 220.985 94.9744 220.985C95.3176 220.843 95.6875 220.777 96.0587 220.791C96.4299 220.805 96.7936 220.9 97.1248 221.068L121.388 234.338Z" fill="#CACBCF"/>
<path d="M121.37 234.369C121.539 234.446 121.686 234.566 121.795 234.717C121.904 234.868 121.972 235.044 121.991 235.229C121.987 235.411 121.932 235.588 121.833 235.741C121.734 235.893 121.595 236.015 121.431 236.093L71.6585 264.68C71.327 264.847 70.9629 264.939 70.5918 264.951C70.2207 264.963 69.8515 264.893 69.5102 264.747C69.4077 264.747 67.6892 263.836 67.6072 263.791L44.9653 251.408C44.7958 251.331 44.6495 251.211 44.5405 251.061C44.4315 250.91 44.3636 250.733 44.3438 250.548C44.3478 250.367 44.4023 250.19 44.501 250.038C44.5997 249.885 44.739 249.763 44.9031 249.685L92.9976 222.061C93.0774 222.015 94.8523 221.026 94.9563 221.026C95.2982 220.882 95.6676 220.813 96.0388 220.826C96.41 220.838 96.774 220.932 97.1053 221.099L121.37 234.369Z" fill="#C9CACE"/>
<path d="M121.354 234.398C121.518 234.472 121.659 234.588 121.765 234.733C121.871 234.878 121.937 235.048 121.957 235.226C121.952 235.401 121.899 235.572 121.803 235.719C121.707 235.866 121.573 235.983 121.414 236.059L71.6418 264.645C71.3101 264.812 70.9458 264.904 70.5746 264.914C70.2034 264.924 69.8345 264.852 69.4942 264.704C69.4049 264.704 67.6687 263.779 67.5977 263.74L44.9859 251.373C44.8222 251.3 44.6805 251.184 44.5747 251.039C44.469 250.894 44.4029 250.724 44.3828 250.546C44.3868 250.371 44.4396 250.2 44.5352 250.053C44.6309 249.906 44.7657 249.788 44.9244 249.713L92.9882 222.107C93.0614 222.066 94.8517 221.063 94.9425 221.063C95.2833 220.916 95.6525 220.845 96.0238 220.857C96.395 220.868 96.7594 220.961 97.0908 221.128L121.354 234.398Z" fill="#C8C9CD"/>
<path d="M121.333 234.431C121.492 234.502 121.629 234.612 121.732 234.752C121.834 234.891 121.899 235.055 121.919 235.227C121.915 235.397 121.864 235.562 121.772 235.704C121.679 235.846 121.549 235.959 121.395 236.031L71.623 264.618C71.2913 264.784 70.9266 264.875 70.5554 264.884C70.1843 264.892 69.8159 264.819 69.4768 264.668C69.4036 264.668 67.647 263.731 67.5862 263.696L45.0036 251.344C44.8454 251.273 44.7084 251.163 44.6058 251.023C44.5031 250.884 44.4383 250.72 44.418 250.549C44.4215 250.379 44.4723 250.214 44.5647 250.072C44.657 249.93 44.7872 249.817 44.9407 249.745L92.9744 222.156C93.0344 222.121 94.8461 221.104 94.9236 221.104C95.2634 220.954 95.6321 220.882 96.0033 220.892C96.3746 220.901 96.739 220.993 97.0703 221.161L121.333 234.431Z" fill="#C7C8CC"/>
<path d="M121.314 234.463C121.467 234.531 121.599 234.637 121.698 234.771C121.797 234.905 121.859 235.062 121.88 235.227C121.875 235.389 121.825 235.547 121.736 235.683C121.647 235.819 121.521 235.928 121.374 235.997L71.6017 264.583C71.2698 264.749 70.905 264.839 70.534 264.846C70.1629 264.853 69.795 264.777 69.4571 264.623C69.3934 264.623 67.622 263.673 67.5715 263.645L45.0189 251.31C44.8666 251.242 44.7345 251.136 44.6354 251.002C44.5363 250.868 44.4734 250.711 44.4531 250.546C44.4577 250.384 44.5073 250.226 44.5964 250.09C44.6856 249.954 44.8108 249.845 44.9581 249.776L92.9611 222.206C93.0109 222.177 94.8408 221.145 94.9052 221.145C95.2438 220.993 95.6125 220.918 95.9838 220.926C96.3552 220.935 96.7199 221.026 97.0513 221.193L121.314 234.463Z" fill="#C6C7CB"/>
<path d="M121.297 234.494C121.444 234.559 121.571 234.66 121.667 234.788C121.763 234.916 121.824 235.067 121.844 235.225C121.84 235.381 121.792 235.533 121.706 235.664C121.619 235.794 121.498 235.898 121.356 235.963L71.5839 264.55C71.2521 264.716 70.8869 264.805 70.5158 264.81C70.1448 264.816 69.7772 264.737 69.4406 264.581C69.3894 264.581 67.6014 263.618 67.5604 263.595L45.037 251.277C44.8907 251.212 44.7635 251.111 44.6677 250.983C44.5719 250.855 44.5108 250.704 44.4902 250.546C44.4945 250.39 44.5422 250.238 44.6282 250.107C44.7142 249.977 44.8351 249.873 44.977 249.807L92.9493 222.252C92.9896 222.229 94.8376 221.183 94.8896 221.183C95.2269 221.028 95.5951 220.951 95.9664 220.957C96.3378 220.964 96.7029 221.055 97.0343 221.222L121.297 234.494Z" fill="#C5C6CB"/>
<path d="M121.28 234.527C121.421 234.589 121.544 234.686 121.636 234.808C121.728 234.931 121.788 235.075 121.808 235.228C121.804 235.377 121.757 235.523 121.674 235.648C121.591 235.773 121.475 235.872 121.338 235.934L71.566 264.521C71.234 264.687 70.8685 264.775 70.4974 264.779C70.1262 264.783 69.7591 264.702 69.4236 264.544C69.3855 264.544 67.5798 263.567 67.5491 263.55L45.0558 251.248C44.9149 251.187 44.7923 251.09 44.6998 250.967C44.6072 250.845 44.5479 250.7 44.5273 250.548C44.5318 250.398 44.5779 250.253 44.6607 250.128C44.7434 250.003 44.8595 249.904 44.9957 249.841L92.938 222.306C92.968 222.288 94.8345 221.228 94.874 221.228C95.2101 221.07 95.5779 220.991 95.9492 220.996C96.3205 221.002 96.6856 221.091 97.0171 221.258L121.28 234.527Z" fill="#C4C5CA"/>
<path d="M121.264 234.565C121.399 234.623 121.518 234.715 121.608 234.832C121.697 234.949 121.755 235.087 121.776 235.233C121.772 235.377 121.727 235.516 121.648 235.635C121.568 235.755 121.456 235.849 121.325 235.908L71.5531 264.495C71.2207 264.66 70.8549 264.747 70.4837 264.75C70.1125 264.752 69.7457 264.669 69.4114 264.508C69.3865 264.508 67.5632 263.518 67.5427 263.507L45.0787 251.22C44.9432 251.162 44.825 251.07 44.7353 250.953C44.6456 250.836 44.5874 250.698 44.5664 250.552C44.5706 250.409 44.6151 250.27 44.6947 250.15C44.7743 250.031 44.8858 249.937 45.0165 249.878L92.9281 222.36C92.9478 222.348 94.8311 221.273 94.8589 221.273C95.1939 221.113 95.5613 221.031 95.9327 221.035C96.3041 221.039 96.6697 221.128 97.0013 221.295L121.264 234.565Z" fill="#C3C4C9"/>
<path d="M121.244 234.591C121.373 234.646 121.486 234.734 121.572 234.846C121.657 234.957 121.713 235.088 121.734 235.227C121.729 235.364 121.686 235.497 121.61 235.611C121.533 235.725 121.426 235.815 121.301 235.871L71.5285 264.457C71.1961 264.622 70.8302 264.708 70.459 264.709C70.0879 264.71 69.7216 264.625 69.3885 264.462C69.3753 264.462 67.5351 263.459 67.5248 263.453L45.0901 251.183C44.9611 251.127 44.8484 251.04 44.7626 250.929C44.6768 250.817 44.6206 250.686 44.5996 250.547C44.604 250.41 44.6469 250.278 44.7233 250.164C44.7996 250.05 44.9064 249.96 45.0315 249.904L92.9123 222.403C92.9226 222.397 94.8257 221.307 94.8388 221.307C95.1726 221.144 95.5395 221.06 95.9109 221.063C96.2822 221.065 96.6479 221.153 96.9796 221.32L121.244 234.591Z" fill="#C2C3C8"/>
<path d="M45.053 249.935L94.8251 221.348C95.1576 221.182 95.5241 221.097 95.8955 221.098C96.2669 221.099 96.6328 221.186 96.9645 221.353L121.226 234.622C121.834 234.96 121.858 235.505 121.283 235.839L71.5105 264.425C71.1781 264.59 70.8118 264.675 70.4407 264.675C70.0695 264.674 69.7035 264.587 69.3717 264.421L45.1086 251.15C44.5033 250.813 44.4806 250.27 45.053 249.935Z" fill="#C1C2C7"/>
</g>
<path d="M121.031 234.665H117.722V235.258L98.0155 224.602C96.4909 223.719 93.8223 223.826 92.0568 224.84L48.6145 248.971V248.498H45.3047V251.05H45.3127C45.3168 251.108 45.3351 251.163 45.366 251.211C45.3969 251.26 45.4395 251.3 45.4898 251.328L68.9794 264.338C70.4096 265.166 72.9091 265.069 74.5647 264.114L120.846 237.583C120.908 237.546 120.957 237.491 120.985 237.426C121.013 237.36 121.02 237.287 121.004 237.217H121.031V234.665Z" fill="#CBD3FA"/>
<path d="M120.849 234.296C120.904 234.328 120.95 234.374 120.982 234.43C121.013 234.485 121.03 234.548 121.03 234.612C121.03 234.675 121.013 234.738 120.982 234.793C120.95 234.849 120.904 234.895 120.849 234.927L74.5675 261.459C72.9119 262.409 70.4124 262.51 68.9822 261.683L45.4926 248.672C45.441 248.644 45.3972 248.603 45.3652 248.553C45.3333 248.504 45.3142 248.447 45.3097 248.388C45.3051 248.329 45.3153 248.27 45.3391 248.216C45.363 248.162 45.3999 248.115 45.4465 248.079L92.0573 222.187C93.8228 221.173 96.4915 221.067 98.0162 221.95L120.842 234.292L120.849 234.296Z" fill="#F3F1F6"/>
<path d="M70.1579 175.97C80.572 170.071 91.8023 175.823 91.7006 187.011L61.7238 245.949L59.6289 244.78L60.1178 192.278C60.1793 185.828 64.1516 179.372 70.1579 175.97Z" fill="#CBD3FA"/>
<path d="M72.252 177.141C82.6653 171.243 93.8941 176.995 93.7909 188.178L93.4249 227.994L61.7266 245.948L62.2148 193.446C62.2689 186.999 66.2449 180.544 72.252 177.141Z" fill="#E6E6EB"/>
<path d="M0.171274 149.281L8.21532 214.729L12.2505 247.505C12.5733 250.126 14.0474 254.091 19.0912 254.091C19.1168 254.078 19.1315 254.091 19.1439 254.091C19.848 254.084 20.5496 254.006 21.238 253.859C21.2593 253.864 21.2817 253.863 21.3026 253.856C21.3234 253.849 21.3416 253.836 21.3551 253.819L59.7506 230.795L59.7646 230.782L61.8725 229.504H61.885L73.6795 222.414H73.7044L93.5817 210.481L146.282 178.842C146.919 178.517 147.444 178.008 147.79 177.382C148.135 176.756 148.286 176.042 148.222 175.33L147.368 167.051L144.497 139.429L138.122 77.9068C137.996 76.9403 137.534 76.0487 136.816 75.388C136.777 75.3493 136.739 75.3237 136.699 75.2857C136.576 75.1743 136.447 75.0708 136.311 74.9758C134.188 73.3488 130.738 73.0126 128.746 74.1491L103.98 88.1483L46.9885 120.394L44.4142 121.856L26.7884 131.826L2.113 145.773C1.47462 146.096 0.948185 146.603 0.601934 147.229C0.255684 147.854 0.105716 148.569 0.171274 149.281Z" fill="#CBD3FA"/>
<path d="M2.60414 150.961L14.8385 250.438C15.0829 252.452 16.9853 253.86 19.0918 254.092C19.1174 254.079 19.1321 254.092 19.1452 254.092C19.8518 254.163 20.5655 254.084 21.2394 253.86C21.2606 253.866 21.2831 253.865 21.3039 253.858C21.3247 253.851 21.3429 253.838 21.3564 253.821C21.6652 253.738 21.961 253.612 22.2349 253.447L59.7388 231.959L61.8615 230.745H61.874L72.569 224.611L72.5955 224.598L93.5722 212.573L148.677 180.998C149.32 180.67 149.848 180.155 150.192 179.521C150.536 178.887 150.679 178.164 150.603 177.447L149.194 166.018L145.832 138.682L138.366 77.9598C138.297 77.4483 138.124 76.9564 137.857 76.5143C137.59 76.0723 137.236 75.6893 136.815 75.3892C136.777 75.3504 136.737 75.3248 136.698 75.2868C136.557 75.1844 136.41 75.0895 136.259 75.0025C135.454 74.5464 134.547 74.3023 133.621 74.2932C132.696 74.2842 131.784 74.5104 130.97 74.9506L44.7252 124.373L4.54157 147.396C3.89764 147.727 3.36855 148.245 3.023 148.88C2.67746 149.516 2.53147 150.241 2.60414 150.961Z" fill="#F3F1F6"/>
<path d="M8.10575 154.175L19.3111 245.213C19.5131 246.866 21.7499 247.793 23.3711 246.877L29.6571 243.325H29.6688L44.1965 235.128H44.2081L54.1186 229.543L81.7128 213.975L142.479 179.72C143.411 179.251 144.179 178.511 144.682 177.598C145.185 176.685 145.4 175.641 145.298 174.604L134.099 83.5551C133.886 81.9025 131.65 80.9867 130.028 81.8908L106.183 95.3395L78.6014 110.887L68.669 116.494L54.9011 124.256L10.9231 149.051C9.99281 149.524 9.22649 150.266 8.72404 151.18C8.22159 152.093 8.00618 153.137 8.10575 154.175Z" fill="#EDEDED"/>
<path d="M14.6484 232.492L14.8035 232.854C15.8131 232.354 16.7415 231.705 17.5578 230.929C21.9802 226.81 22.5109 219.746 23.0159 212.889C23.3394 208.576 23.6622 204.172 24.9687 200.504C26.0666 197.418 27.8776 194.861 30.9562 193.298C37.7061 189.877 44.0308 194.59 50.147 199.146C56.3546 203.769 62.7833 208.56 69.7631 205.021C76.7429 201.483 77.3804 193.127 77.9608 185.043C78.5032 177.85 79.0586 170.437 84.1559 166.551C84.3894 166.383 84.6338 166.203 84.8805 166.048L84.9537 166.008C85.2648 165.815 85.5745 165.622 85.9112 165.453C85.9749 165.427 86.0392 165.389 86.1051 165.363L86.1694 165.337C86.6157 165.117 87.0783 164.931 87.5529 164.782C93.6954 162.808 99.477 167.132 105.102 171.304C111.31 175.939 117.724 180.733 124.718 177.193C131.689 173.654 132.322 165.299 132.916 157.227C133.485 149.659 134.041 141.872 139.9 138.166C140.172 137.998 140.456 137.83 140.754 137.675C140.793 137.663 140.819 137.637 140.857 137.624L140.702 137.262C140.378 137.417 140.068 137.598 139.784 137.765C133.653 141.549 133.071 149.504 132.502 157.227C131.908 165.182 131.299 173.396 124.55 176.816C117.8 180.235 111.473 175.524 105.373 170.968C99.9285 166.914 94.3277 162.743 88.3404 164.15C88.3222 164.148 88.3038 164.153 88.2884 164.163C88.0034 164.213 87.7229 164.287 87.4496 164.382C87.2417 164.446 87.0477 164.524 86.8406 164.601L86.7881 164.627C86.4397 164.756 86.1036 164.911 85.7545 165.079C85.1618 165.38 84.595 165.73 84.0601 166.125C84.0367 166.135 84.0146 166.148 83.9949 166.164C83.5843 166.472 83.1958 166.809 82.8319 167.171C82.8236 167.18 82.8147 167.188 82.8055 167.196C78.5507 171.367 78.0479 178.306 77.5553 185.057C76.9478 193.012 76.3533 201.238 69.6019 204.66C62.8387 208.069 56.5133 203.369 50.4104 198.797C44.2027 194.174 37.7764 189.383 30.7944 192.92C27.9744 194.382 25.8185 196.862 24.7661 199.855C23.2671 203.678 22.9303 208.327 22.5944 212.886C22.1025 219.537 21.585 226.381 17.4861 230.448C16.6554 231.277 15.6975 231.968 14.6484 232.495V232.492Z" fill="#7CA7F0"/>
<path d="M60.1016 179.347L60.1748 179.67L60.5245 179.476L82.832 167.168L84.1261 166.458L84.8756 166.045L84.9488 166.007L86.1002 165.361L86.1645 165.335L87.4974 164.6V164.587L88.2849 164.16L111.85 151.166L112.277 150.92L112.204 150.598L111.765 150.843L87.439 164.26L86.8446 164.596L86.7919 164.622L84.0639 166.119V166.132L83.998 166.159L60.4368 179.15L60.1016 179.347Z" fill="#7CA7F0"/>
<path d="M111.772 150.847C111.773 150.904 111.782 150.96 111.797 151.015C111.808 151.07 111.829 151.123 111.861 151.17C111.912 151.293 111.99 151.403 112.089 151.492C112.189 151.581 112.307 151.645 112.436 151.681C112.564 151.718 112.699 151.724 112.831 151.7C112.962 151.676 113.086 151.623 113.194 151.544C113.499 151.371 113.743 151.109 113.894 150.792C114.045 150.476 114.094 150.121 114.035 149.775C114.004 149.63 113.937 149.496 113.84 149.383C113.743 149.271 113.619 149.185 113.481 149.132C113.342 149.08 113.192 149.062 113.045 149.082C112.898 149.102 112.758 149.158 112.638 149.245C112.36 149.406 112.131 149.641 111.978 149.924C111.826 150.207 111.754 150.527 111.772 150.847Z" fill="#7CA7F0"/>
<path d="M58.2577 180.549C58.2915 180.694 58.3604 180.828 58.4586 180.94C58.5568 181.052 58.6811 181.138 58.8205 181.19C58.9598 181.242 59.1099 181.259 59.2575 181.24C59.4052 181.22 59.5458 181.165 59.6668 181.078C59.9465 180.918 60.176 180.684 60.3294 180.401C60.4828 180.118 60.554 179.798 60.5349 179.477C60.5336 179.42 60.5242 179.363 60.507 179.309C60.4975 179.253 60.4759 179.2 60.4434 179.154C60.3936 179.029 60.3157 178.919 60.2159 178.83C60.116 178.74 59.9969 178.676 59.8678 178.64C59.7387 178.605 59.6032 178.6 59.4718 178.625C59.3404 178.651 59.2167 178.707 59.1105 178.788C58.8051 178.959 58.5596 179.22 58.4071 179.535C58.2547 179.85 58.2026 180.203 58.2577 180.549Z" fill="#7CA7F0"/>
<path d="M83.6816 164.575L84.0703 166.125V166.138L84.1355 166.461L84.1611 166.551L84.5228 168.013L87.8991 166.153L87.5617 164.784L87.5111 164.604V164.591L87.46 164.385L87.4461 164.268L87.0581 162.719L83.6816 164.575Z" fill="#7CA7F0"/>
<path d="M8.13434 154.128L9.24315 163.101L135.16 91.8278L134.135 83.502C133.91 81.8531 131.683 80.9343 130.055 81.8413L106.208 95.2901L78.6342 110.836L68.7041 116.441L54.9288 124.203L10.9494 149.005C10.0178 149.476 9.25067 150.217 8.74834 151.131C8.246 152.045 8.03196 153.09 8.13434 154.128Z" fill="url(#paint6_linear_924_4639)"/>
<path d="M31.8106 147.719L39.4059 143.279C39.5134 143.217 39.6026 143.128 39.6643 143.021C39.726 142.913 39.758 142.792 39.7572 142.668C39.7309 142.46 39.531 142.395 39.3099 142.522L31.7153 146.963C31.6078 147.025 31.5186 147.114 31.4568 147.221C31.3949 147.328 31.3626 147.45 31.3633 147.574C31.3889 147.784 31.5903 147.849 31.8106 147.719Z" fill="white"/>
<path d="M13.847 158.22C13.9727 158.145 14.0742 158.036 14.1397 157.906L18.3023 149.559C18.4216 149.316 18.3696 149.092 18.1822 149.059C18.0627 149.06 17.9463 149.097 17.8473 149.164C17.7484 149.231 17.6714 149.326 17.6254 149.436L13.4635 157.783C13.342 158.025 13.3955 158.249 13.5829 158.283C13.6756 158.294 13.7691 158.272 13.847 158.22Z" fill="white"/>
<path d="M18.7045 155.379C18.8032 155.32 18.8869 155.239 18.949 155.143C19.102 154.91 19.0954 154.659 18.9336 154.581L13.3804 151.916C13.2157 151.842 12.9626 151.966 12.8111 152.196C12.6596 152.426 12.6647 152.68 12.8265 152.758L18.3796 155.424C18.4333 155.443 18.4908 155.449 18.5473 155.441C18.6037 155.433 18.6582 155.412 18.7045 155.379Z" fill="white"/>
<path d="M22.5581 146.336C23.2466 145.448 24.176 144.776 25.2357 144.399C25.6801 144.224 26.1617 144.162 26.6362 144.221C27.1106 144.28 27.5625 144.457 27.9505 144.736C28.3038 145.044 28.5733 145.436 28.7339 145.877C28.8945 146.317 28.941 146.791 28.869 147.254C28.7236 148.362 28.2766 149.409 27.5766 150.281C26.8766 151.153 25.9503 151.817 24.8989 152.2C24.5317 152.324 24.1471 152.39 23.7593 152.393C23.1897 152.406 22.6329 152.224 22.182 151.876C21.8286 151.568 21.559 151.175 21.3984 150.735C21.2378 150.295 21.1914 149.821 21.2635 149.358C21.3887 148.246 21.8388 147.195 22.5581 146.336ZM22.7522 151.167C23.0224 151.351 23.3345 151.464 23.66 151.495C23.9854 151.527 24.3135 151.476 24.6142 151.348C25.4969 151.016 26.2746 150.455 26.866 149.721C27.4574 148.987 27.8409 148.109 27.9767 147.177C28.0315 146.862 28.0058 146.538 27.9019 146.235C27.798 145.933 27.6193 145.661 27.3824 145.446C27.0888 145.223 26.7265 145.108 26.3577 145.123C26.067 145.125 25.7785 145.174 25.5036 145.269C24.6213 145.599 23.8447 146.161 23.2552 146.895C22.6658 147.629 22.2853 148.508 22.1541 149.44C22.1012 149.755 22.1285 150.078 22.2331 150.38C22.3377 150.681 22.5156 150.952 22.7522 151.167Z" fill="white"/>
</g>
<defs>
<linearGradient id="paint0_linear_924_4639" x1="235.69" y1="567.971" x2="172.983" y2="269.604" gradientUnits="userSpaceOnUse">
<stop stop-color="white" stop-opacity="0"/>
<stop offset="1" stop-color="#E8E8E8"/>
</linearGradient>
<linearGradient id="paint1_linear_924_4639" x1="180.276" y1="155.456" x2="6.18625" y2="412.419" gradientUnits="userSpaceOnUse">
<stop stop-color="white"/>
<stop offset="1" stop-color="#DBDBDB"/>
</linearGradient>
<linearGradient id="paint2_linear_924_4639" x1="465.361" y1="676.846" x2="295.821" y2="206.656" gradientUnits="userSpaceOnUse">
<stop stop-color="white"/>
<stop offset="1" stop-color="#E9E9E9" stop-opacity="0.631"/>
</linearGradient>
<linearGradient id="paint3_linear_924_4639" x1="410.106" y1="34.7877" x2="236.016" y2="291.751" gradientUnits="userSpaceOnUse">
<stop stop-color="white"/>
<stop offset="1" stop-color="#E0E2E9"/>
</linearGradient>
<linearGradient id="paint4_linear_924_4639" x1="393.321" y1="-37.4887" x2="-91.4965" y2="144.258" gradientUnits="userSpaceOnUse">
<stop stop-color="white"/>
<stop offset="1" stop-color="#C0CBD5"/>
</linearGradient>
<linearGradient id="paint5_linear_924_4639" x1="359.436" y1="-12.3475" x2="336.154" y2="5.66137" gradientUnits="userSpaceOnUse">
<stop stop-color="#FFE06A"/>
<stop offset="1" stop-color="#FFF3C7"/>
</linearGradient>
<linearGradient id="paint6_linear_924_4639" x1="135.16" y1="81.4844" x2="8.10938" y2="81.4844" gradientUnits="userSpaceOnUse">
<stop stop-color="#5E98F7"/>
<stop offset="1" stop-color="#4670BA"/>
</linearGradient>
</defs>
</svg>
