<svg width="80" height="77" viewBox="0 0 80 77" fill="none" xmlns="http://www.w3.org/2000/svg">
<g clip-path="url(#clip0_9_79466)">
<path fill-rule="evenodd" clip-rule="evenodd" d="M56.1085 0.722984L63.7673 5.12172C63.8101 5.1393 63.8512 5.16059 63.8902 5.18531C64.2055 5.4006 64.4604 5.69238 64.6305 6.03305C64.8006 6.37373 64.8803 6.75196 64.8621 7.13187V41.7605C64.7834 42.843 64.4505 43.892 63.8902 44.8234C63.3298 45.8335 62.5194 46.6848 61.5357 47.2965L11.5648 75.978C11.229 76.2208 10.8341 76.3701 10.4209 76.4104C10.0077 76.4507 9.59111 76.3806 9.21424 76.2074C9.18028 76.1876 9.14135 76.1637 9.11437 76.1439L1.45052 71.7461C1.16855 71.5201 0.943369 71.2319 0.792709 70.9044C0.64205 70.5769 0.570024 70.219 0.582423 69.8591V35.2305C0.674654 34.1175 1.02197 33.0403 1.5977 32.0814C2.17343 31.1225 2.96231 30.3075 3.90391 29.6986L53.8748 1.01201C54.1971 0.790583 54.5679 0.648864 54.9564 0.598596C55.3449 0.548329 55.7399 0.59095 56.1085 0.722984Z" fill="#1B69FF"/>
<path fill-rule="evenodd" clip-rule="evenodd" d="M8.24491 39.6243L0.581055 35.2266V39.4316L8.24491 43.8293V39.6243Z" fill="#1B69FF"/>
<path fill-rule="evenodd" clip-rule="evenodd" d="M1.15874 39.1028L7.66483 42.8371V39.9569L1.15874 36.2226V39.1028ZM8.24423 44.4033C8.14305 44.4029 8.04349 44.3777 7.9545 44.3298L0.289671 39.9321C0.202778 39.8809 0.13061 39.8083 0.0800551 39.7214C0.0295005 39.6344 0.00225591 39.536 0.000976562 39.4355V35.2295C0.00177144 35.1289 0.0287823 35.0303 0.0793845 34.9433C0.129987 34.8562 0.20245 34.7837 0.289671 34.7329C0.376956 34.6827 0.475995 34.6563 0.576842 34.6562C0.677688 34.6563 0.776788 34.6827 0.864073 34.7329L8.52793 39.1306C8.61629 39.1803 8.68967 39.2525 8.74059 39.3398C8.79152 39.4271 8.81812 39.5263 8.8176 39.6272V43.8323C8.81813 43.9073 8.80368 43.9815 8.77504 44.0509C8.7464 44.1202 8.70415 44.1832 8.65078 44.2362C8.59742 44.2891 8.53401 44.3311 8.46421 44.3594C8.39441 44.3878 8.31963 44.402 8.24423 44.4014V44.4033Z" fill="#1B69FF"/>
<path fill-rule="evenodd" clip-rule="evenodd" d="M63.772 5.11896L56.1081 0.720218C55.7386 0.590267 55.3435 0.548643 54.9547 0.598679C54.566 0.648715 54.1946 0.788984 53.8705 1.00821L3.89961 29.6948C2.95708 30.3027 2.16743 31.1175 1.59157 32.0766C1.01572 33.0357 0.66903 34.1134 0.578125 35.2267L8.24198 39.6244C8.31783 38.5431 8.65058 37.4951 9.21293 36.5665C9.77153 35.5564 10.5807 34.7051 11.5635 34.0935L61.5333 5.40895C61.8406 5.20517 62.1885 5.06958 62.5533 5.01148C62.918 4.95338 63.2911 4.97415 63.6471 5.07228L63.772 5.11896Z" fill="#1B69FF"/>
<path fill-rule="evenodd" clip-rule="evenodd" d="M1.18907 34.9158L7.7821 38.6988C7.9552 37.8464 8.27019 37.0287 8.71409 36.2794C9.32232 35.1832 10.2027 34.2601 11.2714 33.5979L61.2463 4.91233C61.423 4.81191 61.6066 4.72395 61.7957 4.64913L55.8221 1.22173C55.5383 1.14601 55.2412 1.13343 54.952 1.18494C54.6627 1.23644 54.3885 1.35073 54.1488 1.51967L4.18789 30.1923C3.37797 30.7224 2.69114 31.4182 2.17331 32.2333C1.65548 33.0484 1.3186 33.9639 1.1851 34.9188L1.18907 34.9158ZM8.24462 40.2014C8.14301 40.1995 8.04344 40.1726 7.95489 40.123L0.290059 35.7252C0.197326 35.6721 0.121536 35.5941 0.0713583 35.5001C0.0211804 35.4062 -0.00135024 35.3 0.0063639 35.1939C0.101712 33.987 0.47578 32.8182 1.0995 31.7785C1.72322 30.7388 2.57976 29.8561 3.60252 29.1991L53.5834 0.511591C53.9868 0.23881 54.4514 0.0689721 54.9365 0.0170097C55.4215 -0.0349528 55.9119 0.0325703 56.3644 0.213654L64.0563 4.62627C64.1827 4.70074 64.276 4.82011 64.3174 4.96028C64.3587 5.10045 64.345 5.25102 64.2791 5.38157C64.2132 5.51213 64.1 5.61297 63.9622 5.66375C63.8244 5.71453 63.6724 5.71148 63.5368 5.6552L63.419 5.60156C63.1443 5.5427 62.8604 5.54001 62.5846 5.59362C62.3088 5.64723 62.0468 5.75605 61.8147 5.91344L11.8418 34.59C10.9484 35.1521 10.2138 35.9311 9.70706 36.8535C9.18791 37.7061 8.87975 38.669 8.80799 39.6631C8.80353 39.761 8.77358 39.856 8.72104 39.9389C8.6685 40.0218 8.5952 40.0897 8.50832 40.1359C8.42391 40.1789 8.33044 40.2013 8.2356 40.2014H8.24462Z" fill="#1B69FF"/>
<path fill-rule="evenodd" clip-rule="evenodd" d="M8.23807 43.8313L0.574219 39.4336C0.574219 49.5698 0.575889 59.711 0.579218 69.8572C0.56682 70.2171 0.638784 70.575 0.789444 70.9025C0.940104 71.23 1.16535 71.5182 1.44731 71.7442L9.11214 76.1419C8.83035 75.9157 8.6052 75.6274 8.4544 75.3C8.30359 74.9726 8.23126 74.6148 8.24307 74.2549C8.2444 64.112 8.24273 53.9708 8.23807 43.8313Z" fill="white"/>
<path fill-rule="evenodd" clip-rule="evenodd" d="M1.15286 40.4229L1.15786 69.8563C1.1436 70.1258 1.19341 70.3948 1.30327 70.6415C1.41313 70.8883 1.57995 71.1058 1.79018 71.2765L7.70284 74.6692C7.68786 74.5381 7.67388 74.41 7.66888 74.2938L7.65894 44.1572L1.15286 40.4229ZM9.11138 76.7081C9.01026 76.7073 8.91086 76.6821 8.82171 76.6346L1.15786 72.2319C0.7957 71.9576 0.50287 71.6032 0.302747 71.1966C0.102624 70.7901 0.000676265 70.3427 0.00502866 69.8901L2.90914e-05 39.4327C-0.000991917 39.3323 0.0248799 39.2334 0.0749007 39.1462C0.124922 39.0589 0.197331 38.9864 0.284761 38.9361C0.372937 38.8858 0.472788 38.8594 0.574431 38.8594C0.676074 38.8594 0.775986 38.8858 0.864162 38.9361L8.52302 43.3349C8.61147 43.3843 8.6849 43.4565 8.73568 43.5439C8.78647 43.6312 8.81275 43.7305 8.81171 43.8314L8.81671 74.255C8.80252 74.5249 8.85298 74.7943 8.96395 75.0411C9.07493 75.2878 9.24321 75.5048 9.45501 75.6742C9.55202 75.7463 9.62376 75.8469 9.66011 75.9617C9.69647 76.0766 9.69561 76.1999 9.65761 76.3142C9.61962 76.4285 9.54645 76.5281 9.44843 76.5988C9.3504 76.6694 9.23248 76.7077 9.11138 76.7081Z" fill="#1B69FF"/>
<path fill-rule="evenodd" clip-rule="evenodd" d="M63.8909 44.815C64.4512 43.8835 64.784 42.8345 64.8628 41.7521L47.3325 36.6055L39.1102 48.4638C38.4461 49.4597 37.5721 50.3001 36.5489 50.9269C36.1776 51.1745 35.7594 51.3442 35.3199 51.4255C34.8803 51.5067 34.4287 51.498 33.9927 51.3996L25.7704 48.9803L8.24499 74.2533C8.22584 74.6333 8.30503 75.0117 8.47503 75.3526C8.64503 75.6934 8.90014 75.9851 9.21594 76.1999C9.59282 76.3731 10.0093 76.4432 10.4225 76.4029C10.8358 76.3626 11.2307 76.2133 11.5665 75.9705L61.5374 47.289C62.5206 46.6766 63.3307 45.8251 63.8909 44.815Z" fill="white"/>
<path fill-rule="evenodd" clip-rule="evenodd" d="M8.8325 74.411C8.83372 74.6637 8.8953 74.9126 9.01218 75.1371C9.12906 75.3615 9.29787 75.5552 9.50476 75.7021C9.79463 75.8199 10.1104 75.8607 10.4209 75.8205C10.7314 75.7802 11.026 75.6604 11.2759 75.4727L61.2468 46.7901C62.14 46.2273 62.877 45.4508 63.3905 44.5317C63.8229 43.8038 64.1128 43.0011 64.2446 42.1659L47.5733 37.2726L39.5818 48.7854C38.8692 49.8525 37.9319 50.7529 36.8347 51.4242C36.3964 51.7122 35.9031 51.9071 35.3855 51.9968C34.868 52.0865 34.3374 52.0691 33.8269 51.9456L26.0063 49.6484L8.82451 74.414L8.8325 74.411ZM10.0832 76.9932C9.67757 76.9973 9.27812 76.8945 8.92542 76.6953C8.52493 76.4328 8.19905 76.0722 7.97916 75.6484C7.75926 75.2245 7.65271 74.7516 7.66973 74.2749C7.66265 74.15 7.69779 74.0262 7.7696 73.9234L25.295 48.6513C25.3658 48.5528 25.4655 48.4783 25.5805 48.4381C25.6954 48.398 25.82 48.3941 25.9373 48.4269L34.1606 50.8462C34.5206 50.921 34.8923 50.9224 35.2529 50.8502C35.6135 50.778 35.9555 50.6337 36.2584 50.4261C37.2091 49.8441 38.0196 49.0615 38.6328 48.1338L46.8561 36.2755C46.9252 36.1763 47.0239 36.1011 47.1382 36.0607C47.2526 36.0202 47.3768 36.0165 47.4934 36.05L65.0238 41.1966C65.1469 41.2337 65.2541 41.3104 65.3286 41.4147C65.4031 41.519 65.4406 41.6449 65.4353 41.7726C65.3542 42.9486 64.9941 44.0888 64.3844 45.0997C63.7762 46.1972 62.8942 47.1207 61.8232 47.7813L11.8473 76.4639C11.3168 76.7926 10.7089 76.9772 10.0842 76.9992L10.0832 76.9932Z" fill="#1B69FF"/>
<path fill-rule="evenodd" clip-rule="evenodd" d="M8.23828 43.832V70.0635L8.24328 70.0535V74.2586L25.7687 48.9856L23.3492 48.2734L8.23828 43.832Z" fill="white"/>
<path fill-rule="evenodd" clip-rule="evenodd" d="M8.81286 69.9753C8.81706 69.9993 8.81874 70.0236 8.81786 70.0478V72.4086L24.8419 49.3057L8.81286 44.5941V69.9753ZM8.24547 74.8299C8.18699 74.8299 8.12892 74.8202 8.07366 74.8011C7.95648 74.7646 7.854 74.692 7.78094 74.5938C7.70788 74.4957 7.66803 74.377 7.66711 74.2549V70.1283C7.66711 70.1085 7.66211 70.0846 7.66211 70.0598V43.8304C7.6625 43.7402 7.68399 43.6513 7.72491 43.5708C7.76583 43.4903 7.82501 43.4203 7.89782 43.3665C7.96906 43.3131 8.05211 43.2774 8.14 43.2622C8.22788 43.247 8.31814 43.2528 8.40333 43.2791L25.9387 48.4306C26.0257 48.4572 26.1053 48.5037 26.1709 48.5665C26.2366 48.6293 26.2864 48.7065 26.3165 48.792C26.3465 48.8775 26.3559 48.9688 26.3439 49.0585C26.3319 49.1483 26.2988 49.234 26.2473 49.3086L8.72196 74.5767C8.66914 74.6541 8.59816 74.7177 8.51515 74.7618C8.43213 74.8059 8.3396 74.8293 8.24547 74.8299Z" fill="#1B69FF"/>
<path fill-rule="evenodd" clip-rule="evenodd" d="M64.8625 41.7528V11.3242L49.7515 33.1182L47.3281 36.6112L64.8625 41.7528Z" fill="white"/>
<path fill-rule="evenodd" clip-rule="evenodd" d="M48.2585 36.2792L64.2824 40.9858L64.2874 13.1673L48.2585 36.2792ZM64.8618 42.3276C64.8053 42.3268 64.7492 42.3185 64.695 42.3028L47.1696 37.1572C47.0824 37.13 47.0026 37.0834 46.9363 37.021C46.87 36.9585 46.8189 36.8818 46.787 36.7967C46.7573 36.711 46.748 36.6197 46.76 36.5298C46.7719 36.44 46.8048 36.3542 46.8559 36.2792L64.3853 11.0012C64.4534 10.8993 64.553 10.8222 64.6691 10.7817C64.7852 10.7412 64.9114 10.7395 65.0286 10.7767C65.1465 10.8123 65.2497 10.8846 65.3231 10.983C65.3965 11.0813 65.4362 11.2006 65.4362 11.323L65.4312 41.7516C65.4275 41.9028 65.3661 42.047 65.2595 42.1549C65.1528 42.2628 65.0088 42.3263 64.8568 42.3325L64.8618 42.3276Z" fill="#1B69FF"/>
<path fill-rule="evenodd" clip-rule="evenodd" d="M61.5365 5.40728L11.5656 34.0978C10.5828 34.7094 9.77373 35.5607 9.21509 36.5708C8.65274 37.4994 8.31999 38.5474 8.24414 39.6287V43.8308C33.817 51.3481 8.95035 44.0403 33.9917 51.4017C34.4278 51.5 34.8794 51.5088 35.319 51.4275C35.7585 51.3462 36.1768 51.1765 36.5481 50.9289C37.5714 50.3024 38.4454 49.4619 39.1093 48.4659C65.4653 10.4615 39.6088 47.7389 64.8629 11.3305V7.1304C64.8811 6.75049 64.8014 6.37226 64.6313 6.03158C64.4612 5.69091 64.2064 5.39907 63.891 5.18378C63.5138 5.01061 63.097 4.94006 62.6834 4.97932C62.2697 5.01858 61.874 5.16628 61.5365 5.40728Z" fill="white"/>
<path fill-rule="evenodd" clip-rule="evenodd" d="M8.8178 43.4017L34.1589 50.8505C34.5189 50.9253 34.8905 50.9267 35.2511 50.8545C35.6117 50.7823 35.9538 50.638 36.2567 50.4304C37.2074 49.8483 38.018 49.0658 38.6312 48.1382L51.917 28.9781L51.962 29.0078C52.1877 28.5828 52.6932 27.8557 53.6192 26.515L64.2759 11.1547V7.1304C64.2926 6.85026 64.2384 6.57046 64.1184 6.31648C63.9983 6.0625 63.8162 5.84245 63.5886 5.67642C63.2983 5.56105 62.9831 5.52157 62.673 5.56173C62.3629 5.60189 62.0684 5.72037 61.8175 5.90586L11.8416 34.5884C10.9892 35.1555 10.2747 35.9044 9.7501 36.7806C9.22548 37.6568 8.90393 38.6382 8.80884 39.6535V43.4047L8.8178 43.4017ZM34.6833 52.0691C34.3943 52.0682 34.1068 52.0271 33.8293 51.9469L8.07561 44.382C7.95685 44.3458 7.85285 44.2728 7.77881 44.1736C7.70476 44.0744 7.66457 43.9543 7.66406 43.8308V39.6257C7.74196 38.4434 8.10181 37.2965 8.71391 36.2798C9.32383 35.1835 10.2055 34.2604 11.2752 33.5982L61.2461 4.91566C61.6699 4.62206 62.1649 4.44642 62.6798 4.40696C63.1948 4.36749 63.711 4.46562 64.175 4.69119C64.5755 4.95259 64.9018 5.3119 65.1225 5.73467C65.3433 6.15744 65.4511 6.62951 65.4356 7.10561V11.3345C65.4351 11.4508 65.4004 11.5643 65.3358 11.6612C53.5553 28.6443 52.898 29.5928 52.873 29.6266L52.824 29.5978C52.5893 30.0367 52.0538 30.8074 51.0579 32.2465L39.5851 48.7887C38.873 49.8561 37.9355 50.7566 36.838 51.4275C36.1904 51.829 35.4472 52.0521 34.6843 52.074L34.6833 52.0691Z" fill="#1B69FF"/>
<path fill-rule="evenodd" clip-rule="evenodd" d="M64.8629 11.3289V7.12891L38.2413 45.5087C37.803 46.1696 37.2231 46.7258 36.5431 47.1375C36.2985 47.302 36.0225 47.4147 35.7322 47.4685C35.4419 47.5223 35.1436 47.5162 34.8558 47.4504L8.24512 39.6262V43.8312C31.3336 50.6165 13.7793 45.46 33.9928 51.4021C34.4288 51.5004 34.8804 51.5093 35.32 51.428C35.7595 51.3467 36.1777 51.177 36.549 50.9294C37.5722 50.3027 38.4462 49.4622 39.1103 48.4663C65.4663 10.4609 39.6118 47.7423 64.8629 11.3289Z" fill="white"/>
<path fill-rule="evenodd" clip-rule="evenodd" d="M8.82177 43.4029L34.1628 50.8516C34.5229 50.9265 34.8945 50.928 35.2551 50.8558C35.6157 50.7835 35.9578 50.6392 36.2606 50.4315C37.2113 49.8495 38.0219 49.067 38.6351 48.1393L51.9209 28.9792L51.9659 29.009C52.1917 28.5839 52.6972 27.8569 53.6232 26.5161L64.2858 11.1559V8.9709L38.719 45.8382C38.2333 46.5683 37.5917 47.1831 36.84 47.6388C36.5277 47.8421 36.1767 47.9795 35.8088 48.0424C35.4409 48.1053 35.0639 48.0923 34.7013 48.0042L8.82074 40.3996V43.4049L8.82177 43.4029ZM34.6872 52.0703C34.3982 52.0694 34.1107 52.0282 33.8332 51.9481L8.07952 44.3832C7.96076 44.3469 7.85676 44.2739 7.78272 44.1748C7.70867 44.0756 7.66847 43.9555 7.66797 43.832V39.6269C7.66922 39.538 7.691 39.4507 7.73162 39.3715C7.77225 39.2923 7.83065 39.2235 7.90228 39.1703C7.97391 39.1171 8.05686 39.081 8.14476 39.0648C8.23265 39.0485 8.32313 39.0527 8.40919 39.0767L35.0309 46.9009C35.2428 46.9432 35.4611 46.9426 35.6727 46.899C35.8843 46.8555 36.085 46.77 36.2626 46.6476C36.867 46.2779 37.3814 45.7796 37.769 45.1886L64.3857 6.80083C64.4549 6.69942 64.5551 6.62289 64.6715 6.58255C64.7879 6.54221 64.9142 6.54024 65.0318 6.57691C65.1494 6.61358 65.2521 6.68697 65.3244 6.78617C65.3968 6.88536 65.4351 7.00509 65.4336 7.12763V11.3277C65.4331 11.444 65.3983 11.5576 65.3337 11.6545C53.5532 28.6376 52.8959 29.586 52.8709 29.6198L52.822 29.591C52.5873 30.03 52.0518 30.8007 51.0559 32.2397L39.58 48.7859C38.8679 49.8534 37.9305 50.7538 36.833 51.4247C36.1851 51.8242 35.4424 52.0459 34.6803 52.0673L34.6872 52.0703Z" fill="#1B69FF"/>
<path fill-rule="evenodd" clip-rule="evenodd" d="M8.97411 37.0091L1.31026 32.6055C0.889608 33.4201 0.641144 34.3117 0.580078 35.2254L8.24393 39.6231C8.30603 38.7115 8.55446 37.822 8.97411 37.0091Z" fill="#1B69FF"/>
<path fill-rule="evenodd" clip-rule="evenodd" d="M1.18878 34.9059L7.78181 38.6938C7.8826 38.1946 8.03557 37.7073 8.23829 37.2398L1.57941 33.4162C1.38497 33.8937 1.25465 34.3946 1.19182 34.9059H1.18878ZM8.24433 40.1965C8.14287 40.1944 8.04341 40.1678 7.9546 40.119L0.289767 35.7213C0.19759 35.6673 0.122247 35.589 0.0721636 35.495C0.0220797 35.401 -0.000779984 35.2951 0.00607169 35.1889C0.070939 34.1986 0.339909 33.2321 0.796248 32.3495C0.831984 32.2807 0.881158 32.2197 0.94093 32.1701C1.0007 32.1205 1.06982 32.0833 1.14427 32.0606C1.21871 32.038 1.29697 32.0303 1.37443 32.0381C1.45189 32.046 1.52704 32.0691 1.59539 32.1061L9.25924 36.5088C9.38624 36.5803 9.48088 36.6975 9.52379 36.8362C9.5667 36.9749 9.55458 37.1246 9.48995 37.2547C9.10078 38.0002 8.87025 38.8173 8.81269 39.6552C8.80834 39.7531 8.77842 39.8482 8.72587 39.9311C8.67332 40.014 8.59997 40.0818 8.51302 40.128C8.42875 40.173 8.33497 40.1974 8.23933 40.1994L8.24433 40.1965Z" fill="#1B69FF"/>
<path d="M73.7701 41.2677C77.2113 34.402 76.3474 27.0262 71.8407 24.7934C67.3339 22.5606 60.8908 26.3162 57.4496 33.1819C54.0084 40.0476 54.8722 47.4234 59.379 49.6562C63.8858 51.889 70.3289 48.1334 73.7701 41.2677Z" fill="white"/>
<path d="M65.784 49.5416C59.8493 52.4009 55.0205 49.045 55.0205 42.0641C55.0205 35.0831 59.8493 27.0753 65.784 24.2159C71.7187 21.3566 76.5476 24.7125 76.5476 31.6925C76.5476 38.6724 71.7177 46.6823 65.784 49.5416ZM65.784 25.7057C60.5476 28.2283 56.2861 35.2927 56.2861 41.4543C56.2861 47.6159 60.5476 50.5745 65.784 48.0519C71.0205 45.5292 75.2819 38.4639 75.2819 32.3033C75.2819 26.1427 71.0195 23.185 65.784 25.7057Z" fill="#2979E4"/>
<path d="M72.3891 43.2473C72.3169 43.2912 72.233 43.3126 72.1484 43.3085C72.0638 43.3044 71.9823 43.2751 71.9147 43.2245L58.7007 31.972C58.4689 31.7733 58.4939 31.2926 58.7566 30.8934C59.0194 30.4941 59.4179 30.3322 59.6497 30.5289L72.8646 41.7814C73.0954 41.98 73.0704 42.4607 72.8077 42.86C72.7058 43.0242 72.5612 43.158 72.3891 43.2473Z" fill="#2979E4"/>
</g>
<defs>
<clipPath id="clip0_9_79466">
<rect width="80" height="77" fill="white"/>
</clipPath>
</defs>
</svg>
