<svg width="82" height="81" viewBox="0 0 82 81" fill="none" xmlns="http://www.w3.org/2000/svg">
<path d="M10.605 80.9114H10.5523C10.3676 80.8974 10.196 80.8105 10.0752 80.6698C9.95445 80.5291 9.89437 80.3461 9.9082 80.161C10.2137 76.3831 10.959 72.654 12.1289 69.0496C12.6968 67.339 13.3499 65.658 14.0858 64.013C16.4256 58.7582 19.5582 53.8953 23.3736 49.595C26.2908 46.3269 29.6672 43.5018 33.3966 41.2086C35.4017 40.0678 37.5331 39.1658 39.7473 38.5211C39.943 38.4708 40.1276 38.4307 40.3097 38.3906C40.4152 38.3676 40.5198 38.3446 40.6228 38.3198C40.8398 38.2542 41.0626 38.2097 41.2881 38.1868C41.6223 38.1205 41.9597 38.0716 42.2989 38.0402L42.4206 38.0265C43.218 37.9264 44.0229 37.9001 44.8251 37.9481C44.9578 37.9532 45.0931 37.9618 45.2207 37.9728C43.4827 36.8873 41.6868 35.8979 39.8409 35.0091C39.7547 34.9725 39.6769 34.919 39.6118 34.8517C39.5467 34.7844 39.4958 34.7047 39.462 34.6173C39.4282 34.5299 39.4123 34.4366 39.4152 34.3429C39.4181 34.2493 39.4397 34.1571 39.4788 34.072C39.5179 33.9868 39.5737 33.9104 39.6428 33.8473C39.7119 33.7841 39.7929 33.7356 39.8811 33.7044C39.9693 33.6732 40.0629 33.6601 40.1562 33.6659C40.2496 33.6716 40.3408 33.6961 40.4245 33.7378C42.8885 34.9486 45.2811 36.3002 47.5903 37.7861C48.6369 38.4307 49.6256 39.0403 50.5189 39.5553C50.6764 39.6469 50.792 39.7965 50.841 39.9722C50.8901 40.1479 50.8688 40.3358 50.7816 40.496C50.6944 40.6561 50.5483 40.7759 50.3743 40.8297C50.2003 40.8834 50.0123 40.8671 49.8502 40.784C48.4772 40.0614 46.9852 39.5932 45.4462 39.4018C45.2454 39.3814 45.0029 39.3558 44.7655 39.3481C44.0397 39.3042 43.3114 39.3276 42.5899 39.418L42.4538 39.4334C42.1496 39.4608 41.847 39.5049 41.5476 39.5655C41.516 39.5728 41.4839 39.5776 41.4515 39.58C41.302 39.5925 41.1542 39.6211 41.0108 39.6653L40.9665 39.6772C40.8508 39.7045 40.7325 39.731 40.6134 39.7574C40.4433 39.7941 40.2731 39.8316 40.1029 39.8742C38.0077 40.4872 35.9908 41.3422 34.0926 42.4219C30.4901 44.6414 27.2285 47.3736 24.41 50.5329C20.6937 54.7227 17.6424 59.4601 15.363 64.5792C14.6447 66.1809 14.0072 67.8177 13.4528 69.4835C12.3175 72.9813 11.5939 76.5999 11.2968 80.2659C11.2831 80.4408 11.2045 80.6041 11.0764 80.7237C10.9483 80.8432 10.7801 80.9102 10.605 80.9114Z" fill="#0C5AE5"/>
<path d="M14.1689 35.8269C14.0414 35.827 13.9163 35.7919 13.8073 35.7255C9.21278 32.9357 8.12965 26.4898 10.9026 18.4844C14.3153 8.63311 22.7658 -0.947914 31.008 0.0769494C33.2882 0.360876 37.7296 3.08162 41.2955 5.26777C42.2587 5.85864 43.0899 6.36852 43.7519 6.74879C43.9126 6.8415 44.0299 6.99438 44.0781 7.17379C44.1263 7.3532 44.1014 7.54443 44.0088 7.70544C43.9163 7.86644 43.7638 7.98403 43.5847 8.03232C43.4057 8.08061 43.2149 8.05565 43.0542 7.96293C42.3735 7.57243 41.538 7.05744 40.5663 6.46231C37.4803 4.57117 32.8169 1.71229 30.8361 1.46588C23.3997 0.543337 15.3831 9.82167 12.2222 18.9448C9.68074 26.2775 10.5443 32.1069 14.5314 34.5292C14.6618 34.6085 14.7627 34.7283 14.8188 34.8704C14.8749 35.0126 14.883 35.1692 14.8419 35.3163C14.8008 35.4635 14.7128 35.5932 14.5913 35.6855C14.4698 35.7779 14.3214 35.827 14.1689 35.8269Z" fill="#0C5AE5"/>
<path d="M10.605 80.9115H10.5659C10.3809 80.9012 10.2077 80.8176 10.0842 80.6793C9.96073 80.541 9.8971 80.3593 9.90731 80.174C10.4416 70.5725 15.1587 59.3698 22.2173 50.9432C25.3586 47.1754 31.8174 40.5488 39.7625 38.5161C45.2275 37.0334 50.404 38.378 53.6007 42.115C53.6604 42.1849 53.7058 42.2658 53.7343 42.3532C53.7628 42.4406 53.7739 42.5328 53.7668 42.6244C53.7598 42.7161 53.7348 42.8055 53.6933 42.8875C53.6518 42.9695 53.5946 43.0425 53.5249 43.1024C53.4553 43.1622 53.3745 43.2078 53.2873 43.2363C53.2001 43.2649 53.1081 43.276 53.0166 43.2689C52.9251 43.2619 52.8359 43.2368 52.7541 43.1952C52.6722 43.1537 52.5994 43.0963 52.5396 43.0265C49.6604 39.6595 45.1373 38.5075 40.1173 39.8718C32.5448 41.8089 26.3226 48.2037 23.2877 51.8427C16.412 60.0536 11.82 70.9417 11.301 80.2533C11.2904 80.4311 11.2125 80.5983 11.0831 80.7206C10.9538 80.8429 10.7828 80.9112 10.605 80.9115Z" fill="#0C5AE5"/>
<path d="M27.7375 42.5112C26.3388 42.5251 24.9615 42.1658 23.7471 41.4702C20.9393 39.8425 19.3984 36.4814 19.3984 32.006C19.6543 27.1379 21.0551 22.3995 23.4865 18.1773C25.9178 13.9552 29.3109 10.3689 33.3889 7.71106C37.261 5.46779 40.9418 5.12504 43.7538 6.74504C46.5659 8.36504 48.0931 11.7252 48.0931 16.2092C48.0931 26.243 40.7537 36.6997 33.9538 40.6337C32.0811 41.7933 29.9378 42.4406 27.7375 42.5112ZM39.8434 7.14065C37.8025 7.22298 35.8184 7.83783 34.0874 8.92436C30.2222 11.4593 27.0054 14.8689 24.6966 18.8783C22.3878 22.8878 21.0515 27.3848 20.7955 32.0068C20.7955 35.9604 22.0922 38.8901 24.4465 40.2569C27.4883 42.0167 30.9129 40.7727 33.2561 39.4196C39.7225 35.6808 46.6994 25.7434 46.6994 16.2084C46.6994 12.2479 45.4062 9.31827 43.0578 7.96003C42.0773 7.40746 40.9681 7.12532 39.8434 7.14235V7.14065Z" fill="#0C5AE5"/>
<path d="M0.698857 75.1733H0.646094C0.55457 75.1664 0.465311 75.1415 0.3834 75.1C0.301488 75.0585 0.228532 75.0012 0.168715 74.9315C0.108899 74.8617 0.0633889 74.7808 0.0347845 74.6934C0.00618006 74.606 -0.00495081 74.5138 0.00201583 74.4221C1.03239 60.7391 8.78357 46.4626 19.7475 38.0497C19.8949 37.947 20.076 37.905 20.2534 37.9326C20.4307 37.9601 20.5907 38.055 20.7002 38.1975C20.8096 38.3401 20.8601 38.5194 20.8411 38.6983C20.8222 38.8771 20.7352 39.0418 20.5984 39.1581C9.93561 47.3434 2.39883 61.2208 1.39654 74.5244C1.38363 74.701 1.3045 74.866 1.17505 74.9864C1.04561 75.1068 0.87546 75.1735 0.698857 75.1733Z" fill="#0C5AE5"/>
<path d="M10.606 80.9113C10.4834 80.9112 10.363 80.8785 10.2571 80.8166L0.349063 75.0784C0.26962 75.0324 0.19999 74.9711 0.144168 74.8982C0.0883461 74.8252 0.0474157 74.7419 0.0237133 74.6531C-0.024156 74.4736 0.0010623 74.2825 0.0938076 74.1217C0.186553 73.961 0.339238 73.8437 0.518268 73.7957C0.697299 73.7478 0.888006 73.773 1.04845 73.866L10.9565 79.6042C11.0898 79.6813 11.1939 79.8003 11.2527 79.9428C11.3116 80.0853 11.3218 80.2433 11.2818 80.3922C11.2419 80.5411 11.1539 80.6726 11.0317 80.7663C10.9095 80.86 10.7599 80.9107 10.606 80.9104V80.9113Z" fill="#0C5AE5"/>
<path d="M24.0934 41.5657C23.9709 41.5656 23.8506 41.5333 23.7446 41.4719L13.8203 35.7329C13.7405 35.6871 13.6705 35.626 13.6143 35.553C13.5581 35.4801 13.5169 35.3967 13.4929 35.3078C13.4689 35.2188 13.4627 35.126 13.4746 35.0346C13.4866 34.9432 13.5164 34.8551 13.5623 34.7753C13.6083 34.6955 13.6696 34.6256 13.7426 34.5695C13.8156 34.5135 13.8989 34.4725 13.9878 34.4488C14.0767 34.4251 14.1693 34.4193 14.2604 34.4315C14.3516 34.4438 14.4394 34.474 14.5189 34.5204L24.4431 40.2586C24.5763 40.3357 24.6804 40.4547 24.7392 40.5971C24.7981 40.7395 24.8084 40.8974 24.7685 41.0462C24.7286 41.1951 24.6409 41.3266 24.5188 41.4204C24.3967 41.5142 24.2472 41.565 24.0934 41.5649V41.5657Z" fill="#0C5AE5"/>
<path d="M10.6052 80.9112C10.4514 80.9113 10.3019 80.8605 10.1798 80.7667C10.0577 80.673 9.96996 80.5414 9.93011 80.3926C9.89026 80.2437 9.90054 80.0858 9.95937 79.9434C10.0182 79.801 10.1223 79.682 10.2555 79.605L36.0199 64.695C36.1803 64.603 36.3705 64.5785 36.5489 64.6267C36.7274 64.675 36.8794 64.7922 36.9718 64.9525C37.0642 65.1129 37.0894 65.3035 37.0419 65.4824C36.9945 65.6614 36.8781 65.8142 36.7184 65.9075L10.9549 80.8166C10.8487 80.8785 10.7281 80.9111 10.6052 80.9112Z" fill="#0C5AE5"/>
<path d="M68.4907 61.2685L61.25 57.0522L61.2611 61.1005L68.5017 65.3168L68.4907 61.2685Z" fill="#0C5AE5"/>
<path d="M68.503 65.7713C68.5627 65.7713 68.6219 65.7594 68.6771 65.7364C68.7323 65.7134 68.7824 65.6797 68.8245 65.6373C68.8667 65.5948 68.9 65.5444 68.9227 65.489C68.9453 65.4335 68.9568 65.3742 68.9565 65.3143L68.9454 61.2668C68.9454 61.1873 68.9245 61.1092 68.8847 61.0403C68.845 60.9714 68.7879 60.9143 68.7191 60.8746L61.4784 56.6583C61.4095 56.618 61.3311 56.5967 61.2512 56.5967C61.1714 56.5967 61.093 56.618 61.0241 56.6583C60.9549 56.6985 60.8974 56.7562 60.8575 56.8256C60.8177 56.8951 60.7967 56.9738 60.7969 57.054L60.8088 61.1014C60.8089 61.1808 60.8298 61.2588 60.8696 61.3275C60.9093 61.3962 60.9664 61.4532 61.0351 61.4928L68.2749 65.7099C68.3442 65.7501 68.4229 65.7713 68.503 65.7713ZM68.0393 61.5294L68.0478 64.5247L61.7132 60.8379L61.7047 57.8435L68.0393 61.5294Z" fill="#0C5AE5"/>
<path d="M81.4811 32.6414L74.2413 28.4209L61.1953 35.9727L68.436 40.1872L81.4811 32.6414Z" fill="#5F98ED"/>
<path d="M68.4341 40.6441C68.5138 40.6444 68.5922 40.6235 68.6613 40.5836L81.7073 33.0352C81.7762 32.9953 81.8334 32.9379 81.8731 32.8689C81.9129 32.7998 81.9339 32.7215 81.9339 32.6417C81.9339 32.562 81.9129 32.4836 81.8731 32.4146C81.8334 32.3455 81.7762 32.2881 81.7073 32.2482L74.4674 28.032C74.3984 27.9918 74.32 27.9707 74.2403 27.9707C74.1605 27.9707 74.0821 27.9918 74.0131 28.032L60.9688 35.5786C60.8999 35.6185 60.8427 35.6759 60.8029 35.7449C60.7631 35.814 60.7422 35.8923 60.7422 35.9721C60.7422 36.0518 60.7631 36.1302 60.8029 36.1993C60.8427 36.2683 60.8999 36.3257 60.9688 36.3656L68.2095 40.5827C68.2776 40.6227 68.3551 40.6439 68.4341 40.6441ZM80.5748 32.6404L68.4349 39.6636L62.0987 35.9742L74.242 28.9511L80.5748 32.6404Z" fill="#0C5AE5"/>
<path d="M68.4297 40.1902L68.4373 43.015L68.4892 61.2698L68.5003 65.3181L81.5463 57.7706L81.4748 32.6436L68.4297 40.1902Z" fill="#5F98ED"/>
<path d="M68.5015 65.7719C68.5812 65.7719 68.6596 65.7511 68.7287 65.7114L81.7747 58.163C81.8441 58.1234 81.9018 58.0659 81.9417 57.9965C81.9816 57.9271 82.0024 57.8483 82.0019 57.7683L81.9312 32.6412C81.9312 32.5614 81.9102 32.483 81.8703 32.414C81.8305 32.3449 81.7732 32.2876 81.7042 32.2477C81.6352 32.2079 81.5569 32.1869 81.4773 32.187C81.3977 32.1871 81.3195 32.2082 81.2506 32.2481L68.2037 39.7956C68.1345 39.8358 68.0771 39.8935 68.0372 39.9629C67.9973 40.0324 67.9764 40.1111 67.9766 40.1913L68.0472 65.32C68.0479 65.4403 68.0959 65.5554 68.1808 65.6403C68.2657 65.7253 68.3807 65.7732 68.5007 65.7736L68.5015 65.7719ZM81.094 57.5074L68.9533 64.5305L68.8853 40.4522L81.0251 33.4316L81.094 57.5074Z" fill="#0C5AE5"/>
<path d="M68.4256 40.189L61.1875 35.9702L61.1935 38.7967L68.4341 43.013L68.4256 40.189Z" fill="#0C5AE5"/>
<path d="M68.4389 43.4681C68.5187 43.4684 68.5971 43.4475 68.6661 43.4076C68.7352 43.3675 68.7925 43.3099 68.8324 43.2406C68.8723 43.1714 68.8933 43.0928 68.8933 43.0128L68.8848 40.188C68.8847 40.1085 68.8638 40.0304 68.8241 39.9615C68.7843 39.8927 68.7272 39.8355 68.6584 39.7958L61.4229 35.5796C61.3538 35.5398 61.2755 35.5189 61.1958 35.519C61.1161 35.5192 61.0379 35.5403 60.969 35.5803C60.9 35.6203 60.8427 35.6777 60.8029 35.7469C60.7631 35.8161 60.7422 35.8945 60.7422 35.9743L60.7507 38.7991C60.7511 38.8786 60.7721 38.9565 60.8118 39.0253C60.8515 39.0941 60.9085 39.1513 60.977 39.1913L68.2177 43.4076C68.2849 43.4468 68.3611 43.4677 68.4389 43.4681ZM67.9744 40.4515L67.9786 42.2224L61.6475 38.5356L61.6432 36.7647L67.9744 40.4515Z" fill="#0C5AE5"/>
<path d="M44.5902 31.5708L51.8309 35.7871C51.7151 35.7283 51.5853 35.7025 51.4558 35.7126C51.3263 35.7227 51.2021 35.7682 51.0966 35.8442L43.8594 31.628C43.9643 31.5522 44.0879 31.5068 44.2168 31.4968C44.3457 31.4867 44.4749 31.5123 44.5902 31.5708Z" fill="#0C5AE5"/>
<path d="M51.0945 36.2988C51.1745 36.2991 51.2531 36.2782 51.3225 36.2383C51.4476 36.1658 51.5412 36.1462 51.5999 36.1803C51.7039 36.241 51.8278 36.2579 51.9442 36.2271C52.0606 36.1963 52.16 36.1204 52.2206 36.0162C52.2812 35.912 52.298 35.7879 52.2672 35.6712C52.2365 35.5546 52.1608 35.4549 52.0568 35.3942L44.8161 31.1771C44.6318 31.0752 44.4229 31.0265 44.2126 31.0364C44.0023 31.0464 43.7989 31.1145 43.6249 31.2334C43.556 31.2734 43.4989 31.3308 43.4591 31.4C43.4194 31.4691 43.3984 31.5475 43.3984 31.6273C43.3984 31.7071 43.4194 31.7855 43.4591 31.8546C43.4989 31.9237 43.556 31.9812 43.6249 32.0212L50.8648 36.2375C50.9343 36.2785 51.0138 36.2997 51.0945 36.2988Z" fill="#0C5AE5"/>
<path d="M67.8406 42.5381L60.6008 38.321C59.8044 37.858 58.2023 37.4189 55.6829 38.8769C53.806 39.9632 51.3215 39.611 49.2344 38.396L56.4742 42.6123C58.5622 43.8282 61.0466 44.1803 62.9227 43.094C65.4438 41.6326 67.0442 42.0743 67.8406 42.5381Z" fill="white"/>
<path d="M60.3519 44.2049C61.3309 44.2172 62.2958 43.9698 63.1486 43.4878C65.508 42.1236 66.9527 42.5499 67.6061 42.9285H67.6104C67.7144 42.9892 67.8383 43.006 67.9547 42.9752C68.0711 42.9444 68.1705 42.8686 68.2311 42.7643C68.2917 42.6601 68.3085 42.536 68.2777 42.4194C68.247 42.3027 68.1713 42.2031 68.0673 42.1423H68.063L60.8309 37.9278C60.0098 37.4495 58.2188 36.885 55.4578 38.4829C53.8608 39.4071 51.5686 39.2255 49.4721 38.0071L49.4636 38.0028C49.4121 37.9728 49.3552 37.9532 49.2961 37.9451C49.2371 37.9371 49.177 37.9408 49.1194 37.9561C49.0617 37.9713 49.0076 37.9978 48.9602 38.034C48.9128 38.0701 48.8729 38.1153 48.8429 38.167C48.8129 38.2186 48.7934 38.2756 48.7854 38.3348C48.7774 38.394 48.7811 38.4542 48.7963 38.5119C48.8115 38.5697 48.8379 38.6239 48.874 38.6714C48.9101 38.7189 48.9552 38.7589 49.0067 38.7889H49.0144L56.2465 43.0018C57.4858 43.7572 58.9017 44.1721 60.3519 44.2049ZM65.4714 41.6896C64.4877 41.839 63.5438 42.1839 62.6951 42.7042C61.0955 43.6293 58.7982 43.4452 56.7017 42.2233L52.8619 39.9843C53.924 40.0409 54.9803 39.794 55.9079 39.2724C58.2724 37.9082 59.7197 38.3345 60.3714 38.7165L65.4714 41.6896Z" fill="#0C5AE5"/>
<mask id="mask0_9_36284" style="mask-type:luminance" maskUnits="userSpaceOnUse" x="49" y="37" width="19" height="7">
<path d="M62.9259 43.0935C65.4469 41.6355 67.0482 42.0746 67.8438 42.5376L60.6039 38.3205C59.8075 37.8584 58.2054 37.4184 55.6861 38.8764C53.8091 39.9627 51.3246 39.6105 49.2375 38.3947L56.4782 42.6109C57.6551 43.3218 58.9969 43.7124 60.3708 43.7441C61.2649 43.7573 62.1465 43.5328 62.9259 43.0935ZM60.3733 38.7144L65.4759 41.6858C64.4919 41.835 63.5476 42.18 62.6987 42.7005C61.1 43.6256 58.8018 43.4422 56.7054 42.2187L52.8689 39.9831C53.931 40.0397 54.9874 39.7928 55.9149 39.2712C56.7995 38.7035 57.818 38.3799 58.8674 38.3333C59.395 38.3234 59.9157 38.4547 60.3759 38.7135L60.3733 38.7144Z" fill="white"/>
</mask>
<g mask="url(#mask0_9_36284)">
<path d="M67.8406 42.5381L60.6008 38.321C59.8044 37.858 58.2023 37.4189 55.6829 38.8769C53.806 39.9632 51.3215 39.611 49.2344 38.396L56.4742 42.6123C58.5622 43.8282 61.0466 44.1803 62.9227 43.094C65.4438 41.6326 67.0442 42.0743 67.8406 42.5381Z" fill="white"/>
<path d="M60.3519 44.2049C61.3309 44.2172 62.2958 43.9698 63.1486 43.4878C65.508 42.1236 66.9527 42.5499 67.6061 42.9285H67.6104C67.7144 42.9892 67.8383 43.006 67.9547 42.9752C68.0711 42.9444 68.1705 42.8686 68.2311 42.7643C68.2917 42.6601 68.3085 42.536 68.2777 42.4194C68.247 42.3027 68.1713 42.2031 68.0673 42.1423H68.063L60.8309 37.9278C60.0098 37.4495 58.2188 36.885 55.4578 38.4829C53.8608 39.4071 51.5686 39.2255 49.4721 38.0071L49.4636 38.0028C49.4121 37.9728 49.3552 37.9532 49.2961 37.9451C49.2371 37.9371 49.177 37.9408 49.1194 37.9561C49.0617 37.9713 49.0076 37.9978 48.9602 38.034C48.9128 38.0701 48.8729 38.1153 48.8429 38.167C48.8129 38.2186 48.7934 38.2756 48.7854 38.3348C48.7774 38.394 48.7811 38.4542 48.7963 38.5119C48.8115 38.5697 48.8379 38.6239 48.874 38.6714C48.9101 38.7189 48.9552 38.7589 49.0067 38.7889H49.0144L56.2465 43.0018C57.4858 43.7572 58.9017 44.1721 60.3519 44.2049ZM65.4714 41.6896C64.4877 41.839 63.5438 42.1839 62.6951 42.7042C61.0955 43.6293 58.7982 43.4452 56.7017 42.2233L52.8619 39.9843C53.924 40.0409 54.9803 39.794 55.9079 39.2724C58.2724 37.9082 59.7197 38.3345 60.3714 38.7165L65.4714 41.6896Z" fill="#0C5AE5"/>
</g>
<path d="M36.6129 73.9462L43.8527 78.1624C43.3162 77.7426 42.9188 77.1703 42.7126 76.5203C42.5271 76.0829 43.0299 75.1833 42.8751 74.618C42.6351 73.7654 41.7537 73.1634 41.5861 72.096C41.4329 71.1265 41.9877 69.6975 41.9043 68.6283C41.8302 67.6734 41.1121 67.0859 41.0994 66.1062C41.0866 65.1265 41.7869 63.7615 41.8456 62.8151C41.8839 62.1654 41.2678 61.9198 41.3453 61.3042C41.4393 60.5152 41.5773 59.7321 41.7588 58.9586C42.1842 57.1596 44.4815 55.4151 46.8213 54.0619C48.4699 53.1236 50.1798 52.2975 51.9391 51.5893L44.6984 47.373C42.9391 48.0807 41.2296 48.9068 39.5815 49.8457C37.2434 51.198 34.9452 52.9433 34.519 54.7415C34.3377 55.515 34.1996 56.2981 34.1054 57.0871C34.028 57.7027 34.6432 57.9482 34.6057 58.5988C34.5462 59.5452 33.8468 60.9137 33.8595 61.89C33.8723 62.8662 34.5896 63.4571 34.6644 64.412C34.7495 65.4795 34.1922 66.9085 34.3462 67.8797C34.5164 68.9472 35.3953 69.5449 35.6344 70.4018C35.791 70.9654 35.2873 71.8666 35.4727 72.304C35.6793 72.9539 36.0766 73.5262 36.6129 73.9462Z" fill="#D4E6FC"/>
<path d="M43.8538 78.6213C43.9549 78.6229 44.0537 78.5906 44.1344 78.5296C44.2152 78.4685 44.2733 78.3822 44.2996 78.2843C44.3259 78.1864 44.3188 78.0826 44.2795 77.9891C44.2402 77.8957 44.1709 77.8181 44.0826 77.7687C43.6281 77.4031 43.2966 76.9063 43.1331 76.3456C43.1311 76.1343 43.1621 75.924 43.225 75.7224C43.3538 75.3269 43.383 74.9057 43.3101 74.4963C43.1662 74.067 42.9491 73.666 42.6685 73.3111C42.3583 72.9384 42.1403 72.4976 42.0321 72.0245C42.0011 71.4768 42.0504 70.9276 42.1784 70.3943C42.3104 69.8032 42.3698 69.1982 42.3554 68.5926C42.2975 68.1129 42.1457 67.6493 41.9087 67.2284C41.7045 66.886 41.5822 66.5007 41.5514 66.103C41.5969 65.5401 41.7204 64.9862 41.9181 64.4574C42.1037 63.9363 42.2307 63.3961 42.2967 62.8468C42.3057 62.4744 42.1894 62.1098 41.9666 61.8117C41.8279 61.5942 41.7777 61.4987 41.7964 61.3632C41.8893 60.5909 42.0245 59.8244 42.2014 59.067C42.5256 57.7028 44.2017 56.105 47.0512 54.4628C48.6804 53.5356 50.3703 52.72 52.1095 52.0217C52.1884 51.99 52.2569 51.9367 52.3071 51.8678C52.3573 51.799 52.3872 51.7174 52.3934 51.6324C52.3997 51.5474 52.3819 51.4623 52.3422 51.3869C52.3026 51.3114 52.2426 51.2487 52.169 51.2058L44.9292 46.9895C44.8697 46.9549 44.8031 46.9342 44.7344 46.929C44.6657 46.9238 44.5968 46.9343 44.5327 46.9597C42.7531 47.6751 41.0237 48.51 39.3562 49.4587C36.2438 51.2595 34.4681 53.0048 34.081 54.6436C33.8948 55.4334 33.7528 56.233 33.6555 57.0386C33.6233 57.4143 33.7326 57.7884 33.9619 58.0874C34.0796 58.2248 34.1471 58.3983 34.1533 58.5793C34.0894 59.0553 33.9753 59.5232 33.813 59.9751C33.5825 60.5939 33.4455 61.2436 33.4062 61.9029C33.4358 62.4363 33.59 62.9553 33.8563 63.418C34.0403 63.7372 34.1611 64.0889 34.212 64.454C34.2182 64.983 34.1628 65.5109 34.0469 66.0271C33.8954 66.6588 33.8452 67.3107 33.898 67.9583C34.0241 68.57 34.2952 69.1423 34.6885 69.6269C34.9069 69.899 35.0794 70.2052 35.199 70.5332C35.2159 70.7929 35.183 71.0534 35.102 71.3006C34.9642 71.6813 34.9481 72.0955 35.056 72.4858C35.2928 73.2298 35.7582 73.8798 36.3859 74.3428L43.6266 78.5599C43.6955 78.6002 43.7739 78.6214 43.8538 78.6213ZM50.9158 51.5272C49.4345 52.1576 47.9911 52.8736 46.5926 53.6716C43.4794 55.4724 41.7037 57.2177 41.3174 58.8564C41.1312 59.6462 40.9892 60.4458 40.892 61.2515C40.86 61.6275 40.9696 62.0019 41.1991 62.3011C41.3163 62.4384 41.3835 62.6116 41.3897 62.7922C41.3264 63.2683 41.2123 63.7362 41.0494 64.188C40.8187 64.807 40.6813 65.457 40.6418 66.1166C40.672 66.65 40.8265 67.1689 41.0928 67.6317C41.2764 67.9511 41.3971 68.3027 41.4484 68.6677C41.4528 69.1963 41.3957 69.7237 41.2782 70.2391C41.1274 70.8712 41.0775 71.5233 41.1302 72.1711C41.2558 72.783 41.527 73.3554 41.9206 73.8397C42.1392 74.1115 42.3116 74.4174 42.4311 74.7452C42.449 75.0048 42.4163 75.2655 42.335 75.5126C42.1972 75.8936 42.1811 76.3081 42.2891 76.6986L42.3061 76.7395L36.8343 73.5532C36.3803 73.1867 36.049 72.6899 35.8848 72.1294C35.8832 71.918 35.9145 71.7078 35.9775 71.5061C36.1058 71.1109 36.1351 70.6901 36.0626 70.2809C35.9194 69.8512 35.7026 69.4499 35.4219 69.0948C35.1146 68.7228 34.8989 68.2835 34.7923 67.8125C34.7605 67.2651 34.8095 66.7161 34.9378 66.1831C35.0702 65.5918 35.1296 64.9865 35.1147 64.3806C35.0573 63.9009 34.9058 63.4373 34.6689 63.0164C34.4644 62.6741 34.342 62.2888 34.3115 61.891C34.3562 61.328 34.4794 60.7741 34.6774 60.2454C34.8633 59.724 34.9906 59.1835 35.0569 58.6339C35.0661 58.2616 34.9494 57.8972 34.7259 57.5997C34.5881 57.3814 34.537 57.2867 34.5557 57.1512C34.6476 56.3785 34.7829 55.6116 34.9607 54.8542C35.2849 53.49 36.9602 51.893 39.8105 50.25C41.3746 49.3566 42.9953 48.5666 44.6621 47.8848L50.9158 51.5272Z" fill="#0C5AE5"/>
<mask id="mask1_9_36284" style="mask-type:luminance" maskUnits="userSpaceOnUse" x="33" y="47" width="19" height="32">
<path d="M42.7101 76.5247C42.5255 76.0864 43.0275 75.1869 42.8726 74.6225C42.6335 73.7698 41.7521 73.1687 41.5836 72.1004C41.4304 71.131 41.9852 69.7019 41.9018 68.6336C41.8278 67.6778 41.1097 67.0903 41.0969 66.1115C41.0841 65.1327 41.7835 63.7659 41.8431 62.8204C41.8814 62.1706 41.2662 61.9251 41.3428 61.3095C41.4371 60.5202 41.5754 59.7368 41.7572 58.963C42.1826 57.1648 44.4799 55.4195 46.8188 54.0664C48.4678 53.1288 50.1779 52.3036 51.9375 51.5963L44.696 47.38C42.9368 48.0876 41.2276 48.9137 39.5799 49.8527C37.2417 51.2058 34.9436 52.9503 34.5173 54.7485C34.336 55.5223 34.1979 56.3057 34.1038 57.0949C34.0264 57.7105 34.6416 57.9561 34.6041 58.6066C34.5446 59.5522 33.8452 60.9207 33.8579 61.8978C33.8707 62.8749 34.5871 63.4649 34.6628 64.4199C34.7479 65.4874 34.1906 66.9164 34.3446 67.8867C34.5148 68.955 35.3946 69.5527 35.6328 70.4088C35.7885 70.9732 35.2857 71.8736 35.4711 72.311C35.6777 72.9606 36.0751 73.5326 36.6113 73.9523L43.8545 78.166C43.3166 77.7471 42.9176 77.175 42.7101 76.5247ZM50.9165 51.5272C49.4353 52.1578 47.9919 52.8737 46.5934 53.6716C43.4793 55.4724 41.7036 57.2169 41.3181 58.8573C41.1318 59.6468 40.9898 60.4461 40.8927 61.2515C40.8608 61.6274 40.97 62.0017 41.199 62.3011C41.3165 62.4383 41.384 62.6115 41.3904 62.7922C41.3271 63.2683 41.213 63.7362 41.0501 64.188C40.8194 64.8067 40.682 65.4564 40.6426 66.1158C40.6726 66.6493 40.8274 67.1683 41.0944 67.6309C41.278 67.9505 41.3987 68.3025 41.45 68.6677C41.4557 69.1953 41.4003 69.7218 41.2849 70.2365C41.1336 70.8686 41.0837 71.5208 41.1369 72.1686C41.2622 72.7804 41.5331 73.3528 41.9265 73.8372C42.1448 74.1088 42.3172 74.4144 42.437 74.7418C42.4548 75.0029 42.4222 75.2649 42.3408 75.5135C42.2029 75.8941 42.1866 76.3083 42.294 76.6986L42.3111 76.7396L36.8401 73.5533C36.3856 73.1871 36.054 72.6902 35.8897 72.1294C35.8882 71.9181 35.9195 71.7078 35.9825 71.5061C36.1109 71.1112 36.1401 70.6907 36.0676 70.2817C35.9246 69.852 35.7078 69.4506 35.4269 69.0957C35.1169 68.7232 34.8989 68.2827 34.7905 67.81C34.7588 67.2626 34.8078 66.7136 34.936 66.1806C35.0681 65.5889 35.1275 64.9833 35.1129 64.3773C35.055 63.8976 34.9035 63.4341 34.6671 63.013C34.4625 62.671 34.3399 62.286 34.3089 61.8884C34.3536 61.3255 34.4768 60.7716 34.6747 60.2428C34.8611 59.7213 34.9883 59.1805 35.0542 58.6305C35.0635 58.2582 34.9468 57.8937 34.7232 57.5963C34.5854 57.378 34.5344 57.2825 34.5531 57.1478C34.6449 56.3752 34.7798 55.6083 34.9572 54.8508C35.2814 53.4866 36.9567 51.8905 39.807 50.2466C41.3726 49.3558 42.9943 48.568 44.6619 47.8882L50.9165 51.5272Z" fill="white"/>
</mask>
<g mask="url(#mask1_9_36284)">
<path d="M51.9391 51.5961L44.6984 47.3799C42.9391 48.0876 41.2296 48.9137 39.5815 49.8525C37.2434 51.2048 34.9452 52.9501 34.519 54.7483C34.3377 55.5219 34.1996 56.3049 34.1054 57.0939C34.028 57.7095 34.6432 57.9551 34.6057 58.6056C34.5462 59.5521 33.8468 60.9205 33.8595 61.8968C33.8723 62.8731 34.5896 63.4639 34.6644 64.4189C34.7495 65.4864 34.1922 66.9154 34.3462 67.8865C34.5164 68.954 35.3953 69.5517 35.6344 70.4086C35.791 70.9722 35.2873 71.8734 35.4727 72.3108C35.6793 72.9607 36.0766 73.533 36.6129 73.953L43.8527 78.1693C43.3162 77.7495 42.9188 77.1771 42.7126 76.5271C42.5271 76.0897 43.0299 75.1902 42.8751 74.6249C42.6351 73.7722 41.7537 73.1703 41.5861 72.1028C41.4329 71.1333 41.9877 69.7043 41.9043 68.6351C41.8302 67.6802 41.1121 67.0927 41.0994 66.1131C41.0866 65.1334 41.7869 63.7683 41.8456 62.8219C41.8839 62.1722 41.2678 61.9266 41.3453 61.311C41.4393 60.522 41.5773 59.739 41.7588 58.9654C42.1842 57.1664 44.4815 55.4219 46.8213 54.0688C48.4699 53.1305 50.1798 52.3044 51.9391 51.5961Z" fill="#D4E6FC"/>
<path d="M43.8538 78.6213C43.9549 78.6229 44.0537 78.5906 44.1344 78.5296C44.2152 78.4685 44.2733 78.3822 44.2996 78.2843C44.3259 78.1864 44.3188 78.0826 44.2795 77.9891C44.2402 77.8957 44.1709 77.8181 44.0826 77.7687C43.6281 77.4031 43.2966 76.9063 43.1331 76.3456C43.1311 76.1343 43.1621 75.924 43.225 75.7224C43.3538 75.3269 43.383 74.9057 43.3101 74.4963C43.1662 74.067 42.9491 73.666 42.6685 73.3111C42.3583 72.9384 42.1403 72.4976 42.0321 72.0245C42.0011 71.4768 42.0504 70.9276 42.1784 70.3943C42.3104 69.8032 42.3698 69.1982 42.3554 68.5926C42.2975 68.1129 42.1457 67.6493 41.9087 67.2284C41.7045 66.886 41.5822 66.5007 41.5514 66.103C41.5969 65.5401 41.7204 64.9862 41.9181 64.4574C42.1037 63.9363 42.2307 63.3961 42.2967 62.8468C42.3057 62.4744 42.1894 62.1098 41.9666 61.8117C41.8279 61.5942 41.7777 61.4987 41.7964 61.3632C41.8893 60.5909 42.0245 59.8244 42.2014 59.067C42.5256 57.7028 44.2017 56.105 47.0512 54.4628C48.6804 53.5356 50.3703 52.72 52.1095 52.0217C52.1884 51.99 52.2569 51.9367 52.3071 51.8678C52.3573 51.799 52.3872 51.7174 52.3934 51.6324C52.3997 51.5474 52.3819 51.4623 52.3422 51.3869C52.3026 51.3114 52.2426 51.2487 52.169 51.2058L44.9292 46.9895C44.8697 46.9549 44.8031 46.9342 44.7344 46.929C44.6657 46.9238 44.5968 46.9343 44.5327 46.9597C42.7531 47.6751 41.0237 48.51 39.3562 49.4587C36.2438 51.2595 34.4681 53.0048 34.081 54.6436C33.8948 55.4334 33.7528 56.233 33.6555 57.0386C33.6233 57.4143 33.7326 57.7884 33.9619 58.0874C34.0796 58.2248 34.1471 58.3983 34.1533 58.5793C34.0894 59.0553 33.9753 59.5232 33.813 59.9751C33.5825 60.5939 33.4455 61.2436 33.4062 61.9029C33.4358 62.4363 33.59 62.9553 33.8563 63.418C34.0403 63.7372 34.1611 64.0889 34.212 64.454C34.2182 64.983 34.1628 65.5109 34.0469 66.0271C33.8954 66.6588 33.8452 67.3107 33.898 67.9583C34.0241 68.57 34.2952 69.1423 34.6885 69.6269C34.9069 69.899 35.0794 70.2052 35.199 70.5332C35.2159 70.7929 35.183 71.0534 35.102 71.3006C34.9642 71.6813 34.9481 72.0955 35.056 72.4858C35.2928 73.2298 35.7582 73.8798 36.3859 74.3428L43.6266 78.5599C43.6955 78.6002 43.7739 78.6214 43.8538 78.6213ZM50.9158 51.5272C49.4345 52.1576 47.9911 52.8736 46.5926 53.6716C43.4794 55.4724 41.7037 57.2177 41.3174 58.8564C41.1312 59.6462 40.9892 60.4458 40.892 61.2515C40.86 61.6275 40.9696 62.0019 41.1991 62.3011C41.3163 62.4384 41.3835 62.6116 41.3897 62.7922C41.3264 63.2683 41.2123 63.7362 41.0494 64.188C40.8187 64.807 40.6813 65.457 40.6418 66.1166C40.672 66.65 40.8265 67.1689 41.0928 67.6317C41.2764 67.9511 41.3971 68.3027 41.4484 68.6677C41.4528 69.1963 41.3957 69.7237 41.2782 70.2391C41.1274 70.8712 41.0775 71.5233 41.1302 72.1711C41.2558 72.783 41.527 73.3554 41.9206 73.8397C42.1392 74.1115 42.3116 74.4174 42.4311 74.7452C42.449 75.0048 42.4163 75.2655 42.335 75.5126C42.1972 75.8936 42.1811 76.3081 42.2891 76.6986L42.3061 76.7395L36.8343 73.5532C36.3803 73.1867 36.049 72.6899 35.8848 72.1294C35.8832 71.918 35.9145 71.7078 35.9775 71.5061C36.1058 71.1109 36.1351 70.6901 36.0626 70.2809C35.9194 69.8512 35.7026 69.4499 35.4219 69.0948C35.1146 68.7228 34.8989 68.2835 34.7923 67.8125C34.7605 67.2651 34.8095 66.7161 34.9378 66.1831C35.0702 65.5918 35.1296 64.9865 35.1147 64.3806C35.0573 63.9009 34.9058 63.4373 34.6689 63.0164C34.4644 62.6741 34.342 62.2888 34.3115 61.891C34.3562 61.328 34.4794 60.7741 34.6774 60.2454C34.8633 59.724 34.9906 59.1835 35.0569 58.6339C35.0661 58.2616 34.9494 57.8972 34.7259 57.5997C34.5881 57.3814 34.537 57.2867 34.5557 57.1512C34.6476 56.3785 34.7829 55.6116 34.9607 54.8542C35.2849 53.49 36.9602 51.893 39.8105 50.25C41.3746 49.3566 42.9953 48.5666 44.6621 47.8848L50.9158 51.5272Z" fill="#0C5AE5"/>
</g>
<path d="M51.0923 35.8434C49.5055 36.7609 47.3631 42.1529 49.0809 46.6267C50.649 50.7142 51.5254 51.5208 51.9415 51.5941C50.1821 52.3023 48.4723 53.1284 46.8237 54.0667C44.4864 55.419 42.1874 57.1643 41.7611 58.9634C41.5797 59.7369 41.4417 60.52 41.3476 61.309C41.2702 61.9246 41.8862 62.1701 41.8479 62.8198C41.7892 63.7663 41.089 65.1347 41.1017 66.111C41.1145 67.0873 41.8326 67.6781 41.9066 68.6331C41.9917 69.7023 41.4344 71.1313 41.5884 72.1007C41.7586 73.1682 42.6375 73.7668 42.8774 74.6228C43.0323 75.1881 42.5295 76.0876 42.7149 76.525C43.2603 77.8398 43.9163 78.5304 44.631 78.2201C48.6647 76.4635 52.601 74.4905 56.4229 72.3096C62.0546 69.0517 67.6948 64.9557 68.4938 61.2706L68.441 43.0132C68.35 42.91 66.6321 40.9473 62.9225 43.0934C59.2128 45.2394 53.1199 41.7633 52.4299 37.1053C52.2384 35.8034 51.7058 35.4879 51.0923 35.8434Z" fill="white"/>
<path d="M44.2952 78.7463C44.4743 78.7455 44.6513 78.7074 44.815 78.6346C48.8648 76.8721 52.8165 74.8914 56.6528 72.7011C64.1104 68.3868 68.2447 64.5722 68.9407 61.3611C68.9472 61.3292 68.9507 61.2966 68.9509 61.2639L68.899 43.01C68.8985 42.8998 68.8583 42.7935 68.7858 42.7107C68.5748 42.4702 66.6162 40.4307 62.7006 42.697C61.8518 43.106 60.9172 43.3041 59.9758 43.2744C59.0344 43.2447 58.1141 42.9882 57.2926 42.5265C56.1782 42.0236 55.198 41.264 54.4318 40.3097C53.6657 39.3554 53.1352 38.2333 52.8836 37.0347C52.8808 36.7025 52.7979 36.376 52.6419 36.0829C52.4859 35.7898 52.2614 35.5389 51.9876 35.3516C51.8089 35.2699 51.6122 35.2356 51.4164 35.2521C51.2206 35.2685 51.0323 35.3351 50.8696 35.4454C49.0828 36.4814 46.8707 42.1113 48.6574 46.7854C49.7133 49.5351 50.4697 50.8491 51.0236 51.4749C49.5071 52.1166 48.0298 52.8474 46.5992 53.6636C43.486 55.4643 41.7103 57.2097 41.324 58.8484C41.1378 59.6382 40.9958 60.4378 40.8986 61.2435C40.8666 61.6195 40.9762 61.9939 41.2057 62.2931C41.3229 62.4304 41.3901 62.6036 41.3963 62.7842C41.333 63.2603 41.2189 63.7282 41.056 64.1799C40.8253 64.799 40.6879 65.449 40.6484 66.1086C40.6787 66.642 40.8331 67.1609 41.0994 67.6237C41.283 67.9431 41.4037 68.2947 41.455 68.6597C41.4594 69.1883 41.4023 69.7157 41.2849 70.2311C41.134 70.8632 41.0841 71.5153 41.1368 72.1631C41.2625 72.775 41.5336 73.3474 41.9273 73.8317C42.1458 74.1035 42.3182 74.4094 42.4378 74.7372C42.4556 74.9968 42.4229 75.2575 42.3416 75.5046C42.2038 75.8856 42.1877 76.3001 42.2957 76.6906C42.5313 77.5132 43.076 78.2121 43.8153 78.6406C43.9668 78.7069 44.1298 78.7428 44.2952 78.7463ZM68.0422 61.2188C67.3785 64.1177 63.2851 67.813 56.1984 71.9133C52.3931 74.0847 48.4735 76.0487 44.4568 77.7965C44.4111 77.8192 44.3611 77.8317 44.3101 77.8332C44.2592 77.8346 44.2085 77.825 44.1616 77.805C44.011 77.7445 43.6102 77.4801 43.1406 76.3461C43.1386 76.1349 43.1696 75.9246 43.2325 75.7229C43.3612 75.3274 43.3905 74.9063 43.3175 74.4968C43.1737 74.0675 42.9566 73.6666 42.676 73.3116C42.3658 72.9389 42.1477 72.4981 42.0396 72.025C42.0085 71.4773 42.0578 70.9281 42.1859 70.3948C42.3179 69.8037 42.3773 69.1987 42.3629 68.5932C42.305 68.1134 42.1532 67.6498 41.9162 67.229C41.712 66.8865 41.5896 66.5013 41.5588 66.1035C41.6044 65.5406 41.7278 64.9868 41.9256 64.4579C42.1112 63.9368 42.2382 63.3966 42.3042 62.8473C42.3131 62.4749 42.1969 62.1103 41.974 61.8122C41.8354 61.5948 41.7852 61.4993 41.8039 61.3637C41.8967 60.5915 42.0319 59.8249 42.2089 59.0676C42.5331 57.7034 44.2092 56.1055 47.0587 54.4634C48.6878 53.5361 50.3778 52.7206 52.117 52.0223C52.2084 51.9857 52.2856 51.9204 52.3368 51.8361C52.388 51.7518 52.4105 51.6532 52.4009 51.555C52.3913 51.4568 52.3501 51.3643 52.2835 51.2916C52.217 51.2189 52.1287 51.1698 52.0319 51.1517C52.0004 51.1441 51.2227 50.9156 49.5168 46.4682C47.8815 42.2093 49.9686 37.0296 51.3316 36.2426C51.3997 36.2034 51.5248 36.142 51.6005 36.1787C51.723 36.2384 51.9 36.5351 51.9944 37.1763C52.26 38.5247 52.8447 39.7896 53.6995 40.8645C54.5542 41.9395 55.654 42.7931 56.9063 43.3536C57.8583 43.8882 58.9267 44.1805 60.0177 44.2045C61.1087 44.2286 62.1889 43.9838 63.1635 43.4917C66.0665 41.8103 67.5759 42.8207 68.0005 43.2052L68.0422 61.2188Z" fill="#0C5AE5"/>
<path d="M44.5123 47.3032L51.753 51.5195C51.2816 51.2458 50.4435 50.1672 49.0856 46.6279C47.3686 42.155 49.511 36.7621 51.097 35.8447L43.8572 31.6284C42.2695 32.5458 40.1279 37.9379 41.8458 42.4108C43.2037 45.9492 44.0426 47.0295 44.5123 47.3032Z" fill="#D4E6FC"/>
<path d="M51.7484 51.9749C51.8482 51.9751 51.9454 51.9424 52.0247 51.8817C52.1041 51.821 52.1613 51.7357 52.1874 51.6391C52.2134 51.5425 52.207 51.44 52.169 51.3475C52.131 51.2549 52.0636 51.1776 51.9772 51.1273C51.7135 50.9747 50.9435 50.2125 49.5098 46.4651C47.8745 42.2063 49.9616 37.0265 51.3246 36.2395C51.3935 36.1996 51.4508 36.1423 51.4905 36.0732C51.5303 36.0041 51.5512 35.9258 51.5512 35.846C51.5512 35.7663 51.5303 35.688 51.4905 35.6189C51.4508 35.5498 51.3935 35.4925 51.3246 35.4526L44.0848 31.2363C44.0155 31.196 43.9369 31.1748 43.8568 31.1748C43.7767 31.1748 43.698 31.196 43.6288 31.2363C41.842 32.2731 39.6298 37.9039 41.4208 42.5763C42.5703 45.5707 43.5071 47.2462 44.2839 47.6989L51.5229 51.9143C51.5916 51.9537 51.6692 51.9745 51.7484 51.9749ZM50.3019 35.9113C48.6598 37.637 47.0457 42.5985 48.6555 46.7909C49.0648 47.893 49.5372 48.9705 50.0705 50.0181L44.734 46.9111C44.4702 46.7576 43.7002 45.9962 42.2666 42.2489C40.7121 38.198 42.5218 33.3125 43.8781 32.1682L50.3019 35.9113Z" fill="#0C5AE5"/>
<mask id="mask2_9_36284" style="mask-type:luminance" maskUnits="userSpaceOnUse" x="41" y="31" width="11" height="21">
<path d="M49.0826 46.628C47.3648 42.1559 49.508 36.7622 51.094 35.8448L43.8542 31.6285C42.2657 32.5459 40.1249 37.938 41.8419 42.4109C43.2033 45.9501 44.0388 47.0296 44.5093 47.3033L51.75 51.5195C51.2795 51.2458 50.4406 50.1673 49.0826 46.628ZM50.3036 35.9113C48.6614 37.637 47.0482 42.5993 48.6572 46.7908C49.0671 47.893 49.5401 48.9705 50.0738 50.018L44.7374 46.9102C44.4727 46.7567 43.7027 45.9962 42.2657 42.2489C40.7112 38.198 42.5209 33.3124 43.8763 32.1691L50.3036 35.9113Z" fill="white"/>
</mask>
<g mask="url(#mask2_9_36284)">
<path d="M51.0892 35.8442L43.8493 31.6279C42.2617 32.5454 40.1201 37.9374 41.838 42.4103C43.1993 45.9496 44.0348 47.029 44.5045 47.3036L51.7452 51.5198C51.2738 51.2461 50.4357 50.1676 49.0778 46.6283C47.3616 42.1554 49.504 36.7616 51.0892 35.8442Z" fill="#D4E6FC"/>
<path d="M51.7484 51.9749C51.8482 51.9751 51.9454 51.9424 52.0247 51.8817C52.1041 51.821 52.1613 51.7357 52.1874 51.6391C52.2134 51.5425 52.207 51.44 52.169 51.3475C52.131 51.2549 52.0636 51.1776 51.9772 51.1273C51.7135 50.9747 50.9435 50.2125 49.5098 46.4651C47.8745 42.2063 49.9616 37.0265 51.3246 36.2395C51.3935 36.1996 51.4508 36.1423 51.4905 36.0732C51.5303 36.0041 51.5512 35.9258 51.5512 35.846C51.5512 35.7663 51.5303 35.688 51.4905 35.6189C51.4508 35.5498 51.3935 35.4925 51.3246 35.4526L44.0848 31.2363C44.0155 31.196 43.9369 31.1748 43.8568 31.1748C43.7767 31.1748 43.698 31.196 43.6288 31.2363C41.842 32.2731 39.6298 37.9039 41.4208 42.5763C42.5703 45.5707 43.5071 47.2462 44.2839 47.6989L51.5229 51.9143C51.5916 51.9537 51.6692 51.9745 51.7484 51.9749ZM50.3019 35.9113C48.6598 37.637 47.0457 42.5985 48.6555 46.7909C49.0648 47.893 49.5372 48.9705 50.0705 50.0181L44.734 46.9111C44.4702 46.7567 43.7002 45.9953 42.2666 42.248C40.7121 38.1972 42.5218 33.3116 43.8781 32.1674L50.3019 35.9113Z" fill="#0C5AE5"/>
</g>
</svg>
