<svg width="1440" height="403" viewBox="0 0 1440 403" fill="none" xmlns="http://www.w3.org/2000/svg">
<g clip-path="url(#clip0_9_47411)">
<mask id="mask0_9_47411" style="mask-type:luminance" maskUnits="userSpaceOnUse" x="-10" y="0" width="1461" height="403">
<path d="M1451 0H-10V403H1451V0Z" fill="white"/>
</mask>
<g mask="url(#mask0_9_47411)">
<g opacity="0.71">
<path d="M1253.97 132.269H1253.95C1253.82 134.116 1252.42 136.039 1249.8 137.556L1079.14 232.271C1074.09 235.191 1066.47 235.508 1062.1 232.979L1000.69 197.413C998.596 196.198 997.644 194.546 997.769 192.835H997.758V172.322H1028.2L1172.58 92.8344C1177.62 89.9151 1185.25 89.5978 1189.62 92.1267L1111.81 172.325L1253.97 111.761V132.269Z" fill="#E4E9F9"/>
</g>
<g opacity="0.71">
<path d="M1329.03 198.823H1329.01C1328.87 200.67 1327.48 202.593 1324.86 204.109L1154.19 298.824C1149.15 301.744 1141.52 302.061 1137.16 299.532L1075.75 263.968C1073.65 262.753 1072.7 261.101 1072.82 259.39H1072.81V238.879H1103.25L1247.64 159.388C1252.68 156.469 1260.31 156.152 1264.68 158.68L1186.87 238.879L1329.03 178.315V198.823Z" fill="#E4E9F9"/>
</g>
<g opacity="0.71">
<path d="M1405.28 265.284H1405.26C1405.13 267.13 1403.73 269.054 1401.11 270.571L1230.45 365.286C1225.4 368.206 1217.78 368.522 1213.41 365.993L1152 330.427C1149.9 329.212 1148.95 327.561 1149.08 325.85H1149.07V305.337H1179.51L1323.89 225.847C1328.94 222.928 1336.56 222.61 1340.93 225.139L1263.12 305.34L1405.28 244.774L1405.28 265.284Z" fill="#E4E9F9"/>
</g>
<path d="M739.712 209.152L979.265 69.8286C984.119 67.0288 989.603 65.5135 995.201 65.4252C1000.8 65.337 1006.33 66.6786 1011.27 69.324L1097.87 116.108L1098.5 114.947L1011.89 68.1625C1006.75 65.4121 1001 64.0175 995.18 64.1098C989.358 64.2021 983.654 65.7783 978.605 68.6902L739.055 208.011L739.712 209.152Z" fill="url(#paint0_linear_9_47411)"/>
<path d="M1079.05 211.165L1249.72 116.456C1254.76 113.536 1255.31 109.119 1250.94 106.591L1189.54 71.0287C1185.17 68.5006 1177.54 68.8172 1172.5 71.7365L1001.84 166.446C996.796 169.365 996.25 173.783 1000.62 176.311L1062.02 211.874C1066.38 214.402 1074.01 214.084 1079.05 211.165Z" fill="#F5F8FD"/>
<path d="M1154.11 277.718L1324.77 183.009C1329.82 180.089 1330.36 175.673 1326 173.145L1264.59 137.582C1260.23 135.054 1252.6 135.371 1247.56 138.29L1076.9 232.999C1071.85 235.919 1071.31 240.336 1075.67 242.864L1137.08 278.427C1141.44 280.955 1149.07 280.638 1154.11 277.718Z" fill="#F5F8FD"/>
<path d="M1230.36 344.179L1401.03 249.471C1406.07 246.551 1406.62 242.134 1402.25 239.606L1340.85 204.044C1336.48 201.515 1328.86 201.832 1323.81 204.751L1153.15 299.46C1148.11 302.38 1147.56 306.797 1151.93 309.325L1213.33 344.888C1217.7 347.416 1225.32 347.099 1230.36 344.179Z" fill="#F5F8FD"/>
<g opacity="0.71">
<path d="M182.876 111.761L325.038 172.325L247.233 92.1267C251.6 89.5978 259.226 89.9151 264.268 92.8344L408.653 172.325H439.092V192.832H439.083C439.207 194.543 438.255 196.196 436.157 197.409L374.749 232.976C370.383 235.505 362.757 235.188 357.714 232.268L187.046 137.556C184.427 136.039 183.035 134.119 182.897 132.269H182.875L182.876 111.761Z" fill="#E4E9F9"/>
</g>
<g opacity="0.71">
<path d="M107.821 178.315L249.984 238.879L172.177 158.68C176.543 156.152 184.17 156.469 189.212 159.388L333.598 238.879H364.037V259.386H364.027C364.152 261.096 363.2 262.749 361.102 263.963L299.694 299.53C295.328 302.058 287.701 301.741 282.659 298.821L111.991 204.109C109.372 202.592 107.98 200.672 107.843 198.823H107.82L107.821 178.315Z" fill="#E4E9F9"/>
</g>
<g opacity="0.71">
<path d="M31.5625 244.774L173.725 305.34L95.9188 225.141C100.285 222.612 107.911 222.93 112.954 225.849L257.34 305.339H287.779V325.847H287.769C287.893 327.558 286.942 329.211 284.844 330.424L223.435 365.99C219.07 368.519 211.443 368.203 206.401 365.283L35.7331 270.568C33.1136 269.051 31.7223 267.131 31.5842 265.281H31.5625V244.774Z" fill="#E4E9F9"/>
</g>
<path d="M697.135 209.152L457.584 69.8287C452.73 67.0287 447.246 65.5133 441.648 65.425C436.049 65.3367 430.521 66.6785 425.582 69.3242L338.976 116.108L338.352 114.948L424.959 68.1627C430.096 65.4117 435.846 64.0165 441.669 64.1083C447.492 64.2 453.196 65.7756 458.244 68.687L697.794 208.011L697.135 209.152Z" fill="url(#paint1_linear_9_47411)"/>
<path d="M808.135 109.872H767.308L721.862 83.5552C716.01 80.1657 705.785 80.5904 699.027 84.5077L655.22 109.875H614.415V245.127H614.429C614.26 247.419 615.538 249.633 618.349 251.261L700.67 298.939C706.522 302.327 716.747 301.903 723.506 297.986L802.545 252.212C806.054 250.18 807.924 247.606 808.106 245.125H808.136L808.135 109.872Z" fill="url(#paint2_linear_9_47411)"/>
<path d="M700.67 163.688L618.349 116.012C612.497 112.622 613.231 106.699 619.989 102.786L699.029 57.008C705.787 53.0954 716.01 52.6706 721.864 56.0562L804.185 103.733C810.037 107.122 809.304 113.043 802.545 116.958L723.507 162.733C716.748 166.652 706.525 167.076 700.67 163.688Z" fill="#F2F5FC"/>
<path fill-rule="evenodd" clip-rule="evenodd" d="M778.899 94.382H777.004C774.184 87.6128 768.218 81.1958 759.102 75.914C732.706 60.6263 689.845 60.6263 663.45 75.914C654.333 81.1938 648.367 87.6108 645.548 94.382H643.648V103.616C643.648 113.642 650.247 123.672 663.446 131.318C689.841 146.606 732.702 146.606 759.098 131.318C772.296 123.674 778.896 113.647 778.895 103.616L778.899 94.382Z" fill="url(#paint3_linear_9_47411)"/>
<path fill-rule="evenodd" clip-rule="evenodd" d="M759.102 66.683C785.498 81.9713 785.498 106.794 759.102 122.081C732.706 137.368 689.844 137.37 663.449 122.081C637.054 106.793 637.053 81.9713 663.449 66.683C689.845 51.3947 732.706 51.396 759.102 66.683Z" fill="url(#paint4_linear_9_47411)"/>
<path fill-rule="evenodd" clip-rule="evenodd" d="M745.153 74.7618C763.849 85.59 763.849 103.174 745.153 114.002C726.456 124.83 696.096 124.831 677.398 114.002C658.7 103.173 658.701 85.59 677.398 74.7618C696.094 63.9336 726.456 63.9336 745.153 74.7618Z" fill="#FFE06A"/>
<path fill-rule="evenodd" clip-rule="evenodd" d="M743.162 75.916C760.759 86.1084 760.759 102.657 743.162 112.848C725.565 123.04 696.99 123.041 679.393 112.848C661.796 102.656 661.796 86.1084 679.393 75.916C696.99 65.7236 725.565 65.7243 743.162 75.916Z" fill="#FFCC00"/>
<path fill-rule="evenodd" clip-rule="evenodd" d="M756.361 66.6826H666.195V94.3847H756.36V66.6826H756.361Z" fill="#FFCC00"/>
<path fill-rule="evenodd" clip-rule="evenodd" d="M743.162 48.2166C760.759 58.409 760.759 74.9577 743.162 85.1488C725.565 95.3399 696.99 95.3412 679.393 85.1488C661.796 74.9564 661.796 58.409 679.393 48.2166C696.99 38.0242 725.565 38.0255 743.162 48.2166Z" fill="#FFE06A"/>
<path d="M687.029 56.0235C687.348 56.2137 687.684 56.373 688.033 56.4991C688.301 56.5949 688.579 56.6584 688.862 56.6884C689.089 56.7122 689.318 56.6973 689.54 56.6442C689.739 56.593 689.931 56.5147 690.109 56.4113C690.273 56.3468 690.406 56.2225 690.482 56.0634C690.558 55.9043 690.571 55.7223 690.519 55.5539C690.272 54.9827 689.924 54.4618 689.49 54.0171C689.246 53.7228 689.019 53.4145 688.811 53.0937C688.616 52.8029 688.49 52.4713 688.443 52.1241C688.408 51.7827 688.485 51.4392 688.661 51.1453C688.933 50.7386 689.305 50.4095 689.741 50.1902C690.285 49.8769 690.875 49.6527 691.49 49.526C692.131 49.3933 692.787 49.3461 693.44 49.3856C694.13 49.4283 694.813 49.5536 695.473 49.7589C696.177 49.9766 696.854 50.2743 697.491 50.646C698.142 51 698.739 51.4441 699.266 51.9652C699.602 52.3018 699.89 52.6833 700.121 53.099L697.31 53.8555C697.13 53.5391 696.917 53.2433 696.674 52.9736C696.312 52.597 695.894 52.2794 695.434 52.0324C694.944 51.7218 694.398 51.5082 693.827 51.4032C693.412 51.3385 692.988 51.4169 692.623 51.6255C692.45 51.7057 692.313 51.8464 692.237 52.0212C692.194 52.1788 692.206 52.3464 692.271 52.4961C692.351 52.6939 692.458 52.8799 692.589 53.0488C692.734 53.2427 692.901 53.4527 693.091 53.6787C693.423 54.0897 693.728 54.5222 694.004 54.9735C694.214 55.2982 694.335 55.6726 694.355 56.0591C694.354 56.4165 694.227 56.7619 693.995 57.0333C693.654 57.4203 693.246 57.7421 692.79 57.9831C691.68 58.6162 690.405 58.8955 689.133 58.7838C687.598 58.6305 686.118 58.1282 684.806 57.315C684.354 57.0588 683.921 56.7724 683.508 56.4575C683.2 56.2222 682.91 55.9661 682.637 55.6911C682.44 55.4937 682.261 55.2797 682.101 55.0513C681.992 54.8922 681.894 54.7254 681.809 54.552L684.621 53.7763C684.828 54.1565 685.087 54.5057 685.391 54.8139C685.878 55.2932 686.43 55.7011 687.031 56.0255L687.029 56.0235Z" fill="white"/>
<path d="M711.483 59.058L709.257 60.3468L705.758 58.3213L696.384 63.7502L693.773 62.2378L703.147 56.8089L699.648 54.782L701.875 53.4932L711.483 59.058Z" fill="white"/>
<path d="M707.966 70.4579C708.24 70.1501 708.515 69.83 708.792 69.4976C709.068 69.1652 709.343 68.8354 709.617 68.5082L705.086 65.8845L703.376 66.366C702.803 66.5269 702.254 66.6863 701.727 66.8442L699.016 65.2737C700.701 64.8028 702.27 64.3738 703.722 63.9869C705.174 63.5999 706.556 63.2435 707.869 62.9177C709.181 62.5919 710.441 62.2905 711.647 62.0134C712.853 61.7364 714.054 61.4785 715.25 61.2397L717.725 62.6737C717.303 63.3596 716.856 64.0537 716.383 64.7559C715.909 65.4582 715.392 66.1894 714.831 66.9497C714.269 67.7108 713.656 68.5115 712.99 69.3518C712.324 70.1921 711.584 71.1015 710.769 72.0799L707.972 70.46L707.966 70.4579ZM713.801 63.4447C713.574 63.5085 713.26 63.5918 712.858 63.6947C712.456 63.7976 711.993 63.9176 711.47 64.0548C710.944 64.1924 710.365 64.3422 709.733 64.504C709.101 64.6658 708.442 64.839 707.756 65.0237L711.073 66.9451C711.399 66.5493 711.708 66.1714 711.999 65.8113C712.29 65.4511 712.551 65.117 712.783 64.8087C713.013 64.5007 713.217 64.2316 713.394 63.9981C713.57 63.7646 713.706 63.5806 713.803 63.4447H713.801Z" fill="white"/>
<path d="M727.386 68.1134C729.128 69.1212 730.152 70.0727 730.458 70.968C730.764 71.8633 730.265 72.689 728.96 73.4453C728.183 73.905 727.313 74.1861 726.415 74.2685C725.471 74.3412 724.521 74.2596 723.603 74.0271C723.537 74.3668 723.449 74.7018 723.34 75.0303C723.223 75.3953 723.087 75.769 722.93 76.1516C722.774 76.5342 722.592 76.9205 722.386 77.3105C722.18 77.7014 721.965 78.0778 721.742 78.4397L718.823 76.7492C718.989 76.4062 719.159 76.0584 719.331 75.7057C719.503 75.3531 719.658 75.0035 719.797 74.657C719.935 74.3105 720.057 73.977 720.162 73.6564C720.262 73.3608 720.337 73.0572 720.386 72.7489L719.097 72.0022L714.862 74.4552L712.25 72.9428L723.687 66.3193C724.367 66.5832 725.034 66.8789 725.687 67.2064C726.34 67.534 726.906 67.8363 727.386 68.1134ZM725.311 69.4899C725.121 69.38 724.945 69.2846 724.785 69.2036C724.622 69.1232 724.47 69.0467 724.325 68.9754L721.178 70.7978L721.914 71.2246C722.673 71.7056 723.513 72.0471 724.392 72.2331C725.044 72.3397 725.714 72.2129 726.283 71.8749C726.853 71.5451 727.042 71.1861 726.852 70.7978C726.464 70.232 725.932 69.7805 725.311 69.4899Z" fill="white"/>
<path d="M743.46 77.5751L741.233 78.8639L737.735 76.8383L728.361 82.2673L725.75 80.7549L735.124 75.3259L731.625 73.299L733.851 72.0103L743.46 77.5751Z" fill="white"/>
<path d="M374.828 211.874L436.232 176.31C440.597 173.782 440.051 169.365 435.008 166.445L264.346 71.7365C259.304 68.8172 251.678 68.5006 247.316 71.0287L185.909 106.593C181.543 109.121 182.089 113.538 187.132 116.458L357.795 211.165C362.836 214.084 370.462 214.402 374.828 211.874Z" fill="#F5F8FD"/>
<path d="M299.773 278.427L361.177 242.861C365.542 240.332 364.996 235.916 359.954 232.996L189.291 138.29C184.249 135.371 176.623 135.054 172.261 137.582L110.854 173.144C106.488 175.672 107.035 180.089 112.077 183.009L282.74 277.718C287.781 280.638 295.408 280.955 299.773 278.427Z" fill="#F5F8FD"/>
<path d="M223.516 344.888L284.92 309.325C289.286 306.797 288.739 302.38 283.697 299.46L113.033 204.751C107.992 201.832 100.366 201.515 96.0003 204.044L34.5962 239.606C30.2303 242.134 30.7767 246.551 35.8192 249.471L206.483 344.179C211.524 347.099 219.151 347.416 223.516 344.888Z" fill="#F5F8FD"/>
<path d="M-10.3281 96.1006H1521.03V402.803H-10.3281V96.1006Z" fill="url(#paint5_linear_9_47411)"/>
</g>
</g>
<defs>
<linearGradient id="paint0_linear_9_47411" x1="-369.107" y1="136.629" x2="-9.6646" y2="136.629" gradientUnits="userSpaceOnUse">
<stop stop-color="#A0CCE0"/>
<stop offset="1" stop-color="#69A1E3"/>
</linearGradient>
<linearGradient id="paint1_linear_9_47411" x1="338.352" y1="64.104" x2="697.794" y2="64.104" gradientUnits="userSpaceOnUse">
<stop stop-color="#A0CCE0"/>
<stop offset="1" stop-color="#69A1E3"/>
</linearGradient>
<linearGradient id="paint2_linear_9_47411" x1="100.857" y1="441.78" x2="100.857" y2="442.66" gradientUnits="userSpaceOnUse">
<stop stop-color="white"/>
<stop offset="1" stop-color="#C8CEDE"/>
</linearGradient>
<linearGradient id="paint3_linear_9_47411" x1="575.617" y1="113.643" x2="1070.6" y2="4.55196" gradientUnits="userSpaceOnUse">
<stop stop-color="#A0CCE0"/>
<stop offset="1" stop-color="#69A1E3"/>
</linearGradient>
<linearGradient id="paint4_linear_9_47411" x1="643.652" y1="55.2173" x2="778.899" y2="55.2173" gradientUnits="userSpaceOnUse">
<stop stop-color="#A0CCE0"/>
<stop offset="1" stop-color="#69A1E3"/>
</linearGradient>
<linearGradient id="paint5_linear_9_47411" x1="755.349" y1="96.1006" x2="755.349" y2="402.803" gradientUnits="userSpaceOnUse">
<stop stop-color="#FCFCFC" stop-opacity="0"/>
<stop offset="1" stop-color="#FCFCFC"/>
</linearGradient>
<clipPath id="clip0_9_47411">
<rect width="1461" height="403" fill="white" transform="translate(-10)"/>
</clipPath>
</defs>
</svg>
