<svg width="1440" height="395" viewBox="0 0 1440 395" fill="none" xmlns="http://www.w3.org/2000/svg">
<g clip-path="url(#clip0_9_49417)">
<mask id="mask0_9_49417" style="mask-type:luminance" maskUnits="userSpaceOnUse" x="0" y="0" width="1440" height="395">
<path d="M1440 0H0V395H1440V0Z" fill="white"/>
</mask>
<g mask="url(#mask0_9_49417)">
<g opacity="0.71">
<path d="M1245.8 129.643H1245.78C1245.65 131.453 1244.27 133.339 1241.69 134.825L1073.48 227.66C1068.51 230.522 1060.99 230.833 1056.69 228.355L996.163 193.494C994.095 192.303 993.158 190.684 993.28 189.007H993.27V168.902H1023.27L1165.58 90.9915C1170.55 88.1302 1178.07 87.8192 1182.37 90.2978L1105.68 168.904L1245.8 109.542V129.643Z" fill="#E4E9F9"/>
</g>
<g opacity="0.71">
<path d="M1319.78 194.876H1319.76C1319.63 196.686 1318.25 198.571 1315.67 200.057L1147.46 292.892C1142.49 295.754 1134.97 296.064 1130.67 293.586L1070.14 258.727C1068.07 257.537 1067.13 255.918 1067.26 254.241H1067.25V234.137H1097.25L1239.56 156.224C1244.53 153.363 1252.05 153.052 1256.35 155.53L1179.66 234.137L1319.78 174.775V194.876Z" fill="#E4E9F9"/>
</g>
<g opacity="0.71">
<path d="M1394.94 260.017H1394.92C1394.79 261.827 1393.41 263.712 1390.83 265.199L1222.61 358.034C1217.64 360.896 1210.12 361.206 1205.82 358.728L1145.3 323.868C1143.23 322.677 1142.29 321.058 1142.41 319.381H1142.4V299.275H1172.4L1314.72 221.363C1319.69 218.502 1327.2 218.191 1331.51 220.669L1254.82 299.279L1394.94 239.915L1394.94 260.017Z" fill="#E4E9F9"/>
</g>
<path d="M738.933 205L975.043 68.4425C979.827 65.6983 985.232 64.2131 990.75 64.1266C996.268 64.0401 1001.72 65.3551 1006.59 67.948L1091.95 113.804L1092.56 112.666L1007.2 66.8095C1002.14 64.1137 996.469 62.7468 990.729 62.8372C984.99 62.9277 979.369 64.4726 974.393 67.3267L738.285 203.882L738.933 205Z" fill="url(#paint0_linear_9_49417)"/>
<path d="M1073.4 206.973L1241.61 114.144C1246.58 111.283 1247.11 106.953 1242.81 104.475L1182.29 69.6189C1177.99 67.1409 1170.47 67.4512 1165.5 70.3125L997.291 163.142C992.321 166.003 991.782 170.333 996.085 172.811L1056.61 207.668C1060.91 210.146 1068.43 209.835 1073.4 206.973Z" fill="#F5F8FD"/>
<path d="M1147.37 272.205L1315.58 179.376C1320.55 176.514 1321.09 172.186 1316.79 169.708L1256.27 134.851C1251.97 132.373 1244.45 132.684 1239.48 135.545L1071.27 228.374C1066.3 231.236 1065.76 235.565 1070.07 238.043L1130.59 272.9C1134.89 275.378 1142.41 275.067 1147.37 272.205Z" fill="#F5F8FD"/>
<path d="M1222.53 337.348L1390.74 244.519C1395.71 241.657 1396.25 237.328 1391.95 234.85L1331.43 199.994C1327.12 197.515 1319.61 197.826 1314.64 200.687L1146.43 293.516C1141.46 296.378 1140.92 300.707 1145.22 303.185L1205.74 338.042C1210.05 340.52 1217.56 340.21 1222.53 337.348Z" fill="#F5F8FD"/>
<g opacity="0.71">
<path d="M190.098 109.542L330.218 168.904L253.531 90.2978C257.835 87.8192 265.352 88.1302 270.321 90.9915L412.631 168.904H442.632V189.004H442.623C442.745 190.681 441.807 192.301 439.739 193.49L379.214 228.351C374.911 230.83 367.394 230.519 362.424 227.657L194.208 134.825C191.627 133.339 190.255 131.457 190.12 129.643H190.098L190.098 109.542Z" fill="#E4E9F9"/>
</g>
<g opacity="0.71">
<path d="M116.122 174.775L256.241 234.137L179.553 155.53C183.856 153.052 191.373 153.363 196.342 156.224L338.654 234.137H368.655V254.236H368.645C368.768 255.913 367.83 257.533 365.762 258.723L305.237 293.584C300.934 296.062 293.417 295.751 288.447 292.889L120.232 200.057C117.651 198.57 116.279 196.688 116.143 194.876H116.121L116.122 174.775Z" fill="#E4E9F9"/>
</g>
<g opacity="0.71">
<path d="M40.9609 239.915L181.08 299.279L104.392 220.672C108.695 218.193 116.212 218.505 121.182 221.366L263.493 299.278H293.495V319.378H293.485C293.607 321.055 292.669 322.675 290.601 323.865L230.076 358.725C225.773 361.204 218.256 360.893 213.287 358.031L45.0716 265.197C42.4897 263.71 41.1184 261.828 40.9823 260.014H40.9609V239.915Z" fill="#E4E9F9"/>
</g>
<path d="M696.966 205.001L460.859 68.4431C456.075 65.6987 450.669 64.2133 445.151 64.1268C439.633 64.0403 434.184 65.3554 429.316 67.9486L343.955 113.804L343.34 112.666L428.702 66.8101C433.766 64.1138 439.433 62.7463 445.172 62.8362C450.911 62.9261 456.533 64.4704 461.509 67.3241L697.616 203.882L696.966 205.001Z" fill="url(#paint1_linear_9_49417)"/>
<path d="M806.371 107.691H766.13L721.337 81.8965C715.57 78.5742 705.491 78.9906 698.83 82.83L655.653 107.694H615.434V240.261H615.448C615.282 242.508 616.541 244.678 619.312 246.273L700.45 293.004C706.217 296.326 716.296 295.91 722.957 292.071L800.86 247.205C804.319 245.214 806.163 242.691 806.341 240.259H806.371L806.371 107.691Z" fill="url(#paint2_linear_9_49417)"/>
<path d="M700.449 160.439L619.312 113.709C613.544 110.386 614.268 104.581 620.928 100.746L698.832 55.8764C705.493 52.0414 715.569 51.6251 721.339 54.9435L802.477 101.674C808.244 104.996 807.522 110.799 800.86 114.636L722.958 159.502C716.296 163.344 706.22 163.759 700.449 160.439Z" fill="#F2F5FC"/>
<path fill-rule="evenodd" clip-rule="evenodd" d="M777.557 92.5085H775.689C772.91 85.8737 767.029 79.5841 758.044 74.4071C732.028 59.4229 689.782 59.4229 663.766 74.4071C654.781 79.5821 648.901 85.8717 646.122 92.5085H644.25V101.559C644.25 111.386 650.754 121.217 663.763 128.711C689.779 143.696 732.024 143.696 758.04 128.711C771.048 121.219 777.553 111.391 777.552 101.559L777.557 92.5085Z" fill="url(#paint3_linear_9_49417)"/>
<path fill-rule="evenodd" clip-rule="evenodd" d="M758.044 65.3592C784.061 80.344 784.061 104.674 758.044 119.658C732.027 134.641 689.782 134.643 663.766 119.658C637.75 104.673 637.75 80.344 663.766 65.3592C689.783 50.3744 732.027 50.3757 758.044 65.3592Z" fill="url(#paint4_linear_9_49417)"/>
<path fill-rule="evenodd" clip-rule="evenodd" d="M744.294 73.2778C762.722 83.8911 762.722 101.126 744.294 111.739C725.866 122.352 695.942 122.353 677.513 111.739C659.084 101.125 659.085 83.8911 677.513 73.2778C695.94 62.6646 725.865 62.6646 744.294 73.2778Z" fill="#FFE06A"/>
<path fill-rule="evenodd" clip-rule="evenodd" d="M742.333 74.4093C759.677 84.3994 759.677 100.619 742.333 110.608C724.989 120.598 696.825 120.598 679.481 110.608C662.137 100.618 662.137 84.3994 679.481 74.4093C696.825 64.4192 724.989 64.4199 742.333 74.4093Z" fill="#FFCC00"/>
<path fill-rule="evenodd" clip-rule="evenodd" d="M755.339 65.3594H666.469V92.5116H755.338V65.3594H755.339Z" fill="#FFCC00"/>
<path fill-rule="evenodd" clip-rule="evenodd" d="M742.333 47.2596C759.677 57.2497 759.677 73.4699 742.333 83.4587C724.989 93.4475 696.825 93.4488 679.481 83.4587C662.137 73.4686 662.137 57.2497 679.481 47.2596C696.825 37.2696 724.989 37.2709 742.333 47.2596Z" fill="#FFE06A"/>
<path d="M687.008 54.9115C687.323 55.0979 687.654 55.254 687.999 55.3776C688.262 55.4715 688.537 55.5338 688.815 55.5631C689.039 55.5865 689.265 55.5719 689.483 55.5198C689.68 55.4697 689.869 55.3929 690.044 55.2916C690.206 55.2284 690.337 55.1065 690.412 54.9506C690.487 54.7947 690.5 54.6162 690.448 54.4512C690.205 53.8913 689.862 53.3808 689.434 52.9449C689.194 52.6565 688.97 52.3543 688.765 52.0398C688.573 51.7548 688.449 51.4298 688.402 51.0895C688.368 50.7549 688.443 50.4182 688.617 50.1301C688.885 49.7314 689.252 49.4089 689.682 49.194C690.218 48.8869 690.8 48.6671 691.405 48.543C692.037 48.4129 692.684 48.3666 693.328 48.4053C694.008 48.4472 694.68 48.57 695.331 48.7712C696.025 48.9847 696.693 49.2764 697.32 49.6407C697.961 49.9877 698.551 50.4229 699.07 50.9337C699.401 51.2637 699.684 51.6376 699.913 52.045L697.141 52.7865C696.965 52.4764 696.755 52.1865 696.515 51.9222C696.158 51.553 695.746 51.2417 695.293 50.9996C694.809 50.6952 694.272 50.4858 693.709 50.3829C693.3 50.3195 692.882 50.3963 692.522 50.6008C692.352 50.6794 692.217 50.8173 692.142 50.9886C692.099 51.1431 692.111 51.3074 692.175 51.4541C692.255 51.648 692.36 51.8303 692.488 51.9959C692.631 52.1859 692.796 52.3917 692.983 52.6133C693.311 53.0161 693.611 53.44 693.883 53.8823C694.09 54.2005 694.209 54.5676 694.229 54.9464C694.229 55.2966 694.103 55.6352 693.875 55.9013C693.538 56.2805 693.136 56.596 692.687 56.8322C691.593 57.4527 690.336 57.7265 689.082 57.617C687.569 57.4668 686.111 56.9744 684.817 56.1773C684.372 55.9263 683.945 55.6455 683.538 55.3369C683.235 55.1062 682.948 54.8553 682.68 54.5857C682.486 54.3922 682.309 54.1824 682.152 53.9586C682.044 53.8027 681.947 53.6391 681.863 53.4692L684.636 52.7089C684.84 53.0815 685.095 53.4238 685.394 53.7258C685.874 54.1957 686.419 54.5955 687.011 54.9134L687.008 54.9115Z" fill="white"/>
<path d="M711.111 57.886L708.917 59.1492L705.469 57.1639L696.23 62.4851L693.656 61.0027L702.895 55.6815L699.447 53.6949L701.641 52.4316L711.111 57.886Z" fill="white"/>
<path d="M707.646 69.0596C707.916 68.7579 708.187 68.4442 708.46 68.1184C708.732 67.7925 709.004 67.4693 709.274 67.1486L704.807 64.5769L703.122 65.0489C702.558 65.2066 702.016 65.3628 701.497 65.5176L698.824 63.9783C700.486 63.5167 702.032 63.0963 703.463 62.717C704.894 62.3377 706.256 61.9884 707.55 61.6691C708.844 61.3497 710.085 61.0543 711.274 60.7827C712.463 60.5112 713.647 60.2584 714.825 60.0244L717.264 61.4299C716.849 62.1022 716.408 62.7825 715.942 63.4708C715.475 64.1591 714.965 64.8758 714.412 65.621C713.859 66.367 713.254 67.1519 712.598 67.9755C711.941 68.7991 711.212 69.6904 710.409 70.6494L707.652 69.0616L707.646 69.0596ZM713.397 62.1856C713.173 62.2481 712.863 62.3298 712.467 62.4306C712.071 62.5315 711.615 62.6491 711.1 62.7836C710.581 62.9185 710.011 63.0652 709.388 63.2239C708.765 63.3825 708.115 63.5523 707.439 63.7333L710.708 65.6165C711.03 65.2286 711.334 64.8582 711.621 64.5052C711.908 64.1522 712.165 63.8247 712.393 63.5225C712.621 63.2206 712.821 62.9569 712.995 62.728C713.17 62.4991 713.303 62.3188 713.399 62.1856H713.397Z" fill="white"/>
<path d="M726.786 66.7613C728.502 67.7492 729.511 68.6818 729.813 69.5593C730.115 70.4368 729.623 71.2462 728.337 71.9875C727.571 72.438 726.714 72.7136 725.828 72.7943C724.898 72.8655 723.962 72.7856 723.057 72.5577C722.992 72.8906 722.905 73.219 722.798 73.541C722.683 73.8987 722.548 74.2651 722.394 74.64C722.239 75.015 722.061 75.3936 721.858 75.7759C721.654 76.159 721.443 76.5279 721.223 76.8827L718.346 75.2257C718.51 74.8896 718.676 74.5486 718.846 74.203C719.016 73.8573 719.169 73.5147 719.306 73.1751C719.442 72.8355 719.562 72.5086 719.665 72.1944C719.764 71.9046 719.838 71.607 719.886 71.3048L718.616 70.573L714.442 72.9772L711.867 71.4949L723.14 65.0029C723.81 65.2615 724.467 65.5513 725.111 65.8724C725.755 66.1935 726.313 66.4898 726.786 66.7613ZM724.74 68.1106C724.553 68.0028 724.38 67.9093 724.222 67.83C724.062 67.7511 723.911 67.6761 723.768 67.6063L720.667 69.3925L721.392 69.8108C722.141 70.2823 722.968 70.617 723.834 70.7993C724.478 70.9038 725.137 70.7795 725.698 70.4482C726.26 70.125 726.447 69.7731 726.259 69.3925C725.876 68.8379 725.352 68.3954 724.74 68.1106Z" fill="white"/>
<path d="M742.627 76.0354L740.432 77.2986L736.984 75.3133L727.745 80.6345L725.172 79.1521L734.411 73.8309L730.962 71.8443L733.157 70.5811L742.627 76.0354Z" fill="white"/>
<path d="M379.293 207.668L439.814 172.81C444.116 170.332 443.578 166.003 438.608 163.141L270.399 70.3125C265.429 67.4512 257.913 67.1409 253.614 69.6189L193.089 104.477C188.786 106.955 189.324 111.285 194.294 114.146L362.505 206.973C367.473 209.835 374.99 210.146 379.293 207.668Z" fill="#F5F8FD"/>
<path d="M305.316 272.9L365.837 238.04C370.14 235.561 369.602 231.233 364.632 228.371L196.422 135.545C191.453 132.684 183.936 132.373 179.637 134.851L119.112 169.707C114.809 172.185 115.348 176.514 120.318 179.376L288.528 272.205C293.496 275.067 301.013 275.378 305.316 272.9Z" fill="#F5F8FD"/>
<path d="M230.157 338.042L290.678 303.185C294.981 300.707 294.442 296.378 289.472 293.516L121.262 200.687C116.293 197.826 108.776 197.515 104.474 199.994L43.9523 234.85C39.6492 237.328 40.1877 241.657 45.1577 244.519L213.369 337.348C218.337 340.21 225.854 340.52 230.157 338.042Z" fill="#F5F8FD"/>
<path d="M-0.324219 94.1929H1509.02V394.807H-0.324219V94.1929Z" fill="url(#paint5_linear_9_49417)"/>
</g>
</g>
<defs>
<linearGradient id="paint0_linear_9_49417" x1="-353.949" y1="133.917" x2="0.327694" y2="133.917" gradientUnits="userSpaceOnUse">
<stop stop-color="#A0CCE0"/>
<stop offset="1" stop-color="#69A1E3"/>
</linearGradient>
<linearGradient id="paint1_linear_9_49417" x1="343.34" y1="62.832" x2="697.616" y2="62.832" gradientUnits="userSpaceOnUse">
<stop stop-color="#A0CCE0"/>
<stop offset="1" stop-color="#69A1E3"/>
</linearGradient>
<linearGradient id="paint2_linear_9_49417" x1="109.258" y1="433.011" x2="109.258" y2="433.873" gradientUnits="userSpaceOnUse">
<stop stop-color="white"/>
<stop offset="1" stop-color="#C8CEDE"/>
</linearGradient>
<linearGradient id="paint3_linear_9_49417" x1="577.197" y1="111.387" x2="1064.82" y2="3.31937" gradientUnits="userSpaceOnUse">
<stop stop-color="#A0CCE0"/>
<stop offset="1" stop-color="#69A1E3"/>
</linearGradient>
<linearGradient id="paint4_linear_9_49417" x1="644.254" y1="54.1211" x2="777.556" y2="54.1211" gradientUnits="userSpaceOnUse">
<stop stop-color="#A0CCE0"/>
<stop offset="1" stop-color="#69A1E3"/>
</linearGradient>
<linearGradient id="paint5_linear_9_49417" x1="754.347" y1="94.1929" x2="754.347" y2="394.807" gradientUnits="userSpaceOnUse">
<stop stop-color="#FCFCFC" stop-opacity="0"/>
<stop offset="1" stop-color="#FCFCFC"/>
</linearGradient>
<clipPath id="clip0_9_49417">
<rect width="1440" height="395" fill="white"/>
</clipPath>
</defs>
</svg>
