<svg width="239" height="72" viewBox="0 0 239 72" fill="none" xmlns="http://www.w3.org/2000/svg">
<g clip-path="url(#clip0_9_105472)">
<mask id="mask0_9_105472" style="mask-type:luminance" maskUnits="userSpaceOnUse" x="17" y="14" width="204" height="44">
<path d="M220.495 14.7695H17.668V57.7609H220.495V14.7695Z" fill="white"/>
</mask>
<g mask="url(#mask0_9_105472)">
<path d="M38.274 14.7695H17.668V35.2212H38.274V14.7695Z" fill="#F25022"/>
<mask id="mask1_9_105472" style="mask-type:luminance" maskUnits="userSpaceOnUse" x="17" y="14" width="204" height="44">
<path d="M220.495 14.7695H17.668V57.7609H220.495V14.7695Z" fill="white"/>
</mask>
<g mask="url(#mask1_9_105472)">
<path d="M40.375 14.7695H60.9792C60.9792 21.5868 60.9792 28.4037 60.9792 35.2203C54.1124 35.2203 47.2449 35.2203 40.3769 35.2203C40.3769 28.4043 40.3769 21.5874 40.3769 14.7695" fill="#80BA01"/>
<path d="M203.474 22.562C204.444 21.9944 205.523 21.6341 206.641 21.5039C207.759 21.3737 208.892 21.4766 209.968 21.806C209.986 23.0679 209.968 24.3325 209.977 25.5971C209.477 25.3326 208.928 25.1699 208.364 25.1186C207.8 25.0672 207.231 25.1282 206.691 25.298C206.285 25.4865 205.936 25.7753 205.675 26.1368C205.414 26.4983 205.252 26.9202 205.203 27.362C205.109 28.4634 205.082 29.5694 205.122 30.674C207.295 30.6787 209.466 30.674 211.64 30.674C211.656 29.2728 211.622 27.8725 211.658 26.4722C213.137 26.0531 214.598 25.5851 216.07 25.1466C216.08 26.9928 216.051 28.8389 216.085 30.6851C217.552 30.6638 219.025 30.6796 220.493 30.6749V34.2666C219.018 34.2066 217.545 34.2519 216.066 34.2445C216.072 36.3103 216.066 38.3743 216.066 40.4411C216.09 41.5848 216.004 42.734 216.138 43.874C216.148 44.2226 216.241 44.564 216.408 44.8706C216.575 45.1772 216.813 45.4404 217.102 45.6389C217.643 45.8948 218.243 46.0004 218.84 45.9447C219.436 45.8889 220.006 45.6738 220.49 45.3223V48.95C219.201 49.477 217.805 49.6895 216.416 49.5694C215.753 49.5502 215.1 49.3989 214.497 49.1244C213.893 48.8499 213.352 48.4578 212.904 47.9715C212.009 46.749 211.564 45.2586 211.643 43.7494C211.633 40.5814 211.643 37.4116 211.643 34.2417C209.469 34.2417 207.295 34.2417 205.122 34.2417C205.119 39.2153 205.119 44.1885 205.122 49.1614H200.665C200.665 44.1891 200.665 39.2174 200.665 34.2463C199.631 34.227 198.598 34.2509 197.562 34.2306C197.568 33.0519 197.572 31.8676 197.562 30.686C198.591 30.6639 199.62 30.6731 200.652 30.6805C200.727 29.1112 200.486 27.4958 200.957 25.9663C201.356 24.5678 202.249 23.3589 203.473 22.5611" fill="#777777"/>
<path d="M108.063 22.8196C108.514 22.7474 108.977 22.7891 109.408 22.9407C109.839 23.0924 110.225 23.349 110.53 23.6873C110.872 24.0767 111.086 24.5614 111.141 25.0755C111.197 25.5896 111.091 26.1082 110.839 26.5608C110.536 27.0467 110.088 27.4265 109.557 27.6473C109.026 27.8682 108.438 27.9192 107.877 27.7931C107.296 27.6892 106.77 27.386 106.391 26.9363C106.012 26.4867 105.805 25.9192 105.805 25.3331C105.812 24.7146 106.045 24.1197 106.46 23.6584C106.875 23.197 107.444 22.9004 108.063 22.8233" fill="#777777"/>
<path d="M73.9141 23.37H80.395C82.413 28.4537 84.436 33.5358 86.4639 38.6165C86.9801 39.8875 87.4618 41.1752 88.003 42.4362C90.5994 36.0826 93.2303 29.7457 95.8054 23.3848C97.8848 23.3516 99.9642 23.3765 102.044 23.3718C102.038 31.9688 102.038 40.566 102.044 49.1636C100.544 49.1636 99.0463 49.1765 97.5481 49.1543C97.5611 42.8109 97.5481 36.4666 97.5537 30.1205C97.5537 29.8353 97.5481 29.5509 97.5277 29.2657C97.4396 29.3973 97.361 29.5349 97.2924 29.6774C94.7173 36.1731 92.0939 42.6485 89.5328 49.1488C88.4671 49.1866 87.3939 49.1488 86.3309 49.1691C83.6731 42.6734 81.0497 36.1648 78.4058 29.6663C78.3379 29.5316 78.2626 29.3995 78.1835 29.2731C78.1277 32.0534 78.1742 34.8356 78.1584 37.615C78.1621 41.4642 78.1621 45.314 78.1584 49.1645C76.743 49.1645 75.3286 49.1645 73.915 49.1645C73.915 40.5651 73.915 31.9666 73.915 23.3691" fill="#777777"/>
<path d="M120.329 30.6563C122.495 30.056 124.786 30.0627 126.949 30.6756C127.394 30.7956 127.821 30.9718 128.22 31.1999C128.196 32.6095 128.22 34.0209 128.207 35.4304C126.779 34.2768 124.955 33.7203 123.12 33.8787C122.394 33.9445 121.69 34.16 121.052 34.5114C120.415 34.8629 119.858 35.3425 119.418 35.9197C118.382 37.4149 117.96 39.2463 118.238 41.04C118.343 42.4486 118.987 43.7642 120.037 44.7175C120.615 45.1865 121.281 45.5368 121.997 45.7482C122.713 45.9596 123.464 46.0278 124.207 45.9489C125.659 45.7569 127.036 45.1957 128.205 44.3196C128.216 45.6553 128.198 46.991 128.215 48.3249C126.351 49.3239 124.233 49.7591 122.123 49.5766C119.96 49.4919 117.9 48.6404 116.316 47.1766C114.663 45.5267 113.699 43.3174 113.619 40.992C113.444 38.5758 114.062 36.1683 115.38 34.1298C116.574 32.4402 118.322 31.2147 120.325 30.6627" fill="#777777"/>
<path d="M169.006 30.3763C171.083 30.0392 173.213 30.2591 175.175 31.0132C175.175 32.3671 175.175 33.7228 175.175 35.0803C173.802 34.1408 172.164 33.66 170.497 33.7077C170.069 33.6959 169.645 33.7981 169.271 34.0036C168.896 34.2091 168.584 34.5104 168.366 34.8763C168.205 35.2713 168.182 35.7084 168.3 36.1182C168.418 36.5279 168.67 36.8868 169.017 37.1378C170.283 37.9769 171.787 38.3332 173.097 39.0855C174.176 39.6105 175.068 40.4517 175.651 41.4956C176.142 42.5219 176.295 43.6762 176.087 44.7937C175.879 45.9112 175.32 46.9349 174.492 47.719C172.753 49.1277 170.524 49.7994 168.29 49.5883C166.73 49.5117 165.196 49.1624 163.759 48.5563C163.766 47.1292 163.75 45.7058 163.766 44.2797C164.962 45.156 166.345 45.7484 167.808 46.0113C168.838 46.2313 169.911 46.1347 170.884 45.7344C171.091 45.6088 171.269 45.4427 171.409 45.2463C171.548 45.0499 171.646 44.8272 171.696 44.592C171.746 44.3568 171.747 44.114 171.699 43.8784C171.651 43.6428 171.555 43.4194 171.417 43.2218C170.87 42.6632 170.205 42.2313 169.47 41.9572C168.116 41.4561 166.826 40.8004 165.626 40.0031C164.802 39.3766 164.215 38.4926 163.961 37.4941C163.757 36.7556 163.706 35.9835 163.811 35.2248C163.917 34.4661 164.177 33.7367 164.576 33.0809C165.094 32.3575 165.753 31.7452 166.515 31.2806C167.277 30.816 168.125 30.5088 169.01 30.3772" fill="#777777"/>
<path d="M138.184 30.958C138.809 30.6116 139.501 30.4016 140.214 30.3419C140.927 30.2822 141.645 30.3742 142.319 30.6118C142.314 32.0887 142.319 33.5657 142.315 35.0361C141.419 34.4739 140.359 34.2268 139.304 34.3346C138.689 34.4402 138.11 34.6988 137.622 35.0861C137.135 35.4735 136.753 35.9771 136.515 36.55C136.004 37.7403 135.786 39.0341 135.879 40.3245V49.1647H131.487C131.483 43.0066 131.483 36.8475 131.487 30.6875C132.951 30.6691 134.417 30.6764 135.887 30.6875C135.88 31.7454 135.887 32.8032 135.881 33.8629C136.302 32.6694 137.112 31.6498 138.184 30.9663" fill="#777777"/>
<path d="M106.212 30.6814C107.689 30.6758 109.17 30.6593 110.645 30.6897C110.627 36.8466 110.645 43.0063 110.638 49.1633H106.216C106.209 43.0026 106.209 36.842 106.216 30.6814" fill="#777777"/>
<path d="M160.79 34.9927C160.012 33.2666 158.629 31.8794 156.898 31.0881C154.883 30.2591 152.675 30.0006 150.52 30.3413C148.236 30.5873 146.136 31.7011 144.661 33.4493C143.4 35.0736 142.681 37.0482 142.604 39.0976C142.334 41.5167 142.911 43.9543 144.237 46.0013C145.47 47.7159 147.308 48.9064 149.386 49.3355C151.106 49.6903 152.881 49.6903 154.601 49.3355C156.631 48.9324 158.446 47.8184 159.716 46.197C160.891 44.635 161.571 42.7613 161.669 40.8145C161.863 38.8283 161.558 36.8255 160.783 34.9844M156.479 43.4702C156.059 44.4386 155.273 45.2048 154.29 45.6044C153.127 46.028 151.86 46.0837 150.663 45.7641C150.063 45.5977 149.504 45.308 149.023 44.9138C148.543 44.5197 148.151 44.0297 147.873 43.4758C147.217 42.0268 146.983 40.4246 147.196 38.8502C147.269 37.3969 147.882 36.0221 148.918 34.9918C149.731 34.2831 150.767 33.8772 151.849 33.8434C152.524 33.7792 153.206 33.8581 153.849 34.0746C154.491 34.2912 155.08 34.6406 155.577 35.0998C156.537 36.1601 157.083 37.5271 157.115 38.9527C157.271 40.4867 157.056 42.0355 156.487 43.4702" fill="#777777"/>
<path d="M196.477 35.5276C195.789 33.6682 194.423 32.133 192.648 31.226C190.58 30.2894 188.279 29.9792 186.034 30.3343C184.218 30.535 182.503 31.2647 181.105 32.4316C179.464 33.9076 178.421 35.9252 178.168 38.1085C177.817 40.2727 178.059 42.4907 178.868 44.5303C179.736 46.5204 181.364 48.0878 183.394 48.8891C185.402 49.6175 187.57 49.7995 189.672 49.4162C191.836 49.0785 193.792 47.9433 195.149 46.2371C196.512 44.4216 197.223 42.2045 197.166 39.9408C197.222 38.439 196.987 36.9406 196.474 35.5267M192.453 41.7934C192.313 42.7817 191.917 43.7167 191.302 44.5063C190.635 45.2709 189.708 45.7659 188.698 45.8974C187.623 46.0777 186.52 45.9588 185.509 45.554C184.435 45.0752 183.592 44.1991 183.16 43.1125C182.669 41.8288 182.488 40.4489 182.631 39.0832C182.682 37.7464 183.154 36.4592 183.981 35.4029C184.389 34.9383 184.888 34.5613 185.447 34.2949C186.007 34.0286 186.616 33.8786 187.236 33.854C188.518 33.7206 189.801 34.0963 190.804 34.8989C191.662 35.6702 192.232 36.7077 192.419 37.8417C192.666 39.1462 192.678 40.4838 192.454 41.7925" fill="#777777"/>
<path d="M17.668 37.3086C24.536 37.3086 31.4044 37.3086 38.2731 37.3086C38.2731 44.1258 38.2731 50.9431 38.2731 57.7603H17.668V37.3086Z" fill="#02A4EF"/>
<path d="M40.3759 37.3125C47.2428 37.3125 54.1102 37.3125 60.9783 37.3125V57.7642H40.375C40.375 50.9476 40.375 44.131 40.375 37.3144" fill="#FFB902"/>
</g>
</g>
</g>
<defs>
<clipPath id="clip0_9_105472">
<rect width="239" height="72" fill="white"/>
</clipPath>
</defs>
</svg>
