<svg width="86" height="78" viewBox="0 0 86 78" fill="none" xmlns="http://www.w3.org/2000/svg">
<g clip-path="url(#clip0_9_82996)">
<path d="M56.616 28.4539C56.6406 13.0439 44.0991 0.532042 28.6041 0.507848C13.1092 0.483653 0.528297 12.9563 0.503942 28.3664C0.47959 43.7764 13.021 56.288 28.5159 56.3125C44.0109 56.3366 56.5918 43.8639 56.616 28.4539Z" fill="white"/>
<path d="M55.5942 35.8845C51.4357 50.7268 35.967 59.4165 21.0439 55.2917C6.56263 51.2901 -2.09256 36.714 1.18975 22.2923C4.64753 27.1647 10.7615 30.3984 17.7187 30.3984C28.525 30.3984 37.2737 22.6198 37.2737 12.9977C37.2737 8.1767 35.0707 3.80615 31.5094 0.664062C33.0218 0.817154 34.5556 1.10451 36.0693 1.52362C51.0024 5.64825 59.741 21.0324 55.5927 35.8845H55.5942Z" fill="white"/>
<path d="M28.5271 0.507812C28.4185 0.760032 28.2973 1.00723 28.1648 1.25318C27.1195 3.24334 25.7535 5.13186 25.2688 7.32905C25.2095 7.63272 25.1564 7.96398 25.265 8.26264C25.621 9.24515 27.0791 8.95655 28.0953 9.23764C29.1798 9.55007 29.8565 10.7233 29.8388 11.8452C29.8211 12.967 29.2341 14.0085 28.4955 14.8543C27.1372 16.399 25.2385 17.3852 23.7185 18.7705C22.1948 20.1684 21.0068 22.2979 21.6911 24.2278C22.0105 25.1099 22.672 25.8315 22.9952 26.7011C23.6579 28.5231 22.7326 30.4957 21.83 32.206C21.2782 33.2575 20.637 34.3994 19.5248 34.8336C17.9467 35.4597 16.12 34.3015 15.3714 32.7882C14.6265 31.2636 14.6543 29.5044 14.6265 27.8066C14.5975 26.8504 14.5394 25.8616 14.0761 25.0297C13.6128 24.1977 12.6307 23.5665 11.7129 23.8125C10.5148 24.135 10.0982 25.5818 9.27637 26.494C7.93066 27.991 5.41589 27.9622 3.74697 26.8353C2.4252 25.9444 1.56802 24.5428 1.03906 23.0257C1.15647 22.328 1.32563 21.6328 1.52131 20.9314C4.96772 8.60521 16.2412 0.517851 28.5271 0.507812Z" fill="#4069FA"/>
<path d="M29.8451 11.8424C29.8249 12.9679 29.2378 14.0019 28.4968 14.8514C27.1384 16.3974 25.2448 17.3799 23.721 18.7715C22.1973 20.1632 21.0144 22.2926 21.6936 24.2275C22.013 25.1084 22.6707 25.8236 23.0002 26.7046C23.6592 28.5265 22.7326 30.4916 21.8375 32.2007C21.2821 33.2547 20.6433 34.4017 19.5323 34.8308C17.948 35.4557 16.1263 34.2988 15.3752 32.7842C14.6341 31.2596 14.6543 29.499 14.6341 27.81C14.6038 26.8476 14.5419 25.855 14.0787 25.0256C13.6154 24.1961 12.6383 23.5625 11.7217 23.8071C10.5173 24.1347 10.1058 25.5777 9.2827 26.4887C7.93444 27.9932 5.42348 27.9632 3.7558 26.8363C2.42773 25.9454 1.57434 24.5437 1.03906 23.0179C1.16278 22.3214 1.3269 21.6263 1.52258 20.9298C2.03764 19.0878 2.72693 17.3372 3.57149 15.6997C5.28965 17.5832 7.75012 18.7603 10.4769 18.7603C15.6945 18.7603 19.9149 14.4612 19.9149 9.16958C19.9149 6.71263 18.9983 4.46149 17.5162 2.76245C20.9538 1.29933 24.6995 0.510039 28.5284 0.5C28.4249 0.755984 28.3011 1.00193 28.1686 1.24662C27.1296 3.24305 25.7599 5.12528 25.2764 7.32628C25.2145 7.62364 25.1627 7.96121 25.2663 8.25732C25.626 9.23988 27.0879 8.95378 28.0966 9.22981C29.1874 9.5473 29.8666 10.7143 29.8464 11.8399L29.8451 11.8424Z" fill="#4069FA"/>
<path d="M52.8478 14.4766C56.4975 20.7231 57.6918 28.3776 55.5949 35.8776C53.0927 44.8283 46.4626 51.5493 38.3238 54.5494C35.9694 50.8126 40.7249 45.2248 38.1294 41.562C37.5196 40.7025 36.5993 40.1277 35.7358 39.5304C34.6034 38.7437 33.5076 37.8264 32.9269 36.5891C32.3487 35.3406 32.4181 33.708 33.4281 32.7707C34.3661 31.9023 35.7812 31.8597 37.0727 31.7555C38.6293 31.6226 40.2237 31.3076 41.5316 30.453C42.8395 29.5985 43.8292 28.1304 43.7345 26.5806C43.684 25.888 43.4454 25.2204 43.2851 24.5491C42.4645 20.9415 44.6031 16.8846 48.0558 15.4955C49.1691 15.0613 50.3572 14.8643 51.5414 14.6798C51.9733 14.6071 52.4023 14.5469 52.8468 14.4778L52.8478 14.4766Z" fill="#4069FA"/>
<path d="M55.5978 35.8762C53.0965 44.8319 46.469 51.5465 38.3276 54.5558C36.0009 50.8599 40.5924 45.3841 38.2354 41.72C38.3276 41.73 38.4311 41.73 38.5333 41.73C45.1926 41.73 50.5958 36.1109 50.5958 29.1705C50.5958 24.5439 48.1871 20.5009 44.6056 18.3212C45.4603 17.0727 46.6533 16.0588 48.0634 15.4966C49.1743 15.0562 50.3585 14.8616 51.5413 14.6772C51.9732 14.6057 52.4061 14.5442 52.8482 14.4727C56.5013 20.7267 57.6956 28.3824 55.5963 35.875L55.5978 35.8762Z" fill="#4069FA"/>
<path d="M29.0763 46.1802C29.2783 47.6697 28.4792 49.1014 27.5942 50.3301C26.713 51.5458 25.6892 52.7231 25.2953 54.1762C25.1312 54.8098 25.0933 55.4521 25.1426 56.106C23.7829 55.9475 22.4056 55.6692 21.0435 55.2927C17.9834 54.4468 15.1745 53.1193 12.6875 51.4202C12.8617 51.3022 13.0334 51.1958 13.2139 51.1043C15.0748 50.1592 17.6741 50.3012 18.8191 48.5554C19.7154 47.1904 19.2609 45.2717 20.1421 43.914C20.945 42.7018 22.5824 42.3216 24.0405 42.4057C26.3179 42.5487 28.7771 43.9328 29.0763 46.1802Z" fill="#4069FA"/>
<path d="M27.5904 50.3284C26.7155 51.547 25.6867 52.7238 25.2953 54.1769C25.1312 54.812 25.0997 55.4567 25.1413 56.1019C23.7829 55.9488 22.4031 55.6714 21.0448 55.2939C17.9884 54.4441 15.1783 53.1244 12.6875 51.4252C12.863 51.302 13.0372 51.2004 13.2127 51.1075C13.9019 50.7502 14.7049 50.5441 15.4977 50.3395C16.4041 50.8715 17.4532 51.1691 18.5755 51.1691C22.0029 51.1691 24.7714 48.4059 24.7714 45.008C24.7714 44.0769 24.5656 43.206 24.1945 42.418C26.4277 42.6125 28.7847 43.984 29.0725 46.185C29.2783 47.6694 28.4754 49.1026 27.5904 50.3308V50.3284Z" fill="#4069FA"/>
<path d="M28.6005 56.8201C26.0339 56.8201 23.451 56.4725 20.9097 55.7695C5.73919 51.5758 -3.17102 35.8907 1.04674 20.8039C3.08935 13.4958 7.87142 7.41746 14.513 3.68559C21.1546 -0.0450062 28.8592 -0.981105 36.2053 1.0492C51.3758 5.24285 60.286 20.9294 56.0681 36.015C54.0268 43.323 49.2447 49.4014 42.602 53.1334C38.258 55.575 33.457 56.8201 28.5992 56.8201H28.6005ZM28.5184 0.990224C23.8297 0.990224 19.1979 2.19109 15.0041 4.54766C8.59352 8.14903 3.97809 14.0166 2.00619 21.0687C-2.06387 35.6297 6.53576 50.7679 21.1774 54.8162C28.2659 56.7758 35.7041 55.874 42.1134 52.2725C48.5238 48.671 53.1393 42.8036 55.1101 35.7514C59.1801 21.1904 50.5806 6.05217 35.9389 2.00412C33.4873 1.32652 30.994 0.990224 28.5171 0.990224H28.5184Z" fill="#4069FA"/>
<path d="M18.6027 35.5045C17.0689 35.5045 15.5969 34.3626 14.9266 33.0074C14.1805 31.484 14.1578 29.7938 14.135 28.1575L14.13 27.8136C14.1022 26.8876 14.0429 25.9891 13.6414 25.2676C13.293 24.6427 12.5229 24.1057 11.8425 24.2889C11.2327 24.4532 10.859 25.0443 10.4273 25.7294C10.1925 26.1021 9.95008 26.4886 9.64835 26.8236C8.06151 28.5891 5.20462 28.4172 3.46754 27.244C2.18239 26.3769 1.20654 25.0129 0.570276 23.1871C0.542505 23.1093 0.53619 23.0252 0.550081 22.9437C0.659909 22.2949 0.821498 21.5935 1.04369 20.7979C4.46233 8.56965 15.7636 0.0217574 28.5292 0.0117188C28.6959 0.0117188 28.8524 0.095792 28.9445 0.233823C29.0367 0.373109 29.0531 0.548785 28.9862 0.701872C28.8713 0.966644 28.7451 1.2289 28.6037 1.48614C28.3297 2.0094 28.028 2.53392 27.7263 3.05718C26.8893 4.51404 26.0978 5.88934 25.7569 7.43403C25.7102 7.67496 25.6711 7.91715 25.7342 8.09404C25.8642 8.45169 26.3465 8.52194 27.1241 8.59223C27.4928 8.62608 27.874 8.66123 28.23 8.75911C29.476 9.11801 30.361 10.418 30.3383 11.851C30.3206 12.949 29.8156 14.0984 28.8738 15.1763C28.0407 16.1225 27.0206 16.8653 26.0346 17.5818C25.3618 18.0712 24.6662 18.5769 24.0564 19.134C22.789 20.2947 21.5328 22.2849 22.1628 24.063C22.3054 24.4583 22.5352 24.8309 22.7776 25.2237C23.0288 25.6315 23.2876 26.0532 23.4643 26.53C24.1902 28.5251 23.2295 30.6245 22.2726 32.4352C21.6275 33.6649 20.9458 34.8106 19.7087 35.2937C19.3438 35.4393 18.9714 35.5045 18.6027 35.5045ZM12.1353 23.2611C13.1428 23.2611 14.058 23.9689 14.5138 24.7895C15.0225 25.7043 15.0932 26.7307 15.126 27.7911L15.1311 28.1437C15.1525 29.6708 15.174 31.2494 15.8204 32.5719C16.4604 33.8632 18.0334 34.8934 19.3425 34.3739C20.2628 34.0137 20.836 33.035 21.3915 31.9772C22.2903 30.2769 23.1159 28.4837 22.5301 26.87C22.3888 26.4886 22.1641 26.1259 21.928 25.7407C21.6704 25.3216 21.4041 24.8886 21.2248 24.3955C20.4345 22.1619 21.8219 19.838 23.3836 18.4062C24.0363 17.8127 24.7533 17.2894 25.4489 16.785C26.4336 16.0685 27.3653 15.3909 28.1252 14.5288C28.6706 13.9026 29.3283 12.9264 29.3447 11.8372C29.3599 10.8572 28.7653 9.94491 27.9598 9.71278C27.696 9.63873 27.3741 9.60989 27.0358 9.5785C26.1975 9.50199 25.1547 9.40661 24.8 8.43036C24.6498 8.01754 24.7129 7.5959 24.7836 7.23325C25.1598 5.53044 26.0258 4.0234 26.8641 2.56654C27.1595 2.05332 27.4549 1.54135 27.7263 1.02311C27.7288 1.0206 27.7288 1.01683 27.7314 1.01432C15.7408 1.3707 5.22989 9.51576 2.00313 21.0627C1.80493 21.7729 1.65722 22.4029 1.55371 22.9813C2.11801 24.5398 2.94995 25.698 4.02679 26.4233C5.42054 27.3644 7.679 27.5288 8.90605 26.1623C9.151 25.89 9.36054 25.5562 9.58526 25.2036C10.0586 24.4507 10.5965 23.5987 11.5837 23.3327C11.7693 23.2825 11.9535 23.2599 12.1353 23.2599V23.2611Z" fill="#4069FA"/>
<path d="M38.3245 55.0479C38.1578 55.0479 37.9962 54.9636 37.9028 54.8153C36.6328 52.8003 37.2287 50.3746 37.8056 48.0282C38.375 45.7143 38.9115 43.5284 37.7235 41.8507C37.2337 41.1592 36.5116 40.6649 35.7453 40.1403L35.4525 39.9396C34.4148 39.2193 33.1397 38.2117 32.4769 36.8025C31.7473 35.2289 31.9997 33.4245 33.0879 32.4131C34.0827 31.4921 35.4941 31.3842 36.7389 31.2888L37.0318 31.2662C38.8799 31.1081 40.2244 30.7203 41.2583 30.044C42.5372 29.2083 43.3136 27.8619 43.2366 26.6146C43.205 26.1754 43.0838 25.7324 42.955 25.2631C42.9008 25.0636 42.8477 24.8653 42.7998 24.6671C41.9274 20.8311 44.2023 16.5145 47.8684 15.04C48.9968 14.5996 50.1636 14.3963 51.4638 14.1931C51.7392 14.1478 52.017 14.1052 52.2996 14.0625L52.7692 13.991C52.9722 13.9571 53.1731 14.055 53.2765 14.232C57.1509 20.8649 58.1447 28.5997 56.0715 36.0145C53.6278 44.7581 47.0567 51.8619 38.4949 55.0175C38.4381 55.0387 38.38 55.0488 38.322 55.0488L38.3245 55.0479ZM52.5861 15.0212L52.4508 15.0413C52.1735 15.0839 51.9005 15.1241 51.6251 15.1706C50.3796 15.365 49.2684 15.557 48.2383 15.9586C45.009 17.2573 43.003 21.0645 43.7706 24.4425C43.8147 24.6257 43.8652 24.8152 43.917 25.0034C44.0521 25.4965 44.191 26.0072 44.2314 26.5481C44.3311 28.1731 43.4007 29.8269 41.805 30.8697C40.2572 31.8811 38.3876 32.1433 37.1151 32.2513L36.8159 32.2751C35.6809 32.3617 34.5069 32.452 33.7671 33.1359C32.8973 33.944 32.915 35.3821 33.3796 36.3846C33.9375 37.5717 35.0283 38.4375 36.0218 39.1277L36.3097 39.326C37.1125 39.8756 37.9445 40.444 38.5378 41.281C39.9871 43.3263 39.3698 45.836 38.7726 48.2628C38.2588 50.352 37.7715 52.3347 38.5504 53.9371C46.6186 50.82 52.7943 44.0491 55.1149 35.7485C57.0842 28.7026 56.1841 21.3543 52.5847 15.02L52.5861 15.0212Z" fill="#4069FA"/>
<path d="M25.1439 56.6005C25.1249 56.6005 25.1047 56.6005 25.0858 56.5966C23.735 56.4382 22.3299 56.1609 20.911 55.7685C17.8609 54.9249 14.999 53.5989 12.4073 51.8271C12.2722 51.7341 12.1914 51.581 12.1914 51.4178C12.1914 51.2546 12.2734 51.1015 12.4098 51.01C12.6017 50.8795 12.791 50.763 12.9893 50.6624C13.7088 50.296 14.513 50.088 15.2906 49.8872C16.5695 49.5545 17.7764 49.2406 18.4025 48.2858C18.7926 47.6936 18.8911 46.9457 18.9959 46.1539C19.1082 45.2981 19.2269 44.4147 19.7255 43.6455C20.5171 42.4484 22.1519 41.7971 24.0696 41.9113C26.5477 42.0669 29.2316 43.5601 29.5712 46.115C29.8047 47.8479 28.8541 49.4317 27.9995 50.6171C27.848 50.828 27.6915 51.0365 27.5362 51.2445C26.7863 52.245 26.0793 53.1897 25.7776 54.3038C25.6388 54.845 25.5933 55.4247 25.6413 56.0694C25.6514 56.2163 25.5971 56.3607 25.4885 56.4623C25.3951 56.5514 25.2714 56.6005 25.1439 56.6005ZM13.6356 51.4515C15.9585 52.9427 18.4922 54.0717 21.1786 54.8147C22.3476 55.1373 23.504 55.3804 24.6275 55.5388C24.6301 55.0169 24.6932 54.5263 24.8157 54.0515C25.1691 52.7491 25.967 51.6841 26.7383 50.6523C26.8923 50.4481 27.0451 50.2444 27.1928 50.0389C27.9389 49.0022 28.7734 47.6333 28.5852 46.2442C28.3201 44.2415 26.0314 43.0256 24.0127 42.8989C22.4486 42.811 21.1546 43.2904 20.5625 44.1863C20.1876 44.7635 20.0904 45.5014 19.9856 46.2831C19.8707 47.149 19.7521 48.0449 19.2395 48.8265C18.4038 50.1014 16.9495 50.4794 15.5444 50.8444C14.8917 51.0139 14.2188 51.1881 13.6381 51.4515H13.6356Z" fill="#4069FA"/>
<path fill-rule="evenodd" clip-rule="evenodd" d="M26.5554 59.8335L25.1454 58.8816C24.9451 58.5383 24.8464 58.1454 24.8608 57.7491L24.8684 35.1714C24.9126 34.3522 25.1512 33.555 25.5648 32.8447C25.9785 32.1345 26.5554 31.5314 27.2486 31.0845L59.2973 12.7374C59.5384 12.567 59.8201 12.4622 60.1148 12.4337C60.4095 12.4052 60.7067 12.454 60.9763 12.575L62.3808 13.5267C62.1107 13.4065 61.814 13.3583 61.5193 13.3868C61.2251 13.4152 60.9434 13.5194 60.7018 13.6891L28.6534 32.0362C27.9615 32.4845 27.3855 33.088 26.972 33.7979C26.5584 34.5079 26.3188 35.3044 26.2726 36.1231L26.2643 58.7005C26.2502 59.0982 26.3512 59.4911 26.5554 59.8335Z" fill="#4069FA"/>
<path fill-rule="evenodd" clip-rule="evenodd" d="M25.4936 58.5683L25.8094 58.7802C25.8099 58.758 25.8085 58.7359 25.8053 58.7142L25.8171 36.1248C25.8654 35.2284 26.1258 34.3558 26.5771 33.5779C27.0285 32.7999 27.6582 32.1384 28.4152 31.647L60.4713 13.2958C60.6143 13.2158 60.7627 13.1461 60.9153 13.0872L60.7148 12.9548C60.4148 12.8001 60.052 12.8428 59.5157 13.1364L27.4728 31.4788C26.8474 31.886 26.3273 32.4334 25.9543 33.0769C25.5814 33.7203 25.3661 34.4418 25.3259 35.183L25.3146 57.7493C25.3037 58.0334 25.3646 58.3156 25.4918 58.5698L25.4936 58.5683ZM26.5505 60.2887C26.4572 60.2887 26.3662 60.2603 26.2895 60.2078L24.8854 59.2564C24.8276 59.2207 24.7795 59.1716 24.7454 59.1134C24.5052 58.7027 24.384 58.2342 24.3952 57.7595L24.4024 35.1702C24.4456 34.2731 24.7038 33.3993 25.1557 32.6212C25.6076 31.8431 26.24 31.1833 27.0005 30.6965L59.0625 12.3413C59.3722 12.134 59.7307 12.0094 60.1032 11.9796C60.4752 11.9499 60.8492 12.0159 61.1883 12.1713L62.6378 13.1493C62.687 13.1835 62.7291 13.2269 62.7619 13.2772C62.7943 13.3275 62.816 13.3837 62.8267 13.4425C62.8373 13.5012 62.8358 13.5615 62.8233 13.6198C62.8102 13.6781 62.7856 13.7333 62.7513 13.7822C62.688 13.8723 62.5938 13.9365 62.486 13.963C62.3788 13.9895 62.2653 13.9765 62.1667 13.9264C61.9633 13.8402 61.7406 13.8094 61.5212 13.8373C61.3023 13.8652 61.0941 13.9508 60.9197 14.0852L28.8829 32.4277C28.256 32.8336 27.7345 33.3807 27.3608 34.0243C26.987 34.6679 26.7715 35.39 26.7317 36.1318L26.7206 58.6983C26.7086 59.0137 26.7869 59.3262 26.9467 59.5997C27.0077 59.7056 27.0238 59.8313 26.9914 59.9487C26.9591 60.0667 26.881 60.1669 26.7743 60.227C26.7066 60.2651 26.6304 60.2848 26.5528 60.2858L26.5505 60.2887Z" fill="#4069FA"/>
<path fill-rule="evenodd" clip-rule="evenodd" d="M28.6546 32.0378L60.7032 13.6907C62.0116 12.9406 63.0793 13.5576 63.0793 15.0514L63.0711 37.6331C63.0238 38.4517 62.7841 39.2479 62.371 39.9578C61.9575 40.6677 61.382 41.2715 60.6907 41.7205L28.6422 60.0675C27.3332 60.8172 26.2615 60.1999 26.2656 58.703L26.2739 36.1253C26.3204 35.3065 26.56 34.51 26.9735 33.8C27.3871 33.09 27.9629 32.4864 28.6546 32.0378Z" fill="white"/>
<path fill-rule="evenodd" clip-rule="evenodd" d="M61.7571 13.8259C61.4638 13.84 61.1787 13.9293 60.9304 14.085L28.882 32.4327C28.2598 32.8406 27.7416 33.3865 27.3683 34.0272C26.995 34.6678 26.7768 35.3858 26.7309 36.1245L26.7197 58.7023C26.6499 58.9594 26.686 59.2334 26.8199 59.464C26.9537 59.6946 27.1745 59.8636 27.4336 59.933C27.6046 59.9787 27.7848 59.9787 27.9561 59.9339C28.1274 59.8887 28.2837 59.8001 28.4096 59.6763L60.4584 41.3248C61.0797 40.9162 61.5972 40.3702 61.9706 39.7296C62.3436 39.0891 62.5625 38.3715 62.6093 37.633L62.6175 15.0513C62.6427 14.8393 62.6127 14.6244 62.5311 14.427C62.4489 14.2296 62.3175 14.0562 62.1494 13.9233C62.0291 13.8566 61.8928 13.8231 61.7556 13.8265L61.7571 13.8259ZM27.5853 60.8434C27.2862 60.8463 26.9918 60.7702 26.732 60.6229C26.4181 60.414 26.1665 60.1251 26.0035 59.7866C25.8404 59.4481 25.7719 59.0725 25.805 58.6984L25.8168 36.121C25.8666 35.2234 26.1285 34.3499 26.5815 33.5714C27.0345 32.7929 27.6658 32.1311 28.4243 31.6397L60.4729 13.2927C60.6676 13.1379 60.8913 13.0227 61.1309 12.9536C61.3701 12.8846 61.6213 12.8631 61.8692 12.8903C62.117 12.9175 62.3571 12.9929 62.5755 13.1122C62.7944 13.2316 62.9872 13.3924 63.1432 13.5857C63.3075 13.7893 63.4278 14.0247 63.4964 14.2769C63.5645 14.5291 63.579 14.7926 63.5394 15.0507L63.5307 37.6324C63.4867 38.5313 63.2268 39.4069 62.7731 40.1863C62.3199 40.9658 61.6856 41.6266 60.9236 42.1143L28.8748 60.4611C28.4863 60.6995 28.0418 60.8314 27.5853 60.8434Z" fill="#4069FA"/>
<path fill-rule="evenodd" clip-rule="evenodd" d="M28.7949 33.727L37.2385 28.8935L60.562 15.5422C61.1635 15.1976 61.6491 15.4761 61.6491 16.1687L61.6413 38.1509C61.621 38.5257 61.5118 38.8905 61.3229 39.2157C61.134 39.5409 60.8707 39.8173 60.5543 40.0226L34.2366 55.0832L28.7901 58.2023C28.1884 58.5427 27.7031 58.2682 27.7031 57.5759L27.7114 35.5935C27.7321 35.2199 27.8409 34.8563 28.0291 34.5321C28.2173 34.2079 28.4796 33.9321 28.7949 33.727Z" fill="white"/>
<path fill-rule="evenodd" clip-rule="evenodd" d="M85.079 55.2656V56.9908C85.0017 57.2262 84.8781 57.4438 84.7148 57.6311C84.5519 57.8184 84.3524 57.9711 84.1292 58.0808L51.9517 76.5278C51.2666 76.8885 50.5032 77.0796 49.7277 77.0844C48.8431 77.1283 47.9627 76.9342 47.1796 76.5235L27.4227 65.1832C27.1995 65.072 27.0007 64.9179 26.8377 64.7301C26.6746 64.5423 26.5506 64.3242 26.4727 64.0888V62.3636C26.5508 62.5986 26.6749 62.8157 26.838 63.0026C27.001 63.1898 27.1997 63.343 27.4227 63.4537L47.1796 74.794C47.9626 75.2057 48.8426 75.4002 49.7277 75.3579C50.5037 75.3521 51.267 75.16 51.9517 74.7974L84.1292 56.3576C84.3524 56.2469 84.551 56.0933 84.7143 55.906C84.8771 55.7187 85.0013 55.5011 85.079 55.2656Z" fill="#4069FA"/>
<path fill-rule="evenodd" clip-rule="evenodd" d="M26.9324 64.0207C27.0671 64.3597 27.3277 64.6351 27.6605 64.7896L47.4098 76.1295C48.122 76.4993 48.9209 76.6726 49.7239 76.6322C50.4245 76.6283 51.1134 76.4545 51.7314 76.1261L83.9045 57.6936C84.2326 57.5347 84.4896 57.2607 84.6254 56.9246V56.5842C84.5399 56.642 84.4539 56.6959 84.3679 56.7455L52.1831 75.1925C51.3743 75.6032 50.479 75.8175 49.5707 75.8175C48.6624 75.8175 47.7671 75.6032 46.9586 75.1925L27.1946 63.8455C27.109 63.7915 27.0175 63.7376 26.9336 63.6755V64.0202L26.9324 64.0207ZM49.6345 77.5383C48.7035 77.5667 47.7815 77.3525 46.9604 76.9158L27.1964 65.5696C26.6435 65.2875 26.2257 64.7993 26.0349 64.2124C26.0241 64.1709 26.019 64.1281 26.0196 64.0852V62.3601C26.0189 62.2498 26.0585 62.1434 26.1309 62.0601C26.2034 61.9768 26.3038 61.9229 26.4135 61.9075C26.5221 61.8945 26.6318 61.92 26.7235 61.9792C26.8152 62.0385 26.8831 62.1275 26.9153 62.2315C26.9767 62.4131 27.0747 62.5806 27.2033 62.7236C27.3319 62.8666 27.4884 62.9822 27.6634 63.0631L47.4121 74.3962C48.1211 74.7746 48.9228 74.9489 49.7263 74.8988C50.4269 74.8979 51.1163 74.725 51.7338 74.3962L83.907 55.9598C84.0794 55.8794 84.2336 55.7648 84.3597 55.6232C84.4863 55.4816 84.5824 55.316 84.6418 55.1364C84.6752 55.0324 84.7438 54.9429 84.836 54.8836C84.9283 54.8244 85.039 54.7989 85.1482 54.8119C85.2573 54.8278 85.3574 54.8822 85.4298 54.9655C85.5018 55.0483 85.5419 55.1547 85.5419 55.2645V56.9896C85.5414 57.0325 85.5347 57.0754 85.5226 57.1168C85.3332 57.7013 84.9187 58.1876 84.3693 58.4697L52.1841 76.9167C51.4357 77.3173 50.5998 77.5311 49.749 77.5388L49.6345 77.5383Z" fill="#4069FA"/>
<path fill-rule="evenodd" clip-rule="evenodd" d="M27.424 60.7087L59.6011 42.2726C60.3408 41.9008 61.1583 41.707 61.9879 41.707C62.8169 41.707 63.6344 41.9008 64.3741 42.2726L84.1309 53.6131C85.4436 54.3714 85.4436 55.606 84.1309 56.3551L51.9505 74.7978C51.2103 75.1681 50.3928 75.3607 49.5643 75.3602C48.7352 75.3592 47.9182 75.1657 47.1785 74.7944L27.4216 63.4507C26.1091 62.6967 26.1091 61.4608 27.424 60.7087Z" fill="white"/>
<path fill-rule="evenodd" clip-rule="evenodd" d="M27.6559 61.1057C27.4566 61.1919 27.2826 61.3267 27.1504 61.4976C27.0182 61.669 26.932 61.8708 26.9 62.0841C26.9308 62.2973 27.0165 62.4991 27.149 62.67C27.2813 62.8405 27.456 62.9743 27.6559 63.0586L47.4122 74.3994C48.0826 74.7306 48.8213 74.9035 49.5702 74.9045C50.319 74.9049 51.0578 74.7335 51.7289 74.4032L83.9064 55.963C84.0354 55.9288 84.1567 55.8701 84.263 55.7892C84.3688 55.7088 84.4581 55.6081 84.5253 55.4935C84.592 55.3785 84.6359 55.2518 84.6533 55.1204C84.6712 54.9889 84.6625 54.8551 84.6277 54.727C84.5818 54.5547 84.49 54.3972 84.3625 54.2711C84.2349 54.1454 84.0765 54.0549 83.9021 54.0096L64.1457 42.6692C63.4766 42.3377 62.7388 42.1652 61.9909 42.1652C61.2425 42.1652 60.5047 42.3377 59.8356 42.6692L27.6559 61.1057ZM49.5711 75.8111C48.659 75.8279 47.7578 75.6137 46.9528 75.1885L27.1959 63.8477C26.7248 63.6648 26.3464 63.3032 26.1439 62.8429C25.9414 62.3826 25.9313 61.8611 26.1159 61.3936C26.2118 61.1509 26.3573 60.9304 26.5431 60.7455C26.729 60.5611 26.9512 60.4172 27.1959 60.3218L59.3732 41.8822C60.1839 41.4743 61.0802 41.2617 61.9894 41.2617C62.8982 41.2617 63.7945 41.4743 64.6052 41.8822L84.362 53.2287C84.8331 53.4097 85.2119 53.7689 85.4157 54.2272C85.6196 54.6856 85.6317 55.2056 85.4491 55.6731C85.3534 55.9177 85.2075 56.1402 85.0205 56.326C84.8331 56.5119 84.6089 56.6568 84.362 56.7516L52.185 75.1987C51.3796 75.6185 50.4804 75.8294 49.5711 75.8111Z" fill="#4069FA"/>
<path fill-rule="evenodd" clip-rule="evenodd" d="M62.0138 67.1602L70.8153 62.1138L64.0749 58.2461L55.2773 63.2891L62.0138 67.1602Z" fill="white"/>
<path fill-rule="evenodd" clip-rule="evenodd" d="M56.1923 63.2919L62.0166 66.6363L69.902 62.1123L64.0767 58.7722L56.1923 63.2919ZM62.0166 67.6147C61.9359 67.6156 61.8557 67.5944 61.7866 67.553L55.0462 63.6853C54.9945 63.6559 54.9486 63.6164 54.9119 63.5697C54.8752 63.523 54.8486 63.4691 54.8327 63.4118C54.8167 63.3545 54.8124 63.2948 54.8201 63.2361C54.8274 63.1773 54.8467 63.1205 54.8762 63.0685C54.9168 62.9982 54.9757 62.94 55.0462 62.9L63.8477 57.8497C63.9178 57.8098 63.997 57.7891 64.0777 57.7891C64.1584 57.7891 64.2376 57.8098 64.3077 57.8497L71.048 61.7175C71.1171 61.7579 71.1741 61.8152 71.2142 61.8845C71.2539 61.9539 71.2746 62.0324 71.2742 62.1118C71.2742 62.1912 71.2534 62.2697 71.2133 62.3391C71.1737 62.4079 71.1166 62.4657 71.048 62.5066L62.2499 67.5501C62.1789 67.593 62.0978 67.6151 62.0147 67.6147H62.0166Z" fill="#4069FA"/>
<path fill-rule="evenodd" clip-rule="evenodd" d="M31.4525 61.3506L31.6828 61.745C31.4997 61.8494 31.3875 61.9795 31.3875 62.0815C31.3875 62.1831 31.5003 62.3155 31.6828 62.4219L41.6527 68.1443C41.9782 68.3008 42.3351 68.3817 42.6967 68.3817C43.0583 68.3817 43.4152 68.3008 43.7406 68.1443L72.9909 51.3729C73.174 51.2689 73.2861 51.1384 73.2861 51.0368C73.2861 50.9347 73.1736 50.8023 72.9909 50.7003L63.0212 44.9736C62.6956 44.8171 62.3385 44.7359 61.9766 44.7359C61.6153 44.7359 61.2582 44.8171 60.9326 44.9736L31.6828 61.745L31.4519 61.3506H31.4525ZM42.6961 69.2927C42.1715 69.3028 41.6531 69.1781 41.1916 68.9301L31.2216 63.2077C31.0731 63.1461 30.9382 63.0556 30.8247 62.9424C30.7112 62.8288 30.6214 62.6945 30.5604 62.5466C30.4993 62.3983 30.4681 62.2399 30.4688 62.0801C30.4693 61.9202 30.5017 61.7623 30.5639 61.615C30.6888 61.3189 30.9265 61.0839 31.2252 60.9606L60.4726 44.1907C60.9369 43.9525 61.452 43.8281 61.9747 43.8281C62.4975 43.8281 63.0125 43.9525 63.4768 44.1907L73.4504 49.913C73.5992 49.9756 73.734 50.0662 73.8475 50.1798C73.9611 50.2939 74.051 50.4292 74.1118 50.5775C74.1727 50.7258 74.2036 50.8847 74.2027 51.045C74.2017 51.2053 74.1688 51.3637 74.1065 51.5111C73.9814 51.8062 73.7446 52.0407 73.447 52.164L44.1953 68.9301C43.7356 69.1781 43.2186 69.3028 42.6955 69.2922L42.6961 69.2927Z" fill="white"/>
<path fill-rule="evenodd" clip-rule="evenodd" d="M44.2927 59.7493L45.7305 58.926C45.8934 58.8436 46.0735 58.8008 46.2563 58.8008C46.439 58.8008 46.6192 58.8436 46.7821 58.926L48.2199 59.7493C48.3004 59.7772 48.3662 59.8355 48.4034 59.912C48.4401 59.9881 48.4455 60.0757 48.417 60.1557C48.401 60.2009 48.3749 60.2423 48.3411 60.276C48.3068 60.3097 48.2655 60.3357 48.2199 60.3516L46.7786 61.175C46.6164 61.2568 46.4369 61.2997 46.2548 61.2997C46.0728 61.2997 45.8933 61.2568 45.7311 61.175L44.2933 60.3516C44.2129 60.3237 44.1469 60.265 44.1099 60.1889C44.073 60.1123 44.068 60.0247 44.0961 59.9448C44.112 59.8995 44.1379 59.8586 44.1719 59.8249C44.206 59.7907 44.2473 59.7652 44.2927 59.7493Z" fill="white"/>
<path fill-rule="evenodd" clip-rule="evenodd" d="M44.6838 60.0531L45.9615 60.7825C46.0543 60.8244 46.1549 60.8461 46.2568 60.8461C46.3586 60.8461 46.4593 60.8244 46.552 60.7825L47.8262 60.0531L46.552 59.3227C46.4593 59.2812 46.3586 59.2596 46.2568 59.2596C46.1549 59.2596 46.0543 59.2812 45.9615 59.3227L44.6838 60.0531ZM46.2579 61.7585C45.9942 61.7623 45.7339 61.6983 45.5027 61.5726L44.0649 60.745C43.9731 60.7021 43.8907 60.6419 43.8223 60.5673C43.754 60.4927 43.7012 60.4055 43.6668 60.3107C43.6324 60.2158 43.6172 60.1157 43.622 60.015C43.6267 59.9144 43.6514 59.8157 43.6947 59.7242C43.7712 59.5629 43.9022 59.4329 44.0649 59.3568L45.5062 58.5335C45.7385 58.4117 45.9973 58.3477 46.26 58.3477C46.5228 58.3477 46.7815 58.4117 47.0137 58.5335L48.4517 59.3568C48.6377 59.4435 48.7817 59.6 48.8512 59.7921C48.9213 59.9842 48.9111 60.1961 48.8242 60.3805C48.7474 60.5432 48.6155 60.6742 48.4517 60.7502L47.0101 61.5736C46.7795 61.6983 46.5204 61.7609 46.2579 61.7565V61.7585Z" fill="#4069FA"/>
<path fill-rule="evenodd" clip-rule="evenodd" d="M38.643 62.9836L37.2094 63.8069C37.1286 63.8344 37.0622 63.8926 37.0247 63.9692C36.9873 64.0453 36.982 64.1334 37.0098 64.2133C37.0255 64.2586 37.0513 64.2995 37.0851 64.3337C37.1189 64.3674 37.1599 64.3934 37.2052 64.4097L38.6424 65.2331C38.8054 65.3149 38.9856 65.3578 39.1682 65.3578C39.3509 65.3578 39.531 65.3149 39.694 65.2331L41.1312 64.4097C41.2119 64.3828 41.2785 64.3255 41.3166 64.2504C41.3547 64.1748 41.3611 64.0872 41.3343 64.0072C41.3188 63.961 41.2928 63.9186 41.2581 63.884C41.2235 63.8493 41.1813 63.8228 41.1347 63.8069L39.697 62.9836C39.5335 62.9017 39.353 62.8594 39.17 62.8594C38.987 62.8594 38.8065 62.9017 38.643 62.9836Z" fill="white"/>
<path fill-rule="evenodd" clip-rule="evenodd" d="M37.5988 64.1063L38.8724 64.8362C38.9651 64.8776 39.0658 64.8993 39.1677 64.8993C39.2695 64.8993 39.3702 64.8776 39.4629 64.8362L40.7407 64.1063L39.4629 63.3764C39.3702 63.3345 39.2695 63.3128 39.1677 63.3128C39.0658 63.3128 38.9651 63.3345 38.8724 63.3764L37.5988 64.1063ZM39.1689 65.8117C38.9064 65.8156 38.6474 65.752 38.4172 65.6263L36.9759 64.803C36.8465 64.7366 36.7372 64.6369 36.659 64.5146C36.581 64.3923 36.5369 64.2517 36.5312 64.1073C36.5359 63.9619 36.58 63.8203 36.6588 63.6975C36.7377 63.5752 36.8485 63.4761 36.9795 63.4106L38.4166 62.5877C38.6497 62.4659 38.9091 62.4023 39.1724 62.4023C39.4358 62.4023 39.6952 62.4659 39.9282 62.5877L41.3659 63.4106C41.4956 63.4775 41.605 63.5767 41.683 63.6995C41.7611 63.8218 41.8049 63.9623 41.81 64.1073C41.8054 64.2522 41.7615 64.3938 41.6826 64.5165C41.6037 64.6388 41.4928 64.738 41.3618 64.803L39.924 65.6263C39.6929 65.7535 39.4324 65.8185 39.1683 65.8151L39.1689 65.8117Z" fill="#4069FA"/>
<path fill-rule="evenodd" clip-rule="evenodd" d="M42.1846 65.0114L40.7474 65.8348C40.6669 65.8627 40.6007 65.9209 40.5635 65.997C40.5263 66.0731 40.521 66.1607 40.549 66.2411C40.5649 66.2864 40.591 66.3278 40.6254 66.362C40.6598 66.3962 40.7015 66.4222 40.7474 66.4376L42.1846 67.2609C42.3468 67.3428 42.5263 67.3856 42.7083 67.3856C42.8903 67.3856 43.0698 67.3428 43.2321 67.2609L44.6692 66.4405C44.7092 66.4275 44.7462 66.4068 44.778 66.3793C44.8099 66.3519 44.836 66.3186 44.8549 66.2811C44.8738 66.244 44.885 66.2031 44.888 66.1612C44.891 66.1198 44.8856 66.0779 44.8724 66.0379C44.8568 65.9917 44.8308 65.9493 44.7962 65.9147C44.7615 65.88 44.7193 65.8535 44.6728 65.8377L43.2356 65.0105C43.0725 64.9286 42.8925 64.8862 42.7099 64.8867C42.5274 64.8867 42.3474 64.9296 42.1846 65.0114Z" fill="white"/>
<path fill-rule="evenodd" clip-rule="evenodd" d="M41.1387 66.1395L42.4123 66.8748C42.505 66.9166 42.6057 66.9378 42.7075 66.9378C42.8093 66.9378 42.91 66.9166 43.0027 66.8748L44.2764 66.1453L43.0027 65.4091C42.91 65.3672 42.8093 65.3456 42.7075 65.3456C42.6057 65.3456 42.505 65.3672 42.4123 65.4091L41.1387 66.1395ZM42.7045 67.8445C42.4426 67.8478 42.184 67.7852 41.9529 67.6629L40.5151 66.8353C40.3296 66.7491 40.1863 66.5936 40.1165 66.4024C40.0467 66.2113 40.0563 66.0004 40.1431 65.8165C40.2198 65.6542 40.3514 65.5232 40.5151 65.4472L41.9529 64.62C42.1865 64.4996 42.4457 64.4375 42.7087 64.4375C42.9717 64.4375 43.2309 64.4996 43.4645 64.62L44.9017 65.4472C45.0872 65.5334 45.2305 65.6893 45.3003 65.8805C45.37 66.0716 45.3605 66.2821 45.2737 66.4665C45.197 66.6287 45.0654 66.7592 44.9017 66.8353L43.4604 67.6629C43.2277 67.7857 42.9681 67.8483 42.7045 67.8445Z" fill="#4069FA"/>
<path fill-rule="evenodd" clip-rule="evenodd" d="M39.6965 61.1764L41.1342 60.3497C41.198 60.3295 41.2536 60.2895 41.293 60.2356C41.3325 60.1822 41.3538 60.1176 41.3538 60.0512C41.3538 59.9847 41.3325 59.9197 41.293 59.8663C41.2536 59.8124 41.198 59.7729 41.1342 59.7527L39.6965 58.9289C39.5348 58.8456 39.3552 58.8017 39.1729 58.8008C38.9906 58.8003 38.8108 58.8427 38.6484 58.925L37.2112 59.7483C37.1713 59.7613 37.1344 59.7825 37.1026 59.81C37.0708 59.8369 37.0448 59.8702 37.026 59.9077C37.0072 59.9448 36.9959 59.9857 36.993 60.0271C36.99 60.069 36.9954 60.1109 37.0087 60.1504C37.0243 60.1971 37.0507 60.2399 37.0859 60.2751C37.121 60.3097 37.1639 60.3362 37.2112 60.3521L38.6449 61.1788C38.808 61.2602 38.9882 61.3026 39.1709 61.3026C39.3536 61.3021 39.5337 61.2587 39.6965 61.1764Z" fill="white"/>
<path fill-rule="evenodd" clip-rule="evenodd" d="M37.6058 60.0463L38.883 60.7834C38.9757 60.8253 39.0764 60.847 39.1782 60.847C39.2801 60.847 39.3807 60.8253 39.4734 60.7834L40.7477 60.0535L39.4734 59.3192C39.3803 59.2788 39.2798 59.2581 39.1782 59.2581C39.0766 59.2581 38.9762 59.2788 38.883 59.3192L37.6093 60.0492L37.6058 60.0463ZM39.702 61.1744L39.1759 61.7512C38.9137 61.756 38.6547 61.6934 38.4242 61.5692L36.9828 60.742C36.891 60.6992 36.8086 60.6385 36.7402 60.5639C36.6719 60.4897 36.6191 60.4026 36.5847 60.3077C36.5503 60.2129 36.5351 60.1122 36.5399 60.0116C36.5447 59.911 36.5694 59.8123 36.6127 59.7213C36.6892 59.5595 36.8201 59.4295 36.9828 59.3539L38.4242 58.5262C38.657 58.4059 38.9159 58.3433 39.1784 58.3438C39.441 58.3447 39.6994 58.4087 39.9316 58.5301L41.3689 59.3539C41.4609 59.3953 41.5437 59.4545 41.6125 59.5282C41.6814 59.6014 41.735 59.6876 41.7701 59.7819C41.8053 59.8758 41.8214 59.976 41.8175 60.0761C41.8136 60.1768 41.7898 60.275 41.7473 60.3665C41.6707 60.5326 41.5363 60.6659 41.3689 60.742L39.9316 61.5692C39.6997 61.6944 39.4391 61.757 39.1753 61.7517L39.702 61.1744Z" fill="#4069FA"/>
<path fill-rule="evenodd" clip-rule="evenodd" d="M43.2411 59.1466L44.6783 58.3233C44.7183 58.3103 44.7552 58.2891 44.7871 58.2621C44.819 58.2347 44.8451 58.201 44.864 58.1639C44.8828 58.1263 44.8941 58.0859 44.8971 58.044C44.9001 58.0021 44.8948 57.9602 44.8814 57.9208C44.8659 57.8745 44.8398 57.8322 44.8052 57.7975C44.7706 57.7628 44.7284 57.7363 44.6819 57.7205L43.2441 56.8928C43.0808 56.8119 42.9008 56.7695 42.7183 56.7695C42.5357 56.7695 42.3557 56.8119 42.1924 56.8928L40.7547 57.7205C40.6909 57.7407 40.6354 57.7806 40.5959 57.8341C40.5565 57.8875 40.5352 57.9525 40.5352 58.019C40.5352 58.0854 40.5565 58.1499 40.5959 58.2039C40.6354 58.2573 40.6909 58.2973 40.7547 58.3175L42.1924 59.1447C42.3547 59.227 42.5343 59.2703 42.7166 59.2708C42.8989 59.2708 43.0785 59.2285 43.2411 59.1466Z" fill="white"/>
<path fill-rule="evenodd" clip-rule="evenodd" d="M41.1462 58.0145L42.4198 58.7488C42.5125 58.7907 42.6132 58.8119 42.715 58.8119C42.8168 58.8119 42.9175 58.7907 43.0102 58.7488L44.2885 58.0189L43.0143 57.2841C42.9204 57.2427 42.8189 57.2215 42.7161 57.2215C42.6135 57.2215 42.5119 57.2427 42.418 57.2841L41.1444 58.0145H41.1462ZM43.2422 59.1426L42.7161 59.7228C42.4536 59.7267 42.1946 59.6626 41.9645 59.537L40.5273 58.7098C40.4352 58.6684 40.3523 58.6092 40.2834 58.5355C40.2145 58.4618 40.1609 58.3752 40.1258 58.2813C40.0907 58.1869 40.0747 58.0868 40.0787 57.9861C40.0828 57.886 40.1068 57.7873 40.1494 57.6963C40.226 57.5302 40.3601 57.3973 40.5273 57.3212L41.9645 56.4979C42.1975 56.3761 42.4569 56.3125 42.7202 56.3125C42.9837 56.3125 43.2431 56.3761 43.4761 56.4979L44.9133 57.3212C45.0428 57.3876 45.1522 57.4873 45.2302 57.6096C45.3083 57.7319 45.3521 57.8725 45.3573 58.0174C45.3521 58.1619 45.3078 58.3029 45.2289 58.4248C45.1501 58.5466 45.0396 58.6453 44.9091 58.7098L43.472 59.537C43.2404 59.6631 42.9797 59.7272 42.7156 59.7238L43.2422 59.1426Z" fill="#4069FA"/>
<path fill-rule="evenodd" clip-rule="evenodd" d="M37.596 62.3809L36.1582 63.2042C35.9953 63.2861 35.8152 63.3289 35.6324 63.3289C35.4498 63.3289 35.2696 63.2861 35.1066 63.2042L33.6688 62.3775C33.6293 62.3636 33.593 62.3419 33.5619 62.314C33.5308 62.2861 33.5055 62.2519 33.4876 62.2143C33.4697 62.1768 33.4594 62.1358 33.4574 62.0944C33.4554 62.053 33.4616 62.0111 33.4758 61.9721C33.4917 61.9278 33.5172 61.8879 33.5506 61.8546C33.584 61.8214 33.6244 61.7964 33.6688 61.7805L35.1102 60.9528C35.2724 60.871 35.4518 60.8281 35.6339 60.8281C35.8159 60.8281 35.9955 60.871 36.1577 60.9528L37.5954 61.7805C37.6351 61.794 37.6717 61.8152 37.7031 61.8431C37.7345 61.871 37.7601 61.9042 37.7784 61.9418C37.7967 61.9793 37.8074 62.0203 37.8099 62.0622C37.8123 62.1036 37.8064 62.1455 37.7926 62.1845C37.7769 62.2302 37.7511 62.2711 37.717 62.3053C37.683 62.339 37.6416 62.365 37.596 62.3809Z" fill="white"/>
<path fill-rule="evenodd" clip-rule="evenodd" d="M34.0631 62.0756L35.3373 62.8108C35.43 62.8527 35.5306 62.8744 35.6325 62.8744C35.7343 62.8744 35.835 62.8527 35.9277 62.8108L37.2014 62.0814L35.9277 61.3457C35.8352 61.3033 35.7344 61.2816 35.6325 61.2816C35.5305 61.2816 35.4298 61.3033 35.3373 61.3457L34.0595 62.0761L34.0631 62.0756ZM35.6337 63.7849C35.3702 63.7868 35.1104 63.7227 34.8779 63.5995L33.4401 62.7723C33.3104 62.7058 33.201 62.6062 33.123 62.4839C33.0449 62.3616 33.0011 62.2205 32.9961 62.0761C33.0013 61.9311 33.0456 61.7906 33.1245 61.6687C33.2033 61.5469 33.3138 61.4487 33.4443 61.3837L34.882 60.5604C35.1143 60.4386 35.373 60.375 35.6357 60.375C35.8984 60.375 36.1572 60.4386 36.3895 60.5604L37.8267 61.3837C38.0122 61.4699 38.1555 61.6259 38.2253 61.817C38.295 62.0082 38.2855 62.2191 38.1987 62.403C38.122 62.5653 37.9904 62.6962 37.8267 62.7723L36.3895 63.5995C36.1568 63.7227 35.8974 63.7868 35.6337 63.7849Z" fill="#4069FA"/>
<path fill-rule="evenodd" clip-rule="evenodd" d="M40.7519 61.7801L42.189 60.9567C42.352 60.8749 42.5321 60.832 42.7148 60.832C42.8975 60.832 43.0776 60.8749 43.2406 60.9567L44.6779 61.7801C44.7178 61.7936 44.7545 61.8152 44.7861 61.8427C44.8177 61.8706 44.8434 61.9043 44.8619 61.9423C44.8803 61.9799 44.8911 62.0208 44.8935 62.0627C44.896 62.1046 44.8901 62.1465 44.8762 62.186C44.8603 62.2317 44.8342 62.2731 44.7998 62.3073C44.7655 62.3415 44.7238 62.367 44.6779 62.3829L43.2365 63.2062C43.0742 63.2885 42.8946 63.3309 42.7124 63.3309C42.5303 63.3309 42.3507 63.2885 42.1884 63.2062L40.7513 62.3829C40.6707 62.355 40.6046 62.2967 40.5674 62.2206C40.5302 62.1446 40.525 62.0569 40.5529 61.977C40.5688 61.9313 40.5951 61.8898 40.6295 61.8557C40.664 61.8215 40.7058 61.7955 40.7519 61.7801Z" fill="white"/>
<path fill-rule="evenodd" clip-rule="evenodd" d="M41.142 62.0794L42.4156 62.8089C42.5083 62.8508 42.609 62.872 42.7108 62.872C42.8127 62.872 42.9133 62.8508 43.0061 62.8089L44.2838 62.0794L43.0061 61.349C42.9135 61.3067 42.8127 61.285 42.7108 61.285C42.6089 61.285 42.5082 61.3067 42.4156 61.349L41.142 62.0794ZM42.7155 63.7844C42.4517 63.7887 42.1913 63.7251 41.9598 63.5995L40.522 62.7708C40.4301 62.728 40.3477 62.6673 40.2793 62.5927C40.211 62.5186 40.1582 62.4314 40.1238 62.3366C40.0894 62.2417 40.0742 62.1411 40.079 62.0404C40.0838 61.9398 40.1086 61.8411 40.1518 61.7501C40.2283 61.5883 40.3592 61.4583 40.522 61.3823L41.9633 60.5589C42.1953 60.4381 42.4534 60.375 42.7155 60.375C42.9776 60.375 43.2358 60.4381 43.4678 60.5589L44.9091 61.3866C45.0389 61.4521 45.1485 61.5508 45.2267 61.6721C45.3048 61.7939 45.3484 61.9345 45.3532 62.0785C45.348 62.2234 45.3042 62.364 45.2261 62.4863C45.1481 62.6086 45.0387 62.7083 44.9091 62.7747L43.4678 63.598C43.2375 63.7237 42.9782 63.7882 42.7155 63.7844Z" fill="#4069FA"/>
<path fill-rule="evenodd" clip-rule="evenodd" d="M51.3745 55.6863L52.8119 54.863C52.9747 54.7811 53.1549 54.7383 53.3376 54.7383C53.5202 54.7383 53.7004 54.7811 53.8632 54.863L55.3006 55.6907C55.3402 55.7041 55.3764 55.7258 55.4078 55.7537C55.4388 55.7812 55.4644 55.8149 55.4822 55.8524C55.5006 55.89 55.5107 55.9304 55.5132 55.9718C55.5151 56.0137 55.5093 56.0551 55.4953 56.0941C55.4793 56.1389 55.4537 56.1794 55.4199 56.2131C55.3866 56.2463 55.3455 56.2718 55.3006 56.2877L53.8632 57.111C53.7004 57.1929 53.5202 57.2357 53.3376 57.2357C53.1549 57.2357 52.9747 57.1929 52.8119 57.111L51.3745 56.2877C51.3344 56.2737 51.2977 56.2521 51.2658 56.2237C51.2344 56.1952 51.2088 56.1611 51.1909 56.123C51.1726 56.085 51.1624 56.0436 51.1605 56.0012C51.1586 55.9593 51.1648 55.9169 51.1798 55.8775C51.1958 55.8332 51.2219 55.7932 51.2557 55.7605C51.289 55.7272 51.3301 55.7022 51.3745 55.6863Z" fill="white"/>
<path fill-rule="evenodd" clip-rule="evenodd" d="M51.7693 55.9896L53.0429 56.7195C53.1357 56.7609 53.2362 56.7826 53.3381 56.7826C53.44 56.7826 53.5405 56.7609 53.6333 56.7195L54.9069 55.9896L53.6333 55.2597C53.5405 55.2178 53.44 55.1961 53.3381 55.1961C53.2362 55.1961 53.1357 55.2178 53.0429 55.2597L51.7693 55.9896ZM53.34 57.695C53.0762 57.6993 52.8163 57.6353 52.5849 57.5096L51.147 56.6825C51.0552 56.6396 50.9726 56.5789 50.9045 56.5048C50.8359 56.4302 50.7832 56.343 50.7489 56.2482C50.7146 56.1533 50.6992 56.0527 50.704 55.952C50.7088 55.8514 50.7335 55.7527 50.7769 55.6617C50.8533 55.4999 50.9842 55.3699 51.147 55.2943L52.5883 54.4705C52.8211 54.3487 53.0806 54.2852 53.3439 54.2852C53.6077 54.2852 53.8671 54.3487 54.1 54.4705L55.5335 55.2982C55.6253 55.341 55.7079 55.4012 55.7761 55.4754C55.8442 55.5495 55.8973 55.6367 55.9316 55.731C55.9659 55.8259 55.9814 55.926 55.9766 56.0267C55.9722 56.1273 55.9476 56.2255 55.9046 56.3165C55.8273 56.4797 55.6949 56.6107 55.5301 56.6863L54.0923 57.5096C53.8618 57.6353 53.6019 57.6993 53.3391 57.695H53.34Z" fill="#4069FA"/>
<path fill-rule="evenodd" clip-rule="evenodd" d="M54.9144 57.7214L56.3513 56.8938C56.5146 56.8119 56.6943 56.7695 56.877 56.7695C57.0601 56.7695 57.2398 56.8119 57.4031 56.8938L58.8371 57.7214C58.9178 57.7479 58.9844 57.8052 59.0221 57.8808C59.0603 57.9559 59.0666 58.0435 59.0395 58.1235C59.0241 58.1702 58.9975 58.2125 58.9622 58.2477C58.927 58.2823 58.8844 58.3088 58.8371 58.3242L57.4002 59.1476C57.2369 59.2299 57.0567 59.2728 56.8741 59.2728C56.6914 59.2728 56.5112 59.2299 56.3484 59.1476L54.911 58.3204C54.8714 58.3069 54.8352 58.2862 54.8038 58.2588C54.7724 58.2313 54.7463 58.1981 54.7279 58.1605C54.7096 58.1235 54.6985 58.083 54.696 58.0416C54.6931 58.0002 54.6989 57.9588 54.7125 57.9193C54.7279 57.8731 54.7545 57.8312 54.7898 57.7965C54.8246 57.7623 54.8676 57.7363 54.9144 57.7214Z" fill="white"/>
<path fill-rule="evenodd" clip-rule="evenodd" d="M55.3058 58.0174L56.5794 58.7531C56.6722 58.795 56.7727 58.8167 56.8746 58.8167C56.9766 58.8167 57.0771 58.795 57.1698 58.7531L58.4482 58.0232L57.1742 57.2885C57.08 57.2475 56.9785 57.2264 56.8756 57.2264C56.7732 57.2264 56.6717 57.2475 56.5775 57.2885L55.3039 58.0189L55.3058 58.0174ZM56.8794 59.7228C56.6142 59.7286 56.3523 59.6646 56.1199 59.537L54.6864 58.7103C54.5947 58.6674 54.512 58.6072 54.4439 58.5326C54.3753 58.4585 54.3226 58.3713 54.2883 58.2765C54.2535 58.1821 54.2386 58.0815 54.2429 57.9808C54.2478 57.8802 54.2724 57.7815 54.3154 57.6905C54.3922 57.5287 54.5231 57.3987 54.6864 57.3226L56.1233 56.495C56.3572 56.3751 56.6161 56.3125 56.8794 56.3125C57.1423 56.3125 57.4017 56.3751 57.6351 56.495L59.0686 57.3226C59.1609 57.3641 59.2435 57.4238 59.3126 57.4974C59.3812 57.5706 59.4343 57.6573 59.4696 57.7512C59.5049 57.8455 59.5208 57.9457 59.5165 58.0458C59.5126 58.146 59.4884 58.2447 59.4459 58.3357C59.3696 58.5013 59.2358 58.6342 59.0686 58.7103L57.6317 59.5336C57.4022 59.6617 57.1423 59.7267 56.8794 59.7228Z" fill="#4069FA"/>
<path fill-rule="evenodd" clip-rule="evenodd" d="M46.7836 57.1149L48.2249 56.2873C48.2645 56.2733 48.3008 56.2521 48.332 56.2242C48.3634 56.1967 48.3885 56.163 48.4069 56.1255C48.4248 56.0879 48.4354 56.0475 48.4373 56.0056C48.4397 55.9642 48.4339 55.9228 48.4199 55.8833C48.404 55.839 48.3784 55.7986 48.3446 55.7649C48.3107 55.7312 48.27 55.7061 48.2249 55.6902L46.7877 54.8669C46.6247 54.785 46.4444 54.7422 46.2616 54.7422C46.0788 54.7422 45.8986 54.785 45.7355 54.8669L44.2942 55.6873C44.2137 55.7153 44.1476 55.7735 44.1104 55.8496C44.0732 55.9257 44.0679 56.0133 44.0958 56.0932C44.1118 56.139 44.1379 56.1804 44.1722 56.2146C44.2066 56.2483 44.2483 56.2743 44.2942 56.2901L45.7355 57.1178C45.8981 57.1992 46.0777 57.2416 46.2599 57.2411C46.442 57.2401 46.6215 57.1973 46.7836 57.1149Z" fill="white"/>
<path fill-rule="evenodd" clip-rule="evenodd" d="M44.6842 55.9897L45.9619 56.7239C46.0545 56.7663 46.1552 56.788 46.2572 56.788C46.3591 56.788 46.4598 56.7663 46.5524 56.7239H46.5565L47.8301 55.994L46.5565 55.2597C46.4633 55.2198 46.3628 55.1996 46.2613 55.1996C46.1597 55.1996 46.0593 55.2198 45.966 55.2597L44.6842 55.9897ZM46.2542 57.6989C45.9918 57.7028 45.7327 57.6387 45.5025 57.5136L44.0654 56.6864C43.9348 56.6204 43.8243 56.5212 43.7455 56.3989C43.6667 56.2766 43.6223 56.1351 43.6172 55.9901C43.622 55.8452 43.6662 55.7046 43.7451 55.5828C43.824 55.461 43.9347 55.3623 44.0654 55.2978L45.5025 54.4711C45.7361 54.3507 45.9956 54.2881 46.2588 54.2891C46.5221 54.2896 46.7812 54.3536 47.0141 54.4754L48.4518 55.2987C48.5813 55.3652 48.691 55.4649 48.7688 55.5871C48.847 55.7094 48.8905 55.85 48.8958 55.995C48.8905 56.1394 48.8461 56.28 48.7673 56.4018C48.6886 56.5236 48.5779 56.6219 48.448 56.6869L47.01 57.5145C46.7782 57.6387 46.5178 57.7013 46.2542 57.696V57.6989Z" fill="#4069FA"/>
<path fill-rule="evenodd" clip-rule="evenodd" d="M50.3269 55.0856L51.7638 54.2623C51.8445 54.2343 51.9107 54.1761 51.9479 54.1C51.9851 54.0239 51.9904 53.9358 51.9624 53.8559C51.9464 53.8106 51.9203 53.7692 51.886 53.735C51.8517 53.7009 51.8097 53.6749 51.7638 53.659L50.3269 52.8356C50.1636 52.7538 49.9839 52.7109 49.8008 52.7109C49.6181 52.7109 49.4379 52.7538 49.2751 52.8356L47.838 53.659C47.7985 53.6729 47.7621 53.6941 47.7309 53.722C47.6997 53.75 47.6744 53.7837 47.6563 53.8208C47.6382 53.8583 47.6277 53.8992 47.6255 53.9406C47.6232 53.982 47.6292 54.0239 47.6431 54.0629C47.659 54.1077 47.6847 54.1482 47.7185 54.1814C47.7522 54.2151 47.7931 54.2406 47.838 54.2565L49.2751 55.0837C49.4379 55.166 49.6181 55.2089 49.8008 55.2093C49.9834 55.2093 50.1636 55.167 50.3269 55.0856Z" fill="white"/>
<path fill-rule="evenodd" clip-rule="evenodd" d="M48.2284 53.9555L49.5018 54.6912C49.5945 54.7331 49.6955 54.7547 49.7975 54.7547C49.8989 54.7547 49.9999 54.7331 50.0927 54.6912L51.3667 53.9608L50.0927 53.2255C49.9999 53.1836 49.8989 53.162 49.7975 53.162C49.6955 53.162 49.5945 53.1836 49.5018 53.2255L48.2284 53.9555ZM50.3246 55.0836L49.7984 55.6638C49.5346 55.6681 49.2742 55.6045 49.0428 55.4789L47.6055 54.6512C47.5135 54.6098 47.4306 54.5506 47.3617 54.4769C47.2929 54.4032 47.2393 54.3171 47.2042 54.2232C47.169 54.1288 47.1529 54.0286 47.1568 53.9285C47.1607 53.8283 47.1846 53.7296 47.227 53.6386C47.3037 53.4725 47.438 53.3392 47.6055 53.2631L49.0428 52.4398C49.2757 52.3179 49.5351 52.2539 49.7984 52.2539C50.0617 52.2539 50.3212 52.3179 50.5541 52.4398L51.9919 53.2631C52.0837 53.3059 52.1663 53.3661 52.2345 53.4408C52.3031 53.5154 52.3557 53.6025 52.39 53.6974C52.4243 53.7922 52.4398 53.8929 52.435 53.9935C52.4301 54.0941 52.4055 54.1928 52.362 54.2838C52.2857 54.4451 52.1547 54.5751 51.9919 54.6512L50.5507 55.4789C50.3202 55.6045 50.0613 55.6686 49.7984 55.6652L50.3246 55.0836Z" fill="#4069FA"/>
<path fill-rule="evenodd" clip-rule="evenodd" d="M47.8332 57.7171L49.2706 56.8938C49.4335 56.8119 49.6137 56.7695 49.7963 56.7695C49.9789 56.7695 50.1591 56.8119 50.322 56.8938L51.7598 57.7171C51.8405 57.745 51.9067 57.8033 51.9439 57.8793C51.9811 57.9559 51.9859 58.0435 51.9584 58.1235C51.9424 58.1687 51.9164 58.2101 51.8816 58.2443C51.8473 58.2785 51.8057 58.3045 51.7598 58.3204L50.322 59.1437C50.1591 59.2256 49.9789 59.2679 49.7963 59.2679C49.6137 59.2679 49.4335 59.2256 49.2706 59.1437L47.8332 58.3204C47.7527 58.2925 47.6866 58.2342 47.6494 58.1581C47.6122 58.0816 47.607 57.9939 47.6349 57.914C47.6508 57.8688 47.6769 57.8273 47.7113 57.7932C47.7456 57.759 47.7873 57.733 47.8332 57.7171Z" fill="white"/>
<path fill-rule="evenodd" clip-rule="evenodd" d="M48.2235 58.0174L49.5013 58.7526C49.5946 58.7931 49.6955 58.8133 49.797 58.8128C49.8985 58.8119 49.9989 58.7902 50.0917 58.7488L51.3696 58.0194L50.0917 57.2889C49.9989 57.2471 49.8985 57.2259 49.7965 57.2259C49.6946 57.2259 49.5941 57.2471 49.5013 57.2889L48.2235 58.0194V58.0174ZM49.798 59.7228C49.5337 59.7272 49.2733 59.6631 49.0418 59.537L47.6048 58.7103C47.4192 58.6236 47.2758 58.4676 47.2062 58.2765C47.1365 58.0848 47.1463 57.8739 47.2333 57.69C47.31 57.5278 47.4414 57.3973 47.6048 57.3212L49.0418 56.4979C49.2747 56.3761 49.5342 56.3125 49.7975 56.3125C50.0608 56.3125 50.3198 56.3761 50.5531 56.4979L51.99 57.3251C52.12 57.3905 52.2296 57.4892 52.3079 57.6111C52.3862 57.7329 52.4301 57.873 52.4345 58.0174C52.4292 58.1624 52.3847 58.3034 52.306 58.4257C52.2272 58.548 52.1171 58.6477 51.9866 58.7136L50.5488 59.537C50.3188 59.6626 50.0598 59.7267 49.797 59.7233L49.798 59.7228Z" fill="#4069FA"/>
<path fill-rule="evenodd" clip-rule="evenodd" d="M44.2869 63.8125L52.8075 58.926C52.9703 58.8436 53.1506 58.8008 53.3332 58.8008C53.5163 58.8008 53.6965 58.8436 53.8593 58.926L55.2967 59.7532C55.3774 59.7811 55.4436 59.8393 55.4808 59.9154C55.5175 59.9915 55.5228 60.0796 55.4953 60.1595C55.4793 60.2048 55.4528 60.2462 55.4184 60.2804C55.3841 60.3146 55.3426 60.3406 55.2967 60.3564L46.7763 65.2401C46.6127 65.32 46.4329 65.3614 46.2505 65.3614C46.0682 65.3614 45.8883 65.32 45.7247 65.2401L44.2863 64.412C44.2063 64.385 44.1404 64.3277 44.1031 64.2521C44.0658 64.177 44.0601 64.0903 44.0873 64.0109C44.103 63.9647 44.1292 63.9228 44.1639 63.8886C44.1984 63.8539 44.2405 63.8284 44.2869 63.8125Z" fill="white"/>
<path fill-rule="evenodd" clip-rule="evenodd" d="M44.6846 64.11L45.9588 64.8443C46.0515 64.8862 46.1521 64.9079 46.254 64.9079C46.3558 64.9079 46.4565 64.8862 46.5492 64.8443L54.9068 60.0536L53.6323 59.3164C53.54 59.274 53.4391 59.2524 53.3371 59.2524C53.2352 59.2524 53.1347 59.274 53.0419 59.3164L44.6811 64.1071L44.6846 64.11ZM46.251 65.8154C45.9889 65.8188 45.7302 65.7562 45.4988 65.6339L44.061 64.8063C43.9692 64.7634 43.8867 64.7032 43.8184 64.6286C43.7501 64.554 43.6972 64.4668 43.6629 64.372C43.6285 64.2771 43.6133 64.177 43.618 64.0763C43.6228 63.9752 43.6476 63.8765 43.6909 63.7855C43.7674 63.6242 43.8983 63.4942 44.061 63.4181H44.0646L52.5853 58.5311C52.8182 58.4098 53.0772 58.3467 53.34 58.3477C53.6024 58.3481 53.8613 58.4127 54.0932 58.5354L55.5306 59.3588C55.6229 59.4002 55.7055 59.4599 55.7746 59.5331C55.8432 59.6067 55.8968 59.6929 55.9321 59.7868C55.9674 59.8812 55.9833 59.9813 55.9794 60.0815C55.9756 60.1816 55.9519 60.2803 55.9094 60.3713C55.8326 60.5374 55.6982 60.6708 55.5306 60.7469L47.0063 65.6349C46.7746 65.7572 46.5157 65.8193 46.2534 65.8159L46.251 65.8154Z" fill="#4069FA"/>
<path fill-rule="evenodd" clip-rule="evenodd" d="M63.1508 48.9337L64.5876 48.1101C64.7514 48.03 64.9316 47.9883 65.1138 47.9883C65.2964 47.9883 65.4762 48.03 65.6399 48.1101L67.0778 48.9375C67.1174 48.9515 67.1541 48.9727 67.186 49.0006C67.2174 49.028 67.243 49.0617 67.2614 49.0998C67.2797 49.1373 67.2904 49.1783 67.2928 49.2197C67.2952 49.2616 67.2894 49.3035 67.2754 49.3429C67.2594 49.3892 67.2329 49.431 67.1981 49.4657C67.1628 49.4999 67.1203 49.5259 67.0734 49.5413L65.6399 50.3646C65.4771 50.4465 65.2969 50.4893 65.1138 50.4893C64.9312 50.4893 64.7509 50.4465 64.5876 50.3646L63.1508 49.5413C63.1102 49.5278 63.073 49.5066 63.0411 49.4792C63.0087 49.4517 62.9826 49.418 62.9633 49.38C62.9445 49.3424 62.9334 49.3015 62.9305 49.2592C62.9276 49.2173 62.9329 49.1749 62.9464 49.1349C62.9619 49.0877 62.9889 49.0449 63.0242 49.0102C63.0599 48.9751 63.1029 48.9486 63.1508 48.9337Z" fill="white"/>
<path fill-rule="evenodd" clip-rule="evenodd" d="M63.5404 49.2342L64.8184 49.9642C64.9111 50.0061 65.0116 50.0277 65.1136 50.0277C65.2155 50.0277 65.316 50.0061 65.4088 49.9642L66.6823 49.2342L65.4088 48.4985C65.3155 48.4591 65.215 48.4384 65.1136 48.4384C65.0121 48.4384 64.9116 48.4591 64.8184 48.4985L63.5404 49.2342ZM65.1107 50.9387C64.8474 50.9435 64.5879 50.8775 64.3584 50.749L62.9206 49.9257C62.7906 49.8607 62.6809 49.7619 62.6027 49.6401C62.5244 49.5183 62.4809 49.3777 62.4766 49.2338C62.4819 49.0888 62.5254 48.9482 62.6036 48.8255C62.6814 48.7032 62.7911 48.6035 62.9206 48.5375L64.3618 47.7141C64.5942 47.5915 64.8527 47.5273 65.1155 47.5273C65.3788 47.5273 65.6373 47.5915 65.8692 47.7141L67.3071 48.5375C67.3993 48.5804 67.482 48.6406 67.5506 48.7152C67.6192 48.7898 67.6723 48.877 67.7071 48.9718C67.7414 49.0667 67.7569 49.1673 67.7525 49.2684C67.7477 49.3691 67.723 49.4678 67.68 49.5592C67.6023 49.7234 67.4689 49.8549 67.3032 49.9309L65.8692 50.7514C65.6378 50.8804 65.3764 50.9464 65.1107 50.943V50.9387Z" fill="#4069FA"/>
<path fill-rule="evenodd" clip-rule="evenodd" d="M66.6938 50.9676L68.1312 50.1442C68.2935 50.0624 68.4728 50.0195 68.6549 50.0195C68.8371 50.0195 69.0163 50.0624 69.1787 50.1442L70.6165 50.9719C70.6962 50.9984 70.7619 51.0557 70.7991 51.1308C70.8363 51.2054 70.8421 51.2921 70.8156 51.3715C70.7996 51.4173 70.7735 51.4592 70.7392 51.4933C70.7044 51.5275 70.6624 51.5535 70.6165 51.5689L69.1748 52.3961C69.012 52.4765 68.8327 52.5179 68.6506 52.5175C68.4689 52.5165 68.2897 52.4736 68.1273 52.3923L66.69 51.5689C66.6499 51.555 66.6136 51.5333 66.5822 51.5049C66.5508 51.477 66.5257 51.4433 66.5073 51.4052C66.4895 51.3672 66.4793 51.3263 66.4769 51.2844C66.475 51.243 66.4813 51.2011 66.4957 51.1616C66.5117 51.1163 66.5383 51.0759 66.5726 51.0422C66.6069 51.0085 66.6484 50.983 66.6938 50.9676Z" fill="white"/>
<path fill-rule="evenodd" clip-rule="evenodd" d="M67.0803 51.2699L68.3539 52.0042C68.4472 52.0451 68.5477 52.0663 68.6491 52.0663C68.7511 52.0663 68.8516 52.0451 68.9443 52.0042L70.2184 51.2747L68.9443 50.5361C68.8511 50.4962 68.7511 50.4759 68.6491 50.4759C68.5477 50.4759 68.4472 50.4962 68.3539 50.5361L67.0803 51.2718V51.2699ZM68.651 52.9753C68.3872 52.9792 68.1268 52.9151 67.8949 52.7899L66.4576 51.9666C66.3653 51.9238 66.2827 51.8636 66.2141 51.7889C66.1455 51.7143 66.0923 51.6272 66.058 51.5323C66.0232 51.4375 66.0078 51.3368 66.0126 51.2357C66.0169 51.1351 66.0416 51.0359 66.0851 50.9444C66.1624 50.7807 66.2957 50.6488 66.4619 50.5732L67.8959 49.7499C68.1293 49.6285 68.3887 49.5655 68.652 49.5664C68.9153 49.5669 69.1748 49.6314 69.4077 49.7537L70.8445 50.577C71.0301 50.6632 71.1736 50.8192 71.2431 51.0104C71.3132 51.2015 71.3035 51.4119 71.2165 51.5963C71.1402 51.7586 71.0083 51.8896 70.8445 51.9656L69.4033 52.789C69.1728 52.9137 68.9139 52.9772 68.651 52.9734V52.9753Z" fill="#4069FA"/>
<path fill-rule="evenodd" clip-rule="evenodd" d="M62.0956 48.3356L63.5368 47.508C63.6175 47.4802 63.6832 47.4218 63.7204 47.3457C63.7576 47.2695 63.7629 47.1818 63.7349 47.1019C63.7194 47.0563 63.6933 47.0148 63.6585 46.9808C63.6242 46.9467 63.5827 46.9207 63.5368 46.9049L62.0956 46.0816C61.9332 45.9997 61.7535 45.957 61.5718 45.957C61.3897 45.957 61.2104 45.9997 61.0481 46.0816L59.6103 46.9049C59.5702 46.9181 59.533 46.939 59.5011 46.9664C59.4697 46.9938 59.4436 47.0271 59.4247 47.0644C59.4059 47.1019 59.3943 47.1426 59.3914 47.1843C59.3885 47.226 59.3938 47.2679 59.4069 47.3075C59.4223 47.3538 59.4484 47.396 59.4832 47.4307C59.5175 47.4655 59.5595 47.4919 59.6059 47.508L61.0438 48.3356C61.2075 48.4155 61.3873 48.4569 61.5694 48.4569C61.752 48.4569 61.9318 48.4155 62.0956 48.3356Z" fill="white"/>
<path fill-rule="evenodd" clip-rule="evenodd" d="M59.9984 47.2093L61.2725 47.9442C61.3658 47.985 61.4662 48.0061 61.5677 48.0061C61.6696 48.0061 61.7701 47.985 61.8634 47.9442L63.137 47.214L61.8634 46.4792C61.7706 46.4367 61.6696 46.4148 61.5677 46.4148C61.4658 46.4148 61.3653 46.4367 61.2725 46.4792L59.9951 47.2093H59.9984ZM61.5692 48.9145C61.3063 48.9184 61.0474 48.8544 60.8169 48.7287L59.3757 47.9055C59.1892 47.8187 59.0457 47.6621 58.9756 47.4701C58.9061 47.2782 58.9157 47.0666 59.0032 46.8818C59.08 46.7191 59.2119 46.5884 59.3757 46.512L60.8169 45.6886C61.0493 45.5666 61.3083 45.5032 61.5716 45.5039C61.8344 45.5046 62.0929 45.5694 62.3248 45.6927L63.766 46.516C63.9515 46.6023 64.095 46.758 64.1646 46.9491C64.2347 47.1402 64.225 47.3511 64.138 47.5351C64.0617 47.6976 63.9298 47.8283 63.766 47.9043L62.3248 48.7277C62.0934 48.8524 61.833 48.916 61.5692 48.9116V48.9145Z" fill="#4069FA"/>
<path fill-rule="evenodd" clip-rule="evenodd" d="M59.6066 50.9676L61.0444 50.1442C61.2072 50.0624 61.3875 50.0195 61.5701 50.0195C61.7527 50.0195 61.9329 50.0624 62.0962 50.1442L63.5336 50.9676C63.6143 50.9955 63.6805 51.0538 63.7177 51.1298C63.7549 51.2059 63.7602 51.2935 63.7322 51.3739C63.7162 51.4192 63.6901 51.4606 63.6558 51.4948C63.6215 51.529 63.5795 51.555 63.5336 51.5709L62.0962 52.3942C61.9329 52.476 61.7527 52.5184 61.5701 52.5184C61.3875 52.5184 61.2072 52.476 61.0444 52.3942L59.6066 51.5709C59.5259 51.5429 59.4602 51.4847 59.423 51.4081C59.3858 51.332 59.3805 51.2444 59.408 51.1645C59.424 51.1188 59.4505 51.0778 59.4848 51.0436C59.5191 51.0095 59.5607 50.9835 59.6066 50.9676Z" fill="white"/>
<path fill-rule="evenodd" clip-rule="evenodd" d="M60.0009 51.2694L61.2754 51.9989C61.3677 52.0417 61.4682 52.0638 61.5706 52.0638C61.6725 52.0638 61.773 52.0417 61.8658 51.9989L63.1394 51.2694L61.8658 50.5342C61.7726 50.4942 61.6721 50.4735 61.5706 50.4735C61.4687 50.4735 61.3686 50.4942 61.2754 50.5342L60.0009 51.2694ZM61.5716 52.9748C61.3078 52.9782 61.0474 52.9146 60.815 52.7894L59.3776 51.9661C59.2481 51.8992 59.1389 51.7995 59.0611 51.6772C58.9829 51.5554 58.9389 51.4148 58.9336 51.2699C58.9379 51.125 58.9814 50.9839 59.0592 50.8616C59.1375 50.7393 59.2476 50.6396 59.3776 50.5737L60.8188 49.7503C61.0512 49.6295 61.3097 49.5664 61.5725 49.5664C61.8349 49.5664 62.0939 49.6295 62.3262 49.7503L63.7641 50.578C63.8945 50.6425 64.0047 50.7407 64.0825 50.863C64.1607 50.9849 64.2042 51.1254 64.2081 51.2699C64.2033 51.4153 64.1593 51.5569 64.0805 51.6791C64.0018 51.8019 63.8907 51.9011 63.7597 51.9661L62.3262 52.7894C62.0943 52.9146 61.8339 52.9782 61.5696 52.9743L61.5716 52.9748Z" fill="#4069FA"/>
<path fill-rule="evenodd" clip-rule="evenodd" d="M63.1524 52.9949L64.5902 52.1716C64.7535 52.0897 64.9337 52.0469 65.1163 52.0469C65.299 52.0469 65.4792 52.0897 65.6425 52.1716L67.0755 52.9988C67.3678 53.1649 67.3678 53.4355 67.0755 53.5963L65.6381 54.4235C65.4753 54.5058 65.2951 54.5487 65.1125 54.5487C64.9299 54.5487 64.7496 54.5058 64.5868 54.4235L63.1495 53.5963C63.1098 53.5818 63.0731 53.5597 63.0417 53.5313C63.0108 53.5029 62.9852 53.4687 62.9673 53.4307C62.9494 53.3926 62.9393 53.3512 62.9378 53.3093C62.9359 53.2674 62.9422 53.2255 62.9572 53.1861C62.9731 53.1418 62.9992 53.1018 63.033 53.0686C63.0668 53.0358 63.1074 53.0103 63.1524 52.9949Z" fill="white"/>
<path fill-rule="evenodd" clip-rule="evenodd" d="M63.5388 53.2987L64.8128 54.0339C64.9065 54.0753 65.0085 54.0965 65.1109 54.0965C65.2138 54.0965 65.3153 54.0753 65.409 54.0339L66.6826 53.304L65.409 52.5697C65.3163 52.5278 65.2158 52.5062 65.1138 52.5062C65.0119 52.5062 64.9114 52.5278 64.8186 52.5697L63.5407 53.2992L63.5388 53.2987ZM65.1085 55.0041C64.8466 55.0075 64.5877 54.9449 64.3562 54.8221L62.9184 53.9949C62.7324 53.9082 62.5884 53.7513 62.5188 53.5596C62.4488 53.3675 62.4589 53.1557 62.5459 52.9713C62.6227 52.8085 62.7546 52.6776 62.9184 52.6015L64.3562 51.7777C64.5896 51.6568 64.8491 51.5938 65.1119 51.5938C65.3752 51.5938 65.6346 51.6568 65.868 51.7777L67.301 52.6053C67.4866 52.6915 67.63 52.8475 67.6996 53.0382C67.7692 53.2293 67.76 53.4402 67.673 53.6246C67.5962 53.7869 67.4648 53.9174 67.301 53.9935L65.8632 54.8168C65.6322 54.9434 65.3723 55.0075 65.1085 55.0041Z" fill="#4069FA"/>
<path fill-rule="evenodd" clip-rule="evenodd" d="M55.0155 52.3946L56.4567 51.5708C56.5374 51.5429 56.6036 51.4846 56.6408 51.4081C56.678 51.332 56.6833 51.2444 56.6553 51.1644C56.6393 51.1187 56.6132 51.0778 56.5789 51.0436C56.5441 51.0094 56.5026 50.9834 56.4567 50.9675L55.0155 50.1403C54.8531 50.058 54.6739 50.0156 54.4917 50.0156C54.3096 50.0156 54.1304 50.058 53.968 50.1403L52.5302 50.9637C52.4495 50.9906 52.3833 51.0484 52.3456 51.124C52.3079 51.2001 52.3021 51.2872 52.3297 51.3671C52.3451 51.4134 52.3717 51.4557 52.4065 51.4899C52.4413 51.5246 52.4833 51.5506 52.5302 51.5665L53.968 52.3941C54.1304 52.476 54.3096 52.5188 54.4917 52.5188C54.6739 52.5188 54.8531 52.4765 55.0155 52.3946Z" fill="white"/>
<path fill-rule="evenodd" clip-rule="evenodd" d="M52.9166 51.264L54.1941 51.9992C54.2868 52.0406 54.3878 52.0623 54.4893 52.0623C54.5912 52.0623 54.6917 52.0406 54.7845 51.9992L56.059 51.2688L54.7845 50.5336C54.6917 50.4917 54.5912 50.47 54.4893 50.47C54.3878 50.47 54.2868 50.4917 54.1941 50.5336L52.9166 51.263V51.264ZM55.0125 52.3921L54.4868 52.9685C54.2245 52.9718 53.9651 52.9078 53.7346 52.7826L52.2934 51.9593C52.2016 51.9164 52.119 51.8558 52.0503 51.7816C51.9817 51.707 51.9286 51.6198 51.8938 51.525C51.859 51.4301 51.844 51.329 51.8484 51.2284C51.8532 51.1273 51.8779 51.0286 51.9209 50.9371C51.9982 50.7729 52.132 50.6415 52.2977 50.5654L53.7346 49.7425C53.9675 49.6207 54.2269 49.5576 54.4898 49.5586C54.7526 49.5591 55.0115 49.6236 55.2435 49.7464L56.6847 50.5697C56.7765 50.6126 56.8591 50.6732 56.9272 50.7474C56.9958 50.822 57.0485 50.9092 57.0828 51.004C57.1171 51.0989 57.1326 51.1995 57.1277 51.3001C57.1229 51.4008 57.0983 51.4995 57.0548 51.5905C56.9784 51.7522 56.8475 51.8822 56.6847 51.9578L55.2425 52.785C55.0106 52.9097 54.7506 52.9738 54.4868 52.9699L55.0125 52.3921Z" fill="#4069FA"/>
<path fill-rule="evenodd" clip-rule="evenodd" d="M58.5566 50.3643L59.9983 49.541C60.079 49.5121 60.1452 49.4534 60.1824 49.3763C60.2191 49.2993 60.224 49.2112 60.1955 49.1308C60.179 49.0855 60.153 49.0446 60.1191 49.0104C60.0848 48.9767 60.0438 48.9507 59.9983 48.9348L58.5605 48.1116C58.3972 48.0305 58.217 47.9883 58.0344 47.9883C57.8522 47.9883 57.672 48.0305 57.5087 48.1116L56.0713 48.9348C55.9911 48.9628 55.9249 49.021 55.8877 49.0971C55.8505 49.1736 55.8452 49.2613 55.8732 49.3412C55.8892 49.3865 55.9153 49.4279 55.9496 49.462C55.9839 49.4962 56.0254 49.5222 56.0713 49.5381L57.5087 50.3648C57.6715 50.4452 57.8512 50.4866 58.0329 50.4866C58.2146 50.4866 58.3938 50.4448 58.5566 50.3643Z" fill="white"/>
<path fill-rule="evenodd" clip-rule="evenodd" d="M56.4628 49.2323L57.7364 49.968C57.8291 50.0099 57.9296 50.032 58.0316 50.032C58.1335 50.032 58.2345 50.0099 58.3268 49.968H58.3311L59.6052 49.2376L58.3311 48.5023C58.2384 48.4605 58.1379 48.4393 58.0359 48.4393C57.934 48.4393 57.8335 48.4605 57.7407 48.5023L56.4628 49.2323ZM58.033 50.942C57.7683 50.9464 57.5074 50.8809 57.2774 50.7518L55.84 49.9285C55.7477 49.8871 55.6651 49.8279 55.596 49.7542C55.5274 49.6805 55.4738 49.5943 55.4385 49.5005C55.4037 49.4061 55.3873 49.3059 55.3912 49.2058C55.395 49.1056 55.4192 49.0069 55.4612 48.9159C55.5381 48.7498 55.6724 48.6165 55.84 48.5404L57.2774 47.7169C57.5093 47.5949 57.7683 47.5312 58.0311 47.5312C58.2939 47.5312 58.5529 47.5949 58.7853 47.7169L60.2265 48.5404C60.3183 48.5832 60.4009 48.6434 60.469 48.7181C60.5376 48.7927 60.5903 48.8798 60.6246 48.9747C60.6589 49.0695 60.6744 49.1702 60.6695 49.2708C60.6647 49.3714 60.6401 49.4701 60.5966 49.5611C60.5203 49.7224 60.3893 49.8524 60.2265 49.9285L58.7853 50.7518C58.5558 50.8809 58.2963 50.9464 58.033 50.942Z" fill="#4069FA"/>
<path fill-rule="evenodd" clip-rule="evenodd" d="M56.0729 52.9949L57.5098 52.1716C57.6721 52.0897 57.8518 52.0469 58.0335 52.0469C58.2156 52.0469 58.3949 52.0897 58.5572 52.1716L59.9989 52.9949C60.0791 53.0228 60.1448 53.0811 60.182 53.1572C60.2193 53.2332 60.2246 53.3204 60.1965 53.4003C60.1806 53.4465 60.154 53.4884 60.1188 53.5226C60.084 53.5573 60.0415 53.5833 59.9946 53.5987L58.5567 54.422C58.3939 54.5039 58.2137 54.5462 58.0311 54.5462C57.8485 54.5462 57.6682 54.5039 57.5049 54.422L56.0676 53.5987C56.0275 53.5847 55.9908 53.5635 55.9594 53.5356C55.9279 53.5077 55.9019 53.474 55.8835 53.4364C55.8651 53.3989 55.8545 53.3579 55.8521 53.3161C55.8497 53.2742 55.8555 53.2323 55.8695 53.1928C55.8859 53.1466 55.9125 53.1047 55.9478 53.0705C55.983 53.0358 56.0255 53.0103 56.0729 52.9949Z" fill="white"/>
<path fill-rule="evenodd" clip-rule="evenodd" d="M56.4592 53.3001L57.7333 54.0358C57.8261 54.0772 57.9266 54.0989 58.0285 54.0989C58.1304 54.0989 58.2309 54.0772 58.3237 54.0358L59.5973 53.3001L58.3237 52.5707C58.2314 52.5288 58.1309 52.5066 58.029 52.5057C57.927 52.5052 57.8265 52.5259 57.7333 52.5663L56.4559 53.3006L56.4592 53.3001ZM58.0299 55.0055C57.7662 55.0099 57.5057 54.9458 57.2748 54.8197L55.8369 53.9963C55.7447 53.9535 55.6616 53.8928 55.593 53.8182C55.5244 53.7436 55.4712 53.6559 55.4369 53.5611C55.4021 53.4662 55.3867 53.3651 55.3915 53.264C55.3963 53.1634 55.421 53.0642 55.464 52.9727C55.5413 52.81 55.6727 52.679 55.8369 52.6029H55.8408L57.2782 51.7796C57.5106 51.6578 57.7695 51.5938 58.0324 51.5938C58.2952 51.5938 58.5542 51.6578 58.7866 51.7796L60.2283 52.6068C60.3577 52.6718 60.4674 52.7705 60.5447 52.8923C60.6225 53.0146 60.665 53.1547 60.6684 53.2992C60.6641 53.4436 60.6206 53.5847 60.5423 53.7075C60.464 53.8297 60.3544 53.9294 60.2244 53.9954L58.7875 54.8187C58.5551 54.9449 58.2942 55.0094 58.0299 55.0055Z" fill="#4069FA"/>
<path fill-rule="evenodd" clip-rule="evenodd" d="M59.605 55.0262L61.0428 54.2028C61.2056 54.121 61.3859 54.0781 61.5685 54.0781C61.7511 54.0781 61.9313 54.121 62.0942 54.2028L63.532 55.0305C63.6117 55.0584 63.6769 55.1162 63.7137 55.1918C63.7499 55.2674 63.7547 55.354 63.7272 55.433C63.7108 55.4783 63.6847 55.5192 63.6504 55.5529C63.6161 55.5866 63.5745 55.6121 63.5286 55.6275L62.0942 56.4552C61.9308 56.537 61.7501 56.5799 61.5666 56.5799C61.3834 56.5799 61.2027 56.537 61.039 56.4552L59.605 55.6275C59.5649 55.6136 59.5282 55.5919 59.4968 55.5635C59.4649 55.5351 59.4397 55.5009 59.4214 55.4629C59.4035 55.4248 59.3929 55.3834 59.3909 55.3411C59.389 55.2992 59.3958 55.2568 59.4103 55.2173C59.4262 55.173 59.4523 55.1331 59.4861 55.1003C59.5195 55.0671 59.5605 55.0421 59.605 55.0262Z" fill="white"/>
<path fill-rule="evenodd" clip-rule="evenodd" d="M59.997 55.3295L61.2749 56.0652C61.3677 56.1066 61.4682 56.1283 61.5701 56.1283C61.6721 56.1283 61.7726 56.1066 61.8653 56.0652L63.1389 55.3353L61.8653 54.6005C61.7726 54.5586 61.6721 54.537 61.5701 54.537C61.4682 54.537 61.3677 54.5586 61.2749 54.6005L59.997 55.3305V55.3295ZM61.5672 57.0388C61.3044 57.0436 61.0445 56.9781 60.8154 56.8495L59.3781 56.0262C59.2481 55.9612 59.138 55.8625 59.0597 55.7407C58.9819 55.6189 58.9379 55.4788 58.9336 55.3343C58.9384 55.1894 58.9819 55.0483 59.0602 54.926C59.138 54.8032 59.2481 54.7041 59.3781 54.6381L60.8193 53.8148C61.0512 53.6929 61.3102 53.6289 61.573 53.6289C61.8354 53.6289 62.0943 53.6929 62.3267 53.8148L63.7646 54.6381C63.8941 54.7045 64.0032 54.8042 64.0815 54.9265C64.1593 55.0488 64.2033 55.1894 64.2086 55.3343C64.2038 55.4788 64.1598 55.6198 64.0805 55.7416C64.0018 55.8635 63.8912 55.9617 63.7602 56.0262L62.3267 56.8495C62.0943 56.9781 61.833 57.0436 61.5672 57.0388Z" fill="#4069FA"/>
<path fill-rule="evenodd" clip-rule="evenodd" d="M49.7554 77.0827V75.3575H49.7273C48.8427 75.3994 47.9628 75.2049 47.1796 74.7937L27.4227 63.4534C27.1998 63.3426 27.001 63.1895 26.838 63.0022C26.6749 62.8154 26.5508 62.5982 26.4727 62.3633V64.0884C26.5506 64.3239 26.6746 64.542 26.8377 64.7298C27.0007 64.9175 27.1995 65.0711 27.4227 65.1824L47.1796 76.5232C47.9629 76.9334 48.8427 77.1274 49.7273 77.0841L49.7554 77.0827Z" fill="#4069FA"/>
<path fill-rule="evenodd" clip-rule="evenodd" d="M26.9292 64.0176C27.0638 64.358 27.3242 64.6344 27.6572 64.7909L47.4058 76.1273C47.9866 76.4369 48.6327 76.6064 49.2917 76.6223V75.8019C48.4742 75.7855 47.6719 75.576 46.9518 75.1909L27.1878 63.8443C27.1022 63.7903 27.0107 63.7359 26.9268 63.6743V64.0142L26.9292 64.0176ZM49.7517 77.086L49.6309 77.5424C48.6998 77.5723 47.7771 77.358 46.9565 76.9203L27.1926 65.5728C26.6415 65.2897 26.2255 64.8019 26.0352 64.216C26.0212 64.175 26.0146 64.1317 26.0158 64.0889V62.3632C26.016 62.2429 26.0645 62.1278 26.1504 62.0426C26.2363 61.9578 26.3527 61.9102 26.4739 61.9102C26.5724 61.9106 26.6683 61.9424 26.7471 62.0012C26.8259 62.0594 26.8836 62.1418 26.9115 62.2356C26.9727 62.4167 27.0708 62.5838 27.1994 62.7263C27.3281 62.8683 27.4847 62.9829 27.6596 63.0633L47.4082 74.3998C48.1182 74.7753 48.9192 74.9496 49.7222 74.9025C49.8468 74.9087 49.9657 74.9549 50.0614 75.0349C50.1068 75.0763 50.143 75.1263 50.1686 75.1822C50.1942 75.238 50.2078 75.2982 50.2092 75.3594V77.085C50.2102 77.2015 50.1652 77.3137 50.085 77.3989C50.0043 77.4837 49.8937 77.5347 49.7768 77.5415H49.6304L49.7517 77.086Z" fill="#4069FA"/>
<path d="M54.1699 38.5304C54.1017 38.5304 54.0326 38.5155 53.9708 38.4844C53.835 38.4166 53.7418 38.2855 53.7244 38.136C53.5476 36.6512 53.0079 35.4505 52.1634 34.6672C51.9933 34.5096 51.9711 34.2497 52.1126 34.0657L54.997 30.3187C55.0762 30.2163 55.1961 30.1519 55.3251 30.145C55.4502 30.1392 55.5802 30.1853 55.671 30.2773C57.0151 31.6332 57.8297 33.6252 58.0287 36.0382C58.0423 36.2095 57.9572 36.374 57.8099 36.4614L54.3974 38.4706C54.3274 38.5121 54.2491 38.5327 54.1699 38.5327V38.5304ZM53.062 34.3015C53.7742 35.0836 54.2665 36.1255 54.5105 37.3619L57.1084 35.8311C56.9127 33.976 56.3213 32.4211 55.3792 31.2882L53.0606 34.3003L53.062 34.3015Z" fill="#4069FA"/>
<path d="M36.0293 41.7433L38.9422 42.1447C38.0058 44.0872 37.3845 46.1482 37.2326 48.0781L33.8203 50.1069C33.9698 47.3765 34.7637 44.4955 36.0281 41.7422L36.0293 41.7433Z" fill="#4069FA"/>
<path d="M33.8195 50.554C33.7389 50.554 33.6584 50.5324 33.5871 50.4895C33.4456 50.4033 33.3616 50.2469 33.372 50.0812C33.5204 47.3809 34.2981 44.432 35.6211 41.5544C35.704 41.375 35.8869 41.2681 36.0894 41.298L39.0024 41.6994C39.144 41.7189 39.2682 41.8051 39.336 41.9317C39.4039 42.0582 39.4074 42.2089 39.3453 42.3388C38.3973 44.3055 37.822 46.3021 37.6782 48.1124C37.6667 48.2574 37.5862 48.3883 37.4608 48.462L34.0485 50.491C33.9771 50.5333 33.8989 50.554 33.8195 50.554ZM36.2988 42.2307C35.2403 44.608 34.5685 47.0209 34.3349 49.2776L36.805 47.8087C36.9684 46.125 37.4746 44.3066 38.2788 42.5044L36.2988 42.2318V42.2307Z" fill="#4069FA"/>
<path d="M38.9397 42.5938C38.9201 42.5938 38.8994 42.5927 38.8787 42.5892L35.9657 42.1878C35.8241 42.1682 35.7022 42.0832 35.6332 41.9589C35.5653 41.8347 35.5596 41.6852 35.6194 41.5553C37.9054 36.6029 41.5789 32.313 45.448 30.0795C45.586 30.0001 45.7574 29.999 45.8955 30.0795C46.0347 30.16 46.1198 30.3072 46.121 30.467L46.1325 34.3866C46.1325 34.5476 46.0474 34.696 45.9082 34.7765C43.3541 36.2498 40.9001 39.0767 39.3446 42.3385C39.2698 42.496 39.1111 42.5938 38.9397 42.5938ZM36.6939 41.3839L38.6785 41.6576C40.288 38.4132 42.6557 35.6966 45.234 34.1336L45.2259 31.2675C41.901 33.4125 38.7763 37.1136 36.6939 41.3839Z" fill="#4069FA"/>
<path d="M45.673 30.4669C49.6424 28.1759 53.165 28.4059 55.3507 30.5899L52.4668 34.337C50.8928 32.9017 48.4514 32.789 45.6834 34.3865L45.6719 30.4669H45.673Z" fill="#4069FA"/>
<path d="M45.6868 34.8348C45.6096 34.8348 45.5326 34.8152 45.4635 34.7749C45.3243 34.6944 45.2392 34.5472 45.2381 34.3874L45.2266 30.4678C45.2266 30.3068 45.3117 30.1584 45.4509 30.0779C49.4295 27.7834 53.2502 27.8536 55.6708 30.2722C55.8307 30.431 55.8466 30.684 55.7099 30.8623L52.8255 34.6093C52.7482 34.7082 52.6347 34.7715 52.5091 34.783C52.3839 34.7956 52.2607 34.7519 52.1675 34.668C50.6717 33.3051 48.3917 33.3419 45.9099 34.7738C45.8409 34.8141 45.7627 34.8336 45.6856 34.8336L45.6868 34.8348ZM49.5005 32.7703C50.5823 32.7703 51.5669 33.0797 52.3975 33.6973L54.7504 30.6391C52.6458 28.8047 49.5372 28.8323 46.1239 30.7277L46.1331 33.6398C47.3124 33.0601 48.4526 32.7703 49.5005 32.7703Z" fill="#4069FA"/>
<path d="M44.2841 48.3769C43.9171 48.3769 43.5743 48.2893 43.2705 48.1123C42.5619 47.7029 42.1719 46.8852 42.1719 45.8087C42.1719 43.7224 43.5892 41.2715 45.3978 40.2295C45.7717 40.0018 46.1617 39.8545 46.546 39.7947C46.5989 39.7855 46.6518 39.7878 46.7059 39.7994L47.991 40.0685C48.0554 40.0823 48.1164 40.1099 48.1694 40.149C48.7505 40.5872 49.0704 41.367 49.0704 42.3434C49.0829 44.3756 47.6482 46.869 45.8706 47.8972C45.3184 48.2146 44.78 48.3759 44.2841 48.3759V48.3769ZM46.6047 40.6953C46.3607 40.7436 46.1077 40.846 45.8534 41.0012C44.3129 41.8891 43.0681 44.0432 43.0681 45.8087C43.0681 46.5505 43.2993 47.0933 43.7192 47.336C44.1495 47.5844 44.7547 47.5073 45.422 47.1221C46.9245 46.2526 48.1854 44.0651 48.1739 42.3468C48.1739 41.7028 48.0071 41.2036 47.6999 40.9241L46.6058 40.6953H46.6047Z" fill="#4069FA"/>
<path d="M49.7332 35.5586L48.1157 40.243L46.7524 43.6335C46.5453 44.1464 46.1806 44.5708 45.8091 44.7847C45.5743 44.9205 45.3373 44.9722 45.136 44.9101C44.616 44.7514 44.5734 43.8796 45.0313 43.0883L46.6109 40.3476C46.7547 40.0969 46.9066 39.852 47.0654 39.6104L49.7332 35.5597V35.5586Z" fill="#4069FA"/>
<path d="M45.3142 45.3852C45.2084 45.3852 45.1048 45.3703 45.0047 45.3404C44.7125 45.2506 44.4858 45.0333 44.365 44.7273C44.1649 44.219 44.2718 43.5059 44.6423 42.8653L46.2208 40.1246C46.3703 39.867 46.5268 39.6128 46.689 39.3656L49.3569 35.3149C49.4811 35.1263 49.7284 35.0595 49.9299 35.1596C50.1338 35.2596 50.229 35.4943 50.1555 35.7082L48.5365 40.3915L47.1665 43.8027C46.9295 44.388 46.5049 44.901 46.031 45.1747C45.787 45.315 45.5443 45.3863 45.3131 45.3863L45.3142 45.3852ZM48.1432 38.7882L47.4391 39.8578C47.285 40.0913 47.1377 40.3305 46.9974 40.5732L45.4189 43.3139C45.1542 43.7716 45.1197 44.1971 45.1991 44.3996C45.2279 44.472 45.2555 44.4801 45.267 44.4835C45.3222 44.4996 45.4338 44.4835 45.5845 44.3984C45.8871 44.2247 46.1747 43.8671 46.3358 43.4668L47.698 40.0774L48.1432 38.7882Z" fill="#4069FA"/>
</g>
<defs>
<clipPath id="clip0_9_82996">
<rect width="86" height="78" fill="white"/>
</clipPath>
</defs>
</svg>
