<svg width="42" height="60" viewBox="0 0 42 60" fill="none" xmlns="http://www.w3.org/2000/svg">
<g clip-path="url(#clip0_9_83087)">
<path d="M36.1784 0.579836L40.9937 3.35833C41.0928 3.42693 41.1718 3.52078 41.2225 3.63015C41.2732 3.73953 41.2937 3.86044 41.2819 3.98039V28.3884C41.2819 39.7097 24.5529 58.1245 23.8381 58.9057C23.7262 59.029 23.5968 59.1351 23.454 59.2212C23.3386 59.2923 23.2077 59.3357 23.0722 59.3462C22.6096 59.3745 15.3835 59.7579 10.3781 56.9162V56.9201L5.50155 54.1061C4.0534 53.3584 2.84512 52.2185 2.01496 50.8167C1.18481 49.4149 0.766393 47.8079 0.807442 46.1796V21.7716C0.838351 21.4381 0.944285 21.1158 1.11748 20.829C1.29067 20.5423 1.52658 20.2984 1.80748 20.1156C8.4867 16.265 14.7127 10.8118 18.0609 5.88266C18.3996 5.38511 18.8715 5.11513 19.2138 5.22024C22.5563 6.28366 28.7801 4.55569 35.5119 0.670564C35.6038 0.593003 35.7161 0.543647 35.8354 0.528445C35.9547 0.513242 36.0758 0.532828 36.1842 0.584869L36.1784 0.579836Z" fill="white"/>
<path d="M1.79975 20.1079C8.47899 16.2574 14.705 10.8041 18.0532 5.87498C18.3919 5.37744 18.8638 5.10743 19.206 5.21256C22.5485 6.27598 28.7725 4.54799 35.505 0.662873C35.5968 0.585234 35.7091 0.535829 35.8284 0.520624C35.9477 0.505419 36.0688 0.525071 36.1772 0.577206L40.9917 3.35569C40.8839 3.30539 40.7639 3.287 40.6459 3.30269C40.5279 3.31838 40.4168 3.36749 40.3259 3.44424C33.5905 7.33226 27.371 9.06026 24.0257 7.9932C23.6856 7.88664 23.2114 8.15953 22.8728 8.65631C19.5252 13.5848 13.2999 19.038 6.61928 22.89C6.33788 23.072 6.10174 23.3158 5.92865 23.6028C5.75562 23.8897 5.65024 24.2123 5.62067 24.546V48.954C5.58016 50.5943 6.00536 52.2125 6.84691 53.6214C7.68851 55.0302 8.91203 56.1719 10.3761 56.9153H10.3697L5.49383 54.102C4.04567 53.3544 2.83739 52.2144 2.00724 50.8126C1.17709 49.4109 0.75858 47.8039 0.799629 46.1755V21.7654C0.830433 21.4316 0.936477 21.1091 1.10967 20.8221C1.28286 20.5351 1.51875 20.2909 1.79975 20.1079Z" fill="#4069FA"/>
<path d="M21.8184 59.7705C22.5541 59.7705 23.0189 59.7444 23.0923 59.7389C23.2907 59.7244 23.4826 59.6628 23.6522 59.5589C23.828 59.4539 23.9875 59.3239 24.1255 59.1728C24.846 58.3872 41.6781 39.864 41.6767 28.3843V3.9763C41.6898 3.78661 41.6518 3.59688 41.5665 3.42692C41.4812 3.25695 41.3518 3.11298 41.1918 3.01005L36.3766 0.231587L36.352 0.218623C36.1814 0.136043 35.9911 0.102866 35.8027 0.122844C35.6142 0.142824 35.4351 0.215149 35.2857 0.331651C28.6943 4.13397 22.57 5.86272 19.3276 4.8331C19.0085 4.78564 18.6826 4.83896 18.3953 4.98559C18.108 5.13223 17.8738 5.36486 17.7252 5.651C14.4072 10.5348 8.22802 15.9427 1.60138 19.763C1.25978 19.9803 0.973519 20.2742 0.765287 20.6212C0.557056 20.9683 0.432555 21.359 0.401686 21.7624V46.1741C0.356239 47.8674 0.788465 49.5394 1.64887 50.9991C2.50928 52.4587 3.7632 53.6469 5.26739 54.4282L5.29474 54.4454L10.1706 57.2594C10.1898 57.27 10.2097 57.2794 10.2303 57.2872C14.1564 59.4933 19.4205 59.7705 21.8184 59.7705ZM35.9983 0.934294L40.7934 3.70127C40.8366 3.72647 40.8812 3.82223 40.8805 3.97775V28.3857C40.8805 39.5602 24.2488 57.8617 23.5391 58.635C23.4551 58.7283 23.358 58.8094 23.2508 58.875C23.1885 58.9144 23.118 58.9389 23.0447 58.9467C22.7385 58.9655 15.4995 59.3667 10.5704 56.5711C10.5533 56.5611 10.5355 56.5522 10.5171 56.545L5.722 53.7773L5.69398 53.7593C4.3072 53.0457 3.14989 51.9558 2.35488 50.6148C1.55987 49.2737 1.15934 47.7358 1.19934 46.1777V21.7697C1.23022 21.5058 1.31795 21.2518 1.45652 21.0251C1.59509 20.7983 1.7812 20.6043 2.00201 20.4564C8.72445 16.5799 15.0031 11.0806 18.3837 6.10389C18.646 5.718 18.9674 5.56028 19.0877 5.59989C22.5347 6.69644 28.9019 4.93966 35.7035 1.01493C35.8477 0.920617 35.9406 0.906933 35.9737 0.927811C35.9818 0.929511 35.9905 0.931678 35.9983 0.934294Z" fill="#4069FA"/>
<path d="M23.4548 37.7245L34.267 18.8605L32.8043 18.0195L23.4541 34.3635L17.6899 31.0436L16.2266 33.5715L23.4548 37.7245Z" fill="#4069FA"/>
</g>
<defs>
<clipPath id="clip0_9_83087">
<rect width="42" height="60" fill="white"/>
</clipPath>
</defs>
</svg>
