<svg width="124" height="140" viewBox="0 0 124 140" fill="none" xmlns="http://www.w3.org/2000/svg">
<path d="M118.096 40.1525C114.479 38.0455 109.438 38.3293 103.884 41.5489C92.8619 47.9279 83.9185 63.3648 83.9756 76.0674C83.9756 82.363 86.197 86.8064 89.7855 88.884L85.5419 86.4072C81.9533 84.3281 79.7316 79.8847 79.7032 73.5906C79.6748 60.9158 88.5895 45.4496 99.6403 39.0706C105.194 35.8804 110.236 35.5676 113.852 37.7035L118.096 40.1525Z" fill="#D4DBE9"/>
<path d="M103.905 41.5569C101.523 42.9321 99.2461 44.7527 97.125 46.8625L122.75 61.7526C123.553 58.7847 124.006 55.8198 124.006 52.9939C123.979 40.2747 114.976 35.1695 103.905 41.5569Z" fill="#678CC8"/>
<path d="M83.9612 76.1325C83.9875 82.8316 86.5 87.4118 90.4521 89.3237C94.0377 91.05 98.8012 90.6053 104.036 87.569C105.109 86.9669 106.13 86.2604 107.15 85.4757C107.621 85.1356 108.092 84.7689 108.537 84.3764C108.799 84.1402 109.087 83.9051 109.349 83.67C110.501 82.6487 111.6 81.5497 112.646 80.3458C112.882 80.0837 113.118 79.822 113.353 79.5344C114.269 78.4609 115.133 77.3362 115.944 76.1581C116.965 74.719 117.881 73.2009 118.745 71.6569C120.481 68.476 121.841 65.1124 122.75 61.754L97.1248 46.8633C89.4366 54.5068 83.9203 66.1618 83.9612 76.1325Z" fill="#86AEDC"/>
<path d="M113.624 79.2194C113.545 79.3243 113.441 79.429 113.362 79.5339C113.127 79.8215 112.891 80.0833 112.655 80.3453C111.608 81.5492 110.509 82.6482 109.358 83.6695L108.808 84.1397C107.055 80.3186 104.699 75.8955 102.186 73.2526C97.4752 68.3311 98.4437 68.6457 99.3597 66.9716L100.851 65.8981L112.132 61.8672C113.388 66.5779 113.99 72.7033 113.624 79.2194Z" fill="#86AEDC"/>
<path d="M118.746 71.6564C117.882 73.2004 116.966 74.7185 115.945 76.1575C115.134 77.3356 114.27 78.4604 113.354 79.5339C113.119 79.8214 112.883 80.0832 112.647 80.3453C111.6 81.5492 110.501 82.6481 109.35 83.6694C109.088 83.9045 108.8 84.1396 108.538 84.3759C108.093 84.7684 107.622 85.1351 107.151 85.4751C106.131 86.2599 105.11 86.9663 104.037 87.5684C98.8021 90.6047 94.0386 91.0494 90.453 89.3231C90.4005 84.6113 90.453 79.769 90.453 79.769C90.453 72.7812 94.6407 70.3734 94.6407 70.3734L98.8021 67.3637L100.844 65.898L110.344 62.4959L111.313 62.1547L112.124 61.8671C116.181 61.1604 117.987 66.2123 118.746 71.6564Z" fill="#384052"/>
<path d="M113.616 79.2194C113.537 79.3243 113.433 79.429 113.354 79.5339C113.119 79.8215 112.883 80.0833 112.647 80.3453C111.601 81.5492 110.502 82.6482 109.35 83.6695L108.8 84.1397C107.047 80.3186 104.691 75.8955 102.178 73.2526C97.4673 68.3311 98.4359 68.6457 99.3519 66.9716L100.844 65.8981L112.124 61.8672C113.381 66.5779 113.982 72.7033 113.616 79.2194Z" fill="white"/>
<path d="M100.836 62.0823V65.912C100.836 65.912 102.653 68.7285 108.042 69.4307C108.538 69.495 110.901 69.6139 111.234 69.2408C112.006 68.3769 111.586 66.3787 111.233 62.1831V59.6211L100.836 62.0823Z" fill="#F7C9A4"/>
<path d="M112.641 80.345C111.594 81.5489 110.495 82.6479 109.344 83.6692C109.082 83.9043 108.794 84.1394 108.532 84.3757L108.428 84.1139L108.166 80.5546L107.616 73.1477L108.009 72.1789L106.281 71.2625C106.648 70.3731 107.25 69.4043 108.035 69.0391C109.03 69.1426 109.815 69.7713 110.05 70.3731L109.108 71.9962L109.893 72.6235C110.757 74.6389 111.804 77.4134 112.641 80.345Z" fill="#ED5E72"/>
<path d="M110.243 71.4391C110.243 71.4391 109.631 69.5284 108.047 69.0484C108.047 69.0484 111.277 65.3616 110.389 62.9375L112.103 64.2924C112.103 64.2924 113.075 67.4551 110.243 71.4391Z" fill="#E3E6F0"/>
<path d="M115.946 76.1573C115.135 77.3354 114.271 78.4602 113.355 79.5336C113.774 73.1207 113.381 65.8709 110.109 62.7566C110.109 62.7566 110.188 62.6261 110.345 62.4957C110.554 62.3374 110.868 62.129 111.313 62.1545C112.099 62.1814 113.276 62.8882 114.82 65.6882L113.59 67.7035L115.606 67.6256C115.606 67.6256 116.286 71.1324 115.946 76.1573Z" fill="#282E3A"/>
<path d="M112.64 51.5982C112.64 51.5982 114.747 64.0243 109.752 65.9533C104.757 67.8825 99.1199 62.89 98.0375 57.6308C96.9553 52.3719 108.959 47.091 112.64 51.5982Z" fill="#F8D5B4"/>
<path d="M100.842 65.9102C99.8672 66.2725 99.553 68.4739 100.424 69.2117C102.624 71.0748 107.18 72.1837 107.18 72.1837C107.396 70.6235 108.048 69.0468 108.048 69.0468C101.856 67.3431 100.842 65.9102 100.842 65.9102Z" fill="#E3E6F0"/>
<path d="M109.348 83.6692C109.087 83.9043 108.799 84.1394 108.537 84.3756C108.092 84.7681 107.621 85.1349 107.15 85.4749C103.538 80.3705 101.392 76.3669 101.392 76.3669L102.203 73.5399L100.423 75.1105C100.423 75.1105 99.3244 73.9846 98.7223 72.1788C97.937 69.8759 98.2252 68.3308 98.8009 67.3635C99.5598 66.0549 100.842 65.7137 100.842 65.8978C99.9523 67.1794 99.2198 67.9911 103.695 72.6235C105.37 74.3516 106.888 77.4134 108.171 80.5546C108.589 81.6014 109.008 82.6479 109.348 83.6692Z" fill="#282E3A"/>
<path d="M112.224 49.6596C109.775 47.7133 106.863 46.7291 103.366 47.6483C102.1 47.9811 100.667 48.6603 99.7744 49.5683C97.3147 52.0715 96.7436 56.7025 98.3145 59.3607C99.1218 60.7273 99.995 62.055 100.809 63.3528C101.527 62.1541 101.504 61.8126 100.747 60.8853C100.403 60.4641 99.9608 59.9904 99.9431 59.4857C99.9416 59.4463 99.9428 59.4065 99.9463 59.3665C100.022 58.5018 101.096 57.9417 101.849 58.3571C101.997 58.4386 102.135 58.5299 102.255 58.6378C102.638 58.9816 102.735 59.5993 102.978 60.0771C103.306 59.9541 103.208 59.9907 103.536 59.868C103.28 58.2235 103.178 56.7303 103.4 55.5597C103.584 54.5952 104.462 53.8146 105.497 53.6604C105.518 53.6572 105.539 53.6537 105.559 53.6502C107.519 53.3067 109.498 53.0284 111.427 52.5023C113.098 52.0468 113.462 50.6429 112.224 49.6596Z" fill="#895F4C"/>
<path d="M61.3461 4.29728C57.7289 2.19036 52.6877 2.47388 47.134 5.69339C36.1115 12.0724 27.1685 27.5093 27.2253 40.212C27.2253 46.5075 29.447 50.9509 33.0355 53.0286L28.7919 50.5517C25.2033 48.4727 22.9816 44.0292 22.9532 37.7352C22.9248 25.0603 31.8395 9.59443 42.8903 3.21512C48.444 0.0248895 53.4852 -0.287901 57.1025 1.848L61.3461 4.29728Z" fill="#D4DBE9"/>
<path d="M47.1706 5.70144C44.788 7.07697 42.5115 8.89718 40.3906 11.007L66.0154 25.8972C66.8187 22.9293 67.2712 19.9646 67.2712 17.1384C67.2451 4.41926 58.2417 -0.685982 47.1706 5.70144Z" fill="#678CC8"/>
<path d="M27.2268 40.2771C27.2529 46.9761 29.7654 51.5564 33.7174 53.4682C37.3031 55.1948 42.0665 54.7501 47.3011 51.7135C48.3742 51.1117 49.3949 50.4049 50.4156 49.6202C50.887 49.2802 51.3581 48.9135 51.803 48.5212C52.0645 48.2847 52.3524 48.0496 52.6144 47.8145C53.7659 46.7932 54.8651 45.6942 55.9119 44.4903C56.1476 44.2286 56.3833 43.9665 56.6187 43.6789C57.5347 42.6055 58.3983 41.481 59.2097 40.3026C60.2304 38.8636 61.1465 37.3454 62.0103 35.8015C63.7465 32.6208 65.1069 29.2572 66.0152 25.8986L40.3904 11.0078C32.7019 18.6513 27.1856 30.3063 27.2268 40.2771Z" fill="#86AEDC"/>
<path d="M56.8739 43.3639C56.7953 43.4686 56.6906 43.5735 56.6121 43.6782C56.3767 43.9657 56.141 44.2278 55.9053 44.4896C54.8585 45.6935 53.7593 46.7924 52.6078 47.8137L52.0579 48.2839C50.3047 44.4629 47.949 40.0398 45.4363 37.3971C40.7253 32.4757 41.6935 32.7899 42.6098 31.1158L44.1016 30.0423L55.3821 26.0117C56.6382 30.7221 57.2403 36.8475 56.8739 43.3639Z" fill="#86AEDC"/>
<path d="M62.0036 35.8007C61.1397 37.3446 60.2237 38.8628 59.203 40.3018C58.3916 41.4802 57.528 42.6046 56.612 43.6781C56.3766 43.9657 56.1409 44.2277 55.9052 44.4895C54.8584 45.6934 53.7592 46.7924 52.6077 47.8137C52.3456 48.0488 52.0578 48.2839 51.7963 48.5204C51.3513 48.9126 50.8803 49.2794 50.4089 49.6194C49.3882 50.4041 48.3675 51.1109 47.2943 51.7127C42.0598 54.7493 37.2963 55.194 33.7107 53.4674C33.6585 48.7555 33.7107 43.9132 33.7107 43.9132C33.7107 36.9254 37.8984 34.5176 37.8984 34.5176L42.0598 31.508L44.1015 30.0423L53.6024 26.6404L54.5706 26.2989L55.382 26.0117C59.4387 25.3049 61.2447 30.3565 62.0036 35.8007Z" fill="#384052"/>
<path d="M56.8817 43.3639C56.8031 43.4686 56.6985 43.5735 56.6199 43.6782C56.3845 43.9657 56.1488 44.2278 55.9131 44.4896C54.8664 45.6935 53.7671 46.7924 52.6157 47.8137L52.0657 48.2839C50.3125 44.4629 47.9568 40.0398 45.4441 37.3971C40.7331 32.4757 41.7013 32.7899 42.6177 31.1158L44.1094 30.0423L55.3899 26.0117C56.646 30.7221 57.2481 36.8475 56.8817 43.3639Z" fill="white"/>
<path d="M44.0938 26.2268V30.0565C44.0938 30.0565 45.9108 32.8731 51.2995 33.5755C51.7958 33.6396 54.1584 33.7584 54.4918 33.3856C55.2635 32.5214 54.8437 30.5232 54.4909 26.3277V23.7656L44.0938 26.2268Z" fill="#F7C9A4"/>
<path d="M55.9068 44.4896C54.86 45.6935 53.7607 46.7925 52.6093 47.8137C52.3472 48.0488 52.0593 48.2839 51.7979 48.5205L51.6929 48.2584L51.4315 44.6992L50.8818 37.2922L51.2743 36.3234L49.5469 35.4073C49.9133 34.5177 50.5151 33.5491 51.3004 33.1836C52.295 33.2871 53.0803 33.9159 53.3158 34.5177L52.3736 36.1408L53.1586 36.7684C54.0225 38.7837 55.0693 41.5579 55.9068 44.4896Z" fill="#ED5E72"/>
<path d="M53.5006 35.5833C53.5006 35.5833 52.8886 33.6727 51.3047 33.1926C51.3047 33.1926 54.5346 29.5058 53.6467 27.082L55.3605 28.4367C55.3605 28.4367 56.3325 31.5994 53.5006 35.5833Z" fill="#E3E6F0"/>
<path d="M59.2035 40.3018C58.3921 41.4802 57.5285 42.6047 56.6125 43.6782C57.0314 37.2652 56.6386 30.0154 53.3672 26.9011C53.3672 26.9011 53.4455 26.7707 53.6029 26.6405C53.8119 26.4819 54.1261 26.2735 54.5711 26.299C55.3561 26.326 56.5339 27.0327 58.0782 29.8328L56.8482 31.8481L58.8632 31.7701C58.8632 31.7701 59.5439 35.2769 59.2035 40.3018Z" fill="#282E3A"/>
<path d="M55.9057 15.7427C55.9057 15.7427 58.0123 28.1689 53.0175 30.0981C48.0224 32.027 42.3852 27.0345 41.3031 21.7753C40.2209 16.5165 52.2247 11.2355 55.9057 15.7427Z" fill="#F8D5B4"/>
<path d="M44.1002 30.0547C43.125 30.417 42.8108 32.6185 43.6816 33.3562C45.8822 35.2194 50.4378 36.3282 50.4378 36.3282C50.6537 34.768 51.306 33.1913 51.306 33.1913C45.114 31.4876 44.1002 30.0547 44.1002 30.0547Z" fill="#E3E6F0"/>
<path d="M52.6064 47.8137C52.3444 48.0488 52.0565 48.2839 51.795 48.5205C51.3501 48.9127 50.879 49.2794 50.4076 49.6194C46.7959 44.5153 44.6499 40.5114 44.6499 40.5114L45.461 37.6844L43.6813 39.255C43.6813 39.255 42.5821 38.1294 41.9803 36.3234C41.1949 34.0205 41.4828 32.4757 42.0585 31.508C42.8178 30.1994 44.1002 29.8582 44.1002 30.0423C43.2103 31.3242 42.4775 32.1356 46.953 36.7683C48.628 38.4961 50.1462 41.5579 51.4287 44.6991C51.8472 45.7459 52.2661 46.7924 52.6064 47.8137Z" fill="#282E3A"/>
<path d="M55.4815 13.804C53.0326 11.8577 50.1212 10.8738 46.624 11.7927C45.3577 12.1255 43.9242 12.8048 43.0322 13.7127C40.5725 16.2162 40.0015 20.8469 41.5721 23.5052C42.3797 24.8717 43.2529 26.1997 44.0666 27.4972C44.7846 26.2985 44.7617 25.957 44.0048 25.0297C43.661 24.6085 43.2184 24.1351 43.2007 23.6301C43.1992 23.5907 43.2007 23.551 43.2042 23.5109C43.2795 22.6462 44.3536 22.0864 45.1073 22.5016C45.2551 22.583 45.3925 22.6743 45.5128 22.7825C45.8955 23.1263 45.9923 23.7437 46.2352 24.2215C46.5634 24.0986 46.4657 24.1354 46.7939 24.0125C46.5382 22.3679 46.4355 20.875 46.6579 19.7041C46.8414 18.7397 47.7195 17.959 48.7552 17.8048C48.7758 17.8016 48.7964 17.7984 48.8173 17.7946C50.7772 17.4511 52.7554 17.1728 54.6846 16.6469C56.3553 16.1912 56.7191 14.7876 55.4815 13.804Z" fill="#895F4C"/>
<path d="M39.1977 89.4691C35.5805 87.3622 30.5393 87.646 24.9853 90.8652C13.9631 97.2445 5.01975 112.681 5.07686 125.384C5.07686 131.68 7.29828 136.123 10.8871 138.2L6.64342 135.724C3.05459 133.644 0.833166 129.201 0.804757 122.907C0.776058 110.232 9.69103 94.7662 20.7416 88.3869C26.2956 85.1967 31.3368 84.8839 34.954 87.0201L39.1977 89.4691Z" fill="#D4DBE9"/>
<path d="M25.0068 90.8733C22.6242 92.2488 20.3477 94.0693 18.2266 96.1789L43.8513 111.069C44.6549 108.101 45.1074 105.136 45.1074 102.311C45.0813 89.5911 36.078 84.4859 25.0068 90.8733Z" fill="#678CC8"/>
<path d="M5.06273 125.449C5.08882 132.148 7.60129 136.728 11.5534 138.64C15.139 140.367 19.9025 139.922 25.137 136.885C26.2102 136.284 27.2309 135.577 28.2516 134.792C28.7226 134.452 29.1937 134.085 29.639 133.693C29.9005 133.457 30.1883 133.221 30.4501 132.986C31.6018 131.965 32.7011 130.866 33.7479 129.662C33.9835 129.4 34.2189 129.138 34.4546 128.851C35.3707 127.777 36.2342 126.653 37.0457 125.474C38.0663 124.035 38.9824 122.517 39.846 120.974C41.5821 117.793 42.9429 114.429 43.8508 111.07L18.226 96.1797C10.5379 103.823 5.02156 115.478 5.06273 125.449Z" fill="#86AEDC"/>
<path d="M34.7255 128.536C34.6469 128.64 34.5423 128.745 34.4637 128.85C34.228 129.138 33.9926 129.4 33.757 129.662C32.7102 130.865 31.6109 131.965 30.4592 132.986L29.9095 133.456C28.156 129.635 25.8004 125.212 23.2879 122.569C18.5769 117.648 19.5451 117.962 20.4612 116.288L21.9532 115.214L33.2337 111.184C34.4898 115.894 35.0916 122.019 34.7255 128.536Z" fill="#86AEDC"/>
<path d="M39.8472 120.973C38.9836 122.516 38.0676 124.035 37.0469 125.474C36.2355 126.652 35.3719 127.777 34.4558 128.85C34.2202 129.138 33.9848 129.4 33.7491 129.662C32.7023 130.865 31.603 131.965 30.4513 132.986C30.1895 133.221 29.9017 133.456 29.6402 133.692C29.1949 134.085 28.7239 134.452 28.2528 134.791C27.2321 135.576 26.2114 136.283 25.1382 136.885C19.9037 139.921 15.1402 140.366 11.5546 138.639C11.5021 133.927 11.5546 129.085 11.5546 129.085C11.5546 122.097 15.7423 119.69 15.7423 119.69L19.9037 116.68L21.9454 115.214L31.4459 111.812L32.4144 111.471L33.2258 111.184C37.2825 110.477 39.0883 115.529 39.8472 120.973Z" fill="#384052"/>
<path d="M34.7255 128.536C34.6469 128.64 34.5423 128.745 34.4637 128.85C34.228 129.138 33.9926 129.4 33.757 129.662C32.7102 130.865 31.6109 131.965 30.4592 132.986L29.9095 133.456C28.156 129.635 25.8004 125.212 23.2879 122.569C18.5769 117.648 19.5451 117.962 20.4612 116.288L21.9532 115.214L33.2337 111.184C34.4898 115.894 35.0916 122.019 34.7255 128.536Z" fill="white"/>
<path d="M21.9375 111.398V115.228C21.9375 115.228 23.7545 118.045 29.1433 118.747C29.6396 118.811 32.0022 118.93 32.3355 118.557C33.1072 117.693 32.6875 115.695 32.3347 111.499V108.938L21.9375 111.398Z" fill="#F7C9A4"/>
<path d="M33.7505 129.662C32.7037 130.865 31.6045 131.965 30.4527 132.986C30.191 133.221 29.9031 133.456 29.6416 133.692L29.5367 133.43L29.2749 129.871L28.7253 122.464L29.1181 121.496L27.3906 120.579C27.757 119.69 28.3589 118.721 29.1442 118.355C30.1388 118.459 30.9238 119.088 31.1595 119.69L30.2173 121.313L31.0024 121.94C31.8662 123.956 32.913 126.73 33.7505 129.662Z" fill="#ED5E72"/>
<path d="M31.3441 120.755C31.3441 120.755 30.7324 118.845 29.1484 118.365C29.1484 118.365 32.3781 114.678 31.4902 112.254L33.2043 113.609C33.2043 113.609 34.1763 116.772 31.3441 120.755Z" fill="#E3E6F0"/>
<path d="M37.0476 125.473C36.2362 126.652 35.3726 127.776 34.4565 128.85C34.8754 122.437 34.4826 115.187 31.2109 112.073C31.2109 112.073 31.2895 111.942 31.4466 111.812C31.6559 111.654 31.9702 111.445 32.4151 111.471C33.2002 111.498 34.378 112.204 35.9222 115.004L34.6922 117.02L36.7072 116.942C36.7072 116.942 37.3879 120.448 37.0476 125.473Z" fill="#282E3A"/>
<path d="M33.7495 100.915C33.7495 100.915 35.8561 113.341 30.8613 115.27C25.8662 117.199 20.229 112.206 19.1469 106.947C18.0644 101.688 30.0681 96.4073 33.7495 100.915Z" fill="#F8D5B4"/>
<path d="M21.9437 115.227C20.9688 115.589 20.6546 117.79 21.5254 118.528C23.7259 120.392 28.2815 121.5 28.2815 121.5C28.4975 119.94 29.1498 118.363 29.1498 118.363C22.9577 116.659 21.9437 115.227 21.9437 115.227Z" fill="#E3E6F0"/>
<path d="M30.4499 132.986C30.1881 133.221 29.9003 133.456 29.6388 133.692C29.1935 134.085 28.7225 134.452 28.2514 134.791C24.6397 129.687 22.4933 125.683 22.4933 125.683L23.3047 122.857L21.5251 124.427C21.5251 124.427 20.4258 123.301 19.824 121.496C19.0387 119.193 19.3266 117.648 19.9023 116.68C20.6612 115.371 21.944 115.03 21.944 115.214C21.054 116.496 20.3212 117.307 24.7965 121.94C26.4718 123.668 27.9899 126.73 29.2721 129.871C29.691 130.918 30.1099 131.965 30.4499 132.986Z" fill="#282E3A"/>
<path d="M33.3254 98.9757C30.8765 97.0297 27.9651 96.0455 24.4676 96.9648C23.2016 97.2975 21.7681 97.9765 20.8759 98.8847C18.4164 101.388 17.8451 106.019 19.416 108.677C20.2233 110.043 21.0967 111.371 21.9102 112.669C22.6285 111.47 22.6053 111.129 21.8487 110.202C21.5049 109.78 21.0623 109.307 21.0446 108.802C21.0431 108.762 21.0443 108.723 21.0478 108.683C21.1234 107.818 22.1975 107.258 22.9512 107.673C23.099 107.755 23.2364 107.846 23.3567 107.954C23.7391 108.298 23.8362 108.915 24.0791 109.393C24.4073 109.271 24.3096 109.307 24.6375 109.184C24.3821 107.54 24.2795 106.047 24.5018 104.876C24.685 103.912 25.5634 103.131 26.5989 102.976C26.6197 102.973 26.6403 102.97 26.6612 102.966C28.6211 102.623 30.5993 102.345 32.5286 101.819C34.1991 101.363 34.563 99.9593 33.3254 98.9757Z" fill="#895F4C"/>
<path d="M57.8773 87.9739L54.3125 85.9023L55.4863 89.1361L59.0507 91.2076L57.8773 87.9739Z" fill="#91B9F4"/>
<path d="M76.2172 61.4661L72.6527 59.3945L69.25 60.0207L72.8148 62.0922L76.2172 61.4661Z" fill="#91B9F4"/>
<path d="M65.1776 65.5637L61.6129 63.4922C62.6513 64.0954 63.2951 65.3794 63.3003 67.2016C63.3108 70.8661 60.7357 75.3258 57.5469 77.1669L61.1117 79.2384C64.3005 77.3973 66.8753 72.9377 66.8651 69.2732C66.8599 67.4509 66.216 66.167 65.1776 65.5637Z" fill="#91B9F4"/>
<path d="M53.4219 77.5709L56.9866 79.6425C58.0384 80.2538 59.4953 80.1672 61.1022 79.2395L57.5374 77.168C55.9309 78.0956 54.4736 78.1823 53.4219 77.5709Z" fill="#91B9F4"/>
<path d="M73.2317 54.9667L69.6673 52.8952L66.7109 51.2109L70.2757 53.2825L73.2317 54.9667Z" fill="#91B9F4"/>
<path d="M50.5115 85.6184L46.9468 83.5469L45.375 88.1712L48.9398 90.2425L50.5115 85.6184Z" fill="#91B9F4"/>
<path d="M70.273 53.2825L66.7082 51.2109L63.4844 54.8931L67.0489 56.9647L70.273 53.2825Z" fill="#91B9F4"/>
<path d="M49.3614 83.1184L45.7969 81.0469C46.0743 82.0105 46.4569 82.8494 46.9521 83.548L50.5169 85.6196C50.0214 84.921 49.6391 84.082 49.3614 83.1184Z" fill="#91B9F4"/>
<path d="M67.0632 56.9659L63.4987 54.8943C62.6412 54.8227 61.7197 54.9181 60.75 55.1619L64.3148 57.2334C65.2845 56.9896 66.206 56.8943 67.0632 56.9659Z" fill="#91B9F4"/>
<path d="M50.4676 71.8255L46.9029 69.7539C46.4132 71.0216 46.0367 72.298 45.7656 73.5787L49.3301 75.6503C49.6014 74.3695 49.978 73.0931 50.4676 71.8255Z" fill="#91B9F4"/>
<path d="M57.7981 60.9895L54.2337 58.918C53.2657 59.7833 52.3387 60.7646 51.4844 61.8244L55.0491 63.8959C55.9031 62.8361 56.8302 61.8548 57.7981 60.9895Z" fill="#91B9F4"/>
<path d="M49.3344 75.6497L45.7699 73.5781L42.375 76.8768L45.9395 78.9483L49.3344 75.6497Z" fill="#91B9F4"/>
<path d="M45.9395 78.9505L42.375 76.8789L42.3883 81.6745L45.9531 83.7461L45.9395 78.9505Z" fill="#91B9F4"/>
<path d="M63.129 54.0012L59.5642 51.9297L55.3906 54.3395L58.9551 56.4111L63.129 54.0012Z" fill="#91B9F4"/>
<path d="M58.9503 56.4114L55.3858 54.3398L54.2344 58.9163L57.7989 60.9879L58.9503 56.4114Z" fill="#91B9F4"/>
<path d="M48.877 69.0286L45.3125 66.957L46.9052 69.7542L50.4699 71.8257L48.877 69.0286Z" fill="#91B9F4"/>
<path d="M55.0491 63.8958L51.4843 61.8242L48.25 61.8709L51.8148 63.9424L55.0491 63.8958Z" fill="#91B9F4"/>
<path d="M51.8142 63.9426L48.2494 61.8711L45.3125 66.9578L48.877 69.0293L51.8142 63.9426Z" fill="#91B9F4"/>
<path d="M45.9453 78.9481L49.3402 75.6494C49.6115 74.3687 49.9881 73.0923 50.4777 71.8246L48.8848 69.0275L51.822 63.9408L55.0562 63.8941C55.9103 62.8343 56.8373 61.853 57.8053 60.9877L58.9567 56.4112L63.1306 54.0013L64.3121 57.231C65.2818 56.9872 66.2034 56.8918 67.0606 56.9634L70.2847 53.2812L73.2407 54.9655L71.6771 59.5849C72.1644 60.2887 72.5548 61.1315 72.8245 62.091L76.2269 61.4648L76.2405 66.2608L72.8456 69.5585C72.5824 70.8346 72.1977 72.1162 71.7162 73.3787L73.301 76.1808L70.3639 81.277L67.1296 81.3234C66.2756 82.3743 65.3566 83.3503 64.3887 84.2162L63.2291 88.7971L59.0552 91.2066L57.8818 87.9729C56.9121 88.2257 55.9824 88.3167 55.1252 88.2544L51.9011 91.9366L48.9451 90.2424L50.5168 85.6184C50.0214 84.9198 49.6391 84.0808 49.3613 83.1173L45.9589 83.7437L45.9453 78.9481ZM61.1158 79.2388C64.3046 77.3977 66.8794 72.9381 66.8693 69.2736C66.8588 65.6097 64.2669 64.1234 61.0782 65.9645C57.8894 67.8056 55.3065 72.2794 55.3169 75.9434C55.327 79.6078 57.9271 81.0799 61.1158 79.2388Z" fill="#4597E4"/>
</svg>
