<svg width="100%" height="100%" viewBox="0 0 1440 969" fill="none" xmlns="http://www.w3.org/2000/svg" xmlns:xlink="http://www.w3.org/1999/xlink" >
   <style>
    .svg-elem-4, .svg-elem-5, .svg-elem-6, .svg-elem-7, .svg-elem-8, .svg-elem-9, .svg-elem-10, .svg-elem-11, .svg-elem-12, .svg-elem-13 {
        stroke-dasharray: 1000;
        stroke-dashoffset: 1000;
        animation: draw 3s linear forwards; 
    }

    .svg-elem-5 {
        animation-delay: 0.2s;
    }

    .svg-elem-6 {
        animation-delay: 0.4s;
    }

    .svg-elem-7 {
        animation-delay: 0.6s;
    }

    .svg-elem-8 {
        animation-delay: 0.8s;
    }

    .svg-elem-9 {
        animation-delay: 1s;
    }

    .svg-elem-10 {
        animation-delay: 1.2s;
    }

    .svg-elem-11 {
        animation-delay: 1.4s;
    }

    .svg-elem-12 {
        animation-delay: 1.6s;
    }

    .svg-elem-13 {
        animation-delay: 1.8s;
    }
    
    @keyframes draw {
        to {
            stroke-dashoffset: 0;
        }
    }

   
    .svg-elem-14, .svg-elem-15, .svg-elem-16 {
        stroke-dasharray: 2000;
        stroke-dashoffset: 2000;
        animation: draw-square 3s linear forwards; 
    }

    .svg-elem-14 {
        animation-delay: 2s; 
    }

    .svg-elem-15 {
        animation-delay: 2.5s; 
    }

    .svg-elem-16 {
        animation-delay: 3s;
    }

    @keyframes draw-square {
        to {
            stroke-dashoffset: 0;
        }
    }

</style>
<path d="M0 16H1440V890H0V16Z" fill="#C8CEDE"/>
<path d="M0 0H1440V874H0V0Z" fill="#092346"/>
<path d="M1365 874L1208 735" stroke="#4C73CC" stroke-linecap="round" stroke-width="2" class="svg-elem-4"/>
<path d="M853 874L755 778" stroke="#4C73CC" stroke-linecap="round" stroke-width="2" class="svg-elem-5"/>
<path d="M1365 882L1365 874" stroke="#4C73CC" stroke-linecap="round" stroke-width="2" class="svg-elem-6"/>
<path d="M853 882L853 874" stroke="#4C73CC" stroke-linecap="round" stroke-width="2" class="svg-elem-7"/>
<path d="M853 882L1365 882" stroke="#4C73CC" stroke-linecap="round" stroke-width="2" class="svg-elem-8"/>
<path d="M586 874L686 778" stroke="#4C73CC" stroke-linecap="round" stroke-width="2" class="svg-elem-9"/>
<path d="M586 882L586 874" stroke="#4C73CC" stroke-linecap="round" stroke-width="2" class="svg-elem-10"/>
<path d="M71 874L232 735" stroke="#4C73CC" stroke-linecap="round" stroke-width="2" class="svg-elem-11"/>
<path d="M71 882L71 874" stroke="#4C73CC" stroke-linecap="round" stroke-width="2" class="svg-elem-12"/>
<path d="M586 882L71 882" stroke="#4C73CC" stroke-linecap="round" stroke-width="2" class="svg-elem-13"/>
<path d="M1139.45 621.519C1137.95 621.519 1136.46 621.873 1135.13 622.58L1009.55 695.096C1008.56 695.669 1007.97 696.376 1007.97 696.999C1008 697.268 1008.12 697.538 1008.29 697.757C1008.46 697.976 1008.68 698.161 1008.95 698.262L1135.76 771.468C1137.63 772.546 1141.05 772.378 1143.23 771.115L1268.82 698.599C1269.81 698.026 1270.4 697.319 1270.4 696.696C1270.37 696.427 1270.25 696.157 1270.08 695.938C1269.91 695.719 1269.69 695.551 1269.42 695.433L1142.61 622.226C1141.64 621.721 1140.54 621.485 1139.43 621.519H1139.45ZM1138.94 774.163C1137.49 774.197 1136.04 773.86 1134.76 773.186L1007.95 699.98C1007.38 699.71 1006.91 699.289 1006.57 698.767C1006.24 698.245 1006.03 697.639 1006 697.016C1006 695.652 1006.94 694.338 1008.56 693.395L1134.14 620.879C1136.97 619.262 1141.11 619.094 1143.59 620.525L1270.4 693.732C1270.97 694.001 1271.44 694.422 1271.8 694.944C1272.13 695.467 1272.34 696.073 1272.37 696.696C1272.37 698.06 1271.43 699.373 1269.81 700.317L1144.23 772.833C1142.61 773.725 1140.79 774.18 1138.96 774.163H1138.94Z" fill="none" stroke-width="1" stroke="#1B69FF" class='svg-elem-14'/>
<path d="M297.758 771.484C299.61 772.562 303.046 772.394 305.235 771.13L430.816 698.614C431.809 698.042 432.399 697.334 432.399 696.711C432.365 696.442 432.247 696.173 432.079 695.954C431.91 695.735 431.692 695.549 431.422 695.448L304.612 622.242C302.759 621.164 299.324 621.333 297.134 622.596L171.553 695.112C170.56 695.684 169.97 696.391 169.97 697.015C170.004 697.284 170.122 697.553 170.29 697.772C170.459 697.991 170.678 698.16 170.947 698.278L297.758 771.484ZM300.957 774.179C299.509 774.212 298.061 773.875 296.781 773.202L169.97 699.995C169.398 699.726 168.926 699.305 168.573 698.783C168.236 698.261 168.034 697.655 168 697.031C168 695.667 168.943 694.354 170.56 693.411L296.141 620.895C298.953 619.278 303.113 619.109 305.588 620.541L432.399 693.748C432.971 694.017 433.443 694.438 433.797 694.96C434.133 695.482 434.336 696.088 434.369 696.728C434.369 698.092 433.426 699.406 431.809 700.349L306.228 772.865C304.612 773.758 302.793 774.212 300.957 774.195V774.179Z" fill="none" stroke-width="1" stroke="#1B69FF" class='svg-elem-15'/>
<path d="M720.826 536.078C718.165 536.062 715.538 536.718 713.197 537.981L499.135 661.558C497.232 662.67 496.121 664.051 496.121 665.364C496.188 665.954 496.407 666.509 496.744 666.981C497.097 667.453 497.552 667.84 498.091 668.076L714.224 792.865C717.576 794.785 723.689 794.516 727.596 792.259L941.658 668.665C943.561 667.554 944.673 666.173 944.673 664.859C944.605 664.27 944.386 663.714 944.049 663.242C943.696 662.771 943.241 662.384 942.702 662.148L726.569 537.358C724.8 536.432 722.83 535.994 720.826 536.045V536.078ZM719.984 796.284C717.609 796.351 715.269 795.795 713.18 794.684L497.047 669.894C496.188 669.49 495.447 668.85 494.908 668.042C494.369 667.25 494.066 666.324 494.016 665.364C494.016 663.276 495.498 661.238 498.074 659.756L712.136 536.163C716.767 533.485 723.554 533.232 727.613 535.573L943.746 660.363C944.605 660.767 945.346 661.407 945.885 662.198C946.424 662.99 946.727 663.916 946.778 664.876C946.778 666.964 945.296 669.002 942.719 670.501L728.657 794.095C725.996 795.56 723.015 796.301 719.984 796.284Z" fill="none" stroke-width="1" stroke="#1B69FF" class='svg-elem-16'/>
<path d="M720 809L795.344 884H644.656L720 809Z" fill="#C8CEDE"/>
<path d="M720 832L795.344 907H644.656L720 832Z" fill="white"/>
<path opacity="0.5" d="M1051.02 703.976V680.8L1055.26 678.44C1056.45 685.669 1064.99 690.446 1072.12 691.431L1120.66 719.792L1141.85 727.43L1209.48 692.564L1207.92 691.672C1213.7 688.977 1216.81 682.807 1219.94 677.176L1224.49 679.889L1227.19 680.651V704.217C1227.19 707.228 1225.2 710.22 1221.24 712.506L1153.48 751.572C1145.55 756.144 1132.64 756.144 1124.71 751.572L1056.95 712.506C1053.05 710.257 1051.07 707.302 1051 704.347C1051 704.217 1051 704.087 1051 703.957L1051.02 703.976Z" fill="#5284D8"/>
<path d="M1051.02 683.363V668.03L1055.26 665.67C1056.45 672.9 1064.99 677.676 1072.12 678.661L1120.66 707.022L1141.85 714.661L1209.48 679.795L1207.92 678.903C1213.7 676.208 1216.81 670.038 1219.94 664.406L1224.49 667.12L1227.19 667.882V683.605C1227.19 686.616 1225.2 689.608 1221.24 691.894L1153.48 730.96C1145.55 735.532 1132.64 735.532 1124.71 730.96L1056.95 691.894C1053.05 689.645 1051.07 686.708 1051 683.735C1051 683.605 1051 683.475 1051 683.345L1051.02 683.363Z" fill="url(#paint0_linear_988_4637)"/>
<path opacity="0.3" d="M1072.12 678.681L1120.66 707.042L1139.1 713.696V734.437C1134.09 734.53 1129.14 733.359 1124.71 730.998L1056.95 691.932C1053.05 689.684 1051.07 686.747 1051 683.773C1051 683.643 1051 683.513 1051 683.383V668.05L1054.89 665.895H1055.3C1056.62 673.013 1065.05 677.715 1072.12 678.681Z" fill="#0F054C"/>
<path d="M1139.11 622.907L1146.67 620.918L1163.45 630.768L1219.95 664.426C1216.83 670.057 1213.72 676.227 1207.93 678.922L1143.73 641.901C1142.31 641.139 1140.73 640.767 1139.11 640.804V622.925V622.907Z" fill="url(#paint1_linear_988_4637)"/>
<path d="M1153.5 715.404L1221.26 676.338C1229.18 671.766 1229.18 664.313 1221.26 659.741L1153.51 620.675C1145.59 616.103 1132.68 616.103 1124.75 620.675L1056.99 659.741C1049.07 664.313 1049.07 671.766 1056.99 676.338L1124.75 715.404C1132.68 719.976 1145.59 719.976 1153.51 715.404H1153.5Z" fill="url(#paint2_linear_988_4637)"/>
<path d="M1056.97 676.337L1124.73 715.403C1132.66 719.975 1145.57 719.975 1153.49 715.403L1221.25 676.337C1224.81 674.293 1226.76 671.672 1227.13 668.996C1227.6 672.304 1225.64 675.724 1221.25 678.251L1153.49 717.317C1145.57 721.889 1132.66 721.889 1124.73 717.317L1056.97 678.251C1052.58 675.724 1050.63 672.304 1051.09 668.996C1051.46 671.672 1053.42 674.293 1056.97 676.337Z" fill="white"/>
<path d="M1151.58 714.306L1219.34 675.24C1226.22 671.282 1226.22 664.814 1219.34 660.855L1151.6 621.789C1144.72 617.831 1133.53 617.831 1126.65 621.789L1058.89 660.855C1052.01 664.814 1052.01 671.282 1058.89 675.24L1126.63 714.306C1133.51 718.283 1144.7 718.265 1151.58 714.306ZM1132.58 625.209C1136.68 623.127 1141.53 623.127 1145.63 625.209L1213.37 664.275C1216.96 666.356 1216.96 669.72 1213.37 671.802L1145.61 710.868C1141.52 712.931 1136.68 712.931 1132.57 710.868L1064.81 671.802C1061.22 669.72 1061.22 666.356 1064.81 664.275L1132.57 625.209H1132.58Z" fill="url(#paint3_linear_988_4637)"/>
<path opacity="0.5" d="M1083.69 669.109V489H1194.5V669.109C1194.43 670.001 1193.89 670.763 1193.09 671.134L1142.54 700.295C1140.38 701.391 1137.83 701.391 1135.66 700.295L1085.11 671.134C1084.29 670.781 1083.75 670.001 1083.69 669.109Z" fill="url(#paint4_linear_988_4637)"/>
<path d="M1136.21 587.688L1109.53 602.5L1136.25 617.368L1162.89 602.5L1136.21 587.688Z" fill="#84B5EA"/>
<path d="M1136.16 617.273L1136.21 645.226L1162.89 630.413V602.387L1136.16 617.255V617.273Z" fill="#4688CF"/>
<path d="M1109.55 602.406V630.433L1136.21 645.226V617.293L1109.55 602.406Z" fill="#75AAE2"/>
<path opacity="0.5" d="M213.019 703.976V680.8L217.261 678.44C218.451 685.669 226.991 690.446 234.117 691.431L282.658 719.792L303.849 727.43L371.479 692.564L369.916 691.672C375.702 688.977 378.809 682.807 381.935 677.176L386.493 679.889L389.191 680.651V704.217C389.191 707.228 387.2 710.22 383.237 712.506L315.477 751.572C307.552 756.144 294.64 756.144 286.714 751.572L218.954 712.506C215.047 710.257 213.074 707.302 213 704.347C213 704.217 213 704.087 213 703.957L213.019 703.976Z" fill="#5284D8"/>
<path d="M213.019 683.363V668.03L217.261 665.67C218.451 672.9 226.991 677.676 234.117 678.661L282.658 707.022L303.849 714.661L371.479 679.795L369.916 678.903C375.702 676.208 378.809 670.038 381.935 664.406L386.493 667.12L389.191 667.882V683.605C389.191 686.616 387.2 689.608 383.237 691.894L315.477 730.96C307.552 735.532 294.64 735.532 286.714 730.96L218.954 691.894C215.047 689.645 213.074 686.708 213 683.735C213 683.605 213 683.475 213 683.345L213.019 683.363Z" fill="url(#paint5_linear_988_4637)"/>
<path opacity="0.3" d="M234.117 678.681L282.658 707.042L301.096 713.696V734.437C296.091 734.53 291.142 733.359 286.714 730.998L218.954 691.932C215.047 689.684 213.074 686.747 213 683.773C213 683.643 213 683.513 213 683.383V668.05L216.888 665.895H217.298C218.619 673.013 227.047 677.715 234.117 678.681Z" fill="#0F054C"/>
<path d="M301.113 622.907L308.667 620.918L325.449 630.768L381.953 664.426C378.827 670.057 375.72 676.227 369.934 678.922L305.727 641.901C304.313 641.139 302.732 640.767 301.113 640.804V622.925V622.907Z" fill="url(#paint6_linear_988_4637)"/>
<path d="M315.496 715.404L383.256 676.338C391.182 671.766 391.182 664.313 383.256 659.741L315.515 620.675C307.589 616.103 294.677 616.103 286.751 620.675L218.991 659.741C211.065 664.313 211.065 671.766 218.991 676.338L286.751 715.404C294.677 719.976 307.589 719.976 315.515 715.404H315.496Z" fill="url(#paint7_linear_988_4637)"/>
<path d="M218.97 676.337L286.73 715.403C294.656 719.975 307.568 719.975 315.493 715.403L383.253 676.337C386.807 674.293 388.761 671.672 389.133 668.996C389.598 672.304 387.644 675.724 383.253 678.251L315.493 717.317C307.568 721.889 294.656 721.889 286.73 717.317L218.97 678.251C214.579 675.724 212.625 672.304 213.091 668.996C213.463 671.672 215.416 674.293 218.97 676.337Z" fill="white"/>
<path d="M313.58 714.306L381.341 675.24C388.224 671.282 388.224 664.814 381.341 660.855L313.599 621.789C306.715 617.831 295.533 617.831 288.65 621.789L220.89 660.855C214.006 664.814 214.006 671.282 220.89 675.24L288.631 714.306C295.515 718.283 306.697 718.265 313.58 714.306ZM294.585 625.209C298.678 623.127 303.534 623.127 307.627 625.209L375.368 664.275C378.959 666.356 378.959 669.72 375.368 671.802L307.608 710.868C303.515 712.931 298.678 712.931 294.566 710.868L226.806 671.802C223.215 669.72 223.215 666.356 226.806 664.275L294.566 625.209H294.585Z" fill="url(#paint8_linear_988_4637)"/>
<path opacity="0.5" d="M245.691 669.109V489H356.504V669.109C356.429 670.001 355.89 670.763 355.09 671.134L304.54 700.295C302.381 701.391 299.832 701.391 297.656 700.295L247.105 671.134C246.287 670.781 245.747 670.001 245.691 669.109Z" fill="url(#paint9_linear_988_4637)"/>
<path d="M298.211 587.688L271.531 602.5L298.248 617.368L324.891 602.5L298.211 587.688Z" fill="#84B5EA"/>
<path d="M298.156 617.273L298.212 645.226L324.892 630.413V602.387L298.156 617.255V617.273Z" fill="#4688CF"/>
<path d="M271.547 602.406V630.433L298.208 645.226V617.293L271.547 602.406Z" fill="#75AAE2"/>
<g style="mix-blend-mode:multiply" opacity="0.54">
<path d="M835.889 672.092C841.082 675.216 841.102 680.261 835.934 683.37L728.552 747.956C723.384 751.064 714.991 751.053 709.798 747.93L601.893 683.049C596.699 679.925 596.679 674.88 601.847 671.771L709.228 546.874C714.396 543.766 722.789 543.778 727.982 546.9L835.889 672.092Z" fill="#5CAEFF"/>
</g>
<path d="M845.619 579.425C845.606 579.57 845.596 579.715 845.57 579.861C845.548 579.979 845.512 580.095 845.481 580.213C845.446 580.35 845.412 580.487 845.364 580.623C845.324 580.735 845.27 580.847 845.219 580.959C845.156 581.104 845.094 581.245 845.018 581.386C844.963 581.488 844.897 581.589 844.834 581.691C844.734 581.852 844.629 582.013 844.511 582.171C844.438 582.264 844.366 582.356 844.289 582.448C844.106 582.667 843.912 582.876 843.707 583.074C843.63 583.146 843.562 583.225 843.479 583.298C843.348 583.417 843.201 583.531 843.058 583.646C842.931 583.747 842.809 583.851 842.672 583.951C842.516 584.063 842.345 584.169 842.177 584.281C842.009 584.393 841.841 584.508 841.655 584.616L730.46 649.234C730.039 649.474 729.605 649.692 729.162 649.888C729.033 649.946 728.902 650 728.77 650.055C728.418 650.201 728.058 650.337 727.689 650.465C727.557 650.51 727.428 650.558 727.294 650.6C727.063 650.673 726.824 650.738 726.587 650.802C726.407 650.851 726.229 650.904 726.046 650.948C725.797 651.008 725.542 651.058 725.288 651.11C725.114 651.145 724.943 651.182 724.767 651.216C724.253 651.307 723.731 651.378 723.205 651.434C723.044 651.451 722.88 651.461 722.717 651.475C722.409 651.501 722.099 651.523 721.788 651.536C721.59 651.545 721.392 651.549 721.194 651.553C720.942 651.558 720.691 651.56 720.439 651.557C720.23 651.557 720.021 651.547 719.812 651.539C719.579 651.53 719.346 651.518 719.114 651.502C718.902 651.487 718.69 651.469 718.48 651.448C718.25 651.427 718.021 651.401 717.793 651.372C717.588 651.346 717.383 651.317 717.178 651.286C716.936 651.247 716.694 651.205 716.452 651.159C716.26 651.122 716.069 651.087 715.879 651.043C715.592 650.98 715.309 650.909 715.028 650.834C714.87 650.792 714.711 650.753 714.555 650.707C714.046 650.562 713.557 650.395 713.079 650.209C713.013 650.183 712.951 650.154 712.886 650.127C712.244 649.873 711.621 649.574 711.021 649.233L599.087 584.609C596.377 583.044 595.023 580.991 595.028 578.941L595 684.26C594.994 686.311 596.348 688.364 599.058 689.928L710.992 754.552C711.592 754.893 712.215 755.192 712.856 755.446C712.898 755.464 712.934 755.488 712.977 755.504C713.001 755.514 713.028 755.52 713.049 755.53C713.526 755.716 714.02 755.88 714.524 756.028C714.565 756.039 714.602 756.057 714.644 756.068C714.759 756.101 714.88 756.123 714.997 756.155C715.278 756.227 715.561 756.3 715.848 756.363C715.925 756.381 716 756.403 716.077 756.419C716.19 756.443 716.307 756.458 716.421 756.48C716.662 756.525 716.902 756.567 717.148 756.605C717.246 756.62 717.342 756.642 717.438 756.657C717.534 756.671 717.656 756.679 717.76 756.692C717.988 756.721 718.217 756.747 718.446 756.769C718.556 756.78 718.664 756.796 718.774 756.806C718.884 756.815 718.979 756.815 719.081 756.822C719.313 756.838 719.546 756.85 719.779 756.86C719.895 756.864 720.011 756.875 720.127 756.878C720.22 756.878 720.313 756.878 720.406 756.878C720.657 756.882 720.909 756.878 721.16 756.875C721.285 756.875 721.409 756.875 721.534 756.875C721.607 756.875 721.68 756.863 721.752 756.86C722.063 756.846 722.372 756.824 722.682 756.798C722.805 756.788 722.931 756.785 723.054 756.773C723.093 756.769 723.127 756.761 723.169 756.757C723.695 756.702 724.216 756.629 724.732 756.539C724.756 756.535 724.782 756.533 724.804 756.529C724.955 756.502 725.099 756.464 725.248 756.434C725.502 756.383 725.757 756.332 726.008 756.272C726.19 756.227 726.366 756.176 726.547 756.126C726.785 756.062 727.023 755.998 727.256 755.924C727.305 755.908 727.358 755.897 727.406 755.882C727.491 755.854 727.567 755.818 727.65 755.789C728.019 755.663 728.379 755.527 728.73 755.379C728.862 755.324 728.995 755.27 729.124 755.212C729.567 755.016 730 754.797 730.42 754.558L841.629 689.934L841.797 689.834C841.924 689.758 842.031 689.676 842.152 689.597C842.32 689.488 842.49 689.379 842.646 689.268C842.782 689.169 842.905 689.065 843.032 688.963C843.177 688.848 843.322 688.734 843.452 688.616C843.479 688.592 843.513 688.569 843.539 688.543C843.593 688.493 843.63 688.439 843.684 688.389C843.889 688.191 844.083 687.982 844.266 687.763C844.305 687.716 844.356 687.673 844.393 687.626C844.43 687.579 844.453 687.532 844.488 687.486C844.606 687.328 844.711 687.167 844.81 687.006C844.853 686.939 844.908 686.873 844.946 686.805C844.966 686.77 844.977 686.732 844.995 686.701C845.068 686.556 845.133 686.417 845.196 686.274C845.232 686.19 845.281 686.108 845.313 686.023C845.323 685.995 845.327 685.966 845.337 685.938C845.385 685.802 845.419 685.665 845.455 685.527C845.479 685.435 845.516 685.343 845.534 685.25C845.539 685.225 845.539 685.201 845.543 685.177C845.569 685.032 845.579 684.887 845.592 684.741C845.601 684.648 845.622 684.554 845.624 684.459C845.624 684.419 845.624 684.379 845.624 684.339L845.653 579.02C845.653 579.156 845.632 579.29 845.619 579.425Z" fill="url(#paint10_linear_988_4637)"/>
<path d="M841.597 573.352C846.984 576.462 847.013 581.501 841.66 584.615L730.462 649.233C725.11 652.343 716.411 652.343 711.024 649.233L599.09 584.608C593.703 581.498 593.674 576.459 599.027 573.349L710.225 508.727C715.577 505.617 724.276 505.617 729.663 508.727L841.597 573.352Z" fill="url(#paint11_linear_988_4637)"/>
<path d="M840.738 565.987C840.726 566.126 840.716 566.264 840.691 566.402C840.67 566.516 840.636 566.628 840.606 566.741C840.572 566.873 840.54 567.004 840.493 567.135C840.455 567.242 840.404 567.353 840.357 567.457C840.297 567.595 840.238 567.732 840.164 567.869C840.111 567.967 840.048 568.063 839.988 568.159C839.892 568.314 839.791 568.468 839.677 568.62C839.61 568.709 839.537 568.798 839.464 568.887C839.288 569.097 839.102 569.298 838.904 569.488C838.832 569.56 838.759 569.633 838.686 569.706C838.561 569.819 838.42 569.929 838.282 570.039C838.16 570.137 838.042 570.237 837.911 570.33C837.761 570.439 837.597 570.542 837.436 570.647C837.274 570.753 837.112 570.865 836.934 570.97L730.065 633.077C729.669 633.306 729.248 633.513 728.818 633.707C728.694 633.763 728.567 633.815 728.442 633.868C728.102 634.01 727.756 634.141 727.402 634.262C727.275 634.305 727.151 634.351 727.023 634.392C726.8 634.465 726.571 634.523 726.343 634.586C726.17 634.632 725.999 634.683 725.823 634.725C725.584 634.784 725.339 634.832 725.096 634.882C724.93 634.915 724.765 634.954 724.595 634.983C724.101 635.071 723.6 635.139 723.094 635.192C722.939 635.209 722.782 635.218 722.626 635.231C722.329 635.256 722.031 635.278 721.733 635.291C721.542 635.299 721.352 635.303 721.161 635.307C720.919 635.311 720.677 635.313 720.435 635.31C720.234 635.31 720.032 635.301 719.832 635.294C719.608 635.284 719.384 635.273 719.161 635.257C718.958 635.244 718.754 635.226 718.551 635.206C718.333 635.185 718.111 635.161 717.892 635.134C717.694 635.109 717.497 635.081 717.301 635.051C717.067 635.015 716.834 634.973 716.603 634.93C716.419 634.894 716.235 634.857 716.052 634.818C715.776 634.757 715.505 634.689 715.235 634.618C715.083 634.577 714.931 634.539 714.781 634.495C714.295 634.353 713.821 634.195 713.362 634.016C713.299 633.992 713.239 633.963 713.176 633.938C712.56 633.693 711.961 633.406 711.384 633.078L603.811 570.969C601.206 569.465 599.905 567.492 599.91 565.52L599.883 575.329C599.877 577.299 601.178 579.273 603.783 580.779L711.357 642.886C711.933 643.214 712.532 643.501 713.148 643.745C713.188 643.761 713.221 643.784 713.264 643.801C713.287 643.81 713.312 643.816 713.336 643.825C713.795 644.004 714.269 644.162 714.753 644.303C714.793 644.315 714.826 644.332 714.868 644.342C714.979 644.374 715.095 644.396 715.208 644.426C715.478 644.499 715.749 644.566 716.026 644.626C716.098 644.643 716.171 644.665 716.244 644.68C716.352 644.703 716.462 644.717 716.573 644.738C716.805 644.782 717.036 644.822 717.27 644.859C717.365 644.874 717.457 644.895 717.552 644.908C717.647 644.921 717.759 644.93 717.862 644.943C718.08 644.97 718.298 644.995 718.522 645.015C718.627 645.025 718.731 645.041 718.836 645.051C718.942 645.06 719.033 645.06 719.131 645.066C719.354 645.082 719.577 645.094 719.802 645.102C719.914 645.107 720.025 645.117 720.137 645.12C720.226 645.12 720.316 645.12 720.404 645.12C720.646 645.124 720.888 645.12 721.131 645.12C721.25 645.12 721.37 645.12 721.49 645.12C721.563 645.12 721.631 645.109 721.702 645.105C722.001 645.092 722.298 645.071 722.595 645.046C722.714 645.036 722.835 645.034 722.954 645.022C722.991 645.022 723.027 645.011 723.064 645.007C723.572 644.954 724.071 644.885 724.565 644.798C724.589 644.793 724.614 644.792 724.638 644.787C724.783 644.762 724.921 644.725 725.063 644.696C725.308 644.647 725.553 644.598 725.794 644.54C725.969 644.498 726.139 644.448 726.312 644.401C726.541 644.339 726.77 644.277 726.993 644.207C727.041 644.191 727.091 644.18 727.139 644.165C727.219 644.139 727.293 644.103 727.373 644.076C727.727 643.956 728.073 643.825 728.411 643.683C728.538 643.63 728.665 643.578 728.79 643.521C729.215 643.333 729.631 643.122 730.035 642.891L836.902 580.788C836.956 580.756 837.01 580.724 837.063 580.692C837.184 580.62 837.288 580.54 837.404 580.465C837.565 580.36 837.73 580.256 837.879 580.147C838.01 580.052 838.127 579.953 838.25 579.857C838.388 579.746 838.528 579.639 838.654 579.523C838.68 579.5 838.712 579.478 838.737 579.455C838.789 579.407 838.825 579.355 838.874 579.31C839.072 579.12 839.259 578.919 839.434 578.709C839.471 578.664 839.52 578.622 839.556 578.576C839.592 578.531 839.613 578.487 839.647 578.443C839.76 578.29 839.861 578.136 839.957 577.981C839.998 577.916 840.051 577.853 840.088 577.787C840.106 577.755 840.117 577.72 840.134 577.688C840.207 577.552 840.267 577.415 840.327 577.277C840.362 577.197 840.409 577.118 840.44 577.037C840.45 577.01 840.453 576.982 840.463 576.955C840.509 576.824 840.542 576.692 840.576 576.561C840.599 576.471 840.635 576.383 840.653 576.293C840.658 576.27 840.657 576.246 840.661 576.221C840.687 576.083 840.696 575.944 840.708 575.805C840.716 575.715 840.737 575.625 840.74 575.535C840.74 575.496 840.74 575.457 840.74 575.418L840.767 565.609C840.771 565.73 840.75 565.858 840.738 565.987Z" fill="url(#paint12_linear_988_4637)"/>
<path d="M836.87 560.154C842.047 563.143 842.074 567.985 836.931 570.975L730.064 633.078C724.92 636.067 716.561 636.067 711.383 633.078L603.811 570.971C598.634 567.982 598.606 563.139 603.75 560.151L710.616 498.046C715.759 495.058 724.12 495.058 729.297 498.046L836.87 560.154Z" fill="url(#paint13_linear_988_4637)"/>
<path d="M845.619 511.329C845.606 511.474 845.596 511.619 845.57 511.765C845.548 511.883 845.512 511.999 845.481 512.117C845.446 512.254 845.412 512.391 845.364 512.527C845.324 512.64 845.27 512.751 845.219 512.863C845.156 513.008 845.094 513.149 845.018 513.291C844.963 513.392 844.897 513.493 844.834 513.595C844.734 513.756 844.629 513.917 844.511 514.075C844.438 514.168 844.366 514.26 844.289 514.352C844.107 514.571 843.913 514.78 843.707 514.978C843.63 515.051 843.562 515.129 843.479 515.202C843.348 515.321 843.201 515.435 843.058 515.55C842.931 515.652 842.809 515.755 842.672 515.855C842.516 515.968 842.345 516.073 842.177 516.185C842.009 516.297 841.841 516.412 841.655 516.52L730.46 581.141C730.038 581.38 729.605 581.599 729.162 581.795C729.033 581.852 728.902 581.906 728.77 581.962C728.418 582.107 728.058 582.244 727.689 582.372C727.557 582.417 727.428 582.465 727.294 582.507C727.063 582.579 726.824 582.644 726.587 582.709C726.407 582.757 726.229 582.81 726.046 582.854C725.797 582.915 725.542 582.965 725.288 583.016C725.114 583.052 724.943 583.089 724.767 583.122C724.253 583.213 723.731 583.284 723.205 583.34C723.044 583.358 722.88 583.368 722.717 583.382C722.408 583.407 722.099 583.43 721.788 583.443C721.59 583.451 721.392 583.456 721.194 583.459C720.942 583.465 720.691 583.466 720.439 583.463C720.23 583.46 720.021 583.454 719.811 583.446C719.579 583.436 719.346 583.424 719.114 583.408C718.902 583.394 718.69 583.376 718.48 583.355C718.25 583.333 718.021 583.307 717.793 583.278C717.588 583.252 717.383 583.223 717.178 583.192C716.935 583.154 716.693 583.111 716.452 583.065C716.26 583.028 716.069 582.993 715.879 582.949C715.592 582.887 715.309 582.816 715.028 582.741C714.87 582.699 714.711 582.659 714.555 582.614C714.046 582.468 713.557 582.301 713.079 582.115C713.013 582.09 712.951 582.06 712.886 582.034C712.244 581.779 711.621 581.48 711.021 581.139L599.087 516.515C596.377 514.95 595.023 512.897 595.028 510.848L595 555.856C594.994 557.906 596.348 559.959 599.058 561.524L710.992 626.148C711.592 626.489 712.215 626.788 712.856 627.042C712.898 627.059 712.934 627.083 712.977 627.1C713.001 627.11 713.028 627.116 713.049 627.126C713.526 627.312 714.02 627.477 714.524 627.623C714.565 627.636 714.602 627.652 714.644 627.664C714.759 627.697 714.88 627.719 714.997 627.75C715.278 627.823 715.561 627.896 715.848 627.959C715.925 627.976 716 628 716.077 628.015C716.19 628.039 716.307 628.053 716.421 628.075C716.662 628.121 716.902 628.163 717.148 628.201C717.246 628.216 717.342 628.239 717.438 628.253C717.534 628.266 717.656 628.275 717.76 628.288C717.988 628.317 718.217 628.343 718.446 628.365C718.556 628.375 718.664 628.393 718.774 628.402C718.884 628.41 718.979 628.411 719.081 628.418C719.313 628.434 719.546 628.447 719.779 628.455C719.895 628.46 720.011 628.471 720.127 628.474C720.22 628.474 720.313 628.474 720.406 628.474C720.657 628.478 720.909 628.474 721.16 628.471C721.285 628.471 721.409 628.471 721.534 628.471C721.607 628.471 721.68 628.459 721.752 628.455C722.063 628.442 722.372 628.42 722.682 628.394C722.805 628.383 722.931 628.381 723.054 628.369C723.093 628.365 723.127 628.357 723.169 628.353C723.695 628.298 724.217 628.226 724.732 628.135C724.756 628.13 724.782 628.128 724.804 628.124C724.955 628.097 725.099 628.059 725.248 628.029C725.502 627.978 725.757 627.927 726.008 627.867C726.19 627.822 726.366 627.771 726.547 627.721C726.785 627.657 727.023 627.593 727.256 627.519C727.305 627.503 727.358 627.492 727.406 627.477C727.491 627.449 727.567 627.413 727.65 627.384C728.019 627.258 728.379 627.122 728.73 626.974C728.862 626.919 728.995 626.865 729.124 626.807C729.567 626.611 730 626.393 730.42 626.153L841.619 561.532L841.787 561.433C841.913 561.356 842.021 561.274 842.142 561.196C842.309 561.086 842.48 560.978 842.636 560.866C842.772 560.767 842.894 560.663 843.021 560.561C843.167 560.446 843.312 560.332 843.442 560.214C843.469 560.19 843.502 560.167 843.529 560.141C843.582 560.091 843.62 560.037 843.674 559.987C843.879 559.789 844.073 559.58 844.255 559.361C844.295 559.314 844.346 559.271 844.383 559.224C844.42 559.177 844.443 559.13 844.478 559.084C844.595 558.926 844.701 558.765 844.8 558.604C844.842 558.537 844.898 558.471 844.936 558.403C844.956 558.369 844.967 558.33 844.985 558.299C845.057 558.154 845.123 558.015 845.185 557.872C845.222 557.788 845.27 557.706 845.302 557.622C845.313 557.593 845.317 557.564 845.327 557.536C845.375 557.4 845.408 557.263 845.445 557.125C845.469 557.033 845.506 556.941 845.524 556.848C845.529 556.824 845.528 556.798 845.533 556.775C845.559 556.63 845.569 556.485 845.582 556.339C845.591 556.245 845.612 556.152 845.614 556.057C845.614 556.017 845.614 555.977 845.614 555.937L845.643 510.928C845.653 511.063 845.632 511.197 845.619 511.329Z" fill="url(#paint14_linear_988_4637)"/>
<path d="M841.597 505.985C846.984 509.095 847.013 514.134 841.66 517.248L730.462 581.866C725.11 584.976 716.411 584.976 711.024 581.866L599.09 517.241C593.703 514.131 593.674 509.091 599.027 505.981L710.225 441.36C715.577 438.25 724.276 438.25 729.663 441.36L841.597 505.985Z" fill="#EFF3FA"/>
<path d="M804.087 506.999C807.807 509.147 807.827 512.627 804.131 514.774L727.33 559.407C723.633 561.555 717.626 561.555 713.905 559.407L636.597 514.772C632.876 512.625 632.856 509.145 636.552 506.998L713.352 462.365C717.049 460.217 723.057 460.217 726.778 462.365L804.087 506.999Z" fill="#6C96FF"/>
<mask id="mask0_988_4637" style="mask-type:luminance" maskUnits="userSpaceOnUse" x="633" y="460" width="174" height="101">
<path d="M803.864 506.772C807.584 508.92 807.604 512.401 803.908 514.547L727.107 559.18C723.41 561.329 717.403 561.329 713.682 559.18L636.374 514.546C632.653 512.398 632.633 508.918 636.33 506.771L713.13 462.138C716.826 459.99 722.835 459.99 726.555 462.138L803.864 506.772Z" fill="white"/>
</mask>
<g mask="url(#mask0_988_4637)">
<path d="M802.411 543.104C806.131 545.252 806.151 548.733 802.454 550.879L725.654 595.512C721.957 597.661 715.95 597.661 712.229 595.512L634.921 550.878C631.2 548.73 631.18 545.25 634.877 543.103L711.677 498.47C715.373 496.322 721.382 496.322 725.102 498.47L802.411 543.104Z" fill="#6C96FF"/>
</g>
<g clip-path="url(#clip0_988_4637)">
<path d="M765.059 427.409L685.178 477.976C684.292 478.472 681.583 478.639 680.236 477.857C678.895 477.081 675.875 474.359 674.99 472.837C674.117 471.315 671.741 466.056 671.741 464.507L672.677 398.226C672.683 396.536 673.154 394.468 671.685 393.62C670.952 393.197 671.467 387.347 670.984 387.63L752.505 340.182C752.988 339.898 753.656 339.937 754.389 340.367C755.855 341.214 757.038 343.259 757.033 344.948L756.821 418.706C756.821 420.261 757.348 421.935 758.222 423.46C759.101 424.982 760.29 426.287 761.632 427.062C762.979 427.844 764.171 427.916 765.056 427.415L765.059 427.409Z" fill="white"/>
<path d="M765.059 427.409L685.178 477.976C684.292 478.472 681.583 478.639 680.236 477.857C678.895 477.081 675.875 474.359 674.99 472.837C674.117 471.315 671.741 466.056 671.741 464.507L672.677 398.226C672.683 396.536 673.154 394.468 671.685 393.62C670.952 393.197 671.467 387.347 670.984 387.63L752.505 340.182C752.988 339.898 753.656 339.937 754.389 340.367C755.855 341.214 757.038 343.259 757.033 344.948L756.821 418.706C756.821 420.261 757.348 421.935 758.222 423.46C759.101 424.982 760.29 426.287 761.632 427.062C762.979 427.844 764.171 427.916 765.056 427.415L765.059 427.409Z" fill="#E6B380"/>
<path d="M771.991 353.602L771.786 427.36C771.774 430.571 770.629 432.848 768.79 433.893L687.27 481.342C689.106 480.288 687.478 477.924 687.493 474.713L687.714 405.814C687.72 404.134 687.404 404.235 685.943 403.388C685.204 402.964 686.426 396.001 685.943 396.281L767.464 348.83C767.947 348.552 768.614 348.591 769.354 349.015C770.814 349.862 771.997 351.913 771.991 353.602Z" fill="white"/>
<path d="M771.991 353.602L771.786 427.36C771.774 430.571 770.629 432.848 768.79 433.893L687.27 481.342C689.106 480.288 687.478 477.924 687.493 474.713L687.714 405.814C687.72 404.134 687.404 404.235 685.943 403.388C685.204 402.964 686.426 396.001 685.943 396.281L767.464 348.83C767.947 348.552 768.614 348.591 769.354 349.015C770.814 349.862 771.997 351.913 771.991 353.602Z" fill="#D98C40"/>
<path d="M772.001 353.596L771.778 427.351C771.778 430.571 770.639 432.852 768.785 433.881L687.262 481.333C689.116 480.283 687.485 477.913 687.485 474.713L687.64 425.337C693.044 428.802 699.407 430.792 706.218 430.792C725.666 430.792 741.454 414.512 741.454 394.452C741.454 384.815 737.815 376.046 731.874 369.54L767.468 348.833C767.936 348.543 768.607 348.588 769.367 349.012C770.818 349.863 772.001 351.919 772.001 353.596Z" fill="#CC6600"/>
<path d="M687.827 396.466C689.29 397.314 690.473 399.364 690.467 401.048L690.259 474.808C690.25 478.02 689.102 480.294 687.269 481.339C685.436 482.383 682.885 482.222 680.095 480.61C677.311 478.999 674.766 476.214 672.945 473.056C671.121 469.896 669.991 466.302 670 463.094L670.209 389.333C670.215 387.647 671.407 386.972 672.867 387.817C674.331 388.665 675.514 390.715 675.508 392.398L675.299 466.159C675.296 467.708 675.827 469.388 676.703 470.911C677.583 472.43 678.772 473.737 680.113 474.513C681.46 475.292 682.649 475.364 683.535 474.862C684.414 474.355 684.956 473.295 684.959 471.746L685.168 397.986C685.174 396.299 686.363 395.622 687.827 396.469V396.466Z" fill="#F2D9BF"/>
<path d="M730.947 378.413C732.828 377.326 734.357 378.198 734.363 380.362C734.369 382.523 732.849 385.155 730.971 386.244C729.094 387.331 727.565 386.459 727.559 384.298C727.553 382.135 729.073 379.499 730.95 378.413H730.947Z" fill="white"/>
<path d="M718.03 372.539L706.996 366.659L724.191 356.664L734.509 362.633C735.761 363.37 736.921 364.624 737.746 366.054C738.572 367.486 739.085 369.095 739.064 370.548L739.022 386.086C739.022 386.99 738.539 387.826 737.758 388.28L726.581 394.801C724.921 395.771 722.832 394.625 722.76 392.703C722.581 387.859 722.206 380.657 722.206 380.657C721.815 377.279 720.477 374.536 718.03 372.539Z" fill="#666666"/>
<path d="M739.065 370.547L739.023 386.085C739.023 386.989 738.541 387.825 737.76 388.279L726.645 394.764C724.955 395.749 722.83 394.582 722.756 392.627C722.654 389.986 722.499 386.667 722.383 384.19C727.921 382.268 731.718 378.307 731.718 373.768C731.718 367.372 724.237 362.185 714.926 362.05L724.192 356.66L734.508 362.632C735.76 363.369 736.919 364.623 737.745 366.053C738.57 367.485 739.083 369.094 739.062 370.547H739.065Z" fill="#333333"/>
<path d="M730.947 378.413C732.828 377.326 734.357 378.198 734.363 380.362C734.369 382.523 732.849 385.155 730.971 386.244C729.094 387.331 727.565 386.459 727.559 384.298C727.553 382.135 729.073 379.499 730.95 378.413H730.947Z" fill="#F0F5FC"/>
<path d="M756.152 403.056C750.778 399.934 743.318 400.37 735.107 405.118C718.761 414.576 705.558 437.492 705.611 456.304C705.638 465.657 708.926 472.232 714.246 475.327L707.725 471.531C702.416 468.436 699.129 461.861 699.102 452.519C699.036 433.707 712.24 410.78 728.585 401.334C736.812 396.57 744.257 396.135 749.646 399.271L756.155 403.056H756.152Z" fill="#F0F5FC"/>
<path d="M756.094 451.332C767.662 431.373 767.683 409.756 756.141 403.048C744.6 396.34 725.865 407.082 714.297 427.041C702.729 447 702.708 468.617 714.25 475.325C725.792 482.033 744.526 471.291 756.094 451.332Z" fill="#E1EBFA"/>
<path d="M764.785 422.072C764.848 440.893 751.641 463.817 735.299 473.258C718.956 482.713 705.66 475.126 705.61 456.305C705.598 452.393 706.167 448.286 707.222 444.17C710.051 445.543 713.225 446.319 716.587 446.319C728.438 446.319 738.029 436.712 738.029 424.842C738.029 418.222 735.033 412.301 730.327 408.361C731.889 407.155 733.487 406.075 735.111 405.135C751.441 395.68 764.737 403.266 764.788 422.075L764.785 422.072Z" fill="#D2E1F7"/>
<path d="M735.129 415.913C746.282 409.46 755.382 414.657 755.418 427.499C755.453 440.339 746.413 456.032 735.26 462.481C724.116 468.928 715.016 463.732 714.981 450.892C714.945 438.053 723.985 422.363 735.129 415.913Z" fill="white"/>
<path d="M755.417 427.493C755.456 440.342 746.407 456.023 735.257 462.478C724.116 468.922 715.019 463.723 714.98 450.889C714.98 450.215 715.007 449.516 715.058 448.83C716.858 449.376 718.775 449.668 720.769 449.668C731.743 449.668 740.637 440.76 740.637 429.782C740.637 424.407 738.518 419.527 735.042 415.958C735.069 415.946 735.105 415.919 735.132 415.907C746.285 409.463 755.382 414.662 755.42 427.496L755.417 427.493Z" fill="#F0F5FC"/>
<path d="M741.662 437.365C742.261 437.884 742.571 438.836 742.574 440.239C742.577 441.388 742.315 442.582 741.775 443.833C741.239 445.071 740.482 446.253 739.492 447.384C738.503 448.515 737.358 449.491 736.059 450.327L736.064 452.637C736.064 452.924 735.984 453.204 735.823 453.482C735.671 453.747 735.453 453.965 735.194 454.114C734.944 454.258 734.741 454.294 734.58 454.21C734.419 454.135 734.336 453.941 734.336 453.637L734.33 451.327C732.297 452.354 730.393 452.941 728.616 453.106C728.39 453.124 728.205 453.055 728.05 452.894C727.904 452.727 727.823 452.506 727.82 452.225C727.82 451.855 727.931 451.473 728.148 451.079C728.357 450.679 728.64 450.387 728.977 450.19C729.162 450.082 729.349 450.014 729.516 450.008C731.042 449.906 732.64 449.42 734.318 448.533L734.297 441.057C733.012 441.409 731.939 441.603 731.06 441.654C730.181 441.708 729.454 441.487 728.861 440.991C728.276 440.493 727.984 439.603 727.981 438.323C727.978 437.192 728.217 436.013 728.691 434.78C729.17 433.554 729.889 432.342 730.837 431.169C731.778 429.993 732.932 428.946 734.261 428.047L734.255 425.764C734.255 425.486 734.336 425.197 734.494 424.91C734.655 424.621 734.857 424.412 735.105 424.269C735.346 424.128 735.558 424.102 735.728 424.197C735.898 424.293 735.978 424.49 735.981 424.767L735.987 427.012C737.835 426.036 739.471 425.442 740.911 425.245C741.444 425.149 741.704 425.439 741.704 426.086C741.704 426.438 741.599 426.815 741.4 427.209C741.191 427.608 740.917 427.907 740.577 428.101C740.464 428.167 740.312 428.217 740.124 428.232C738.839 428.453 737.459 428.963 735.993 429.745L736.014 437.481C737.37 437.07 738.5 436.816 739.397 436.735C740.294 436.646 741.045 436.861 741.653 437.365H741.662ZM736.053 447.53C738.714 445.779 740.032 443.77 740.026 441.517C740.026 440.672 739.692 440.215 739.021 440.129C738.351 440.051 737.358 440.188 736.035 440.535L736.056 447.53M734.3 437.989L734.279 430.835C733.15 431.664 732.249 432.584 731.573 433.59C730.896 434.601 730.559 435.607 730.562 436.598C730.562 437.553 730.881 438.114 731.513 438.269C732.145 438.425 733.072 438.335 734.3 437.989Z" fill="#D2E1F7"/>
</g>
<path opacity="0.4" d="M656 210.546V525.194C656.101 525.584 656.352 525.889 656.704 526.041L718.581 560.605C719.905 561.181 721.43 561.13 722.704 560.435L783.994 526.21C784.447 526.007 784.799 525.618 784.966 525.126H785V209.801L720.508 175L656 210.546Z" fill="url(#paint15_linear_988_4637)"/>
<defs>
<linearGradient id="paint0_linear_988_4637" x1="1210.83" y1="632.472" x2="1180.15" y2="743.33" gradientUnits="userSpaceOnUse">
<stop stop-color="#CAD1E0"/>
<stop offset="0.44" stop-color="white"/>
<stop offset="1" stop-color="#C8CEDE"/>
</linearGradient>
<linearGradient id="paint1_linear_988_4637" x1="1221.14" y1="654.585" x2="1139.94" y2="654.585" gradientUnits="userSpaceOnUse">
<stop stop-color="#CAD1E0"/>
<stop offset="0.44" stop-color="white"/>
<stop offset="1" stop-color="#C8CEDE"/>
</linearGradient>
<linearGradient id="paint2_linear_988_4637" x1="1225.73" y1="665.193" x2="1052.37" y2="665.193" gradientUnits="userSpaceOnUse">
<stop stop-color="white"/>
<stop offset="0.51" stop-color="#CAD1E0"/>
<stop offset="1" stop-color="#C8CEDE"/>
</linearGradient>
<linearGradient id="paint3_linear_988_4637" x1="1225.18" y1="668.705" x2="1053.64" y2="668.705" gradientUnits="userSpaceOnUse">
<stop stop-color="white"/>
<stop offset="0.51" stop-color="#CAD1E0"/>
<stop offset="1" stop-color="#C8CEDE"/>
</linearGradient>
<linearGradient id="paint4_linear_988_4637" x1="1139.86" y1="544.002" x2="1139.86" y2="691.847" gradientUnits="userSpaceOnUse">
<stop stop-color="#AADFF7" stop-opacity="0"/>
<stop offset="1" stop-color="#69A1E3"/>
</linearGradient>
<linearGradient id="paint5_linear_988_4637" x1="372.832" y1="632.472" x2="342.153" y2="743.33" gradientUnits="userSpaceOnUse">
<stop stop-color="#CAD1E0"/>
<stop offset="0.44" stop-color="white"/>
<stop offset="1" stop-color="#C8CEDE"/>
</linearGradient>
<linearGradient id="paint6_linear_988_4637" x1="383.14" y1="654.585" x2="301.939" y2="654.585" gradientUnits="userSpaceOnUse">
<stop stop-color="#CAD1E0"/>
<stop offset="0.44" stop-color="white"/>
<stop offset="1" stop-color="#C8CEDE"/>
</linearGradient>
<linearGradient id="paint7_linear_988_4637" x1="387.725" y1="665.193" x2="214.367" y2="665.193" gradientUnits="userSpaceOnUse">
<stop stop-color="white"/>
<stop offset="0.51" stop-color="#CAD1E0"/>
<stop offset="1" stop-color="#C8CEDE"/>
</linearGradient>
<linearGradient id="paint8_linear_988_4637" x1="387.183" y1="668.705" x2="215.637" y2="668.705" gradientUnits="userSpaceOnUse">
<stop stop-color="white"/>
<stop offset="0.51" stop-color="#CAD1E0"/>
<stop offset="1" stop-color="#C8CEDE"/>
</linearGradient>
<linearGradient id="paint9_linear_988_4637" x1="301.862" y1="544.002" x2="301.862" y2="691.847" gradientUnits="userSpaceOnUse">
<stop stop-color="#AADFF7" stop-opacity="0"/>
<stop offset="1" stop-color="#69A1E3"/>
</linearGradient>
<linearGradient id="paint10_linear_988_4637" x1="865.956" y1="386.946" x2="732.701" y2="832.373" gradientUnits="userSpaceOnUse">
<stop stop-color="white"/>
<stop offset="1" stop-color="#C5CCDC"/>
</linearGradient>
<linearGradient id="paint11_linear_988_4637" x1="719.341" y1="663.034" x2="719.846" y2="523.231" gradientUnits="userSpaceOnUse">
<stop stop-color="white"/>
<stop offset="0.545" stop-color="#E7F5FF"/>
<stop offset="1" stop-color="#8BBFFF"/>
</linearGradient>
<linearGradient id="paint12_linear_988_4637" x1="808.489" y1="422.714" x2="791.731" y2="680.966" gradientUnits="userSpaceOnUse">
<stop stop-color="#30508C"/>
<stop offset="1" stop-color="#5080D3"/>
</linearGradient>
<linearGradient id="paint13_linear_988_4637" x1="927.48" y1="602.673" x2="542.117" y2="396.74" gradientUnits="userSpaceOnUse">
<stop stop-color="#30508C"/>
<stop offset="1" stop-color="#5080D3"/>
</linearGradient>
<linearGradient id="paint14_linear_988_4637" x1="831.86" y1="346.404" x2="788.108" y2="680.805" gradientUnits="userSpaceOnUse">
<stop stop-color="white"/>
<stop offset="1" stop-color="#C5CCDC"/>
</linearGradient>
<linearGradient id="paint15_linear_988_4637" x1="720.457" y1="514.073" x2="720.457" y2="289.652" gradientUnits="userSpaceOnUse">
<stop stop-color="#7F9DFF"/>
<stop offset="1" stop-color="white" stop-opacity="0"/>
</linearGradient>
<clipPath id="clip0_988_4637">
<rect width="102" height="142" fill="white" transform="translate(670 340)"/>
</clipPath>
</defs>
</svg>
