<svg width="268" height="340" viewBox="0 0 268 340" fill="none" xmlns="http://www.w3.org/2000/svg">
<path d="M130.5 336.484C132.352 337.561 135.788 337.393 137.977 336.13L263.558 263.614C264.552 263.041 265.141 262.334 265.141 261.711C265.107 261.441 264.989 261.172 264.821 260.953C264.653 260.734 264.434 260.549 264.164 260.448L137.354 187.241C135.501 186.164 132.066 186.332 129.877 187.595L4.29557 260.111C3.30197 260.684 2.71255 261.391 2.71255 262.014C2.74623 262.284 2.86412 262.553 3.03252 262.772C3.20093 262.991 3.41986 263.159 3.68931 263.277L130.5 336.484ZM133.699 339.178C132.251 339.212 130.803 338.875 129.523 338.201L2.71255 264.995C2.13996 264.725 1.66842 264.305 1.31476 263.782C0.977951 263.26 0.775869 262.654 0.742188 262.031C0.742188 260.667 1.68527 259.353 3.30198 258.41L128.883 185.894C131.695 184.278 135.855 184.109 138.331 185.54L265.141 258.747C265.714 259.017 266.185 259.438 266.539 259.96C266.876 260.482 267.078 261.088 267.111 261.728C267.111 263.092 266.168 264.405 264.552 265.349L138.971 337.865C137.354 338.757 135.535 339.212 133.699 339.195V339.178Z" fill="#1B69FF"/>
<path opacity="0.5" d="M46.2373 250.974V227.799L50.4794 225.438C51.6701 232.668 60.2099 237.445 67.3356 238.43L115.877 266.79L137.068 274.429L204.698 239.563L203.135 238.671C208.921 235.976 212.028 229.806 215.154 224.175L219.712 226.888L222.41 227.65V251.216C222.41 254.227 220.419 257.219 216.456 259.505L148.696 298.571C140.77 303.143 127.858 303.143 119.932 298.571L52.1724 259.505C48.2653 257.256 46.2932 254.301 46.2188 251.346C46.2188 251.216 46.2188 251.086 46.2188 250.956L46.2373 250.974Z" fill="#5284D8"/>
<path d="M46.2373 230.363V215.031L50.4794 212.67C51.6701 219.9 60.2099 224.676 67.3356 225.661L115.877 254.022L137.068 261.661L204.698 226.795L203.135 225.903C208.921 223.208 212.028 217.038 215.154 211.407L219.712 214.12L222.41 214.882V230.605C222.41 233.616 220.419 236.608 216.456 238.894L148.696 277.96C140.77 282.532 127.858 282.532 119.932 277.96L52.1724 238.894C48.2653 236.645 46.2932 233.709 46.2188 230.735C46.2188 230.605 46.2188 230.475 46.2188 230.345L46.2373 230.363Z" fill="url(#paint0_linear_0_1)"/>
<path opacity="0.3" d="M67.3356 225.68L115.877 254.041L134.314 260.694V281.435C129.309 281.528 124.36 280.358 119.932 277.997L52.1724 238.931C48.2653 236.682 46.2932 233.746 46.2188 230.772C46.2188 230.642 46.2188 230.512 46.2188 230.382V215.049L50.1072 212.893H50.5165C51.8375 220.012 60.2657 224.714 67.3356 225.68Z" fill="#0F054C"/>
<path d="M134.328 169.906L141.882 167.917L158.664 177.767L215.168 211.425C212.042 217.057 208.935 223.227 203.149 225.922L138.942 188.9C137.528 188.138 135.947 187.766 134.328 187.803V169.925V169.906Z" fill="url(#paint1_linear_0_1)"/>
<path d="M148.715 262.404L216.475 223.338C224.401 218.766 224.401 211.314 216.475 206.742L148.734 167.676C140.808 163.104 127.896 163.104 119.97 167.676L52.21 206.742C44.2842 211.314 44.2842 218.766 52.21 223.338L119.97 262.404C127.896 266.976 140.808 266.976 148.734 262.404H148.715Z" fill="url(#paint2_linear_0_1)"/>
<path d="M52.1963 223.338L119.956 262.404C127.882 266.976 140.794 266.976 148.72 262.404L216.48 223.338C220.034 221.294 221.987 218.673 222.359 215.997C222.824 219.305 220.871 222.725 216.48 225.253L148.72 264.319C140.794 268.891 127.882 268.891 119.956 264.319L52.1963 225.253C47.8055 222.725 45.8519 219.305 46.3171 215.997C46.6892 218.673 48.6427 221.294 52.1963 223.338Z" fill="white"/>
<path d="M146.799 261.308L214.559 222.242C221.443 218.283 221.443 211.815 214.559 207.857L146.818 168.791C139.934 164.832 128.752 164.832 121.868 168.791L54.1083 207.857C47.2243 211.815 47.2243 218.283 54.1083 222.242L121.85 261.308C128.734 265.285 139.915 265.266 146.799 261.308ZM127.803 172.211C131.897 170.129 136.752 170.129 140.846 172.211L208.587 211.277C212.178 213.358 212.178 216.722 208.587 218.804L140.827 257.869C136.734 259.932 131.896 259.932 127.785 257.869L60.0247 218.804C56.4339 216.722 56.4339 213.358 60.0247 211.277L127.785 172.211H127.803Z" fill="url(#paint3_linear_0_1)"/>
<path opacity="0.5" d="M67 219.068V0H201V219.068C200.91 220.153 200.258 221.08 199.29 221.532L138.162 257C135.552 258.333 132.47 258.333 129.838 257L68.7099 221.532C67.7199 221.102 67.0675 220.153 67 219.068Z" fill="url(#paint4_linear_0_1)"/>
<path d="M124.289 255.733L71.4499 224.576C68.5498 222.865 67.0486 220.68 67.0162 218.6H67V210.621H75.6878L125.62 181.122C130.255 178.384 138.358 178.725 143.712 181.883L192.451 210.621H200.954V218.558C201.181 220.482 200.168 222.354 197.862 223.717L142.383 256.494C139.962 257.785 137.255 258.422 134.522 258.343C130.948 258.376 127.426 257.477 124.289 255.733Z" fill="url(#paint5_linear_0_1)"/>
<path d="M70.1276 207.439L125.619 174.84C130.257 172.116 138.356 172.456 143.714 175.597L196.565 206.585C201.923 209.728 202.509 214.483 197.872 217.205L142.381 249.805C137.743 252.528 129.644 252.19 124.286 249.048L71.4344 218.059C66.0774 214.917 65.4914 210.162 70.1276 207.439Z" fill="url(#paint6_linear_0_1)"/>
<path d="M137.76 221.534L130.25 217.129C125.706 214.465 130.382 211.805 130.382 211.805L138.573 206.994C143.486 204.108 138.473 201.352 138.473 201.352L134.401 198.964L137.286 197.269C137.286 197.269 141.809 194.247 150.582 199.392C159.355 204.536 153.187 207.42 153.187 207.42L141.649 214.198L142.821 214.887L151.08 210.035L154.996 212.32C154.996 212.32 159.308 214.213 150.652 219.298C146.461 221.76 143.387 222.42 141.293 222.42C140.053 222.505 138.819 222.195 137.76 221.534ZM149.591 213.332C149.411 213.394 149.255 213.512 149.145 213.669C149.035 213.827 148.976 214.015 148.977 214.209C148.977 214.402 149.038 214.59 149.149 214.746C149.261 214.903 149.418 215.019 149.599 215.08C150.06 215.318 150.57 215.442 151.088 215.442C151.606 215.442 152.116 215.318 152.577 215.08C152.757 215.017 152.913 214.899 153.023 214.742C153.134 214.585 153.193 214.396 153.192 214.203C153.191 214.01 153.13 213.822 153.019 213.665C152.907 213.509 152.75 213.392 152.57 213.331C152.109 213.093 151.599 212.969 151.081 212.969C150.564 212.969 150.053 213.093 149.592 213.331L149.591 213.332ZM116.402 219.367C107.628 214.223 113.797 211.34 113.797 211.34L125.335 204.561L124.163 203.873L115.904 208.726L111.988 206.44C111.988 206.44 107.676 204.547 116.332 199.463C125.376 194.15 129.224 197.226 129.224 197.226L136.733 201.632C141.277 204.296 136.601 206.956 136.601 206.956L128.41 211.768C123.498 214.654 128.51 217.41 128.51 217.41L132.582 219.797L129.697 221.492C128.493 222.139 127.141 222.443 125.782 222.374C123.572 222.369 120.436 221.733 116.402 219.367ZM114.404 203.678C114.224 203.74 114.068 203.858 113.957 204.015C113.847 204.173 113.788 204.361 113.789 204.554C113.79 204.748 113.85 204.936 113.962 205.092C114.073 205.249 114.231 205.365 114.411 205.426C114.872 205.664 115.382 205.789 115.9 205.789C116.418 205.789 116.928 205.664 117.389 205.426C117.569 205.363 117.725 205.245 117.835 205.088C117.945 204.931 118.004 204.742 118.003 204.549C118.002 204.356 117.942 204.167 117.83 204.011C117.719 203.855 117.562 203.738 117.382 203.677C116.92 203.439 116.41 203.314 115.892 203.314C115.375 203.314 114.864 203.439 114.403 203.677L114.404 203.678Z" fill="white"/>
<defs>
<linearGradient id="paint0_linear_0_1" x1="206.051" y1="179.472" x2="175.372" y2="290.33" gradientUnits="userSpaceOnUse">
<stop stop-color="#CAD1E0"/>
<stop offset="0.44" stop-color="white"/>
<stop offset="1" stop-color="#C8CEDE"/>
</linearGradient>
<linearGradient id="paint1_linear_0_1" x1="216.355" y1="201.584" x2="135.154" y2="201.584" gradientUnits="userSpaceOnUse">
<stop stop-color="#CAD1E0"/>
<stop offset="0.44" stop-color="white"/>
<stop offset="1" stop-color="#C8CEDE"/>
</linearGradient>
<linearGradient id="paint2_linear_0_1" x1="220.944" y1="212.194" x2="47.5855" y2="212.194" gradientUnits="userSpaceOnUse">
<stop stop-color="white"/>
<stop offset="0.51" stop-color="#CAD1E0"/>
<stop offset="1" stop-color="#C8CEDE"/>
</linearGradient>
<linearGradient id="paint3_linear_0_1" x1="220.402" y1="215.707" x2="48.856" y2="215.707" gradientUnits="userSpaceOnUse">
<stop stop-color="white"/>
<stop offset="0.51" stop-color="#CAD1E0"/>
<stop offset="1" stop-color="#C8CEDE"/>
</linearGradient>
<linearGradient id="paint4_linear_0_1" x1="134.925" y1="66.8999" x2="134.925" y2="246.725" gradientUnits="userSpaceOnUse">
<stop stop-color="#AADFF7" stop-opacity="0"/>
<stop offset="1" stop-color="#69A1E3"/>
</linearGradient>
<linearGradient id="paint5_linear_0_1" x1="67" y1="218.811" x2="200.986" y2="218.811" gradientUnits="userSpaceOnUse">
<stop stop-color="#1D53DA"/>
<stop offset="1" stop-color="#3F75FC"/>
</linearGradient>
<linearGradient id="paint6_linear_0_1" x1="95.408" y1="251.645" x2="127.184" y2="157.649" gradientUnits="userSpaceOnUse">
<stop stop-color="#0397F6"/>
<stop offset="1" stop-color="#00B8FE"/>
</linearGradient>
</defs>
</svg>
