<svg width="39" height="39" viewBox="0 0 39 39" fill="none" xmlns="http://www.w3.org/2000/svg">
<g clip-path="url(#clip0_9_78223)">
<path d="M19.4993 11.3945C16.7693 11.3945 14.1007 12.204 11.8308 13.7207C9.56098 15.2373 7.79182 17.393 6.74708 19.9151C5.70233 22.4372 5.42893 25.2125 5.96144 27.8899C6.49395 30.5674 7.80846 33.0269 9.73874 34.9573C11.669 36.8877 14.1284 38.2024 16.8058 38.7351C19.4833 39.2678 22.2586 38.9946 24.7807 37.95C27.3029 36.9055 29.4587 35.1365 30.9755 32.8667C32.4923 30.597 33.302 27.9284 33.3022 25.1985C33.2983 21.5388 31.8428 18.0302 29.2551 15.4423C26.6675 12.8544 23.1589 11.3987 19.4993 11.3945ZM25.9243 32.2878H25.8838C25.5878 32.2874 25.3035 32.1723 25.0907 31.9665C24.8779 31.7607 24.7533 31.4804 24.7431 31.1846L24.7243 30.6183C23.2367 31.8233 21.4117 32.5369 19.5012 32.6604C19.295 32.6749 19.0881 32.6822 18.8805 32.6822C17.6601 32.6844 16.4512 32.4454 15.3235 31.9789C14.1958 31.5124 13.1713 30.8276 12.3091 29.9639C12.1061 29.7475 11.9952 29.4606 12 29.1638C12.0047 28.8671 12.1247 28.5839 12.3345 28.3741C12.5443 28.1642 12.8276 28.0443 13.1243 28.0395C13.421 28.0348 13.7079 28.1457 13.9243 28.3487C14.5738 29.0014 15.3462 29.5188 16.1969 29.871C17.0476 30.2233 17.9597 30.4033 18.8805 30.4008C19.0894 30.4008 19.2963 30.3916 19.5012 30.3731C20.7614 30.2646 21.968 29.8138 22.9905 29.0693L22.6139 29.0565C22.3159 29.0443 22.0344 28.916 21.8297 28.699C21.625 28.4821 21.5132 28.1937 21.5182 27.8955C21.5232 27.5972 21.6447 27.3128 21.8566 27.1029C22.0686 26.893 22.3542 26.7743 22.6525 26.7721H22.692L25.8166 26.8799C26.1025 26.8915 26.3738 27.0094 26.5775 27.2105C26.7811 27.4116 26.9024 27.6814 26.9177 27.9672C26.9177 27.9731 26.9177 27.979 26.9177 27.985L27.0254 31.1095C27.0356 31.4123 26.9251 31.7067 26.7182 31.928C26.5114 32.1493 26.2251 32.2794 25.9223 32.2897L25.9243 32.2878ZM26.6933 22.0472C26.4789 22.261 26.1885 22.3811 25.8857 22.3811C25.583 22.3811 25.2926 22.261 25.0782 22.0472C23.8986 20.8707 22.3389 20.1521 20.6781 20.0201C19.0172 19.888 17.3636 20.3512 16.0129 21.3266L16.3886 21.3395C16.6866 21.3517 16.968 21.48 17.1728 21.6969C17.3775 21.9139 17.4893 22.2023 17.4843 22.5005C17.4792 22.7987 17.3578 23.0832 17.1458 23.2931C16.9339 23.503 16.6483 23.6217 16.35 23.6238H16.3105L13.1859 23.5161C12.8999 23.5047 12.6284 23.3869 12.4247 23.1857C12.2211 22.9846 12.0998 22.7147 12.0848 22.4288C12.0848 22.4229 12.0848 22.4169 12.0848 22.411L11.977 19.2874C11.9665 18.9845 12.0768 18.6898 12.2836 18.4682C12.4904 18.2466 12.7767 18.1162 13.0797 18.1057C13.3826 18.0952 13.6773 18.2055 13.8989 18.4123C14.1205 18.6191 14.2509 18.9054 14.2614 19.2084L14.2801 19.7748C16.0664 18.3347 18.3216 17.605 20.613 17.7258C22.9043 17.8465 25.0703 18.8092 26.6953 20.4291C26.8014 20.5352 26.8856 20.6612 26.9431 20.7999C27.0005 20.9385 27.0301 21.0871 27.0301 21.2372C27.0301 21.3873 27.0005 21.5359 26.9431 21.6745C26.8856 21.8132 26.8014 21.9392 26.6953 22.0453L26.6933 22.0472Z" fill="#1B69FF"/>
<path d="M30.6842 8.34267C29.7944 7.11922 28.6281 6.12335 27.2803 5.43624C25.9326 4.74913 24.4415 4.39023 22.9287 4.3888C21.7583 4.37578 20.5957 4.58127 19.5007 4.99473C18.9962 3.53726 18.0503 2.27312 16.7943 1.378C15.5384 0.482877 14.0347 0.00123339 12.4924 1.87957e-06C11.3997 -0.000769812 10.3199 0.236092 9.32789 0.694169C8.33584 1.15225 7.45527 1.82058 6.74721 2.65285C6.03916 3.48511 5.52057 4.4614 5.22738 5.51403C4.93419 6.56667 4.87342 7.67047 5.04928 8.74893C3.88928 9.15427 2.84772 9.8406 2.01765 10.7466C1.25329 11.574 0.682398 12.561 0.346272 13.6361C0.0101452 14.7112 -0.0828094 15.8475 0.0741323 16.963C0.231074 18.0784 0.633988 19.145 1.25373 20.0856C1.87346 21.0262 2.69453 21.8173 3.65752 22.4016C4.31461 18.6767 6.26304 15.3024 9.16064 12.8712C12.0582 10.44 15.7197 9.10744 19.5022 9.10744C23.2846 9.10744 26.9461 10.44 29.8437 12.8712C32.7413 15.3024 34.6897 18.6767 35.3468 22.4016C36.816 21.5084 37.9388 20.1433 38.5318 18.5294C39.1248 16.9155 39.153 15.1482 38.6118 13.5162C38.0705 11.8842 36.9919 10.484 35.5519 9.54428C34.112 8.6046 32.396 8.18099 30.6842 8.34267Z" fill="#1B69FF"/>
</g>
<defs>
<clipPath id="clip0_9_78223">
<rect width="39" height="39" fill="white"/>
</clipPath>
</defs>
</svg>
