<svg width="435" height="551" viewBox="0 0 435 551" fill="none" xmlns="http://www.w3.org/2000/svg">
<g opacity="0.79">
<path d="M528.461 553.735C528.461 553.735 527.387 257.051 525.607 249.645C523.827 242.24 518.495 245.694 518.495 245.694C516.485 257.813 502.203 251.208 490.266 252.866L408.956 300.348L373.475 313.139L260.21 254.772L262.825 253.262C253.143 248.746 247.6 251.801 242.362 242.383L234.738 246.921L230.207 248.196L233.392 554.145C233.392 559.176 236.713 564.206 243.356 568.032L351.811 630.563L356.829 633.456C370.114 641.113 391.734 641.113 405.021 633.456L518.493 568.032C525.026 564.267 528.348 559.334 528.452 554.389C528.457 554.17 528.447 553.95 528.439 553.725L528.461 553.735Z" fill="url(#paint0_linear_924_4638)"/>
<path d="M520.01 242.135L408.102 177.668C398.314 172.03 387.203 169.083 375.903 169.129C364.603 169.175 353.518 172.212 343.776 177.93L236.517 240.886C234.783 241.903 233.346 243.356 232.349 245.1C231.353 246.844 230.83 248.818 230.834 250.826C230.838 252.834 231.368 254.806 232.372 256.546C233.376 258.286 234.819 259.733 236.556 260.744L350.754 327.157C358.825 331.851 367.998 334.324 377.339 334.324C386.679 334.324 395.852 331.851 403.923 327.157L520.046 259.621C521.578 258.729 522.849 257.452 523.731 255.915C524.613 254.379 525.075 252.638 525.072 250.867C525.068 249.097 524.599 247.358 523.71 245.825C522.822 244.292 521.546 243.02 520.01 242.135Z" fill="url(#paint1_linear_924_4638)"/>
</g>
<g opacity="0.45">
<path d="M296.587 712.987C296.587 712.987 297.557 136.373 295.782 128.969C294.007 121.566 288.67 125.018 288.67 125.018C286.66 137.137 272.378 130.532 260.441 132.19L179.133 179.673L143.653 192.464L30.3878 134.096L33.0024 132.587C23.3209 128.07 17.7779 131.125 12.5394 121.707L4.91623 126.245L0.384766 127.52L1.52588 713.397C1.52588 718.429 4.84742 723.459 11.4898 727.284L119.945 789.815L124.963 792.708C138.248 800.365 159.869 800.365 173.155 792.708L286.627 727.284C293.16 723.519 296.482 718.586 296.586 713.641C296.591 713.422 296.582 713.203 296.573 712.977L296.587 712.987Z" fill="url(#paint2_linear_924_4638)"/>
<path d="M290.18 121.463L178.272 56.9965C168.484 51.358 157.373 48.4116 146.073 48.4576C134.773 48.5035 123.688 51.5403 113.946 57.2583L6.68672 120.214C4.95308 121.231 3.51636 122.684 2.51939 124.428C1.52242 126.172 0.99996 128.146 1.00393 130.154C1.00796 132.162 1.53827 134.134 2.54218 135.874C3.54608 137.614 4.98858 139.061 6.72625 140.072L120.924 206.485C128.995 211.179 138.168 213.652 147.509 213.652C156.849 213.652 166.022 211.179 174.093 206.485L290.216 138.949C291.748 138.057 293.019 136.78 293.901 135.243C294.783 133.707 295.245 131.966 295.242 130.196C295.238 128.425 294.769 126.686 293.88 125.153C292.992 123.621 291.716 122.348 290.18 121.463Z" fill="url(#paint3_linear_924_4638)"/>
</g>
<path d="M204.767 50.0218C189.512 41.4044 174.599 26.7057 162.099 7.97108L161.93 7.87463C149.43 12.1914 134.516 9.69602 119.257 0.724846L118.672 0.382812L119.495 28.8444C122.389 72.9628 137.459 92.1653 161.712 133.184L162.303 133.524C186.556 120.473 201.624 118.645 204.519 77.8628L205.343 50.3514L204.767 50.0218Z" fill="url(#paint4_linear_924_4638)"/>
<path d="M158.999 114.512C140.172 83.3261 130.701 67.6364 128.418 33.4094L127.898 15.4414C139.986 20.8998 151.575 22.6394 162.017 20.5636C172.454 34.676 184.044 46.2989 196.131 54.7797L195.611 72.1483C193.327 103.747 183.856 108.515 165.027 117.995C164.042 118.492 163.038 118.999 162.017 119.516L158.999 114.512Z" fill="url(#paint5_linear_924_4638)"/>
<g opacity="0.79">
<g style="mix-blend-mode:multiply">
<path d="M364.352 277.977C365.123 277.985 365.882 277.798 366.561 277.433L390.825 264.162C391.309 263.913 391.718 263.539 392.009 263.079C392.299 262.619 392.462 262.09 392.479 261.546C392.475 261.013 392.328 260.491 392.054 260.034C391.779 259.577 391.388 259.201 390.919 258.946L341.147 230.361C340.473 229.981 339.71 229.787 338.936 229.797C338.164 229.789 337.402 229.977 336.724 230.345L312.463 243.613C311.979 243.862 311.57 244.236 311.279 244.696C310.988 245.156 310.826 245.685 310.809 246.229C310.813 246.762 310.96 247.284 311.235 247.741C311.509 248.199 311.901 248.574 312.37 248.829L362.142 277.415C362.817 277.793 363.579 277.987 364.353 277.977H364.352Z" fill="white"/>
<path d="M312.481 243.646C312.003 243.892 311.599 244.262 311.311 244.716C311.024 245.171 310.863 245.694 310.846 246.231C310.85 246.758 310.996 247.273 311.267 247.725C311.538 248.177 311.925 248.548 312.389 248.8L362.161 277.385C362.835 277.763 363.599 277.954 364.372 277.938C365.141 277.941 365.898 277.752 366.574 277.387L390.809 264.132C391.287 263.886 391.692 263.517 391.979 263.063C392.267 262.609 392.428 262.086 392.445 261.549C392.441 261.023 392.296 260.506 392.025 260.055C391.753 259.603 391.366 259.232 390.903 258.98L341.162 230.413C340.486 230.042 339.728 229.846 338.957 229.84C338.186 229.834 337.426 230.02 336.744 230.38L312.481 243.646Z" fill="#FEFEFE"/>
<path d="M312.498 243.678C312.025 243.921 311.626 244.285 311.342 244.734C311.057 245.183 310.898 245.699 310.881 246.23C310.885 246.75 311.029 247.26 311.297 247.706C311.565 248.152 311.948 248.519 312.406 248.768L362.178 277.353C362.852 277.73 363.616 277.918 364.388 277.897C365.155 277.894 365.909 277.702 366.584 277.338L390.79 264.099C391.263 263.857 391.662 263.492 391.947 263.044C392.231 262.595 392.39 262.079 392.407 261.548C392.403 261.028 392.259 260.518 391.991 260.072C391.723 259.626 391.34 259.26 390.882 259.011L341.171 230.461C340.499 230.082 339.741 229.882 338.969 229.88C338.199 229.862 337.437 230.044 336.759 230.41L312.498 243.678Z" fill="#FDFDFD"/>
<path d="M312.516 243.706C312.049 243.946 311.655 244.306 311.374 244.749C311.093 245.192 310.935 245.702 310.918 246.226C310.923 246.74 311.065 247.244 311.33 247.684C311.596 248.125 311.974 248.486 312.426 248.732L362.198 277.317C362.872 277.693 363.636 277.878 364.407 277.852C365.173 277.844 365.925 277.649 366.598 277.286L390.774 264.063C391.241 263.823 391.635 263.463 391.916 263.02C392.197 262.577 392.355 262.067 392.372 261.543C392.368 261.029 392.226 260.526 391.961 260.086C391.696 259.645 391.318 259.283 390.866 259.038L341.185 230.505C340.515 230.127 339.76 229.924 338.989 229.916C338.22 229.893 337.457 230.073 336.78 230.438L312.516 243.706Z" fill="#FCFCFC"/>
<path d="M312.535 243.738C312.074 243.975 311.684 244.329 311.407 244.766C311.129 245.203 310.973 245.706 310.955 246.223C310.96 246.731 311.1 247.228 311.362 247.663C311.624 248.098 311.997 248.455 312.444 248.697L362.216 277.282C362.889 277.658 363.653 277.84 364.424 277.809C365.188 277.795 365.937 277.598 366.609 277.235L390.755 264.028C391.217 263.792 391.606 263.437 391.884 263C392.162 262.563 392.317 262.06 392.335 261.543C392.331 261.036 392.191 260.539 391.929 260.103C391.667 259.668 391.294 259.311 390.847 259.069L341.198 230.554C340.527 230.175 339.772 229.969 339.002 229.956C338.233 229.928 337.471 230.104 336.794 230.468L312.535 243.738Z" fill="#FBFBFB"/>
<path d="M312.553 243.771C312.097 244.004 311.712 244.355 311.438 244.787C311.164 245.219 311.01 245.716 310.992 246.227C310.997 246.728 311.136 247.219 311.394 247.649C311.653 248.078 312.022 248.431 312.463 248.67L362.236 277.255C362.909 277.629 363.673 277.808 364.442 277.773C365.205 277.752 365.952 277.552 366.622 277.188L390.737 263.995C391.193 263.762 391.578 263.411 391.853 262.979C392.127 262.547 392.281 262.05 392.298 261.539C392.294 261.038 392.156 260.547 391.897 260.118C391.639 259.688 391.27 259.336 390.829 259.097L341.21 230.599C340.541 230.22 339.789 230.012 339.021 229.992C338.254 229.959 337.491 230.133 336.814 230.497L312.553 243.771Z" fill="#FAFAFB"/>
<path d="M312.573 243.806C312.123 244.036 311.743 244.382 311.472 244.809C311.201 245.235 311.049 245.726 311.031 246.23C311.035 246.725 311.172 247.21 311.428 247.634C311.683 248.058 312.048 248.406 312.484 248.642L362.256 277.227C362.928 277.602 363.692 277.779 364.461 277.739C365.222 277.714 365.966 277.512 366.636 277.15L390.723 263.975C391.173 263.745 391.553 263.399 391.824 262.973C392.096 262.547 392.248 262.056 392.265 261.552C392.261 261.057 392.124 260.572 391.869 260.148C391.614 259.724 391.249 259.375 390.814 259.14L341.225 230.659C340.557 230.281 339.808 230.07 339.041 230.044C338.275 230.006 337.512 230.177 336.835 230.54L312.573 243.806Z" fill="#F9F9FA"/>
<path d="M312.588 243.837C312.144 244.065 311.768 244.406 311.5 244.827C311.233 245.248 311.082 245.732 311.064 246.23C311.069 246.719 311.204 247.197 311.456 247.616C311.708 248.034 312.068 248.378 312.498 248.61L362.27 277.195C362.943 277.568 363.707 277.741 364.474 277.695C365.233 277.664 365.975 277.46 366.643 277.098L390.7 263.942C391.145 263.715 391.52 263.374 391.788 262.953C392.056 262.533 392.206 262.048 392.224 261.55C392.22 261.062 392.085 260.584 391.832 260.165C391.58 259.747 391.221 259.404 390.79 259.171L341.232 230.708C340.566 230.33 339.819 230.117 339.053 230.085C338.287 230.042 337.524 230.21 336.848 230.572L312.588 243.837Z" fill="#F8F8F9"/>
<path d="M312.606 243.868C312.167 244.092 311.797 244.429 311.532 244.844C311.268 245.259 311.119 245.737 311.102 246.228C311.106 246.711 311.24 247.183 311.489 247.596C311.738 248.009 312.093 248.347 312.518 248.577L362.29 277.162C362.962 277.533 363.727 277.703 364.493 277.652C365.251 277.616 365.99 277.41 366.657 277.049L390.685 263.907C391.124 263.683 391.494 263.346 391.759 262.931C392.023 262.516 392.172 262.038 392.189 261.547C392.185 261.065 392.052 260.593 391.803 260.18C391.554 259.767 391.199 259.428 390.774 259.199L341.247 230.754C340.581 230.376 339.836 230.16 339.072 230.121C338.307 230.073 337.544 230.239 336.869 230.6L312.606 243.868Z" fill="#F7F7F8"/>
<path d="M312.623 243.9C312.19 244.121 311.824 244.454 311.563 244.863C311.302 245.272 311.154 245.744 311.137 246.229C311.141 246.705 311.273 247.17 311.519 247.578C311.765 247.985 312.115 248.32 312.534 248.546L362.306 277.131C362.978 277.501 363.743 277.668 364.508 277.612C365.263 277.57 366 277.361 366.666 277.001L390.664 263.875C391.097 263.655 391.463 263.323 391.724 262.913C391.985 262.504 392.132 262.032 392.15 261.547C392.146 261.072 392.014 260.606 391.768 260.199C391.523 259.791 391.172 259.457 390.753 259.231L341.256 230.803C340.592 230.426 339.849 230.206 339.086 230.162C338.322 230.109 337.559 230.272 336.884 230.632L312.623 243.9Z" fill="#F6F6F7"/>
<path d="M312.642 243.933C312.215 244.151 311.854 244.479 311.597 244.882C311.34 245.286 311.195 245.751 311.178 246.23C311.182 246.699 311.312 247.158 311.555 247.56C311.797 247.962 312.143 248.292 312.557 248.515L362.329 277.1C363 277.469 363.766 277.633 364.53 277.572C365.284 277.524 366.019 277.313 366.682 276.953L390.651 263.843C391.078 263.625 391.439 263.298 391.696 262.894C391.953 262.491 392.098 262.026 392.115 261.547C392.111 261.078 391.981 260.619 391.739 260.217C391.496 259.815 391.15 259.486 390.737 259.263L341.27 230.852C340.607 230.475 339.867 230.253 339.105 230.203C338.342 230.145 337.579 230.305 336.904 230.664L312.642 243.933Z" fill="#F5F5F6"/>
<path d="M312.659 243.962C312.237 244.177 311.881 244.5 311.626 244.899C311.372 245.297 311.228 245.756 311.211 246.228C311.215 246.691 311.344 247.144 311.584 247.54C311.823 247.937 312.165 248.262 312.572 248.481L362.345 277.067C363.016 277.435 363.781 277.596 364.544 277.53C365.296 277.477 366.028 277.263 366.691 276.904L390.631 263.81C391.052 263.596 391.409 263.273 391.664 262.874C391.918 262.476 392.062 262.017 392.079 261.544C392.075 261.082 391.947 260.628 391.707 260.232C391.468 259.836 391.127 259.511 390.719 259.291L341.282 230.898C340.62 230.521 339.882 230.297 339.121 230.24C338.36 230.177 337.596 230.334 336.922 230.693L312.659 243.962Z" fill="#F4F4F5"/>
<path d="M312.675 243.997C312.26 244.208 311.908 244.527 311.657 244.919C311.406 245.312 311.264 245.764 311.246 246.23C311.251 246.686 311.377 247.133 311.614 247.524C311.85 247.915 312.187 248.235 312.589 248.452L362.361 277.037C363.031 277.404 363.796 277.562 364.557 277.492C365.307 277.433 366.037 277.217 366.698 276.858L390.608 263.78C391.024 263.569 391.376 263.251 391.627 262.859C391.879 262.466 392.02 262.014 392.038 261.548C392.034 261.092 391.907 260.645 391.671 260.254C391.435 259.864 391.098 259.543 390.696 259.327L341.289 230.952C340.628 230.575 339.892 230.347 339.133 230.285C338.374 230.217 337.611 230.372 336.937 230.729L312.675 243.997Z" fill="#F3F3F4"/>
<path d="M312.698 244.031C312.288 244.24 311.941 244.554 311.693 244.941C311.445 245.328 311.305 245.774 311.287 246.233C311.291 246.683 311.416 247.124 311.649 247.51C311.882 247.896 312.215 248.212 312.612 248.426L362.384 277.011C363.054 277.377 363.82 277.532 364.58 277.456C365.329 277.392 366.056 277.173 366.716 276.815L390.596 263.753C391.006 263.545 391.353 263.232 391.601 262.845C391.849 262.458 391.989 262.012 392.007 261.553C392.003 261.103 391.878 260.662 391.645 260.276C391.412 259.89 391.08 259.574 390.683 259.361L341.307 231.001C340.647 230.625 339.913 230.395 339.155 230.326C338.396 230.254 337.632 230.406 336.959 230.765L312.698 244.031Z" fill="#F2F2F3"/>
<path d="M312.711 244.058C312.307 244.264 311.965 244.573 311.72 244.954C311.476 245.336 311.338 245.775 311.32 246.228C311.325 246.671 311.448 247.106 311.678 247.485C311.908 247.865 312.235 248.176 312.627 248.386L362.399 276.971C363.069 277.338 363.835 277.491 364.595 277.41C365.342 277.34 366.067 277.119 366.726 276.761L390.576 263.715C390.98 263.51 391.322 263.201 391.567 262.82C391.811 262.439 391.949 261.999 391.966 261.547C391.962 261.103 391.839 260.669 391.609 260.289C391.38 259.91 391.052 259.598 390.661 259.389L341.316 231.048C340.657 230.671 339.925 230.439 339.169 230.364C338.411 230.286 337.647 230.434 336.973 230.791L312.711 244.058Z" fill="#F1F1F3"/>
<path d="M312.728 244.09C312.329 244.292 311.992 244.597 311.751 244.972C311.51 245.348 311.373 245.781 311.355 246.227C311.36 246.664 311.481 247.092 311.708 247.467C311.934 247.841 312.257 248.148 312.643 248.355L362.415 276.94C363.085 277.305 363.852 277.454 364.611 277.367C365.355 277.291 366.077 277.068 366.733 276.71L390.555 263.68C390.953 263.479 391.291 263.174 391.532 262.799C391.774 262.423 391.91 261.99 391.928 261.544C391.924 261.107 391.802 260.679 391.575 260.304C391.349 259.93 391.026 259.624 390.64 259.417L341.325 231.094C340.667 230.718 339.937 230.483 339.183 230.402C338.426 230.318 337.661 230.464 336.987 230.82L312.728 244.09Z" fill="#F0F0F2"/>
<path d="M312.748 244.124C312.355 244.323 312.023 244.622 311.785 244.992C311.547 245.363 311.412 245.789 311.395 246.229C311.399 246.66 311.519 247.081 311.743 247.45C311.966 247.819 312.285 248.121 312.665 248.324L362.437 276.909C363.108 277.274 363.875 277.42 364.633 277.327C365.377 277.247 366.098 277.021 366.756 276.664L390.544 263.654C390.937 263.455 391.269 263.155 391.507 262.785C391.745 262.415 391.88 261.989 391.898 261.549C391.894 261.118 391.774 260.697 391.551 260.328C391.327 259.959 391.009 259.657 390.629 259.454L341.345 231.149C340.687 230.773 339.96 230.535 339.207 230.448C338.451 230.359 337.685 230.501 337.012 230.857L312.748 244.124Z" fill="#EFF0F1"/>
<path d="M312.765 244.156C312.378 244.352 312.05 244.647 311.816 245.012C311.581 245.376 311.448 245.797 311.43 246.23C311.434 246.654 311.553 247.07 311.773 247.433C311.993 247.796 312.307 248.093 312.682 248.294L362.454 276.879C363.125 277.243 363.893 277.386 364.65 277.288C365.391 277.202 366.108 276.973 366.763 276.617L390.526 263.62C390.913 263.425 391.24 263.13 391.475 262.765C391.71 262.401 391.843 261.981 391.861 261.548C391.857 261.124 391.739 260.708 391.518 260.345C391.298 259.982 390.984 259.685 390.61 259.485L341.357 231.199C340.699 230.824 339.974 230.583 339.223 230.49C338.467 230.395 337.701 230.535 337.027 230.891L312.765 244.156Z" fill="#EEEFF0"/>
<path d="M312.784 244.188C312.403 244.381 312.08 244.671 311.848 245.03C311.616 245.389 311.485 245.803 311.467 246.229C311.471 246.648 311.588 247.057 311.805 247.414C312.022 247.772 312.332 248.065 312.701 248.262L362.473 276.847C363.142 277.21 363.91 277.35 364.664 277.248C365.403 277.155 366.119 276.925 366.772 276.569L390.505 263.589C390.887 263.396 391.21 263.106 391.442 262.747C391.673 262.388 391.805 261.974 391.822 261.548C391.818 261.13 391.702 260.721 391.485 260.363C391.268 260.006 390.958 259.713 390.589 259.516L341.367 231.245C340.711 230.87 339.988 230.626 339.238 230.527C338.485 230.428 337.719 230.566 337.047 230.92L312.784 244.188Z" fill="#EDEEEF"/>
<path d="M312.802 244.221C312.426 244.41 312.108 244.696 311.88 245.05C311.651 245.403 311.522 245.811 311.504 246.231C311.508 246.642 311.623 247.045 311.837 247.398C312.051 247.75 312.356 248.038 312.72 248.232L362.492 276.817C363.161 277.179 363.929 277.316 364.683 277.209C365.42 277.111 366.132 276.878 366.785 276.522L390.489 263.558C390.864 263.369 391.182 263.083 391.411 262.73C391.639 262.377 391.768 261.969 391.786 261.55C391.782 261.138 391.667 260.735 391.454 260.383C391.24 260.031 390.935 259.743 390.571 259.549L341.379 231.296C340.724 230.921 340.004 230.675 339.256 230.569C338.504 230.465 337.738 230.6 337.066 230.953L312.802 244.221Z" fill="#ECEDEE"/>
<path d="M312.818 244.252C312.448 244.438 312.134 244.72 311.91 245.067C311.685 245.415 311.557 245.816 311.539 246.23C311.544 246.635 311.657 247.031 311.868 247.378C312.078 247.724 312.378 248.008 312.737 248.199L362.509 276.784C363.178 277.145 363.946 277.279 364.698 277.167C365.433 277.063 366.143 276.828 366.795 276.473L390.469 263.525C390.838 263.339 391.152 263.058 391.377 262.712C391.601 262.365 391.73 261.964 391.748 261.552C391.744 261.146 391.631 260.75 391.421 260.403C391.21 260.057 390.91 259.773 390.552 259.583L341.39 231.347C340.734 230.972 340.015 230.722 339.267 230.611C338.516 230.503 337.75 230.634 337.078 230.987L312.818 244.252Z" fill="#EBECED"/>
<path d="M312.837 244.289C312.472 244.472 312.163 244.749 311.942 245.091C311.72 245.433 311.594 245.827 311.576 246.234C311.581 246.633 311.693 247.024 311.9 247.365C312.108 247.706 312.403 247.984 312.756 248.172L362.528 276.758C363.197 277.118 363.965 277.249 364.716 277.131C365.449 277.022 366.157 276.785 366.807 276.43L390.449 263.498C390.813 263.315 391.122 263.039 391.343 262.697C391.565 262.355 391.691 261.96 391.709 261.553C391.705 261.155 391.594 260.764 391.386 260.423C391.179 260.082 390.883 259.803 390.531 259.616L341.399 231.398C340.745 231.023 340.029 230.772 339.285 230.654C338.535 230.539 337.768 230.668 337.096 231.02L312.837 244.289Z" fill="#EAEBEC"/>
<path d="M312.854 244.314C312.495 244.494 312.19 244.766 311.971 245.102C311.753 245.438 311.628 245.827 311.609 246.228C311.614 246.62 311.723 247.004 311.928 247.34C312.132 247.675 312.422 247.949 312.769 248.134L362.542 276.72C363.21 277.079 363.979 277.208 364.729 277.085C365.459 276.97 366.165 276.73 366.814 276.376L390.429 263.46C390.788 263.281 391.093 263.009 391.311 262.673C391.53 262.336 391.655 261.948 391.673 261.547C391.669 261.155 391.559 260.771 391.355 260.435C391.151 260.1 390.86 259.825 390.513 259.641L341.412 231.441C340.759 231.067 340.044 230.812 339.302 230.688C338.553 230.569 337.786 230.695 337.115 231.047L312.854 244.314Z" fill="#E9EAEB"/>
<path d="M312.873 244.348C312.52 244.525 312.221 244.793 312.006 245.123C311.791 245.454 311.668 245.836 311.65 246.23C311.655 246.616 311.763 246.994 311.964 247.324C312.165 247.654 312.451 247.924 312.793 248.105L362.565 276.691C363.234 277.049 364.003 277.174 364.751 277.046C365.48 276.926 366.183 276.683 366.831 276.33L390.416 263.43C390.769 263.253 391.068 262.986 391.283 262.655C391.498 262.325 391.621 261.943 391.639 261.549C391.635 261.163 391.527 260.785 391.326 260.455C391.125 260.126 390.838 259.856 390.497 259.675L341.427 231.492C340.775 231.118 340.062 230.861 339.322 230.731C338.574 230.606 337.806 230.729 337.135 231.08L312.873 244.348Z" fill="#E8E9EB"/>
<path d="M312.891 244.379C312.544 244.553 312.249 244.816 312.038 245.141C311.826 245.466 311.705 245.842 311.688 246.229C311.692 246.609 311.798 246.981 311.996 247.305C312.194 247.629 312.476 247.895 312.813 248.072L362.585 276.658C363.253 277.015 364.022 277.137 364.769 277.004C365.496 276.878 366.197 276.634 366.844 276.28L390.4 263.397C390.747 263.223 391.042 262.96 391.253 262.635C391.465 262.31 391.586 261.935 391.604 261.548C391.6 261.168 391.494 260.796 391.296 260.472C391.098 260.148 390.817 259.883 390.481 259.705L341.44 231.539C340.789 231.166 340.078 230.906 339.34 230.77C338.594 230.64 337.826 230.76 337.155 231.11L312.891 244.379Z" fill="#E7E8EA"/>
<path d="M312.907 244.409C312.566 244.58 312.276 244.838 312.068 245.157C311.86 245.477 311.741 245.846 311.723 246.226C311.727 246.6 311.832 246.965 312.026 247.284C312.221 247.603 312.498 247.864 312.829 248.038L362.601 276.624C363.269 276.98 364.039 277.1 364.784 276.961C365.509 276.83 366.207 276.583 366.853 276.23L390.38 263.366C390.722 263.196 391.011 262.938 391.22 262.618C391.428 262.299 391.547 261.93 391.565 261.549C391.561 261.176 391.456 260.811 391.262 260.492C391.067 260.173 390.79 259.913 390.46 259.738L341.451 231.59C340.8 231.217 340.091 230.954 339.354 230.812C338.61 230.677 337.841 230.795 337.171 231.145L312.907 244.409Z" fill="#E6E7E9"/>
<path d="M312.925 244.441C312.589 244.608 312.304 244.862 312.099 245.175C311.894 245.489 311.776 245.852 311.758 246.226C311.762 246.593 311.865 246.952 312.057 247.265C312.249 247.579 312.521 247.835 312.846 248.006L362.618 276.592C363.286 276.948 364.057 277.064 364.8 276.92C365.523 276.783 366.219 276.534 366.864 276.181L390.359 263.329C390.695 263.162 390.98 262.909 391.185 262.595C391.39 262.281 391.508 261.918 391.526 261.544C391.522 261.177 391.419 260.818 391.227 260.505C391.036 260.192 390.763 259.936 390.439 259.764L341.46 231.634C340.81 231.261 340.103 230.995 339.368 230.847C338.625 230.707 337.856 230.821 337.186 231.171L312.925 244.441Z" fill="#E5E6E8"/>
<path d="M312.944 244.475C312.614 244.639 312.334 244.888 312.133 245.197C311.931 245.505 311.815 245.861 311.797 246.229C311.801 246.59 311.903 246.943 312.091 247.25C312.28 247.558 312.547 247.809 312.867 247.978L362.639 276.563C363.307 276.919 364.078 277.031 364.82 276.883C365.54 276.74 366.234 276.489 366.878 276.137L390.345 263.301C390.675 263.137 390.956 262.888 391.157 262.579C391.359 262.271 391.475 261.915 391.493 261.547C391.489 261.186 391.388 260.833 391.199 260.526C391.011 260.218 390.743 259.967 390.424 259.798L341.475 231.686C340.825 231.313 340.121 231.044 339.388 230.89C338.646 230.745 337.877 230.856 337.207 231.205L312.944 244.475Z" fill="#E4E5E7"/>
<path d="M312.961 244.505C312.636 244.666 312.361 244.91 312.163 245.213C311.964 245.516 311.85 245.866 311.832 246.227C311.836 246.581 311.936 246.928 312.121 247.23C312.306 247.532 312.57 247.779 312.884 247.944L362.656 276.529C363.324 276.884 364.096 276.994 364.836 276.839C365.553 276.691 366.244 276.437 366.886 276.085L390.323 263.266C390.648 263.105 390.923 262.861 391.121 262.559C391.32 262.256 391.434 261.906 391.452 261.545C391.448 261.191 391.348 260.845 391.163 260.543C390.978 260.24 390.715 259.994 390.401 259.829L341.483 231.734C340.834 231.361 340.132 231.09 339.401 230.93C338.66 230.779 337.89 230.887 337.22 231.236L312.961 244.505Z" fill="#E3E4E6"/>
<path d="M312.979 244.538C312.66 244.696 312.39 244.935 312.195 245.232C312 245.529 311.887 245.873 311.869 246.227C311.873 246.575 311.972 246.916 312.153 247.212C312.335 247.509 312.594 247.751 312.903 247.913L362.675 276.499C363.343 276.853 364.114 276.96 364.854 276.801C365.57 276.647 366.26 276.39 366.903 276.039L390.311 263.236C390.63 263.079 390.901 262.839 391.096 262.542C391.291 262.245 391.403 261.902 391.422 261.547C391.418 261.2 391.32 260.859 391.138 260.563C390.956 260.266 390.697 260.024 390.389 259.862L341.502 231.785C340.853 231.413 340.153 231.139 339.424 230.973C338.685 230.817 337.915 230.922 337.245 231.27L312.979 244.538Z" fill="#E2E3E5"/>
<path d="M312.997 244.569C312.684 244.724 312.418 244.959 312.227 245.25C312.035 245.542 311.924 245.879 311.906 246.227C311.911 246.568 312.007 246.902 312.186 247.193C312.365 247.484 312.619 247.722 312.922 247.88L362.694 276.466C363.362 276.819 364.134 276.923 364.872 276.759C365.585 276.599 366.272 276.34 366.913 275.99L390.292 263.203C390.605 263.048 390.871 262.813 391.063 262.522C391.255 262.231 391.365 261.894 391.384 261.545C391.38 261.204 391.283 260.87 391.105 260.579C390.926 260.288 390.672 260.051 390.369 259.892L341.513 231.832C340.865 231.46 340.167 231.184 339.44 231.011C338.702 230.851 337.931 230.954 337.261 231.303L312.997 244.569Z" fill="#E1E2E4"/>
<path d="M313.016 244.601C312.709 244.753 312.448 244.983 312.259 245.269C312.071 245.555 311.962 245.885 311.943 246.227C311.948 246.562 312.043 246.89 312.218 247.175C312.394 247.461 312.644 247.694 312.941 247.849L362.713 276.435C363.381 276.787 364.153 276.888 364.889 276.718C365.6 276.553 366.285 276.292 366.925 275.942L390.274 263.171C390.581 263.019 390.842 262.789 391.031 262.503C391.219 262.218 391.328 261.887 391.347 261.545C391.343 261.21 391.248 260.883 391.073 260.597C390.897 260.312 390.648 260.079 390.351 259.924L341.524 231.881C340.877 231.509 340.181 231.23 339.456 231.051C338.72 230.885 337.948 230.984 337.279 231.332L313.016 244.601Z" fill="#E0E1E3"/>
<path d="M313.032 244.635C312.73 244.784 312.474 245.01 312.289 245.29C312.104 245.571 311.997 245.895 311.979 246.23C311.983 246.559 312.076 246.88 312.249 247.16C312.421 247.44 312.666 247.668 312.958 247.821L362.73 276.406C363.398 276.758 364.17 276.856 364.905 276.681C365.613 276.51 366.296 276.246 366.935 275.896L390.255 263.142C390.556 262.993 390.812 262.768 390.997 262.488C391.182 262.208 391.29 261.884 391.308 261.549C391.304 261.22 391.211 260.899 391.039 260.619C390.867 260.339 390.622 260.11 390.33 259.958L341.534 231.932C340.887 231.561 340.192 231.279 339.47 231.095C338.735 230.923 337.964 231.02 337.294 231.366L313.032 244.635Z" fill="#E0E0E3"/>
<path d="M313.049 244.666C312.753 244.812 312.501 245.033 312.32 245.308C312.138 245.582 312.032 245.9 312.014 246.229C312.018 246.551 312.109 246.866 312.279 247.141C312.448 247.415 312.688 247.639 312.975 247.788L362.747 276.374C363.415 276.725 364.188 276.819 364.921 276.639C365.627 276.463 366.307 276.197 366.945 275.848L390.236 263.109C390.531 262.964 390.783 262.743 390.965 262.469C391.147 262.194 391.252 261.877 391.271 261.548C391.267 261.226 391.176 260.911 391.007 260.636C390.838 260.362 390.597 260.138 390.311 259.989L341.545 231.981C340.899 231.609 340.206 231.325 339.486 231.134C338.753 230.957 337.981 231.051 337.311 231.397L313.049 244.666Z" fill="#DFDFE2"/>
<path d="M313.067 244.696C312.777 244.839 312.53 245.055 312.352 245.324C312.173 245.593 312.069 245.905 312.051 246.227C312.055 246.543 312.145 246.852 312.311 247.121C312.477 247.39 312.713 247.609 312.994 247.754L362.766 276.34C363.433 276.691 364.208 276.782 364.939 276.597C365.643 276.415 366.321 276.147 366.958 275.798L390.219 263.076C390.509 262.933 390.756 262.717 390.935 262.448C391.113 262.179 391.217 261.868 391.235 261.546C391.231 261.23 391.142 260.921 390.976 260.652C390.81 260.384 390.574 260.165 390.293 260.019L341.558 232.025C340.913 231.654 340.222 231.367 339.504 231.17C338.772 230.988 337.999 231.078 337.33 231.424L313.067 244.696Z" fill="#DEDEE1"/>
<path d="M313.085 244.73C312.801 244.869 312.558 245.081 312.383 245.345C312.208 245.608 312.106 245.913 312.088 246.229C312.092 246.538 312.18 246.841 312.343 247.104C312.506 247.368 312.737 247.582 313.012 247.724L362.784 276.31C363.452 276.66 364.227 276.749 364.956 276.558C365.657 276.372 366.333 276.102 366.97 275.754L390.202 263.048C390.486 262.909 390.728 262.697 390.903 262.434C391.078 262.171 391.181 261.866 391.199 261.55C391.195 261.241 391.107 260.938 390.944 260.675C390.782 260.412 390.551 260.197 390.276 260.055L341.571 232.081C340.926 231.711 340.238 231.42 339.522 231.217C338.792 231.03 338.018 231.118 337.349 231.464L313.085 244.73Z" fill="#DDDDE0"/>
<path d="M313.104 244.76C312.825 244.896 312.588 245.103 312.416 245.361C312.244 245.619 312.143 245.918 312.125 246.227C312.13 246.529 312.216 246.825 312.376 247.083C312.535 247.34 312.762 247.549 313.031 247.689L362.803 276.274C363.471 276.624 364.246 276.709 364.973 276.513C365.672 276.32 366.346 276.047 366.981 275.699L390.184 263.009C390.462 262.873 390.7 262.666 390.872 262.408C391.044 262.15 391.144 261.852 391.162 261.543C391.158 261.24 391.071 260.944 390.912 260.687C390.753 260.43 390.526 260.22 390.257 260.081L341.583 232.125C340.938 231.755 340.251 231.462 339.537 231.253C338.809 231.061 338.035 231.146 337.366 231.491L313.104 244.76Z" fill="#DCDCDF"/>
<path d="M313.122 244.792C312.849 244.925 312.616 245.128 312.448 245.38C312.279 245.632 312.181 245.924 312.162 246.227C312.166 246.523 312.251 246.813 312.407 247.066C312.564 247.318 312.786 247.523 313.05 247.659L362.822 276.245C363.49 276.594 364.265 276.676 364.992 276.475C365.688 276.276 366.359 276.001 366.994 275.653L390.166 262.979C390.439 262.846 390.671 262.644 390.84 262.392C391.008 262.14 391.107 261.848 391.126 261.545C391.122 261.248 391.037 260.958 390.881 260.706C390.725 260.454 390.503 260.249 390.239 260.113L341.595 232.174C340.951 231.805 340.266 231.511 339.554 231.297C338.828 231.099 338.053 231.181 337.384 231.526L313.122 244.792Z" fill="#DBDBDE"/>
<path d="M313.14 244.824C312.873 244.954 312.645 245.153 312.48 245.399C312.315 245.645 312.218 245.931 312.199 246.227C312.203 246.517 312.287 246.801 312.44 247.048C312.593 247.295 312.81 247.495 313.069 247.628L362.841 276.214C363.509 276.562 364.285 276.64 365.009 276.433C365.702 276.229 366.372 275.952 367.006 275.605L390.148 262.947C390.415 262.817 390.643 262.619 390.809 262.373C390.974 262.126 391.071 261.841 391.089 261.545C391.086 261.254 391.003 260.971 390.85 260.724C390.697 260.477 390.479 260.276 390.221 260.144L341.608 232.223C340.964 231.853 340.281 231.554 339.572 231.333C338.847 231.13 338.072 231.209 337.403 231.553L313.14 244.824Z" fill="#DADADD"/>
<path d="M313.157 244.857C312.895 244.984 312.672 245.177 312.51 245.418C312.348 245.659 312.253 245.938 312.234 246.228C312.239 246.512 312.32 246.79 312.47 247.031C312.62 247.272 312.833 247.468 313.086 247.598L362.859 276.183C363.527 276.531 364.303 276.606 365.026 276.395C365.716 276.185 366.384 275.905 367.017 275.559L390.13 262.914C390.391 262.787 390.614 262.594 390.776 262.353C390.938 262.112 391.034 261.833 391.052 261.543C391.048 261.26 390.967 260.982 390.817 260.741C390.667 260.5 390.454 260.304 390.202 260.174L341.62 232.271C340.976 231.901 340.295 231.6 339.588 231.373C338.865 231.165 338.09 231.241 337.421 231.585L313.157 244.857Z" fill="#D9D9DC"/>
<path d="M313.175 244.89C312.919 245.014 312.701 245.203 312.543 245.438C312.384 245.673 312.29 245.946 312.271 246.229C312.276 246.506 312.356 246.778 312.503 247.013C312.649 247.249 312.858 247.44 313.105 247.566L362.877 276.152C363.545 276.499 364.322 276.572 365.043 276.355C365.732 276.14 366.397 275.857 367.029 275.511L390.113 262.885C390.368 262.762 390.586 262.573 390.745 262.338C390.903 262.103 390.997 261.83 391.016 261.547C391.012 261.27 390.933 260.998 390.786 260.763C390.639 260.527 390.431 260.335 390.183 260.209L341.631 232.323C340.988 231.953 340.309 231.65 339.604 231.417C338.882 231.204 338.106 231.276 337.437 231.62L313.175 244.89Z" fill="#D8D8DB"/>
<path d="M313.193 244.921C312.943 245.041 312.73 245.226 312.574 245.455C312.419 245.685 312.327 245.951 312.309 246.228C312.313 246.499 312.391 246.763 312.535 246.993C312.678 247.224 312.882 247.41 313.124 247.534L362.896 276.119C363.564 276.465 364.342 276.535 365.06 276.313C365.746 276.093 366.409 275.808 367.041 275.462L390.097 262.853C390.347 262.732 390.561 262.548 390.716 262.319C390.871 262.089 390.963 261.823 390.982 261.547C390.978 261.276 390.9 261.011 390.757 260.78C390.613 260.55 390.409 260.364 390.168 260.24L341.646 232.372C341.003 232.003 340.326 231.696 339.624 231.457C338.904 231.238 338.127 231.308 337.458 231.652L313.193 244.921Z" fill="#D7D7DB"/>
<path d="M313.211 244.954C312.967 245.071 312.759 245.251 312.607 245.475C312.455 245.699 312.365 245.959 312.346 246.229C312.35 246.494 312.426 246.752 312.567 246.977C312.707 247.202 312.906 247.384 313.143 247.504L362.915 276.09C363.246 276.261 363.607 276.365 363.978 276.397C364.349 276.428 364.723 276.387 365.078 276.274C365.762 276.048 366.423 275.76 367.055 275.415L390.079 262.822C390.323 262.705 390.532 262.525 390.684 262.301C390.836 262.077 390.926 261.817 390.945 261.547C390.942 261.283 390.865 261.024 390.725 260.799C390.585 260.575 390.385 260.393 390.149 260.273L341.658 232.425C341.016 232.055 340.34 231.746 339.64 231.501C338.922 231.277 338.145 231.344 337.476 231.688L313.211 244.954Z" fill="#D6D6DA"/>
<path d="M313.23 244.985C312.991 245.099 312.787 245.274 312.639 245.492C312.49 245.71 312.402 245.964 312.383 246.227C312.387 246.485 312.462 246.737 312.599 246.956C312.736 247.175 312.93 247.353 313.161 247.47L362.933 276.055C363.264 276.226 363.625 276.33 363.997 276.36C364.368 276.39 364.742 276.346 365.096 276.231C365.776 275.999 366.435 275.71 367.065 275.365L390.06 262.788C390.299 262.674 390.502 262.499 390.651 262.281C390.8 262.062 390.888 261.809 390.907 261.545C390.903 261.287 390.829 261.035 390.692 260.816C390.555 260.597 390.36 260.42 390.13 260.303L341.669 232.47C341.027 232.101 340.353 231.789 339.656 231.538C338.94 231.308 338.162 231.372 337.493 231.715L313.23 244.985Z" fill="#D5D5D9"/>
<path d="M313.247 245.019C313.014 245.13 312.815 245.3 312.669 245.513C312.524 245.726 312.437 245.973 312.418 246.23C312.422 246.482 312.496 246.728 312.63 246.942C312.764 247.155 312.954 247.328 313.179 247.442L362.951 276.028C363.282 276.198 363.644 276.301 364.015 276.329C364.387 276.358 364.76 276.312 365.113 276.194C365.79 275.956 366.447 275.663 367.076 275.317L390.041 262.756C390.274 262.645 390.473 262.475 390.618 262.263C390.764 262.05 390.851 261.803 390.87 261.546C390.866 261.294 390.793 261.048 390.659 260.835C390.525 260.621 390.335 260.448 390.11 260.335L341.68 232.519C341.038 232.15 340.366 231.835 339.671 231.578C339.318 231.462 338.944 231.417 338.573 231.446C338.202 231.475 337.84 231.577 337.509 231.747L313.247 245.019Z" fill="#D4D4D8"/>
<path d="M313.265 245.049C313.038 245.157 312.843 245.323 312.701 245.53C312.559 245.737 312.474 245.978 312.455 246.228C312.459 246.474 312.531 246.714 312.662 246.922C312.793 247.13 312.978 247.298 313.198 247.408L362.97 275.994C363.301 276.164 363.663 276.266 364.034 276.293C364.405 276.32 364.778 276.272 365.13 276.151C365.805 275.909 366.46 275.614 367.088 275.27L390.024 262.725C390.251 262.618 390.446 262.452 390.588 262.245C390.73 262.038 390.815 261.797 390.834 261.547C390.83 261.302 390.759 261.062 390.628 260.854C390.497 260.646 390.312 260.478 390.092 260.367L341.693 232.569C341.051 232.2 340.381 231.882 339.689 231.618C339.336 231.5 338.963 231.453 338.592 231.48C338.221 231.508 337.859 231.609 337.528 231.779L313.265 245.049Z" fill="#D3D3D7"/>
<path d="M313.283 245.082C313.061 245.187 312.872 245.348 312.733 245.55C312.594 245.751 312.511 245.986 312.492 246.23C312.496 246.469 312.566 246.703 312.694 246.905C312.821 247.108 313.002 247.271 313.216 247.379L362.988 275.965C363.319 276.134 363.681 276.234 364.053 276.259C364.424 276.285 364.796 276.234 365.147 276.111C365.819 275.863 366.472 275.566 367.099 275.222L390.009 262.693C390.231 262.589 390.42 262.427 390.559 262.226C390.698 262.025 390.781 261.79 390.8 261.547C390.796 261.308 390.726 261.074 390.599 260.872C390.471 260.669 390.291 260.505 390.077 260.398L341.708 232.617C341.066 232.248 340.398 231.928 339.708 231.659C339.357 231.538 338.984 231.489 338.613 231.515C338.242 231.541 337.88 231.641 337.549 231.81L313.283 245.082Z" fill="#D2D2D6"/>
<path d="M313.303 245.114C313.087 245.215 312.903 245.372 312.767 245.568C312.632 245.764 312.55 245.992 312.531 246.229C312.535 246.462 312.604 246.689 312.728 246.886C312.853 247.083 313.029 247.242 313.238 247.346L363.01 275.932C363.341 276.102 363.703 276.202 364.074 276.226C364.445 276.25 364.817 276.197 365.168 276.072C365.836 275.819 366.487 275.519 367.114 275.176L389.991 262.664C390.207 262.562 390.392 262.405 390.527 262.21C390.662 262.014 390.744 261.786 390.763 261.549C390.759 261.316 390.691 261.089 390.567 260.892C390.442 260.695 390.266 260.536 390.057 260.432L341.719 232.668C341.078 232.3 340.411 231.977 339.724 231.702C339.373 231.579 339.001 231.528 338.629 231.553C338.258 231.578 337.896 231.679 337.565 231.848L313.303 245.114Z" fill="#D1D1D5"/>
<path d="M313.317 245.146C313.107 245.244 312.927 245.396 312.795 245.587C312.663 245.777 312.583 245.998 312.564 246.229C312.569 246.456 312.635 246.677 312.756 246.868C312.878 247.059 313.049 247.214 313.252 247.315L363.025 275.901C363.356 276.07 363.718 276.169 364.089 276.191C364.46 276.214 364.832 276.159 365.181 276.031C365.847 275.773 366.495 275.471 367.122 275.128L389.97 262.629C390.179 262.531 390.359 262.379 390.492 262.189C390.624 261.999 390.704 261.777 390.723 261.547C390.719 261.32 390.653 261.1 390.532 260.908C390.411 260.717 390.239 260.562 390.036 260.461L341.728 232.715C341.087 232.347 340.422 232.021 339.737 231.74C339.388 231.614 339.016 231.56 338.645 231.583C338.273 231.607 337.911 231.706 337.58 231.875L313.317 245.146Z" fill="#D0D1D4"/>
<path d="M313.335 245.176C313.132 245.272 312.957 245.42 312.828 245.604C312.7 245.789 312.622 246.004 312.604 246.228C312.608 246.448 312.672 246.663 312.79 246.849C312.909 247.035 313.076 247.185 313.273 247.282L363.045 275.869C363.376 276.037 363.739 276.135 364.11 276.156C364.482 276.177 364.853 276.121 365.201 275.99C365.864 275.726 366.511 275.421 367.137 275.079L389.955 262.598C390.159 262.502 390.333 262.355 390.462 262.17C390.59 261.986 390.668 261.771 390.687 261.547C390.683 261.327 390.619 261.112 390.501 260.927C390.383 260.741 390.216 260.591 390.018 260.493L341.741 232.765C341.1 232.396 340.437 232.068 339.755 231.781C339.406 231.652 339.035 231.596 338.664 231.618C338.292 231.639 337.93 231.738 337.599 231.907L313.335 245.176Z" fill="#CFD0D3"/>
<path d="M313.354 245.209C313.156 245.301 312.985 245.445 312.859 245.624C312.733 245.804 312.657 246.013 312.639 246.232C312.643 246.446 312.706 246.654 312.82 246.835C312.935 247.015 313.098 247.161 313.29 247.255L363.062 275.841C363.393 276.009 363.756 276.106 364.127 276.126C364.498 276.145 364.869 276.086 365.216 275.953C365.876 275.684 366.521 275.377 367.146 275.035L389.936 262.571C390.134 262.479 390.304 262.336 390.43 262.157C390.555 261.979 390.632 261.77 390.651 261.552C390.647 261.339 390.585 261.13 390.47 260.949C390.355 260.769 390.193 260.624 390.001 260.529L341.754 232.818C341.113 232.45 340.451 232.118 339.772 231.826C339.424 231.694 339.053 231.636 338.682 231.656C338.311 231.676 337.948 231.774 337.617 231.942L313.354 245.209Z" fill="#CECFD3"/>
<path d="M313.372 245.24C313.179 245.33 313.014 245.468 312.892 245.641C312.77 245.814 312.695 246.017 312.676 246.228C312.68 246.435 312.741 246.637 312.853 246.812C312.964 246.987 313.122 247.127 313.309 247.218L363.081 275.805C363.412 275.973 363.775 276.069 364.146 276.087C364.517 276.104 364.888 276.044 365.234 275.908C365.891 275.633 366.533 275.324 367.158 274.982L389.917 262.534C390.109 262.444 390.275 262.306 390.397 262.133C390.519 261.96 390.594 261.758 390.614 261.547C390.61 261.34 390.549 261.138 390.437 260.963C390.325 260.788 390.168 260.647 389.981 260.556L341.765 232.863C341.124 232.495 340.464 232.161 339.788 231.863C339.442 231.728 339.071 231.668 338.7 231.687C338.329 231.706 337.965 231.802 337.634 231.971L313.372 245.24Z" fill="#CDCED2"/>
<path d="M313.389 245.272C313.202 245.358 313.041 245.492 312.922 245.659C312.803 245.827 312.73 246.023 312.711 246.228C312.715 246.429 312.775 246.625 312.883 246.794C312.992 246.963 313.145 247.099 313.327 247.187L363.099 275.773C363.43 275.941 363.793 276.036 364.164 276.053C364.536 276.069 364.906 276.006 365.251 275.867C365.39 275.867 367.057 274.996 367.169 274.934L389.899 262.503C390.086 262.417 390.247 262.283 390.366 262.116C390.485 261.948 390.558 261.752 390.577 261.547C390.573 261.347 390.513 261.151 390.405 260.982C390.297 260.812 390.143 260.676 389.962 260.589L341.776 232.913C341.666 232.848 339.947 231.903 339.8 231.903C339.455 231.766 339.084 231.704 338.713 231.722C338.342 231.739 337.979 231.834 337.648 232.003L313.389 245.272Z" fill="#CCCDD1"/>
<path d="M313.407 245.305C313.226 245.388 313.07 245.517 312.954 245.679C312.839 245.841 312.768 246.031 312.748 246.229C312.752 246.423 312.81 246.613 312.915 246.777C313.021 246.94 313.169 247.072 313.345 247.156L363.117 275.742C363.448 275.91 363.812 276.004 364.183 276.019C364.554 276.034 364.924 275.969 365.267 275.828C365.394 275.828 367.079 274.943 367.18 274.886L389.881 262.471C390.062 262.388 390.218 262.259 390.333 262.097C390.449 261.935 390.52 261.746 390.54 261.548C390.536 261.354 390.478 261.164 390.373 261C390.268 260.837 390.12 260.705 389.945 260.62L341.789 232.962C341.689 232.904 339.951 231.944 339.822 231.944C339.478 231.805 339.107 231.74 338.736 231.756C338.365 231.772 338.002 231.867 337.671 232.035L313.407 245.305Z" fill="#CBCCD0"/>
<path d="M313.424 245.336C313.248 245.416 313.097 245.541 312.985 245.697C312.872 245.854 312.803 246.037 312.783 246.229C312.788 246.417 312.844 246.6 312.947 246.758C313.049 246.916 313.193 247.043 313.362 247.125L363.134 275.71C363.466 275.877 363.83 275.97 364.201 275.983C364.572 275.995 364.942 275.927 365.284 275.784C365.399 275.784 367.1 274.886 367.192 274.833L389.863 262.434C390.038 262.354 390.189 262.23 390.301 262.074C390.414 261.917 390.483 261.735 390.503 261.543C390.499 261.355 390.443 261.172 390.341 261.014C390.239 260.855 390.095 260.729 389.925 260.647L341.799 233.012C341.708 232.96 339.952 231.989 339.836 231.989C339.493 231.847 339.123 231.781 338.751 231.795C338.38 231.809 338.017 231.904 337.685 232.072L313.424 245.336Z" fill="#CACBCF"/>
<path d="M313.442 245.369C313.272 245.446 313.126 245.566 313.017 245.717C312.908 245.868 312.84 246.044 312.82 246.229C312.825 246.411 312.879 246.588 312.978 246.741C313.077 246.893 313.217 247.015 313.381 247.093L363.153 275.68C363.484 275.847 363.849 275.939 364.22 275.951C364.591 275.963 364.96 275.893 365.301 275.747C365.404 275.747 367.123 274.836 367.204 274.791L389.846 262.408C390.016 262.331 390.162 262.211 390.271 262.06C390.38 261.91 390.448 261.733 390.468 261.548C390.464 261.367 390.409 261.19 390.31 261.038C390.212 260.885 390.073 260.763 389.909 260.685L341.814 233.061C341.734 233.015 339.959 232.026 339.855 232.026C339.513 231.882 339.144 231.813 338.773 231.826C338.401 231.838 338.038 231.932 337.706 232.099L313.442 245.369Z" fill="#C9CACE"/>
<path d="M313.462 245.398C313.298 245.472 313.157 245.588 313.051 245.733C312.946 245.878 312.879 246.048 312.859 246.226C312.864 246.401 312.917 246.572 313.013 246.719C313.108 246.866 313.243 246.983 313.401 247.059L363.173 275.645C363.505 275.812 363.869 275.904 364.24 275.914C364.611 275.924 364.98 275.852 365.321 275.704C365.41 275.704 367.146 274.779 367.217 274.74L389.829 262.373C389.993 262.299 390.134 262.184 390.24 262.039C390.346 261.894 390.412 261.724 390.432 261.546C390.428 261.371 390.375 261.2 390.28 261.053C390.184 260.906 390.049 260.788 389.89 260.713L341.827 233.107C341.754 233.066 339.963 232.063 339.872 232.063C339.532 231.916 339.162 231.845 338.791 231.857C338.42 231.868 338.055 231.961 337.724 232.128L313.462 245.398Z" fill="#C8C9CD"/>
<path d="M313.478 245.431C313.32 245.502 313.183 245.613 313.08 245.752C312.977 245.892 312.913 246.055 312.893 246.227C312.896 246.397 312.947 246.562 313.04 246.704C313.132 246.846 313.263 246.959 313.417 247.031L363.189 275.618C363.521 275.784 363.885 275.875 364.256 275.884C364.627 275.892 364.996 275.819 365.335 275.668C365.408 275.668 367.165 274.731 367.225 274.696L389.808 262.344C389.966 262.273 390.104 262.163 390.206 262.024C390.309 261.884 390.373 261.721 390.394 261.549C390.39 261.379 390.339 261.214 390.247 261.072C390.154 260.93 390.024 260.817 389.87 260.745L341.837 233.157C341.777 233.121 339.965 232.104 339.887 232.104C339.548 231.954 339.179 231.882 338.808 231.892C338.436 231.901 338.072 231.993 337.741 232.161L313.478 245.431Z" fill="#C7C8CC"/>
<path d="M313.495 245.463C313.343 245.531 313.211 245.637 313.112 245.771C313.013 245.905 312.95 246.062 312.93 246.227C312.934 246.389 312.984 246.547 313.073 246.683C313.163 246.819 313.288 246.928 313.436 246.997L363.208 275.583C363.54 275.749 363.904 275.839 364.275 275.846C364.646 275.853 365.014 275.777 365.352 275.623C365.416 275.623 367.187 274.673 367.238 274.645L389.79 262.31C389.943 262.242 390.075 262.136 390.174 262.002C390.273 261.868 390.336 261.711 390.356 261.546C390.352 261.384 390.302 261.226 390.213 261.09C390.124 260.954 389.998 260.845 389.851 260.776L341.848 233.206C341.798 233.177 339.968 232.145 339.904 232.145C339.565 231.993 339.197 231.918 338.826 231.926C338.454 231.935 338.089 232.026 337.758 232.193L313.495 245.463Z" fill="#C6C7CB"/>
<path d="M313.514 245.494C313.367 245.559 313.24 245.66 313.144 245.788C313.048 245.916 312.987 246.066 312.967 246.225C312.971 246.381 313.019 246.533 313.105 246.664C313.192 246.794 313.313 246.898 313.455 246.963L363.227 275.55C363.559 275.716 363.924 275.805 364.295 275.81C364.666 275.815 365.034 275.737 365.37 275.581C365.421 275.581 367.21 274.618 367.251 274.595L389.774 262.277C389.92 262.212 390.048 262.111 390.143 261.983C390.239 261.855 390.3 261.704 390.321 261.546C390.317 261.389 390.269 261.238 390.183 261.107C390.097 260.977 389.976 260.873 389.834 260.807L341.862 233.252C341.821 233.229 339.973 232.183 339.921 232.183C339.584 232.028 339.216 231.951 338.845 231.957C338.473 231.964 338.108 232.055 337.777 232.222L313.514 245.494Z" fill="#C5C6CB"/>
<path d="M313.528 245.527C313.387 245.589 313.265 245.686 313.172 245.809C313.08 245.931 313.02 246.076 313 246.228C313.005 246.378 313.051 246.523 313.134 246.648C313.217 246.773 313.333 246.872 313.47 246.934L363.242 275.521C363.574 275.687 363.939 275.775 364.311 275.779C364.682 275.783 365.049 275.702 365.384 275.544C365.422 275.544 367.228 274.567 367.259 274.55L389.752 262.248C389.893 262.187 390.016 262.09 390.108 261.967C390.201 261.845 390.26 261.7 390.281 261.548C390.276 261.399 390.23 261.253 390.147 261.128C390.064 261.003 389.948 260.904 389.812 260.841L341.87 233.306C341.84 233.288 339.973 232.228 339.934 232.228C339.598 232.07 339.23 231.991 338.859 231.996C338.488 232.002 338.122 232.091 337.791 232.258L313.528 245.527Z" fill="#C4C5CA"/>
<path d="M313.548 245.562C313.412 245.62 313.294 245.712 313.204 245.829C313.114 245.946 313.056 246.084 313.035 246.23C313.039 246.373 313.084 246.513 313.164 246.632C313.243 246.752 313.355 246.846 313.486 246.905L363.258 275.492C363.59 275.657 363.956 275.744 364.327 275.746C364.699 275.749 365.066 275.666 365.4 275.505C365.425 275.505 367.248 274.515 367.268 274.504L389.733 262.217C389.868 262.159 389.986 262.067 390.076 261.95C390.166 261.833 390.224 261.695 390.245 261.549C390.241 261.406 390.196 261.266 390.116 261.147C390.037 261.028 389.925 260.933 389.794 260.874L341.882 233.356C341.862 233.344 339.979 232.269 339.951 232.269C339.616 232.109 339.248 232.027 338.877 232.031C338.506 232.035 338.14 232.124 337.809 232.291L313.548 245.562Z" fill="#C3C4C9"/>
<path d="M313.568 245.591C313.439 245.646 313.326 245.734 313.24 245.846C313.155 245.957 313.099 246.088 313.078 246.227C313.083 246.364 313.126 246.497 313.202 246.611C313.279 246.725 313.386 246.815 313.511 246.871L363.284 275.457C363.616 275.622 363.982 275.708 364.353 275.709C364.724 275.71 365.091 275.625 365.424 275.462C365.437 275.462 367.277 274.459 367.287 274.453L389.722 262.183C389.851 262.128 389.964 262.04 390.05 261.929C390.135 261.817 390.191 261.686 390.212 261.547C390.208 261.411 390.165 261.278 390.089 261.164C390.013 261.05 389.906 260.96 389.781 260.904L341.9 233.403C341.89 233.397 339.986 232.307 339.973 232.307C339.64 232.144 339.273 232.06 338.901 232.063C338.53 232.065 338.164 232.153 337.832 232.32L313.568 245.591Z" fill="#C2C3C8"/>
<path d="M389.759 260.935L339.987 232.348C339.654 232.182 339.288 232.097 338.916 232.098C338.545 232.099 338.179 232.186 337.847 232.353L313.585 245.622C312.978 245.96 312.954 246.505 313.529 246.839L363.301 275.425C363.634 275.59 364 275.675 364.371 275.674C364.742 275.674 365.108 275.587 365.44 275.421L389.703 262.15C390.309 261.813 390.333 261.27 389.759 260.935Z" fill="#C1C2C7"/>
</g>
<path d="M313.781 245.665H317.091V246.258L336.795 235.602C338.32 234.719 340.989 234.826 342.754 235.84L386.196 259.971V259.498H389.506V262.05H389.498C389.494 262.108 389.476 262.163 389.445 262.212C389.414 262.26 389.371 262.3 389.321 262.328L365.831 275.338C364.401 276.166 361.902 276.069 360.246 275.114L313.964 248.583C313.903 248.546 313.854 248.491 313.826 248.426C313.797 248.36 313.791 248.287 313.807 248.217H313.779L313.781 245.665Z" fill="#CBD3FA"/>
<path d="M313.964 245.296C313.909 245.328 313.863 245.374 313.832 245.43C313.8 245.485 313.783 245.548 313.783 245.612C313.783 245.675 313.8 245.738 313.832 245.793C313.863 245.849 313.909 245.895 313.964 245.927L360.246 272.459C361.901 273.409 364.401 273.51 365.831 272.683L389.321 259.672C389.372 259.644 389.416 259.603 389.448 259.553C389.48 259.504 389.499 259.447 389.504 259.388C389.508 259.329 389.498 259.27 389.474 259.216C389.45 259.162 389.413 259.115 389.367 259.079L342.756 233.187C340.99 232.173 338.322 232.067 336.797 232.95L313.972 245.29L313.964 245.296Z" fill="#F3F1F6"/>
<path d="M364.657 186.973C354.243 181.075 343.012 186.827 343.114 198.015L373.091 256.953L375.186 255.783L374.697 203.281C374.636 196.832 370.663 190.376 364.657 186.973Z" fill="#CBD3FA"/>
<path d="M362.561 188.141C352.148 182.243 340.919 187.995 341.022 199.178L341.388 238.994L373.086 256.948L372.598 204.446C372.543 197.999 368.567 191.544 362.561 188.141Z" fill="#E6E6EB"/>
<path d="M434.641 160.281L426.597 225.73L422.562 258.506C422.239 261.128 420.765 265.092 415.721 265.092C415.696 265.079 415.681 265.092 415.669 265.092C414.965 265.085 414.263 265.007 413.575 264.86C413.553 264.866 413.531 264.865 413.51 264.858C413.489 264.851 413.471 264.838 413.458 264.82L375.062 241.797L375.048 241.784L372.94 240.505H372.928L361.133 233.415H361.108L341.231 221.481L288.531 189.842C287.894 189.517 287.369 189.008 287.023 188.382C286.677 187.756 286.527 187.042 286.591 186.33L287.445 178.051L290.315 150.429L296.691 88.9067C296.817 87.9402 297.279 87.0487 297.996 86.388C298.035 86.3493 298.074 86.3237 298.114 86.2857C298.236 86.1743 298.366 86.0708 298.502 85.9758C300.624 84.3488 304.075 84.0126 306.066 85.1491L330.832 99.1482L387.824 131.394L390.398 132.856L408.024 142.826L432.7 156.773C433.338 157.096 433.865 157.603 434.211 158.229C434.557 158.855 434.707 159.57 434.641 160.281Z" fill="#CBD3FA"/>
<path d="M432.21 161.96L419.975 261.437C419.731 263.451 417.828 264.859 415.722 265.091C415.696 265.078 415.681 265.091 415.668 265.091C414.962 265.162 414.248 265.083 413.574 264.86C413.553 264.865 413.531 264.865 413.51 264.857C413.489 264.85 413.471 264.838 413.457 264.82C413.148 264.737 412.853 264.611 412.579 264.447L375.075 242.958L372.952 241.745H372.94L362.244 235.61L362.218 235.597L341.242 223.574L286.137 191.998C285.494 191.67 284.966 191.155 284.622 190.521C284.278 189.887 284.135 189.164 284.211 188.447L285.62 177.018L288.982 149.682L296.448 88.9598C296.517 88.4483 296.69 87.9564 296.957 87.5143C297.224 87.0722 297.578 86.6893 297.999 86.3892C298.038 86.3505 298.077 86.3249 298.116 86.2869C298.257 86.1844 298.404 86.0895 298.555 86.0025C299.36 85.5464 300.268 85.3023 301.193 85.2932C302.118 85.2842 303.031 85.5104 303.844 85.9506L390.089 135.373L430.273 158.396C430.917 158.727 431.445 159.245 431.791 159.88C432.136 160.516 432.282 161.241 432.21 161.96Z" fill="#F3F1F6"/>
<path d="M426.705 165.179L415.5 256.217C415.298 257.87 413.061 258.796 411.44 257.881L405.154 254.329H405.142L390.614 246.132H390.603L380.692 240.547L353.098 224.979L292.332 190.724C291.4 190.255 290.632 189.515 290.129 188.602C289.626 187.689 289.411 186.645 289.513 185.608L300.71 94.559C300.923 92.9064 303.159 91.9906 304.78 92.8947L328.626 106.343L356.207 121.891L366.14 127.497L379.907 135.26L423.885 160.055C424.816 160.528 425.583 161.269 426.086 162.183C426.589 163.097 426.804 164.141 426.705 165.179Z" fill="#EDEDED"/>
<path d="M420.166 243.492L420.011 243.854C419.001 243.354 418.073 242.705 417.257 241.929C412.834 237.81 412.303 230.746 411.798 223.889C411.475 219.576 411.152 215.172 409.846 211.504C408.748 208.418 406.937 205.861 403.858 204.298C397.108 200.877 390.784 205.59 384.668 210.146C378.46 214.769 372.031 219.56 365.051 216.021C358.072 212.483 357.434 204.127 356.854 196.043C356.311 188.85 355.756 181.437 350.658 177.551C350.425 177.383 350.181 177.203 349.934 177.048L349.861 177.008C349.55 176.815 349.24 176.622 348.903 176.453C348.84 176.427 348.775 176.389 348.709 176.363L348.645 176.337C348.199 176.117 347.736 175.931 347.262 175.782C341.119 173.808 335.338 178.132 329.713 182.304C323.505 186.939 317.09 191.733 310.096 188.193C303.125 184.654 302.492 176.299 301.899 168.227C301.329 160.659 300.774 152.872 294.914 149.166C294.642 148.998 294.359 148.83 294.06 148.675C294.022 148.663 293.996 148.637 293.957 148.624L294.112 148.262C294.437 148.417 294.747 148.598 295.031 148.765C301.162 152.549 301.743 160.504 302.312 168.227C302.907 176.182 303.515 184.396 310.265 187.816C317.014 191.235 323.341 186.524 329.442 181.968C334.886 177.914 340.487 173.743 346.474 175.15C346.492 175.148 346.511 175.153 346.526 175.163C346.811 175.213 347.091 175.287 347.365 175.382C347.573 175.446 347.767 175.524 347.974 175.601L348.026 175.627C348.375 175.756 348.711 175.911 349.06 176.079C349.653 176.38 350.219 176.73 350.754 177.125C350.778 177.135 350.8 177.148 350.819 177.164C351.23 177.472 351.619 177.809 351.983 178.171C351.995 178.184 351.995 178.184 352.009 178.196C356.264 182.367 356.767 189.306 357.259 196.057C357.867 204.012 358.461 212.238 365.212 215.66C371.976 219.069 378.301 214.369 384.404 209.797C390.612 205.174 397.038 200.383 404.02 203.92C406.84 205.382 408.996 207.862 410.048 210.855C411.547 214.678 411.884 219.327 412.22 223.886C412.712 230.537 413.229 237.381 417.328 241.448C418.159 242.277 419.117 242.968 420.165 243.495L420.166 243.492Z" fill="#7CA7F0"/>
<path d="M374.711 190.347L374.638 190.67L374.288 190.476L351.98 178.168L350.686 177.458L349.937 177.045L349.864 177.007L348.712 176.361L348.648 176.335L347.315 175.6V175.587L346.527 175.16L322.963 162.166L322.535 161.92L322.608 161.598L323.047 161.843L347.374 175.26L347.969 175.596L348.021 175.622L350.749 177.119V177.132L350.815 177.159L374.376 190.151L374.711 190.347Z" fill="#7CA7F0"/>
<path d="M323.042 161.847C323.041 161.904 323.033 161.96 323.017 162.015C323.007 162.07 322.985 162.123 322.954 162.17C322.903 162.293 322.825 162.403 322.725 162.492C322.626 162.58 322.507 162.645 322.379 162.681C322.251 162.717 322.116 162.724 321.984 162.7C321.853 162.676 321.729 162.623 321.621 162.544C321.316 162.371 321.072 162.109 320.921 161.792C320.771 161.476 320.721 161.121 320.78 160.775C320.811 160.63 320.879 160.496 320.976 160.383C321.073 160.271 321.196 160.185 321.335 160.132C321.473 160.08 321.623 160.062 321.77 160.082C321.917 160.102 322.057 160.158 322.177 160.245C322.456 160.406 322.684 160.641 322.837 160.924C322.99 161.207 323.06 161.527 323.042 161.847Z" fill="#7CA7F0"/>
<path d="M376.557 191.549C376.523 191.694 376.454 191.828 376.356 191.94C376.258 192.052 376.133 192.138 375.994 192.19C375.855 192.242 375.704 192.259 375.557 192.24C375.409 192.22 375.269 192.165 375.148 192.078C374.868 191.918 374.639 191.684 374.486 191.401C374.332 191.118 374.261 190.798 374.28 190.477C374.282 190.42 374.291 190.363 374.308 190.309C374.317 190.253 374.339 190.2 374.372 190.154C374.422 190.029 374.5 189.919 374.599 189.83C374.699 189.74 374.818 189.676 374.947 189.64C375.077 189.605 375.212 189.6 375.343 189.625C375.475 189.651 375.599 189.707 375.705 189.788C376.01 189.959 376.256 190.22 376.408 190.535C376.56 190.85 376.612 191.203 376.557 191.549Z" fill="#7CA7F0"/>
<path d="M351.131 175.575L350.743 177.125V177.138L350.678 177.461L350.652 177.551L350.291 179.013L346.914 177.153L347.251 175.784L347.302 175.604V175.591L347.353 175.385L347.367 175.268L347.755 173.719L351.131 175.575Z" fill="#7CA7F0"/>
<path d="M426.68 165.128L425.571 174.101L299.652 102.828L300.677 94.502C300.903 92.8531 303.13 91.9343 304.758 92.8413L328.604 106.29L356.178 121.836L366.108 127.442L379.884 135.203L423.859 160.005C424.791 160.475 425.56 161.216 426.063 162.13C426.567 163.044 426.782 164.089 426.68 165.128Z" fill="url(#paint6_linear_924_4638)"/>
<path d="M403.003 158.719L395.408 154.279C395.301 154.217 395.211 154.128 395.15 154.021C395.088 153.913 395.056 153.792 395.057 153.668C395.083 153.46 395.283 153.395 395.504 153.522L403.099 157.963C403.206 158.025 403.296 158.114 403.358 158.221C403.42 158.328 403.452 158.45 403.451 158.574C403.424 158.784 403.224 158.849 403.003 158.719Z" fill="white"/>
<path d="M420.967 169.22C420.841 169.146 420.739 169.036 420.674 168.906L416.511 160.559C416.392 160.316 416.444 160.092 416.631 160.059C416.751 160.06 416.867 160.097 416.966 160.164C417.065 160.231 417.142 160.326 417.188 160.436L421.35 168.783C421.472 169.025 421.418 169.249 421.231 169.283C421.138 169.294 421.044 169.272 420.967 169.22Z" fill="white"/>
<path d="M416.109 166.379C416.01 166.32 415.926 166.239 415.864 166.143C415.711 165.91 415.718 165.659 415.88 165.581L421.433 162.916C421.598 162.842 421.851 162.966 422.002 163.196C422.154 163.426 422.149 163.68 421.987 163.758L416.434 166.424C416.38 166.443 416.323 166.449 416.266 166.441C416.21 166.433 416.155 166.412 416.109 166.379Z" fill="white"/>
<path d="M412.255 157.336C411.567 156.448 410.637 155.776 409.578 155.399C409.133 155.223 408.652 155.162 408.177 155.221C407.703 155.28 407.251 155.457 406.863 155.735C406.51 156.044 406.24 156.436 406.08 156.877C405.919 157.317 405.873 157.79 405.945 158.253C406.091 159.362 406.538 160.409 407.238 161.281C407.938 162.153 408.864 162.817 409.915 163.2C410.282 163.324 410.667 163.389 411.055 163.393C411.624 163.406 412.181 163.223 412.632 162.876C412.986 162.568 413.255 162.175 413.416 161.735C413.576 161.294 413.623 160.821 413.551 160.358C413.425 159.245 412.975 158.195 412.255 157.336ZM412.061 162.167C411.791 162.351 411.479 162.464 411.153 162.495C410.828 162.527 410.5 162.476 410.199 162.348C409.316 162.016 408.539 161.455 407.947 160.721C407.356 159.987 406.973 159.109 406.837 158.177C406.782 157.862 406.808 157.538 406.912 157.235C407.016 156.932 407.195 156.661 407.432 156.446C407.725 156.223 408.088 156.108 408.456 156.123C408.747 156.125 409.036 156.174 409.311 156.269C410.193 156.599 410.969 157.161 411.559 157.895C412.148 158.629 412.528 159.508 412.659 160.44C412.712 160.755 412.685 161.078 412.581 161.379C412.476 161.681 412.298 161.952 412.061 162.167Z" fill="white"/>
</g>
<defs>
<linearGradient id="paint0_linear_924_4638" x1="203.662" y1="567.772" x2="266.368" y2="269.405" gradientUnits="userSpaceOnUse">
<stop stop-color="white" stop-opacity="0"/>
<stop offset="1" stop-color="#E8E8E8"/>
</linearGradient>
<linearGradient id="paint1_linear_924_4638" x1="259.081" y1="155.253" x2="433.17" y2="412.216" gradientUnits="userSpaceOnUse">
<stop stop-color="white"/>
<stop offset="1" stop-color="#DBDBDB"/>
</linearGradient>
<linearGradient id="paint2_linear_924_4638" x1="-26.0008" y1="676.637" x2="143.54" y2="206.45" gradientUnits="userSpaceOnUse">
<stop stop-color="white"/>
<stop offset="1" stop-color="#E9E9E9" stop-opacity="0.631"/>
</linearGradient>
<linearGradient id="paint3_linear_924_4638" x1="29.2507" y1="34.5807" x2="203.34" y2="291.544" gradientUnits="userSpaceOnUse">
<stop stop-color="white"/>
<stop offset="1" stop-color="#E0E2E9"/>
</linearGradient>
<linearGradient id="paint4_linear_924_4638" x1="78.4562" y1="-37.6957" x2="563.274" y2="144.051" gradientUnits="userSpaceOnUse">
<stop stop-color="white"/>
<stop offset="1" stop-color="#C0CBD5"/>
</linearGradient>
<linearGradient id="paint5_linear_924_4638" x1="112.341" y1="-12.5545" x2="199.333" y2="86.8611" gradientUnits="userSpaceOnUse">
<stop stop-color="#FFE06A"/>
<stop offset="1" stop-color="#FFF3C7"/>
</linearGradient>
<linearGradient id="paint6_linear_924_4638" x1="299.652" y1="133.293" x2="426.704" y2="133.293" gradientUnits="userSpaceOnUse">
<stop stop-color="#5E98F7"/>
<stop offset="1" stop-color="#4670BA"/>
</linearGradient>
</defs>
</svg>
