<svg width="250" height="268" viewBox="0 0 250 268" fill="none" xmlns="http://www.w3.org/2000/svg">
<path fill-rule="evenodd" clip-rule="evenodd" d="M184.821 48.9708L171.959 41.5192C170.714 41.745 169.494 42.0966 168.32 42.5684C165.854 43.5806 163.542 44.9359 161.452 46.5946C161.093 46.8824 160.682 47.0964 160.241 47.2246C159.877 47.3293 159.492 47.3334 159.126 47.2366C158.759 47.1352 158.435 46.9161 158.204 46.6126L137.959 34.8797C137.754 34.7599 137.575 34.6001 137.433 34.4099C137.29 34.2196 137.187 34.0026 137.13 33.7718L137.11 33.7085L136.309 30.6978C136.149 29.8397 136.251 28.9532 136.602 28.1545C136.982 27.2671 137.563 26.4804 138.297 25.8565L139.716 24.869L134.514 21.8582C134.303 21.7411 134.118 21.5815 133.971 21.3893C133.823 21.1971 133.717 20.9765 133.659 20.7412L133.634 20.6735L132.84 17.659C132.682 16.8168 132.778 15.9466 133.115 15.1593C133.482 14.2807 134.045 13.4982 134.76 12.8719C136.12 11.788 137.396 10.814 138.795 9.78586C144.328 6.13833 148.137 3.92994 154.524 1.99027C156.933 1.36746 159.393 0.968605 161.874 0.798762C164.148 0.742235 166.421 0.946024 168.648 1.40618C169.809 1.72758 170.627 1.98048 171.763 2.38467C171.806 2.39947 171.846 2.42025 171.883 2.4464L191.942 14.0687C195.617 15.3903 198.859 17.7036 201.309 20.754C203.411 23.3937 205.022 26.3912 206.066 29.6034L206.078 29.6395C206.201 30.0362 206.246 30.4532 206.21 30.8671V30.8852C206.167 31.3462 206.062 31.7992 205.897 32.2318C205.73 32.6933 205.507 33.1327 205.235 33.5407C204.967 33.9401 204.65 34.3038 204.291 34.6231L201.344 37.2454C200.976 37.5848 200.546 37.8487 200.077 38.0222L200.019 38.0388C199.669 38.1588 199.294 38.1888 198.93 38.1261C198.542 38.0567 198.189 37.8562 197.931 37.5578C197.895 37.5189 197.861 37.4782 197.83 37.4359L177.758 25.8038C177.49 25.6757 177.258 25.4838 177.082 25.2448C176.905 25.0059 176.79 24.7272 176.745 24.4332L176.739 24.4106L176.684 24.2299C175.518 24.4216 174.366 24.6861 173.234 25.0218L183.824 31.1584C186.352 32.1401 188.565 33.7977 190.221 35.9516C191.416 37.5038 192.369 39.2297 193.046 41.0698C193.193 41.4765 193.253 41.9096 193.223 42.3411C193.189 42.8159 193.088 43.2835 192.923 43.7298C192.756 44.1997 192.533 44.6478 192.259 45.0644C191.989 45.4724 191.666 45.8433 191.301 46.1678L188.347 48.7962C188.01 49.1044 187.623 49.3524 187.203 49.5293C186.822 49.6898 186.406 49.7454 185.997 49.6904C185.585 49.6297 185.208 49.424 184.934 49.1101C184.894 49.0654 184.857 49.0186 184.823 48.97L184.821 48.9708ZM195.749 32.8678L180.303 23.9176C179.444 23.923 178.586 23.9777 177.733 24.0817L177.742 24.1103L177.75 24.1328C177.771 24.2899 177.828 24.4398 177.917 24.5705C178.006 24.7012 178.125 24.8091 178.263 24.8855L197.143 35.8251C196.748 34.8085 196.282 33.821 195.749 32.87V32.8678ZM180.303 23.9176L195.749 32.8678C195.343 32.2273 194.356 30.6948 193.899 30.131C191.512 27.1374 188.153 25.0795 184.409 24.3158C183.049 24.1023 181.678 23.9694 180.303 23.9176ZM157.232 40.4248L137.432 28.9508C137.275 29.4443 137.243 29.9691 137.339 30.478L138.117 33.4045C138.179 33.656 138.336 33.8737 138.555 34.0119L157.622 45.0591L157.033 42.8469C156.925 42.4205 156.899 41.9771 156.958 41.541C157.009 41.1592 157.103 40.7845 157.238 40.424L157.232 40.4248ZM137.856 27.9859L157.671 39.4674C157.791 39.2521 157.924 39.0447 158.07 38.8464C158.355 38.4576 158.69 38.1087 159.066 37.8092C162.193 35.2821 165.682 33.2441 169.416 31.7643C172.81 30.3822 176.49 29.8562 180.133 30.2326L171.883 25.4531L171.786 25.4877C166.784 27.3333 162.14 30.0373 158.061 33.479C157.683 33.8011 157.241 34.0394 156.765 34.1782C156.408 34.2807 156.031 34.2875 155.67 34.1978C155.306 34.1016 154.983 33.8905 154.748 33.5956L154.721 33.561L140.715 25.4455L138.955 26.6702C138.518 27.0451 138.145 27.4899 137.853 27.9866L137.856 27.9859ZM85.5213 151.768C85.4463 151.654 85.3803 151.535 85.3113 151.415C83.7559 148.477 82.9948 145.181 83.104 141.856C83.104 135.91 84.9745 129.408 88.0638 123.461C90.8846 117.926 94.7854 113.016 99.5343 109.024L79.9593 97.6795L79.642 97.9271L78.7855 98.6392C78.1923 99.1661 77.6425 99.6734 77.065 100.22L76.252 101.037C75.6948 101.63 75.175 102.201 74.6358 102.809L73.8723 103.717L73.1163 104.665C72.6175 105.328 72.1488 105.968 71.6665 106.643C71.1993 107.33 70.7665 107.993 70.3165 108.694C69.8853 109.406 69.4825 110.091 69.0693 110.813C68.677 111.542 68.3103 112.243 67.9368 112.983L67.405 114.1C67.0683 114.853 66.7578 115.578 66.442 116.341C66.1473 117.104 65.8803 117.832 65.608 118.604L65.2413 119.739L64.9105 120.868C64.6105 122.024 64.3638 123.103 64.132 124.276L63.9475 125.399L63.8065 126.489L63.7015 127.591L63.637 128.711L63.616 129.779C63.6325 130.57 63.664 131.255 63.7165 132.044L63.8425 133.125L64.0135 134.14C64.1635 134.817 64.3053 135.361 64.4958 136.029L64.789 136.866L65.1363 137.686L65.5315 138.469L65.9328 139.147L66.3925 139.807L66.8853 140.413L67.4245 140.981L67.9563 141.457L68.5563 141.909L69.2065 142.324C74.6405 145.473 80.0788 148.62 85.5213 151.764V151.768ZM100.347 108.28C101.334 99.51 104.856 90.2196 109.965 82.0605C115.09 73.8735 121.821 66.8125 129.198 62.5425C134.068 59.723 138.679 58.4336 142.751 58.5194C143.201 58.5284 143.646 58.5535 144.087 58.5947L127.572 49.0476L127.418 48.9723L126.818 48.7232L126.184 48.4974L125.522 48.2987L124.899 48.1481L124.201 48.0126L123.507 47.9088L122.829 47.8395L122.092 47.7989L121.383 47.7898C120.858 47.8049 120.396 47.8305 119.876 47.8651C119.338 47.9268 118.853 47.9916 118.317 48.0744L117.528 48.2249L116.746 48.4055L115.905 48.6313C115.335 48.8045 114.808 48.9783 114.243 49.1725C113.664 49.3923 113.124 49.6098 112.551 49.8499C111.951 50.1217 111.39 50.3866 110.8 50.6779C109.704 51.2492 108.744 51.813 107.681 52.4557C106.287 53.3755 105.072 54.2471 103.749 55.2648L102.487 56.305L101.222 57.4205C99.9468 58.6135 98.8045 59.7606 97.6053 61.0289C96.8193 61.908 96.0865 62.754 95.326 63.6557L94.228 65.0294C93.505 65.9853 92.8293 66.9066 92.128 67.8806C91.453 68.8772 90.8208 69.8421 90.1705 70.8567C89.5443 71.8909 88.9593 72.889 88.36 73.9375L87.514 75.5098L86.7145 77.0905L85.9465 78.7095C85.216 80.3571 84.5748 81.9242 83.935 83.608L83.3568 85.2541L82.8318 86.9048L82.3615 88.5434C81.9303 90.2279 81.583 91.7897 81.2575 93.4961C81.0835 94.604 80.9433 95.633 80.8075 96.7469C80.8002 96.8073 80.785 96.8665 80.7625 96.9231L100.347 108.272L100.347 108.28ZM147.315 59.2525C149.47 59.9335 151.436 61.113 153.054 62.6961C153.843 61.9931 154.65 61.3284 155.48 60.712C156.431 59.999 157.423 59.3425 158.451 58.746C159.696 58.016 161.004 57.4003 162.359 56.9064C164.228 56.205 166.213 55.8638 168.209 55.9008L160.416 51.3997C160.385 51.3873 160.355 51.3727 160.327 51.3561L155.94 48.8142L151.237 46.097L150.758 45.8848L150.196 45.677L149.634 45.5099L149.034 45.3714L148.434 45.2721L147.799 45.2059L147.15 45.1757C146.685 45.1803 146.3 45.1968 145.833 45.2284L145.121 45.3112L144.437 45.4286L143.694 45.5912L142.944 45.793C142.419 45.96 141.959 46.1204 141.444 46.3101C140.902 46.5359 140.417 46.7489 139.882 46.9957C139.328 47.278 138.822 47.549 138.276 47.8523C138.034 47.9938 137.799 48.1361 137.558 48.2836L137.196 48.5094L136.844 48.7352L136.482 48.9798C135.873 49.4021 135.296 49.8304 134.713 50.2873C134.309 50.6114 133.913 50.9411 133.524 51.2763L147.315 59.2525ZM171.084 56.3502L162.152 51.1905C162.279 51.1709 162.412 51.1513 162.55 51.1333C163.121 51.0881 163.56 51.064 164.13 51.058L164.874 51.0987L165.635 51.192C166.143 51.2913 166.5 51.3711 166.998 51.5089L167.698 51.758L168.293 52.0237L185.138 61.7853C185.012 61.7808 184.885 61.7793 184.758 61.7793C182.519 61.8173 180.311 62.3017 178.261 63.2041C178.02 62.6112 177.74 62.0353 177.421 61.4805C176.088 59.0423 173.865 57.218 171.219 56.3916L171.084 56.3524L171.084 56.3502ZM188.769 63.8861L189.101 64.0773L189.147 64.1028C191.128 65.1204 192.707 66.7819 193.626 68.8162C194.763 71.3622 195.315 74.1326 195.24 76.9219C195.24 83.2618 193.008 90.3032 189.408 96.5595C185.807 102.816 180.843 108.269 175.372 111.436L103.61 152.98C101.338 154.369 98.7987 155.258 96.1593 155.59C94.0367 155.852 91.8859 155.432 90.016 154.391L89.281 153.963C88.1167 153.115 87.1486 152.024 86.443 150.766C85.003 148.025 84.3023 144.954 84.4105 141.858C84.4105 136.137 86.227 129.846 89.2255 124.07C92.1406 118.308 96.2775 113.257 101.346 109.27C101.418 109.216 101.478 109.147 101.523 109.068C101.568 108.989 101.596 108.902 101.606 108.812C102.506 100.13 105.988 90.8827 111.071 82.7635C116.089 74.7466 122.662 67.8422 129.848 63.6828C134.505 60.9867 138.883 59.7553 142.723 59.8351C144.633 59.859 146.52 60.2635 148.273 61.0251L148.395 61.0959L148.402 61.0838C149.964 61.7963 151.373 62.8077 152.549 64.0614C152.667 64.1864 152.83 64.2596 153.002 64.2653C153.174 64.2709 153.342 64.2085 153.468 64.0916C154.356 63.2705 155.286 62.496 156.254 61.771C157.165 61.0891 158.114 60.4608 159.098 59.8893C160.276 59.2006 161.514 58.6197 162.797 58.1536C165.352 57.121 168.172 56.9454 170.835 57.6531C171.232 57.7743 171.62 57.9229 171.997 58.0979L173.157 58.767L173.167 58.749C174.456 59.6177 175.523 60.7779 176.283 62.1361C176.676 62.8288 177.007 63.5556 177.27 64.3076C177.329 64.4719 177.45 64.6062 177.607 64.6808C177.765 64.7555 177.945 64.7645 178.109 64.7057L178.193 64.6696C180.243 63.6839 182.479 63.1469 184.752 63.0942C186.13 63.0803 187.495 63.352 188.763 63.8921L188.769 63.8861ZM168.954 50.8036L168.889 50.7705L168.261 50.4897C168.229 50.4728 168.196 50.4582 168.162 50.4461C167.644 50.2624 167.262 50.1397 166.731 49.9945C166.697 49.9825 166.662 49.9729 166.627 49.9659L165.822 49.8093C164.979 49.7067 164.131 49.6634 163.283 49.6798C162.646 49.7295 162.126 49.7912 161.492 49.877L160.783 50.0185L151.991 44.9236C151.955 44.899 151.917 44.8778 151.877 44.8604C150.174 44.067 148.305 43.7012 146.43 43.7946C145.663 43.8436 144.899 43.9343 144.142 44.0663C143.29 44.2545 142.583 44.4554 141.752 44.7159C138.896 45.767 136.23 47.279 133.86 49.1921C133.41 49.5451 132.975 49.9102 132.545 50.282C130.855 49.2077 129.093 48.2506 127.273 47.4173C126.535 47.1561 125.915 46.9754 125.157 46.7857C123.639 46.4847 122.091 46.3647 120.546 46.4282C118.544 46.5803 116.567 46.9624 114.652 47.567C112.464 48.3351 110.348 49.2958 108.329 50.4378C104.987 52.482 101.869 54.875 99.0288 57.577C97.747 58.8566 96.6288 60.0903 95.4033 61.4097C93.3618 63.8311 91.7928 66.0207 89.9748 68.5896C89.3215 69.6118 88.6998 70.667 88.0503 71.6809C86.2717 74.8451 84.6751 78.1088 83.2683 81.4561C81.6029 85.815 80.3832 90.3325 79.6278 94.939L79.4628 96.2938C75.292 99.5673 72.8508 102.599 69.8178 106.887C69.3678 107.598 68.9328 108.33 68.482 109.035C67.0401 111.594 65.7776 114.25 64.7035 116.985C62.9912 121.459 62.1591 126.224 62.2533 131.015C62.3437 132.51 62.5556 133.996 62.887 135.456C63.0835 136.143 63.2583 136.723 63.5058 137.397C63.8653 138.274 64.2939 139.122 64.7875 139.931L65.3043 140.672L65.863 141.357C66.2808 141.795 66.5815 142.09 67.0308 142.491C67.0554 142.518 67.0819 142.543 67.1103 142.566L67.792 143.08C74.6808 147.439 82.2423 151.456 89.317 155.593C91.4383 156.781 93.8803 157.264 96.292 156.971C99.126 156.619 101.853 155.668 104.294 154.18L176.058 112.638C181.746 109.345 186.888 103.706 190.602 97.2535C194.316 90.8014 196.617 83.5117 196.62 76.9196C196.696 73.9221 196.098 70.9458 194.869 68.2125C193.819 65.9046 192.021 64.0212 189.769 62.8684L168.954 50.8036ZM154.078 26.6498L134.265 15.1683C134.2 15.2948 134.14 15.4235 134.088 15.5545C133.828 16.148 133.749 16.8055 133.863 17.4437L134.644 20.3792C134.676 20.5048 134.733 20.6228 134.811 20.7262C134.89 20.8295 134.987 20.9163 135.099 20.9813L154.14 32.012L153.554 29.8134C153.448 29.3955 153.423 28.9613 153.479 28.5338C153.539 28.0634 153.662 27.6033 153.846 27.1662C153.921 26.9901 153.996 26.8192 154.08 26.6536L154.078 26.6498ZM134.841 14.2907L154.634 25.7602C154.892 25.4166 155.189 25.1049 155.52 24.8313C160.72 20.4091 166.664 16.9538 173.074 14.6279C177.882 12.8598 183.054 12.3235 188.121 13.0676L171.367 3.3579L169.914 2.8393L168.442 2.43511L166.867 2.12274L165.248 1.92102L163.605 1.82768C162.372 1.83822 161.417 1.88037 160.187 1.96919L158.442 2.19951L156.642 2.54199C155.334 2.86639 154.242 3.16898 152.954 3.56113L151.061 4.23855C149.716 4.79328 148.555 5.30435 147.236 5.92156C145.876 6.62833 144.673 7.2907 143.34 8.05392L141.371 9.29059C139.995 10.2284 138.753 11.1121 137.412 12.1011L135.446 13.6599C135.229 13.8517 135.028 14.0615 134.846 14.2869L134.841 14.2907ZM194.916 29.3023C196.589 31.4136 197.882 33.8016 198.737 36.3588L198.758 36.413C198.79 36.5129 198.841 36.6057 198.908 36.6862C198.976 36.7628 199.068 36.8142 199.17 36.8322C199.317 36.8525 199.466 36.8381 199.607 36.7901L199.649 36.7735C199.954 36.6574 200.235 36.4828 200.474 36.2594L203.421 33.637C203.696 33.3929 203.939 33.1147 204.144 32.8091C204.358 32.4873 204.532 32.1411 204.664 31.7779C204.787 31.4585 204.866 31.1237 204.899 30.7828V30.7693C204.921 30.5267 204.898 30.2821 204.83 30.0482L204.821 30.0256C203.827 26.9626 202.292 24.1044 200.288 21.588C197.38 17.9644 193.307 15.4695 188.766 14.5316C184.191 13.5606 179.001 13.9994 173.498 15.8766C167.238 18.1534 161.433 21.5313 156.354 25.852C156.074 26.0811 155.826 26.3469 155.616 26.6423C155.392 26.9583 155.206 27.2999 155.062 27.6599C154.924 27.9866 154.83 28.3304 154.782 28.6821C154.746 28.9469 154.761 29.2162 154.826 29.4754L155.613 32.435C155.641 32.5572 155.695 32.6719 155.771 32.7715C155.832 32.8483 155.916 32.9037 156.01 32.9295C156.15 32.9592 156.295 32.9524 156.432 32.9099C156.73 32.8184 157.006 32.6659 157.242 32.4621C161.439 28.9232 166.218 26.1442 171.365 24.2495C176.144 22.5891 180.672 22.1932 184.679 23.0324C188.719 23.8545 192.342 26.0744 194.918 29.3046L194.916 29.3023ZM173.698 41.3145L184.03 47.3006C183.675 46.5843 183.252 45.9038 182.768 45.2683C181.27 43.2839 179.085 41.9359 176.644 41.4913C175.673 41.3126 174.684 41.2525 173.698 41.3122V41.3145ZM183.804 44.4675C184.625 45.5499 185.29 46.7434 185.779 48.0126C185.81 48.0951 185.854 48.1715 185.911 48.2384C185.983 48.32 186.082 48.3734 186.189 48.389C186.37 48.4078 186.552 48.3787 186.718 48.3047C186.998 48.1865 187.255 48.0207 187.479 47.8147L190.434 45.1863C190.713 44.9365 190.959 44.6517 191.166 44.3388C191.382 44.0102 191.559 43.6563 191.691 43.285C191.813 42.9582 191.889 42.6156 191.916 42.2674C191.935 42.0186 191.902 41.7685 191.821 41.5327C191.191 39.8179 190.304 38.2094 189.192 36.7622C187.16 34.1171 184.23 32.3136 180.96 31.6944C177.219 31.0859 173.383 31.5349 169.881 32.9912C166.272 34.4235 162.9 36.3958 159.879 38.8411C159.592 39.0669 159.338 39.3308 159.123 39.6254C158.891 39.9441 158.699 40.2892 158.549 40.6536C158.404 40.9869 158.306 41.3384 158.256 41.6983C158.218 41.9675 158.232 42.2415 158.298 42.5052L159.087 45.4708C159.115 45.5891 159.166 45.7007 159.237 45.7997C159.296 45.8797 159.381 45.9378 159.477 45.9653C159.618 45.9978 159.766 45.9916 159.905 45.9473C160.179 45.8658 160.434 45.7304 160.655 45.5491C162.843 43.8144 165.263 42.3973 167.845 41.3393C170.692 40.1117 173.827 39.7162 176.888 40.1982C179.645 40.701 182.113 42.2247 183.803 44.4675H183.804Z" fill="#DEE4F8"/>
<path fill-rule="evenodd" clip-rule="evenodd" d="M144.877 130.081C144.877 130.011 144.905 129.944 144.954 129.895C145.003 129.846 145.07 129.818 145.14 129.818C145.209 129.818 145.276 129.846 145.325 129.895C145.375 129.944 145.402 130.011 145.402 130.081V208.135C145.294 210.118 145.761 212.09 146.746 213.812C147.814 215.35 149.245 216.599 150.91 217.449L249.137 281.137C249.169 281.153 249.198 281.175 249.221 281.202C249.245 281.23 249.262 281.262 249.272 281.296C249.283 281.331 249.286 281.367 249.282 281.403C249.278 281.438 249.266 281.473 249.248 281.504C249.23 281.535 249.206 281.562 249.177 281.583C249.148 281.605 249.115 281.62 249.08 281.628C249.045 281.636 249.009 281.636 248.974 281.63C248.938 281.623 248.905 281.609 248.875 281.588L150.649 217.905C148.908 217.014 147.413 215.705 146.299 214.093C145.26 212.288 144.765 210.218 144.874 208.136L144.877 130.081Z" fill="#DEE4F8"/>
<path fill-rule="evenodd" clip-rule="evenodd" d="M139.825 133.364C139.822 133.327 139.827 133.291 139.839 133.257C139.851 133.222 139.87 133.191 139.894 133.164C139.919 133.137 139.949 133.116 139.982 133.102C140.015 133.087 140.051 133.08 140.087 133.08C140.124 133.08 140.16 133.087 140.193 133.102C140.226 133.116 140.256 133.137 140.281 133.164C140.305 133.191 140.324 133.222 140.336 133.257C140.348 133.291 140.353 133.327 140.35 133.364V224.75C140.35 227.309 140.639 229.435 141.635 231.321C142.631 233.207 144.345 234.874 147.201 236.527L194.118 263.713C194.561 263.965 194.929 264.33 195.186 264.771C195.442 265.212 195.577 265.714 195.577 266.225C195.577 266.736 195.442 267.237 195.186 267.679C194.929 268.12 194.561 268.485 194.118 268.737L152.224 293.012C152.194 293.034 152.161 293.049 152.125 293.057C152.089 293.064 152.052 293.065 152.016 293.057C151.98 293.05 151.946 293.035 151.916 293.013C151.886 292.991 151.861 292.964 151.843 292.932C151.825 292.9 151.813 292.865 151.809 292.828C151.805 292.792 151.809 292.755 151.82 292.72C151.831 292.684 151.85 292.652 151.874 292.625C151.899 292.597 151.929 292.575 151.962 292.56L193.855 268.287C194.218 268.082 194.52 267.784 194.731 267.423C194.933 267.058 195.039 266.647 195.039 266.229C195.039 265.812 194.933 265.401 194.731 265.036C194.521 264.675 194.219 264.377 193.856 264.172L146.939 236.983C143.993 235.274 142.214 233.54 141.171 231.563C140.129 229.586 139.825 227.388 139.825 224.747V133.364Z" fill="#DEE4F8"/>
<path fill-rule="evenodd" clip-rule="evenodd" d="M134.038 136.575C134.043 136.508 134.073 136.446 134.122 136.401C134.171 136.356 134.235 136.331 134.301 136.331C134.367 136.331 134.431 136.356 134.48 136.401C134.529 136.446 134.558 136.508 134.563 136.575V228.553C134.532 230.735 135.089 232.884 136.176 234.773C137.263 236.662 138.839 238.221 140.737 239.284L166.789 254.346C167.232 254.598 167.601 254.963 167.858 255.404C168.114 255.845 168.25 256.347 168.25 256.858C168.25 257.369 168.116 257.871 167.86 258.313C167.604 258.754 167.237 259.12 166.794 259.373L70.2307 315.383C70.1718 315.409 70.1055 315.412 70.0444 315.392C69.9833 315.372 69.9317 315.331 69.8992 315.275C69.8668 315.219 69.8558 315.154 69.8684 315.09C69.8809 315.027 69.9162 314.971 69.9675 314.932L166.532 258.918C166.895 258.711 167.197 258.412 167.407 258.051C167.617 257.689 167.728 257.278 167.728 256.859C167.728 256.441 167.617 256.03 167.407 255.668C167.197 255.306 166.895 255.007 166.532 254.801L140.478 239.738C138.5 238.629 136.858 237.004 135.725 235.034C134.591 233.065 134.009 230.826 134.04 228.552L134.038 136.575Z" fill="#DEE4F8"/>
<path d="M38.5787 281.781C36.3153 281.781 34.0268 281.646 31.7768 281.379L31.7333 281.373C30.3806 281.172 29.0967 280.956 27.8099 280.715C26.5572 280.482 25.281 280.219 23.9076 279.909L23.8836 279.904L23.859 279.901L23.8544 279.901C21.9059 279.402 19.9095 278.841 17.7523 278.185C15.8909 277.62 13.9249 276.981 11.7434 276.235L11.3862 276.014C10.0297 274.682 9.01155 273.634 8.08824 272.618C7.03008 271.455 6.02739 270.25 5.02306 268.935L4.98442 268.881C4.35234 267.951 3.76576 266.978 3.24098 265.989C2.73003 264.974 2.30257 263.908 1.97042 262.82L1.92729 262.647L1.60686 259.94V257.299V257.245L1.59166 257.193C0.971759 255.074 0.96947 253.103 1.5847 251.169C2.16451 249.345 3.29354 247.558 5.03633 245.703C8.85005 241.642 15.1601 237.959 23.149 233.298L23.2087 233.263C26.5088 231.338 30.2494 229.157 33.9795 226.841C34.6809 226.405 35.7056 226.184 37.0252 226.184C40.7732 226.184 46.8785 227.993 54.2164 231.276C60.9886 234.307 68.2346 238.337 74.0967 242.333L74.0987 242.334L74.1006 242.335C76.9124 244.201 79.6022 246.299 82.096 248.573C84.3415 250.695 85.6935 252.592 86.0056 254.059L86.0074 254.068L86.0095 254.076C86.2017 254.814 86.1051 255.588 85.7374 256.255L85.6399 256.432L85.6919 256.532L85.6925 256.654C85.6991 258.16 85.7061 259.718 85.6488 261.236L85.5457 261.648L85.249 262.218L84.9889 262.528L84.3704 263.014L84.239 263.1L81.7152 264.476L81.7135 264.477L81.7118 264.478C79.6785 265.614 77.4577 266.883 74.9747 268.306C70.3002 270.989 65.467 273.764 60.4905 276.254L60.4546 276.273C58.7328 277.056 56.8654 277.887 54.8761 278.659C52.9909 279.387 51.0482 280.022 49.1022 280.546L49.061 280.555L49.0573 280.556L49.0534 280.557C46.2316 281.214 43.3341 281.616 40.4421 281.751C39.824 281.771 39.1971 281.781 38.5787 281.781ZM35.7144 276.15V276.546V276.548V279.813V280.171L36.0711 280.189C36.9691 280.233 37.8072 280.254 38.6333 280.254C39.2233 280.254 39.8119 280.243 40.3829 280.22L40.3853 280.22L40.3877 280.22L40.6619 280.206L41.0174 280.187V279.83V276.567V276.173L40.6257 276.191C39.9737 276.22 39.3019 276.235 38.629 276.235C37.8116 276.235 36.9634 276.213 36.1081 276.17L35.7144 276.15ZM46.5543 275.527L46.116 275.602C44.6276 275.858 43.1088 276.038 41.6019 276.137L41.2513 276.16V276.512V279.771V280.176L41.6542 280.146C43.186 280.032 44.7309 279.834 46.2459 279.56L46.5543 279.505V279.19V275.973V275.527ZM30.1759 275.551V275.988V275.99V279.252V279.571L30.4895 279.623C30.9657 279.702 31.4595 279.779 31.9571 279.852L31.9646 279.853L31.9722 279.854C33.1102 279.973 34.126 280.063 35.0777 280.13L35.4789 280.158V279.755V276.489V276.138L35.1301 276.113C33.627 276.008 32.105 275.84 30.6063 275.616L30.1759 275.551ZM4.25612 262.528L3.59081 262.859C3.86556 263.691 4.20503 264.508 4.59981 265.288L4.60164 265.292L4.60347 265.295C5.10042 266.227 5.6555 267.143 6.25344 268.018L6.25893 268.026L6.26479 268.034C7.20091 269.262 8.16753 270.423 9.21965 271.585C10.0849 272.536 11.0335 273.516 12.2958 274.762L12.357 274.823L12.4382 274.85C14.5943 275.586 16.4779 276.197 18.1963 276.719C20.2239 277.334 22.2071 277.889 24.2598 278.417L24.2654 278.418L24.2712 278.42C25.4921 278.693 26.7396 278.951 28.0854 279.207C28.6066 279.303 29.07 279.385 29.5049 279.459L29.6959 279.492L29.8328 279.354L29.9427 279.244L29.9434 279.087V275.839V275.519L29.6285 275.467C24.298 274.6 18.39 272.999 11.567 270.574L11.3406 270.494L11.1654 270.326C8.15306 267.478 5.89354 264.927 4.25612 262.528ZM52.0919 274.126L51.6065 274.276C50.1254 274.734 48.6061 275.119 47.0907 275.422L46.95 275.45L46.8638 275.565L46.7889 275.665L46.7883 275.791V279.006V279.464L47.236 279.375C47.7555 279.272 48.2285 279.172 48.6822 279.07L48.69 279.068L48.6976 279.066C49.7716 278.776 50.7975 278.468 51.8343 278.125L52.0919 278.039V277.767V274.636V274.126ZM52.3254 274.321V277.428V277.959L52.8246 277.783C53.3749 277.589 53.8689 277.407 54.3348 277.225C55.2605 276.868 56.2361 276.464 57.4033 275.953L57.6284 275.855V275.608V272.585V272.016L57.1067 272.238C55.4931 272.927 54.0134 273.492 52.583 273.965L53.0754 274.322L52.3254 274.321ZM63.1657 269.335L62.6191 269.618C61.0819 270.412 59.5563 271.15 58.0845 271.811L58.5946 272.039L57.8623 272.153V275.174V275.756L58.3912 275.518L59.7937 274.885L59.8007 274.882L59.8077 274.878C60.8528 274.353 61.9153 273.806 62.9656 273.25L63.1657 273.144V272.917V269.952V269.335ZM39.4548 254.443L39.2673 254.551L14.9321 268.637L14.2092 269.056L15.0009 269.32C24.2576 272.414 31.7057 273.855 38.4408 273.855C46.0486 273.855 52.6492 272.081 61.2237 267.731L61.8423 267.417L61.242 267.069L39.6422 254.551L39.4548 254.443ZM68.7023 266.305L68.1436 266.62C66.5004 267.546 65.0142 268.358 63.6001 269.102L63.3993 269.207V269.435V272.394V273.022L63.9512 272.726C65.4681 271.912 67.0022 271.068 68.5109 270.218L68.7023 270.11V269.889V266.948V266.305ZM68.9368 266.018L68.9364 266.394V269.336V269.98L69.4955 269.664C71.0524 268.784 72.5852 267.909 74.0511 267.064L74.2393 266.956V266.738V263.789V263.139L73.6776 263.463L73.3248 263.666C71.7827 264.552 70.4951 265.291 69.2132 266.018H68.9368ZM15.1432 240.777C11.1535 243.311 8.54646 245.321 6.70516 247.281C4.02458 250.134 3.12206 252.962 3.86519 256.179C4.64852 259.57 7.37505 263.482 12.2003 268.138L12.4035 268.334L12.6477 268.193L37.3739 253.876L37.9364 253.55L37.374 253.224L15.7058 240.658L15.1432 240.331V240.777ZM79.7765 259.987L79.218 260.302C77.6613 261.178 76.1284 262.051 74.6619 262.895L74.4735 263.003V263.221V266.173V266.823L75.0349 266.5C76.2364 265.809 77.8395 264.891 79.5846 263.911L79.7765 263.803V263.582V260.63V259.987ZM65.2917 239.484L65.1026 239.594L41.5523 253.227L41.0036 253.544L41.5449 253.874L41.5485 253.876L41.5531 253.879L63.2693 266.465L63.4495 266.569L63.6333 266.471C65.0474 265.714 66.6417 264.83 68.5071 263.769C69.7841 263.043 70.9369 262.381 72.1574 261.679L72.1867 261.662C75.4703 259.776 79.1917 257.637 83.3301 255.405C83.6615 255.257 83.8442 254.887 83.7589 254.532C83.5394 253.5 82.481 252.099 80.5236 250.247L80.521 250.245L80.5184 250.242C78.1131 248.052 75.5203 246.03 72.8123 244.232C70.5603 242.695 68.0934 241.135 65.4798 239.595L65.2917 239.484ZM80.0108 260.165V263.032V263.672L80.5681 263.361L80.9689 263.137L83.4413 261.787L83.4681 261.772L83.4923 261.753L83.8759 261.454L83.9399 261.404L83.9777 261.332L84.0874 261.122L84.127 261.046L84.1301 260.961L84.1472 260.496L84.1475 260.489V260.482L84.1442 258.207L84.1433 257.574L83.5897 257.877C82.5688 258.436 81.368 259.095 80.2029 259.747L79.8897 259.922L80.0108 260.165ZM35.0922 228.849C31.3167 231.196 27.8746 233.203 24.5448 235.145L24.3573 235.255L24.0819 235.416C21.7544 236.774 19.556 238.058 17.5253 239.295L16.984 239.624L17.5323 239.942L39.2829 252.553L39.4703 252.661L39.6578 252.553L63.1979 238.928L63.7673 238.598L63.1948 238.274C54.6189 233.417 43.419 228.227 37.7045 228.227C36.6349 228.227 35.7867 228.417 35.1833 228.791L35.0926 228.848L35.0922 228.849Z" fill="#DEE4F8"/>
<path d="M38.5772 281.405C39.1904 281.405 39.8122 281.395 40.4256 281.375C43.2944 281.241 46.1681 280.842 48.9672 280.19L49.0137 280.18C50.9436 279.66 52.8702 279.03 54.7394 278.308C56.7171 277.541 58.5759 276.713 60.2905 275.933L60.3217 275.917C65.2886 273.432 70.1171 270.66 74.7873 267.979C77.2713 266.556 79.493 265.286 81.528 264.149L81.5347 264.145L84.0452 262.776L84.1504 262.707L84.7256 262.256L84.9341 262.007L85.1913 261.513L85.274 261.183C85.3294 259.685 85.3227 258.145 85.316 256.655L85.3159 256.625L85.2128 256.426L85.4078 256.073C85.7286 255.491 85.8129 254.815 85.6452 254.171L85.6374 254.138C85.3413 252.746 84.0283 250.918 81.8399 248.849C79.361 246.59 76.687 244.504 73.8923 242.649L73.8845 242.644C68.04 238.66 60.815 234.642 54.0622 231.62C46.7713 228.357 40.7203 226.56 37.0237 226.56C35.775 226.56 34.8167 226.762 34.1753 227.161C30.4408 229.479 26.6979 231.662 23.3957 233.588L23.3361 233.623C19.4738 235.877 15.8259 238.005 12.7603 240.025C9.40109 242.238 7.03298 244.124 5.30758 245.961C3.60424 247.774 2.50286 249.515 1.94046 251.283C1.34875 253.144 1.35186 255.042 1.94998 257.087L1.98037 257.191V259.917L2.29541 262.579L2.33047 262.72C2.65557 263.782 3.07342 264.824 3.57257 265.816C4.08966 266.79 4.66735 267.749 5.28991 268.665L5.3226 268.71C6.31915 270.015 7.31396 271.211 8.3638 272.364C9.2753 273.367 10.2808 274.403 11.6171 275.715L11.9028 275.892C14.0642 276.631 16.0136 277.264 17.8594 277.825C20.0007 278.476 21.9826 279.033 23.9165 279.529L23.9403 279.531L23.9884 279.542C25.357 279.85 26.6287 280.113 27.8774 280.345C29.1588 280.585 30.4375 280.8 31.7866 281.001L31.8239 281.006C34.0579 281.271 36.3299 281.405 38.5772 281.405ZM35.8524 280.555V280.562L35.542 280.54L35.3379 280.53V280.526L35.05 280.505C34.094 280.438 33.0741 280.347 31.9318 280.228L31.9017 280.224C31.4016 280.151 30.9054 280.074 30.4267 279.994L29.8239 279.894L29.8226 279.895L29.4405 279.83C29.0042 279.756 28.5393 279.673 28.0193 279.578L28.0139 279.577C26.6643 279.32 25.4127 279.061 24.188 278.787L24.1652 278.781C22.1073 278.252 20.1191 277.695 18.0861 277.079C16.3637 276.556 14.4762 275.943 12.316 275.207L12.1536 275.151L12.0314 275.03C10.764 273.779 9.81115 272.795 8.94076 271.838C7.88131 270.668 6.90811 269.499 5.96548 268.262L5.94268 268.231C5.33706 267.345 4.77474 266.417 4.27139 265.473L4.26406 265.459C3.86077 264.662 3.51397 263.827 3.23327 262.977L4.56408 262.315C6.18612 264.692 8.42852 267.222 11.4195 270.051L11.5398 270.166L11.6906 270.22C18.4924 272.637 24.379 274.232 29.6871 275.096L29.8397 275.121L30.6601 275.244C32.1492 275.467 33.6614 275.633 35.1547 275.738L35.5282 275.764L36.1254 275.794C36.9744 275.837 37.8162 275.858 38.6275 275.858C39.2948 275.858 39.9609 275.844 40.6075 275.815L41.0772 275.794L41.5758 275.761C43.0699 275.663 44.5756 275.485 46.0513 275.231L46.7302 275.115L46.7346 275.109L47.016 275.052C48.5189 274.752 50.0258 274.37 51.4948 273.916L52.4654 273.617V274.321L52.6988 274.321L52.4642 273.607C53.8845 273.137 55.3545 272.576 56.9584 271.892L57.9336 271.476L57.9299 271.467C59.3955 270.809 60.9148 270.074 62.4459 269.283L63.0228 268.985V268.98L63.4246 268.768C64.8354 268.026 66.3184 267.216 67.9585 266.291L68.5601 265.952L68.5603 265.641H69.1131C70.366 264.931 71.6298 264.205 73.1366 263.34L74.4739 262.568C75.9413 261.723 77.4753 260.851 79.0331 259.974L79.3934 259.771L79.3924 259.769L80.0187 259.418C80.0526 259.399 80.0864 259.38 80.1203 259.361L80.15 259.345C81.275 258.716 82.4253 258.085 83.4087 257.547L84.5159 256.941L84.521 260.495L84.5206 260.51L84.4971 261.145L84.2327 261.651L83.6728 262.088L81.1459 263.468L79.7662 264.239C78.0226 265.218 76.4206 266.136 75.2198 266.827L74.097 267.472V267.471C72.6726 268.291 71.1867 269.139 69.678 269.992L68.5599 270.624V270.621C67.0919 271.447 65.6011 272.266 64.1265 273.058L63.0228 273.65V273.644C62.0081 274.18 60.983 274.708 59.9739 275.215L59.9459 275.228L57.4859 276.338V276.327C56.3425 276.826 55.3812 277.224 54.4693 277.575C53.9994 277.759 53.5016 277.943 52.9472 278.138L52.4654 278.308V278.312L52.2956 278.368L51.9489 278.49V278.482C50.906 278.827 49.8739 279.137 48.7938 279.43L48.7627 279.437C48.306 279.54 47.8299 279.64 47.3071 279.744L46.4118 279.921V279.912L46.3108 279.931C44.7832 280.207 43.2253 280.406 41.6806 280.521L40.8748 280.582V280.571L40.3962 280.596C39.8202 280.619 39.2266 280.631 38.6318 280.631C37.7996 280.631 36.9555 280.609 36.0514 280.565L35.8524 280.555ZM39.4535 254.008L62.6287 267.439L61.3914 268.067C52.7603 272.445 46.1105 274.231 38.4393 274.231C31.6628 274.231 24.177 272.784 14.881 269.677L13.2974 269.148L39.4535 254.008ZM14.7667 240.57V239.679L38.6849 253.55L12.3453 268.801L11.9389 268.409C7.05963 263.701 4.29867 259.728 3.49841 256.263C2.73495 252.958 3.69415 249.936 6.43084 247.023C8.2673 245.067 10.8474 243.069 14.7667 240.57ZM65.2918 239.049L65.6682 239.271C68.288 240.814 70.7614 242.378 73.0197 243.92C75.7429 245.727 78.3501 247.761 80.7689 249.964L80.7794 249.973C82.7914 251.876 83.8855 253.341 84.1232 254.449C84.2463 254.973 83.9798 255.518 83.4951 255.743C79.3654 257.97 75.6503 260.105 72.3716 261.989L72.3422 262.006C71.1214 262.707 69.9682 263.37 68.6905 264.096C66.8222 265.159 65.2253 266.044 63.8083 266.803L63.4409 267L41.3487 254.196L40.2662 253.536L65.2918 239.049ZM34.8028 228.585L34.8034 228.584L34.9847 228.471C35.6482 228.06 36.5628 227.851 37.703 227.851C43.4901 227.851 54.7602 233.066 63.3776 237.946L64.5226 238.595L39.4687 253.096L16.2465 239.632L17.3293 238.973C19.3629 237.734 21.5628 236.45 23.8918 235.09L24.3549 234.82C27.6559 232.895 31.0672 230.905 34.8028 228.585ZM38.5772 282.158C36.2883 282.158 34.0008 282.022 31.7267 281.752L31.6787 281.746C30.3587 281.549 29.0595 281.333 27.7395 281.085C26.4812 280.851 25.1919 280.584 23.8239 280.276L23.7893 280.273C21.732 279.747 19.7027 279.172 17.6421 278.546C15.592 277.922 13.6 277.269 11.5811 276.577L11.1525 276.312C9.932 275.115 8.84161 274.007 7.80972 272.872C6.76757 271.726 5.76626 270.529 4.72064 269.159L4.67605 269.097C4.03326 268.152 3.44238 267.172 2.90679 266.162C2.38211 265.121 1.9476 264.037 1.60757 262.921L1.55621 262.715L1.23037 259.962V257.299C-0.0791061 252.822 1.35076 249.075 4.76202 245.445C8.62271 241.333 15.1092 237.553 23.0187 232.937C26.4163 230.956 30.0848 228.815 33.7808 226.521C39.328 223.073 60.7151 232.757 74.3059 242.021C77.1427 243.904 79.8318 246.001 82.3491 248.296C84.5739 250.399 86.0245 252.353 86.3708 253.981C86.5864 254.809 86.4768 255.688 86.064 256.437L86.0651 256.439C86.0721 258.06 86.0825 259.681 86.0206 261.29L85.8971 261.782L85.561 262.429L85.2492 262.801L84.5874 263.32L84.4299 263.423L81.8927 264.807C79.8046 265.973 77.4835 267.301 75.1591 268.632C70.3763 271.378 65.5866 274.124 60.6563 276.591L60.6154 276.612C58.6206 277.52 56.856 278.294 55.0098 279.01C53.1036 279.746 51.1606 280.382 49.1881 280.912L49.1367 280.923C46.2853 281.587 43.3796 281.99 40.4556 282.127C39.8295 282.147 39.2033 282.158 38.5772 282.158ZM36.0879 276.546V279.813C37.5656 279.885 38.9712 279.899 40.3667 279.844L40.6409 279.83V276.567C39.1736 276.632 37.6614 276.625 36.0879 276.546ZM46.1778 275.973C44.6704 276.232 43.1508 276.412 41.6248 276.512V279.771C43.1515 279.657 44.6711 279.463 46.1778 279.19V275.973ZM30.5494 275.988V279.252C31.0258 279.331 31.5125 279.407 32.0096 279.479C33.0895 279.592 34.1146 279.685 35.1024 279.754V276.489C33.6384 276.386 32.1227 276.224 30.5494 275.988ZM3.94528 262.74C4.21463 263.556 4.54449 264.351 4.93267 265.118C5.42568 266.042 5.96969 266.94 6.56112 267.805C7.54495 269.095 8.49829 270.23 9.49566 271.331C10.4627 272.395 11.4602 273.411 12.5574 274.494C14.5355 275.169 16.4346 275.791 18.3035 276.359C20.2336 276.944 22.2224 277.505 24.3514 278.052C25.6131 278.335 26.8642 278.592 28.1538 278.837C28.6197 278.923 29.0863 279.006 29.5662 279.088L29.5669 279.087V275.839C24.3077 274.983 18.3728 273.393 11.4403 270.929L11.1384 270.822L10.9051 270.599C7.87078 267.729 5.5772 265.132 3.94528 262.74ZM51.7154 274.636C50.218 275.098 48.6983 275.484 47.1624 275.791L47.1618 275.791V279.006C47.6314 278.913 48.1081 278.813 48.5986 278.703C49.7161 278.4 50.7379 278.091 51.7154 277.767V274.636ZM52.6988 274.321L52.6989 277.428C53.2064 277.249 53.7035 277.067 54.1973 276.874C55.1882 276.492 56.192 276.072 57.2519 275.608V272.585C55.7366 273.231 54.2278 273.816 52.6988 274.321ZM58.2359 272.153V275.174L59.6384 274.541C60.6941 274.011 61.7445 273.47 62.7892 272.917V269.952C61.25 270.748 59.7381 271.48 58.2362 272.154L58.2359 272.153ZM39.4532 254.877L15.1179 268.963C24.5464 272.114 31.9819 273.479 38.4393 273.479C46.9018 273.479 53.6829 271.134 61.053 267.395L39.4532 254.877ZM68.3258 266.948C66.7695 267.825 65.257 268.654 63.7728 269.435V272.394C65.2985 271.575 66.8161 270.74 68.3258 269.889V266.948ZM69.3099 266.394V269.336C70.8319 268.476 72.3495 267.61 73.8628 266.738V263.789L73.51 263.992C72.0666 264.822 70.6709 265.623 69.3099 266.394ZM15.5167 240.983V240.985C11.9374 243.248 9.00622 245.378 6.97659 247.539C2.13189 252.696 2.66702 258.418 12.4588 267.866L37.185 253.549L15.5167 240.983ZM79.4 260.63C77.8293 261.514 76.3119 262.378 74.847 263.221V266.173C76.3211 265.326 77.8127 264.474 79.4 263.582V260.63ZM65.2885 239.92L41.7382 253.552L41.7391 253.553L63.4553 266.139C65.0757 265.271 66.7353 264.343 68.3207 263.442C69.6074 262.71 70.7863 262.032 71.9989 261.336C75.3827 259.391 79.0305 257.296 83.1654 255.066C83.3423 254.993 83.4385 254.801 83.3918 254.616C83.1862 253.634 82.0509 252.21 80.2649 250.521C77.8657 248.336 75.3039 246.338 72.6016 244.545C70.3387 243 67.8588 241.434 65.2885 239.92ZM83.7677 258.208C82.617 258.837 81.4844 259.46 80.3839 260.076L80.3843 260.076V263.032L80.7851 262.808L83.2605 261.456L83.6441 261.157L83.7539 260.947L83.771 260.482L83.7677 258.208ZM37.703 228.604C36.7263 228.604 35.9376 228.765 35.3789 229.111L35.3785 229.112C31.4907 231.531 27.887 233.63 24.5443 235.58C22.1168 236.997 19.8259 238.333 17.7184 239.616L39.469 252.227L63.0091 238.602C53.3388 233.125 42.8762 228.604 37.703 228.604Z" fill="#F6F8FA"/>
</svg>
