<svg width="81" height="125" viewBox="0 0 81 125" fill="none" xmlns="http://www.w3.org/2000/svg">
<g clip-path="url(#clip0_9_94210)">
<path d="M7.14295 113.809C6.9398 113.809 6.74496 113.728 6.60131 113.584C6.45766 113.441 6.37695 113.246 6.37695 113.043V113.024C6.3769 112.862 6.42783 112.705 6.52247 112.574C6.61711 112.444 6.75062 112.346 6.90395 112.296L54.743 84.6958C54.8302 84.6433 54.927 84.6086 55.0278 84.5939C55.1286 84.5793 55.2312 84.5848 55.3298 84.6103C55.4284 84.6358 55.521 84.6806 55.602 84.7423C55.6831 84.8039 55.751 84.8811 55.8019 84.9694C55.8527 85.0576 55.8855 85.1551 55.8982 85.2561C55.911 85.3571 55.9034 85.4597 55.8761 85.5578C55.8487 85.6559 55.802 85.7475 55.7388 85.8274C55.6756 85.9072 55.5971 85.9737 55.508 86.0228L7.52595 113.707C7.40946 113.774 7.27736 113.809 7.14295 113.809Z" fill="#1B69FF"/>
<path d="M7.14201 113.792C6.96472 113.793 6.79303 113.731 6.65617 113.618C6.52859 113.513 6.40763 113.4 6.29411 113.28C5.93489 112.948 5.66478 112.531 5.50822 112.067C5.37933 111.621 5.30249 111.162 5.27922 110.698C5.26524 110.499 5.32986 110.302 5.45939 110.149C5.58892 109.997 5.77308 109.901 5.97233 109.882C6.17158 109.864 6.37009 109.924 6.52556 110.05C6.68102 110.176 6.781 110.358 6.80412 110.556C6.89212 111.5 6.93319 111.764 7.37419 112.193L7.40007 112.219C7.47143 112.295 7.54762 112.367 7.62809 112.433C7.75018 112.534 7.83823 112.669 7.88029 112.821C7.92235 112.974 7.91628 113.135 7.86296 113.284C7.80963 113.433 7.71168 113.561 7.58244 113.652C7.4532 113.743 7.29901 113.792 7.14103 113.791L7.14201 113.792Z" fill="#1B69FF"/>
<path d="M50.3733 37.0772C50.2384 37.0784 50.1056 37.0439 49.9883 36.9773L45.4103 34.3113C45.2944 34.2439 45.1983 34.1473 45.1314 34.0311C45.0645 33.915 45.0293 33.7833 45.0293 33.6492V24.5203C45.0293 24.3171 45.11 24.1223 45.2537 23.9786C45.3973 23.835 45.5921 23.7542 45.7953 23.7542C45.9985 23.7542 46.1933 23.835 46.3369 23.9786C46.4806 24.1223 46.5613 24.3171 46.5613 24.5203V33.2083L49.6103 34.9802L49.6273 24.0472C49.6273 23.8441 49.708 23.6493 49.8517 23.5056C49.9953 23.362 50.1901 23.2813 50.3933 23.2813C50.5965 23.2812 50.7913 23.362 50.9349 23.5056C51.0786 23.6493 51.1593 23.8441 51.1593 24.0472L51.1403 36.3103C51.14 36.5132 51.0592 36.7078 50.9156 36.8512C50.772 36.9947 50.5773 37.0753 50.3743 37.0753L50.3733 37.0772Z" fill="#1B69FF"/>
<path d="M50.3923 24.8153C50.2132 24.8149 50.04 24.7518 49.9026 24.6369C49.7652 24.522 49.6724 24.3625 49.6404 24.1863C49.4954 23.388 49.2622 22.6082 48.9453 21.8613C48.9403 21.8493 48.9354 21.8383 48.9314 21.8263C48.8468 21.5937 48.7466 21.3672 48.6314 21.1483C48.6224 21.1323 48.6144 21.1163 48.6074 21.0993C48.5071 20.8737 48.3922 20.6549 48.2634 20.4443L48.2444 20.4113C47.9947 19.9543 47.7171 19.5132 47.4133 19.0903L47.2595 18.8762C47.2004 18.7948 47.1577 18.7026 47.1343 18.6048C47.1108 18.5069 47.107 18.4054 47.1228 18.3061C47.1386 18.2067 47.1737 18.1114 47.2263 18.0257C47.2789 17.9399 47.348 17.8654 47.4295 17.8063C47.5109 17.7472 47.6031 17.7047 47.7009 17.6812C47.7988 17.6578 47.9002 17.6539 47.9995 17.6696C48.0989 17.6854 48.1943 17.7207 48.28 17.7733C48.3658 17.8259 48.4404 17.8949 48.4995 17.9763L48.6555 18.1923C48.992 18.6617 49.2998 19.1508 49.5774 19.6573C49.7321 19.9122 49.8711 20.1763 49.9934 20.4483C50.134 20.7157 50.2572 20.992 50.3623 21.2753C50.7201 22.1214 50.9835 23.0044 51.1475 23.9083C51.1669 24.0185 51.1618 24.1317 51.1328 24.2398C51.1038 24.348 51.0517 24.4484 50.9797 24.5342C50.9078 24.62 50.8178 24.689 50.7163 24.7363C50.6149 24.7836 50.5043 24.8082 50.3923 24.8083V24.8153Z" fill="#1B69FF"/>
<path d="M50.3773 37.0772C50.2767 37.0772 50.177 37.0574 50.084 37.0188C49.991 36.9803 49.9065 36.9238 49.8353 36.8525C49.7642 36.7813 49.7078 36.6967 49.6694 36.6037C49.6309 36.5106 49.6112 36.4109 49.6113 36.3103L49.6303 24.0472C49.6303 23.8441 49.711 23.6493 49.8547 23.5056C49.9983 23.362 50.1932 23.2812 50.3963 23.2812C50.5995 23.2812 50.7943 23.362 50.938 23.5056C51.0816 23.6493 51.1623 23.8441 51.1623 24.0472L51.1453 34.9802L56.6903 31.7753C56.866 31.6769 57.0733 31.6517 57.2674 31.705C57.4615 31.7583 57.6268 31.8858 57.7276 32.0601C57.8284 32.2343 57.8566 32.4412 57.806 32.6361C57.7554 32.8309 57.6302 32.998 57.4573 33.1012L50.7573 36.9722C50.642 37.0398 50.511 37.076 50.3773 37.0772Z" fill="#1B69FF"/>
<path d="M57.0728 33.2058C56.9033 33.2058 56.7386 33.1497 56.6045 33.0461C56.4704 32.9426 56.3744 32.7975 56.3315 32.6336C56.2887 32.4697 56.3014 32.2961 56.3677 32.1402C56.4339 31.9843 56.55 31.8547 56.6978 31.7718C57.2268 31.4718 57.8347 31.1258 58.3337 30.7778L58.3438 30.7718C59.3618 30.0848 59.8646 29.5088 59.8806 29.0118C59.8966 28.4968 59.3896 27.8258 58.4116 27.0718C58.2508 26.9477 58.1459 26.7647 58.1199 26.5632C58.0939 26.3617 58.1491 26.1582 58.2732 25.9973C58.3973 25.8365 58.5802 25.7315 58.7817 25.7055C58.9832 25.6795 59.1868 25.7346 59.3477 25.8588C59.9394 26.2897 60.4584 26.8127 60.8848 27.4078C61.2559 27.8951 61.442 28.4982 61.4099 29.1099C61.3779 29.7215 61.1297 30.302 60.7097 30.7478C60.2721 31.2458 59.7673 31.6803 59.2097 32.0388C58.6567 32.4238 58.0097 32.7958 57.4517 33.1088C57.3359 33.1735 57.2054 33.207 57.0728 33.2058Z" fill="#1B69FF"/>
<path d="M50.3732 24.7816C50.1936 24.7814 50.0199 24.718 49.8822 24.6027C49.7446 24.4874 49.6517 24.3274 49.62 24.1506C49.1891 22.0998 48.2923 20.1756 46.9989 18.5267C45.7056 16.8779 44.0502 15.5485 42.1611 14.6416C37.9871 12.6596 36.2041 13.4906 32.2221 15.7336C32.1344 15.783 32.038 15.8146 31.9382 15.8267C31.8383 15.8388 31.737 15.8311 31.6401 15.804C31.5432 15.7769 31.4526 15.731 31.3735 15.6689C31.2943 15.6068 31.228 15.5298 31.1786 15.4421C31.1293 15.3545 31.0977 15.2579 31.0856 15.1581C31.0735 15.0582 31.0813 14.9569 31.1083 14.86C31.1354 14.7631 31.1812 14.6725 31.2433 14.5933C31.3054 14.5141 31.3825 14.448 31.4701 14.3986C33.0935 13.3402 34.8861 12.5674 36.7702 12.1136C38.8565 11.8347 40.9771 12.2362 42.8171 13.2586C44.8674 14.2541 46.674 15.6879 48.1091 17.4586C49.6399 19.3107 50.6767 21.5205 51.1222 23.8816C51.1416 23.9918 51.1365 24.1049 51.1076 24.2129C51.0787 24.321 51.0266 24.4214 50.9548 24.5072C50.8829 24.5929 50.7931 24.6619 50.6918 24.7093C50.5905 24.7567 50.48 24.7814 50.3681 24.7816H50.3732Z" fill="#1B69FF"/>
<path d="M29.7696 49.1701C29.1548 49.177 28.5493 49.0207 28.0147 48.7171H28.0086C27.3735 48.3328 26.8708 47.7637 26.5677 47.0861C26.2258 46.3102 26.0577 45.4688 26.0755 44.6211C26.0755 44.6111 26.0755 44.6011 26.0755 44.5921C26.152 42.6299 26.7212 40.7185 27.7305 39.0341C28.6817 37.3021 30.0642 35.8451 31.7437 34.8041L31.7606 34.7941C32.5847 34.2783 33.5318 33.9921 34.5037 33.9651C35.1222 33.9574 35.7315 34.114 36.2696 34.4191C36.931 34.8656 37.4598 35.4818 37.8008 36.2033C38.1418 36.9247 38.2824 37.7247 38.2076 38.5191C38.2081 38.5281 38.2081 38.5371 38.2076 38.5461C38.1369 40.5135 37.5653 42.4303 36.5467 44.1151C35.7507 45.5224 34.6851 46.759 33.4107 47.7541C32.3816 48.6065 31.1042 49.1033 29.7696 49.1701ZM28.7796 47.3911C29.0821 47.559 29.4236 47.6442 29.7696 47.6381C31.5146 47.6381 33.7577 45.8701 35.2247 43.3381L35.2327 43.3251C36.1156 41.8665 36.6121 40.2069 36.6756 38.5031C36.7385 37.9812 36.6636 37.4521 36.4583 36.9682C36.253 36.4843 35.9246 36.0626 35.5057 35.7451C35.2002 35.5751 34.8552 35.4889 34.5057 35.4951C33.8098 35.526 33.134 35.7377 32.5447 36.1091C31.0892 37.0126 29.892 38.2773 29.0696 39.7801L29.0535 39.8081C28.1752 41.2699 27.6788 42.9291 27.6097 44.6331C27.5533 45.1543 27.6312 45.6812 27.836 46.1638C28.0408 46.6464 28.3656 47.0695 28.7796 47.3911Z" fill="#1B69FF"/>
<path d="M22.3473 65.6898H22.3014C22.2009 65.6839 22.1026 65.6583 22.0121 65.6144C21.9215 65.5705 21.8404 65.5092 21.7736 65.434C21.7067 65.3588 21.6554 65.2711 21.6224 65.176C21.5895 65.0809 21.5755 64.9803 21.5814 64.8798C21.8565 61.6228 22.866 58.4705 24.5343 55.6598C26.2528 52.5426 28.744 49.9197 31.7684 48.0428C32.9906 47.3045 34.3526 46.8279 35.7684 46.6428C37.0516 46.4712 38.3558 46.7192 39.4864 47.3498C39.5737 47.3999 39.6503 47.4666 39.7118 47.5463C39.7733 47.626 39.8183 47.717 39.8446 47.8141C39.8709 47.9113 39.8778 48.0127 39.8649 48.1125C39.852 48.2123 39.8195 48.3085 39.7694 48.3958C39.5594 48.7628 23.2694 62.2748 23.1114 64.9738C23.0988 65.1678 23.0126 65.3497 22.8707 65.4827C22.7288 65.6157 22.5417 65.6897 22.3473 65.6898Z" fill="#1B69FF"/>
<path d="M58.7504 79.8666C58.6498 79.8666 58.5502 79.8468 58.4572 79.8083C58.3643 79.7698 58.2799 79.7134 58.2087 79.6423C58.0651 79.4986 57.9844 79.3038 57.9844 79.1006L58.0034 31.4066C58.0034 31.2035 58.0841 31.0086 58.2277 30.865C58.3714 30.7213 58.5662 30.6406 58.7694 30.6406C58.87 30.6406 58.9696 30.6604 59.0625 30.6989C59.1554 30.7374 59.2399 30.7939 59.311 30.865C59.3821 30.9361 59.4386 31.0206 59.4771 31.1135C59.5156 31.2064 59.5354 31.306 59.5354 31.4066L59.5164 79.1006C59.5164 79.3038 59.4357 79.4986 59.292 79.6423C59.1484 79.7859 58.9535 79.8666 58.7504 79.8666Z" fill="#1B69FF"/>
<path d="M55.1264 86.132C54.9576 86.1322 54.7934 86.0767 54.6594 85.974C54.5254 85.8713 54.4291 85.7272 54.3855 85.5641C54.3418 85.4011 54.3532 85.2281 54.4179 85.0722C54.4827 84.9163 54.597 84.7861 54.7434 84.702C55.6795 84.0823 56.4594 83.2543 57.0217 82.2827C57.584 81.311 57.9134 80.2223 57.9843 79.102C57.9843 78.8988 58.065 78.704 58.2087 78.5603C58.3524 78.4166 58.5473 78.3359 58.7504 78.3359C58.9536 78.3359 59.1483 78.4166 59.292 78.5603C59.4356 78.704 59.5163 78.8988 59.5163 79.102C59.4461 80.4923 59.046 81.8458 58.3488 83.0507C57.6517 84.2556 56.6776 85.2772 55.5073 86.0309C55.3914 86.0975 55.2601 86.1323 55.1264 86.132Z" fill="#1B69FF"/>
<path d="M6.04234 111.395C5.83936 111.395 5.64478 111.314 5.50135 111.17C5.35791 111.027 5.27734 110.832 5.27734 110.629L5.32234 39.183C5.32261 38.98 5.40343 38.7854 5.54705 38.642C5.69068 38.4985 5.88536 38.418 6.08834 38.418C6.29133 38.4182 6.4859 38.4991 6.62934 38.6427C6.77278 38.7863 6.85334 38.981 6.85334 39.184L6.80834 110.629C6.80834 110.832 6.72764 111.027 6.58399 111.171C6.44033 111.314 6.2455 111.395 6.04234 111.395Z" fill="#1B69FF"/>
<path d="M6.08698 39.9476H6.04816C5.84582 39.9375 5.6556 39.8477 5.51935 39.6977C5.3831 39.5478 5.31187 39.35 5.32111 39.1476C5.39142 37.7325 5.79661 36.3543 6.50348 35.1264C7.21036 33.8985 8.19862 32.856 9.38703 32.0846C9.47136 32.0264 9.5665 31.9858 9.66681 31.9651C9.76713 31.9443 9.87054 31.944 9.97101 31.9639C10.0715 31.9838 10.167 32.0237 10.2518 32.0812C10.3366 32.1387 10.4089 32.2126 10.4647 32.2986C10.5204 32.3845 10.5584 32.4808 10.5762 32.5816C10.5941 32.6825 10.5915 32.7859 10.5687 32.8858C10.5459 32.9856 10.5033 33.0799 10.4434 33.163C10.3835 33.2461 10.3075 33.3164 10.22 33.3696C9.2359 34.0099 8.41737 34.8742 7.83161 35.8917C7.24585 36.9092 6.90963 38.051 6.85016 39.2236C6.83944 39.4189 6.75424 39.6027 6.61237 39.7373C6.47051 39.8719 6.28255 39.9471 6.08698 39.9476Z" fill="#1B69FF"/>
<path d="M9.80171 33.4887C9.66715 33.4888 9.53493 33.4535 9.41836 33.3862C9.30179 33.319 9.205 33.2222 9.13771 33.1057C9.03622 32.9298 9.00871 32.7209 9.06121 32.5247C9.11371 32.3286 9.24194 32.1613 9.41771 32.0597L34.3157 17.6807C34.4916 17.5792 34.7005 17.5517 34.8967 17.6042C35.0928 17.6567 35.2601 17.7849 35.3617 17.9607C35.4632 18.1365 35.4907 18.3455 35.4382 18.5416C35.3857 18.7378 35.2575 18.905 35.0817 19.0067L10.1847 33.3857C10.0684 33.4532 9.93623 33.4887 9.80171 33.4887Z" fill="#1B69FF"/>
<path d="M45.7977 25.2866H45.7786C45.678 25.2843 45.5789 25.2622 45.4869 25.2215C45.3948 25.1808 45.3117 25.1224 45.2422 25.0496C45.1728 24.9768 45.1184 24.891 45.0821 24.7972C45.0458 24.7033 45.0282 24.6032 45.0306 24.5026C45.0017 23.4059 44.7034 22.3332 44.1619 21.3791C43.6204 20.425 42.8523 19.6188 41.9256 19.0316C40.5256 18.1486 38.1987 17.4316 35.0437 19.0316C34.8625 19.1234 34.6521 19.1394 34.459 19.0761C34.266 19.0128 34.106 18.8754 34.0142 18.6941C33.9224 18.5128 33.9065 18.3026 33.9698 18.1095C34.0331 17.9164 34.1703 17.7564 34.3516 17.6646C35.6777 16.9621 37.1512 16.5831 38.6517 16.5586C38.7517 16.5586 38.8517 16.5586 38.9517 16.5636C40.2976 16.6096 41.6067 17.0154 42.7427 17.7386C43.9308 18.4963 44.908 19.542 45.5835 20.7786C46.2354 21.9253 46.5728 23.2237 46.5616 24.5426C46.5559 24.7416 46.473 24.9305 46.3304 25.0694C46.1878 25.2083 45.9967 25.2862 45.7977 25.2866Z" fill="#1B69FF"/>
<path d="M58.8759 27.2331C58.7055 27.2331 58.54 27.1761 58.4059 27.0711L46.0169 17.4151C45.9374 17.3534 45.8709 17.2766 45.8211 17.1892C45.7713 17.1018 45.7392 17.0054 45.7267 16.9056C45.7141 16.8057 45.7214 16.7044 45.748 16.6074C45.7746 16.5104 45.8201 16.4195 45.8819 16.3401C45.9436 16.2603 46.0205 16.1936 46.1081 16.1436C46.1957 16.0936 46.2923 16.0615 46.3923 16.0489C46.4924 16.0364 46.5939 16.0437 46.6912 16.0705C46.7884 16.0973 46.8794 16.1431 46.9589 16.2051L59.3479 25.8631C59.4736 25.9612 59.5657 26.0961 59.6111 26.2491C59.6565 26.402 59.653 26.5653 59.6011 26.7161C59.5493 26.867 59.4516 26.9979 59.3218 27.0906C59.1919 27.1832 59.0364 27.2331 58.8769 27.2331H58.8759Z" fill="#1B69FF"/>
<path d="M7.14278 113.81C7.00887 113.811 6.87711 113.776 6.76078 113.71L2.48878 111.246C2.31283 111.144 2.18439 110.977 2.1317 110.781C2.07901 110.585 2.10637 110.376 2.20778 110.2C2.30925 110.024 2.47644 109.895 2.6726 109.843C2.86875 109.79 3.0778 109.817 3.25378 109.919L7.52578 112.377C7.67212 112.461 7.78656 112.591 7.8513 112.747C7.91604 112.903 7.92746 113.076 7.88378 113.239C7.84011 113.402 7.74378 113.546 7.60978 113.649C7.47577 113.751 7.3116 113.807 7.14278 113.807V113.81Z" fill="#1B69FF"/>
<path d="M2.88085 111.348C2.70133 111.348 2.52748 111.285 2.38989 111.17C1.94217 110.829 1.58269 110.385 1.34155 109.877C1.1004 109.368 0.984638 108.809 1.0039 108.247C0.991408 108.146 0.998918 108.044 1.02636 107.946C1.05381 107.848 1.10045 107.757 1.16357 107.677C1.22669 107.597 1.30505 107.531 1.39404 107.482C1.48303 107.433 1.58084 107.402 1.68188 107.391C1.78292 107.38 1.88526 107.39 1.98266 107.419C2.08006 107.448 2.17064 107.496 2.24926 107.56C2.32789 107.624 2.39302 107.704 2.44067 107.794C2.48831 107.883 2.51759 107.982 2.52685 108.083C2.64585 109.183 2.66982 109.408 3.37182 109.994C3.49262 110.095 3.57935 110.23 3.62036 110.382C3.66136 110.534 3.65472 110.695 3.60107 110.843C3.54742 110.991 3.44941 111.119 3.32055 111.209C3.19169 111.299 3.03822 111.348 2.88085 111.348Z" fill="#1B69FF"/>
<path d="M1.766 108.934C1.66541 108.934 1.5658 108.915 1.47286 108.876C1.37993 108.838 1.29549 108.781 1.22436 108.71C1.0807 108.566 1 108.371 1 108.168L1.026 36.7113C1.026 36.5082 1.1067 36.3133 1.25036 36.1697C1.39401 36.026 1.58884 35.9453 1.792 35.9453C1.89276 35.9451 1.99258 35.9647 2.08575 36.003C2.17892 36.0414 2.2636 36.0978 2.33494 36.169C2.40628 36.2401 2.46288 36.3247 2.5015 36.4177C2.54012 36.5108 2.56 36.6106 2.56 36.7113L2.532 108.168C2.532 108.371 2.4513 108.566 2.30764 108.71C2.16399 108.854 1.96916 108.934 1.766 108.934Z" fill="#1B69FF"/>
<path d="M1.7915 37.4759H1.74951C1.649 37.4705 1.55073 37.4454 1.45996 37.4019C1.36919 37.3584 1.28787 37.2974 1.2207 37.2224C1.15354 37.1475 1.10165 37.06 1.06836 36.965C1.03507 36.87 1.02094 36.7693 1.02661 36.6689C1.10376 35.2565 1.51155 33.8821 2.21728 32.6563C2.92302 31.4306 3.90694 30.3877 5.0896 29.6119C5.17369 29.5551 5.26816 29.5154 5.36767 29.4955C5.46719 29.4755 5.56967 29.4755 5.66919 29.4955C5.7687 29.5154 5.86341 29.555 5.94751 29.6118C6.03161 29.6686 6.10352 29.7416 6.15918 29.8264C6.21484 29.9113 6.25314 30.0064 6.27173 30.1062C6.29032 30.2059 6.28894 30.3085 6.26758 30.4077C6.24622 30.5069 6.20521 30.6009 6.14722 30.6842C6.08922 30.7675 6.01534 30.8384 5.92969 30.8929C4.94922 31.5388 4.13346 32.4052 3.54761 33.4227C2.96176 34.4402 2.62204 35.5807 2.55566 36.7529C2.54468 36.9482 2.45943 37.1318 2.31738 37.2663C2.17533 37.4007 1.98708 37.4757 1.7915 37.4759Z" fill="#1B69FF"/>
<path d="M5.52412 31.0181C5.38955 31.0182 5.25733 30.9829 5.14077 30.9156C5.0242 30.8484 4.9274 30.7516 4.86012 30.6351C4.75871 30.4591 4.73135 30.2501 4.78404 30.0539C4.83674 29.8578 4.96518 29.6906 5.14112 29.5891L31.4621 14.4031C31.6381 14.3017 31.8472 14.2743 32.0433 14.327C32.2395 14.3797 32.4066 14.5081 32.5081 14.6841C32.6096 14.8599 32.6371 15.0689 32.5846 15.265C32.5321 15.4612 32.4039 15.6285 32.2281 15.7301L5.90612 30.9151C5.79008 30.9825 5.6583 31.018 5.52412 31.0181Z" fill="#1B69FF"/>
<path d="M14.288 81.1131C14.1535 81.1132 14.0213 81.0778 13.9047 81.0106C13.7881 80.9434 13.6913 80.8466 13.624 80.7301C13.5226 80.5542 13.495 80.3452 13.5475 80.1491C13.6 79.953 13.7283 79.7857 13.904 79.6841L50.102 58.7901C50.2779 58.6886 50.4869 58.6611 50.683 58.7136C50.8791 58.7661 51.0464 58.8943 51.148 59.0701C51.2495 59.2459 51.277 59.4549 51.2245 59.651C51.172 59.8472 51.0438 60.0144 50.868 60.1161L14.671 81.0101C14.5547 81.0776 14.4226 81.1131 14.288 81.1131Z" fill="#1B69FF"/>
<path d="M18.3115 94.3916C18.1769 94.3917 18.0447 94.3564 17.9281 94.2891C17.8116 94.2219 17.7148 94.1251 17.6475 94.0086C17.546 93.8327 17.5185 93.6238 17.571 93.4276C17.6235 93.2315 17.7517 93.0642 17.9275 92.9626L46.1055 76.6846C46.2813 76.5831 46.4903 76.5556 46.6864 76.6081C46.8826 76.6606 47.0498 76.7888 47.1515 76.9646C47.253 77.1404 47.2805 77.3494 47.228 77.5455C47.1755 77.7417 47.0473 77.9089 46.8715 78.0106L18.6945 94.2886C18.5781 94.3561 18.446 94.3917 18.3115 94.3916Z" fill="#1B69FF"/>
<path d="M14.2897 88.6752C14.1552 88.6753 14.023 88.64 13.9064 88.5727C13.7898 88.5055 13.693 88.4088 13.6257 88.2922C13.5243 88.1162 13.497 87.9072 13.5497 87.711C13.6024 87.5149 13.7308 87.3477 13.9067 87.2462L50.1037 66.3562C50.2797 66.2548 50.4888 66.2274 50.6849 66.2801C50.8811 66.3328 51.0483 66.4613 51.1497 66.6372C51.2512 66.8132 51.2785 67.0222 51.2258 67.2184C51.1731 67.4145 51.0447 67.5817 50.8687 67.6832L14.6727 88.5722C14.5564 88.6398 14.4243 88.6753 14.2897 88.6752Z" fill="#1B69FF"/>
<path d="M22.3466 65.6709C22.2121 65.671 22.0798 65.6356 21.9633 65.5684C21.8467 65.5012 21.7499 65.4044 21.6826 65.2879C21.5811 65.112 21.5536 64.9031 21.6061 64.7069C21.6586 64.5108 21.7869 64.3435 21.9626 64.2419L41.5736 52.9229C41.7495 52.8214 41.9585 52.7939 42.1546 52.8464C42.3507 52.8989 42.518 53.0271 42.6196 53.2029C42.6701 53.2899 42.7029 53.3861 42.7162 53.4858C42.7295 53.5856 42.723 53.6869 42.697 53.7842C42.6711 53.8814 42.6263 53.9726 42.5652 54.0525C42.504 54.1324 42.4277 54.1995 42.3406 54.2499L22.7296 65.5679C22.6133 65.6354 22.4812 65.6709 22.3466 65.6709Z" fill="#1B69FF"/>
<path d="M41.9553 54.3517L38.4395 47.6277C38.4894 47.5404 38.5559 47.4637 38.6355 47.4022C38.715 47.3406 38.806 47.2954 38.9031 47.269C39.0001 47.2426 39.1014 47.2356 39.2012 47.2484C39.3009 47.2612 39.3971 47.2936 39.4844 47.3437C41.3844 48.4337 42.5385 50.6337 42.7205 53.5377C42.733 53.7404 42.6645 53.9399 42.53 54.0922C42.3956 54.2444 42.2062 54.3371 42.0034 54.3497L41.9553 54.3517Z" fill="#1B69FF"/>
<path d="M23.6172 63.5601L35.1172 48.5391H38.9062L41.0992 49.7391L41.8302 53.7271L23.6172 63.5601Z" fill="#1B69FF"/>
<path d="M75.1241 52.1149L80.1391 55.0149C80.2426 55.0861 80.3252 55.1838 80.378 55.2978C80.4308 55.4118 80.4519 55.5379 80.4391 55.6629V81.1009C80.4391 92.9009 63.015 112.095 62.271 112.909C62.1545 113.037 62.0198 113.148 61.8711 113.238C61.7502 113.313 61.613 113.358 61.4711 113.369C60.9891 113.398 53.463 113.798 48.25 110.836L43.1711 107.903C41.6629 107.124 40.4046 105.936 39.54 104.475C38.6754 103.014 38.2395 101.339 38.2821 99.6419V74.1989C38.3142 73.8511 38.4246 73.515 38.605 73.2159C38.7855 72.9168 39.0314 72.6625 39.3241 72.4719C46.2811 68.4579 52.7651 62.7719 56.2521 57.6369C56.6051 57.1179 57.0961 56.8369 57.4521 56.9459C60.9341 58.0539 67.416 56.2539 74.427 52.2039C74.5227 52.1231 74.6398 52.0718 74.764 52.056C74.8882 52.0402 75.0143 52.0607 75.1271 52.1149H75.1241Z" fill="white"/>
<path d="M39.3202 72.4719C46.2772 68.4579 52.7612 62.7719 56.2482 57.6369C56.6012 57.1179 57.0932 56.8369 57.4482 56.9459C60.9302 58.0539 67.4121 56.2539 74.4241 52.2039C74.5198 52.1231 74.6368 52.0718 74.761 52.056C74.8852 52.0402 75.0114 52.0607 75.1242 52.1149L80.1392 55.0149C80.0268 54.9624 79.9017 54.9432 79.7787 54.9595C79.6558 54.9758 79.5401 55.027 79.4452 55.1069C72.4302 59.1569 65.9522 60.9569 62.4682 59.8489C62.1142 59.7379 61.6202 60.0219 61.2682 60.5399C57.7812 65.6769 51.2981 71.3609 44.3401 75.3759C44.0468 75.5658 43.8007 75.82 43.6203 76.1193C43.4399 76.4185 43.3301 76.7549 43.2991 77.1029V102.544C43.2566 104.254 43.6995 105.942 44.5765 107.41C45.4534 108.879 46.7286 110.07 48.2542 110.844H48.2471L43.1692 107.912C41.6611 107.133 40.4026 105.945 39.538 104.484C38.6734 103.023 38.2376 101.348 38.2802 99.6509V74.1989C38.3122 73.8513 38.4224 73.5154 38.6025 73.2163C38.7826 72.9173 39.0279 72.6628 39.3202 72.4719Z" fill="#1B69FF"/>
<path d="M60.1694 113.81C60.9364 113.81 61.4195 113.783 61.4965 113.777C61.703 113.761 61.9029 113.697 62.0795 113.589C62.2625 113.48 62.4286 113.345 62.5725 113.188C63.3225 112.369 80.8534 93.0635 80.8524 81.0975V55.6585C80.8667 55.4613 80.8279 55.2639 80.74 55.0868C80.6521 54.9096 80.5182 54.7593 80.3524 54.6515L75.3374 51.7515L75.3125 51.7385C75.1348 51.6524 74.9365 51.6179 74.7401 51.6387C74.5438 51.6596 74.3571 51.735 74.2014 51.8565C67.3364 55.8195 60.9574 57.6215 57.5814 56.5485C57.2491 56.4989 56.9097 56.5543 56.6105 56.7071C56.3112 56.8598 56.0672 57.1023 55.9125 57.4005C52.4565 62.4915 46.0215 68.1275 39.1195 72.1095C38.7638 72.3361 38.4657 72.6424 38.2489 73.0041C38.0321 73.3658 37.9026 73.773 37.8705 74.1935V99.6375C37.8237 101.402 38.2741 103.144 39.1703 104.665C40.0665 106.186 41.3722 107.424 42.9385 108.238L42.9664 108.256L48.0444 111.188C48.0647 111.2 48.0858 111.209 48.1074 111.217C52.1874 113.52 57.6724 113.81 60.1694 113.81ZM74.9385 52.4855L79.9325 55.3695C79.9775 55.3955 80.0244 55.4955 80.0234 55.6575V81.0975C80.0234 92.7445 62.7014 111.82 61.9614 112.626C61.874 112.723 61.773 112.807 61.6615 112.876C61.5967 112.917 61.523 112.943 61.4464 112.951C61.1274 112.972 53.5875 113.39 48.4545 110.474C48.4365 110.463 48.4177 110.454 48.3984 110.446L43.4044 107.563L43.3745 107.544C41.9306 106.8 40.7255 105.664 39.8976 104.267C39.0696 102.87 38.6523 101.267 38.6935 99.6435V74.1985C38.7256 73.9235 38.817 73.6587 38.9613 73.4223C39.1056 73.186 39.2994 72.9837 39.5294 72.8295C46.5294 68.7895 53.0694 63.0575 56.5914 57.8695C56.8644 57.4695 57.1994 57.3025 57.3254 57.3415C60.9154 58.4845 67.5475 56.6535 74.6315 52.5625C74.7805 52.4625 74.8785 52.4505 74.9135 52.4715L74.9385 52.4855Z" fill="#005BEA"/>
<path d="M61.8694 90.8376L67.3904 81.2806L65.8663 80.4036L61.8663 87.3266L56.7583 84.3856C57.9174 82.08 59.6835 80.1341 61.8663 78.7576C65.6223 76.5896 68.6664 78.3436 68.6664 82.6726C68.538 85.03 67.8553 87.3238 66.6737 89.3677C65.4922 91.4116 63.8451 93.1479 61.8663 94.4356C58.1093 96.6016 55.0664 94.8526 55.0664 90.5196C55.0803 89.4005 55.2547 88.2892 55.5844 87.2196L61.8694 90.8376Z" fill="white"/>
</g>
<defs>
<clipPath id="clip0_9_94210">
<rect width="81" height="125" fill="white"/>
</clipPath>
</defs>
</svg>
