<svg xmlns="http://www.w3.org/2000/svg" width="1440" height="932" viewBox="0 0 1440 932" fill="none" class="injected-svg" data-src="/assets/hero-CVbRPHO6.svg" xmlns:xlink="http://www.w3.org/1999/xlink" role="img">
<path d="M0 16H1440V890H0V16Z" fill="#C8CEDE"></path>
<path d="M0 0H1440V874H0V0Z" fill="#092346"></path>
<path opacity="0.16" fill-rule="evenodd" clip-rule="evenodd" d="M391.3 705.9L308.2 754.1C304.2 756.4 297.2 756.1 292.6 753.5L211.8 706.7C209.4 705.3 208.1 703.5 208 701.8V701.5C208 701.5 208 701.5 208 701.4V584.8L394 583V701.8C394.1 703.3 393.2 704.8 391.3 705.9Z" fill="url(#paint0_linear_1031_4646-74)"></path>
<path opacity="0.16" fill-rule="evenodd" clip-rule="evenodd" d="M1226.3 705.9L1143.2 754.1C1139.2 756.4 1132.2 756.1 1127.6 753.5L1046.8 706.7C1044.4 705.3 1043.1 703.5 1043 701.8V701.5C1043 701.5 1043 701.5 1043 701.4V584.8L1229 583V701.8C1229.1 703.3 1228.2 704.8 1226.3 705.9Z" fill="url(#paint1_linear_1031_4646-75)"></path>
<path d="M1365 874L1208 735" stroke="#4C73CC" stroke-linecap="round"></path>
<path d="M853 874L755 778" stroke="#4C73CC" stroke-linecap="round"></path>
<path d="M1365 882L1365 874" stroke="#4C73CC" stroke-linecap="round"></path>
<path d="M853 882L853 874" stroke="#4C73CC" stroke-linecap="round"></path>
<path d="M853 882L1365 882" stroke="#4C73CC" stroke-linecap="round"></path>
<path d="M586 874L686 778" stroke="#4C73CC" stroke-linecap="round"></path>
<path d="M586 882L586 874" stroke="#4C73CC" stroke-linecap="round"></path>
<path d="M71 874L232 735" stroke="#4C73CC" stroke-linecap="round"></path>
<path d="M71 882L71 874" stroke="#4C73CC" stroke-linecap="round"></path>
<path d="M586 882L71 882" stroke="#4C73CC" stroke-linecap="round"></path>
<path d="M1139.45 621.517C1137.95 621.517 1136.46 621.871 1135.13 622.578L1009.55 695.094C1008.56 695.667 1007.97 696.374 1007.97 696.997C1008 697.267 1008.12 697.536 1008.29 697.755C1008.46 697.974 1008.68 698.159 1008.95 698.26L1135.76 771.467C1137.63 772.545 1141.05 772.376 1143.23 771.113L1268.82 698.597C1269.81 698.024 1270.4 697.317 1270.4 696.694C1270.37 696.425 1270.25 696.155 1270.08 695.936C1269.91 695.717 1269.69 695.549 1269.42 695.431L1142.61 622.225C1141.64 621.719 1140.54 621.484 1139.43 621.517H1139.45ZM1138.94 774.161C1137.49 774.195 1136.04 773.858 1134.76 773.185L1007.95 699.978C1007.38 699.709 1006.91 699.288 1006.57 698.766C1006.24 698.244 1006.03 697.637 1006 697.014C1006 695.65 1006.94 694.336 1008.56 693.393L1134.14 620.877C1136.97 619.261 1141.11 619.092 1143.59 620.524L1270.4 693.73C1270.97 694 1271.44 694.421 1271.8 694.943C1272.13 695.465 1272.34 696.071 1272.37 696.694C1272.37 698.058 1271.43 699.372 1269.81 700.315L1144.23 772.831C1142.61 773.724 1140.79 774.178 1138.96 774.161H1138.94Z" fill="#1B69FF"></path>
<path d="M297.758 771.484C299.61 772.561 303.046 772.393 305.235 771.13L430.816 698.614C431.809 698.041 432.399 697.334 432.399 696.711C432.365 696.441 432.247 696.172 432.079 695.953C431.91 695.734 431.692 695.549 431.422 695.448L304.612 622.241C302.759 621.164 299.324 621.332 297.134 622.595L171.553 695.111C170.56 695.684 169.97 696.391 169.97 697.014C170.004 697.284 170.122 697.553 170.29 697.772C170.459 697.991 170.678 698.159 170.947 698.277L297.758 771.484ZM300.957 774.178C299.509 774.212 298.061 773.875 296.781 773.201L169.97 699.995C169.398 699.725 168.926 699.305 168.573 698.782C168.236 698.26 168.034 697.654 168 697.031C168 695.667 168.943 694.353 170.56 693.41L296.141 620.894C298.953 619.278 303.113 619.109 305.588 620.54L432.399 693.747C432.971 694.017 433.443 694.438 433.797 694.96C434.133 695.482 434.336 696.088 434.369 696.728C434.369 698.092 433.426 699.405 431.809 700.349L306.228 772.865C304.612 773.757 302.793 774.212 300.957 774.195V774.178Z" fill="#1B69FF"></path>
<path d="M720.826 536.077C718.165 536.06 715.538 536.717 713.197 537.98L499.135 661.557C497.232 662.668 496.121 664.049 496.121 665.363C496.188 665.952 496.407 666.508 496.744 666.979C497.097 667.451 497.552 667.838 498.091 668.074L714.224 792.864C717.576 794.783 723.689 794.514 727.596 792.257L941.658 668.664C943.561 667.552 944.673 666.171 944.673 664.857C944.605 664.268 944.386 663.712 944.049 663.241C943.696 662.769 943.241 662.382 942.702 662.146L726.569 537.357C724.8 536.43 722.83 535.993 720.826 536.043V536.077ZM719.984 796.282C717.609 796.35 715.269 795.794 713.18 794.682L497.047 669.893C496.188 669.489 495.447 668.849 494.908 668.04C494.369 667.249 494.066 666.323 494.016 665.363C494.016 663.275 495.498 661.237 498.074 659.755L712.136 536.161C716.767 533.483 723.554 533.231 727.613 535.571L943.746 660.361C944.605 660.765 945.346 661.405 945.885 662.197C946.424 662.988 946.727 663.914 946.778 664.874C946.778 666.963 945.296 669 942.719 670.499L728.657 794.093C725.996 795.558 723.015 796.299 719.984 796.282Z" fill="#1B69FF"></path>
<path d="M720 809L795.344 884H644.656L720 809Z" fill="#C8CEDE"></path>
<path d="M720 832L795.344 907H644.656L720 832Z" fill="white"></path>
<path fill-rule="evenodd" clip-rule="evenodd" d="M1226.37 707.785L1145.96 754.522C1142.09 756.747 1135.31 756.457 1130.86 753.941L1052.68 708.559C1050.35 707.205 1049.1 705.463 1049 703.818V703.624C1049 703.528 1049 703.431 1049 703.334V689.207H1228.98V703.721C1229.08 705.269 1228.21 706.721 1226.37 707.785Z" fill="url(#paint2_linear_1031_4646-76)"></path>
<path fill-rule="evenodd" clip-rule="evenodd" d="M1051.62 685.239L1132.03 638.503C1135.9 636.277 1142.67 636.567 1147.12 639.083L1225.31 684.465C1229.76 687.078 1230.24 690.948 1226.37 693.174L1145.96 739.911C1142.09 742.136 1135.32 741.846 1130.86 739.33L1052.68 693.948C1048.23 691.432 1047.74 687.465 1051.62 685.239Z" fill="url(#paint3_linear_1031_4646-77)"></path>
<path fill-rule="evenodd" clip-rule="evenodd" d="M1206.63 696.284L1144.38 732.833C1141.38 734.573 1136.14 734.346 1132.69 732.379L1072.17 696.89C1070.37 695.83 1069.4 694.468 1069.32 693.182V693.031C1069.32 692.955 1069.32 692.879 1069.32 692.804V681.756H1208.65V693.106C1208.73 694.317 1208.05 695.452 1206.63 696.284Z" fill="url(#paint4_linear_1031_4646-78)"></path>
<path fill-rule="evenodd" clip-rule="evenodd" d="M1071.35 679.188L1133.6 643.239C1136.59 641.527 1141.84 641.75 1145.28 643.685L1205.81 678.593C1209.26 680.602 1209.63 683.579 1206.63 685.291L1144.38 721.241C1141.39 722.952 1136.14 722.729 1132.7 720.794L1072.17 685.887C1068.72 683.951 1068.35 680.9 1071.35 679.188Z" fill="url(#paint5_linear_1031_4646-79)"></path>
<path fill-rule="evenodd" clip-rule="evenodd" d="M1138.2 680.743C1139.55 680.071 1141.06 680.071 1142.41 680.743C1143.58 681.416 1143.58 682.509 1142.41 683.182C1141.06 683.854 1139.55 683.854 1138.2 683.182C1137.03 682.425 1137.03 681.416 1138.2 680.743ZM1142.83 681.164L1140.31 673.429L1137.45 681.332L1142.83 681.164Z" fill="white" stroke="white" stroke-width="4" stroke-linecap="round" stroke-linejoin="round"></path>
<path opacity="0.2" d="M1128.71 700.67C1124.59 699.829 1120.63 698.316 1117.02 696.298C1103.82 688.731 1103.73 676.455 1116.77 668.972C1129.8 661.49 1151.07 661.49 1164.19 669.057C1167.21 670.738 1169.82 673.008 1171.84 675.783" stroke="#101C4F" stroke-width="6" stroke-linecap="round" stroke-linejoin="round"></path>
<path d="M1128.71 700.67C1124.59 699.829 1120.63 698.316 1117.02 696.298C1103.82 688.731 1103.73 676.455 1116.77 668.972C1123.16 665.273 1131.48 663.423 1139.89 663.423" stroke="white" stroke-width="6" stroke-linecap="round" stroke-linejoin="round"></path>
<path fill-rule="evenodd" clip-rule="evenodd" d="M210.708 708.153L293.808 756.453C297.808 758.753 304.808 758.453 309.408 755.853L390.208 708.953C392.608 707.553 393.908 705.753 394.008 704.053V703.853C394.008 703.753 394.008 703.653 394.008 703.553V688.953H208.008V703.953C207.908 705.553 208.808 707.053 210.708 708.153Z" fill="url(#paint6_linear_1031_4646-80)"></path>
<path fill-rule="evenodd" clip-rule="evenodd" d="M391.305 684.853L308.205 636.553C304.205 634.253 297.205 634.553 292.605 637.153L211.805 684.053C207.205 686.753 206.705 690.753 210.705 693.053L293.805 741.353C297.805 743.653 304.805 743.353 309.405 740.753L390.205 693.853C394.805 691.253 395.305 687.153 391.305 684.853Z" fill="url(#paint7_linear_1031_4646-81)"></path>
<path fill-rule="evenodd" clip-rule="evenodd" d="M231.104 696.267L295.437 734.038C298.533 735.837 303.953 735.603 307.514 733.569L370.066 696.893C371.924 695.798 372.93 694.391 373.008 693.061V692.905C373.008 692.827 373.008 692.748 373.008 692.67V681.253H229.014V692.983C228.936 694.234 229.633 695.407 231.104 696.267Z" fill="url(#paint8_linear_1031_4646-82)"></path>
<path fill-rule="evenodd" clip-rule="evenodd" d="M370.915 678.599L306.582 641.447C303.485 639.678 298.066 639.909 294.505 641.909L231.952 677.984C228.391 680.061 228.004 683.137 231.1 684.907L295.434 722.058C298.53 723.828 303.95 723.597 307.511 721.597L370.064 685.522C373.625 683.522 374.012 680.368 370.915 678.599Z" fill="url(#paint9_linear_1031_4646-83)"></path>
<path fill-rule="evenodd" clip-rule="evenodd" d="M301.814 680.207C300.424 679.512 298.86 679.512 297.47 680.207C296.253 680.902 296.253 682.031 297.47 682.727C298.86 683.422 300.424 683.422 301.814 682.727C303.031 681.945 303.031 680.902 301.814 680.207ZM297.035 680.641L299.642 672.647L302.596 680.815L297.035 680.641Z" fill="white" stroke="white" stroke-width="4" stroke-linecap="round" stroke-linejoin="round"></path>
<path opacity="0.2" d="M311.633 700.8C315.891 699.931 319.975 698.367 323.711 696.281C337.353 688.461 337.44 675.775 323.972 668.042C310.504 660.309 288.52 660.309 274.965 668.129C271.837 669.867 269.144 672.213 267.058 675.08" stroke="#101C4F" stroke-width="6" stroke-linecap="round" stroke-linejoin="round"></path>
<path d="M311.633 700.8C315.891 699.931 319.975 698.367 323.711 696.281C337.353 688.461 337.44 675.775 323.972 668.042C317.368 664.219 308.766 662.307 300.077 662.307" stroke="white" stroke-width="6" stroke-linecap="round" stroke-linejoin="round"></path>
<path d="M877.859 638.439V680.698C877.773 681.475 877.489 682.216 877.032 682.85C876.576 683.484 875.963 683.989 875.254 684.316C873.662 685.185 727.201 769.269 725.61 770.137C723.687 771.136 721.553 771.657 719.386 771.657C717.22 771.657 715.086 771.136 713.163 770.137C711.571 769.269 565.111 685.185 563.519 684.316C562.798 684.005 562.175 683.504 561.717 682.867C561.258 682.23 560.981 681.48 560.914 680.698V638.584V637.86H561.059C561.256 637.238 561.575 636.662 561.997 636.165C562.42 635.668 562.937 635.26 563.519 634.965C565.111 634.097 711.571 548.71 713.163 547.842C715.086 546.843 717.22 546.322 719.386 546.322C721.553 546.322 723.687 546.843 725.61 547.842C727.201 548.71 873.662 634.097 875.254 634.965C875.836 635.26 876.353 635.668 876.775 636.165C877.198 636.662 877.517 637.238 877.714 637.86H877.859V638.439Z" fill="url(#paint10_linear_1031_4646-84)"></path>
<path d="M875.248 641.623C873.656 642.491 727.196 727.154 725.604 728.167C723.681 729.166 721.547 729.687 719.381 729.687C717.214 729.687 715.08 729.166 713.158 728.167C711.566 727.299 565.105 642.636 563.513 641.623C562.57 641.292 561.79 640.613 561.332 639.725C560.875 638.836 560.775 637.807 561.053 636.847C561.26 636.283 561.587 635.77 562.012 635.346C562.437 634.921 562.949 634.593 563.513 634.387C565.105 633.518 711.566 548.855 713.158 547.842C715.08 546.843 717.214 546.322 719.381 546.322C721.547 546.322 723.681 546.843 725.604 547.842C727.196 548.71 873.656 633.373 875.248 634.387C875.717 634.543 876.151 634.791 876.523 635.117C876.895 635.443 877.197 635.841 877.413 636.286C877.629 636.731 877.754 637.215 877.779 637.709C877.805 638.203 877.732 638.697 877.564 639.162C877.388 639.721 877.089 640.232 876.688 640.658C876.287 641.084 875.795 641.414 875.248 641.623ZM864.828 634.097C863.381 633.229 725.893 553.197 724.301 552.328C722.487 551.401 720.478 550.917 718.44 550.917C716.402 550.917 714.393 551.401 712.579 552.328C711.131 553.197 573.644 633.229 572.052 634.097C571.354 634.351 570.75 634.813 570.324 635.422C569.897 636.03 569.668 636.755 569.668 637.498C569.668 638.241 569.897 638.966 570.324 639.575C570.75 640.183 571.354 640.646 572.052 640.899C573.499 641.767 711.131 721.8 712.579 722.668C714.393 723.595 716.402 724.079 718.44 724.079C720.478 724.079 722.487 723.595 724.301 722.668C725.749 721.8 863.381 641.767 864.828 640.899C865.28 640.746 865.697 640.503 866.053 640.184C866.409 639.866 866.697 639.479 866.9 639.046C867.103 638.613 867.216 638.144 867.233 637.667C867.25 637.19 867.17 636.714 866.999 636.268C866.552 635.312 865.784 634.544 864.828 634.097Z" fill="white" fill-opacity="0.5"></path>
<path d="M712.73 722.378C711.572 721.8 639.21 679.685 598.688 656.24C642.539 630.913 712.006 590.825 713.019 590.101C714.942 589.103 717.076 588.582 719.242 588.582C721.408 588.582 723.543 589.103 725.465 590.101C726.623 590.68 795.077 630.334 839.073 655.806C798.696 679.251 725.465 721.8 724.308 722.378C722.519 723.306 720.534 723.79 718.519 723.79C716.504 723.79 714.518 723.306 712.73 722.378Z" fill="#333C5E"></path>
<path opacity="0.32" d="M579.727 667.239L587.397 671.87" stroke="#142149" stroke-width="2.14" stroke-linecap="round" stroke-linejoin="round"></path>
<path opacity="0.48" d="M579.727 674.909L587.397 679.54" stroke="#142149" stroke-width="2.14" stroke-linecap="round" stroke-linejoin="round"></path>
<path opacity="0.48" d="M593.617 674.909L601.288 679.54" stroke="#142149" stroke-width="2.14" stroke-linecap="round" stroke-linejoin="round"></path>
<path opacity="0.32" d="M593.617 682.724L601.288 687.355" stroke="#142149" stroke-width="2.14" stroke-linecap="round" stroke-linejoin="round"></path>
<path opacity="0.32" d="M847.461 674.041V684.172" stroke="#142149" stroke-width="2.01" stroke-linecap="round" stroke-linejoin="round"></path>
<path opacity="0.32" d="M853.25 670.423V680.553" stroke="#142149" stroke-width="2.01" stroke-linecap="round" stroke-linejoin="round"></path>
<path opacity="0.32" d="M859.047 666.805V677.659" stroke="#142149" stroke-width="2.01" stroke-linecap="round" stroke-linejoin="round"></path>
<path opacity="0.32" d="M864.828 663.766V673.896" stroke="#142149" stroke-width="2.01" stroke-linecap="round" stroke-linejoin="round"></path>
<path opacity="0.32" d="M644.125 709.209L699.988 741.193" stroke="#142149" stroke-width="2.06" stroke-linecap="round" stroke-linejoin="round"></path>
<path d="M664.036 581.492C664.036 583.212 665.182 584.931 667.475 586.192L689.487 598.689L711.499 611.185C714.057 612.485 716.885 613.163 719.754 613.163C722.623 613.163 725.451 612.485 728.008 611.185L749.906 598.689L771.918 586.192C774.211 584.931 775.357 583.212 775.357 581.492V566.129H664.036V581.492ZM731.677 622.764C731.677 624.484 732.823 626.204 735.116 627.465L757.128 639.961L779.141 652.458C781.698 653.758 784.526 654.435 787.395 654.435C790.264 654.435 793.092 653.758 795.65 652.458L817.547 639.961L839.559 627.465C841.852 626.204 842.998 624.484 842.998 622.764V607.402H731.792L731.677 622.764ZM705.308 607.402H594.102V622.764C594.102 624.484 595.248 626.204 597.541 627.465L600.292 629.07L619.553 640.305L638.814 650.967L641.565 652.573C644.123 653.872 646.951 654.55 649.82 654.55C652.688 654.55 655.517 653.872 658.074 652.573L679.972 639.961L701.984 627.465C704.277 626.204 705.423 624.484 705.423 622.764L705.308 607.402Z" fill="url(#paint11_linear_1031_4646-85)"></path>
<path opacity="0.7" d="M602.014 621.389C601.887 621.274 601.738 621.186 601.577 621.129C601.415 621.073 601.244 621.049 601.073 621.06C600.902 621.07 600.735 621.115 600.582 621.191C600.428 621.268 600.292 621.374 600.18 621.503C599.964 621.805 599.844 622.165 599.836 622.535V629.07L638.816 650.968V645.579C638.758 644.871 638.542 644.184 638.185 643.569C637.828 642.954 637.339 642.427 636.752 642.025L602.014 621.389ZM671.948 580.116C671.821 580.001 671.673 579.913 671.511 579.857C671.349 579.8 671.178 579.776 671.007 579.787C670.836 579.798 670.669 579.842 670.516 579.919C670.362 579.995 670.226 580.101 670.114 580.231C669.898 580.532 669.779 580.892 669.77 581.263V587.797L708.75 609.695V604.307C708.692 603.598 708.476 602.911 708.119 602.296C707.762 601.682 707.273 601.154 706.686 600.753L671.948 580.116ZM740.621 620.242C740.494 620.128 740.346 620.039 740.184 619.983C740.022 619.926 739.851 619.903 739.68 619.913C739.509 619.924 739.342 619.969 739.189 620.045C739.035 620.121 738.899 620.227 738.787 620.357C738.571 620.659 738.452 621.018 738.443 621.389V629.758L777.423 652.114V644.433C777.365 643.724 777.149 643.037 776.792 642.423C776.435 641.808 775.946 641.28 775.359 640.879L740.621 620.242Z" fill="#292E47"></path>
<path d="M839.559 612.103C841.852 610.841 842.998 609.122 842.998 607.402C842.998 605.682 841.852 603.963 839.559 602.587L817.547 589.861L795.535 577.135C792.977 575.836 790.149 575.158 787.28 575.158C784.412 575.158 781.583 575.836 779.026 577.135L757.014 589.861L735.116 602.587C732.823 603.848 731.677 605.568 731.677 607.402C731.677 609.236 732.823 610.841 735.116 612.103L757.128 624.828L779.141 637.554C781.698 638.854 784.526 639.531 787.395 639.531C790.264 639.531 793.092 638.854 795.65 637.554L817.662 624.828L839.559 612.103ZM771.918 570.83C774.211 569.569 775.357 567.849 775.357 566.015C775.357 564.18 774.211 562.575 771.918 561.2L749.906 548.474L727.894 535.977C725.336 534.678 722.508 534 719.639 534C716.77 534 713.942 534.678 711.385 535.977L689.487 548.703L667.475 561.314C665.182 562.575 664.036 564.295 664.036 566.129C664.036 567.964 665.182 569.569 667.475 570.83L689.487 583.556L711.499 596.281C714.057 597.581 716.885 598.259 719.754 598.259C722.623 598.259 725.451 597.581 728.008 596.281L750.02 583.556L771.918 570.83ZM701.984 612.103C704.277 610.841 705.423 609.122 705.423 607.402C705.423 605.682 704.277 603.963 701.984 602.587L679.972 589.976L657.959 577.25C655.402 575.95 652.574 575.273 649.705 575.273C646.836 575.273 644.008 575.95 641.45 577.25L619.553 589.976L597.541 602.587C595.248 603.848 594.102 605.568 594.102 607.402C594.102 609.236 595.248 610.841 597.541 612.103L619.553 624.828L641.565 637.554C644.123 638.854 646.951 639.531 649.82 639.531C652.688 639.531 655.517 638.854 658.074 637.554L680.086 624.828L701.984 612.103Z" fill="url(#paint12_linear_1031_4646-86)"></path>
<path d="M662.888 648.675H774.095V664.037C774.095 665.757 772.948 667.477 770.655 668.738L748.758 681.234L726.746 693.731C724.189 695.031 721.36 695.708 718.491 695.708C715.623 695.708 712.794 695.031 710.237 693.731L707.485 692.126L688.225 680.317L668.964 670.343L666.213 668.738C663.92 667.477 662.773 665.757 662.773 664.037L662.888 648.675Z" fill="url(#paint13_linear_1031_4646-87)"></path>
<path d="M671.827 663.808C671.7 663.693 671.551 663.605 671.389 663.549C671.228 663.492 671.056 663.469 670.885 663.479C670.714 663.49 670.547 663.535 670.394 663.611C670.241 663.687 670.104 663.793 669.992 663.923C669.777 664.225 669.657 664.584 669.648 664.955V671.49L708.628 693.387V687.999C708.57 687.29 708.355 686.603 707.998 685.989C707.641 685.374 707.151 684.846 706.565 684.445L671.827 663.808Z" fill="#162F7E"></path>
<path d="M770.765 652.229C773.058 650.968 774.204 649.248 774.204 647.528C774.204 645.809 773.058 644.089 770.765 642.713L748.753 629.988L726.741 617.262C724.183 615.962 721.355 615.284 718.486 615.284C715.617 615.284 712.789 615.962 710.232 617.262L688.334 630.102L666.322 642.713C664.029 643.974 662.883 645.694 662.883 647.528C662.883 649.363 664.029 650.968 666.322 652.229L688.334 664.955L710.346 677.68C712.904 678.98 715.732 679.658 718.601 679.658C721.47 679.658 724.298 678.98 726.855 677.68L748.867 664.955L770.765 652.229Z" fill="url(#paint14_linear_1031_4646-88)"></path>
<path d="M734.421 648.217L731.44 646.497C730.975 646.273 730.465 646.157 729.949 646.157C729.433 646.157 728.924 646.273 728.459 646.497L717.682 652.917C717.469 653.012 717.295 653.178 717.19 653.388C717.086 653.597 717.057 653.836 717.109 654.063C717.239 654.307 717.438 654.507 717.682 654.637L720.663 656.356C722.463 657.316 724.471 657.818 726.51 657.818C728.549 657.818 730.557 657.316 732.357 656.356L734.306 655.21C737.631 653.261 737.631 650.166 734.421 648.217ZM729.605 654.522C728.697 654.974 727.696 655.21 726.682 655.21C725.667 655.21 724.667 654.974 723.758 654.522L722.268 653.605L730.064 649.019L731.554 649.936C731.905 650.067 732.208 650.301 732.422 650.609C732.636 650.916 732.75 651.281 732.75 651.656C732.75 652.03 732.636 652.396 732.422 652.703C732.208 653.011 731.905 653.245 731.554 653.376L729.605 654.522ZM701.173 644.662C702.379 645.284 703.715 645.608 705.071 645.608C706.427 645.608 707.764 645.284 708.969 644.662C710.574 643.745 711.033 642.37 710.23 641.223C709.772 640.535 708.969 639.274 708.625 638.586C708.564 638.447 708.553 638.29 708.595 638.144C708.637 637.997 708.729 637.87 708.854 637.784H708.969C709.266 637.615 709.602 637.526 709.944 637.526C710.285 637.526 710.621 637.615 710.918 637.784L713.899 639.503C714.364 639.727 714.873 639.843 715.389 639.843C715.905 639.843 716.415 639.727 716.88 639.503C717.093 639.408 717.267 639.242 717.372 639.033C717.476 638.824 717.505 638.585 717.453 638.357C717.323 638.113 717.124 637.913 716.88 637.784L713.899 636.064C712.693 635.443 711.357 635.118 710.001 635.118C708.645 635.118 707.308 635.443 706.103 636.064C704.498 636.981 704.154 638.357 704.842 639.503C705.3 640.191 706.103 641.452 706.447 642.14C706.508 642.28 706.519 642.436 706.477 642.583C706.435 642.729 706.343 642.857 706.218 642.943H706.103C705.806 643.112 705.47 643.2 705.128 643.2C704.787 643.2 704.451 643.112 704.154 642.943L701.173 641.223C700.708 641 700.199 640.883 699.683 640.883C699.167 640.883 698.657 641 698.192 641.223C697.979 641.318 697.805 641.485 697.7 641.694C697.596 641.903 697.567 642.142 697.619 642.37C697.749 642.613 697.948 642.813 698.192 642.943L701.173 644.662ZM710.918 650.509C712.123 651.131 713.46 651.455 714.816 651.455C716.172 651.455 717.509 651.131 718.714 650.509C720.319 649.592 720.663 648.217 719.975 647.07C719.517 646.382 718.714 645.121 718.37 644.433C718.309 644.294 718.298 644.137 718.34 643.991C718.382 643.844 718.474 643.717 718.599 643.631H718.714C719.011 643.462 719.347 643.373 719.689 643.373C720.03 643.373 720.366 643.462 720.663 643.631L723.644 645.35C724.109 645.574 724.618 645.69 725.134 645.69C725.65 645.69 726.16 645.574 726.625 645.35C726.846 645.265 727.027 645.1 727.133 644.888C727.239 644.676 727.262 644.432 727.198 644.204C727.068 643.96 726.868 643.76 726.625 643.631L723.644 641.911C722.438 641.29 721.102 640.965 719.746 640.965C718.39 640.965 717.053 641.29 715.848 641.911C714.243 642.828 713.784 644.204 714.587 645.35C715.045 646.038 715.848 647.299 716.192 647.987C716.253 648.127 716.264 648.283 716.222 648.43C716.18 648.576 716.088 648.704 715.963 648.79H715.848C715.551 648.959 715.215 649.047 714.873 649.047C714.532 649.047 714.196 648.959 713.899 648.79L710.918 647.07C710.453 646.846 709.944 646.73 709.428 646.73C708.912 646.73 708.402 646.846 707.937 647.07C707.716 647.155 707.535 647.32 707.429 647.532C707.323 647.744 707.3 647.988 707.364 648.217C707.494 648.46 707.693 648.66 707.937 648.79L710.918 650.509Z" fill="white"></path>
<path d="M720.667 674.7C720.162 674.926 719.615 675.043 719.062 675.043C718.508 675.043 717.961 674.926 717.456 674.7C716.539 674.241 716.539 673.553 717.456 673.094C717.961 672.868 718.508 672.751 719.062 672.751C719.615 672.751 720.162 672.868 720.667 673.094C721.584 673.438 721.584 674.241 720.667 674.7ZM672.515 648.331C672.01 648.557 671.463 648.674 670.91 648.674C670.357 648.674 669.81 648.557 669.305 648.331C668.388 647.872 668.388 647.184 669.305 646.726C669.81 646.499 670.357 646.382 670.91 646.382C671.463 646.382 672.01 646.499 672.515 646.726C673.432 647.07 673.432 647.872 672.515 648.331ZM767.672 648.331C767.167 648.557 766.62 648.674 766.066 648.674C765.513 648.674 764.966 648.557 764.461 648.331C763.544 647.872 763.544 647.184 764.461 646.726C764.966 646.499 765.513 646.382 766.066 646.382C766.62 646.382 767.167 646.499 767.672 646.726C768.589 647.07 768.589 647.872 767.672 648.331ZM720.667 621.962C720.162 622.189 719.615 622.306 719.062 622.306C718.508 622.306 717.961 622.189 717.456 621.962C716.539 621.504 716.539 620.816 717.456 620.357C717.961 620.131 718.508 620.014 719.062 620.014C719.615 620.014 720.162 620.131 720.667 620.357C721.584 620.701 721.584 621.504 720.667 621.962Z" fill="#E6E6E6"></path>
<path opacity="0.7" d="M763.437 666.904C763.385 666.958 763.323 667.002 763.254 667.032C763.185 667.062 763.111 667.077 763.035 667.077C762.96 667.077 762.886 667.062 762.817 667.032C762.748 667.002 762.686 666.958 762.634 666.904C762.543 666.769 762.502 666.607 762.519 666.445C762.532 666.139 762.623 665.841 762.783 665.58C762.944 665.319 763.169 665.104 763.437 664.955L770.086 661.171C770.138 661.116 770.2 661.073 770.269 661.043C770.338 661.013 770.412 660.998 770.487 660.998C770.563 660.998 770.637 661.013 770.706 661.043C770.775 661.073 770.837 661.116 770.889 661.171C770.98 661.306 771.02 661.468 771.003 661.63C770.991 661.936 770.9 662.234 770.739 662.495C770.579 662.756 770.354 662.971 770.086 663.12L763.437 666.904ZM831.536 624.485C831.485 624.539 831.423 624.583 831.354 624.613C831.285 624.643 831.21 624.658 831.135 624.658C831.06 624.658 830.986 624.643 830.917 624.613C830.848 624.583 830.785 624.539 830.734 624.485C830.643 624.35 830.602 624.188 830.619 624.026C830.632 623.72 830.723 623.422 830.883 623.161C831.044 622.9 831.269 622.685 831.536 622.536L838.186 618.752C838.237 618.697 838.3 618.654 838.369 618.624C838.438 618.594 838.512 618.578 838.587 618.578C838.662 618.578 838.737 618.594 838.806 618.624C838.875 618.654 838.937 618.697 838.988 618.752C839.08 618.887 839.12 619.049 839.103 619.211C839.091 619.517 839 619.815 838.839 620.076C838.679 620.337 838.454 620.552 838.186 620.701L831.536 624.485Z" fill="#292E47"></path>
<path opacity="0.16" fill-rule="evenodd" clip-rule="evenodd" d="M835.565 656.891L730.13 718.03C725.055 720.948 716.174 720.567 710.338 717.269L607.821 657.906C604.776 656.13 603.127 653.847 603 651.691V651.31C603 651.31 603 651.31 603 651.183V503.283L838.99 501V651.691C839.117 653.593 837.975 655.496 835.565 656.891Z" fill="url(#paint15_linear_1031_4646-89)"></path>
<defs>
<linearGradient id="paint0_linear_1031_4646-74" x1="301" y1="755.71" x2="301" y2="583.003" gradientUnits="userSpaceOnUse">
<stop stop-color="#51B9FF"></stop>
<stop offset="0.7" stop-color="#2389F0" stop-opacity="0.7"></stop>
<stop offset="1" stop-color="#2389F0" stop-opacity="0"></stop>
</linearGradient>
<linearGradient id="paint1_linear_1031_4646-75" x1="1136" y1="755.71" x2="1136" y2="583.003" gradientUnits="userSpaceOnUse">
<stop stop-color="#51B9FF"></stop>
<stop offset="0.7" stop-color="#2389F0" stop-opacity="0.7"></stop>
<stop offset="1" stop-color="#2389F0" stop-opacity="0"></stop>
</linearGradient>
<linearGradient id="paint2_linear_1031_4646-76" x1="1049" y1="722.608" x2="1228.98" y2="722.608" gradientUnits="userSpaceOnUse">
<stop stop-color="#1D53DA"></stop>
<stop offset="1" stop-color="#3F75FC"></stop>
</linearGradient>
<linearGradient id="paint3_linear_1031_4646-77" x1="1048.99" y1="689.231" x2="1229" y2="689.231" gradientUnits="userSpaceOnUse">
<stop stop-color="#0397F6"></stop>
<stop offset="1" stop-color="#00BAFF"></stop>
</linearGradient>
<linearGradient id="paint4_linear_1031_4646-78" x1="1069.32" y1="707.876" x2="1208.66" y2="707.876" gradientUnits="userSpaceOnUse">
<stop stop-color="#1D53DA"></stop>
<stop offset="1" stop-color="#3F75FC"></stop>
</linearGradient>
<linearGradient id="paint5_linear_1031_4646-79" x1="1069.31" y1="682.258" x2="1208.67" y2="682.258" gradientUnits="userSpaceOnUse">
<stop stop-color="#077BC5"></stop>
<stop offset="1" stop-color="#00BAFF"></stop>
</linearGradient>
<linearGradient id="paint6_linear_1031_4646-80" x1="394.008" y1="723.472" x2="208.003" y2="723.472" gradientUnits="userSpaceOnUse">
<stop stop-color="#1D53DA"></stop>
<stop offset="1" stop-color="#3F75FC"></stop>
</linearGradient>
<linearGradient id="paint7_linear_1031_4646-81" x1="394.016" y1="688.978" x2="207.991" y2="688.978" gradientUnits="userSpaceOnUse">
<stop stop-color="#0397F6"></stop>
<stop offset="1" stop-color="#00BAFF"></stop>
</linearGradient>
<linearGradient id="paint8_linear_1031_4646-82" x1="373.008" y1="708.247" x2="229.01" y2="708.247" gradientUnits="userSpaceOnUse">
<stop stop-color="#1D53DA"></stop>
<stop offset="1" stop-color="#3F75FC"></stop>
</linearGradient>
<linearGradient id="paint9_linear_1031_4646-83" x1="373.014" y1="681.772" x2="228.999" y2="681.772" gradientUnits="userSpaceOnUse">
<stop stop-color="#077BC5"></stop>
<stop offset="1" stop-color="#00BAFF"></stop>
</linearGradient>
<linearGradient id="paint10_linear_1031_4646-84" x1="560.914" y1="658.99" x2="877.859" y2="658.99" gradientUnits="userSpaceOnUse">
<stop offset="0.48" stop-color="#D2D8E6"></stop>
<stop offset="0.52" stop-color="#E0E4EF"></stop>
</linearGradient>
<linearGradient id="paint11_linear_1031_4646-85" x1="580.344" y1="533.34" x2="694.99" y2="533.34" gradientUnits="userSpaceOnUse">
<stop offset="0.01" stop-color="#353D6C"></stop>
<stop offset="1" stop-color="#575F8E"></stop>
</linearGradient>
<linearGradient id="paint12_linear_1031_4646-86" x1="628.148" y1="584.759" x2="810.614" y2="584.759" gradientUnits="userSpaceOnUse">
<stop stop-color="#5B6791"></stop>
<stop offset="1" stop-color="#69759F"></stop>
</linearGradient>
<linearGradient id="paint13_linear_1031_4646-87" x1="662.911" y1="1080.33" x2="774.232" y2="1080.33" gradientUnits="userSpaceOnUse">
<stop stop-color="#1D53DA"></stop>
<stop offset="1" stop-color="#3F75FC"></stop>
</linearGradient>
<linearGradient id="paint14_linear_1031_4646-88" x1="662.883" y1="1055.61" x2="774.204" y2="1055.61" gradientUnits="userSpaceOnUse">
<stop stop-color="#0397F6"></stop>
<stop offset="1" stop-color="#00BAFF"></stop>
</linearGradient>
<linearGradient id="paint15_linear_1031_4646-89" x1="720.995" y1="720.072" x2="720.995" y2="501.004" gradientUnits="userSpaceOnUse">
<stop stop-color="#51B9FF"></stop>
<stop offset="0.7" stop-color="#2389F0" stop-opacity="0.7"></stop>
<stop offset="1" stop-color="#2389F0" stop-opacity="0"></stop>
</linearGradient>
</defs>
</svg>