<svg width="157" height="209" viewBox="0 0 157 209" fill="none" xmlns="http://www.w3.org/2000/svg">
<path d="M148.104 0.362884C147.127 -0.204613 145.774 -0.125238 144.282 0.733797L5.36796 80.8984C3.8055 81.9118 2.50491 83.2801 1.57235 84.8916C0.63979 86.5032 0.101684 88.3123 0.00195312 90.1713L0.287695 200.349C0.292148 202.039 0.889608 203.228 1.85371 203.789L8.89334 207.878C7.9285 207.318 7.33475 206.128 7.32659 204.438L7.04159 94.2639C7.14132 92.4049 7.67942 90.5958 8.61199 88.9843C9.54455 87.3728 10.8451 86.0045 12.4076 84.9911L151.323 4.822C152.814 3.96148 154.167 3.8821 155.144 4.45108L148.104 0.362884Z" fill="url(#paint0_linear_9_55637)"/>
<path d="M151.323 4.82419C154.287 3.11354 156.703 4.48963 156.712 7.89387L157 118.068C156.902 119.926 156.366 121.735 155.435 123.346C154.505 124.958 153.207 126.327 151.646 127.341L12.7303 207.501C9.75418 209.218 7.33836 207.843 7.32871 204.438L7.04297 94.2631C7.1427 92.4041 7.68081 90.595 8.61337 88.9835C9.54593 87.372 10.8465 86.0037 12.409 84.9903L151.323 4.82419Z" fill="url(#paint1_linear_9_55637)"/>
<path d="M150.042 24.9321L150.281 120.401L14.0524 199.013L13.8164 103.546L150.042 24.9321Z" fill="white"/>
<path d="M129.597 24.8416C131.12 23.9633 132.359 24.6688 132.364 26.4173C132.314 27.369 132.038 28.2953 131.561 29.1205C131.084 29.9456 130.418 30.6462 129.618 31.1649C128.104 32.0388 126.865 31.3422 126.859 29.5938C126.909 28.6422 127.183 27.7159 127.659 26.8901C128.135 26.0644 128.799 25.3625 129.597 24.8416Z" fill="white"/>
<path d="M147.275 14.6445C148.797 13.7662 150.037 14.4716 150.042 16.2201C149.991 17.1719 149.716 18.0982 149.239 18.9233C148.762 19.7485 148.096 20.449 147.296 20.9678C145.782 21.8417 144.542 21.1451 144.537 19.3966C144.587 18.445 144.861 17.5187 145.337 16.693C145.813 15.8672 146.477 15.1654 147.275 14.6445Z" fill="white"/>
<path d="M138.436 19.7407C139.958 18.8624 141.197 19.5686 141.204 21.3193C141.153 22.2711 140.878 23.1974 140.401 24.0225C139.924 24.8477 139.258 25.5482 138.458 26.067C136.936 26.9453 135.704 26.2443 135.699 24.4958C135.748 23.5436 136.021 22.6164 136.496 21.7899C136.972 20.9635 137.637 20.2613 138.436 19.7407Z" fill="white"/>
<path d="M133.747 52.528C133.74 50.0748 131.991 49.0466 129.827 50.2951L27.1228 109.561C25.9921 110.303 25.0509 111.299 24.3746 112.47C23.6984 113.64 23.3059 114.953 23.2285 116.303L23.2567 130.546C23.2634 132.999 25.038 134.012 27.1762 132.779L129.88 73.5143C131.013 72.7755 131.957 71.7801 132.633 70.6087C133.31 69.4374 133.701 68.1231 133.774 66.7726L133.747 52.528ZM27.1703 130.974C25.8774 131.72 24.8339 131.122 24.8294 129.639L24.8012 115.396C24.8424 114.588 25.0747 113.803 25.479 113.103C25.8832 112.403 26.4478 111.809 27.1265 111.37L112.91 61.8669L112.953 81.4718L27.1703 130.974Z" fill="#333C5E"/>
<path d="M126.856 65.4521L130.803 67.6931L128.963 70.8785L125.021 68.6293C124.345 69.4841 123.521 70.2099 122.587 70.7717C121.325 71.4979 120.07 71.6745 119.109 71.127C117.187 70.0321 117.18 66.4446 119.086 63.1376C119.912 61.6413 121.108 60.3819 122.56 59.4796C123.822 58.7526 125.083 58.5761 126.042 59.1235C127.651 60.033 127.916 62.6784 126.856 65.4521ZM125.005 66.5092C126.335 64.2095 126.328 61.7155 124.99 60.9529C124.6 60.7784 124.171 60.7094 123.746 60.7528C123.321 60.7961 122.915 60.9503 122.568 61.1999C121.558 61.8275 120.727 62.7036 120.152 63.7444C118.823 66.044 118.83 68.538 120.168 69.3006C120.558 69.4751 120.987 69.5441 121.412 69.5007C121.837 69.4574 122.243 69.3032 122.59 69.0536C123.599 68.4261 124.431 67.55 125.005 66.5092Z" fill="white"/>
<path d="M37.367 112.532C37.84 112.756 38.0765 113.358 38.0765 114.339V118.221L36.6234 119.065V115.387C36.6234 114.794 36.4955 114.423 36.2397 114.275C35.9838 114.126 35.6194 114.188 35.1464 114.459C34.6116 114.767 34.169 115.211 33.8643 115.748C33.5597 116.284 33.4043 116.892 33.4141 117.508V120.928L31.9609 121.772V112.361L33.4141 111.517V114.942C33.6583 114.519 33.9578 114.129 34.3048 113.785C34.657 113.433 35.0537 113.128 35.4848 112.878C35.7473 112.672 36.0556 112.534 36.3834 112.473C36.7112 112.413 37.0487 112.433 37.367 112.532Z" fill="#333C5E"/>
<path d="M43.6593 114.613C43.4815 114.872 43.2726 115.108 43.0374 115.317C42.7993 115.53 42.5402 115.719 42.264 115.88C42.045 116.055 41.7879 116.177 41.5134 116.235C41.2389 116.293 40.9546 116.287 40.6832 116.215C40.3111 116.043 40.125 115.584 40.125 114.84V111.58L39.1016 112.173V110.904L40.125 110.31V108.762L41.5782 107.918V109.466L43.2415 108.502V109.77L41.5782 110.735V113.956C41.5782 114.286 41.6525 114.495 41.8009 114.582C41.9493 114.671 42.1609 114.633 42.4407 114.471C42.7653 114.284 43.0442 114.027 43.2571 113.719L43.6593 114.613Z" fill="#333C5E"/>
<path d="M48.4374 111.836C48.2599 112.095 48.051 112.331 47.8155 112.54C47.5774 112.753 47.3183 112.942 47.0421 113.103C46.8231 113.278 46.566 113.4 46.2915 113.458C46.017 113.516 45.7326 113.509 45.4612 113.438C45.0892 113.265 44.9029 112.807 44.9024 112.063V108.802L43.8789 109.396V108.127L44.9024 107.534V105.986L46.3556 105.141V106.69L48.0181 105.725V106.994L46.3556 107.958V111.183C46.3556 111.513 46.4298 111.721 46.5782 111.809C46.7267 111.896 46.9399 111.859 47.218 111.698C47.5426 111.511 47.8214 111.254 48.0344 110.946L48.4374 111.836Z" fill="#333C5E"/>
<path d="M54.6987 102.147C54.9175 102.145 55.1337 102.195 55.3291 102.293C55.5244 102.392 55.6931 102.536 55.8209 102.713C56.1207 103.183 56.2631 103.735 56.2276 104.291C56.2237 104.996 56.0857 105.695 55.8209 106.348C55.5518 107.03 55.1727 107.664 54.6987 108.224C54.2413 108.772 53.6924 109.237 53.0763 109.597C52.2391 110.084 51.5763 110.164 51.088 109.839V113.125L49.6348 113.969V104.733L51.0182 103.929V104.819C51.486 103.919 52.2 103.17 53.077 102.659C53.5609 102.344 54.1216 102.167 54.6987 102.147ZM54.2333 106.985C54.5692 106.431 54.7488 105.797 54.7529 105.149C54.7529 104.515 54.5797 104.104 54.2333 103.915C54.0168 103.826 53.7807 103.797 53.549 103.829C53.3172 103.861 53.0981 103.954 52.9137 104.098C52.5543 104.309 52.2352 104.582 51.9712 104.905C51.6911 105.242 51.4673 105.623 51.3084 106.031C51.1484 106.433 51.0655 106.861 51.0642 107.293C51.0427 107.635 51.128 107.976 51.3084 108.267C51.3821 108.376 51.4808 108.465 51.5962 108.527C51.7115 108.589 51.8401 108.622 51.9712 108.624C52.3061 108.62 52.6329 108.52 52.9137 108.338C53.4648 108.01 53.9198 107.544 54.2333 106.985Z" fill="#333C5E"/>
<path d="M58.0527 106.491C57.683 106.616 57.2902 106.658 56.9023 106.614L57.4605 105.084C57.799 105.12 58.1413 105.088 58.4669 104.988C58.8726 104.878 59.2618 104.714 59.6239 104.5C60.4918 103.996 60.926 103.494 60.9265 102.996C60.9265 102.759 60.8161 102.658 60.5955 102.694C60.2298 102.775 59.8733 102.893 59.5312 103.046C59.1261 103.222 58.7083 103.367 58.2813 103.48C58.0009 103.562 57.6996 103.529 57.4434 103.389C57.2074 103.252 57.0891 102.937 57.0886 102.446C57.1169 101.727 57.3773 101.035 57.8308 100.476C58.3682 99.7658 59.0473 99.1749 59.8251 98.7408C60.23 98.5024 60.6586 98.3065 61.1039 98.1563C61.4379 98.0294 61.7931 97.9672 62.1504 97.973L61.5922 99.5027C60.9597 99.4993 60.3401 99.6822 59.811 100.029C59.4446 100.228 59.1158 100.489 58.8394 100.802C58.6471 101.004 58.5303 101.265 58.5084 101.543C58.5084 101.798 58.6264 101.908 58.8632 101.876C59.2405 101.803 59.6088 101.689 59.9616 101.537C60.3575 101.367 60.7656 101.227 61.1825 101.119C61.4562 101.039 61.7501 101.069 62.0027 101.201C62.2308 101.33 62.345 101.636 62.3455 102.118C62.3141 102.837 62.0489 103.526 61.59 104.08C61.0298 104.801 60.3295 105.402 59.5312 105.846C59.0674 106.122 58.5707 106.339 58.0527 106.491Z" fill="#333C5E"/>
<path d="M63.3909 98.4752C63.2911 98.4146 63.2115 98.326 63.1619 98.2205C63.1122 98.1149 63.0948 97.9971 63.1118 97.8817C63.1156 97.5555 63.2101 97.2367 63.3849 96.9611C63.5499 96.6784 63.7841 96.4422 64.0655 96.2749C64.1611 96.2021 64.2734 96.1544 64.3922 96.1363C64.511 96.1181 64.6324 96.1301 64.7453 96.1711C64.9274 96.2601 65.0185 96.4609 65.0185 96.7734C65.0125 97.0989 64.9161 97.4164 64.7401 97.6903C64.5771 97.9735 64.345 98.2108 64.0655 98.3802C63.9703 98.4519 63.8585 98.4981 63.7404 98.5148C63.6224 98.5314 63.5021 98.5178 63.3909 98.4752ZM63.3909 103.308C63.2911 103.248 63.2115 103.159 63.1619 103.053C63.1122 102.948 63.0948 102.83 63.1118 102.715C63.1156 102.389 63.2102 102.07 63.3849 101.795C63.5498 101.512 63.784 101.275 64.0655 101.108C64.1611 101.035 64.2734 100.987 64.3922 100.969C64.511 100.951 64.6324 100.963 64.7453 101.004C64.9272 101.094 65.0185 101.294 65.0185 101.607C65.0126 101.933 64.9162 102.25 64.7401 102.524C64.5774 102.807 64.3452 103.045 64.0655 103.214C63.9702 103.285 63.8583 103.332 63.7403 103.348C63.6223 103.365 63.5021 103.351 63.3909 103.308Z" fill="#333C5E"/>
<path d="M69.5547 89.2573L70.8572 88.4999L67.0193 102.679L65.7168 103.436L69.5547 89.2573Z" fill="#333C5E"/>
<path d="M73.0539 87.224L74.3564 86.4673L70.5186 100.646L69.2168 101.403L73.0539 87.224Z" fill="#333C5E"/>
<defs>
<linearGradient id="paint0_linear_9_55637" x1="-27.3031" y1="170.044" x2="62.9867" y2="82.4447" gradientUnits="userSpaceOnUse">
<stop stop-color="#A0CCE0"/>
<stop offset="1" stop-color="#69A1E3"/>
</linearGradient>
<linearGradient id="paint1_linear_9_55637" x1="82.0216" y1="4.08887" x2="82.0216" y2="208.24" gradientUnits="userSpaceOnUse">
<stop stop-color="#A0CCE0"/>
<stop offset="1" stop-color="#69A1E3"/>
</linearGradient>
</defs>
</svg>
