<svg width="85" height="123" viewBox="0 0 85 123" fill="none" xmlns="http://www.w3.org/2000/svg">
<path d="M51.7911 9.48148C55.9264 18.5593 64.7443 33.0023 80.3347 37.6216C82.6311 38.302 84.8497 41.5673 84.8497 44.281V87.3891C84.8497 102.04 78.2182 111.821 67.3349 113.21L56.1629 114.637C51.6723 115.211 46.0125 111.943 41.5208 106.187L30.341 91.862C19.4587 77.9129 12.8262 60.482 12.8262 45.827V2.57574C12.8262 -0.0957641 14.9837 -0.838276 17.2557 1.05631C33.0737 14.2485 41.805 10.2573 45.8892 6.07633C47.3361 4.59685 50.3554 6.32939 51.7911 9.48148Z" fill="#C5CBD4"/>
<path d="M38.965 16.8833C43.1013 25.9611 51.9181 40.4041 67.5097 45.0235C69.806 45.7039 72.0247 48.9692 72.0247 51.6828V94.7921C72.0247 109.443 65.3932 119.224 54.5099 120.613L43.3334 122.039C38.8428 122.611 33.1818 119.345 28.6913 113.589L17.5148 99.2638C6.63257 85.3147 0 67.8839 0 53.2289V9.9776C0 7.30609 2.15755 6.56358 4.4306 8.45816C20.2442 21.6503 28.9789 17.6592 33.0641 13.4826C34.5099 11.9987 37.5292 13.7312 38.965 16.8833Z" fill="url(#paint0_linear_9_55544)"/>
<path d="M80.3343 37.6216C82.6306 38.302 84.8493 41.5673 84.8493 44.2809V87.3902C84.8493 98.6622 80.9228 107.043 74.1592 110.946L61.3359 118.354C68.0962 114.445 72.0227 106.064 72.0227 94.7932V51.6817C72.0227 48.968 69.8018 45.7027 67.5077 45.0223L80.3343 37.6205V37.6216Z" fill="url(#paint1_linear_9_55544)"/>
<path d="M13.8802 0.242675C14.723 -0.242347 15.97 -0.0148176 17.2548 1.05623C33.0728 14.2484 41.8041 10.2572 45.8883 6.07625C47.3318 4.59677 50.3533 6.32931 51.7902 9.4814C55.9254 18.5592 64.7434 33.0022 80.3338 37.6216L67.5073 45.0245C51.9213 40.404 43.0989 25.961 38.9625 16.8833C37.5267 13.7312 34.5075 11.9997 33.0617 13.4781C28.9764 17.658 20.2463 21.6491 4.4282 8.45697C3.14454 7.38593 1.89639 7.1584 1.05469 7.64453L13.8802 0.242675Z" fill="url(#paint2_linear_9_55544)"/>
<path d="M4.42817 8.45811C3.14451 7.38707 1.89639 7.15954 1.05469 7.64567L2.49823 6.81104C3.36538 6.98209 4.1707 7.38263 4.83014 7.97087C11.898 13.8655 18.1986 16.85 23.5575 16.85C25.2475 16.8728 26.9238 16.5453 28.4807 15.8879C30.0377 15.2306 31.4413 14.2577 32.6031 13.0309C32.8328 12.7956 33.1082 12.6097 33.4124 12.4847C33.7166 12.3597 34.0432 12.2982 34.372 12.3039C36.2264 12.3039 38.3984 14.1174 39.5366 16.6169C43.3632 25.0166 52.1078 39.797 67.6838 44.4119C70.2378 45.1688 72.653 48.7005 72.653 51.6794V94.7887C72.653 104.015 69.9879 111.414 65.3241 116.048L61.3354 118.349C68.0957 114.44 72.0222 106.06 72.0222 94.7887V51.6828C72.0222 48.9691 69.8014 45.7038 67.5072 45.0234C51.9157 40.4041 43.0989 25.9611 38.9625 16.8833C37.5267 13.7312 34.5075 11.9998 33.0617 13.4781C28.9753 17.6591 20.2462 21.6503 4.42817 8.45811Z" fill="white"/>
<path d="M58.6149 52.5119C51.3372 49.3654 43.6708 41.635 37.8288 33.1033C36.7262 31.4928 35.2004 30.5949 34.0956 30.929C28.3358 32.6715 21.1557 31.8391 13.4194 26.1642C12.1657 25.2452 11.0586 25.7547 11.0586 27.2064V59.6097C11.0586 69.8539 15.6946 82.0394 23.3022 91.7909L34.4787 106.116C34.8978 106.671 35.4186 107.14 36.0133 107.5C36.4693 107.792 37.0079 107.928 37.5479 107.888L48.7244 106.461C56.3319 105.49 60.9679 98.6556 60.9679 88.4113V56.2722C60.9299 55.4967 60.6937 54.7438 60.2818 54.0855C59.8699 53.4272 59.296 52.8854 58.6149 52.5119Z" fill="#4670BA"/>
<path d="M12.0852 25.7125C11.8759 26.0289 11.7725 26.4035 11.7898 26.7825V59.1857C11.7898 69.43 16.4259 81.6155 24.0334 91.367L35.2099 105.692C35.6291 106.247 36.1498 106.716 36.7445 107.076C37.2003 107.368 37.7384 107.504 38.278 107.464L49.4545 106.037C51.0021 105.849 52.502 105.378 53.8795 104.648C52.3133 105.622 50.5522 106.242 48.7205 106.461L37.544 107.888C37.004 107.928 36.4654 107.792 36.0094 107.5C35.4147 107.14 34.8939 106.671 34.4748 106.116L23.2983 91.7909C15.6896 82.0394 11.0547 69.8551 11.0547 59.6097V27.2064C11.0569 26.3185 11.4744 25.7824 12.0852 25.7125Z" fill="white"/>
<defs>
<linearGradient id="paint0_linear_9_55544" x1="59.6364" y1="120.039" x2="-20.3688" y2="36.282" gradientUnits="userSpaceOnUse">
<stop stop-color="#CDEAFF"/>
<stop offset="0.329" stop-color="#D0EBFF"/>
<stop offset="0.629" stop-color="#DBF0FF"/>
<stop offset="0.916" stop-color="#EEF8FF"/>
<stop offset="1" stop-color="#F5FBFF"/>
</linearGradient>
<linearGradient id="paint1_linear_9_55544" x1="86.5657" y1="103.822" x2="49.447" y2="98.3618" gradientUnits="userSpaceOnUse">
<stop stop-color="#A4CCED"/>
<stop offset="0.102" stop-color="#AAD3F0"/>
<stop offset="0.307" stop-color="#B1DAF4"/>
<stop offset="0.876" stop-color="#B3DCF5"/>
<stop offset="0.926" stop-color="#BADCFB"/>
<stop offset="1" stop-color="#BEDDFF"/>
</linearGradient>
<linearGradient id="paint2_linear_9_55544" x1="57.8185" y1="51.1479" x2="45.9322" y2="-10.1869" gradientUnits="userSpaceOnUse">
<stop stop-color="#BEDDFF"/>
<stop offset="0.253" stop-color="#BADAFB"/>
<stop offset="0.483" stop-color="#AFD3F1"/>
<stop offset="0.571" stop-color="#A9D0EB"/>
<stop offset="0.602" stop-color="#ACD2EC"/>
<stop offset="0.627" stop-color="#B6D8F1"/>
<stop offset="0.651" stop-color="#C7E3F8"/>
<stop offset="0.664" stop-color="#D5ECFF"/>
<stop offset="0.78" stop-color="#D2EAFE"/>
<stop offset="0.86" stop-color="#C9E4FB"/>
<stop offset="0.928" stop-color="#B9DBF6"/>
<stop offset="0.989" stop-color="#A4CEEF"/>
<stop offset="1" stop-color="#A0CCEE"/>
</linearGradient>
</defs>
</svg>
