<svg width="535" height="451" viewBox="0 0 535 451" fill="none" xmlns="http://www.w3.org/2000/svg">
<g clip-path="url(#clip0_9_56059)">
<mask id="mask0_9_56059" style="mask-type:luminance" maskUnits="userSpaceOnUse" x="0" y="0" width="535" height="451">
<path d="M535 0H0V451H535V0Z" fill="white"/>
</mask>
<g mask="url(#mask0_9_56059)">
<path d="M7.19877 259.415C7.19877 259.415 3.28865 251.334 7.19877 235.061C11.1089 218.788 22.8384 226.379 22.8384 226.379C27.2571 253.011 58.6645 238.496 84.9135 242.141L263.719 346.479L341.74 374.59L464.895 315.125L459.139 311.807C480.422 301.884 492.62 308.6 504.137 287.901L520.901 297.873L529.603 302.334L528.872 330.768C528.872 341.824 522.827 351.22 508.224 359.634L384.612 434.607C355.396 451.433 307.854 451.433 278.636 434.607L29.1084 290.843C14.7436 282.569 7.43748 271.73 7.20914 260.864C7.19876 260.377 7.21858 259.891 7.23839 259.404L7.19877 259.415Z" fill="url(#paint0_linear_9_56059)"/>
<path d="M384.106 408.136L507.72 333.164C536.937 316.326 536.937 288.94 507.72 272.114L258.192 128.352C228.986 111.525 181.443 111.525 152.23 128.362L28.6135 203.325C-0.603952 220.161 -0.603961 247.547 28.604 264.374L278.131 408.134C307.348 424.966 354.891 424.966 384.106 408.136Z" fill="#333C5E"/>
<path d="M118.284 389.537L118.552 389.075L529.68 627.221L529.144 628.144L118.016 390L118.284 389.537Z" fill="url(#paint1_linear_9_56059)"/>
<path d="M71.3733 618.533L71.2553 618.352L70.793 617.639L212.025 526.598C217.591 523.01 221.501 517.362 222.894 510.897C224.287 504.432 223.05 497.68 219.454 492.126C217.314 488.821 214.422 486.069 211.012 484.093L81.6977 409.186L81.9657 408.726L82.2337 408.264L211.552 483.169C217.528 486.63 221.881 492.319 223.654 498.983C225.427 505.648 224.474 512.742 221.005 518.705C218.94 522.255 216.063 525.266 212.608 527.493L71.3733 618.533Z" fill="url(#paint2_linear_9_56059)"/>
<path d="M482.012 347.251L481.432 346.356L327.065 445.86C320.846 449.868 313.638 452.083 306.237 452.259C298.836 452.435 291.531 450.565 285.128 446.857L155.942 372.024L155.674 372.485L155.406 372.946L285.162 448.107C291.565 451.816 298.87 453.686 306.271 453.51C313.671 453.334 320.879 451.12 327.098 447.112L482.012 347.251Z" fill="url(#paint3_linear_9_56059)"/>
<path d="M331.12 382.035C346.5 382.035 361.889 378.657 373.605 371.903L442.645 328.379C454.382 321.615 460.856 312.476 460.861 302.642C460.867 292.807 454.381 283.67 442.645 276.905L247.705 164.591C224.282 151.101 186.167 151.081 162.724 164.591L93.6861 208.114C81.9388 214.879 75.4688 224.017 75.4688 233.852C75.4688 243.686 81.9387 252.825 93.6794 259.598L288.63 371.903C300.341 378.657 315.731 382.035 331.12 382.035Z" stroke="#FFE06A" stroke-width="2"/>
<path d="M28.6032 264.377L278.131 408.14C307.348 424.967 354.89 424.967 384.105 408.14L507.724 333.168C520.784 325.635 527.982 316.013 529.375 306.145C531.088 318.343 523.88 330.879 507.724 340.196L384.106 415.166C354.891 432.001 307.349 432.001 278.132 415.166L28.6032 271.41C12.4476 262.103 5.24908 249.566 6.96165 237.368C8.34586 247.222 15.5528 256.857 28.6032 264.377Z" fill="#242B43"/>
<path d="M381.817 334.752L382.246 180.522L397.369 171.766L396.87 325.991C396.87 328.766 395.872 330.757 394.302 331.614L379.25 340.37C380.819 339.446 381.747 337.527 381.817 334.752Z" fill="#EFF2FD"/>
<path d="M139.377 40.5522L154.461 31.8062L397.362 171.744L382.278 180.492L139.377 40.5522Z" fill="url(#paint4_linear_9_56059)"/>
<path d="M382.281 180.491L381.786 334.771C381.769 340.307 377.885 342.568 373.057 339.787L147.6 209.898C142.771 207.117 138.868 200.368 138.883 194.833L139.377 40.5522L382.281 180.491Z" fill="white"/>
<path d="M158.865 0.649575C160.433 -0.275963 162.645 -0.133797 165.07 1.28982L388.74 130.621C393.591 133.398 397.443 140.09 397.443 145.642L397.372 171.767L382.248 180.523L382.32 154.398C382.391 148.843 378.538 142.158 373.687 139.307L148.261 9.46808C145.761 8.04447 143.624 7.90227 141.982 8.82781L158.865 0.649575Z" fill="#333C5E"/>
<path d="M373.678 139.341C378.509 142.124 382.368 148.844 382.352 154.379L382.278 180.492L139.377 40.5523L139.451 14.4396C139.465 8.90421 143.397 6.66991 148.227 9.44935L373.678 139.341Z" fill="#384E85"/>
<path d="M190.468 52.7678C190.459 55.7977 188.312 57.0707 185.67 55.5491C184.267 54.6391 183.101 53.4114 182.264 51.9659C181.428 50.5205 180.946 48.8982 180.857 47.2315C180.866 44.2026 183.013 42.9287 185.701 44.4775C187.092 45.3889 188.248 46.6143 189.076 48.0546C189.904 49.4949 190.381 51.1095 190.468 52.7678Z" fill="white"/>
<path d="M175.023 43.8721C175.014 46.9019 172.866 48.1749 170.224 46.6534C168.822 45.7434 167.655 44.5156 166.819 43.0702C165.983 41.6247 165.501 40.0025 165.412 38.3358C165.421 35.3068 167.569 34.0329 170.256 35.5818C171.647 36.4934 172.803 37.7189 173.631 39.1592C174.46 40.5994 174.936 42.2139 175.023 43.8721Z" fill="white"/>
<path d="M159.587 34.9774C159.578 38.0063 157.431 39.2802 154.789 37.7578C153.386 36.8482 152.219 35.6206 151.383 34.1753C150.547 32.7299 150.065 31.1077 149.977 29.4411C149.985 26.4121 152.133 25.1382 154.82 26.6861C156.211 27.5977 157.367 28.8233 158.196 30.2637C159.024 31.7042 159.5 33.319 159.587 34.9774Z" fill="white"/>
<path d="M196.964 118.437C198.837 122.512 199.75 126.961 199.634 131.442V151.353L194.167 148.04V129.171C194.241 126.519 193.749 123.88 192.723 121.432C191.88 119.447 190.444 117.771 188.611 116.63C184.514 114.113 182.019 116.613 182.094 123.157V140.724L176.627 137.41V89.136L182.094 92.4502V110.017C182.531 109.583 183.056 109.247 183.632 109.03C184.209 108.813 184.825 108.72 185.441 108.757C187.028 108.891 188.556 109.425 189.88 110.309C192.985 112.272 195.447 115.097 196.964 118.437Z" fill="#63AD81"/>
<path d="M220.628 162.181C219.919 162.584 219.083 162.705 218.288 162.52C217.254 162.308 216.268 161.91 215.379 161.343C212.797 159.768 210.731 157.476 209.435 154.747C207.974 151.622 207.255 148.203 207.335 144.756V128.036L203.486 125.705V119.197L207.335 121.528V113.591L212.802 116.905V124.842L219.057 128.632V135.14L212.802 131.35V147.873C212.765 149.374 213.048 150.865 213.633 152.248C214.128 153.403 214.968 154.378 216.039 155.04C217.257 155.781 218.303 155.926 219.101 155.463L220.628 162.181Z" fill="#63AD81"/>
<path d="M238.606 173.076C237.896 173.479 237.061 173.6 236.266 173.415C235.232 173.202 234.247 172.804 233.358 172.238C230.774 170.664 228.708 168.371 227.413 165.64C225.953 162.516 225.235 159.097 225.314 155.65V138.931L221.465 136.6V130.089L225.314 132.421V124.483L230.782 127.798V135.735L237.039 139.523V146.03L230.782 142.247V158.771C230.744 160.271 231.027 161.762 231.612 163.144C232.107 164.3 232.947 165.275 234.018 165.936C235.235 166.678 236.283 166.823 237.08 166.361L238.606 173.076Z" fill="#63AD81"/>
<path d="M262.161 156.316C264.02 159.013 265.444 161.984 266.381 165.121C267.403 168.435 267.919 171.884 267.913 175.351C267.898 178.947 267.378 181.801 266.381 183.759C266.022 184.668 265.452 185.478 264.719 186.125C263.985 186.771 263.109 187.236 262.161 187.479C260.441 187.886 258.376 187.385 256.059 185.996C252.909 184.086 250.416 181.014 248.579 176.779V193.632L243.111 190.318V142.946L248.316 146.095V150.651C248.708 150.134 249.214 149.714 249.794 149.423C250.375 149.131 251.014 148.976 251.664 148.969C253.234 149.024 254.757 149.519 256.059 150.398C257.88 151.326 259.99 153.375 262.161 156.316ZM260.413 178.678C261.674 177.598 262.347 175.288 262.361 171.984C262.389 168.861 261.724 165.77 260.413 162.932C259.395 160.483 257.667 158.393 255.449 156.931C254.943 156.567 254.368 156.308 253.76 156.168C253.152 156.029 252.521 156.012 251.906 156.119C251.342 156.285 250.824 156.578 250.391 156.977C249.959 157.375 249.624 157.867 249.413 158.415C248.731 160.05 248.417 161.814 248.494 163.583C248.48 165.712 248.79 167.83 249.413 169.866C249.964 171.755 250.805 173.548 251.906 175.181C252.817 176.587 254.027 177.776 255.449 178.665C257.52 179.882 259.23 179.889 260.411 178.675L260.413 178.678Z" fill="#63AD81"/>
<path d="M274.777 196.225C273.123 194.598 271.669 192.778 270.447 190.806L272.547 185.896C273.632 187.626 274.901 189.236 276.33 190.697C277.622 192.07 279.085 193.272 280.682 194.275C283.947 196.254 285.58 195.963 285.581 193.403C285.583 192.19 285.14 191.018 284.335 190.108C283.104 188.74 281.765 187.472 280.332 186.316C278.675 184.967 277.105 183.515 275.63 181.97C274.321 180.53 273.257 178.885 272.481 177.102C271.558 174.991 271.103 172.707 271.146 170.405C271.25 166.862 272.225 164.681 273.926 164.185C275.947 163.369 278.502 163.909 281.428 165.77C283.159 166.84 284.772 168.09 286.24 169.5C287.723 170.865 289.044 172.396 290.176 174.063L288.077 178.971C286.356 176.295 284.073 174.023 281.384 172.316C280.345 171.508 279.047 171.103 277.732 171.175C277.005 171.197 276.564 171.929 276.484 173.247C276.488 174.56 276.962 175.829 277.819 176.825C279.083 178.281 280.466 179.63 281.953 180.858C283.571 182.188 285.104 183.616 286.544 185.136C287.82 186.538 288.861 188.136 289.629 189.868C290.527 191.918 290.967 194.138 290.92 196.375C290.92 199.628 289.972 201.658 288.076 202.465C285.97 203.218 283.336 202.618 280.333 200.695C278.302 199.442 276.435 197.94 274.777 196.225Z" fill="#63AD81"/>
<path d="M294.852 183.18C294.163 181.779 293.804 180.238 293.805 178.676C293.82 177.026 294.182 175.891 294.837 175.401C295.457 174.817 296.337 174.836 297.396 175.455C298.126 175.718 299.094 176.867 299.954 178.5C300.639 179.913 300.993 181.464 300.986 183.034C300.963 184.671 300.599 185.79 299.936 186.268C299.324 186.865 298.451 186.863 297.4 186.26C296.671 185.986 295.708 184.822 294.852 183.18ZM294.852 207.968C294.163 206.566 293.804 205.026 293.805 203.465C293.821 201.814 294.182 200.679 294.837 200.189C295.457 199.605 296.337 199.624 297.396 200.243C298.126 200.507 299.094 201.655 299.954 203.288C300.638 204.7 300.991 206.25 300.985 207.819C300.962 209.456 300.598 210.577 299.935 211.054C299.324 211.651 298.45 211.648 297.399 211.046C296.671 210.775 295.708 209.608 294.852 207.968Z" fill="#63AD81"/>
<path d="M318.038 168.305L322.937 171.273L308.501 223.812L303.602 220.843L318.038 168.305Z" fill="#63AD81"/>
<path d="M331.202 176.277L336.102 179.246L321.666 231.784L316.766 228.815L331.202 176.277Z" fill="#63AD81"/>
<path d="M259.512 239.225C247.012 232.163 234.791 220.128 224.548 204.792L224.41 204.712C214.167 208.247 201.945 206.203 189.444 198.857L188.967 198.575L189.639 221.882C192.012 258.01 204.358 273.734 224.235 307.323L224.719 307.606C244.595 296.915 256.942 295.42 259.314 262.024L259.99 239.496L259.512 239.225Z" fill="url(#paint5_linear_9_56059)"/>
<path d="M263.716 235.59C251.215 228.528 238.994 216.493 228.75 201.156L228.611 201.076C218.37 204.613 206.147 202.569 193.647 195.223L193.169 194.94L189.1 198.655L189.444 198.856C201.944 206.2 214.165 208.247 224.41 204.711L224.547 204.79C234.791 220.128 247.013 232.166 259.514 239.224L259.991 239.492L259.316 262.023C257.768 283.819 251.967 292.025 242.601 298.068C254.301 291.172 261.78 282.887 263.519 258.387L264.192 235.859L263.716 235.59Z" fill="#F2F5FC"/>
<path d="M264.194 235.86L263.716 235.589C251.215 228.528 238.995 216.493 228.751 201.156L228.612 201.076L224.41 204.711L224.548 204.791C234.791 220.128 247.012 232.168 259.514 239.225L259.991 239.493L264.194 235.86Z" fill="#F2F5FC"/>
<path d="M259.993 239.495L259.318 262.025C257.77 283.821 251.969 292.028 242.604 298.071C254.304 291.176 261.783 282.889 263.521 258.391L264.194 235.862L259.993 239.495Z" fill="url(#paint6_linear_9_56059)"/>
<path d="M258.218 240.126C245.995 233.227 234.045 221.455 224.031 206.459L223.894 206.381C213.879 209.839 201.93 207.84 189.707 200.657L189.24 200.382L185.262 204.012L185.599 204.209C197.821 211.392 209.773 213.391 219.786 209.934L219.923 210.013C229.937 225.009 241.887 236.779 254.11 243.679L254.577 243.943L253.916 265.975C252.407 287.286 246.731 295.31 237.574 301.219C249.014 294.477 256.323 286.376 258.026 262.421L258.686 240.389L258.218 240.126Z" fill="#63AD81"/>
<path d="M258.682 240.389L258.215 240.126C245.993 233.226 234.043 221.455 224.028 206.458L223.891 206.38L219.781 209.935L219.918 210.013C229.933 225.01 241.882 236.779 254.105 243.68L254.572 243.944L258.682 240.389Z" fill="#63AD81"/>
<path d="M254.572 243.944L253.912 265.976C252.396 287.287 246.727 295.31 237.568 301.22C249.009 294.477 256.318 286.376 258.02 262.421L258.681 240.389L254.572 243.944Z" fill="#63AD81"/>
<path d="M251.528 246.459C239.026 239.402 226.806 227.362 216.561 212.026L216.424 211.947C206.18 215.481 193.959 213.438 181.458 206.092L180.98 205.81L181.652 229.116C184.025 265.244 196.372 280.967 216.249 314.557L216.733 314.84C236.608 304.151 248.956 302.654 251.328 269.258L252.003 246.73L251.528 246.459Z" fill="url(#paint7_linear_9_56059)"/>
<path d="M255.73 242.826C243.23 235.769 231.009 223.729 220.765 208.392L220.627 208.313C210.385 211.848 198.162 209.805 185.662 202.459L185.185 202.176L181.115 205.89L181.459 206.091C193.959 213.435 206.18 215.481 216.424 211.946L216.562 212.025C226.805 227.363 239.026 239.401 251.529 246.458L252.006 246.728L251.331 269.259C249.784 291.055 243.983 299.261 234.617 305.306C246.317 298.408 253.797 290.123 255.536 265.624L256.211 243.095L255.73 242.826Z" fill="#F2F5FC"/>
<path d="M256.209 243.092L255.73 242.822C243.23 235.765 231.009 223.725 220.764 208.389L220.626 208.31L216.424 211.945L216.562 212.024C226.805 227.362 239.027 239.4 251.528 246.457L252.006 246.727L256.209 243.092Z" fill="#F2F5FC"/>
<path d="M252.005 246.729L251.329 269.259C249.782 291.054 243.981 299.26 234.615 305.304C246.315 298.407 253.795 290.123 255.533 265.623L256.209 243.094L252.005 246.729Z" fill="url(#paint8_linear_9_56059)"/>
<path d="M214.021 299.268C198.593 273.732 190.832 260.884 188.961 232.856L188.535 218.142C198.443 222.612 207.938 224.036 216.493 222.337C225.046 233.893 234.543 243.41 244.449 250.355L244.023 264.577C242.151 290.453 234.39 294.356 218.96 302.119C218.153 302.526 217.33 302.941 216.493 303.365L214.021 299.268Z" fill="#FFE48D"/>
<path d="M216.488 222.337C225.042 233.893 234.539 243.411 244.444 250.355L244.019 264.577C242.147 290.453 234.386 294.358 218.956 302.12L216.488 303.369V222.337Z" fill="#F9D150"/>
<path d="M71.4991 401.969L147.037 360.396C147.217 360.297 147.366 360.152 147.47 359.975C147.575 359.799 147.63 359.598 147.63 359.393V337.221L225.971 290.387L224.815 288.398L145.902 335.57C145.728 335.671 145.583 335.816 145.483 335.99C145.382 336.165 145.329 336.362 145.328 336.563V358.719L69.5215 400.444C70.181 400.947 70.8377 401.463 71.4991 401.969Z" fill="url(#paint9_linear_9_56059)"/>
<path d="M59.3849 396.446L134.923 354.874C135.102 354.775 135.252 354.629 135.356 354.453C135.46 354.276 135.515 354.075 135.515 353.87V331.698L213.856 284.864L212.701 282.875L133.788 330.046C133.613 330.148 133.468 330.293 133.368 330.467C133.267 330.642 133.213 330.839 133.213 331.041V353.196L57.4062 394.921C58.0658 395.427 58.7235 395.939 59.3849 396.446Z" fill="url(#paint10_linear_9_56059)"/>
<path d="M211.217 287.059C212.675 287.059 213.856 285.88 213.856 284.426C213.856 282.972 212.675 281.792 211.217 281.792C209.76 281.792 208.578 282.972 208.578 284.426C208.578 285.88 209.76 287.059 211.217 287.059Z" fill="url(#paint11_linear_9_56059)"/>
<path d="M224.411 292.326C225.868 292.326 227.05 291.147 227.05 289.692C227.05 288.238 225.868 287.059 224.411 287.059C222.953 287.059 221.771 288.238 221.771 289.692C221.771 291.147 222.953 292.326 224.411 292.326Z" fill="url(#paint12_linear_9_56059)"/>
</g>
</g>
<defs>
<linearGradient id="paint0_linear_9_56059" x1="924.806" y1="142.243" x2="726.229" y2="1057.5" gradientUnits="userSpaceOnUse">
<stop stop-color="#333C5E"/>
<stop offset="1" stop-color="#4F5982"/>
</linearGradient>
<linearGradient id="paint1_linear_9_56059" x1="-317.525" y1="902.356" x2="-317.365" y2="901.804" gradientUnits="userSpaceOnUse">
<stop stop-color="#77ABD4"/>
<stop offset="0.955" stop-color="#BAC3DE" stop-opacity="0.01"/>
<stop offset="1" stop-color="white" stop-opacity="0"/>
</linearGradient>
<linearGradient id="paint2_linear_9_56059" x1="-321.073" y1="901.975" x2="-320.535" y2="901.713" gradientUnits="userSpaceOnUse">
<stop stop-color="#77ABD4"/>
<stop offset="0.955" stop-color="#BAC3DE" stop-opacity="0.01"/>
<stop offset="1" stop-color="white" stop-opacity="0"/>
</linearGradient>
<linearGradient id="paint3_linear_9_56059" x1="-317.845" y1="899.756" x2="-317.808" y2="899.303" gradientUnits="userSpaceOnUse">
<stop stop-color="#77ABD4"/>
<stop offset="0.955" stop-color="#BAC3DE" stop-opacity="0.01"/>
<stop offset="1" stop-color="white" stop-opacity="0"/>
</linearGradient>
<linearGradient id="paint4_linear_9_56059" x1="7.80456" y1="900.876" x2="8.8365" y2="900.876" gradientUnits="userSpaceOnUse">
<stop stop-color="#A0CCE0"/>
<stop offset="1" stop-color="#69A1E3"/>
</linearGradient>
<linearGradient id="paint5_linear_9_56059" x1="2.95784" y1="855.922" x2="3.38398" y2="855.922" gradientUnits="userSpaceOnUse">
<stop stop-color="white"/>
<stop offset="0.506" stop-color="#CAD1E0"/>
<stop offset="1" stop-color="#C8CEDE"/>
</linearGradient>
<linearGradient id="paint6_linear_9_56059" x1="-8.79697" y1="854.031" x2="-8.38675" y2="854.031" gradientUnits="userSpaceOnUse">
<stop stop-color="white"/>
<stop offset="0.506" stop-color="#CAD1E0"/>
<stop offset="1" stop-color="#C8CEDE"/>
</linearGradient>
<linearGradient id="paint7_linear_9_56059" x1="3.84936" y1="855.628" x2="2.4256" y2="855.921" gradientUnits="userSpaceOnUse">
<stop stop-color="white"/>
<stop offset="0.506" stop-color="#CAD1E0"/>
<stop offset="1" stop-color="#C8CEDE"/>
</linearGradient>
<linearGradient id="paint8_linear_9_56059" x1="-8.63484" y1="854.127" x2="-8.22457" y2="854.127" gradientUnits="userSpaceOnUse">
<stop stop-color="white"/>
<stop offset="0.506" stop-color="#CAD1E0"/>
<stop offset="1" stop-color="#C8CEDE"/>
</linearGradient>
<linearGradient id="paint9_linear_9_56059" x1="57.9442" y1="421.617" x2="143.534" y2="287.544" gradientUnits="userSpaceOnUse">
<stop stop-color="white" stop-opacity="0"/>
<stop offset="0.268" stop-color="white" stop-opacity="0"/>
<stop offset="1" stop-color="#4975C2"/>
</linearGradient>
<linearGradient id="paint10_linear_9_56059" x1="45.8289" y1="416.094" x2="131.419" y2="282.02" gradientUnits="userSpaceOnUse">
<stop stop-color="white" stop-opacity="0"/>
<stop offset="0.268" stop-color="white" stop-opacity="0"/>
<stop offset="1" stop-color="#4975C2"/>
</linearGradient>
<linearGradient id="paint11_linear_9_56059" x1="-56.7298" y1="808.129" x2="-56.3075" y2="808.129" gradientUnits="userSpaceOnUse">
<stop stop-color="#5E98F7"/>
<stop offset="1" stop-color="#4670BA"/>
</linearGradient>
<linearGradient id="paint12_linear_9_56059" x1="-57.867" y1="808.581" x2="-57.4447" y2="808.581" gradientUnits="userSpaceOnUse">
<stop stop-color="#5E98F7"/>
<stop offset="1" stop-color="#4670BA"/>
</linearGradient>
<clipPath id="clip0_9_56059">
<rect width="535" height="451" fill="white"/>
</clipPath>
</defs>
</svg>
