<svg width="68" height="73" viewBox="0 0 68 73" fill="none" xmlns="http://www.w3.org/2000/svg">
<g clip-path="url(#clip0_9_79495)">
<path fill-rule="evenodd" clip-rule="evenodd" d="M27.8743 34.5968C27.811 33.7854 27.9244 32.9698 28.2066 32.2064C28.6505 30.9511 29.4971 29.8782 30.6144 29.155L63.6425 10.0837C63.9748 9.89699 64.7401 9.41868 65.1233 9.2689C65.5075 9.09888 65.9368 9.05934 66.3456 9.15616L60.9025 6.01489C60.5894 5.93705 60.2613 5.94352 59.9515 6.03379C59.7127 6.10641 59.4833 6.207 59.268 6.33338L26.2399 25.3967C25.8467 25.6264 25.1343 26.0008 24.7551 26.2873C24.0741 26.827 23.5149 27.505 23.1145 28.2765C22.7142 29.048 22.4816 29.8957 22.4322 30.7636L22.4222 59.0369C22.4176 59.2841 22.4635 59.5298 22.557 59.7586C22.6505 59.9875 22.7897 60.1948 22.9661 60.3679L23.008 60.4099L28.4461 63.5551C28.2576 63.3792 28.1082 63.1656 28.0074 62.9283C27.9067 62.6909 27.8569 62.4351 27.8613 62.1772L27.8743 34.5968Z" fill="white"/>
<path fill-rule="evenodd" clip-rule="evenodd" d="M60.6327 6.49837C60.4542 6.50655 60.2767 6.53158 60.1029 6.57321C59.9057 6.62935 59.7169 6.71129 59.5411 6.81686L26.2136 26.0489C25.8287 26.2555 25.455 26.4825 25.0941 26.7289C24.4787 27.2161 23.9732 27.8279 23.6107 28.5243C23.2482 29.2207 23.0369 29.9859 22.9907 30.7698L22.9767 59.0381C22.974 59.2124 23.0062 59.3855 23.0713 59.5472C23.1364 59.7089 23.2332 59.8559 23.3559 59.9797L27.3132 62.2622V62.1824L27.3232 34.598H27.876L27.3232 34.4811C27.2695 33.6423 27.3957 32.8018 27.6934 32.0158C28.1814 30.6407 29.1122 29.4669 30.3397 28.6789L63.6253 9.46583C63.9535 9.26613 64.3836 9.01554 64.7119 8.85578L60.6327 6.49837ZM28.4518 64.1055C28.3561 64.1062 28.2621 64.0802 28.1804 64.0306L22.7372 60.8893C22.6851 60.8515 22.6352 60.8109 22.5876 60.7675C22.359 60.5418 22.1781 60.2724 22.0558 59.9753C21.9334 59.6782 21.8719 59.3594 21.8751 59.0381L21.8851 30.7648C21.9336 29.8112 22.1861 28.8791 22.6256 28.0316C23.065 27.1841 23.6813 26.4408 24.4325 25.8521C24.83 25.5718 25.2445 25.3167 25.6739 25.0883L25.9732 24.9196L59.0013 5.85628C59.2556 5.70963 59.5261 5.5933 59.8075 5.50975C60.2353 5.38217 60.6909 5.38217 61.1187 5.50975L66.6227 8.68807C66.7385 8.75386 66.8265 8.85944 66.8703 8.98523C66.9142 9.11102 66.9109 9.2484 66.8612 9.37197C66.811 9.49434 66.7187 9.59475 66.6011 9.65499C66.4834 9.71524 66.3481 9.73133 66.2196 9.70046C65.9236 9.62682 65.6114 9.65639 65.3345 9.78432C65.077 9.89215 64.5203 10.2157 64.187 10.4124L63.9196 10.5672L30.8964 29.6305C29.8902 30.2894 29.1281 31.2607 28.7272 32.3953C28.4748 33.0603 28.3726 33.7729 28.4278 34.4821V34.599L28.4189 62.1794C28.4139 62.363 28.4485 62.5456 28.5205 62.7147C28.5925 62.8837 28.7001 63.0353 28.8359 63.159C28.9331 63.2517 28.9927 63.377 29.0032 63.511C29.0137 63.6449 28.9744 63.7781 28.8928 63.8848C28.8419 63.9538 28.7754 64.0098 28.6987 64.0481C28.6221 64.0865 28.5375 64.1061 28.4518 64.1055Z" fill="#1B69FF"/>
<path fill-rule="evenodd" clip-rule="evenodd" d="M51.8632 51.6032C58.4399 48.1903 61.0063 51.1578 65.1942 53.5063C65.2321 50.0425 65.3169 46.8164 64.5615 43.8548L64.6933 43.7799C65.4913 43.2587 66.1557 42.557 66.6326 41.7313C67.1094 40.9056 67.3854 39.9792 67.4383 39.027C67.4383 32.2263 67.4383 17.8639 67.4473 11.0622C67.4473 9.31882 66.215 8.60586 64.7112 9.47755C53.3426 16.0343 41.9774 22.5935 30.6154 29.1549C29.8191 29.6766 29.1563 30.3782 28.6804 31.203C28.2045 32.0278 27.9288 32.9528 27.8754 33.9038V34.5968L27.8664 62.1772C27.8613 62.5106 27.9466 62.8392 28.1131 63.128C28.2797 63.4169 28.5213 63.6552 28.8124 63.8177C29.098 63.9875 29.4241 64.0772 29.7563 64.0772C30.0885 64.0772 30.4146 63.9875 30.7002 63.8177L51.8632 51.6032Z" fill="white"/>
<path fill-rule="evenodd" clip-rule="evenodd" d="M65.9247 9.65705C65.5907 9.67498 65.2668 9.77815 64.9838 9.95664L30.893 29.627C30.1804 30.1008 29.587 30.7333 29.1594 31.4749C28.7318 32.2165 28.4816 33.047 28.4283 33.9015L28.4194 62.175C28.4135 62.4111 28.4724 62.6442 28.5897 62.8491C28.7071 63.054 28.8784 63.2229 29.0849 63.3371C29.287 63.459 29.5185 63.5234 29.7545 63.5234C29.9905 63.5234 30.2219 63.459 30.424 63.3371L51.5869 51.1215C51.5869 51.1215 51.6009 51.1215 51.6059 51.1125C57.4472 48.0801 60.319 49.8614 63.6347 51.9243C63.967 52.13 64.3043 52.3407 64.6515 52.5524C64.8128 49.6827 64.6031 46.8042 64.0279 43.9882C63.9993 43.8718 64.0089 43.7492 64.0553 43.6387C64.1016 43.5281 64.1823 43.4354 64.2853 43.3742L64.4161 43.2993C65.1297 42.8263 65.7241 42.1941 66.1525 41.4524C66.5808 40.7107 66.8314 39.8798 66.8847 39.0248L66.8936 11.06C66.9229 10.8165 66.8897 10.5695 66.7972 10.3424C66.7046 10.1153 66.5558 9.91548 66.3648 9.76187C66.2297 9.68889 66.0782 9.65215 65.9247 9.6551V9.65705ZM29.7535 64.6291C29.3251 64.6268 28.905 64.5118 28.5351 64.2957C28.1592 64.0857 27.847 63.778 27.6317 63.405C27.4163 63.032 27.3058 62.6076 27.3118 62.1769L27.3217 33.9035C27.3727 32.8546 27.6733 31.833 28.1987 30.924C28.7241 30.0149 29.4591 29.2446 30.3422 28.6773L64.434 9.00008C64.792 8.7471 65.2119 8.59564 65.6489 8.5619C66.0859 8.52815 66.524 8.61334 66.9166 8.80835C67.2828 9.0521 67.5766 9.39019 67.7669 9.78698C67.9573 10.1838 68.0372 10.6245 67.9982 11.0629L67.9882 39.0278C67.9386 40.033 67.6614 41.0137 67.1774 41.8959C66.6934 42.7781 66.0152 43.5387 65.1943 44.1201C65.7229 47.0172 65.9097 49.9662 65.7511 52.9068L65.7421 53.5209C65.7407 53.6158 65.7149 53.7087 65.6672 53.7907C65.6195 53.8727 65.5515 53.9412 65.4697 53.9893C65.3862 54.0365 65.2918 54.0613 65.1959 54.0613C65.0999 54.0613 65.0055 54.0365 64.9219 53.9893C64.2663 53.6189 63.6477 53.2393 63.053 52.8639C59.8959 50.9049 57.4043 49.3533 52.1258 52.0862L30.9718 64.2968C30.6023 64.5135 30.1818 64.6281 29.7535 64.6291Z" fill="#1B69FF"/>
<path fill-rule="evenodd" clip-rule="evenodd" d="M6.56705 30.2701C6.62303 29.2625 6.91509 28.2824 7.41969 27.4087C7.92428 26.535 8.62714 25.7922 9.47162 25.2407L44.4206 5.07111C45.3805 4.51794 46.4012 3.70714 47.4979 4.17244C46.7206 3.72611 41.6337 0.726673 41.2725 0.618836C40.2747 0.333266 39.2349 1.13003 38.4107 1.60331L4.59125 21.1259C3.05958 22.0116 2.22639 22.4339 1.31737 24.1164C0.852311 24.9374 0.59346 25.8592 0.563029 26.8024L0.549143 56.3978C0.523433 56.7383 0.578243 57.08 0.709317 57.3952C0.840391 57.7105 1.04401 57.9903 1.30348 58.212L3.34104 59.3883C2.92322 62.5683 2.78066 65.7783 2.91497 68.9827L8.92386 72.4515C8.73777 68.7766 8.96405 65.0925 9.59842 61.4681L6.55804 59.7147L6.56705 30.2701Z" fill="white"/>
<path fill-rule="evenodd" clip-rule="evenodd" d="M3.46193 68.6562L8.36118 71.487C8.22843 68.226 8.43746 64.96 8.98482 61.7426L6.29073 60.182C6.20707 60.1345 6.13744 60.0657 6.0889 59.9826C6.04036 59.8995 6.01466 59.805 6.01436 59.7087L6.02325 30.2721C6.07958 29.1699 6.39637 28.0967 6.94763 27.1408C7.49888 26.185 8.26897 25.3736 9.19445 24.7733L44.5505 4.35511C44.9097 4.12438 45.2855 3.9208 45.675 3.74604C44.0735 2.80846 41.4312 1.27079 41.0979 1.13999C40.5172 0.975234 39.7539 1.43949 39.0844 1.83888L38.6852 2.07754L4.66926 21.712C3.43601 22.2448 2.42263 23.1848 1.79843 24.375C1.37905 25.1175 1.14437 25.9499 1.11401 26.8022L1.1 56.3936C1.1 56.6932 1.16083 57.4531 1.60586 57.7487L3.61552 58.906C3.71219 58.9626 3.78969 59.0468 3.83806 59.1479C3.88644 59.249 3.90344 59.3623 3.88691 59.4731C3.4817 62.4878 3.33914 65.5319 3.46083 68.5713V68.6562H3.46193ZM8.92404 73.0007C8.82744 72.9991 8.73277 72.9733 8.64864 72.9257L2.63865 69.457C2.55636 69.4079 2.48783 69.3387 2.4395 69.256C2.39116 69.1732 2.36461 69.0795 2.36227 68.9837V68.5844C2.25027 65.6087 2.37875 62.6287 2.74644 59.6737L1.03216 58.6852C0.683473 58.4201 0.406638 58.072 0.226782 57.6725C0.0469265 57.2729 -0.0302186 56.8346 0.002417 56.3977L0.0114306 26.7972C0.0425002 25.762 0.325337 24.7499 0.835565 23.8487C1.55736 22.4814 2.71242 21.3927 4.11943 20.7534L38.5106 0.893287C38.913 0.562325 39.3799 0.31927 39.8817 0.179641C40.3835 0.0400113 40.9089 0.00688332 41.4242 0.0824969C41.6587 0.152392 42.6137 0.668722 46.9612 3.21389L47.7714 3.69217C47.8929 3.76165 47.9835 3.87487 48.0245 4.00883C48.0655 4.1428 48.0538 4.28734 47.992 4.41301C47.9274 4.53758 47.8184 4.63337 47.6866 4.68128C47.5548 4.72919 47.4099 4.72573 47.2805 4.67165C46.605 4.38508 45.8835 4.82644 45.1252 5.28974L44.6991 5.54826L9.75122 25.7179C8.98871 26.22 8.35391 26.8933 7.89759 27.6843C7.44126 28.4754 7.17601 29.3622 7.12291 30.2741L7.11389 59.3822L9.8779 60.9797C9.97683 61.0373 10.0553 61.1244 10.1024 61.2288C10.1494 61.3331 10.1628 61.4496 10.1404 61.5619C9.52852 65.0229 9.3056 68.5415 9.47582 72.0521V72.4415C9.4764 72.5386 9.45107 72.6341 9.40249 72.7182C9.35391 72.8022 9.28384 72.8718 9.19944 72.9198C9.11667 72.972 9.02082 73.0001 8.92294 73.0007H8.92404Z" fill="#1B69FF"/>
<path fill-rule="evenodd" clip-rule="evenodd" d="M9.60038 61.4627L7.52981 61.8052L2.32617 58.8008L3.34203 59.3858L3.33301 59.4747C2.93926 62.6256 2.7998 65.8031 2.91595 68.9764L8.92582 72.4492C8.77826 68.9005 8.98076 65.3459 9.53046 61.8371L9.60038 61.4627Z" fill="#1B69FF"/>
<path fill-rule="evenodd" clip-rule="evenodd" d="M3.46084 68.6552L8.36021 71.486C8.26338 68.3571 8.44835 65.2258 8.91296 62.1301L7.61586 62.3457C7.48955 62.3692 7.35908 62.3439 7.25069 62.2749L3.77425 60.2779C3.47728 63.0612 3.3725 65.8615 3.46084 68.6592V68.6552ZM8.92295 72.9997C8.82602 72.9982 8.73102 72.9724 8.64658 72.9248L2.63671 69.451C2.55462 69.4029 2.48617 69.3348 2.4378 69.2528C2.38943 69.1709 2.36277 69.0778 2.36033 68.9827C2.25111 65.8744 2.37943 62.7624 2.74438 59.6737L2.04595 59.2744C1.92061 59.201 1.82936 59.081 1.79199 58.9406C1.75461 58.8001 1.77418 58.6505 1.84644 58.5245C1.92001 58.3979 2.04079 58.3058 2.18225 58.2684C2.32372 58.2309 2.47427 58.2512 2.60078 58.3248L3.61748 58.9099C3.62646 58.9099 3.6315 58.9099 3.63648 58.9199L7.6278 61.2305L9.50567 60.9209C9.59309 60.9056 9.68304 60.9121 9.76731 60.94C9.85157 60.9679 9.92755 61.0162 9.98863 61.0807C10.0504 61.1441 10.0959 61.2215 10.1212 61.3064C10.1464 61.3913 10.1505 61.4811 10.1333 61.568L10.0635 61.9424C9.51991 65.4156 9.3223 68.9342 9.47376 72.4465C9.47379 72.5442 9.4483 72.6402 9.39982 72.725C9.35134 72.8098 9.28156 72.8803 9.19738 72.9298C9.11331 72.976 9.01886 73.0001 8.92295 72.9997Z" fill="#1B69FF"/>
<path fill-rule="evenodd" clip-rule="evenodd" d="M7.53731 27.2188L1.52744 23.75L0.563477 26.7963L0.727183 57.4372C1.07842 58.3418 2.10919 58.6693 3.34051 59.3822C2.92298 62.5622 2.78043 65.7723 2.91444 68.9768L8.92431 72.4455C8.73807 68.7707 8.96435 65.0865 9.59886 61.4621L6.55849 59.7088C6.55849 55.7717 6.30602 30.6665 6.74606 29.021L7.53731 27.2188Z" fill="#1B69FF"/>
<path fill-rule="evenodd" clip-rule="evenodd" d="M3.46125 68.6549L8.36063 71.4857C8.22635 68.2247 8.43538 64.9586 8.98427 61.7414L6.29006 60.1808C6.20639 60.1332 6.13677 60.0645 6.08823 59.9813C6.03969 59.8982 6.01398 59.8037 6.01368 59.7075C6.01368 58.9716 6.00366 57.5107 5.99468 55.6056C5.90088 40.4095 5.90096 30.0442 6.22026 28.8739L6.83794 27.4491L1.8488 24.5665L1.11833 26.8819L1.27802 57.3211C1.50253 57.7804 2.0513 58.0659 2.79169 58.4553C3.05811 58.5961 3.33459 58.741 3.61997 58.9057C3.7166 58.9611 3.79427 59.0444 3.84287 59.1447C3.89147 59.245 3.90868 59.3576 3.89232 59.4678C3.48854 62.4495 3.34431 65.4606 3.46125 68.4672V68.6549ZM8.92336 72.9995C8.82644 72.9979 8.73145 72.9721 8.64699 72.9245L2.637 69.4557C2.55471 69.4066 2.4863 69.3375 2.43797 69.2547C2.38963 69.172 2.36297 69.0783 2.36062 68.9824V68.4832C2.25233 65.5434 2.38081 62.5997 2.7448 59.6805C2.58115 59.5917 2.42649 59.5118 2.27682 59.4319C1.38805 59.1159 0.650723 58.4768 0.211369 57.6416C0.186687 57.5779 0.173751 57.5102 0.173366 57.4418L0.00978152 26.8C0.00932438 26.7426 0.0187303 26.6856 0.0376749 26.6313L1.00262 23.5799C1.02755 23.5009 1.07 23.4286 1.12686 23.3684C1.18372 23.3082 1.25348 23.2617 1.33088 23.2324C1.4066 23.2025 1.48813 23.1905 1.56925 23.1971C1.65038 23.2036 1.72893 23.2286 1.79886 23.2703L7.80885 26.7391C7.92745 26.8059 8.01706 26.9143 8.06038 27.0434C8.10369 27.1725 8.09762 27.3132 8.04332 27.4381L7.25195 29.2353C6.93764 30.4255 7.04549 48.06 7.09239 55.5956C7.09239 57.2601 7.10628 58.5861 7.11127 59.3829L9.87527 60.9806C9.97402 61.0381 10.0524 61.1249 10.0994 61.2291C10.1464 61.3333 10.1599 61.4495 10.1378 61.5616C9.52899 64.9961 9.30576 68.4879 9.47222 71.972V72.4412C9.47208 72.5387 9.44652 72.6345 9.39804 72.7191C9.34956 72.8037 9.27975 72.8742 9.19572 72.9235C9.11278 72.9714 9.01912 72.9976 8.92336 72.9995Z" fill="#1B69FF"/>
<path fill-rule="evenodd" clip-rule="evenodd" d="M48.5608 28.6368C48.4646 28.6365 48.3702 28.6114 48.2866 28.5638C48.203 28.5162 48.1332 28.4478 48.0838 28.3652C48.0108 28.2385 47.9908 28.0881 48.0282 27.9467C48.0656 27.8052 48.1573 27.6844 48.2834 27.6104L60.5417 20.528C60.6682 20.4544 60.8188 20.434 60.9602 20.4715C61.1017 20.5089 61.2225 20.6011 61.2961 20.7277C61.3683 20.8546 61.3878 21.0048 61.3505 21.146C61.3132 21.2872 61.222 21.408 61.0965 21.4825L48.8382 28.5599C48.7543 28.61 48.6585 28.6365 48.5608 28.6368Z" fill="#1B69FF"/>
<path fill-rule="evenodd" clip-rule="evenodd" d="M48.5565 35.6287C48.4596 35.6284 48.3644 35.6029 48.2806 35.5543C48.1967 35.5058 48.127 35.436 48.0785 35.3521C48.0065 35.2252 47.9871 35.0752 48.0244 34.9341C48.0617 34.793 48.1528 34.672 48.2781 34.5973L58.5507 28.6632C58.6766 28.5907 58.8261 28.571 58.9665 28.6084C59.107 28.6458 59.2269 28.7373 59.3 28.8629C59.337 28.9253 59.3612 28.9945 59.3711 29.0664C59.3811 29.1383 59.3766 29.2115 59.358 29.2817C59.3394 29.3518 59.3071 29.4176 59.2629 29.4751C59.2187 29.5326 59.1635 29.5808 59.1005 29.6167L48.8328 35.5509C48.7494 35.6013 48.6539 35.6281 48.5565 35.6287Z" fill="#1B69FF"/>
<path fill-rule="evenodd" clip-rule="evenodd" d="M34.4985 51.1631C34.4016 51.1628 34.3065 51.1373 34.2226 51.0887C34.1387 51.0402 34.0691 50.9704 34.0205 50.8865C33.9481 50.759 33.9292 50.6079 33.9679 50.4664C34.0066 50.3249 34.0998 50.2045 34.2271 50.1317L60.5428 34.9406C60.6688 34.868 60.8182 34.8483 60.9587 34.8857C61.0991 34.9231 61.219 35.0146 61.2922 35.1402C61.3288 35.2028 61.3528 35.2719 61.3626 35.3438C61.3724 35.4156 61.3679 35.4887 61.3494 35.5588C61.3308 35.6289 61.2985 35.6945 61.2545 35.7521C61.2104 35.8096 61.1554 35.8579 61.0927 35.8941L34.7679 51.0852C34.687 51.1355 34.5938 51.1625 34.4985 51.1631Z" fill="#1B69FF"/>
<path fill-rule="evenodd" clip-rule="evenodd" d="M48.4354 35.9806C48.4354 28.6916 48.4454 13.3926 48.4494 6.09958C48.4494 4.25336 47.1422 3.49847 45.5497 4.42108C33.5205 11.358 21.4947 18.2982 9.47217 25.2418C8.62885 25.7945 7.92676 26.5374 7.42231 27.4108C6.91787 28.2843 6.6251 29.264 6.56749 30.2712L6.55859 59.8616C6.55859 61.7078 7.86077 62.4627 9.45829 61.5401L9.59897 61.4601C8.96999 65.0852 8.74375 68.7687 8.92442 72.4436C10.0866 70.4519 11.2437 68.4566 12.3959 66.4576C19.7129 53.6709 34.0827 47.2446 45.4519 41.0479C46.3377 40.5324 47.0652 39.7837 47.5553 38.8832C48.1044 38.0125 48.4085 37.0097 48.4354 35.9806Z" fill="white"/>
<path fill-rule="evenodd" clip-rule="evenodd" d="M9.59882 60.9069C9.71379 60.9074 9.82546 60.9453 9.91709 61.0148C10.0038 61.0751 10.071 61.1597 10.1102 61.2578C10.1494 61.356 10.1589 61.4634 10.1377 61.5669C9.59667 64.4936 9.3675 67.4695 9.45411 70.4445C10.2777 69.0287 11.0989 67.6085 11.9177 66.184C18.4376 54.7842 30.4385 48.4107 41.0254 42.7942C42.4443 42.0393 43.8403 41.3035 45.1894 40.5626C45.9887 40.0974 46.6446 39.421 47.0852 38.6075C47.5819 37.8182 47.8576 36.91 47.8835 35.9776L47.8975 6.09657C47.9295 5.8337 47.8933 5.56705 47.7925 5.32222C47.6916 5.07739 47.5295 4.86261 47.3217 4.69865C47.0758 4.60202 46.8094 4.56961 46.5475 4.60455C46.2856 4.63949 46.037 4.74057 45.825 4.8983L9.75253 25.72C8.99283 26.2238 8.36016 26.8969 7.90414 27.6866C7.44812 28.4762 7.18114 29.3608 7.12422 30.2711L7.11521 59.8625C7.08343 60.1249 7.11927 60.3912 7.21935 60.6358C7.31943 60.8805 7.48041 61.0955 7.68696 61.2604C7.93259 61.3585 8.19938 61.3917 8.46152 61.3567C8.72366 61.3217 8.97233 61.2198 9.1837 61.0607L9.32439 60.9809C9.40893 60.9335 9.50386 60.9077 9.60076 60.9059L9.59882 60.9069ZM8.92426 72.9998C8.87684 72.9983 8.82971 72.9919 8.78357 72.9808C8.66719 72.9493 8.56442 72.8805 8.49088 72.7849C8.41733 72.6893 8.37713 72.5722 8.3765 72.4515L8.36749 71.8425C8.24282 68.6822 8.40983 65.5172 8.8664 62.3877C8.58081 62.4775 8.27997 62.5085 7.98209 62.4788C7.68421 62.4491 7.39552 62.3594 7.13323 62.215C6.75135 61.9604 6.44529 61.6074 6.24734 61.1931C6.0494 60.7789 5.96686 60.3188 6.00861 59.8615L6.01762 30.2701C6.06907 29.165 6.38431 28.0883 6.93688 27.1301C7.48946 26.1718 8.26326 25.36 9.19369 24.7624L45.2712 3.94185C45.6463 3.67738 46.0858 3.5192 46.5434 3.48405C47.0009 3.4489 47.4595 3.53801 47.8706 3.74208C48.2521 3.9968 48.5578 4.34974 48.7557 4.76373C48.9536 5.17773 49.0363 5.63743 48.9951 6.09449L48.9861 35.9755C48.9581 37.1043 48.628 38.205 48.0302 39.1627C47.487 40.1464 46.6872 40.9643 45.7162 41.5291C44.3578 42.2654 42.9652 43.0109 41.5383 43.7658C31.0881 49.3154 19.2369 55.6059 12.8707 66.7312C11.7232 68.7375 10.5647 70.7345 9.39528 72.7221C9.34809 72.8057 9.27967 72.8755 9.19698 72.9242C9.11429 72.9729 9.02022 72.999 8.92426 72.9998Z" fill="#1B69FF"/>
<path fill-rule="evenodd" clip-rule="evenodd" d="M7.2973 62.2192C7.20012 62.2195 7.10468 62.1936 7.02093 62.1443L1.20753 58.7884C1.08124 58.7146 0.989386 58.5937 0.951981 58.4522C0.914577 58.3107 0.93472 58.1602 1.00801 58.0335C1.04358 57.9706 1.09132 57.9155 1.14845 57.8713C1.20559 57.8271 1.27087 57.7947 1.34066 57.7761C1.41045 57.7575 1.48326 57.753 1.5548 57.7629C1.62633 57.7729 1.69524 57.7969 1.75736 57.8338L7.57465 61.1948C7.70019 61.268 7.79171 61.388 7.8291 61.5285C7.8665 61.669 7.84681 61.8186 7.77429 61.9446C7.72552 62.028 7.65586 62.0971 7.57222 62.1453C7.48857 62.1934 7.3938 62.2189 7.2973 62.2192Z" fill="#1B69FF"/>
<path d="M16.1475 34.9853C16.396 34.5559 16.8001 34.3223 17.0456 34.4641L19.0601 35.6134C19.6283 35.8708 20.2545 35.973 20.8749 35.9097C21.4953 35.8463 22.0879 35.6197 22.5925 35.2528L22.8798 35.0871C22.8332 34.428 22.8094 33.7405 22.8081 33.0242L34.5964 26.2135C34.5964 26.9294 34.5714 27.6454 34.5255 28.3583L34.8129 28.1925C36.2886 27.2747 37.5047 25.9938 38.3452 24.4721L40.3598 20.9954C40.6083 20.566 41.0114 20.3334 41.2578 20.4752C41.5043 20.6169 41.5073 21.0803 41.2578 21.5096L39.2442 24.9863C38.1891 26.8962 36.6629 28.5039 34.8109 29.6563L34.3868 29.9009C34.3083 30.6085 34.2085 31.3074 34.0875 31.9977L37.9391 29.7721C38.2913 29.5724 38.5767 29.7321 38.5767 30.1355C38.5641 30.3559 38.4998 30.5701 38.389 30.7609C38.2782 30.9517 38.1241 31.1137 37.9391 31.2338L33.7572 33.6503C33.5696 34.475 33.3581 35.2718 33.1146 36.0336C35.1352 35.3996 36.8494 36.0796 37.5968 37.9308L38.3771 39.8699C38.4203 40.0786 38.4086 40.295 38.3432 40.4978C38.2778 40.7007 38.1609 40.8831 38.0039 41.0272C37.9373 41.0955 37.8622 41.1549 37.7804 41.2039C37.522 41.3527 37.2815 41.3117 37.1818 41.073L36.4024 39.1341C35.7688 37.5604 34.2601 37.0482 32.5109 37.7361C31.4821 40.3322 30.1521 42.3182 28.6972 43.1579C27.2424 43.9976 25.9123 43.5573 24.8835 42.1425C23.0071 43.6547 21.6471 45.7135 20.992 48.0336L20.2126 50.8733C20.1207 51.211 19.9076 51.5029 19.614 51.6931C19.5452 51.7343 19.4694 51.7623 19.3905 51.7759C19.0612 51.8238 18.8915 51.4994 19.0172 51.0491L19.7975 48.2094C20.5757 45.4656 22.1328 43.0068 24.2798 41.131C24.0217 40.6025 23.8067 40.0538 23.6372 39.4904L19.4553 41.9069C19.103 42.1066 18.8177 41.9478 18.8177 41.5434C18.8304 41.3231 18.8947 41.1088 19.0054 40.918C19.1162 40.7272 19.2703 40.5652 19.4553 40.4451L23.307 38.2194C23.1879 37.6716 23.0881 37.0888 23.0076 36.4711L22.5835 36.7167C20.9091 37.6842 19.3345 37.845 18.1501 37.169L16.1356 36.0197C15.9021 35.8769 15.9021 35.4146 16.1475 34.9853Z" fill="#1B69FF"/>
<path d="M33.9252 18.1903C33.3012 18.5618 32.7612 19.059 32.3394 19.6505C31.9177 20.242 31.6235 20.9148 31.4755 21.6262L31.2859 22.5528C32.7468 22.7165 33.7277 23.9806 33.7277 26.0794L23.6915 31.8777C23.806 29.5547 24.6618 27.3298 26.1332 25.5294L25.9436 24.8224C25.6523 23.736 24.6275 23.4734 23.4939 24.2172C23.1377 24.4529 22.8393 24.3171 22.8174 23.9257C22.8215 23.7047 22.8779 23.4879 22.982 23.293C23.0861 23.0981 23.2349 22.9307 23.4161 22.8045C25.1483 21.6722 26.7329 22.0655 27.1799 23.734L27.3196 24.2542C27.7471 23.86 28.2154 23.5125 28.7166 23.2178C29.1526 22.9605 29.6229 22.7665 30.1135 22.6416L30.2532 21.9606C30.4824 20.8685 30.9351 19.8358 31.5829 18.9274C32.2307 18.019 33.0594 17.2546 34.017 16.6826C34.3682 16.5058 34.6347 16.6996 34.6157 17.116C34.5942 17.3371 34.5203 17.5499 34.4003 17.7368C34.2802 17.9236 34.1173 18.079 33.9252 18.1903Z" fill="#1B69FF"/>
</g>
<defs>
<clipPath id="clip0_9_79495">
<rect width="68" height="73" fill="white"/>
</clipPath>
</defs>
</svg>
