<svg width="236" height="78" viewBox="0 0 236 78" fill="none" xmlns="http://www.w3.org/2000/svg">
<path d="M45.0461 22.9924C47.8804 18.6618 51.0442 14.997 54.2114 12.8285C55.8592 11.6651 57.7081 10.9961 59.2076 10.9961C60.5259 10.9961 62.0419 11.3257 61.8738 13.1647C61.7057 15.8276 57.2104 19.1595 51.878 21.4928C51.3771 21.6609 50.3785 22.152 49.7128 22.3266C48.2132 25.1576 46.8785 27.8238 45.7151 30.1572C39.539 42.1502 30.3869 46.8168 20.0582 47.4826C15.8925 47.6507 10.5601 47.3178 7.06337 44.8164C4.0643 47.3178 1.56288 49.9807 0.732373 52.1493C0.564294 52.6469 0.402805 52.9798 0.0732373 52.8084C-0.0915467 52.8084 0.0732373 52.1493 0.0732373 51.8197C0.907044 49.4896 3.07231 46.6553 6.07137 43.8244C5.05185 42.8713 4.25464 41.7055 3.73632 40.4097C3.21801 39.1139 2.99131 37.7199 3.07231 36.3267C3.73144 28.4962 13.9019 24.3304 19.7353 23.9976C23.8977 23.668 30.3968 24.4985 32.562 27.9985C37.0508 26.3243 40.8836 24.66 45.0461 22.9924ZM19.7254 24.8248C14.2249 25.1543 6.39435 28.6576 5.88352 36.1553C5.71544 38.8182 6.54266 41.1516 7.71592 42.4863C8.47227 41.7294 9.31008 41.0584 10.214 40.4858C11.6228 39.2576 13.1271 38.1434 14.7126 37.1539C13.8465 36.3613 13.2613 35.3088 13.045 34.1548C13.045 33.8253 13.045 33.321 13.2131 33.321C13.3812 33.321 13.3812 33.6506 13.3812 33.9802C13.6887 35.0431 14.3315 35.9783 15.2136 36.6464C18.7235 34.6558 22.4015 32.6553 25.8883 31.1558C27.7207 30.322 29.3883 29.5079 31.2207 28.8224C29.5531 25.1576 23.555 24.3238 19.7254 24.8248ZM15.8925 38.1525C14.2249 39.3192 12.7254 40.3178 11.061 41.4844C10.0723 42.1436 9.22863 42.8027 8.39483 43.4849C11.3939 46.3159 16.3934 46.9816 20.724 46.6488C29.2202 45.9896 35.3831 40.4858 41.0484 29.9891C42.2151 27.9919 43.3818 25.9914 44.5484 24.159C40.7156 25.8069 37.0508 27.3229 33.2179 29.1553C33.559 29.9446 33.7297 30.7969 33.7188 31.6567C33.5508 36.9858 27.2197 39.9849 22.0554 39.9849C20.0582 39.8201 17.7249 39.3192 15.8925 38.1525ZM31.8864 31.4886C31.9212 30.8751 31.8646 30.2597 31.7184 29.6628C30.0705 30.4966 28.2216 31.3304 26.3892 32.161C23.0575 33.7927 19.8304 35.6298 16.7263 37.6614C18.3624 38.5451 20.1961 38.9987 22.0554 38.9797C26.2212 38.9863 31.5536 36.1553 31.8864 31.4886ZM51.7099 20.4942C56.0438 18.6618 60.7072 15.6628 61.04 12.9966C61.2081 11.8299 60.2095 11.329 59.2076 11.497C58.0409 11.6651 56.8743 12.4857 55.5428 13.6623C54.0433 14.9806 51.878 18.1609 50.2104 20.9919C50.7183 20.8514 51.2188 20.6853 51.7099 20.4942Z" fill="#2A567D"/>
<path d="M45.7161 38.6515C45.2152 39.1525 44.8823 39.3107 44.7274 39.1525C44.5725 38.9943 44.8955 38.4933 45.2284 38.1638C45.9939 37.4181 46.8306 36.7492 47.7265 36.1666C48.948 35.3002 50.2288 34.5205 51.5594 33.8332C53.8927 32.6666 56.3908 31.8328 58.2232 31.668C58.7242 31.668 59.3899 31.668 59.3899 31.9975C59.3899 32.1623 59.2218 32.1623 58.5561 32.4985C56.7237 33.329 55.0561 34.6637 52.8908 36.829C50.5608 39.1623 48.3922 42.3262 48.2274 43.8257C48.2274 44.6595 48.3922 45.144 49.3941 45.144C51.2265 45.144 54.3904 42.9787 56.7237 40.3125C56.7237 39.482 57.0533 38.3154 58.2232 36.9806C58.8539 36.0954 59.719 35.4037 60.7214 34.9834C60.8533 34.382 60.9097 33.7664 60.8894 33.151C60.8894 32.3172 60.5599 31.9844 60.8894 31.8328C61.219 31.6812 61.72 32.0008 62.0561 32.3337C62.4305 32.6956 62.7149 33.1402 62.8866 33.6318C63.0583 34.1234 63.1125 34.6484 63.0448 35.1647C62.8767 36.9971 61.0443 39.3304 58.5462 41.6638C58.8758 41.8286 59.7129 41.6638 60.0458 41.6638C61.0233 41.4332 61.9353 40.9823 62.712 40.3455C63.7007 39.6864 64.3598 39.0272 65.2101 38.3483C65.8692 37.6892 66.3767 37.3596 66.5284 37.5145C66.68 37.6694 66.3636 38.1736 65.5396 39.014C64.7734 39.7598 63.9368 40.4298 63.0415 41.0145C61.7068 41.845 60.8763 42.3328 60.0425 42.5141C59.3833 42.6788 58.3748 42.6788 57.8772 42.346C55.8767 44.0136 52.0438 46.1788 48.7119 46.1788C46.2138 46.1788 44.7142 45.0122 44.8823 42.6788C44.8823 41.031 45.871 39.1821 47.3805 37.5145C46.5466 37.8177 46.3819 38.1506 45.7161 38.6515Z" fill="#2A567D"/>
<path d="M105.688 0C107.52 0 108.186 1.31827 107.853 2.83099C107.194 6.66386 99.5248 12.9949 91.5261 19.6587C86.6947 23.6564 80.5318 28.4879 75.7069 32.6536C71.5412 37.8179 69.2078 40.9851 66.3768 44.9827C67.5678 44.7 68.7322 44.3152 69.8571 43.8325C71.4205 43.1847 72.9255 42.4041 74.3557 41.4992C75.961 40.4765 77.4671 39.3059 78.8543 38.0025C79.1838 37.6729 79.843 37.0138 80.1725 37.3433C80.3373 37.5081 79.6716 38.1739 79.5134 38.5067C77.9559 40.0395 76.2224 41.3825 74.3491 42.5077C72.1838 43.8259 69.5176 44.8377 68.0181 45.5067C67.1876 45.8363 66.3538 46.1659 66.0209 46.825C65.5683 47.6265 65.1783 48.4617 64.8542 49.3231C63.5359 53.4889 61.0213 59.6518 58.1904 64.4833C55.6922 68.9819 52.1922 73.8133 49.0284 76.3148C47.8617 77.3035 46.695 77.811 45.5284 77.633C44.5396 77.465 43.8607 76.4664 44.2101 74.634C45.0406 70.3034 50.373 61.1382 56.0383 53.3076C60.0359 47.8104 65.3683 40.8137 70.0317 34.9836C69.043 35.6428 67.2007 37.317 65.866 38.6484C65.3683 38.978 65.2069 39.1494 65.0355 38.978C64.8641 38.8066 65.0355 38.6484 65.5331 38.1442C67.5734 36.1678 69.7447 34.3312 72.0322 32.647C75.697 28.1484 78.528 24.4836 80.8613 21.6526C87.0275 14.501 95.1909 6.16292 99.1886 3.33193C101.024 1.66761 103.354 0 105.688 0ZM54.542 61.2996C51.8758 65.2973 48.211 70.9626 46.8763 73.9616C46.3786 74.9503 46.5467 75.626 46.8763 75.794C47.3772 75.9588 47.865 75.794 48.8768 75.1349C50.8772 73.4673 54.2092 69.4696 57.5411 63.6396C60.5402 58.4752 63.5392 50.6447 64.5378 47.1447C59.5383 53.8119 59.0406 54.8104 54.542 61.2996ZM90.8604 18.8249C98.5229 11.9963 105.52 5.83006 105.856 2.34652C105.856 1.35782 105.526 0.84699 104.521 0.84699C103.203 0.84699 101.357 2.51131 99.5248 4.01084C96.8586 6.51226 93.3586 10.3418 89.1928 15.3414C83.3628 22.3381 81.3656 24.8362 77.0318 30.5015C84.6876 23.9893 87.3604 21.9921 90.8604 18.8249Z" fill="#2A567D"/>
<path d="M79.3666 38.4821C78.8657 38.983 78.5328 38.983 78.3779 38.8116C78.223 38.6403 78.3779 38.314 78.8755 37.8229C81.0408 35.9905 83.2094 33.9901 84.7089 32.6586H81.8746C81.377 32.6586 80.8859 32.6586 81.0408 32.329C81.0408 31.9995 81.8746 31.9995 83.2094 31.8281H85.3746C87.8727 28.829 91.0399 25.3323 92.8723 23.4999C94.3718 22.0004 96.2042 20.168 97.8685 20.168C98.7023 20.168 99.0352 20.3328 99.0352 20.6656C98.0465 21.4994 96.0361 23.8328 94.2037 25.8299C92.4955 27.6913 90.883 29.6383 89.3723 31.6633H93.8709C94.53 31.6633 95.0375 31.6633 95.0375 32.1609C95.0375 32.6586 94.2037 32.4905 93.538 32.4905H88.6967C87.0291 34.3196 84.3596 38.4821 83.0413 41.3163C82.5403 42.1469 82.3821 43.3135 83.0413 43.6464C83.5422 43.8145 84.3596 43.6464 85.0418 43.3168C86.3268 42.6447 87.5527 41.8653 88.7066 40.9868C89.9879 40.0022 91.2115 38.9447 92.3713 37.8196C92.7009 37.4901 93.2052 36.9858 93.538 37.322C93.7028 37.4868 93.538 37.6516 93.0371 38.3107C91.5249 39.8094 89.9106 41.2014 88.2056 42.4764C86.6962 43.6464 83.8652 45.8084 80.8661 45.8084C79.0337 45.8084 78.368 44.8197 78.5328 43.6398C78.7009 41.6426 80.5333 38.8083 82.8633 35.8126C81.5883 36.5491 80.4131 37.4463 79.3666 38.4821Z" fill="#2A567D"/>
<path d="M112.355 31.6562C114.022 31.6562 114.187 31.9858 113.344 32.9745C112.355 34.1412 110.513 36.1417 108.848 38.3069C107.86 39.6252 106.848 40.9731 106.014 42.1365C105.513 43.1252 105.513 43.8041 105.849 43.9722C106.179 44.3018 107.013 43.9722 107.682 43.6426C108.512 43.3131 110.012 42.1431 111.346 41.1445C112.68 40.1008 113.958 38.9886 115.176 37.8126C115.677 37.483 116.01 36.9788 116.343 37.3149C116.511 37.4797 116.178 37.9741 115.354 38.8112C113.92 40.1642 112.419 41.4434 110.855 42.644C109.191 43.9788 106.69 45.8112 104.027 45.8112C102.527 45.8112 101.858 45.1521 101.693 44.1436C101.709 43.0861 102.126 42.0741 102.86 41.3126C100.86 43.145 97.1947 45.8112 94.0276 45.976C92.1952 45.976 90.3628 45.3168 90.6957 42.8121C90.8638 41.6455 91.5295 40.3107 92.8642 38.6464L91.8755 39.6351C91.546 39.8032 91.3779 39.9647 91.2164 39.8032C91.0549 39.6417 91.3845 39.144 92.3831 38.3036C92.5478 38.1356 94.0474 36.9854 94.7164 36.4712C95.5469 35.9703 96.8817 34.9717 98.3812 34.306C101.545 32.6384 104.211 31.8046 106.377 32.1374C108.044 32.3055 108.542 33.805 108.044 35.1365C109.689 32.8229 111.023 31.6562 112.355 31.6562ZM98.513 37.4863C95.1811 40.6535 93.8496 42.8187 94.0144 43.8173C94.0144 44.3183 94.5154 44.6511 95.0031 44.6511C96.5027 44.6511 99.5017 42.8187 101.667 40.9863C104.165 38.8178 107.164 35.321 107.164 33.9863C107.164 32.9866 106.664 32.4879 105.665 32.4901C104.191 32.4901 101.36 34.6553 98.5328 37.4863H98.513Z" fill="#2A567D"/>
<path d="M118.187 45.9794C115.188 45.9794 113.857 44.8128 114.025 42.6475C114.19 40.9997 115.014 39.3156 116.355 37.816C115.949 38.2412 115.508 38.6315 115.037 38.9827C114.536 39.3123 114.203 39.6418 114.048 39.4836C113.893 39.3255 114.213 38.9827 114.546 38.6498C115.534 37.6611 116.378 37.1503 117.545 36.3165C118.753 35.4296 120.035 34.6489 121.378 33.9832C124.044 32.4869 126.71 31.485 128.707 31.8179C130.54 32.1475 131.205 33.3174 130.872 34.817C130.54 36.3165 129.208 37.4832 128.206 37.4832C126.888 37.4832 126.888 36.3165 127.547 35.1498C128.381 33.6503 128.714 32.6517 127.715 32.4869C126.881 32.3188 125.049 33.4756 122.716 35.8189C120.55 37.9841 118.55 40.9832 118.217 42.9804C118.052 44.147 118.718 44.8128 120.049 44.8128C121.038 44.8128 123.882 44.3151 127.382 41.9818C129.064 40.7969 130.677 39.5172 132.214 38.1489C132.711 37.8193 132.873 37.6513 133.044 37.8193C133.216 37.9874 132.88 38.3203 132.385 38.808C130.9 40.1675 129.343 41.4469 127.722 42.6409C124.888 44.4733 121.058 45.9728 118.224 45.9728L118.187 45.9794Z" fill="#2A567D"/>
<path d="M135.181 36.3174C134.014 37.3061 133.18 37.9851 132.347 38.6508C131.687 39.1517 131.358 39.4846 131.18 39.3099C131.002 39.1353 131.18 38.809 132.014 37.9917C133.794 36.3604 135.687 34.8571 137.679 33.493C139.679 31.9935 140.843 31.6606 142.342 31.6606C144.01 31.6606 144.175 31.8254 143.176 32.9789C142.178 34.1324 140.678 35.978 139.01 37.9785C137.923 39.3592 136.921 40.8054 136.011 42.309C135.677 42.9681 135.677 43.468 136.011 43.8085C136.341 44.1381 137 43.9766 137.844 43.6404C139.679 42.6517 141.344 41.4752 143.842 39.478C147.675 36.4789 149.84 34.4785 152.506 32.4813C153.146 31.9104 153.983 31.6113 154.84 31.6475C156.158 31.6475 157.005 31.8123 156.006 32.9657C154.507 34.7981 153.34 35.9648 151.84 38.1301C150.506 39.7977 149.507 41.2972 148.841 42.1277C148.34 42.9615 148.34 43.6273 148.673 43.9634C149.006 44.2996 149.662 44.1282 150.506 43.7953C151.349 43.4625 152.839 42.4771 154.171 41.462C155.505 40.4181 156.784 39.306 158.003 38.1301C158.504 37.6324 158.992 37.2996 159.17 37.6324C159.338 37.7972 158.84 38.4629 158.511 38.6211C157.522 39.6098 155.512 41.2873 153.679 42.7869C152.18 43.9535 149.514 45.9507 146.848 45.9507C145.183 45.9507 144.349 45.2916 144.349 44.1183C144.349 42.9451 144.85 41.9531 145.668 40.7864C146.501 39.4681 148.001 37.9554 149.332 36.6206C147.668 37.9554 145.002 40.1207 143.005 41.6202C139.673 44.1183 136.839 45.9507 134.505 45.9507C132.841 45.9507 131.842 45.1169 131.842 43.7855C131.842 42.6188 132.673 41.4521 133.342 40.4535C135.035 38.1771 136.93 36.0581 139.004 34.1225C138.012 34.1522 136.344 35.3189 135.181 36.3174Z" fill="#2A567D"/>
<path d="M161.499 35.4837C160.332 36.4724 159.165 37.6523 158.167 38.4828C157.666 38.8123 157.508 38.9837 157.333 38.6508C157.375 38.4032 157.489 38.1737 157.662 37.9917C157.992 37.6621 160.994 34.9926 163.492 32.9922C165.493 30.326 169.491 25.4945 172.823 21.6649C175.769 18.1829 178.942 14.8988 182.321 11.8339C183.309 11.0001 184.153 10.5156 185.152 10.5156C185.986 10.5156 186.318 10.8452 186.318 11.0133C184.819 12.5128 177.822 20.1786 174.49 24.1762C169.158 30.672 163.492 38.0181 161.66 41.6697C161.495 42.1673 161.001 43.334 161.495 43.8349C161.993 44.1645 163.328 43.8349 163.993 43.334C165.155 42.6933 166.268 41.9696 167.325 41.1687C168.556 40.246 169.725 39.2442 170.825 38.1697C171.155 37.8401 171.814 37.3392 171.989 37.5105C172.163 37.6819 171.989 38.0115 171.491 38.4992C170.502 39.4879 168.492 41.1654 166.66 42.665C164.995 43.8317 162.164 45.8091 159.498 45.8091C157.834 45.8091 157 45.1499 157 43.6405C157.165 41.8081 159.165 38.6443 161.499 35.4771V35.4837Z" fill="#2A567D"/>
<path d="M171.498 38.6515C170.997 39.1525 170.664 39.3107 170.509 39.1525C170.354 38.9943 170.674 38.4933 171.007 38.1638C171.773 37.4189 172.609 36.7501 173.505 36.1666C174.727 35.3017 176.008 34.522 177.338 33.8332C179.671 32.6666 182.169 31.8328 184.001 31.668C184.502 31.668 185.168 31.668 185.168 31.9975C185.168 32.1623 185 32.1623 184.334 32.4985C182.502 33.329 180.838 34.6637 178.672 36.829C176.329 39.1525 174.164 42.3163 174.002 43.8323C174.002 44.6661 174.17 45.1506 175.169 45.1506C177.001 45.1506 180.165 42.9853 182.499 40.3191C182.499 39.4886 182.828 38.3219 183.998 36.9872C184.629 36.102 185.494 35.4103 186.496 34.99C186.628 34.3886 186.685 33.773 186.664 33.1576C186.664 32.3238 186.335 31.9909 186.664 31.8393C186.994 31.6877 187.498 32.0074 187.831 32.3403C188.206 32.7018 188.491 33.1463 188.663 33.638C188.834 34.1297 188.888 34.6549 188.82 35.1713C188.655 37.0037 186.823 39.337 184.321 41.6704C184.651 41.8351 185.488 41.6704 185.821 41.6704C186.798 41.4398 187.71 40.9889 188.487 40.3521C189.476 39.693 190.155 39.0338 190.985 38.3549C191.644 37.6958 192.152 37.3662 192.32 37.5211C192.488 37.676 192.152 38.1802 191.331 39.0206C190.565 39.7664 189.728 40.4363 188.833 41.0211C187.515 41.8516 186.668 42.3394 185.834 42.5206C185.175 42.6854 184.186 42.6854 183.669 42.3526C181.668 44.0202 177.839 46.1854 174.507 46.1854C172.005 46.1854 170.509 45.0188 170.674 42.6854C170.674 41.0376 171.662 39.1887 173.172 37.5211C172.531 37.7573 171.956 38.1452 171.498 38.6515Z" fill="#2A567D"/>
<path d="M194.153 36.3174C192.986 37.3061 192.152 37.9851 191.318 38.6508C190.659 39.1517 190.33 39.4846 190.155 39.3099C189.98 39.1353 190.155 38.809 190.986 37.9917C192.766 36.3604 194.659 34.8571 196.651 33.493C198.651 31.9935 199.818 31.6606 201.318 31.6606C202.982 31.6606 203.15 31.8254 202.148 32.9789C201.146 34.1324 199.65 35.978 197.982 37.9785C196.895 39.3582 195.894 40.8045 194.987 42.309C194.65 42.9681 194.65 43.468 194.987 43.8085C195.316 44.1381 195.975 43.9766 196.819 43.6404C198.651 42.6517 200.316 41.4752 202.814 39.478C206.647 36.4789 208.812 34.4785 211.478 32.4813C212.118 31.9104 212.955 31.6113 213.811 31.6475C215.13 31.6475 215.977 31.8123 214.978 32.9657C213.479 34.7981 212.312 35.9648 210.812 38.1301C209.494 39.7977 208.479 41.2972 207.813 42.1277C207.312 42.9615 207.312 43.6273 207.645 43.9634C207.978 44.2996 208.634 44.1282 209.481 43.7953C210.328 43.4625 211.811 42.4771 213.146 41.462C214.479 40.4182 215.757 39.3061 216.975 38.1301C217.476 37.6324 217.964 37.2996 218.142 37.6324C218.31 37.7972 217.812 38.4629 217.483 38.6211C216.494 39.6098 214.484 41.2873 212.651 42.7869C211.152 43.9535 208.486 45.9507 205.819 45.9507C204.172 45.9507 203.321 45.2916 203.321 44.1183C203.321 42.9451 203.822 41.9531 204.64 40.7864C205.47 39.4681 206.97 37.9554 208.304 36.6206C206.637 37.9554 203.971 40.1207 201.973 41.6202C198.641 44.1183 195.807 45.9507 193.477 45.9507C191.81 45.9507 190.811 45.1169 190.811 43.7855C190.811 42.6188 191.645 41.4521 192.31 40.4535C194.003 38.1771 195.898 36.0581 197.972 34.1225C196.984 34.1522 195.319 35.3189 194.153 36.3174Z" fill="#2A567D"/>
<path d="M229.639 41.9818C231.805 40.6635 233.472 39.1508 234.972 37.9841C235.301 37.6546 235.806 37.325 235.96 37.4832C236.115 37.6414 235.796 38.1423 235.127 38.8015C234.296 39.4606 232.797 40.8019 231.129 41.9686C229.533 42.9825 227.863 43.8738 226.133 44.6348C224.633 45.294 221.799 46.1344 219.469 46.1344C215.303 46.1344 214.304 43.6329 214.637 41.3029C214.97 38.9728 216.803 37.1371 218.635 37.1371C219.802 37.1371 220.283 37.971 220.135 38.9695C219.966 39.8033 219.475 40.4691 218.302 40.97C217.643 41.2996 216.47 42.2883 216.47 43.3001C216.47 44.6183 217.3 45.3005 218.8 45.3005C220.467 45.3005 222.468 43.9823 224.132 40.97C225.632 38.6367 226.963 33.8052 227.797 32.8066C226.963 33.6371 225.299 34.8038 223.964 35.8057C222.801 36.6362 221.634 37.4535 220.968 37.6381C220.639 37.8029 220.309 37.9677 220.135 37.6381C220.135 37.47 220.135 37.3085 220.464 36.979C221.298 36.4813 222.465 35.6607 223.796 34.8137C225.296 33.825 226.627 32.6484 228.459 30.9841C228.77 30.4268 229.233 29.9695 229.794 29.6658C230.462 29.1458 231.278 28.8535 232.124 28.832C233.96 28.832 232.783 29.8207 231.795 30.4996C231.136 31.0006 230.295 31.3335 229.962 31.6663C229.303 32.3255 229.465 32.9846 229.465 33.8316C229.465 35.9968 229.629 38.1621 228.805 40.3274C228.21 41.5973 227.359 42.7314 226.307 43.6593C227.451 43.168 228.564 42.6078 229.639 41.9818Z" fill="#2A567D"/>
</svg>
