<svg width="184" height="78" viewBox="0 0 184 78" fill="none" xmlns="http://www.w3.org/2000/svg">
<path d="M44.2242 20.7656C44.2249 20.7968 44.2192 20.8278 44.2076 20.8567C44.196 20.8857 44.1786 20.912 44.1566 20.934C44.1345 20.9561 44.1082 20.9734 44.0793 20.9851C44.0504 20.9967 44.0194 21.0023 43.9882 21.0016H43.7522C43.5162 21.0016 43.5162 20.7656 43.2802 20.5296C43.152 20.4024 43.0691 20.2366 43.0442 20.0576C43.0442 19.8216 43.0442 19.8216 43.2802 19.8216L43.7522 20.0576C43.9882 20.2936 44.2242 20.5296 44.2242 20.7656ZM39.9732 18.4036C39.9732 17.2226 39.5012 16.5146 38.7922 16.5146C38.7929 16.5458 38.7872 16.5768 38.7756 16.6057C38.764 16.6347 38.7466 16.661 38.7246 16.683C38.7025 16.7051 38.6762 16.7224 38.6473 16.734C38.6184 16.7457 38.5874 16.7513 38.5562 16.7506V17.2226H39.2642C39.2642 17.6946 39.5002 17.9306 39.5002 18.4036H39.9722M48.2382 17.2226C48.7102 17.2226 48.9462 17.6946 49.1832 18.4036H49.6552C49.5657 18.3106 49.498 18.1988 49.4572 18.0763C49.4164 17.9538 49.4034 17.8238 49.4192 17.6956C49.435 17.5675 49.422 17.4374 49.3812 17.315C49.3403 17.1925 49.2727 17.0807 49.1832 16.9876C48.9472 16.7516 48.7112 16.5156 48.4752 16.5156C48.3479 16.6438 48.1821 16.7268 48.0032 16.7516C48.0032 16.9876 48.2392 16.9876 48.2392 17.2236M41.1542 21.0026C40.9182 21.0026 40.9182 21.0026 40.9182 20.7666C40.9024 20.6385 40.9154 20.5084 40.9562 20.386C40.997 20.2635 41.0647 20.1517 41.1542 20.0586C41.4113 20.0708 41.6638 19.9867 41.8622 19.8226C41.8934 19.8219 41.9244 19.8276 41.9533 19.8392C41.9822 19.8508 42.0085 19.8682 42.0306 19.8902C42.0526 19.9123 42.07 19.9386 42.0816 19.9675C42.0932 19.9965 42.0989 20.0274 42.0982 20.0586C42.0982 20.2946 41.8622 20.5306 41.3902 21.0036L41.1542 21.0026ZM38.5542 20.7676C37.6092 20.2956 37.3732 19.5866 37.3732 18.4056C37.3235 18.1123 37.3401 17.8116 37.4218 17.5256C37.5035 17.2396 37.6481 16.9755 37.8452 16.7526C37.956 16.5359 38.1255 16.3546 38.3343 16.2294C38.543 16.1043 38.7828 16.0402 39.0262 16.0446C39.4982 16.0446 39.7342 16.2806 40.2072 16.7526C40.476 17.4315 40.6353 18.1488 40.6792 18.8776V19.3496H40.9152V19.1136C41.1512 19.1136 41.1512 18.6416 41.1512 17.6966C41.223 16.9562 41.0577 16.212 40.6792 15.5716C40.5072 15.2173 40.2391 14.9185 39.9054 14.7094C39.5718 14.5002 39.186 14.389 38.7922 14.3886C38.4289 14.3928 38.0757 14.5083 37.7801 14.7194C37.4846 14.9306 37.2609 15.2273 37.1392 15.5696C36.7034 16.4477 36.5078 17.4255 36.5722 18.4036C36.5773 18.9385 36.6932 19.4665 36.9126 19.9543C37.1321 20.442 37.4503 20.879 37.8472 21.2376C38.0832 21.0016 38.3192 21.0016 38.5552 20.7656M68.0752 54.0656C68.3112 54.0656 68.3112 53.9716 68.3112 53.7586C68.2869 53.4069 68.1905 53.064 68.0279 52.7513C67.8654 52.4385 67.6401 52.1625 67.3662 51.9406C66.4343 51.1536 65.2768 50.6823 64.0602 50.5946C63.8242 50.5706 63.5882 50.5706 63.5882 50.5706C63.434 50.5317 63.275 50.5159 63.1162 50.5236C62.8802 50.4996 62.4082 50.4526 62.1712 50.4056C62.792 48.5233 63.111 46.5546 63.1162 44.5726C63.2174 42.6589 62.7223 40.761 61.6992 39.1406C61.3802 38.5548 60.9424 38.0421 60.4137 37.6353C59.885 37.2286 59.2772 36.9368 58.6292 36.7786C58.3932 37.0146 58.3932 37.0146 58.3932 37.2506C59.7274 37.7901 60.819 38.7977 61.4632 40.0846C62.1152 41.5723 62.4376 43.1836 62.4082 44.8076C62.3657 46.7916 61.9656 48.7517 61.2272 50.5936C60.0768 51.1308 59.1551 52.0599 58.6272 53.2146C58.6272 53.4276 58.6272 53.5456 58.8632 53.5456C59.0483 53.3639 59.2071 53.1572 59.3352 52.9316C59.8072 52.5316 60.0432 52.1316 60.5162 51.7316C61.0736 51.3493 61.7295 51.1361 62.4052 51.1176C63.4513 51.0824 64.4943 51.2523 65.4752 51.6176C66.1278 51.7533 66.7125 52.1126 67.1282 52.6336C67.3642 52.9876 67.6002 53.3183 67.8362 53.6256C67.8357 53.7141 67.8569 53.8013 67.8981 53.8796C67.9392 53.9579 67.999 54.0249 68.0722 54.0746M46.3492 19.8206C46.1349 19.4666 46.0514 19.0488 46.1132 18.6396C46.0152 17.8978 46.1824 17.1452 46.5852 16.5146C46.7623 16.3081 46.9789 16.1391 47.2222 16.0176C47.4655 15.896 47.7307 15.8243 48.0022 15.8066C48.3278 15.8425 48.6425 15.9448 48.9269 16.1074C49.2112 16.27 49.4591 16.4892 49.6552 16.7516C49.9224 17.3486 50.0822 17.9881 50.1272 18.6406C50.1973 19.1076 50.091 19.5839 49.829 19.9767C49.5671 20.3696 49.1682 20.6508 48.7102 20.7656C48.8374 20.8938 49.0033 20.9768 49.1822 21.0016C49.6542 21.0016 49.8902 21.2376 50.3632 21.4736C50.6211 20.3085 50.779 19.1236 50.8352 17.9316C50.9132 16.8592 50.6669 15.7882 50.1282 14.8576C49.8264 14.5384 49.4589 14.2886 49.0511 14.1254C48.6433 13.9622 48.2048 13.8896 47.7662 13.9126C47.0029 13.9303 46.2626 14.177 45.6412 14.6206C45.2039 15.1553 44.9551 15.8192 44.9332 16.5096C44.9154 17.5754 45.1584 18.6293 45.6412 19.5796C45.8772 19.5796 46.1132 19.8156 46.3492 19.8156M49.1832 23.5946C46.1132 25.7196 43.7512 26.6646 41.8622 26.6646C40.1159 26.6044 38.4454 25.9362 37.1392 24.7756C37.3214 25.1991 37.5595 25.5963 37.8472 25.9566L39.2642 27.3736C39.694 27.8169 40.2075 28.1705 40.7751 28.4137C41.3426 28.657 41.9528 28.7851 42.5702 28.7906C44.2232 28.7906 46.1122 27.8456 48.4702 26.1906L50.5952 24.7736C50.8576 24.5776 51.0768 24.3297 51.2394 24.0453C51.402 23.7609 51.5043 23.4462 51.5402 23.1206C51.5402 22.8846 51.5402 22.6486 51.3042 22.6486C51.0682 22.1766 49.8872 21.4676 47.5252 20.7596C46.0487 20.0076 44.4488 19.5276 42.8022 19.3426C41.5321 19.5501 40.3229 20.0338 39.2602 20.7596C37.8432 21.7046 36.8982 22.6486 36.8982 23.5936C37.0892 23.8053 37.2482 24.0439 37.3702 24.3016C38.5235 25.4079 40.0272 26.0761 41.6212 26.1906C43.5102 26.1906 45.8722 25.2456 48.9422 22.8846V23.3566C48.9734 23.3559 49.0044 23.3616 49.0333 23.3732C49.0622 23.3848 49.0885 23.4022 49.1106 23.4242C49.1326 23.4463 49.15 23.4726 49.1616 23.5015C49.1732 23.5305 49.1789 23.5614 49.1782 23.5926M54.6102 71.2926C55.1597 72.3194 56.0472 73.1248 57.1224 73.5723C58.1976 74.0199 59.3944 74.0822 60.5102 73.7486C60.9306 73.6821 61.3327 73.5292 61.6912 73.2996C61.9272 73.1346 62.1632 72.9686 62.3992 72.7796C62.6533 72.6812 62.8918 72.5465 63.1072 72.3796L67.1222 68.9076C68.0658 68.1305 69.096 67.4647 70.1922 66.9236C70.9538 66.4875 71.7427 66.101 72.5542 65.7666C73.1616 65.6098 73.7263 65.3194 74.2072 64.9166C74.5023 64.523 74.6714 64.0492 74.6922 63.5576C74.6642 63.2397 74.5646 62.9323 74.4009 62.6584C74.2373 62.3844 74.0138 62.151 73.7472 61.9756C73.3238 61.6303 72.8446 61.3598 72.3302 61.1756C71.7101 60.889 71.1493 60.4884 70.6772 59.9946C70.0935 59.2356 69.6885 58.3548 69.4922 57.4176L69.2562 56.0476C69.0202 55.4096 69.0202 54.9376 68.7842 54.6776C68.7842 54.6066 68.7842 54.5836 68.5482 54.5836C68.3547 54.6085 68.1693 54.6766 68.0057 54.7829C67.8421 54.8892 67.7045 55.0309 67.6032 55.1976C67.1312 55.5976 66.6582 56.0476 66.1862 56.5206C65.9502 56.9926 65.2412 57.4206 64.7692 57.8206C64.1969 58.1718 63.5495 58.3822 62.8802 58.4346C60.9912 58.4346 60.0462 57.9146 59.3382 56.8996C58.8829 56.0831 58.5637 55.1978 58.3932 54.2786C57.9212 53.8786 57.6852 53.6646 57.2122 53.6646C56.0312 53.6646 55.5592 54.8926 55.5592 57.3726V64.7176C55.4354 65.1813 55.3563 65.6558 55.3232 66.1346C55.1182 66.9512 55.0386 67.7941 55.0872 68.6346L54.6152 71.2576V71.2976M20.3712 70.0476C22.9613 70.4747 25.5014 71.1639 27.9522 72.1046C29.6363 72.8206 31.3933 73.3514 33.1922 73.6876C34.0051 73.6828 34.8055 73.4858 35.5277 73.1127C36.25 72.7395 36.8738 72.2009 37.3482 71.5406C37.553 71.0284 37.6339 70.475 37.5842 69.9256C37.5842 67.6936 36.2382 64.8676 33.5462 61.4476L31.9432 59.2976C31.4896 58.6359 31.072 57.9503 30.6922 57.2436C30.303 56.5092 29.8688 55.7995 29.3922 55.1186C29.0088 54.4968 28.5213 53.9454 27.9512 53.4886C27.3515 52.9589 26.6301 52.5859 25.8512 52.4026C25.0878 52.4744 24.3756 52.8179 23.8442 53.3706C23.5236 53.7969 23.3274 54.3036 23.2772 54.8346C23.2724 55.0216 23.2302 55.2057 23.1531 55.3761C23.076 55.5464 22.9655 55.6996 22.8282 55.8266C22.4548 56.0089 22.057 56.1362 21.6472 56.2046C21.5292 56.2046 21.3162 56.2046 21.0092 56.2286H20.3712C19.5036 56.1705 18.6337 56.2995 17.8202 56.6066C17.25 57.2345 16.9298 58.0496 16.9202 58.8976C16.957 59.5425 17.0517 60.1827 17.2032 60.8106C17.3681 61.4917 17.4649 62.1874 17.4922 62.8876C17.4768 63.9169 17.1741 64.9213 16.6182 65.7876C16.1392 66.4753 15.8307 67.2671 15.7182 68.0976C15.9542 69.0136 17.5132 69.6586 20.3702 70.0366M28.2342 48.5696C28.3012 46.6525 28.7429 44.7671 29.5342 43.0196C30.1215 41.394 30.9756 39.8776 32.0612 38.5326C32.0142 38.2966 31.8962 38.2966 31.7072 38.2966L31.4712 38.0606C30.4086 39.5025 29.5661 41.0942 28.9712 42.7836C28.0931 44.5022 27.5788 46.3834 27.4602 48.3096C27.4465 49.2879 27.6995 50.2514 28.1922 51.0966C29.2655 52.4 30.5302 53.5332 31.9432 54.4576L34.4432 56.0876C37.1122 58.4016 38.5292 60.0076 38.5292 60.9526C38.5084 61.266 38.4115 61.5697 38.2468 61.8372C38.0821 62.1046 37.8547 62.3279 37.5842 62.4876C37.3857 62.7396 37.1354 62.9459 36.8502 63.0925C36.565 63.2392 36.2516 63.3228 35.9312 63.3376C35.8842 63.3376 35.8602 63.3846 35.8602 63.5026C35.8602 63.5266 36.0962 64.0026 36.5922 64.9196C37.5842 66.2656 39.7092 66.9266 42.5432 66.9266C44.962 66.9878 47.3569 66.4351 49.5043 65.3201C51.6517 64.2051 53.4816 62.5642 54.8232 60.5506C54.9224 59.8024 54.8415 59.0413 54.5872 58.3306V57.4576C54.5093 56.2656 54.7539 55.0745 55.2952 54.0096C55.4385 53.6879 55.6696 53.4131 55.962 53.2168C56.2544 53.0204 56.5962 52.9105 56.9482 52.8996C57.465 52.9115 57.9634 53.0943 58.3652 53.4196C58.5522 51.8208 58.631 50.2111 58.6012 48.6016C58.7008 46.7311 58.542 44.8558 58.1292 43.0286C57.9158 41.7953 57.5177 40.6012 56.9482 39.4866L55.5362 37.3576C55.0642 36.6496 54.8282 35.9406 54.3552 35.2326C54.0643 34.3151 53.9053 33.3609 53.8832 32.3986C53.1742 31.2156 52.7022 30.0346 51.9922 28.8576C51.5202 27.6766 51.0472 26.4956 50.5752 25.5516L48.4502 27.2046C46.0922 28.8576 44.2002 29.5576 42.5472 29.5576C41.1302 29.5576 39.9472 29.3216 39.2412 28.3766L37.8242 27.1956C37.7831 28.1039 37.5413 28.9919 37.1162 29.7956L35.6282 32.6296C35.1339 33.6837 34.7693 34.7938 34.5422 35.9356C34.5038 36.2571 34.4324 36.5738 34.3292 36.8806L32.5582 40.4226C30.842 43.3239 29.8535 46.5974 29.6772 49.9636C29.6785 50.5256 29.726 51.0865 29.8192 51.6406C29.3125 51.3094 28.9004 50.8524 28.6232 50.3143C28.3459 49.7763 28.2129 49.1755 28.2372 48.5706M45.1452 70.9146C42.7206 70.7937 40.2996 71.2174 38.0602 72.1546V72.0836C37.5591 72.7616 36.9034 73.3102 36.1478 73.684C35.3921 74.0577 34.5581 74.2458 33.7152 74.2326C31.8456 74.0688 30.013 73.6147 28.2832 72.8866C26.1222 72.1264 23.9221 71.4824 21.6922 70.9576C21.5032 70.9036 21.0782 70.8226 20.3922 70.7146C19.7312 70.6086 19.1172 70.4996 18.5742 70.3906C18.0055 70.2651 17.4453 70.1034 16.8972 69.9066C16.3825 69.7587 15.9013 69.5125 15.4802 69.1816C15.3303 69.0586 15.209 68.9045 15.1248 68.7299C15.0405 68.5553 14.9952 68.3645 14.9922 68.1706C15.0005 67.7549 15.0835 67.344 15.2372 66.9576C15.3882 66.6976 15.5532 66.4376 15.7192 66.2016C15.8745 65.9703 16.0084 65.7253 16.1192 65.4696C16.2528 65.2617 16.3638 65.0401 16.4502 64.8086C16.557 64.591 16.6362 64.3609 16.6862 64.1236C16.7406 63.8913 16.7721 63.6541 16.7802 63.4156C16.7802 63.1796 16.6862 62.4706 16.4972 61.2156C16.3598 60.4421 16.2653 59.6616 16.2142 58.8776C16.1555 57.9938 16.4246 57.1194 16.9702 56.4216C17.1462 56.17 17.3745 55.9593 17.6394 55.804C17.9043 55.6487 18.1996 55.5524 18.5052 55.5216H21.2212C21.5938 55.4705 21.9495 55.3336 22.2602 55.1216C22.4252 54.7436 22.5672 54.4366 22.6602 54.1536C22.7782 53.8706 22.8252 53.6536 22.8732 53.5636C22.9202 53.4216 22.9672 53.2806 23.0152 53.1636C23.1224 52.9703 23.2491 52.7883 23.3932 52.6206C23.1951 52.3556 23.0951 52.0301 23.1102 51.6996C23.0974 51.4858 23.1132 51.2713 23.1572 51.0616C23.2918 49.7697 23.7201 48.5257 24.4092 47.4246L25.2362 45.9366C25.8203 44.911 26.3484 43.8544 26.8182 42.7716C27.353 41.3877 27.7875 39.967 28.1182 38.5206C28.5992 36.6734 29.5232 34.9713 30.8102 33.5616L32.5812 31.4366C33.5581 30.3686 34.3918 29.1779 35.0612 27.8946C35.5009 26.9302 35.7342 25.8845 35.7462 24.8246C35.7462 24.3526 35.6282 22.9356 35.3682 20.5736C35.1322 18.2116 35.0142 15.8506 35.0142 13.7246C34.9843 12.3723 35.1353 11.022 35.4632 9.70962C35.7619 8.49856 36.3266 7.36922 37.1162 6.40362C37.8679 5.31517 38.9414 4.48924 40.1862 4.04162C41.7906 3.54174 43.465 3.3027 45.1452 3.33362C45.8617 3.29515 46.5796 3.37488 47.2702 3.56962C48.2497 3.63335 49.2098 3.87319 50.1042 4.27762C51.053 4.68737 51.9306 5.24534 52.7042 5.93062C53.6735 6.80009 54.4742 7.84081 55.0662 9.00062C55.6261 10.5287 56.022 12.1119 56.2472 13.7236C56.4832 14.9046 56.4832 16.0856 56.7192 17.7386C56.7192 19.1556 56.9552 20.1006 56.9552 20.8086C57.1912 21.5166 57.1912 22.4616 57.4272 23.6426C57.5974 24.5553 57.9167 25.4337 58.3722 26.2426C58.8338 27.2367 59.3872 28.1854 60.0252 29.0766C60.7332 30.2576 61.6782 31.4386 62.6252 32.8556C64.6636 35.053 66.2663 37.6174 67.3482 40.4126C68.6309 43.1363 69.2768 46.1163 69.2372 49.1266C69.2404 50.7355 69.0018 52.3357 68.5292 53.8736C68.7193 53.8651 68.9081 53.909 69.0748 54.0008C69.2415 54.0925 69.3797 54.2285 69.4742 54.3936C69.8316 55.0641 70.0711 55.791 70.1822 56.5426L70.4182 58.2906C70.6323 58.8918 71.0469 59.401 71.5922 59.7326C72.0714 60.1878 72.6322 60.5485 73.2452 60.7956C73.8357 61.0554 74.3911 61.3887 74.8982 61.7876C75.1104 61.9751 75.2826 62.2036 75.4042 62.4593C75.5259 62.715 75.5946 62.9927 75.6062 63.2756C75.6286 63.612 75.5768 63.9492 75.4545 64.2634C75.3321 64.5776 75.1422 64.861 74.8982 65.0936C74.4474 65.5733 73.8768 65.924 73.2452 66.1096C72.7732 66.3456 71.8282 66.8176 70.4112 67.4836C69.1604 68.232 67.9754 69.0854 66.8692 70.0346L64.5072 72.0446C63.7269 72.8121 62.8534 73.4786 61.9072 74.0286C61.1116 74.4661 60.2149 74.6861 59.3072 74.6666L57.6542 74.4776C56.846 74.3181 56.0852 73.9755 55.4301 73.4761C54.775 72.9766 54.243 72.3337 53.8752 71.5966C50.9771 71.2101 48.0601 70.9814 45.1372 70.9116" fill="black"/>
<path d="M85.4636 56.707V35.007H90.4856V52.615H101.367V56.707H85.4636ZM103.862 56.707V40.029H108.698V56.707H103.862ZM106.28 37.704C105.391 37.704 104.668 37.4457 104.11 36.929C103.552 36.4124 103.273 35.7717 103.273 35.007C103.273 34.2424 103.552 33.6017 104.11 33.085C104.668 32.5684 105.391 32.31 106.28 32.31C107.169 32.31 107.892 32.558 108.45 33.054C109.008 33.5294 109.287 34.1494 109.287 34.914C109.287 35.72 109.008 36.3917 108.45 36.929C107.913 37.4457 107.189 37.704 106.28 37.704ZM123.323 39.781C124.646 39.781 125.824 40.0497 126.857 40.587C127.911 41.1037 128.738 41.9097 129.337 43.005C129.936 44.0797 130.236 45.4644 130.236 47.159V56.707H125.4V47.903C125.4 46.5597 125.1 45.5677 124.501 44.927C123.922 44.2864 123.096 43.966 122.021 43.966C121.256 43.966 120.564 44.1314 119.944 44.462C119.345 44.772 118.869 45.2577 118.518 45.919C118.187 46.5804 118.022 47.4277 118.022 48.461V56.707H113.186V40.029H117.805V44.648L116.937 43.253C117.536 42.137 118.394 41.2794 119.51 40.68C120.626 40.0807 121.897 39.781 123.323 39.781ZM141.657 56.955C140.272 56.955 139.032 56.6864 137.937 56.149C136.862 55.6117 136.025 54.7954 135.426 53.7C134.826 52.584 134.527 51.1684 134.527 49.453V40.029H139.363V48.74C139.363 50.1247 139.652 51.1477 140.231 51.809C140.83 52.4497 141.667 52.77 142.742 52.77C143.486 52.77 144.147 52.615 144.726 52.305C145.304 51.9744 145.759 51.4784 146.09 50.817C146.42 50.135 146.586 49.2877 146.586 48.275V40.029H151.422V56.707H146.834V52.119L147.671 53.452C147.113 54.6094 146.286 55.4877 145.191 56.087C144.116 56.6657 142.938 56.955 141.657 56.955ZM153.794 56.707L161.265 46.911L161.172 49.577L154.011 40.029H159.436L163.962 46.26L161.916 46.322L166.597 40.029H171.743L164.551 49.484V46.88L171.991 56.707H166.504L161.761 50.073L163.776 50.352L159.064 56.707H153.794Z" fill="#333C5E"/>
</svg>
