<svg width="194" height="66" viewBox="0 0 194 66" fill="none" xmlns="http://www.w3.org/2000/svg">
<path d="M59.6322 18.0435C59.6322 12.909 59.6456 7.7725 59.6168 2.63604C59.6168 1.91057 59.757 1.64483 60.5477 1.65259C64.4786 1.69785 68.4107 1.69785 72.3442 1.65259C73.1484 1.64289 73.2731 1.92415 73.2712 2.6438C73.2495 12.5934 73.2495 22.5424 73.2712 32.4907C73.2712 33.1095 73.1657 33.4606 72.5035 33.6895C63.6014 36.7233 54.9585 40.3991 46.4653 44.4396C46.2015 44.5808 45.9106 44.6629 45.6125 44.6803C45.3144 44.6977 45.0161 44.65 44.7379 44.5405C39.0623 42.4921 36.3407 38.2285 35.6919 32.3685C35.4789 30.4288 35.5192 28.489 35.5173 26.5629C35.5173 18.5847 35.5173 10.6065 35.5 2.62634C35.5 1.89505 35.6459 1.64289 36.4309 1.65647C40.3618 1.70173 44.2939 1.70173 48.2273 1.65647C48.9951 1.65647 49.1659 1.88536 49.164 2.62634C49.1397 11.4444 49.1345 20.2625 49.1486 29.0807C49.1486 29.4686 49.1371 29.8566 49.164 30.2445C49.3655 33.1444 50.8319 34.7059 53.7455 34.9911C55.4352 35.1581 57.1404 35.0481 58.7954 34.6652C59.4287 34.5197 59.6571 34.2443 59.6533 33.5537C59.6188 28.3785 59.6322 23.211 59.6322 18.0435Z" fill="#65666A"/>
<path d="M14.6259 46.023C9.81402 45.9706 5.16148 45.1481 0.714303 43.2278C0.0137338 42.9271 -0.176283 42.675 0.165364 41.8991C1.41487 39.0767 2.59144 36.2175 3.76034 33.3642C3.98107 32.8249 4.14421 32.7221 4.70275 32.9956C7.8697 34.528 11.2036 35.4785 14.7621 35.4222C15.9349 35.4048 17.0443 35.1293 18.0116 34.4271C18.396 34.1616 18.7178 33.8136 18.954 33.4081C19.1902 33.0026 19.3351 32.5494 19.3784 32.0808C19.4216 31.6123 19.3622 31.1399 19.2042 30.6972C19.0463 30.2545 18.7938 29.8524 18.4646 29.5196C17.718 28.7301 16.7736 28.2587 15.7967 27.8475C13.409 26.8466 10.9119 26.127 8.59522 24.9379C6.75075 24.0354 5.0839 22.8017 3.67589 21.297C-0.533286 16.692 -0.600464 5.95355 8.27085 1.90917C11.3649 0.498973 14.6355 0.000456994 17.9809 0.015975C22.6277 0.0295532 27.1306 0.817092 31.4031 2.76654C32.1075 3.08854 32.2687 3.33683 31.9155 4.09139C30.7639 6.53935 29.6852 9.02029 28.6353 11.5129C28.3551 12.1782 28.1133 12.184 27.5298 11.8814C24.5452 10.3296 21.4147 9.40437 18.0212 10.0251C15.814 10.4286 14.6124 11.8678 14.7794 13.7727C14.8984 15.1305 15.7391 15.9782 16.8005 16.6707C18.2899 17.6405 19.9982 18.1197 21.6412 18.7346C23.4991 19.429 25.3436 20.1467 27.0749 21.134C31.5432 23.6848 33.6814 27.5352 33.3954 32.7279C33.1209 37.6898 30.8599 41.3656 26.453 43.639C23.7314 45.0434 20.7966 45.6234 17.7852 45.8736C16.7372 45.959 15.6796 45.9725 14.6259 46.023Z" fill="#65666A"/>
<path d="M148.309 31.3121C148.309 34.7688 148.292 38.2235 148.327 41.6801C148.327 42.3493 148.104 42.6306 147.501 42.8575C143.309 44.4345 138.954 45.1736 134.515 45.5208C131.491 45.7904 128.449 45.7826 125.427 45.4975C121.325 45.0649 117.421 44.0737 114.337 41.071C111.717 38.5183 110.655 35.2382 110.352 31.6768C110.16 29.4946 110.221 29.4635 112.34 28.837C115.768 27.8264 119.216 26.8779 122.64 25.8459C123.452 25.6015 123.569 25.8731 123.551 26.5888C123.523 27.8148 123.525 29.0446 123.576 30.2744C123.674 32.5827 125.112 34.2121 127.354 34.6175C129.235 34.9569 131.102 34.7455 132.974 34.5088C133.724 34.4138 133.977 34.0995 133.968 33.3217C133.926 30.158 133.968 26.9923 133.933 23.8266C133.933 23.1322 134.095 22.8102 134.812 22.6628C139.035 21.8248 143.252 20.9545 147.463 20.0519C148.187 19.8948 148.329 20.0519 148.323 20.7502C148.296 24.2708 148.309 27.7915 148.309 31.3121Z" fill="#9D9DA0"/>
<path d="M96.8693 0.00193975C100.708 0.062072 104.422 0.709949 107.856 2.59345C108.487 2.93872 108.549 3.22581 108.266 3.85428C107.067 6.52532 105.906 9.21381 104.762 11.9101C104.531 12.4532 104.361 12.5579 103.814 12.2301C101.963 11.1206 99.9096 10.8122 97.8059 11.0197C95.1495 11.2796 93.2359 12.7461 91.9979 15.0932C90.307 18.2977 90.1745 21.7601 90.4835 25.2788C90.5027 25.5038 90.5699 25.725 90.5738 25.948C90.5834 26.5804 91.1745 27.3059 90.7657 27.7636C90.3933 28.1749 89.5987 28.1923 88.9903 28.3844C85.4548 29.5068 81.9245 30.6299 78.3992 31.7537C78 31.8798 77.6526 32.1242 77.4856 31.4298C75.6161 23.7037 75.7486 16.1504 79.8445 9.12265C83.1305 3.49737 88.2897 0.688611 94.6678 0.110566C95.2436 0.0581925 95.8194 0.0329758 96.3952 0C96.5468 0.00193975 96.71 0.00193975 96.8693 0.00193975Z" fill="#65666A"/>
<path d="M192.643 29.4872C192.643 34.4277 192.628 39.3702 192.66 44.3107C192.66 45.1021 192.468 45.3543 191.658 45.3465C187.761 45.3039 183.861 45.3039 179.96 45.3465C179.192 45.3465 179 45.1215 179 44.367C179.023 34.8725 179.023 25.3775 179 15.8817C179 15.1582 179.167 14.9119 179.935 14.8323C183.677 14.4444 187.42 13.9866 191.15 13.5521C191.307 13.5346 191.47 13.5521 191.626 13.5133C192.405 13.3601 192.666 13.6316 192.658 14.4715C192.624 19.4742 192.643 24.4807 192.643 29.4872Z" fill="#9D9DA0"/>
<path d="M165.772 31.0687C165.772 35.4953 165.758 39.9218 165.787 44.3483C165.787 45.0796 165.639 45.355 164.845 45.3472C160.91 45.3046 156.975 45.3104 153.042 45.3472C152.327 45.3472 152.123 45.1533 152.125 44.422C152.151 36.2479 152.151 28.0731 152.125 19.8977C152.125 19.1897 152.34 18.9996 153.019 18.8852C156.858 18.2431 160.683 17.5274 164.515 16.8446C165.718 16.6292 165.772 16.6816 165.772 17.8881C165.774 22.281 165.774 26.6746 165.772 31.0687Z" fill="#9D9DA0"/>
<path d="M152.123 9.07011C152.123 7.45624 152.165 5.84043 152.104 4.22074C152.075 3.44484 152.296 3.08598 153.041 2.83188C157.609 1.28008 162.311 0.453744 167.106 0.145323C170.199 -0.0782601 173.305 -0.0211321 176.388 0.316021C177.816 0.4809 177.824 0.442105 177.518 1.81739C176.868 4.74059 176.196 7.65991 175.572 10.5889C175.426 11.2737 175.229 11.4289 174.505 11.2213C172.033 10.527 169.431 10.4465 166.922 10.9866C166.085 11.1553 165.565 11.4618 165.755 12.4414C165.925 13.3259 165.563 13.6363 164.645 13.7236C160.768 14.0902 156.901 14.5421 153.033 15.0077C152.323 15.093 152.073 14.9786 152.106 14.2008C152.164 12.4918 152.123 10.781 152.123 9.07011Z" fill="#65666A"/>
<path d="M109.895 12.1078C109.895 8.90912 109.914 5.70659 109.88 2.51182C109.88 1.82321 110.072 1.65057 110.743 1.65639C114.74 1.68613 118.737 1.68613 122.736 1.65639C123.39 1.65639 123.534 1.86976 123.532 2.48272C123.513 7.9761 123.513 13.4721 123.532 18.9706C123.532 19.603 123.3 19.7969 122.743 19.9114C118.805 20.7338 114.874 21.5447 110.945 22.4525C109.953 22.6813 109.864 22.3729 109.876 21.5214C109.92 18.3751 109.895 15.2424 109.895 12.1078Z" fill="#65666A"/>
<path d="M97.3815 45.7217C91.6234 45.7217 86.9977 44.232 83.111 40.6783C82.944 40.527 82.7828 40.3699 82.61 40.2283C82.1148 39.819 82.0553 39.5552 82.7597 39.274C87.1244 37.5398 91.5101 35.8639 95.9323 34.2888C96.2255 34.1679 96.5478 34.1389 96.8575 34.2054C99.2132 34.7659 101.692 34.4041 103.794 33.1928C104.339 32.8883 104.518 32.9756 104.754 33.5304C105.905 36.3301 107.081 39.1175 108.28 41.8926C108.543 42.4959 108.449 42.814 107.878 43.1282C105.541 44.4006 102.984 45.2066 100.345 45.5025C99.1645 45.6402 97.988 45.7566 97.3815 45.7217Z" fill="#9D9DA0"/>
<path d="M133.955 9.6636C133.955 7.27577 133.971 4.88794 133.955 2.50205C133.955 1.92012 134.02 1.64662 134.711 1.65243C138.99 1.68606 143.269 1.68606 147.548 1.65243C148.22 1.65243 148.325 1.90654 148.316 2.49623C148.297 6.59298 148.291 10.6917 148.316 14.7884C148.316 15.4285 148.145 15.6962 147.51 15.7835C143.221 16.3835 138.928 16.9991 134.631 17.6302C134.04 17.7194 133.94 17.5642 133.946 17.0191C133.974 14.5673 133.955 12.1154 133.955 9.6636Z" fill="#65666A"/>
<path d="M185.204 12.1136C183.699 12.1989 181.689 12.294 179.683 12.4433C179.179 12.4802 179.004 12.3813 179.008 11.8614C179.026 8.66857 179.026 5.4751 179.008 2.28098C179.008 1.81931 179.154 1.66995 179.611 1.67189C183.76 1.68612 187.911 1.68612 192.063 1.67189C192.543 1.67189 192.639 1.86587 192.639 2.30619C192.628 5.24297 192.618 8.17782 192.639 11.1146C192.639 11.6965 192.413 11.7993 191.91 11.8168C189.85 11.8808 187.779 11.9933 185.204 12.1136Z" fill="#63A946"/>
<path d="M103.33 62.3686C102.497 62.3686 101.837 62.3473 101.177 62.3686C100.764 62.3861 100.643 62.0931 100.474 61.8216C99.8639 60.8381 99.2094 59.8818 98.6527 58.8635C98.3399 58.2932 97.9042 58.1787 97.3821 58.299C96.8159 58.4309 97.1192 58.943 97.0981 59.2689C97.0578 60.0759 97.0578 60.8845 97.0981 61.6916C97.1153 62.1785 96.981 62.357 96.4608 62.3744C94.8025 62.4248 94.8025 62.4481 94.8025 60.8052C94.8025 58.0274 94.8198 55.2478 94.7891 52.4642C94.7891 51.8396 94.9426 51.6107 95.5837 51.6534C96.9829 51.7485 98.3936 51.5254 99.7852 51.8474C100.969 52.1248 101.845 52.7455 102.088 54.0102C102.351 55.3525 102.073 56.5571 100.849 57.3078C100.238 57.6783 100.353 57.944 100.683 58.4134C101.547 59.6626 102.369 60.9312 103.33 62.3686ZM97.0213 54.9393C97.3725 55.3971 96.4762 56.4116 97.789 56.398C99.2074 56.3806 99.8351 55.9752 99.8524 54.982C99.8696 53.9889 99.2055 53.5136 97.7315 53.5214C96.4935 53.5253 97.3706 54.5107 97.0213 54.9393Z" fill="#66AA49"/>
<path d="M65.8596 55.1113C66.8404 54.0367 67.9978 53.7263 69.2819 54.2462C70.5659 54.7661 71.04 55.9609 71.182 57.2625C71.2559 57.9361 71.2559 58.6159 71.182 59.2895C70.8481 62.2845 68.3702 63.4096 65.8462 61.6173C65.8462 62.8509 65.8136 64.0167 65.8596 65.1786C65.8865 65.811 65.6984 66.0205 65.0612 66.003C63.3146 65.9526 63.6005 66.1291 63.5929 64.492C63.5801 61.3961 63.5839 58.3003 63.6044 55.2044C63.6044 54.8611 63.305 54.2346 63.9883 54.2346C64.5909 54.2346 65.4719 53.7787 65.6696 54.9077C65.6792 54.9503 65.7464 54.9872 65.8596 55.1113ZM68.9306 58.0326C68.9181 57.698 68.8815 57.3648 68.8212 57.0356C68.6581 56.3023 68.2147 55.8116 67.4297 55.8252C66.6447 55.8387 66.1283 56.2247 65.9556 57.0588C65.7628 57.9434 65.7985 58.8633 66.0593 59.7299C66.2512 60.3506 66.7138 60.6396 67.3625 60.6629C67.6502 60.6949 67.9401 60.6268 68.1843 60.4699C68.4286 60.3129 68.6126 60.0766 68.7061 59.7997C68.9076 59.3109 68.9287 58.7988 68.9383 58.0326H68.9306Z" fill="#66AA49"/>
<path d="M8.55923 62.2246C6.74159 62.8066 5.65523 62.1315 4.97961 60.5351C4.71858 59.9202 4.22914 59.4062 3.93739 58.799C3.64565 58.1919 3.20803 58.2288 2.73203 58.2947C2.11399 58.382 2.41342 58.9018 2.38654 59.2277C2.33856 59.8096 2.37311 60.3916 2.37311 60.9735C2.37311 62.2983 1.71861 62.7561 0.442226 62.3643C0.133208 62.2673 0.148563 62.0733 0.148563 61.8483C0.148563 58.6516 0.148563 55.4536 0.148563 52.2543C0.148563 51.942 0.165837 51.6724 0.588098 51.6821C2.08328 51.7442 3.58999 51.5327 5.07942 51.8644C6.31165 52.1379 7.19072 52.811 7.43832 54.099C7.68592 55.387 7.35579 56.5761 6.18881 57.3054C5.613 57.6643 5.64755 57.9223 5.98536 58.4053C6.86251 59.6622 7.70127 60.9463 8.55923 62.2246ZM2.32896 54.9137C2.61111 55.42 1.80306 56.4655 3.17349 56.3996C4.58806 56.3336 5.20993 55.9224 5.19266 54.9079C5.17538 53.9497 4.51704 53.5346 3.08136 53.5132C1.85296 53.4977 2.59959 54.4462 2.32896 54.9137Z" fill="#63A946"/>
<path d="M36.2949 57.029C36.2949 55.4772 36.316 53.9254 36.2853 52.3736C36.2738 51.8285 36.4389 51.6365 36.9878 51.6578C38.1394 51.6986 39.291 51.6423 40.4427 51.6986C42.4772 51.7994 43.648 52.9633 43.7152 54.8817C43.7843 56.8505 42.5732 58.2433 40.5866 58.478C40.4906 58.4896 40.3947 58.4935 40.2987 58.5013C38.5866 58.6274 38.5866 58.6274 38.5866 60.3343C38.5664 60.5926 38.5664 60.852 38.5866 61.1102C38.7363 62.0801 38.4254 62.4467 37.3832 62.3944C36.5521 62.3517 36.2143 62.212 36.2719 61.2848C36.3602 59.8785 36.2949 58.4528 36.2949 57.029ZM38.5828 55.0563C38.6039 55.2801 38.6039 55.5055 38.5828 55.7294C38.3909 56.6992 38.9302 56.8079 39.6692 56.6895C39.8265 56.6643 39.982 56.6352 40.1356 56.5964C41.0952 56.352 41.5521 55.6712 41.3774 54.7537C41.2027 53.8362 40.4177 53.3629 39.1183 53.5239C38.103 53.65 38.7997 54.4937 38.5905 54.9593C38.5822 54.9909 38.5796 55.0237 38.5828 55.0563Z" fill="#66AA49"/>
<path d="M186.372 59.6975C186.91 58.0739 187.443 56.7006 187.812 55.2826C188.042 54.3884 188.451 54.0509 189.334 54.1906C189.751 54.2203 190.17 54.2203 190.587 54.1906C190.24 55.1255 189.933 55.9635 189.628 56.7995C188.793 59.0302 187.979 61.261 187.111 63.4858C186.401 65.3015 184.912 66.1627 183.219 65.9435C182.326 65.8271 182.643 65.2161 182.572 64.7331C182.486 64.0949 182.862 64.1105 183.328 64.1066C184.787 64.093 185.553 62.8981 185.012 61.5325C184.148 59.3859 183.287 57.2392 182.428 55.0926C182.325 54.8287 182.152 54.5824 182.194 54.274C184.476 54.0276 184.476 54.0276 185.186 56.1614C185.551 57.2476 185.914 58.3416 186.372 59.6975Z" fill="#66AA49"/>
<path d="M133.585 62.5381C132.701 62.5359 131.823 62.4052 130.976 62.1502C130.535 62.0163 130.306 61.8049 130.301 61.2715C130.285 59.7953 130.255 59.7934 131.625 60.255C132.393 60.513 133.16 60.7109 133.972 60.5906C134.466 60.5169 134.899 60.3113 135.032 59.7546C135.164 59.1979 134.871 58.8022 134.439 58.5461C133.696 58.1097 132.903 57.745 132.164 57.3144C131.268 56.7965 130.608 56.0768 130.491 54.9867C130.299 53.2409 131.128 52.0771 132.834 51.6581C134.195 51.3206 135.487 51.5921 136.767 52.0712C137.178 52.2264 137.191 52.4068 137.051 52.7889C136.612 54.0013 136.631 54.0052 135.45 53.6638C134.994 53.5157 134.519 53.4391 134.04 53.4368C133.464 53.4504 132.94 53.5493 132.755 54.203C132.571 54.8567 132.93 55.2485 133.441 55.5356C134.304 56.0206 135.214 56.4337 136.034 56.9807C137.21 57.7566 137.608 59.1533 137.124 60.4723C136.74 61.5023 135.94 62.0513 134.938 62.3189C134.492 62.4205 134.04 62.4937 133.585 62.5381Z" fill="#66AA49"/>
<path d="M23.3821 61.2997C22.3438 62.4112 21.171 62.7526 19.8217 62.3996C18.7757 62.128 18.219 61.4006 18.0943 60.2212C17.983 59.1 18.4494 58.2097 19.4186 57.7674C20.3111 57.3601 21.2689 57.3232 22.2305 57.2902C22.576 57.2902 23.1729 57.5482 23.1595 56.8305C23.1595 56.2738 22.8889 55.8335 22.2727 55.7443C21.5717 55.6412 20.8561 55.7442 20.2113 56.041C19.267 56.4756 19.3323 55.5949 19.0789 55.1876C18.7315 54.625 19.2709 54.5474 19.5991 54.4291C20.8291 53.9461 22.1788 53.8687 23.4551 54.208C24.6777 54.5513 25.2977 55.2787 25.3495 56.5628C25.4147 58.2058 25.4071 59.8604 25.3956 61.4995C25.3956 61.7943 25.6355 62.3297 25.0789 62.3355C24.5779 62.3355 23.8888 62.7138 23.6221 61.8739C23.5798 61.7265 23.505 61.5868 23.3821 61.2997ZM22.3514 58.6345C21.029 58.6888 20.3649 59.1291 20.4071 59.9361C20.4455 60.6984 20.9561 60.871 21.6125 60.838C21.829 60.8391 22.0434 60.795 22.2424 60.7086C22.4413 60.6223 22.6206 60.4955 22.7689 60.3361C22.9173 60.1767 23.0316 59.9881 23.1047 59.7821C23.1779 59.5762 23.2083 59.3572 23.194 59.1388C23.1844 58.3998 22.672 58.683 22.3514 58.6364V58.6345Z" fill="#66AA49"/>
<path d="M120.106 59.2249C120.106 59.9678 120.135 60.7127 120.093 61.4537C120.075 61.7737 120.363 62.3421 119.718 62.344C119.212 62.344 118.517 62.6835 118.294 61.828C118.137 61.2287 117.897 61.4265 117.596 61.7252C116.849 62.4643 115.907 62.6098 114.926 62.5011C113.682 62.3615 112.933 61.5662 112.826 60.3674C112.695 58.8951 113.158 58.1076 114.423 57.6518C115.25 57.3492 116.11 57.3375 116.974 57.3026C117.292 57.289 117.82 57.5392 117.832 56.8739C117.841 56.3366 117.64 55.904 117.079 55.7838C116.352 55.6315 115.595 55.7234 114.924 56.0456C113.918 56.4976 113.991 55.5607 113.741 55.1281C113.386 54.5132 114.049 54.5462 114.331 54.4356C115.499 53.9722 116.78 53.8828 118.001 54.1796C119.379 54.5249 120.025 55.3435 120.091 56.8138C120.127 57.6188 120.091 58.4277 120.091 59.2346L120.106 59.2249ZM116.187 60.8388C117.252 60.8388 117.96 60.0726 117.843 59.0581C117.814 58.804 117.774 58.61 117.473 58.6236C116.872 58.6507 116.258 58.5964 115.697 58.8932C115.137 59.19 115.035 59.6575 115.15 60.2064C115.265 60.7554 115.709 60.8446 116.187 60.8388Z" fill="#66AA49"/>
<path d="M160.958 61.4142C159.972 62.4287 158.803 62.7313 157.458 62.4016C156.454 62.1552 155.801 61.5287 155.638 60.5161C155.321 58.5647 155.557 56.592 155.5 54.627C155.5 54.2798 155.701 54.2294 155.993 54.1945C157.667 53.9908 157.745 54.0568 157.747 55.7579C157.747 56.8869 157.72 58.0158 157.768 59.1428C157.801 59.9187 157.983 60.6383 158.98 60.6946C159.91 60.7431 160.458 60.3571 160.671 59.3659C160.974 57.9654 160.791 56.5377 160.793 55.1236C160.793 54.4486 160.897 54.1537 161.667 54.1848C163.365 54.2701 163.066 54.0102 163.081 55.628C163.099 57.5677 163.099 59.5029 163.081 61.4336C163.081 61.775 163.363 62.3919 162.638 62.3531C162.087 62.324 161.275 62.7507 161.154 61.6858C161.135 61.6024 161.041 61.5326 160.958 61.4142Z" fill="#66AA49"/>
<path d="M57.7697 54.0274C60.2649 54.0158 61.7889 55.6277 61.8004 58.2696C61.8004 60.8805 60.3187 62.5022 57.8907 62.5274C55.4627 62.5526 53.9022 60.9174 53.8907 58.2599C53.8792 55.6025 55.2918 54.0371 57.7697 54.0274ZM59.4972 58.1707C59.5057 57.7475 59.4407 57.326 59.3052 56.9254C59.0442 56.0816 58.43 55.7771 57.6162 55.8566C56.7102 55.9458 56.2861 56.5258 56.1959 57.7071C56.0673 59.4005 56.4243 60.3646 57.2765 60.6167C57.3684 60.6401 57.4622 60.6557 57.5567 60.6633C58.8657 60.8204 59.4972 60.0406 59.4972 58.1707Z" fill="#66AA49"/>
<path d="M49.9857 58.8585C49.3158 58.8585 48.6421 58.8915 47.9742 58.8488C47.3063 58.8061 47.264 59.1281 47.4445 59.6111C47.5549 59.9514 47.7663 60.2492 48.0499 60.464C48.3335 60.6788 48.6756 60.8002 49.0299 60.8118C49.7643 60.8523 50.5001 60.7671 51.2064 60.5597C51.4886 60.4859 51.9262 60.0243 52.0529 60.5092C52.1795 60.9942 52.4252 61.7371 51.8379 62.0067C51.1019 62.3682 50.2964 62.5621 49.4782 62.5745C48.6601 62.5869 47.8492 62.4175 47.1028 62.0785C45.79 61.4966 45.1412 60.3676 45.0779 58.9283C45.0303 58.2848 45.056 57.6378 45.1547 57.0002C45.5692 54.8238 47.5193 53.6289 49.8053 54.0906C51.7381 54.4785 52.907 56.3349 52.5845 58.4201C52.5193 58.841 52.3024 58.8546 51.9991 58.8546C51.3273 58.8546 50.6575 58.8566 49.9857 58.8585ZM48.8629 57.328C49.0216 57.3475 49.1821 57.3475 49.3408 57.328C49.7016 57.2349 50.3005 57.6229 50.3926 57.072C50.4847 56.5211 50.1335 56.0206 49.5673 55.7801C48.9166 55.5047 48.3043 55.5861 47.8091 56.1041C47.5423 56.3814 47.3005 56.7655 47.4406 57.1496C47.5807 57.5336 47.9992 57.2795 48.2909 57.328C48.4813 57.3436 48.6725 57.3436 48.8629 57.328Z" fill="#66AA49"/>
<path d="M145.542 60.2698C145.782 61.9981 145.688 62.1378 144.114 62.4035C143.769 62.4709 143.419 62.5124 143.068 62.5276C141.464 62.547 139.951 62.2444 139.112 60.6868C138.245 59.0749 138.295 57.3737 139.147 55.7657C139.974 54.2022 142.11 53.5854 143.963 54.2779C145.498 54.8482 146.345 56.5862 146.074 58.4251C145.999 58.9313 145.7 58.8576 145.393 58.8596C144.114 58.8596 142.832 58.8945 141.554 58.8479C140.786 58.8208 140.755 59.1214 141.007 59.7053C141.322 60.4444 141.89 60.7605 142.654 60.8245C143.663 60.9099 144.6 60.5782 145.542 60.2698ZM142.377 57.3272C142.536 57.3496 142.697 57.3496 142.855 57.3272C143.208 57.2185 143.796 57.6492 143.894 57.0479C143.986 56.4795 143.633 56.0023 143.064 55.7715C142.408 55.5058 141.805 55.593 141.316 56.1284C141.053 56.4174 140.809 56.8112 140.947 57.172C141.086 57.5328 141.508 57.2903 141.803 57.3291C141.994 57.3411 142.186 57.3404 142.377 57.3272Z" fill="#66AA49"/>
<path d="M84.1763 60.2495C84.2953 62.1446 84.2953 62.1485 82.5371 62.4298C82.1915 62.4895 81.8417 62.5213 81.4911 62.5248C79.8788 62.5151 78.3932 62.1369 77.6293 60.5424C77.2297 59.7638 77.0415 58.892 77.084 58.0159C77.1265 57.1398 77.3981 56.2907 77.8712 55.5553C78.7694 54.0947 80.9249 53.5923 82.6696 54.3274C84.1264 54.9385 84.9613 56.7153 84.66 58.4436C84.5717 58.9518 84.2531 58.8509 83.9575 58.8529C82.6811 58.8529 81.4047 58.8897 80.1303 58.8529C79.3625 58.8257 79.3433 59.1322 79.589 59.7122C79.9038 60.4493 80.47 60.7655 81.232 60.8295C82.2512 60.909 83.1859 60.587 84.1763 60.2495ZM80.994 57.3263C81.153 57.3409 81.3129 57.3409 81.4719 57.3263C81.8174 57.2584 82.351 57.5571 82.4757 57.111C82.6254 56.5853 82.2953 56.0984 81.8078 55.8404C81.1571 55.4952 80.5045 55.5281 79.9575 56.0752C79.6562 56.3758 79.3913 56.7948 79.5468 57.1905C79.6638 57.4892 80.1226 57.2972 80.4182 57.3282C80.6101 57.3418 80.802 57.3263 80.994 57.3263Z" fill="#66AA49"/>
<path d="M111.022 60.2449C111.183 62.1013 111.153 62.144 109.423 62.4252C109.106 62.4826 108.785 62.5157 108.463 62.5241C106.893 62.5241 105.412 62.2293 104.581 60.7202C103.677 59.0792 103.738 57.347 104.617 55.7156C105.456 54.1638 107.619 53.5819 109.452 54.2919C110.957 54.8738 111.867 56.767 111.517 58.472C111.414 58.9783 111.076 58.8464 110.79 58.8503C109.51 58.8619 108.231 58.8813 106.951 58.8503C106.258 58.8309 106.195 59.1141 106.421 59.6611C106.545 59.9968 106.765 60.2873 107.054 60.4949C107.343 60.7024 107.687 60.8174 108.041 60.8249C109.062 60.9083 110.009 60.6174 111.022 60.2449ZM107.855 57.3256C108.014 57.3402 108.174 57.3402 108.333 57.3256C108.678 57.2577 109.216 57.5564 109.341 57.1142C109.488 56.5905 109.149 56.1016 108.669 55.8398C108.018 55.4926 107.362 55.5294 106.815 56.0687C106.513 56.3654 106.25 56.7922 106.408 57.1898C106.527 57.4905 106.984 57.2946 107.279 57.3276C107.469 57.3431 107.663 57.3256 107.855 57.3256Z" fill="#66AA49"/>
<path d="M16.2999 60.2507C16.4726 62.1148 16.4496 62.1361 14.7644 62.4309C13.9128 62.5871 13.0386 62.5639 12.1962 62.3631C10.8066 62.0197 9.86998 61.1682 9.50914 59.7638C9.21377 58.6644 9.25189 57.5008 9.61854 56.4235C10.2711 54.5032 12.2346 53.6051 14.417 54.1792C16.5993 54.7534 16.9812 56.7455 16.8891 58.4467C16.8603 58.9646 16.486 58.8502 16.1905 58.854C14.9122 58.854 13.6319 58.8909 12.3517 58.854C11.5686 58.8249 11.5648 59.2148 11.797 59.7386C12.1118 60.4505 12.6895 60.7899 13.465 60.8326C14.4342 60.8733 15.3574 60.627 16.2999 60.2507ZM13.2461 57.3255C13.3737 57.3393 13.5024 57.3393 13.63 57.3255C14.0005 57.2441 14.6166 57.5874 14.701 57.0908C14.7989 56.5186 14.4285 55.9929 13.8124 55.7504C13.5634 55.6373 13.2885 55.5955 13.0177 55.6298C12.7469 55.664 12.4906 55.7728 12.2769 55.9444C11.9083 56.2315 11.6281 56.6641 11.7567 57.1083C11.8853 57.5525 12.3613 57.2499 12.6761 57.3139C12.8653 57.3361 13.0562 57.34 13.2461 57.3255Z" fill="#66AA49"/>
<path d="M176.969 58.2304C176.969 57.6814 176.969 57.1305 176.969 56.5816C176.969 56.2053 176.981 55.8503 176.445 55.8891C176.163 55.9085 175.935 55.8367 175.94 55.4759C175.94 55.1869 175.889 54.861 176.228 54.7252C177.025 54.4091 177.391 53.767 177.572 52.9795C177.75 52.2249 178.34 52.4771 178.817 52.4635C179.426 52.446 179.255 52.9601 179.201 53.2394C179.027 54.2636 179.645 54.1937 180.328 54.219C180.785 54.2364 181.53 53.8019 181.539 54.8862C181.539 55.6777 181.347 55.9376 180.535 55.9124C179.019 55.8639 179.24 55.6835 179.221 57.2275C179.212 57.9711 179.212 58.714 179.221 59.4563C179.234 60.5038 179.51 60.7171 180.564 60.6841C180.902 60.6841 181.508 60.174 181.556 61.0508C181.593 61.7161 181.65 62.3465 180.689 62.4086C180.113 62.4493 179.537 62.5715 178.973 62.4823C177.708 62.2883 177.079 61.5745 176.967 60.1546C176.917 59.5125 176.967 58.8627 176.967 58.2148L176.969 58.2304Z" fill="#66AA49"/>
<path d="M153.647 60.0732C153.803 62.1177 153.576 62.4125 151.684 62.5095C150.192 62.5871 148.722 62.4048 147.96 60.9015C147.062 59.1344 147.041 57.2567 148.114 55.5555C149.104 53.9824 150.737 53.9126 152.388 54.093C152.546 54.1185 152.702 54.1555 152.855 54.2035C153.213 54.3024 153.764 54.2966 153.814 54.6729C153.887 55.1598 153.586 55.6583 153.315 56.0909C153.123 56.3819 152.849 56.153 152.624 56.0909C151.714 55.8348 150.793 55.5613 150.091 56.4924C149.49 57.2858 149.515 59.34 150.104 60.0926C150.762 60.9209 151.651 60.7017 152.494 60.5329C152.864 60.4592 153.204 60.2555 153.647 60.0732Z" fill="#66AA49"/>
<path d="M29.9288 56.7333C29.9288 58.3471 29.9 59.963 29.9441 61.5826C29.9595 62.2189 29.7694 62.4711 29.1418 62.3818C28.9197 62.3498 28.6941 62.3498 28.472 62.3818C27.8654 62.4614 27.6428 62.2577 27.6485 61.5962C27.6805 58.3038 27.6805 55.0121 27.6485 51.721C27.6485 51.1293 27.8136 50.8791 28.4067 50.9586C28.5977 50.986 28.7915 50.986 28.9825 50.9586C29.7234 50.8442 29.9767 51.1158 29.9422 51.9014C29.8846 53.5055 29.9288 55.1194 29.9288 56.7333Z" fill="#66AA49"/>
<path d="M167.443 55.5367C168.21 54.5921 168.978 54.0043 170.064 54.0198C170.552 54.0198 170.786 54.1537 170.667 54.6949C170.609 54.9806 170.589 55.2727 170.606 55.5639C170.625 56.0217 170.444 56.1458 169.988 56.1613C168.183 56.237 167.671 56.7976 167.663 58.5938C167.663 59.5947 167.636 60.5956 167.673 61.5946C167.696 62.1629 167.554 62.4674 166.938 62.3705C166.906 62.3685 166.874 62.3685 166.842 62.3705C165.406 62.3937 165.406 62.3937 165.406 60.9777C165.406 59.038 165.389 57.0982 165.422 55.1585C165.422 54.8268 165.101 54.2119 165.832 54.2099C166.408 54.2099 167.176 53.8782 167.291 54.9082C167.33 55.1203 167.381 55.3301 167.443 55.5367Z" fill="#66AA49"/>
<path d="M75.2971 56.6422C75.2971 58.2852 75.2683 59.9301 75.3105 61.5711C75.3278 62.2093 75.1301 62.4518 74.5063 62.3722C74.2204 62.3432 73.9323 62.3432 73.6464 62.3722C73.2395 62.4052 73.084 62.2539 73.086 61.8272C73.0975 58.4119 73.0975 54.996 73.086 51.5795C73.086 51.1333 73.2088 50.9083 73.681 50.9568C73.9034 50.984 74.1283 50.984 74.3508 50.9568C75.0994 50.8443 75.3431 51.1372 75.3105 51.9092C75.2568 53.4804 75.2971 55.0613 75.2971 56.6422Z" fill="#63A946"/>
<path d="M124.571 56.698C124.571 58.3391 124.546 59.982 124.585 61.6231C124.598 62.2205 124.41 62.5115 123.838 62.3524C123.347 62.2166 122.431 62.8315 122.41 61.8597C122.335 58.4167 122.383 54.9697 122.375 51.5228C122.375 51.1193 122.515 50.9292 122.932 50.9544C123.251 50.9818 123.572 50.9818 123.892 50.9544C124.454 50.8924 124.592 51.1484 124.585 51.678C124.571 53.3461 124.571 55.0221 124.571 56.698Z" fill="#63A946"/>
<path d="M174.432 58.3541C174.432 59.4461 174.397 60.5421 174.447 61.6342C174.476 62.251 174.255 62.4566 173.679 62.3655C173.648 62.3635 173.616 62.3635 173.585 62.3655C171.858 62.3364 172.174 62.575 172.157 60.9669C172.138 59.0058 172.188 57.0409 172.134 55.0798C172.113 54.333 172.353 54.1584 173.052 54.1817C174.424 54.2243 174.424 54.1817 174.424 55.555C174.433 56.488 174.432 57.4172 174.432 58.3541Z" fill="#66AA49"/>
<path d="M194.003 61.2983C194.003 62.0568 193.521 62.5397 192.745 62.5533C191.97 62.5669 191.461 62.1149 191.438 61.3565C191.415 60.536 191.909 60.0375 192.734 60.0511C193.513 60.0685 194.003 60.5496 194.003 61.2983Z" fill="#66AA49"/>
<path d="M87.4904 60.0554C88.2715 60.0787 88.7111 60.5443 88.6976 61.3376C88.6842 62.131 88.2178 62.5635 87.4289 62.5577C86.6094 62.5577 86.1295 62.0476 86.166 61.229C86.2006 60.4686 86.6919 60.0341 87.4904 60.0554Z" fill="#66AA49"/>
<path d="M174.518 52.098C174.499 52.8739 174.004 53.2036 173.273 53.1823C172.603 53.1629 172.121 52.8874 172.109 52.0883C172.109 51.2328 172.624 50.9632 173.342 50.9729C174.023 50.9826 174.511 51.2755 174.518 52.098Z" fill="#66AA49"/>
</svg>
