<svg width="73" height="124" viewBox="0 0 73 124" fill="none" xmlns="http://www.w3.org/2000/svg">
<g clip-path="url(#clip0_9_84213)">
<path d="M67.5693 47.0188L71.5103 49.3137C71.2635 49.2003 70.9914 49.1542 70.7213 49.18C70.4513 49.2057 70.1927 49.3026 69.9714 49.4607L46.7832 62.9529C46.0518 63.4794 45.4534 64.1718 45.0362 64.9742C44.6189 65.7766 44.3946 66.6664 44.3811 67.5722V89.0672C44.3475 89.4197 44.3963 89.7753 44.5239 90.1053C44.6515 90.4354 44.8541 90.7306 45.1156 90.9673L41.2408 88.7143C40.9452 88.489 40.7131 88.1898 40.5675 87.8464C40.422 87.5029 40.3679 87.127 40.4108 86.756V65.262C40.424 64.3561 40.6478 63.4659 41.0644 62.6629C41.4809 61.86 42.0784 61.1668 42.8091 60.6388L65.9972 47.1514C66.2225 46.9872 66.4879 46.8881 66.7649 46.8647C67.042 46.8414 67.3201 46.8946 67.5693 47.0188Z" fill="#005BEA"/>
<path d="M65.6181 13.6522V35.1462C65.6039 36.052 65.3796 36.9418 64.9632 37.7446C64.5468 38.5474 63.9497 39.2408 63.2198 39.7694L13.7543 68.5479C13.5282 68.7105 13.2625 68.808 12.9856 68.8302C12.7087 68.8524 12.431 68.7984 12.1823 68.6739C11.8867 68.4495 11.6545 68.151 11.5089 67.8081C11.3633 67.4652 11.3093 67.0899 11.3522 66.7194V45.2245C11.3662 44.3182 11.5907 43.4279 12.0079 42.625C12.4251 41.8221 13.0232 41.129 13.7543 40.6012L63.2198 11.8227C63.4404 11.6647 63.6984 11.5679 63.9678 11.5421C64.2373 11.5163 64.5088 11.5624 64.7549 11.6758C65.0621 11.8963 65.3045 12.1964 65.4564 12.5443C65.6083 12.8922 65.6642 13.2749 65.6181 13.6522ZM26.9687 51.9444C28.2345 51.1128 29.2878 49.992 30.043 48.6731C30.7982 47.3541 31.2339 45.8742 31.3148 44.3536C31.3148 41.5627 29.3718 40.4277 26.9687 41.8279C25.7031 42.6587 24.65 43.7788 23.895 45.0971C23.1399 46.4154 22.7043 47.8948 22.6235 49.4148C22.6254 52.2095 24.5685 53.3398 26.9687 51.9444Z" fill="white"/>
<path d="M60.817 9.3812L64.7542 11.6762C64.508 11.5628 64.2366 11.5167 63.9671 11.5425C63.6976 11.5683 63.4397 11.665 63.2191 11.8231L13.7536 40.6016C13.0225 41.1294 12.4243 41.8225 12.0072 42.6254C11.59 43.4283 11.3654 44.3186 11.3515 45.2248V66.7189C11.3085 67.0893 11.3626 67.4647 11.5082 67.8075C11.6538 68.1504 11.886 68.4488 12.1815 68.6732L8.21115 66.3621C7.91598 66.1364 7.68423 65.8372 7.53869 65.4938C7.39314 65.1505 7.33884 64.7748 7.38113 64.4039V42.9146C7.39434 42.0087 7.61818 41.1185 8.0347 40.3155C8.45123 39.5126 9.04881 38.8194 9.77944 38.2914L59.2449 9.51289C59.4706 9.34965 59.736 9.25115 60.0129 9.22797C60.2897 9.20479 60.5676 9.25773 60.817 9.3812Z" fill="#005BEA"/>
<path d="M61.8204 64.1836V72.1816L54.9473 76.1791V68.1802L61.8204 64.1836Z" fill="#005BEA"/>
<path d="M32.5828 74.4468V95.9409C32.5701 96.8469 32.3464 97.7372 31.9298 98.5402C31.5133 99.3432 30.9154 100.036 30.1845 100.564L6.99635 114.056C6.77053 114.218 6.50553 114.315 6.22944 114.337C5.95334 114.359 5.67646 114.306 5.42809 114.182L5.33344 114.123C5.07099 113.888 4.86756 113.594 4.73989 113.264C4.61221 112.935 4.56393 112.58 4.59899 112.228V90.7337C4.61183 89.8277 4.83552 88.9374 5.25208 88.1344C5.66863 87.3314 6.26641 86.6382 6.9973 86.1105L30.1854 72.6183C30.4014 72.4652 30.6524 72.3699 30.915 72.3412C31.1775 72.3125 31.443 72.3514 31.6865 72.4543L31.7528 72.4925C32.0491 72.7162 32.2817 73.0145 32.4274 73.3576C32.5731 73.7006 32.6267 74.0763 32.5828 74.4468ZM22.6574 93.8862L18.5876 88.7354L14.5178 98.6163L22.6574 93.8862Z" fill="white"/>
<path d="M31.7538 72.4913L31.6875 72.4531C31.7117 72.4618 31.7341 72.4747 31.7538 72.4913Z" fill="white"/>
<path d="M27.7841 70.1774L31.6873 72.4513C31.4437 72.3484 31.1782 72.3096 30.9157 72.3382C30.6532 72.3669 30.4022 72.4623 30.1862 72.6154L6.99805 86.1075C6.2671 86.6352 5.66927 87.3284 5.25271 88.1314C4.83615 88.9344 4.6125 89.8248 4.59974 90.7309V112.225C4.56467 112.577 4.61296 112.932 4.74063 113.262C4.86831 113.591 5.07174 113.885 5.33419 114.12L1.45372 111.867C1.15814 111.643 0.926009 111.344 0.78039 111.001C0.634771 110.659 0.580757 110.283 0.623697 109.913V88.414C0.637939 87.5089 0.862249 86.6197 1.27872 85.8177C1.69518 85.0157 2.29224 84.3232 3.02201 83.7955L26.2101 70.3033C26.4365 70.1404 26.7025 70.0426 26.9798 70.0205C27.2571 69.9983 27.5351 70.0526 27.7841 70.1774Z" fill="#005BEA"/>
<path d="M31.3153 44.3562C31.2346 45.8767 30.799 47.3566 30.044 48.6755C29.289 49.9945 28.2359 51.1152 26.9702 51.9468C24.5681 53.3423 22.625 52.212 22.625 49.4163C22.7057 47.8963 23.1413 46.417 23.8964 45.0986C24.6514 43.7803 25.7046 42.6602 26.9702 41.8294C29.3723 40.4311 31.3153 41.5653 31.3153 44.3562Z" fill="white"/>
<path d="M18.5915 88.7344L22.6612 93.8851L14.5293 98.6181L18.5915 88.7344Z" fill="white"/>
<path d="M12.7991 69.4689C12.4716 69.4706 12.1496 69.3836 11.8668 69.2171C11.4761 68.938 11.1654 68.5601 10.966 68.1213C10.7666 67.6825 10.6855 67.1984 10.7311 66.718V45.2241C10.744 44.2072 10.997 43.2081 11.469 42.3093C11.941 41.4105 12.6185 40.6378 13.4455 40.0551L62.9119 11.2767C63.2241 11.0627 63.5868 10.9354 63.9634 10.908C64.34 10.8805 64.7171 10.9538 65.0566 11.1202C65.4647 11.393 65.7913 11.7728 66.0013 12.2187C66.2112 12.6646 66.2966 13.1597 66.2482 13.6509V35.1457C66.2353 36.1619 65.9829 37.1605 65.5118 38.0591C65.0406 38.9576 64.3643 39.7304 63.5385 40.3137L14.0711 69.0932C13.6873 69.329 13.2485 69.4586 12.7991 69.4689ZM64.1745 12.161C63.9472 12.1755 63.7271 12.2466 63.5338 12.3679L14.0673 41.1464C13.4324 41.6193 12.9137 42.2331 12.5514 42.9401C12.1891 43.6471 11.9927 44.4285 11.9776 45.2241V66.718C11.9431 66.9773 11.972 67.2412 12.062 67.4866C12.1519 67.732 12.3 67.9515 12.4934 68.1259C12.6492 68.1854 12.8172 68.2051 12.9823 68.1831C13.1475 68.1611 13.3047 68.0983 13.4398 68.0001L62.9053 39.2225C63.5386 38.7484 64.0555 38.1343 64.4165 37.4274C64.7775 36.7205 64.9728 35.9396 64.9875 35.1448V13.6498C65.0241 13.3871 64.9944 13.1193 64.9011 12.8712C64.8078 12.6231 64.6539 12.4028 64.4537 12.2306C64.3675 12.1855 64.2715 12.1628 64.1745 12.1647V12.161Z" fill="#005BEA"/>
<path d="M6.04664 114.974C5.72085 114.975 5.4005 114.89 5.11818 114.726C5.09749 114.714 5.07756 114.701 5.05854 114.687C5.02894 114.672 5.00048 114.654 4.97336 114.635C4.62692 114.344 4.35528 113.973 4.18146 113.553C4.00764 113.134 3.93678 112.678 3.97486 112.225V90.7308C3.98603 89.7138 4.23789 88.7142 4.70951 87.815C5.18113 86.9158 5.85888 86.1431 6.68644 85.5611L29.8746 72.0698C30.175 71.8677 30.5204 71.7438 30.88 71.7092C31.2396 71.6746 31.602 71.7303 31.935 71.8714C31.9932 71.8951 32.0484 71.9255 32.0997 71.962C32.482 72.2431 32.7854 72.6195 32.9802 73.0542C33.1749 73.4889 33.2544 73.9671 33.2108 74.4421V95.936C33.1996 96.953 32.9478 97.9526 32.4762 98.8518C32.0045 99.751 31.3268 100.524 30.4992 101.106L7.31015 114.6C6.92875 114.834 6.49304 114.963 6.04664 114.974ZM5.70498 113.614L5.74094 113.633C5.89636 113.694 6.06476 113.715 6.23031 113.693C6.39587 113.671 6.55315 113.607 6.6874 113.507L29.8755 100.016C30.5098 99.5425 31.0275 98.9286 31.3886 98.2215C31.7496 97.5144 31.9444 96.7331 31.9577 95.938V74.443C31.993 74.1846 31.9648 73.9213 31.8757 73.6764C31.7866 73.4315 31.6393 73.2122 31.4466 73.038L31.4145 73.0189H31.4088C31.2567 72.9688 31.0949 72.9557 30.9368 72.9807C30.7787 73.0057 30.6288 73.0682 30.4992 73.1629L7.31111 86.6551C6.6768 87.1281 6.15906 87.742 5.79799 88.4491C5.43691 89.1563 5.24218 89.9377 5.22889 90.7328V112.227C5.20153 112.478 5.22978 112.732 5.31162 112.97C5.39345 113.209 5.52682 113.427 5.70212 113.607L5.70498 113.614Z" fill="#005BEA"/>
<path d="M45.8335 91.8241C45.5071 91.8257 45.1861 91.7402 44.9032 91.5761C44.8825 91.5646 44.8626 91.5519 44.8435 91.538C44.8105 91.5222 44.7789 91.5037 44.7489 91.4827C44.4054 91.1891 44.1362 90.8174 43.9634 90.3983C43.7906 89.9792 43.7192 89.5246 43.7551 89.0722V67.5783C43.7675 66.5618 44.0203 65.5629 44.4925 64.6646C44.9648 63.7663 45.6429 62.9944 46.4705 62.4132L69.6529 48.921C69.966 48.707 70.3295 48.58 70.7068 48.5525C71.0841 48.5251 71.462 48.5982 71.8023 48.7647C72.2105 49.0374 72.5372 49.4171 72.7471 49.863C72.9571 50.3089 73.0424 50.804 72.9939 51.2952V72.7892C72.981 73.8061 72.7281 74.8052 72.2561 75.7041C71.7841 76.6029 71.1066 77.3755 70.2795 77.958L47.0914 91.4502C46.7115 91.683 46.2779 91.8118 45.8335 91.8241ZM45.49 90.464C45.5024 90.4694 45.5145 90.4757 45.5259 90.483C45.6818 90.542 45.8497 90.5615 46.0148 90.5396C46.1799 90.5176 46.3371 90.4549 46.4724 90.3571L69.6558 76.8659C70.2908 76.3929 70.8095 75.7793 71.1718 75.0723C71.5342 74.3653 71.7305 73.5839 71.7456 72.7883V51.2942C71.7823 51.0316 71.7527 50.7638 71.6596 50.5157C71.5664 50.2677 71.4127 50.0472 71.2127 49.8749C71.0579 49.8217 70.8928 49.8064 70.7311 49.8303C70.5693 49.8542 70.4154 49.9166 70.2823 50.0123L47.0942 63.5044C46.4589 63.976 45.9399 64.5887 45.5774 65.295C45.215 66.0013 45.019 66.7823 45.0044 67.5774V89.0713C44.9774 89.3236 45.0058 89.5788 45.0876 89.8188C45.1694 90.0588 45.3025 90.2778 45.4776 90.4602L45.49 90.464Z" fill="#005BEA"/>
<path d="M25.028 53.1758C24.5215 53.1801 24.023 53.0485 23.5837 52.7944C23.0433 52.4252 22.6113 51.9166 22.3327 51.3216C22.0542 50.7266 21.9394 50.067 22.0003 49.412C22.0762 47.7801 22.5388 46.1902 23.3492 44.7754C24.1597 43.3606 25.2945 42.1619 26.6587 41.2795C27.1707 40.8548 27.7991 40.5977 28.4599 40.5425C29.1208 40.4873 29.7826 40.6366 30.357 40.9706C30.9314 41.3046 31.3909 41.8072 31.6743 42.4114C31.9576 43.0156 32.0513 43.6925 31.9428 44.3518C31.8673 45.9845 31.405 47.5752 30.5946 48.9909C29.7841 50.4066 28.649 51.6061 27.2843 52.4891C26.6047 52.9128 25.8267 53.1495 25.028 53.1758ZM28.9084 41.8575C28.3308 41.8847 27.7701 42.0628 27.2815 42.3745C26.1078 43.1463 25.1311 44.1859 24.4304 45.409C23.7298 46.6322 23.3249 48.0045 23.2486 49.4148C23.1397 49.8497 23.1745 50.3085 23.3477 50.7217C23.5209 51.1348 23.8231 51.4798 24.2085 51.7042C24.5938 51.9286 25.0413 52.0202 25.483 51.9651C25.9247 51.91 26.3365 51.7112 26.6559 51.3989C27.8299 50.6266 28.8069 49.5863 29.5075 48.3624C30.2082 47.1386 30.6129 45.7656 30.6887 44.3547C30.7413 43.9219 30.6804 43.4827 30.512 43.081C30.3436 42.6793 30.0736 42.3291 29.729 42.0655C29.4793 41.924 29.1968 41.852 28.9103 41.8566L28.9084 41.8575Z" fill="#005BEA"/>
<path d="M36.2172 39.8148C36.0795 39.8147 35.9458 39.7689 35.8366 39.6845C35.7274 39.6001 35.6489 39.4817 35.6132 39.3478C35.5775 39.2138 35.5867 39.0718 35.6392 38.9436C35.6918 38.8154 35.7848 38.7083 35.9039 38.6388L49.4041 30.7876C49.5478 30.704 49.7186 30.6813 49.8789 30.7246C50.0391 30.7679 50.1758 30.8737 50.2588 31.0185C50.3417 31.1633 50.3642 31.3354 50.3212 31.4969C50.2783 31.6585 50.1734 31.7962 50.0297 31.8798L36.5295 39.7308C36.4345 39.7859 36.3268 39.8149 36.2172 39.8148Z" fill="#005BEA"/>
<path d="M36.2169 44.1291C36.0789 44.1294 35.9448 44.0838 35.8352 43.9993C35.7257 43.9148 35.6469 43.7962 35.6112 43.662C35.5755 43.5277 35.5848 43.3853 35.6376 43.2569C35.6905 43.1285 35.784 43.0214 35.9036 42.9521L49.4038 35.0961C49.5475 35.0125 49.7183 34.9899 49.8785 35.0332C50.0388 35.0765 50.1755 35.1822 50.2585 35.327C50.3414 35.4718 50.3639 35.6439 50.3209 35.8054C50.278 35.967 50.1731 36.1047 50.0294 36.1883L36.5292 44.0432C36.4344 44.0991 36.3267 44.1288 36.2169 44.1291Z" fill="#005BEA"/>
<path d="M14.5263 99.2441C14.4234 99.2441 14.3221 99.2187 14.2313 99.1698C14.1405 99.1209 14.0631 99.0503 14.0059 98.9641C13.9487 98.8778 13.9135 98.7786 13.9034 98.6754C13.8933 98.5722 13.9086 98.4682 13.948 98.3723L18.0178 88.4905C18.0595 88.3891 18.1268 88.3004 18.2129 88.2333C18.299 88.1662 18.401 88.1229 18.5089 88.1077C18.6167 88.0924 18.7266 88.1058 18.8277 88.1465C18.9288 88.1873 19.0176 88.2538 19.0854 88.3397L23.1551 93.4905C23.211 93.5615 23.251 93.6439 23.2725 93.7319C23.294 93.8199 23.2964 93.9116 23.2796 94.0006C23.2628 94.0897 23.2272 94.174 23.1752 94.2479C23.1232 94.3219 23.056 94.3837 22.9781 94.4291L14.8453 99.1621C14.7482 99.2178 14.638 99.246 14.5263 99.2441ZM18.7636 89.9613L15.8106 97.139L21.7175 93.7051L18.7636 89.9613Z" fill="#005BEA"/>
<path d="M54.9459 76.8075C54.78 76.8075 54.6209 76.7411 54.5035 76.6229C54.3862 76.5046 54.3203 76.3442 54.3203 76.177V68.1771C54.3203 68.0666 54.3492 67.9579 54.404 67.8622C54.4588 67.7664 54.5377 67.6869 54.6326 67.6315L61.5058 63.635C61.6009 63.5798 61.7086 63.5507 61.8183 63.5508C61.9281 63.5508 62.0358 63.5799 62.1309 63.6352C62.2259 63.6905 62.3048 63.7699 62.3597 63.8656C62.4146 63.9613 62.4436 64.07 62.4437 64.1806V72.1785C62.4437 72.2891 62.4147 72.3979 62.3597 72.4937C62.3047 72.5895 62.2257 72.6689 62.1305 72.7241L55.2573 76.7217C55.1627 76.7773 55.0554 76.8069 54.9459 76.8075ZM55.5715 68.5425V75.0848L61.1935 71.8151V65.2726L55.5715 68.5425Z" fill="#005BEA"/>
<path d="M12.1808 69.3083C12.0711 69.308 11.9634 69.2787 11.8684 69.2233L7.89809 66.9121C7.50657 66.6322 7.19494 66.2534 6.99444 65.8138C6.79395 65.3742 6.71162 64.8892 6.75572 64.4074V42.9135C6.76802 41.8969 7.02026 40.8979 7.49161 39.9991C7.96297 39.1002 8.63987 38.3274 9.46635 37.7445L58.9328 8.96693C59.2525 8.74587 59.626 8.61683 60.013 8.59363C60.4 8.57044 60.786 8.65404 61.1295 8.83535L65.0677 11.1312C65.2105 11.2135 65.3164 11.3477 65.3638 11.5064C65.4112 11.6651 65.3963 11.8361 65.3223 11.984C65.2494 12.1282 65.1233 12.2378 64.971 12.289C64.8187 12.3402 64.6525 12.329 64.5083 12.2578L60.5048 9.92753C60.3489 9.86812 60.1807 9.84881 60.0155 9.87129C59.8502 9.89377 59.6931 9.95734 59.5584 10.0563L10.0901 38.8357C9.45644 39.3095 8.93921 39.9234 8.57821 40.6304C8.21721 41.3374 8.02209 42.1185 8.00788 42.9135V64.4074C7.97395 64.6678 8.00353 64.9327 8.09407 65.179C8.18461 65.4253 8.33337 65.6457 8.52746 65.821L12.496 68.1322C12.6151 68.2017 12.7081 68.3088 12.7606 68.437C12.8132 68.5652 12.8223 68.7073 12.7867 68.8413C12.751 68.9752 12.6725 69.0936 12.5633 69.178C12.4541 69.2624 12.3203 69.3082 12.1827 69.3083H12.1808Z" fill="#005BEA"/>
<path d="M5.42913 114.809C5.31461 114.807 5.20268 114.774 5.10546 114.713L1.1436 112.409C0.751288 112.131 0.438915 111.753 0.238132 111.314C0.0373493 110.875 -0.0447141 110.39 0.000276503 109.909V88.4137C0.0120915 87.3976 0.264172 86.399 0.735592 85.5007C1.20701 84.6024 1.88419 83.8305 2.71093 83.2487L25.8991 69.7566C26.2199 69.5361 26.5944 69.408 26.9822 69.3862C27.37 69.3643 27.7563 69.4495 28.0995 69.6325L32.0605 71.9389C32.1338 71.9786 32.1985 72.0326 32.2508 72.0977C32.3031 72.1629 32.3421 72.238 32.3653 72.3185C32.3885 72.399 32.3956 72.4833 32.386 72.5666C32.3765 72.6499 32.3506 72.7305 32.3098 72.8036C32.269 72.8766 32.2142 72.9407 32.1485 72.9922C32.0828 73.0437 32.0076 73.0814 31.9273 73.1032C31.8469 73.125 31.7631 73.1305 31.6807 73.1192C31.5983 73.108 31.5189 73.0803 31.4472 73.0377L27.4721 70.7227C27.3162 70.6631 27.1481 70.6435 26.9829 70.6657C26.8177 70.6878 26.6606 70.7511 26.5256 70.8497L3.33747 84.3408C2.70378 84.8136 2.18641 85.4269 1.82537 86.1333C1.46432 86.8397 1.26927 87.6202 1.25526 88.4147V109.913C1.22092 110.173 1.24999 110.436 1.33989 110.681C1.4298 110.927 1.57783 111.146 1.77109 111.32L5.75852 113.64C5.87529 113.712 5.96562 113.82 6.01575 113.948C6.06589 114.076 6.07305 114.217 6.03615 114.349C5.99924 114.482 5.9203 114.599 5.81137 114.682C5.70245 114.765 5.56952 114.81 5.43291 114.809L5.42913 114.809Z" fill="#005BEA"/>
<path d="M45.2166 91.6572C45.102 91.6558 44.9901 91.6228 44.8929 91.5619L40.9348 89.2564C40.5421 88.9777 40.2295 88.5993 40.0287 88.1596C39.8279 87.7199 39.7461 87.2345 39.7915 86.7526V65.2587C39.8037 64.2421 40.0559 63.243 40.5273 62.3442C40.9987 61.4453 41.6756 60.6726 42.5021 60.0897L65.6902 46.6023C66.0094 46.3819 66.3821 46.2533 66.7683 46.2303C67.1544 46.2073 67.5396 46.2907 67.8822 46.4717L71.8242 48.7666C71.9672 48.8489 72.0734 48.9833 72.1208 49.1421C72.1682 49.301 72.1531 49.4723 72.0788 49.6204C72.0062 49.7647 71.88 49.8744 71.7276 49.9256C71.5752 49.9769 71.409 49.9656 71.2649 49.8941L67.2566 47.5639C67.102 47.5031 66.9346 47.483 66.7702 47.5055C66.6057 47.528 66.4497 47.5925 66.3168 47.6926L43.1287 61.1819C42.4951 61.6554 41.9778 62.2692 41.6168 62.9761C41.2558 63.6829 41.0607 64.4638 41.0465 65.2587V86.7526C41.0118 87.0124 41.0407 87.2769 41.1306 87.5229C41.2205 87.769 41.3687 87.9891 41.5623 88.1643L45.5459 90.484C45.6626 90.5554 45.7529 90.6634 45.8031 90.7914C45.8532 90.9194 45.8605 91.0604 45.8237 91.1929C45.7869 91.3254 45.7081 91.442 45.5993 91.5252C45.4906 91.6084 45.3578 91.6535 45.2213 91.6535L45.2166 91.6572Z" fill="#005BEA"/>
<path d="M18.4576 77.7428C18.2917 77.7428 18.1326 77.6764 18.0153 77.5581C17.8979 77.4399 17.832 77.2795 17.832 77.1123V65.8102C17.832 65.643 17.8979 65.4826 18.0153 65.3644C18.1326 65.2461 18.2917 65.1797 18.4576 65.1797C18.6236 65.1797 18.7827 65.2461 18.9 65.3644C19.0173 65.4826 19.0832 65.643 19.0832 65.8102V77.1123C19.0832 77.2795 19.0173 77.4399 18.9 77.5581C18.7827 77.6764 18.6236 77.7428 18.4576 77.7428Z" fill="#005BEA"/>
<path d="M56.9049 55.6483C56.739 55.6483 56.5799 55.5819 56.4625 55.4637C56.3452 55.3454 56.2793 55.185 56.2793 55.0178V43.443C56.2793 43.2758 56.3452 43.1154 56.4625 42.9972C56.5799 42.8789 56.739 42.8125 56.9049 42.8125C57.0708 42.8125 57.2299 42.8789 57.3473 42.9972C57.4646 43.1154 57.5305 43.2758 57.5305 43.443V55.0217C57.5295 55.1882 57.4632 55.3476 57.3459 55.4651C57.2287 55.5825 57.0702 55.6483 56.9049 55.6483Z" fill="#005BEA"/>
</g>
<defs>
<clipPath id="clip0_9_84213">
<rect width="73" height="124" fill="white"/>
</clipPath>
</defs>
</svg>
