<svg width="1440" height="1058" viewBox="0 0 1440 1058" fill="none" xmlns="http://www.w3.org/2000/svg">
<path d="M710.348 366.702L569.102 285.29L710.344 203.882L851.591 285.293L710.348 366.702Z" fill="#F2F5FC"/>
<path d="M710.344 1050.18V366.702L851.589 285.293V1050.18H710.344Z" fill="url(#paint0_linear_9_33439)"/>
<path d="M710.347 1050.18V366.702L569.102 285.293V1050.18H710.347Z" fill="url(#paint1_linear_9_33439)"/>
<g opacity="0.4">
<path d="M1251.15 347.491L1180.53 306.785L1251.15 266.08L1321.78 306.785L1251.15 347.491Z" fill="#F2F5FC"/>
<path d="M1251.16 877.89V347.489L1321.78 306.785V877.891L1251.16 877.89Z" fill="url(#paint2_linear_9_33439)"/>
<path d="M1251.15 877.891V347.49L1180.53 306.786V877.892L1251.15 877.891Z" fill="url(#paint3_linear_9_33439)"/>
</g>
<g opacity="0.2">
<path d="M1369.38 168.9L1298.76 128.194L1369.38 87.4885L1440 128.194L1369.38 168.9Z" fill="#F9FAFC"/>
<path d="M1369.38 699.297V168.899L1440 128.194V699.297H1369.38Z" fill="url(#paint4_linear_9_33439)"/>
<path d="M1369.38 699.297V168.899L1298.76 128.194V699.297H1369.38Z" fill="url(#paint5_linear_9_33439)"/>
</g>
<g opacity="0.4">
<path d="M188.845 332.001L259.468 291.295L188.846 250.59L118.219 291.296L188.845 332.001Z" fill="#F2F5FC"/>
<path d="M188.845 862.402V332.001L118.219 291.296V862.402L188.845 862.402Z" fill="url(#paint6_linear_9_33439)"/>
<path d="M188.844 862.402V332.001L259.466 291.296V862.402L188.844 862.402Z" fill="url(#paint7_linear_9_33439)"/>
</g>
<g opacity="0.2">
<path d="M70.621 153.41L141.244 112.705L70.6234 72.0002L0 112.706L70.621 153.41Z" fill="#F2F5FC"/>
<path d="M70.6226 683.808V153.41L0 112.706V683.808H70.6226Z" fill="url(#paint8_linear_9_33439)"/>
<path d="M70.625 683.808V153.41L141.248 112.706V683.808H70.625Z" fill="url(#paint9_linear_9_33439)"/>
</g>
<path d="M1007.46 489.985L866.211 408.574L1007.45 327.165L1148.7 408.576L1007.46 489.985Z" fill="#F2F5FC"/>
<path d="M1007.45 976.611V489.985L1148.7 408.577V976.611H1007.45Z" fill="url(#paint10_linear_9_33439)"/>
<path d="M1007.46 976.611V489.985L866.211 408.577V976.611H1007.46Z" fill="url(#paint11_linear_9_33439)"/>
<path d="M413.245 489.985L272 408.574L413.245 327.165L554.491 408.576L413.245 489.985Z" fill="#F2F5FC"/>
<path d="M413.242 1058V489.986L554.487 408.577V1058H413.242Z" fill="url(#paint12_linear_9_33439)"/>
<path d="M413.245 976.611V489.985L272 408.577V976.611H413.245Z" fill="url(#paint13_linear_9_33439)"/>
<path d="M708.192 118.773C708.192 118.773 659.114 123.447 629.555 125.718L707.956 349.006L811.659 289.193C811.677 289.184 811.693 289.173 811.711 289.163L811.893 289.057V289.048C813.191 288.231 814.011 286.448 814.011 283.929V65.6836C813.954 63.2541 813.338 60.8705 812.21 58.718L708.192 118.773Z" fill="#F2F5FC"/>
<path d="M807.584 53.4133L716.384 0.759008C715.785 0.335321 715.085 0.0786059 714.355 0.0153771C713.625 -0.0478517 712.891 0.0846503 712.229 0.39923L608.109 60.4666L613.014 78.6225L639.121 152.974L644.036 155.811L812.21 58.7153C811.192 56.5514 809.59 54.715 807.584 53.4133Z" fill="url(#paint14_linear_9_33439)"/>
<path d="M703.545 348.803L612.344 296.148C608.797 294.101 605.922 288.607 605.922 283.878V65.6327C605.922 60.9041 608.797 58.7301 612.344 60.7781L703.545 113.432C707.092 115.48 709.967 120.974 709.967 125.703V343.949C709.967 348.677 707.092 350.855 703.545 348.803Z" fill="#F2F5FC"/>
<path d="M705.495 112.336L614.294 59.6806C612.241 58.4936 610.418 58.732 609.242 60.0522C610.327 59.9304 611.421 60.1868 612.339 60.7781L703.539 113.432C707.087 115.48 709.962 120.974 709.962 125.703V343.949C710.063 345.56 709.576 347.153 708.592 348.432C710.575 348.118 711.918 346.083 711.918 342.852V124.603C711.917 119.878 709.041 114.384 705.495 112.336Z" fill="white"/>
<path d="M697.809 335.664L618.082 289.634C614.978 287.845 612.469 283.042 612.469 278.908V76.2194C612.469 72.086 614.982 70.1851 618.082 71.9756L697.809 118.006C700.913 119.795 703.422 124.598 703.422 128.732V331.421C703.422 335.555 700.91 337.455 697.809 335.664Z" fill="url(#paint15_linear_9_33439)"/>
<path d="M697.809 335.664L618.082 289.634C614.978 287.845 612.469 283.042 612.469 278.908V76.2194C612.469 72.086 614.982 70.1851 618.082 71.9756L697.809 118.006C700.913 119.795 703.422 124.598 703.422 128.732V331.421C703.422 335.555 700.91 337.455 697.809 335.664Z" fill="url(#paint16_linear_9_33439)"/>
<path d="M700.414 334.132L620.687 288.102C617.583 286.312 615.074 281.51 615.074 277.376V74.6873C615.029 73.5071 615.307 72.3371 615.879 71.3036C613.875 71.288 612.469 73.1296 612.469 76.2194V278.907C612.469 283.041 614.982 287.844 618.082 289.633L697.809 335.663C699.853 336.843 701.635 336.412 702.617 334.803C701.837 334.774 701.078 334.543 700.414 334.132Z" fill="url(#paint17_linear_9_33439)"/>
<path d="M697.794 242.607L668.161 225.499L620.898 252.786L703.407 300.423V253.335C703.407 249.2 700.895 244.394 697.794 242.607Z" fill="url(#paint18_linear_9_33439)"/>
<path d="M697.794 201.074L668.161 183.966L620.898 211.253L703.407 258.889V211.799C703.407 207.666 700.895 202.864 697.794 201.074Z" fill="url(#paint19_linear_9_33439)"/>
<path d="M697.794 159.539L668.161 142.431L620.898 169.718L703.407 217.355V170.267C703.407 166.133 700.895 161.33 697.794 159.539Z" fill="url(#paint20_linear_9_33439)"/>
<path d="M697.794 118.006L668.161 100.898L620.898 128.185L703.407 175.821V128.733C703.407 124.603 700.895 119.796 697.794 118.006Z" fill="url(#paint21_linear_9_33439)"/>
<path d="M697.794 118.006L632.191 80.1304L620.898 86.6495L703.407 134.287V128.733C703.407 124.603 700.895 119.796 697.794 118.006Z" fill="url(#paint22_linear_9_33439)"/>
<path d="M703.407 134.287L620.898 86.6494V112.901L703.407 160.537V134.287Z" fill="white"/>
<path d="M703.407 175.825L620.898 128.188V154.439L703.407 202.076V175.825Z" fill="white"/>
<path d="M703.407 217.354L620.898 169.717V195.969L703.407 243.606V217.354Z" fill="white"/>
<path d="M703.407 258.889L620.898 211.251V237.503L703.407 285.14V258.889Z" fill="white"/>
<path d="M703.407 300.422L620.898 252.785V279.037L703.407 326.674V300.422Z" fill="white"/>
<path d="M696.136 151.183L633.989 115.301C633.022 114.608 632.23 113.697 631.679 112.643C631.127 111.589 630.83 110.42 630.812 109.23V102.199C630.812 99.8592 632.234 98.7845 633.989 99.7971L696.136 135.68C697.891 136.692 699.314 139.41 699.314 141.75V148.78C699.314 151.12 697.891 152.196 696.136 151.183Z" fill="url(#paint23_linear_9_33439)"/>
<path d="M676.633 131.914L639.235 110.322C638.894 110.079 638.616 109.758 638.422 109.388C638.228 109.017 638.124 108.605 638.117 108.187C638.117 107.365 638.618 106.985 639.235 107.342L676.633 128.933C676.973 129.177 677.251 129.497 677.445 129.868C677.64 130.239 677.744 130.65 677.751 131.069C677.749 131.892 677.25 132.272 676.633 131.914Z" fill="url(#paint24_linear_9_33439)"/>
<path d="M696.136 192.46L633.989 156.578C633.022 155.885 632.231 154.974 631.679 153.92C631.127 152.866 630.83 151.697 630.812 150.507V143.476C630.812 141.137 632.234 140.062 633.989 141.075L696.136 176.958C697.104 177.651 697.895 178.561 698.447 179.615C698.999 180.67 699.296 181.839 699.314 183.029V190.059C699.314 192.398 697.891 193.474 696.136 192.46Z" fill="url(#paint25_linear_9_33439)"/>
<path d="M676.633 173.191L639.235 151.6C638.894 151.356 638.616 151.036 638.422 150.665C638.228 150.295 638.124 149.883 638.117 149.465C638.117 148.643 638.618 148.263 639.235 148.62L676.633 170.211C676.973 170.455 677.252 170.775 677.446 171.146C677.64 171.517 677.744 171.928 677.751 172.347C677.749 173.17 677.25 173.548 676.633 173.191Z" fill="url(#paint26_linear_9_33439)"/>
<path d="M696.136 234.122L633.989 198.24C632.234 197.227 630.812 194.509 630.812 192.17V185.139C630.812 182.8 632.234 181.724 633.989 182.738L696.136 218.62C697.104 219.313 697.895 220.224 698.447 221.278C698.999 222.332 699.296 223.501 699.314 224.691V231.722C699.314 234.06 697.891 235.136 696.136 234.122Z" fill="url(#paint27_linear_9_33439)"/>
<path d="M676.633 214.853L639.235 193.262C638.894 193.018 638.616 192.698 638.422 192.327C638.228 191.957 638.124 191.546 638.117 191.127C638.117 190.305 638.618 189.926 639.235 190.282L676.633 211.873C676.973 212.117 677.252 212.437 677.446 212.808C677.64 213.179 677.744 213.59 677.751 214.009C677.749 214.832 677.25 215.21 676.633 214.853Z" fill="url(#paint28_linear_9_33439)"/>
<path d="M696.136 276.168L633.989 240.285C632.234 239.272 630.812 236.554 630.812 234.215V227.184C630.812 224.845 632.234 223.769 633.989 224.783L696.136 260.666C697.891 261.678 699.314 264.396 699.314 266.735V273.766C699.314 276.107 697.891 277.182 696.136 276.168Z" fill="url(#paint29_linear_9_33439)"/>
<path d="M637.13 238.943C636.163 238.25 635.371 237.34 634.819 236.286C634.268 235.231 633.971 234.062 633.953 232.872V225.842C633.954 225.502 633.993 225.163 634.069 224.832L633.989 224.787C632.235 223.773 630.812 224.849 630.812 227.188V234.218C630.831 235.408 631.127 236.577 631.679 237.631C632.231 238.686 633.022 239.596 633.989 240.289L696.136 276.172C697.61 277.023 698.838 276.387 699.197 274.779L637.13 238.943Z" fill="url(#paint30_linear_9_33439)"/>
<path d="M676.633 256.903L639.235 235.311C638.894 235.068 638.616 234.748 638.422 234.377C638.228 234.006 638.124 233.595 638.117 233.176C638.117 232.355 638.618 231.975 639.235 232.331L676.633 253.923C676.973 254.167 677.252 254.487 677.446 254.858C677.64 255.229 677.744 255.64 677.751 256.058C677.749 256.878 677.25 257.257 676.633 256.903Z" fill="url(#paint31_linear_9_33439)"/>
<path d="M696.136 317.382L633.989 281.5C632.234 280.487 630.812 277.769 630.812 275.429V268.399C630.812 266.058 632.234 264.984 633.989 265.996L696.136 301.879C697.104 302.572 697.895 303.482 698.447 304.536C698.999 305.591 699.296 306.76 699.314 307.95V314.98C699.314 317.32 697.891 318.395 696.136 317.382Z" fill="url(#paint32_linear_9_33439)"/>
<path d="M676.633 298.113L639.235 276.522C638.894 276.278 638.616 275.958 638.422 275.587C638.228 275.216 638.123 274.805 638.117 274.386C638.117 273.564 638.618 273.184 639.235 273.541L676.633 295.133C676.973 295.377 677.252 295.697 677.446 296.068C677.64 296.439 677.744 296.85 677.751 297.269C677.749 298.091 677.25 298.469 676.633 298.113Z" fill="url(#paint33_linear_9_33439)"/>
<path d="M620.906 86.6494L627.403 90.4011V116.653L620.906 112.902V86.6494Z" fill="white"/>
<path d="M620.906 128.184L627.403 131.936V158.187L620.906 154.437V128.184Z" fill="white"/>
<path d="M620.906 169.717L627.403 173.468V199.72L620.906 195.968V169.717Z" fill="white"/>
<path d="M620.906 211.251L627.403 215.003V241.254L620.906 237.503V211.251Z" fill="white"/>
<path d="M620.906 252.785L627.403 256.537V282.789L620.906 279.037V252.785Z" fill="white"/>
<path d="M683.61 135.358C684.124 135.061 684.124 134.1 683.61 133.21C683.096 132.321 682.264 131.84 681.75 132.136C681.237 132.433 681.237 133.394 681.75 134.284C682.264 135.174 683.096 135.654 683.61 135.358Z" fill="url(#paint34_linear_9_33439)"/>
<path d="M689.576 137.726C689.576 138.565 688.987 138.906 688.261 138.486C687.878 138.236 687.559 137.9 687.331 137.504C687.102 137.108 686.97 136.664 686.945 136.207C686.945 135.368 687.534 135.029 688.261 135.448C688.644 135.698 688.962 136.034 689.191 136.43C689.419 136.826 689.551 137.27 689.576 137.726Z" fill="url(#paint35_linear_9_33439)"/>
<path d="M695.155 140.947C695.155 141.786 694.566 142.125 693.839 141.706C693.456 141.456 693.137 141.119 692.908 140.722C692.679 140.326 692.548 139.881 692.523 139.423C692.523 138.585 693.112 138.245 693.839 138.665C694.223 138.915 694.542 139.251 694.77 139.648C694.999 140.044 695.131 140.489 695.155 140.947Z" fill="url(#paint36_linear_9_33439)"/>
<path d="M683.999 176.019C683.999 176.858 683.41 177.198 682.683 176.779C682.3 176.529 681.981 176.193 681.753 175.797C681.524 175.401 681.392 174.957 681.367 174.501C681.367 173.662 681.957 173.321 682.683 173.741C683.066 173.991 683.385 174.327 683.613 174.723C683.842 175.119 683.974 175.563 683.999 176.019Z" fill="url(#paint37_linear_9_33439)"/>
<path d="M689.576 179.239C689.576 180.079 688.987 180.418 688.261 179.999C687.878 179.749 687.559 179.412 687.33 179.015C687.101 178.619 686.97 178.174 686.945 177.717C686.945 176.877 687.534 176.538 688.261 176.957C688.644 177.207 688.963 177.544 689.191 177.941C689.42 178.337 689.552 178.782 689.576 179.239Z" fill="url(#paint38_linear_9_33439)"/>
<path d="M695.155 182.459C695.155 183.298 694.566 183.638 693.839 183.218C693.456 182.969 693.137 182.633 692.909 182.237C692.68 181.841 692.548 181.397 692.523 180.94C692.523 180.101 693.112 179.762 693.839 180.181C694.222 180.43 694.541 180.767 694.769 181.162C694.998 181.558 695.13 182.002 695.155 182.459Z" fill="url(#paint39_linear_9_33439)"/>
<path d="M683.999 217.845C683.999 218.684 683.41 219.024 682.683 218.605C682.3 218.355 681.981 218.018 681.752 217.621C681.523 217.224 681.392 216.78 681.367 216.322C681.367 215.484 681.957 215.144 682.683 215.564C683.066 215.814 683.385 216.15 683.614 216.547C683.843 216.943 683.974 217.388 683.999 217.845Z" fill="url(#paint40_linear_9_33439)"/>
<path d="M689.576 221.066C689.576 221.905 688.987 222.244 688.261 221.825C687.878 221.575 687.558 221.238 687.33 220.842C687.101 220.445 686.969 220 686.945 219.543C686.945 218.704 687.534 218.364 688.261 218.783C688.644 219.033 688.963 219.37 689.191 219.767C689.42 220.164 689.552 220.609 689.576 221.066Z" fill="url(#paint41_linear_9_33439)"/>
<path d="M695.155 224.285C695.155 225.124 694.566 225.465 693.839 225.045C693.456 224.795 693.137 224.459 692.909 224.063C692.68 223.667 692.548 223.223 692.523 222.767C692.523 221.928 693.112 221.588 693.839 222.007C694.222 222.257 694.541 222.593 694.769 222.989C694.998 223.385 695.13 223.829 695.155 224.285Z" fill="url(#paint42_linear_9_33439)"/>
<path d="M683.999 259.063C683.999 259.901 683.41 260.242 682.683 259.823C682.3 259.573 681.981 259.236 681.752 258.839C681.523 258.442 681.392 257.997 681.367 257.54C681.367 256.701 681.957 256.361 682.683 256.781C683.066 257.031 683.385 257.368 683.614 257.764C683.843 258.161 683.974 258.606 683.999 259.063Z" fill="url(#paint43_linear_9_33439)"/>
<path d="M689.576 262.283C689.576 263.122 688.987 263.462 688.261 263.042C687.878 262.793 687.559 262.457 687.331 262.061C687.102 261.665 686.97 261.221 686.945 260.764C686.945 259.925 687.534 259.586 688.261 260.005C688.644 260.254 688.962 260.591 689.191 260.987C689.419 261.382 689.551 261.826 689.576 262.283Z" fill="url(#paint44_linear_9_33439)"/>
<path d="M695.155 265.503C695.155 266.342 694.566 266.681 693.839 266.262C693.456 266.012 693.137 265.675 692.908 265.279C692.679 264.882 692.548 264.437 692.523 263.98C692.523 263.142 693.112 262.801 693.839 263.221C694.223 263.471 694.542 263.808 694.77 264.204C694.999 264.601 695.131 265.046 695.155 265.503Z" fill="url(#paint45_linear_9_33439)"/>
<path d="M683.999 300.842C683.999 301.681 683.41 302.021 682.683 301.602C682.3 301.352 681.981 301.015 681.752 300.618C681.523 300.222 681.391 299.777 681.367 299.319C681.367 298.481 681.957 298.141 682.683 298.561C683.066 298.811 683.385 299.147 683.614 299.544C683.843 299.94 683.974 300.385 683.999 300.842Z" fill="url(#paint46_linear_9_33439)"/>
<path d="M689.576 304.063C689.576 304.902 688.987 305.241 688.261 304.822C687.878 304.572 687.558 304.235 687.33 303.839C687.101 303.442 686.969 302.997 686.945 302.54C686.945 301.701 687.534 301.361 688.261 301.78C688.644 302.03 688.963 302.368 689.191 302.764C689.42 303.161 689.552 303.606 689.576 304.063Z" fill="url(#paint47_linear_9_33439)"/>
<path d="M695.155 307.283C695.155 308.121 694.566 308.461 693.839 308.041C693.456 307.792 693.137 307.456 692.909 307.06C692.68 306.664 692.548 306.22 692.523 305.763C692.523 304.924 693.112 304.585 693.839 305.004C694.222 305.253 694.541 305.59 694.77 305.986C694.998 306.382 695.13 306.826 695.155 307.283Z" fill="url(#paint48_linear_9_33439)"/>
<defs>
<linearGradient id="paint0_linear_9_33439" x1="780.966" y1="1042.53" x2="780.966" y2="575.95" gradientUnits="userSpaceOnUse">
<stop stop-color="white" stop-opacity="0"/>
<stop offset="1" stop-color="white"/>
</linearGradient>
<linearGradient id="paint1_linear_9_33439" x1="639.724" y1="1122.08" x2="639.724" y2="260.817" gradientUnits="userSpaceOnUse">
<stop stop-color="white" stop-opacity="0"/>
<stop offset="1" stop-color="#E0E7FD"/>
</linearGradient>
<linearGradient id="paint2_linear_9_33439" x1="1286.47" y1="888.742" x2="1286.47" y2="422.72" gradientUnits="userSpaceOnUse">
<stop stop-color="white" stop-opacity="0"/>
<stop offset="1" stop-color="white"/>
</linearGradient>
<linearGradient id="paint3_linear_9_33439" x1="1215.84" y1="968.126" x2="1215.84" y2="106.899" gradientUnits="userSpaceOnUse">
<stop stop-color="white" stop-opacity="0"/>
<stop offset="1" stop-color="#E0E7FD"/>
</linearGradient>
<linearGradient id="paint4_linear_9_33439" x1="1404.69" y1="888.332" x2="1404.69" y2="422.312" gradientUnits="userSpaceOnUse">
<stop stop-color="white" stop-opacity="0"/>
<stop offset="1" stop-color="white"/>
</linearGradient>
<linearGradient id="paint5_linear_9_33439" x1="1334.07" y1="968.287" x2="1334.07" y2="107.064" gradientUnits="userSpaceOnUse">
<stop stop-color="white" stop-opacity="0"/>
<stop offset="1" stop-color="#E0E7FD"/>
</linearGradient>
<linearGradient id="paint6_linear_9_33439" x1="153.532" y1="952.637" x2="153.532" y2="91.4093" gradientUnits="userSpaceOnUse">
<stop stop-color="white" stop-opacity="0"/>
<stop offset="1" stop-color="#E0E7FD"/>
</linearGradient>
<linearGradient id="paint7_linear_9_33439" x1="224.155" y1="873.253" x2="224.155" y2="407.231" gradientUnits="userSpaceOnUse">
<stop stop-color="white" stop-opacity="0"/>
<stop offset="1" stop-color="white"/>
</linearGradient>
<linearGradient id="paint8_linear_9_33439" x1="35.3113" y1="952.797" x2="35.3113" y2="91.5753" gradientUnits="userSpaceOnUse">
<stop stop-color="white" stop-opacity="0"/>
<stop offset="1" stop-color="#E0E7FD"/>
</linearGradient>
<linearGradient id="paint9_linear_9_33439" x1="105.936" y1="872.843" x2="105.936" y2="406.824" gradientUnits="userSpaceOnUse">
<stop stop-color="white" stop-opacity="0"/>
<stop offset="1" stop-color="white"/>
</linearGradient>
<linearGradient id="paint10_linear_9_33439" x1="1078.08" y1="848.235" x2="1078.08" y2="382.447" gradientUnits="userSpaceOnUse">
<stop stop-color="white" stop-opacity="0"/>
<stop offset="1" stop-color="white"/>
</linearGradient>
<linearGradient id="paint11_linear_9_33439" x1="936.834" y1="927.76" x2="936.834" y2="66.6201" gradientUnits="userSpaceOnUse">
<stop stop-color="white" stop-opacity="0"/>
<stop offset="1" stop-color="#E0E7FD"/>
</linearGradient>
<linearGradient id="paint12_linear_9_33439" x1="483.865" y1="848.237" x2="483.865" y2="381.951" gradientUnits="userSpaceOnUse">
<stop stop-color="white" stop-opacity="0"/>
<stop offset="1" stop-color="white"/>
</linearGradient>
<linearGradient id="paint13_linear_9_33439" x1="342.622" y1="927.76" x2="342.622" y2="66.6201" gradientUnits="userSpaceOnUse">
<stop stop-color="white" stop-opacity="0"/>
<stop offset="1" stop-color="#E0E7FD"/>
</linearGradient>
<linearGradient id="paint14_linear_9_33439" x1="608.109" y1="77.9056" x2="812.21" y2="77.9056" gradientUnits="userSpaceOnUse">
<stop stop-color="white"/>
<stop offset="0.506" stop-color="#CAD1E0"/>
<stop offset="1" stop-color="#C8CEDE"/>
</linearGradient>
<linearGradient id="paint15_linear_9_33439" x1="316.505" y1="1310.61" x2="419.561" y2="1307.85" gradientUnits="userSpaceOnUse">
<stop stop-color="#3919BB"/>
<stop offset="1" stop-color="#6507FA"/>
</linearGradient>
<linearGradient id="paint16_linear_9_33439" x1="530.338" y1="375.299" x2="655.897" y2="355.434" gradientUnits="userSpaceOnUse">
<stop stop-color="white"/>
<stop offset="0.506" stop-color="#CAD1E0"/>
<stop offset="1" stop-color="#C8CEDE"/>
</linearGradient>
<linearGradient id="paint17_linear_9_33439" x1="612.469" y1="203.819" x2="702.617" y2="203.819" gradientUnits="userSpaceOnUse">
<stop stop-color="white"/>
<stop offset="0.506" stop-color="#CAD1E0"/>
<stop offset="1" stop-color="#C8CEDE"/>
</linearGradient>
<linearGradient id="paint18_linear_9_33439" x1="620.898" y1="262.961" x2="703.407" y2="262.961" gradientUnits="userSpaceOnUse">
<stop stop-color="white"/>
<stop offset="0.506" stop-color="#CAD1E0"/>
<stop offset="1" stop-color="#C8CEDE"/>
</linearGradient>
<linearGradient id="paint19_linear_9_33439" x1="620.898" y1="221.427" x2="703.407" y2="221.427" gradientUnits="userSpaceOnUse">
<stop stop-color="white"/>
<stop offset="0.506" stop-color="#CAD1E0"/>
<stop offset="1" stop-color="#C8CEDE"/>
</linearGradient>
<linearGradient id="paint20_linear_9_33439" x1="620.898" y1="179.893" x2="703.407" y2="179.893" gradientUnits="userSpaceOnUse">
<stop stop-color="white"/>
<stop offset="0.506" stop-color="#CAD1E0"/>
<stop offset="1" stop-color="#C8CEDE"/>
</linearGradient>
<linearGradient id="paint21_linear_9_33439" x1="620.898" y1="138.359" x2="703.407" y2="138.359" gradientUnits="userSpaceOnUse">
<stop stop-color="white"/>
<stop offset="0.506" stop-color="#CAD1E0"/>
<stop offset="1" stop-color="#C8CEDE"/>
</linearGradient>
<linearGradient id="paint22_linear_9_33439" x1="620.898" y1="107.208" x2="703.407" y2="107.208" gradientUnits="userSpaceOnUse">
<stop stop-color="white"/>
<stop offset="0.506" stop-color="#CAD1E0"/>
<stop offset="1" stop-color="#C8CEDE"/>
</linearGradient>
<linearGradient id="paint23_linear_9_33439" x1="441.886" y1="182.853" x2="1068.55" y2="-95.0001" gradientUnits="userSpaceOnUse">
<stop stop-color="white"/>
<stop offset="0.506" stop-color="#CAD1E0"/>
<stop offset="1" stop-color="#C8CEDE"/>
</linearGradient>
<linearGradient id="paint24_linear_9_33439" x1="638.117" y1="119.628" x2="677.751" y2="119.628" gradientUnits="userSpaceOnUse">
<stop stop-color="#5E98F7"/>
<stop offset="1" stop-color="#4670BA"/>
</linearGradient>
<linearGradient id="paint25_linear_9_33439" x1="451.888" y1="221.575" x2="1078.47" y2="-56.2743" gradientUnits="userSpaceOnUse">
<stop stop-color="white"/>
<stop offset="0.506" stop-color="#CAD1E0"/>
<stop offset="1" stop-color="#C8CEDE"/>
</linearGradient>
<linearGradient id="paint26_linear_9_33439" x1="638.117" y1="160.906" x2="677.751" y2="160.906" gradientUnits="userSpaceOnUse">
<stop stop-color="#5E98F7"/>
<stop offset="1" stop-color="#4670BA"/>
</linearGradient>
<linearGradient id="paint27_linear_9_33439" x1="461.889" y1="260.629" x2="1088.54" y2="-17.2268" gradientUnits="userSpaceOnUse">
<stop stop-color="white"/>
<stop offset="0.506" stop-color="#CAD1E0"/>
<stop offset="1" stop-color="#C8CEDE"/>
</linearGradient>
<linearGradient id="paint28_linear_9_33439" x1="638.117" y1="202.568" x2="677.751" y2="202.568" gradientUnits="userSpaceOnUse">
<stop stop-color="#5E98F7"/>
<stop offset="1" stop-color="#4670BA"/>
</linearGradient>
<linearGradient id="paint29_linear_9_33439" x1="472.027" y1="300.069" x2="1098.69" y2="22.2183" gradientUnits="userSpaceOnUse">
<stop stop-color="white"/>
<stop offset="0.506" stop-color="#CAD1E0"/>
<stop offset="1" stop-color="#C8CEDE"/>
</linearGradient>
<linearGradient id="paint30_linear_9_33439" x1="472.024" y1="300.068" x2="1099.1" y2="22.9402" gradientUnits="userSpaceOnUse">
<stop stop-color="white"/>
<stop offset="0.506" stop-color="#CAD1E0"/>
<stop offset="1" stop-color="#C8CEDE"/>
</linearGradient>
<linearGradient id="paint31_linear_9_33439" x1="638.117" y1="244.617" x2="677.751" y2="244.617" gradientUnits="userSpaceOnUse">
<stop stop-color="#5E98F7"/>
<stop offset="1" stop-color="#4670BA"/>
</linearGradient>
<linearGradient id="paint32_linear_9_33439" x1="481.96" y1="338.727" x2="1108.62" y2="60.8748" gradientUnits="userSpaceOnUse">
<stop stop-color="white"/>
<stop offset="0.506" stop-color="#CAD1E0"/>
<stop offset="1" stop-color="#C8CEDE"/>
</linearGradient>
<linearGradient id="paint33_linear_9_33439" x1="638.117" y1="285.827" x2="677.751" y2="285.827" gradientUnits="userSpaceOnUse">
<stop stop-color="#5E98F7"/>
<stop offset="1" stop-color="#4670BA"/>
</linearGradient>
<linearGradient id="paint34_linear_9_33439" x1="681.542" y1="134.404" x2="683.818" y2="133.09" gradientUnits="userSpaceOnUse">
<stop stop-color="#5E98F7"/>
<stop offset="1" stop-color="#4670BA"/>
</linearGradient>
<linearGradient id="paint35_linear_9_33439" x1="686.945" y1="136.967" x2="689.576" y2="136.967" gradientUnits="userSpaceOnUse">
<stop stop-color="#5E98F7"/>
<stop offset="1" stop-color="#4670BA"/>
</linearGradient>
<linearGradient id="paint36_linear_9_33439" x1="692.523" y1="140.185" x2="695.155" y2="140.185" gradientUnits="userSpaceOnUse">
<stop stop-color="#5E98F7"/>
<stop offset="1" stop-color="#4670BA"/>
</linearGradient>
<linearGradient id="paint37_linear_9_33439" x1="681.367" y1="175.26" x2="683.999" y2="175.26" gradientUnits="userSpaceOnUse">
<stop stop-color="#5E98F7"/>
<stop offset="1" stop-color="#4670BA"/>
</linearGradient>
<linearGradient id="paint38_linear_9_33439" x1="686.945" y1="178.478" x2="689.576" y2="178.478" gradientUnits="userSpaceOnUse">
<stop stop-color="#5E98F7"/>
<stop offset="1" stop-color="#4670BA"/>
</linearGradient>
<linearGradient id="paint39_linear_9_33439" x1="692.523" y1="181.7" x2="695.155" y2="181.7" gradientUnits="userSpaceOnUse">
<stop stop-color="#5E98F7"/>
<stop offset="1" stop-color="#4670BA"/>
</linearGradient>
<linearGradient id="paint40_linear_9_33439" x1="681.367" y1="217.084" x2="683.999" y2="217.084" gradientUnits="userSpaceOnUse">
<stop stop-color="#5E98F7"/>
<stop offset="1" stop-color="#4670BA"/>
</linearGradient>
<linearGradient id="paint41_linear_9_33439" x1="686.945" y1="220.304" x2="689.576" y2="220.304" gradientUnits="userSpaceOnUse">
<stop stop-color="#5E98F7"/>
<stop offset="1" stop-color="#4670BA"/>
</linearGradient>
<linearGradient id="paint42_linear_9_33439" x1="692.523" y1="223.526" x2="695.155" y2="223.526" gradientUnits="userSpaceOnUse">
<stop stop-color="#5E98F7"/>
<stop offset="1" stop-color="#4670BA"/>
</linearGradient>
<linearGradient id="paint43_linear_9_33439" x1="681.367" y1="258.302" x2="683.999" y2="258.302" gradientUnits="userSpaceOnUse">
<stop stop-color="#5E98F7"/>
<stop offset="1" stop-color="#4670BA"/>
</linearGradient>
<linearGradient id="paint44_linear_9_33439" x1="686.945" y1="261.524" x2="689.576" y2="261.524" gradientUnits="userSpaceOnUse">
<stop stop-color="#5E98F7"/>
<stop offset="1" stop-color="#4670BA"/>
</linearGradient>
<linearGradient id="paint45_linear_9_33439" x1="692.523" y1="264.741" x2="695.155" y2="264.741" gradientUnits="userSpaceOnUse">
<stop stop-color="#5E98F7"/>
<stop offset="1" stop-color="#4670BA"/>
</linearGradient>
<linearGradient id="paint46_linear_9_33439" x1="681.367" y1="300.081" x2="683.999" y2="300.081" gradientUnits="userSpaceOnUse">
<stop stop-color="#5E98F7"/>
<stop offset="1" stop-color="#4670BA"/>
</linearGradient>
<linearGradient id="paint47_linear_9_33439" x1="686.945" y1="303.301" x2="689.576" y2="303.301" gradientUnits="userSpaceOnUse">
<stop stop-color="#5E98F7"/>
<stop offset="1" stop-color="#4670BA"/>
</linearGradient>
<linearGradient id="paint48_linear_9_33439" x1="692.523" y1="306.523" x2="695.155" y2="306.523" gradientUnits="userSpaceOnUse">
<stop stop-color="#5E98F7"/>
<stop offset="1" stop-color="#4670BA"/>
</linearGradient>
</defs>
</svg>
