<svg width="1440" height="969" viewBox="0 0 1440 969" fill="none" xmlns="http://www.w3.org/2000/svg">
    <style>
    .svg-elem-4,
    .svg-elem-5,
    .svg-elem-6,
    .svg-elem-7,
    .svg-elem-8 {
      stroke-dasharray: 2000;
      stroke-dashoffset: 2000;
      animation: drawPath 6s ease-out forwards;
      fill: none;
    }
    .svg-elem-4 { animation-delay: 0.2s; }
    .svg-elem-5 { animation-delay: 0.8s; }
    .svg-elem-6 { animation-delay: 1.5s; }
    .svg-elem-7 { animation-delay: 2.5s; }
    .svg-elem-8 { animation-delay: 4s; }
    
    @keyframes drawPath {
      to {
        stroke-dashoffset: 0;
      }
    }
    </style>
<mask id="mask0_9_33672" style="mask-type:luminance" maskUnits="userSpaceOnUse" x="-35" y="-1" width="1511" height="970">
<path d="M1467.86 -0.722778H-35V334.322L-6.94884 352.843C-25.2279 394.625 -35 438.676 -35 484.189C-35 751.939 303.245 969 720.5 969C1137.75 969 1476 751.939 1476 484.189C1476 437.13 1465.55 391.617 1446.05 348.591L1467.88 334.322V-0.722778H1467.86Z" fill="white"/>
</mask>
<g mask="url(#mask0_9_33672)">
<rect x="-35.2344" y="-0.924072" width="1511.47" height="970.092" fill="#C8CEDE"/>
</g>
<path fill-rule="evenodd" clip-rule="evenodd" d="M716.238 915.891C1131.15 915.891 1467.48 698.78 1467.48 430.945C1467.48 385.399 1457.75 341.331 1439.58 299.549L1467.86 281.062V-54H-35V281.062L-7.06538 299.499C-25.2612 341.297 -35 385.399 -35 430.945C-35 698.78 301.348 915.891 716.238 915.891Z" fill="#092346"/>
<path d="M1021.64 400.519C1020.14 400.519 1018.66 400.873 1017.33 401.58L891.745 474.096C890.751 474.669 890.162 475.376 890.162 475.999C890.196 476.268 890.313 476.538 890.482 476.757C890.65 476.976 890.869 477.161 891.139 477.262L1017.95 550.468C1019.82 551.546 1023.24 551.378 1025.43 550.115L1151.01 477.599C1152 477.026 1152.59 476.319 1152.59 475.696C1152.56 475.427 1152.44 475.157 1152.27 474.938C1152.1 474.719 1151.88 474.551 1151.61 474.433L1024.8 401.226C1023.83 400.721 1022.73 400.485 1021.62 400.519H1021.64ZM1021.13 553.163C1019.68 553.197 1018.24 552.86 1016.96 552.186L890.145 478.98C889.572 478.71 889.101 478.289 888.764 477.767C888.427 477.245 888.225 476.639 888.191 476.016C888.191 474.652 889.135 473.338 890.751 472.395L1016.33 399.879C1019.16 398.262 1023.3 398.094 1025.78 399.525L1152.59 472.732C1153.16 473.001 1153.63 473.422 1153.99 473.944C1154.32 474.467 1154.53 475.073 1154.56 475.696C1154.56 477.06 1153.62 478.373 1152 479.317L1026.42 551.833C1024.8 552.725 1022.98 553.18 1021.15 553.163H1021.13Z" fill="none" stroke="#1B69FF" stroke-width="2" class="svg-elem-4"></path>
<path d="M419.498 550.484C421.35 551.562 424.786 551.394 426.975 550.13L552.556 477.614C553.55 477.042 554.139 476.334 554.139 475.711C554.105 475.442 553.988 475.173 553.819 474.954C553.651 474.735 553.432 474.549 553.162 474.448L426.352 401.242C424.499 400.164 421.064 400.333 418.875 401.596L293.294 474.112C292.3 474.684 291.711 475.391 291.711 476.015C291.744 476.284 291.862 476.553 292.031 476.772C292.199 476.991 292.418 477.16 292.687 477.278L419.498 550.484ZM422.697 553.179C421.249 553.212 419.801 552.875 418.521 552.202L291.711 478.995C291.138 478.726 290.666 478.305 290.313 477.783C289.976 477.261 289.774 476.655 289.74 476.031C289.74 474.667 290.683 473.354 292.3 472.411L417.881 399.895C420.693 398.278 424.853 398.109 427.329 399.541L554.139 472.748C554.712 473.017 555.183 473.438 555.537 473.96C555.874 474.482 556.076 475.088 556.109 475.728C556.109 477.092 555.166 478.406 553.55 479.349L427.969 551.865C426.352 552.758 424.533 553.212 422.697 553.195V553.179Z" fill="none" stroke="#1B69FF" stroke-width="2" class="svg-elem-5"></path>
<path d="M720.828 561.078C718.167 561.062 715.54 561.718 713.199 562.981L499.137 686.558C497.234 687.67 496.123 689.051 496.123 690.364C496.19 690.954 496.409 691.509 496.746 691.981C497.099 692.453 497.554 692.84 498.093 693.076L714.226 817.865C717.578 819.785 723.691 819.516 727.598 817.259L941.66 693.665C943.563 692.554 944.675 691.173 944.675 689.859C944.607 689.27 944.388 688.714 944.051 688.242C943.698 687.771 943.243 687.384 942.704 687.148L726.571 562.358C724.802 561.432 722.832 560.994 720.828 561.045V561.078ZM719.986 821.284C717.611 821.351 715.271 820.795 713.182 819.684L497.049 694.894C496.19 694.49 495.449 693.85 494.91 693.042C494.371 692.25 494.068 691.324 494.018 690.364C494.018 688.276 495.5 686.238 498.076 684.756L712.138 561.163C716.769 558.485 723.556 558.232 727.615 560.573L943.748 685.363C944.607 685.767 945.348 686.407 945.887 687.198C946.426 687.99 946.729 688.916 946.78 689.876C946.78 691.964 945.298 694.002 942.721 695.501L728.659 819.095C725.998 820.56 723.017 821.301 719.986 821.284Z" fill="none" stroke="#1B69FF" stroke-width="2" class="svg-elem-6"></path>
<path d="M994.674 871.417C996.324 872.781 997.284 874.802 997.284 876.941H998.244C998.244 874.515 997.166 872.208 995.28 870.676L994.674 871.417ZM1387.8 692.754C1389.18 691.036 1389.77 688.813 1389.45 686.64L1388.51 686.775C1388.8 688.695 1388.27 690.649 1387.06 692.164L1387.8 692.754ZM997.284 898.092C997.284 903.313 1002.15 907.203 1007.24 905.923L1007 904.997C1002.54 906.108 998.244 902.706 998.244 898.092H997.284ZM1380.44 652.235C1382.51 653.296 1383.95 655.283 1384.28 657.59L1385.23 657.456C1384.86 654.845 1383.22 652.589 1380.88 651.393L1380.44 652.252V652.235ZM1389.45 686.624L1385.23 657.456L1384.28 657.59L1388.51 686.758L1389.45 686.624ZM1374.97 707.439C1379.64 702.757 1384.97 696.273 1387.8 692.754L1387.06 692.164C1384.23 695.684 1378.93 702.134 1374.3 706.782L1374.97 707.456V707.439ZM1380.88 651.376L1100.67 508.449L1100.23 509.308L1380.44 652.235L1380.88 651.376ZM1007.24 905.923C1102.84 882.043 1263.96 818.924 1374.99 707.439L1374.31 706.765C1263.47 818.082 1102.54 881.134 1007.02 904.997L1007.25 905.923H1007.24ZM997.284 876.941V898.092H998.244V876.941H997.284ZM850.82 752.858L994.674 871.417L995.28 870.676L851.427 752.117L850.82 752.858Z" fill="none" stroke="#1B69FF" stroke-width="2" class="svg-elem-7"></path>
<path d="M57.6922 654.713C55.3345 655.926 53.7178 658.199 53.3642 660.826L54.3072 660.961C54.6272 658.654 56.0587 656.633 58.1301 655.572L57.6922 654.73V654.713ZM50.0802 684.521C49.7603 686.828 50.4002 689.119 51.9495 690.87L52.6737 690.23C51.3264 688.698 50.7539 686.677 51.0233 684.639L50.0802 684.504V684.521ZM489.959 910.557C489.723 915.154 485.328 918.405 480.899 917.226L480.646 918.152C485.682 919.499 490.633 915.811 490.902 910.608L489.942 910.557H489.959ZM381.438 890.988C420.458 902.035 462.475 913.319 480.646 918.152L480.899 917.226C462.728 912.393 420.71 901.109 381.707 890.062L381.455 890.988H381.438ZM166.837 794.929C191.727 810.675 232.482 831.035 273.438 849.273C314.395 867.529 355.604 883.679 381.438 890.988L381.69 890.062C355.924 882.77 314.765 866.637 273.826 848.398C232.886 830.16 192.182 809.816 167.342 794.104L166.837 794.912V794.929ZM493.31 885.885C493.344 885.734 493.479 885.464 493.765 885.043C494.035 884.622 494.405 884.117 494.893 883.494C495.853 882.264 497.201 880.665 498.902 878.745C502.287 874.905 507.036 869.803 512.677 863.891C523.961 852.052 538.831 836.929 553.634 822.042C568.437 807.138 583.189 792.47 594.237 781.524C599.76 776.05 604.358 771.503 607.575 768.337C609.191 766.754 610.454 765.508 611.313 764.649C611.751 764.228 612.071 763.908 612.29 763.689C612.408 763.571 612.492 763.504 612.543 763.437C612.576 763.403 612.593 763.386 612.61 763.369C612.61 763.369 612.61 763.369 612.273 763.033C611.936 762.696 611.936 762.696 611.936 762.696C611.936 762.696 611.903 762.729 611.869 762.763C611.818 762.814 611.734 762.898 611.616 763.016C611.397 763.235 611.061 763.555 610.64 763.976C609.781 764.818 608.518 766.064 606.901 767.664C603.684 770.847 599.087 775.377 593.563 780.85C582.516 791.796 567.763 806.481 552.96 821.369C538.157 836.273 523.287 851.395 511.987 863.234C506.345 869.162 501.596 874.265 498.194 878.122C496.493 880.042 495.129 881.659 494.152 882.922C493.664 883.545 493.277 884.083 492.99 884.538C492.704 884.976 492.502 885.346 492.418 885.65L493.344 885.902L493.31 885.885ZM490.885 910.624C491.104 906.347 491.424 901.227 491.828 896.647C492.233 892.049 492.721 888.024 493.294 885.885L492.367 885.633C491.778 887.872 491.273 891.982 490.869 896.562C490.464 901.16 490.144 906.279 489.926 910.574L490.885 910.624ZM51.9159 690.887C63.3844 703.905 117.157 763.538 166.82 794.946L167.325 794.137C117.797 762.814 64.1085 703.282 52.6232 690.264L51.899 690.904L51.9159 690.887ZM53.3305 660.843L50.0465 684.538L50.9896 684.673L54.2736 660.978L53.3305 660.843ZM341.205 508.957L57.6585 654.747L58.0964 655.589L341.643 509.799L341.205 508.957Z" fill="none" stroke="#1B69FF" stroke-width="2" class="svg-elem-8"></path>
<path opacity="0.5" d="M335.237 464.974V441.799L339.479 439.438C340.67 446.668 349.21 451.445 356.336 452.43L404.877 480.79L426.068 488.429L493.698 453.563L492.135 452.671C497.921 449.976 501.028 443.806 504.154 438.175L508.712 440.888L511.41 441.65V465.216C511.41 468.227 509.419 471.219 505.456 473.505L437.696 512.571C429.77 517.143 416.858 517.143 408.932 512.571L341.172 473.505C337.265 471.256 335.293 468.301 335.219 465.346C335.219 465.216 335.219 465.086 335.219 464.956L335.237 464.974Z" fill="#5284D8"/>
<path d="M335.237 444.363V429.031L339.479 426.67C340.67 433.9 349.21 438.676 356.336 439.661L404.877 468.022L426.068 475.661L493.698 440.795L492.135 439.903C497.921 437.208 501.028 431.038 504.154 425.407L508.712 428.12L511.41 428.882V444.605C511.41 447.616 509.419 450.608 505.456 452.894L437.696 491.96C429.77 496.532 416.858 496.532 408.932 491.96L341.172 452.894C337.265 450.645 335.293 447.709 335.219 444.735C335.219 444.605 335.219 444.475 335.219 444.345L335.237 444.363Z" fill="url(#paint0_linear_9_33672)"/>
<path opacity="0.3" d="M356.336 439.68L404.877 468.041L423.314 474.694V495.435C418.309 495.528 413.36 494.358 408.932 491.997L341.172 452.931C337.265 450.682 335.293 447.746 335.219 444.772C335.219 444.642 335.219 444.512 335.219 444.382V429.049L339.107 426.893H339.517C340.838 434.012 349.266 438.714 356.336 439.68Z" fill="#0F054C"/>
<path d="M423.328 383.906L430.882 381.917L447.664 391.767L504.168 425.425C501.042 431.057 497.935 437.227 492.149 439.922L427.942 402.9C426.528 402.138 424.947 401.766 423.328 401.803V383.925V383.906Z" fill="url(#paint1_linear_9_33672)"/>
<path d="M437.715 476.404L505.475 437.338C513.401 432.766 513.401 425.314 505.475 420.742L437.734 381.676C429.808 377.104 416.896 377.104 408.97 381.676L341.21 420.742C333.284 425.314 333.284 432.766 341.21 437.338L408.97 476.404C416.896 480.976 429.808 480.976 437.734 476.404H437.715Z" fill="url(#paint2_linear_9_33672)"/>
<path d="M341.196 437.338L408.956 476.404C416.882 480.976 429.794 480.976 437.72 476.404L505.48 437.338C509.034 435.294 510.987 432.673 511.359 429.997C511.824 433.305 509.871 436.725 505.48 439.253L437.72 478.319C429.794 482.891 416.882 482.891 408.956 478.319L341.196 439.253C336.805 436.725 334.852 433.305 335.317 429.997C335.689 432.673 337.643 435.294 341.196 437.338Z" fill="white"/>
<path d="M435.799 475.308L503.559 436.242C510.443 432.283 510.443 425.815 503.559 421.857L435.818 382.791C428.934 378.832 417.752 378.832 410.868 382.791L343.108 421.857C336.224 425.815 336.224 432.283 343.108 436.242L410.85 475.308C417.734 479.285 428.915 479.266 435.799 475.308ZM416.803 386.211C420.897 384.129 425.752 384.129 429.846 386.211L497.587 425.277C501.178 427.358 501.178 430.722 497.587 432.804L429.827 471.869C425.734 473.932 420.896 473.932 416.785 471.869L349.025 432.804C345.434 430.722 345.434 427.358 349.025 425.277L416.785 386.211H416.803Z" fill="url(#paint3_linear_9_33672)"/>
<path fill-rule="evenodd" clip-rule="evenodd" d="M442.635 356.313C445.089 357.413 447.304 359.033 449.119 361.083L450.962 358.083C452.7 355.503 446.178 351.013 444.783 352.803L442.625 356.313H442.635Z" fill="#0064C8"/>
<path fill-rule="evenodd" clip-rule="evenodd" d="M410.479 422.622L402.734 417.943L402.935 418.062L403.135 418.173L403.336 418.283L403.546 418.383L403.756 418.483L403.966 418.583L404.176 418.673L404.396 418.763L404.616 418.843L404.835 418.923L405.055 418.993L405.275 419.062L405.504 419.122L405.733 419.182L405.962 419.233L406.191 419.283L406.43 419.333L406.669 419.372L406.908 419.413L407.146 419.443L407.385 419.473L407.624 419.493L407.872 419.513H408.121L408.369 419.533H409.123L409.381 419.513L409.639 419.493L409.897 419.473L410.155 419.443L410.403 419.413L410.661 419.383L410.919 419.343L411.177 419.303L411.434 419.253L411.692 419.203L411.95 419.143L412.208 419.083L412.475 419.013L412.743 418.943L413.01 418.872L413.278 418.793L413.545 418.713L413.812 418.622L414.08 418.533L414.357 418.432L414.634 418.333L414.911 418.223L415.188 418.113L415.465 417.993L415.741 417.872L416.018 417.753L416.295 417.622L416.582 417.483L416.868 417.343L417.155 417.203L417.441 417.053L417.728 416.903L418.014 416.743L418.301 416.583L418.587 416.413L418.874 416.243L419.16 416.062L419.447 415.883L419.733 415.703L420.02 415.513L420.306 415.323L420.593 415.122L420.879 414.923L421.166 414.723L421.452 414.513L421.729 414.303L422.006 414.093L422.283 413.872L422.56 413.653L422.837 413.432L423.114 413.203L423.391 412.973L423.668 412.743L423.935 412.503L424.203 412.263L424.47 412.023L424.738 411.773L425.005 411.523L425.272 411.273L425.54 411.013L425.798 410.753L426.055 410.493L426.313 410.233L426.571 409.963L426.829 409.693L427.087 409.423L427.345 409.143L427.593 408.863L427.851 408.573L428.109 408.283L428.367 407.983L428.624 407.682L428.882 407.383L429.131 407.083L429.379 406.773L429.627 406.463L429.875 406.153L430.124 405.843L430.363 405.523L430.601 405.203L430.84 404.883L431.079 404.562L431.318 404.233L431.556 403.903L431.785 403.573L432.015 403.243L432.244 402.913L432.473 402.573L432.693 402.233L432.912 401.893L433.132 401.553L433.352 401.213L433.571 400.863L433.781 400.513L433.992 400.163L434.202 399.812L434.412 399.463L434.612 399.113L434.813 398.753L435.013 398.393L435.214 398.033L435.405 397.673L435.596 397.312L435.787 396.953L435.978 396.593L436.159 396.233L436.341 395.863L436.522 395.493L436.704 395.122L436.876 394.753L437.048 394.383L437.219 394.013L437.382 393.643L437.544 393.273L437.706 392.893L437.869 392.513L438.022 392.133L438.174 391.753L438.327 391.372L438.47 390.993L438.614 390.613L438.757 390.233L438.891 389.853L439.024 389.473L439.158 389.093L439.282 388.713L439.406 388.333L439.531 387.953L439.645 387.573L439.76 387.193L439.874 386.813L439.979 386.433L440.084 386.063L440.18 385.693L440.275 385.323L440.371 384.953L440.466 384.583L440.552 384.213L440.638 383.843L440.724 383.473L440.801 383.103L440.877 382.733L440.953 382.363L441.02 381.993L441.087 381.623L441.154 381.263L441.211 380.903L441.269 380.543L441.326 380.183L441.374 379.823L441.421 379.463L441.46 379.103L441.498 378.743L441.536 378.383L441.565 378.023L441.593 377.663L441.622 377.303L441.641 376.943L441.66 376.583L441.679 376.223V375.873L441.698 375.523V375.173V374.823V374.123L441.689 373.783V373.443L441.66 373.103L441.641 372.773L441.622 372.443L441.593 372.113L441.565 371.793L441.536 371.473L441.498 371.153L441.46 370.843L441.421 370.533L441.374 370.223L441.326 369.923L441.269 369.623L441.211 369.323L441.154 369.033L441.087 368.743L441.02 368.453L440.953 368.173L440.877 367.893L440.801 367.613L440.724 367.343L440.638 367.073L440.552 366.803L440.466 366.543L440.371 366.283L440.275 366.033L440.18 365.783L440.084 365.533L439.979 365.293L439.874 365.043L439.76 364.803L439.645 364.563L439.531 364.323L439.406 364.093L439.282 363.863L439.158 363.643L439.024 363.423L438.891 363.203L438.757 362.993L438.614 362.783L438.47 362.573L438.327 362.373L438.174 362.173L438.022 361.983L437.869 361.793L437.706 361.613L437.544 361.433L437.382 361.253L437.219 361.083L437.048 360.913L436.876 360.753L436.704 360.593L436.522 360.433L436.341 360.283L436.159 360.133L435.978 359.993L435.787 359.853L435.596 359.723L435.405 359.593L435.214 359.463L435.013 359.343L442.758 364.023L442.959 364.143L443.15 364.273L443.341 364.403L443.532 364.533L443.723 364.673L443.904 364.813L444.086 364.963L444.267 365.113L444.449 365.273L444.621 365.433L444.793 365.593L444.964 365.763L445.127 365.933L445.289 366.113L445.452 366.293L445.614 366.473L445.767 366.663L445.919 366.853L446.072 367.053L446.216 367.253L446.359 367.463L446.502 367.673L446.636 367.883L446.769 368.103L446.903 368.323L447.037 368.543L447.161 368.773L447.285 369.003L447.4 369.243L447.514 369.483L447.629 369.723L447.734 369.973L447.839 370.213L447.935 370.463L448.03 370.713L448.126 370.963L448.221 371.223L448.307 371.483L448.393 371.753L448.479 372.023L448.555 372.293L448.632 372.573L448.708 372.853L448.775 373.133L448.842 373.423L448.909 373.713L448.966 374.003L449.023 374.303L449.081 374.603L449.128 374.903L449.176 375.213L449.214 375.523L449.252 375.833L449.291 376.153L449.319 376.473L449.348 376.793L449.377 377.123L449.396 377.453L449.415 377.783L449.434 378.123V378.463L449.453 378.803V379.153V379.503V380.213L449.443 380.563V380.913L449.415 381.273L449.396 381.633L449.377 381.993L449.348 382.353L449.319 382.713L449.291 383.073L449.252 383.433L449.214 383.793L449.176 384.153L449.128 384.513L449.081 384.873L449.023 385.233L448.966 385.593L448.909 385.953L448.842 386.313L448.775 386.683L448.708 387.053L448.632 387.423L448.555 387.793L448.479 388.163L448.393 388.533L448.307 388.903L448.221 389.273L448.126 389.643L448.03 390.013L447.935 390.383L447.839 390.753L447.734 391.122L447.629 391.503L447.514 391.883L447.4 392.263L447.285 392.643L447.161 393.023L447.037 393.403L446.903 393.783L446.769 394.163L446.636 394.543L446.502 394.923L446.359 395.303L446.216 395.682L446.072 396.062L445.919 396.443L445.767 396.823L445.614 397.203L445.452 397.583L445.289 397.953L445.127 398.323L444.964 398.693L444.793 399.062L444.621 399.432L444.449 399.803L444.267 400.173L444.086 400.543L443.904 400.913L443.723 401.273L443.532 401.633L443.341 401.993L443.15 402.353L442.959 402.713L442.758 403.073L442.558 403.432L442.357 403.793L442.157 404.143L441.947 404.493L441.737 404.843L441.527 405.193L441.316 405.543L441.097 405.893L440.877 406.233L440.657 406.573L440.438 406.913L440.218 407.253L439.989 407.593L439.76 407.923L439.531 408.253L439.301 408.583L439.063 408.913L438.824 409.243L438.585 409.562L438.346 409.883L438.108 410.203L437.869 410.523L437.621 410.833L437.372 411.143L437.124 411.453L436.876 411.763L436.627 412.062L436.369 412.363L436.112 412.663L435.854 412.963L435.596 413.253L435.338 413.543L435.09 413.823L434.832 414.103L434.574 414.372L434.316 414.643L434.058 414.913L433.801 415.173L433.543 415.432L433.285 415.693L433.017 415.953L432.75 416.203L432.483 416.453L432.215 416.703L431.948 416.943L431.68 417.182L431.413 417.423L431.136 417.653L430.859 417.883L430.582 418.113L430.305 418.333L430.028 418.553L429.751 418.773L429.474 418.983L429.197 419.193L428.911 419.403L428.624 419.603L428.338 419.803L428.051 420.003L427.765 420.193L427.478 420.383L427.192 420.562L426.905 420.743L426.619 420.923L426.332 421.093L426.046 421.263L425.759 421.423L425.473 421.583L425.186 421.733L424.9 421.883L424.613 422.023L424.327 422.163L424.04 422.293L423.763 422.423L423.487 422.543L423.21 422.663L422.933 422.783L422.656 422.893L422.379 423.003L422.102 423.103L421.825 423.203L421.557 423.293L421.29 423.383L421.023 423.463L420.755 423.543L420.488 423.613L420.22 423.682L419.953 423.753L419.695 423.812L419.437 423.872L419.179 423.923L418.922 423.973L418.664 424.013L418.406 424.053L418.148 424.083L417.9 424.113L417.642 424.143L417.384 424.163L417.126 424.182H416.868L416.611 424.203H415.856L415.608 424.182L415.359 424.163L415.121 424.143L414.882 424.113L414.643 424.083L414.404 424.043L414.166 424.003L413.927 423.953L413.698 423.903L413.469 423.853L413.239 423.793L413.01 423.733L412.791 423.663L412.571 423.593L412.351 423.513L412.132 423.432L411.912 423.343L411.702 423.253L411.492 423.153L411.282 423.053L411.072 422.953L410.871 422.843L410.67 422.733L410.47 422.613L410.479 422.622Z" fill="url(#paint4_linear_9_33672)"/>
<path fill-rule="evenodd" clip-rule="evenodd" d="M424.196 364.603C411.743 372.133 401.648 390.433 401.648 405.493C401.648 420.553 411.743 426.652 424.196 419.122C436.649 411.592 446.744 393.292 446.744 378.232C446.744 363.172 436.649 357.073 424.196 364.603Z" fill="#1983DB"/>
<path fill-rule="evenodd" clip-rule="evenodd" d="M418.886 354.922L419.602 354.503L420.319 354.103L421.025 353.723L421.732 353.372L422.429 353.042L423.126 352.742L423.814 352.462L424.501 352.202L425.179 351.973L425.848 351.762L426.516 351.582L427.175 351.422L427.825 351.283L428.474 351.172L429.114 351.082L429.744 351.012L430.365 350.962L430.976 350.932H431.588L432.18 350.952L432.772 350.992L433.354 351.052L433.927 351.142L434.491 351.253L435.045 351.383L435.589 351.533L436.124 351.702L436.649 351.892L437.165 352.103L437.661 352.332L438.148 352.592L445.893 357.272L445.406 357.012L444.91 356.783L444.394 356.572L443.869 356.383L443.334 356.212L442.79 356.062L442.236 355.932L441.672 355.822L441.099 355.732L440.517 355.672L439.925 355.633L439.333 355.612H438.721L438.11 355.642L437.489 355.693L436.859 355.762L436.219 355.853L435.57 355.962L434.92 356.103L434.262 356.262L433.593 356.443L432.924 356.652L432.246 356.883L431.559 357.142L430.871 357.422L430.174 357.723L429.477 358.052L428.77 358.402L428.064 358.783L427.347 359.182L426.631 359.603L425.915 360.052L425.199 360.522L424.492 361.003L423.785 361.503L423.088 362.022L422.391 362.562L421.703 363.112C421.703 363.112 421.359 363.392 421.016 363.682C420.672 363.972 420.338 364.272 420.338 364.272L419.669 364.872L419.001 365.492L418.342 366.133L417.692 366.783L417.043 367.443L416.403 368.122L415.773 368.812L415.152 369.512L414.541 370.232L413.939 370.962L413.347 371.702L412.755 372.452L412.172 373.223L411.599 374.003L411.036 374.792L410.482 375.592L409.938 376.402L409.403 377.223L408.878 378.042L408.362 378.872L407.865 379.712L407.378 380.562L406.901 381.413L406.433 382.272L405.974 383.142L405.526 384.012L405.096 384.892L404.676 385.783L404.265 386.672L403.873 387.572L403.491 388.473L403.119 389.372L402.766 390.283L402.422 391.192L402.097 392.103L401.782 393.012L401.486 393.923L401.199 394.842L400.932 395.762L400.674 396.682L400.435 397.603L400.206 398.522L399.996 399.442L399.796 400.353L399.614 401.262L399.452 402.173L399.309 403.082L399.175 403.993L399.06 404.892L398.965 405.793L398.888 406.692L398.831 407.582L398.783 408.473L398.755 409.353V410.233V411.092L398.783 411.942L398.831 412.772L398.888 413.592L398.965 414.392L399.06 415.173L399.175 415.942L399.309 416.692L399.452 417.423L399.614 418.132L399.796 418.832L399.996 419.512L400.206 420.173L400.435 420.812L400.674 421.432L400.932 422.043L401.199 422.632L401.486 423.202L401.782 423.752L402.097 424.283L402.422 424.793L402.766 425.283L403.119 425.752L403.491 426.212L403.873 426.652L404.265 427.072L404.676 427.473L405.096 427.853L405.526 428.212L405.974 428.553L406.433 428.872L398.688 424.192L398.229 423.872L397.781 423.533L397.351 423.173L396.931 422.793L396.52 422.392L396.128 421.973L395.746 421.533L395.374 421.072L395.021 420.603L394.677 420.113L394.352 419.603L394.037 419.072L393.741 418.522L393.454 417.952L393.187 417.363L392.929 416.752L392.69 416.132L392.461 415.493L392.251 414.832L392.051 414.152L391.869 413.452L391.707 412.743L391.563 412.012L391.43 411.262L391.315 410.493L391.22 409.712L391.143 408.913L391.076 408.092L391.029 407.262L391 406.413V405.553V404.673L391.029 403.793L391.076 402.902L391.143 402.012L391.22 401.113L391.315 400.212L391.43 399.312L391.563 398.402L391.707 397.493L391.869 396.582L392.051 395.673L392.251 394.762L392.461 393.842L392.69 392.923L392.929 392.002L393.187 391.082L393.454 390.163L393.741 389.243L394.037 388.332L394.352 387.422L394.677 386.512L395.021 385.603L395.374 384.693L395.746 383.792L396.128 382.892L396.52 382.003L396.931 381.112L397.351 380.223L397.781 379.342L398.229 378.473L398.688 377.603L399.156 376.742L399.633 375.892L400.12 375.042L400.617 374.202L401.133 373.372L401.658 372.552L402.193 371.732L402.737 370.922L403.291 370.122L403.854 369.332L404.427 368.552L405.01 367.783L405.602 367.033L406.194 366.292L406.796 365.562L407.407 364.842L408.028 364.142L408.658 363.452L409.298 362.772L409.947 362.112L410.597 361.462L411.256 360.822L411.924 360.202L412.593 359.603L413.271 359.012L413.958 358.443L414.646 357.892L415.343 357.353L416.04 356.832L416.747 356.332L417.454 355.853L418.17 355.383L418.896 354.932L418.886 354.922Z" fill="url(#paint5_linear_9_33672)"/>
<path fill-rule="evenodd" clip-rule="evenodd" d="M410.104 422.372L402.359 417.693L402.55 417.823L402.751 417.943L410.496 422.622L410.295 422.503L410.104 422.372Z" fill="#333C5E"/>
<path fill-rule="evenodd" clip-rule="evenodd" d="M442.779 364.062L435.034 359.382L434.833 359.262L434.633 359.152L442.378 363.832L442.578 363.942L442.779 364.062Z" fill="#333C5E"/>
<path fill-rule="evenodd" clip-rule="evenodd" d="M406.901 381.412C411.953 372.252 418.925 364.262 426.632 359.602C434.339 354.942 441.31 354.502 446.362 357.562C451.414 360.622 454.537 367.162 454.537 376.472C454.537 385.782 451.414 396.112 446.362 405.262C441.31 414.412 434.339 422.412 426.632 427.072C418.925 431.732 411.953 432.173 406.901 429.113C401.849 426.053 398.727 419.512 398.727 410.202C398.727 400.892 401.849 390.562 406.901 381.412ZM442.771 364.062C440.517 362.752 437.92 362.222 435.36 362.542C432.266 362.952 429.287 364.032 426.622 365.732C423.394 367.742 420.453 370.222 417.893 373.102C412.192 379.492 407.952 387.173 405.526 395.542C404.418 399.302 403.836 403.212 403.798 407.142C403.721 410.402 404.313 413.652 405.526 416.662C407.532 421.822 412.622 424.912 417.893 424.142C420.988 423.742 423.967 422.652 426.622 420.952C429.86 418.942 432.801 416.462 435.36 413.582C441.062 407.192 445.292 399.512 447.728 391.152C448.835 387.392 449.418 383.482 449.456 379.552C449.533 376.292 448.94 373.042 447.728 370.042C446.715 367.552 444.977 365.472 442.771 364.082V364.062Z" fill="#F2F5FC" stroke="#F2F5FC"/>
<path d="M438.826 368.754L422.219 398.874L422.814 399.234L439.422 369.114L438.826 368.754Z" fill="#C9C9C9"/>
<path fill-rule="evenodd" clip-rule="evenodd" d="M423.991 399.973L422.797 399.253L430.446 385.373L439.404 369.133L440.589 369.853L437.609 375.263L423.991 399.973Z" fill="#EAEAEA"/>
<path fill-rule="evenodd" clip-rule="evenodd" d="M414.102 398.733C414.742 398.353 415.257 398.663 415.257 399.433C415.209 400.283 414.78 401.063 414.102 401.523L408.257 405.063C407.617 405.443 407.102 405.133 407.102 404.363C407.149 403.513 407.579 402.733 408.257 402.273L414.102 398.733ZM437.499 387.383C436.859 387.763 436.344 387.453 436.344 386.683C436.391 385.833 436.821 385.053 437.499 384.593L443.344 381.053C443.984 380.673 444.499 380.983 444.499 381.753C444.452 382.603 444.022 383.383 443.344 383.843L437.499 387.383ZM424.645 407.903C424.693 407.053 425.122 406.273 425.8 405.813C426.44 405.433 426.956 405.743 426.956 406.513V413.583C426.908 414.433 426.479 415.213 425.8 415.673C425.161 416.053 424.645 415.743 424.645 414.973V407.903ZM426.956 378.223C426.908 379.073 426.488 379.853 425.8 380.313C425.161 380.693 424.645 380.383 424.645 379.613V372.543C424.693 371.693 425.122 370.913 425.8 370.453C426.44 370.073 426.956 370.383 426.956 371.153V378.223Z" fill="#EAEAEA"/>
<path fill-rule="evenodd" clip-rule="evenodd" d="M429.211 353.242V355.822L429.192 355.932L429.163 356.042L429.125 356.152L429.078 356.262L429.02 356.372L428.953 356.482L428.877 356.592L428.791 356.702L428.696 356.802L428.59 356.902L428.476 357.002L428.352 357.102L428.218 357.192L428.075 357.282L427.922 357.372L427.769 357.452L427.607 357.532L427.444 357.602L427.273 357.662L427.101 357.722L426.929 357.772L426.747 357.822L426.566 357.862L426.384 357.902L426.193 357.932L426.002 357.962L425.811 357.982H425.62L425.429 358.002H424.856L424.665 357.982L424.474 357.962L424.283 357.932L424.092 357.902L423.911 357.862L423.73 357.822L423.548 357.772L423.376 357.722L423.204 357.662L423.032 357.602L422.87 357.532L422.708 357.452L422.555 357.372L422.402 357.282L422.259 357.192L422.125 357.102L422.001 357.002L421.886 356.902L421.781 356.802L421.686 356.702L421.6 356.592L421.523 356.482L421.457 356.372L421.399 356.262L421.352 356.152L421.313 356.042L421.285 355.932L421.266 355.822V353.242L421.285 353.352L421.313 353.462L421.352 353.572L421.399 353.682L421.457 353.792L421.523 353.902L421.6 354.012L421.686 354.122L421.781 354.222L421.886 354.322L422.001 354.422L422.125 354.522L422.259 354.612L422.402 354.702L422.555 354.792L422.708 354.872L422.87 354.952L423.032 355.022L423.204 355.082L423.376 355.142L423.548 355.192L423.73 355.242L423.911 355.282L424.092 355.322L424.283 355.352L424.474 355.382L424.665 355.402H424.856L425.047 355.422H425.62L425.811 355.402L426.002 355.382L426.193 355.352L426.384 355.322L426.566 355.282L426.747 355.242L426.929 355.192L427.101 355.142L427.273 355.082L427.444 355.022L427.607 354.952L427.769 354.872L427.922 354.792L428.075 354.702L428.218 354.612L428.352 354.522L428.476 354.422L428.59 354.322L428.696 354.222L428.791 354.122L428.877 354.012L428.953 353.902L429.02 353.792L429.078 353.682L429.125 353.572L429.163 353.462L429.192 353.352L429.211 353.242Z" fill="url(#paint6_linear_9_33672)"/>
<path fill-rule="evenodd" clip-rule="evenodd" d="M433.805 348.703V351.013L433.758 351.263L433.691 351.513L433.605 351.753L433.5 351.993L433.376 352.233L433.223 352.473L433.051 352.703L432.86 352.933L432.65 353.153L432.421 353.373L432.172 353.583L431.905 353.793L431.618 353.993L431.313 354.183L430.988 354.363L430.654 354.533L430.31 354.693L429.957 354.843L429.594 354.983L429.221 355.103L428.839 355.213L428.457 355.313L428.066 355.403L427.665 355.483L427.264 355.553L426.863 355.603L426.452 355.643L426.041 355.673L425.631 355.693H425.22H424.809L424.399 355.673L423.988 355.643L423.577 355.603L423.167 355.553L422.766 355.483L422.365 355.403L421.973 355.313L421.591 355.213L421.209 355.103L420.837 354.983L420.474 354.843L420.12 354.693L419.776 354.533L419.442 354.363L419.118 354.183L418.812 353.993L418.525 353.793L418.258 353.583L418.01 353.373L417.781 353.153L417.57 352.933L417.379 352.703L417.208 352.473L417.055 352.233L416.931 351.993L416.826 351.753L416.74 351.513L416.673 351.263L416.625 351.013V348.703L416.673 348.953L416.74 349.203L416.826 349.443L416.931 349.683L417.055 349.923L417.208 350.163L417.379 350.393L417.57 350.623L417.781 350.843L418.01 351.063L418.258 351.273L418.525 351.483L418.812 351.683L419.118 351.873L419.442 352.053L419.776 352.223L420.12 352.383L420.474 352.533L420.837 352.673L421.209 352.793L421.591 352.903L421.973 353.003L422.365 353.093L422.766 353.173L423.167 353.243L423.577 353.293L423.988 353.333L424.399 353.363L424.809 353.383H425.22H425.631L426.041 353.363L426.452 353.333L426.863 353.293L427.264 353.243L427.665 353.173L428.066 353.093L428.457 353.003L428.839 352.903L429.221 352.793L429.594 352.673L429.957 352.533L430.31 352.383L430.654 352.223L430.988 352.053L431.313 351.873L431.618 351.683L431.905 351.483L432.172 351.273L432.421 351.063L432.65 350.843L432.86 350.623L433.051 350.393L433.223 350.163L433.366 349.923L433.49 349.683L433.595 349.443L433.681 349.203L433.748 348.953L433.796 348.713L433.805 348.703Z" fill="url(#paint7_linear_9_33672)"/>
<path fill-rule="evenodd" clip-rule="evenodd" d="M419.146 344.523C422.976 342.493 427.493 342.493 431.322 344.523C434.684 346.553 434.684 349.853 431.322 351.883C427.493 353.913 422.976 353.913 419.146 351.883C415.785 349.853 415.785 346.553 419.146 344.523Z" fill="#F2F5FC" stroke="#F2F5FC"/>
<path opacity="0.5" d="M367.906 430.109V250H478.719V430.109C478.644 431.001 478.105 431.763 477.305 432.134L426.754 461.295C424.596 462.391 422.047 462.391 419.871 461.295L369.32 432.134C368.502 431.781 367.962 431.001 367.906 430.109Z" fill="url(#paint8_linear_9_33672)"/>
<path opacity="0.5" d="M933.019 464.974V441.799L937.261 439.438C938.451 446.668 946.991 451.445 954.117 452.43L1002.66 480.79L1023.85 488.429L1091.48 453.563L1089.92 452.671C1095.7 449.976 1098.81 443.806 1101.94 438.175L1106.49 440.888L1109.19 441.65V465.216C1109.19 468.227 1107.2 471.219 1103.24 473.505L1035.48 512.571C1027.55 517.143 1014.64 517.143 1006.71 512.571L938.954 473.505C935.047 471.256 933.074 468.301 933 465.346C933 465.216 933 465.086 933 464.956L933.019 464.974Z" fill="#5284D8"/>
<path d="M933.019 444.363V429.031L937.261 426.67C938.451 433.9 946.991 438.676 954.117 439.661L1002.66 468.022L1023.85 475.661L1091.48 440.795L1089.92 439.903C1095.7 437.208 1098.81 431.038 1101.94 425.407L1106.49 428.12L1109.19 428.882V444.605C1109.19 447.616 1107.2 450.608 1103.24 452.894L1035.48 491.96C1027.55 496.532 1014.64 496.532 1006.71 491.96L938.954 452.894C935.047 450.645 933.074 447.709 933 444.735C933 444.605 933 444.475 933 444.345L933.019 444.363Z" fill="url(#paint9_linear_9_33672)"/>
<path opacity="0.3" d="M954.117 439.68L1002.66 468.041L1021.1 474.694V495.435C1016.09 495.528 1011.14 494.358 1006.71 491.997L938.954 452.931C935.047 450.682 933.074 447.746 933 444.772C933 444.642 933 444.512 933 444.382V429.049L936.888 426.893H937.298C938.619 434.012 947.047 438.714 954.117 439.68Z" fill="#0F054C"/>
<path d="M1021.11 383.906L1028.66 381.917L1045.44 391.767L1101.95 425.425C1098.82 431.057 1095.72 437.227 1089.93 439.922L1025.72 402.9C1024.31 402.138 1022.73 401.766 1021.11 401.803V383.925V383.906Z" fill="url(#paint10_linear_9_33672)"/>
<path d="M1035.5 476.404L1103.26 437.338C1111.18 432.766 1111.18 425.314 1103.26 420.742L1035.51 381.676C1027.59 377.104 1014.68 377.104 1006.75 381.676L938.991 420.742C931.065 425.314 931.065 432.766 938.991 437.338L1006.75 476.404C1014.68 480.976 1027.59 480.976 1035.51 476.404H1035.5Z" fill="url(#paint11_linear_9_33672)"/>
<path d="M938.97 437.338L1006.73 476.404C1014.66 480.976 1027.57 480.976 1035.49 476.404L1103.25 437.338C1106.81 435.294 1108.76 432.673 1109.13 429.997C1109.6 433.305 1107.64 436.725 1103.25 439.253L1035.49 478.319C1027.57 482.891 1014.66 482.891 1006.73 478.319L938.97 439.253C934.579 436.725 932.625 433.305 933.091 429.997C933.463 432.673 935.416 435.294 938.97 437.338Z" fill="white"/>
<path d="M1033.58 475.308L1101.34 436.242C1108.22 432.283 1108.22 425.815 1101.34 421.857L1033.6 382.791C1026.72 378.832 1015.53 378.832 1008.65 382.791L940.89 421.857C934.006 425.815 934.006 432.283 940.89 436.242L1008.63 475.308C1015.51 479.285 1026.7 479.266 1033.58 475.308ZM1014.58 386.211C1018.68 384.129 1023.53 384.129 1027.63 386.211L1095.37 425.277C1098.96 427.358 1098.96 430.722 1095.37 432.804L1027.61 471.869C1023.52 473.932 1018.68 473.932 1014.57 471.869L946.806 432.804C943.215 430.722 943.215 427.358 946.806 425.277L1014.57 386.211H1014.58Z" fill="url(#paint12_linear_9_33672)"/>
<path d="M1045.08 341.82L1017.77 323L1004.19 331.1L1009.57 365.15L1017.17 380.37L1009.48 423.57L1045.62 383.16L1032.47 371.61L1045.07 341.81L1045.08 341.82Z" fill="#0064C8"/>
<path d="M1031.51 349.92L1004.19 331.1L996 373.25L1014.93 386.29L1004.07 424.7C1003.77 425.74 1004.34 426.83 1005.33 427.14C1006.08 427.37 1006.87 427.1 1007.35 426.46L1033.54 391.28L1018.91 379.72L1031.51 349.92Z" fill="#1983DB"/>
<path opacity="0.5" d="M965.688 430.109V250H1076.5V430.109C1076.43 431.001 1075.89 431.763 1075.09 432.134L1024.54 461.295C1022.38 462.391 1019.83 462.391 1017.65 461.295L967.101 432.134C966.283 431.781 965.743 431.001 965.688 430.109Z" fill="url(#paint13_linear_9_33672)"/>
<g style="mix-blend-mode:multiply" opacity="0.54">
<path d="M835.889 701.092C841.082 704.217 841.102 709.262 835.934 712.37L728.552 776.956C723.384 780.065 714.991 780.053 709.798 776.931L601.893 712.05C596.699 708.925 596.679 703.88 601.847 700.772L709.228 575.875C714.396 572.767 722.789 572.778 727.982 575.901L835.889 701.092Z" fill="#5CAEFF"/>
</g>
<path d="M845.619 608.425C845.606 608.57 845.596 608.716 845.57 608.861C845.548 608.979 845.512 609.096 845.481 609.213C845.446 609.35 845.412 609.487 845.364 609.623C845.324 609.735 845.27 609.847 845.219 609.959C845.156 610.104 845.094 610.245 845.018 610.386C844.963 610.488 844.897 610.59 844.834 610.691C844.734 610.853 844.629 611.013 844.511 611.171C844.438 611.264 844.366 611.356 844.289 611.448C844.106 611.667 843.912 611.876 843.707 612.074C843.63 612.147 843.562 612.225 843.479 612.299C843.348 612.417 843.201 612.531 843.058 612.646C842.931 612.748 842.809 612.852 842.672 612.951C842.516 613.064 842.345 613.169 842.177 613.281C842.009 613.393 841.841 613.508 841.655 613.617L730.46 678.234C730.039 678.474 729.605 678.692 729.162 678.888C729.033 678.946 728.902 679 728.77 679.056C728.418 679.201 728.058 679.338 727.689 679.466C727.557 679.51 727.428 679.559 727.294 679.601C727.063 679.673 726.824 679.738 726.587 679.803C726.407 679.851 726.229 679.904 726.046 679.948C725.797 680.008 725.542 680.058 725.288 680.11C725.114 680.145 724.943 680.183 724.767 680.216C724.253 680.307 723.731 680.378 723.205 680.434C723.044 680.452 722.88 680.461 722.717 680.475C722.409 680.501 722.099 680.524 721.788 680.537C721.59 680.545 721.392 680.55 721.194 680.553C720.942 680.559 720.691 680.56 720.439 680.557C720.23 680.557 720.021 680.547 719.812 680.539C719.579 680.53 719.346 680.518 719.114 680.502C718.902 680.487 718.69 680.47 718.48 680.449C718.25 680.427 718.021 680.401 717.793 680.372C717.588 680.346 717.383 680.317 717.178 680.286C716.936 680.247 716.694 680.205 716.452 680.159C716.26 680.122 716.069 680.087 715.879 680.043C715.592 679.98 715.309 679.909 715.028 679.835C714.87 679.793 714.711 679.753 714.555 679.708C714.046 679.562 713.557 679.395 713.079 679.209C713.013 679.184 712.951 679.154 712.886 679.128C712.244 678.873 711.621 678.574 711.021 678.233L599.087 613.609C596.377 612.044 595.023 609.991 595.028 607.942L595 713.26C594.994 715.311 596.348 717.364 599.058 718.928L710.992 783.553C711.592 783.894 712.215 784.192 712.856 784.446C712.898 784.464 712.934 784.488 712.977 784.505C713.001 784.514 713.028 784.521 713.049 784.53C713.526 784.716 714.02 784.88 714.524 785.028C714.565 785.039 714.602 785.057 714.644 785.068C714.759 785.101 714.88 785.124 714.997 785.155C715.278 785.228 715.561 785.3 715.848 785.363C715.925 785.381 716 785.403 716.077 785.419C716.19 785.443 716.307 785.458 716.421 785.48C716.662 785.526 716.902 785.568 717.148 785.605C717.246 785.621 717.342 785.643 717.438 785.657C717.534 785.672 717.656 785.679 717.76 785.693C717.988 785.722 718.217 785.747 718.446 785.77C718.556 785.78 718.664 785.797 718.774 785.806C718.884 785.815 718.979 785.815 719.081 785.823C719.313 785.839 719.546 785.85 719.779 785.86C719.895 785.864 720.011 785.875 720.127 785.879C720.22 785.879 720.313 785.879 720.406 785.879C720.657 785.882 720.909 785.879 721.16 785.875C721.285 785.875 721.409 785.875 721.534 785.875C721.607 785.875 721.68 785.863 721.752 785.86C722.063 785.847 722.372 785.824 722.682 785.798C722.805 785.788 722.931 785.786 723.054 785.773C723.093 785.77 723.127 785.761 723.169 785.757C723.695 785.702 724.216 785.629 724.732 785.539C724.756 785.535 724.782 785.534 724.804 785.529C724.955 785.502 725.099 785.464 725.248 785.434C725.502 785.383 725.757 785.332 726.008 785.272C726.19 785.228 726.366 785.176 726.547 785.127C726.785 785.062 727.023 784.998 727.256 784.925C727.305 784.909 727.358 784.897 727.406 784.882C727.491 784.854 727.567 784.818 727.65 784.789C728.019 784.663 728.379 784.527 728.73 784.38C728.862 784.324 728.995 784.271 729.124 784.212C729.567 784.016 730 783.798 730.42 783.558L841.629 718.934L841.797 718.834C841.924 718.758 842.031 718.676 842.152 718.598C842.32 718.489 842.49 718.38 842.646 718.268C842.782 718.169 842.905 718.066 843.032 717.963C843.177 717.848 843.322 717.734 843.452 717.616C843.479 717.592 843.513 717.569 843.539 717.543C843.593 717.493 843.63 717.439 843.684 717.389C843.889 717.191 844.083 716.982 844.266 716.764C844.305 716.716 844.356 716.673 844.393 716.626C844.43 716.58 844.453 716.533 844.488 716.487C844.606 716.328 844.711 716.168 844.81 716.006C844.853 715.939 844.908 715.873 844.946 715.805C844.966 715.77 844.977 715.732 844.995 715.701C845.068 715.556 845.133 715.417 845.196 715.274C845.232 715.19 845.281 715.108 845.313 715.023C845.323 714.995 845.327 714.967 845.337 714.938C845.385 714.802 845.419 714.665 845.455 714.528C845.479 714.435 845.516 714.343 845.534 714.25C845.539 714.225 845.539 714.201 845.543 714.177C845.569 714.032 845.579 713.887 845.592 713.742C845.601 713.648 845.622 713.554 845.624 713.46C845.624 713.42 845.624 713.38 845.624 713.339L845.653 608.02C845.653 608.157 845.632 608.29 845.619 608.425Z" fill="url(#paint14_linear_9_33672)"/>
<path d="M841.597 602.354C846.984 605.464 847.013 610.503 841.66 613.617L730.462 678.235C725.11 681.345 716.411 681.345 711.024 678.235L599.09 613.609C593.703 610.499 593.674 605.46 599.027 602.35L710.225 537.729C715.577 534.619 724.276 534.619 729.663 537.729L841.597 602.354Z" fill="url(#paint15_linear_9_33672)"/>
<path d="M840.738 594.987C840.726 595.126 840.716 595.265 840.691 595.403C840.67 595.516 840.636 595.628 840.606 595.741C840.572 595.873 840.54 596.005 840.493 596.135C840.455 596.243 840.404 596.353 840.357 596.458C840.297 596.595 840.238 596.733 840.164 596.869C840.111 596.967 840.048 597.064 839.988 597.16C839.892 597.315 839.791 597.469 839.677 597.621C839.61 597.71 839.537 597.799 839.464 597.887C839.288 598.098 839.102 598.298 838.904 598.488C838.832 598.561 838.759 598.633 838.686 598.706C838.561 598.82 838.42 598.929 838.282 599.04C838.16 599.138 838.042 599.237 837.911 599.33C837.761 599.439 837.597 599.542 837.436 599.648C837.274 599.753 837.112 599.866 836.934 599.97L730.065 662.077C729.669 662.307 729.248 662.513 728.818 662.708C728.694 662.763 728.567 662.815 728.442 662.869C728.102 663.01 727.756 663.142 727.402 663.262C727.275 663.305 727.151 663.352 727.023 663.392C726.8 663.465 726.571 663.524 726.343 663.586C726.17 663.633 725.999 663.684 725.823 663.726C725.584 663.784 725.339 663.833 725.096 663.882C724.93 663.916 724.765 663.955 724.595 663.983C724.101 664.071 723.6 664.139 723.094 664.192C722.939 664.209 722.782 664.219 722.626 664.232C722.329 664.256 722.031 664.278 721.733 664.291C721.542 664.299 721.352 664.304 721.161 664.307C720.919 664.312 720.677 664.314 720.435 664.311C720.234 664.311 720.032 664.301 719.832 664.294C719.608 664.285 719.384 664.274 719.161 664.258C718.958 664.244 718.754 664.227 718.551 664.207C718.333 664.185 718.111 664.161 717.892 664.134C717.694 664.11 717.497 664.081 717.301 664.051C717.067 664.015 716.834 663.974 716.603 663.93C716.419 663.895 716.235 663.857 716.052 663.818C715.776 663.758 715.505 663.69 715.235 663.618C715.083 663.578 714.931 663.54 714.781 663.496C714.295 663.354 713.821 663.196 713.362 663.017C713.299 662.992 713.239 662.964 713.176 662.938C712.56 662.693 711.961 662.406 711.384 662.079L603.811 599.97C601.206 598.466 599.905 596.492 599.91 594.52L599.883 604.33C599.877 606.299 601.178 608.273 603.783 609.779L711.357 671.887C711.933 672.214 712.532 672.501 713.148 672.746C713.188 672.762 713.221 672.785 713.264 672.802C713.287 672.81 713.312 672.817 713.336 672.826C713.795 673.004 714.269 673.163 714.753 673.304C714.793 673.315 714.826 673.332 714.868 673.343C714.979 673.375 715.095 673.397 715.208 673.426C715.478 673.499 715.749 673.566 716.026 673.626C716.098 673.643 716.171 673.666 716.244 673.681C716.352 673.703 716.462 673.717 716.573 673.738C716.805 673.783 717.036 673.823 717.27 673.86C717.365 673.874 717.457 673.895 717.552 673.908C717.647 673.921 717.759 673.93 717.862 673.943C718.08 673.971 718.298 673.995 718.522 674.016C718.627 674.026 718.731 674.042 718.836 674.051C718.942 674.061 719.033 674.06 719.131 674.067C719.354 674.083 719.577 674.094 719.802 674.103C719.914 674.107 720.025 674.118 720.137 674.12C720.226 674.12 720.316 674.12 720.404 674.12C720.646 674.124 720.888 674.12 721.131 674.12C721.25 674.12 721.37 674.12 721.49 674.12C721.563 674.12 721.631 674.11 721.702 674.106C722.001 674.093 722.298 674.072 722.595 674.046C722.714 674.037 722.835 674.035 722.954 674.022C722.991 674.022 723.027 674.011 723.064 674.007C723.572 673.955 724.071 673.886 724.565 673.799C724.589 673.793 724.614 673.793 724.638 673.788C724.783 673.762 724.921 673.726 725.063 673.697C725.308 673.647 725.553 673.599 725.794 673.541C725.969 673.498 726.139 673.448 726.312 673.402C726.541 673.339 726.77 673.278 726.993 673.207C727.041 673.192 727.091 673.181 727.139 673.166C727.219 673.139 727.293 673.104 727.373 673.077C727.727 672.956 728.073 672.825 728.411 672.684C728.538 672.63 728.665 672.579 728.79 672.522C729.215 672.333 729.631 672.123 730.035 671.892L836.902 609.788C836.956 609.757 837.01 609.725 837.063 609.693C837.184 609.62 837.288 609.54 837.404 609.465C837.565 609.36 837.73 609.257 837.879 609.148C838.01 609.053 838.127 608.953 838.25 608.857C838.388 608.747 838.528 608.639 838.654 608.524C838.68 608.5 838.712 608.479 838.737 608.455C838.789 608.407 838.825 608.356 838.874 608.31C839.072 608.12 839.259 607.919 839.434 607.709C839.471 607.664 839.52 607.623 839.556 607.577C839.592 607.531 839.613 607.488 839.647 607.443C839.76 607.291 839.861 607.137 839.957 606.982C839.998 606.916 840.051 606.854 840.088 606.788C840.106 606.755 840.117 606.721 840.134 606.688C840.207 606.552 840.267 606.415 840.327 606.278C840.362 606.197 840.409 606.119 840.44 606.037C840.45 606.01 840.453 605.983 840.463 605.955C840.509 605.824 840.542 605.693 840.576 605.561C840.599 605.472 840.635 605.383 840.653 605.294C840.658 605.271 840.657 605.247 840.661 605.221C840.687 605.083 840.696 604.944 840.708 604.806C840.716 604.715 840.737 604.625 840.74 604.535C840.74 604.497 840.74 604.457 840.74 604.419L840.767 594.609C840.771 594.73 840.75 594.859 840.738 594.987Z" fill="url(#paint16_linear_9_33672)"/>
<path d="M836.866 589.152C842.043 592.142 842.07 596.984 836.927 599.973L730.06 662.077C724.917 665.066 716.557 665.066 711.379 662.077L603.807 599.97C598.63 596.981 598.602 592.138 603.746 589.149L710.612 527.045C715.755 524.056 724.116 524.056 729.293 527.045L836.866 589.152Z" fill="url(#paint17_linear_9_33672)"/>
<path d="M845.619 540.328C845.606 540.473 845.596 540.618 845.57 540.764C845.548 540.882 845.512 540.998 845.481 541.116C845.446 541.253 845.412 541.39 845.364 541.526C845.324 541.639 845.27 541.75 845.219 541.862C845.156 542.007 845.094 542.148 845.018 542.29C844.963 542.391 844.897 542.492 844.834 542.594C844.734 542.755 844.629 542.916 844.511 543.074C844.438 543.167 844.366 543.259 844.289 543.351C844.107 543.57 843.913 543.779 843.707 543.977C843.63 544.05 843.562 544.128 843.479 544.201C843.348 544.32 843.201 544.434 843.058 544.549C842.931 544.651 842.809 544.754 842.672 544.854C842.516 544.967 842.345 545.072 842.177 545.184C842.009 545.296 841.841 545.411 841.655 545.52L730.46 610.14C730.038 610.379 729.605 610.598 729.162 610.794C729.033 610.851 728.902 610.906 728.77 610.961C728.418 611.106 728.058 611.243 727.689 611.371C727.557 611.416 727.428 611.464 727.294 611.506C727.063 611.578 726.824 611.643 726.587 611.708C726.407 611.756 726.229 611.809 726.046 611.853C725.797 611.914 725.542 611.964 725.288 612.015C725.114 612.051 724.943 612.088 724.767 612.121C724.253 612.212 723.731 612.283 723.205 612.339C723.044 612.357 722.88 612.367 722.717 612.381C722.408 612.406 722.099 612.429 721.788 612.442C721.59 612.45 721.392 612.455 721.194 612.458C720.942 612.464 720.691 612.465 720.439 612.462C720.23 612.459 720.021 612.453 719.811 612.445C719.579 612.435 719.346 612.423 719.114 612.407C718.902 612.393 718.69 612.375 718.48 612.354C718.25 612.332 718.021 612.306 717.793 612.277C717.588 612.251 717.383 612.222 717.178 612.191C716.935 612.153 716.693 612.11 716.452 612.064C716.26 612.027 716.069 611.992 715.879 611.948C715.592 611.886 715.309 611.815 715.028 611.74C714.87 611.698 714.711 611.658 714.555 611.613C714.046 611.467 713.557 611.3 713.079 611.114C713.013 611.089 712.951 611.059 712.886 611.033C712.244 610.778 711.621 610.479 711.021 610.138L599.087 545.514C596.377 543.949 595.023 541.896 595.028 539.847L595 584.855C594.994 586.905 596.348 588.958 599.058 590.523L710.992 655.147C711.592 655.488 712.215 655.787 712.856 656.041C712.898 656.058 712.934 656.082 712.977 656.099C713.001 656.109 713.028 656.115 713.049 656.125C713.526 656.311 714.02 656.476 714.524 656.622C714.565 656.635 714.602 656.651 714.644 656.663C714.759 656.696 714.88 656.718 714.997 656.749C715.278 656.822 715.561 656.895 715.848 656.958C715.925 656.975 716 656.999 716.077 657.014C716.19 657.038 716.307 657.052 716.421 657.074C716.662 657.12 716.902 657.162 717.148 657.2C717.246 657.215 717.342 657.238 717.438 657.252C717.534 657.265 717.656 657.274 717.76 657.287C717.988 657.316 718.217 657.342 718.446 657.364C718.556 657.374 718.664 657.392 718.774 657.401C718.884 657.409 718.979 657.41 719.081 657.417C719.313 657.433 719.546 657.446 719.779 657.454C719.895 657.459 720.011 657.47 720.127 657.473C720.22 657.473 720.313 657.473 720.406 657.473C720.657 657.477 720.909 657.473 721.16 657.47C721.285 657.47 721.409 657.47 721.534 657.47C721.607 657.47 721.68 657.458 721.752 657.454C722.063 657.441 722.372 657.419 722.682 657.393C722.805 657.382 722.931 657.38 723.054 657.368C723.093 657.364 723.127 657.356 723.169 657.352C723.695 657.297 724.217 657.225 724.732 657.134C724.756 657.129 724.782 657.127 724.804 657.123C724.955 657.096 725.099 657.058 725.248 657.029C725.502 656.977 725.757 656.926 726.008 656.866C726.19 656.821 726.366 656.77 726.547 656.72C726.785 656.656 727.023 656.592 727.256 656.518C727.305 656.502 727.358 656.491 727.406 656.476C727.491 656.448 727.567 656.412 727.65 656.383C728.019 656.257 728.379 656.121 728.73 655.973C728.862 655.918 728.995 655.864 729.124 655.806C729.567 655.61 730 655.392 730.42 655.152L841.619 590.531L841.787 590.432C841.913 590.355 842.021 590.273 842.142 590.195C842.309 590.085 842.48 589.977 842.636 589.865C842.772 589.766 842.894 589.662 843.021 589.56C843.167 589.445 843.312 589.331 843.442 589.213C843.469 589.189 843.502 589.166 843.529 589.14C843.582 589.09 843.62 589.036 843.674 588.986C843.879 588.788 844.073 588.579 844.255 588.36C844.295 588.313 844.346 588.27 844.383 588.223C844.42 588.176 844.443 588.129 844.478 588.083C844.595 587.925 844.701 587.764 844.8 587.603C844.842 587.536 844.898 587.47 844.936 587.402C844.956 587.368 844.967 587.329 844.985 587.298C845.057 587.153 845.123 587.014 845.185 586.871C845.222 586.787 845.27 586.705 845.302 586.621C845.313 586.592 845.317 586.563 845.327 586.535C845.375 586.399 845.408 586.262 845.445 586.124C845.469 586.032 845.506 585.94 845.524 585.847C845.529 585.823 845.528 585.797 845.533 585.774C845.559 585.629 845.569 585.484 845.582 585.338C845.591 585.244 845.612 585.151 845.614 585.056C845.614 585.016 845.614 584.976 845.614 584.936L845.643 539.927C845.653 540.062 845.632 540.196 845.619 540.328Z" fill="url(#paint18_linear_9_33672)"/>
<path d="M841.597 534.986C846.984 538.096 847.013 543.135 841.66 546.248L730.462 610.866C725.11 613.976 716.411 613.976 711.024 610.866L599.09 546.241C593.703 543.131 593.674 538.092 599.027 534.982L710.225 470.36C715.577 467.25 724.276 467.25 729.663 470.36L841.597 534.986Z" fill="#EFF3FA"/>
<path d="M804.091 536C807.811 538.148 807.831 541.628 804.134 543.775L727.334 588.408C723.637 590.556 717.63 590.556 713.909 588.408L636.601 543.773C632.88 541.626 632.86 538.146 636.556 535.999L713.356 491.366C717.053 489.218 723.061 489.218 726.782 491.366L804.091 536Z" fill="#6C96FF"/>
<mask id="mask1_9_33672" style="mask-type:luminance" maskUnits="userSpaceOnUse" x="633" y="489" width="174" height="101">
<path d="M803.864 535.774C807.584 537.922 807.604 541.402 803.908 543.549L727.107 588.182C723.41 590.33 717.403 590.33 713.682 588.182L636.374 543.548C632.653 541.4 632.633 537.92 636.33 535.773L713.13 491.14C716.826 488.992 722.835 488.992 726.555 491.14L803.864 535.774Z" fill="white"/>
</mask>
<g mask="url(#mask1_9_33672)">
<path d="M802.411 572.106C806.131 574.254 806.151 577.734 802.454 579.881L725.654 624.513C721.957 626.662 715.95 626.662 712.229 624.513L634.921 579.879C631.2 577.731 631.18 574.251 634.877 572.104L711.677 527.472C715.373 525.324 721.382 525.324 725.102 527.472L802.411 572.106Z" fill="#6C96FF"/>
</g>
<path d="M776.999 504.167C776.999 491.36 767.842 476.124 756.472 469.878C752.175 453.908 740.571 437.935 726.891 430.697C720.461 427.296 714.504 426.336 709.533 427.43L709.529 427.405L699.682 429.621C699.682 429.621 693.476 437.464 692.707 439.507C690.548 438.019 687.419 436.421 685.259 436.813L674.703 438.832C674.703 438.832 681.543 480.478 693.09 486.588C698.004 489.188 760.47 521.1 760.47 521.1L767.539 518.786L767.516 518.776C773.224 517.604 776.999 512.382 776.999 504.167Z" fill="url(#paint19_linear_9_33672)"/>
<path d="M748.337 472.278C743.793 456.309 731.513 440.336 717.039 433.097C702.566 425.857 690.289 429.552 685.742 440.973C673.712 435.187 664.023 440.732 664.023 453.54C664.023 466.491 673.927 481.944 686.144 488.052C691.344 490.653 742.735 516.354 747.935 518.954C760.152 525.063 770.056 519.517 770.056 506.567C770.055 493.759 760.367 478.523 748.337 472.278Z" fill="#DFF1FA"/>
<path d="M709.448 462.517L701.306 479.338L697.007 477.111L688.891 451.869L693.594 454.305L699.319 472.298L705.123 460.276L709.448 462.517ZM719.149 467.543C720.756 468.361 722.222 469.435 723.489 470.722C724.67 471.913 725.63 473.306 726.323 474.835C726.976 476.27 727.314 477.829 727.316 479.407C727.399 480.662 727.048 481.908 726.321 482.934C725.975 483.341 725.538 483.659 725.045 483.864C724.552 484.068 724.018 484.153 723.486 484.11C721.96 483.996 720.478 483.542 719.149 482.782L715.36 480.819V486.62L711.005 484.365V463.327L719.149 467.543ZM718.907 478.688C719.338 478.983 719.825 479.189 720.337 479.292C720.85 479.394 721.378 479.392 721.889 479.285C722.261 479.074 722.558 478.754 722.741 478.367C722.924 477.98 722.983 477.547 722.911 477.125C722.919 475.961 722.561 474.824 721.889 473.875C721.117 472.809 720.092 471.953 718.907 471.385L715.36 469.547V476.849L718.907 478.688ZM736.857 498.114C735.316 497.307 733.87 496.331 732.545 495.204C731.294 494.18 730.171 493.008 729.2 491.714L730.678 488.812C731.527 489.937 732.49 490.97 733.553 491.895C734.565 492.802 735.684 493.584 736.885 494.221C737.703 494.746 738.654 495.025 739.625 495.024C740.169 494.985 740.51 494.535 740.513 493.845C740.497 493.297 740.314 492.767 739.988 492.326C739.603 491.775 739.152 491.273 738.644 490.834C738.098 490.35 737.359 489.747 736.427 489.024C735.235 488.106 734.062 487.118 732.908 486.062C731.969 485.175 731.176 484.145 730.557 483.011C729.899 481.827 729.561 480.491 729.576 479.136C729.514 478.106 729.829 477.088 730.463 476.274C730.804 475.917 731.223 475.644 731.686 475.475C732.15 475.306 732.646 475.246 733.136 475.301C734.674 475.444 736.164 475.917 737.503 476.689C738.748 477.341 739.927 478.113 741.023 478.995C742.126 479.867 743.135 480.853 744.032 481.936L742.69 484.937C741.238 483.173 739.47 481.696 737.476 480.585C736.676 480.059 735.731 479.801 734.776 479.846C734.23 479.931 733.897 480.422 733.902 481.137C733.945 481.952 734.307 482.717 734.909 483.266C735.871 484.216 736.899 485.096 737.986 485.899C739.179 486.818 740.353 487.806 741.507 488.864C742.44 489.744 743.233 490.764 743.857 491.886C744.517 493.057 744.856 494.384 744.839 495.73C744.899 496.75 744.578 497.757 743.94 498.553C743.592 498.909 743.168 499.18 742.7 499.346C742.232 499.512 741.733 499.57 741.24 499.514C739.697 499.365 738.204 498.888 736.86 498.114H736.857Z" fill="#333C5E"/>
<path opacity="0.4" d="M656 239.546V554.194C656.101 554.584 656.352 554.889 656.704 555.041L718.581 589.605C719.905 590.181 721.43 590.13 722.704 589.435L783.994 555.21C784.447 555.007 784.799 554.618 784.966 554.126H785V238.801L720.508 204L656 239.546Z" fill="url(#paint20_linear_9_33672)"/>
<defs>
<linearGradient id="paint0_linear_9_33672" x1="495.051" y1="393.472" x2="464.372" y2="504.33" gradientUnits="userSpaceOnUse">
<stop stop-color="#CAD1E0"/>
<stop offset="0.44" stop-color="white"/>
<stop offset="1" stop-color="#C8CEDE"/>
</linearGradient>
<linearGradient id="paint1_linear_9_33672" x1="505.355" y1="415.584" x2="424.154" y2="415.584" gradientUnits="userSpaceOnUse">
<stop stop-color="#CAD1E0"/>
<stop offset="0.44" stop-color="white"/>
<stop offset="1" stop-color="#C8CEDE"/>
</linearGradient>
<linearGradient id="paint2_linear_9_33672" x1="509.944" y1="426.194" x2="336.585" y2="426.194" gradientUnits="userSpaceOnUse">
<stop stop-color="white"/>
<stop offset="0.51" stop-color="#CAD1E0"/>
<stop offset="1" stop-color="#C8CEDE"/>
</linearGradient>
<linearGradient id="paint3_linear_9_33672" x1="509.402" y1="429.707" x2="337.856" y2="429.707" gradientUnits="userSpaceOnUse">
<stop stop-color="white"/>
<stop offset="0.51" stop-color="#CAD1E0"/>
<stop offset="1" stop-color="#C8CEDE"/>
</linearGradient>
<linearGradient id="paint4_linear_9_33672" x1="432.197" y1="361.537" x2="432.197" y2="426.377" gradientUnits="userSpaceOnUse">
<stop stop-color="white"/>
<stop offset="0.51" stop-color="#CAD1E0"/>
<stop offset="1" stop-color="#C8CEDE"/>
</linearGradient>
<linearGradient id="paint5_linear_9_33672" x1="423.24" y1="342.973" x2="423.24" y2="420.863" gradientUnits="userSpaceOnUse">
<stop stop-color="white"/>
<stop offset="0.51" stop-color="#CAD1E0"/>
<stop offset="1" stop-color="#C8CEDE"/>
</linearGradient>
<linearGradient id="paint6_linear_9_33672" x1="421" y1="356.551" x2="421" y2="361.311" gradientUnits="userSpaceOnUse">
<stop stop-color="white"/>
<stop offset="0.51" stop-color="#CAD1E0"/>
<stop offset="1" stop-color="#C8CEDE"/>
</linearGradient>
<linearGradient id="paint7_linear_9_33672" x1="417.866" y1="345.24" x2="417.866" y2="352.26" gradientUnits="userSpaceOnUse">
<stop stop-color="white"/>
<stop offset="0.51" stop-color="#CAD1E0"/>
<stop offset="1" stop-color="#C8CEDE"/>
</linearGradient>
<linearGradient id="paint8_linear_9_33672" x1="424.077" y1="305.002" x2="424.077" y2="452.847" gradientUnits="userSpaceOnUse">
<stop stop-color="#AADFF7" stop-opacity="0"/>
<stop offset="1" stop-color="#69A1E3"/>
</linearGradient>
<linearGradient id="paint9_linear_9_33672" x1="1092.83" y1="393.472" x2="1062.15" y2="504.33" gradientUnits="userSpaceOnUse">
<stop stop-color="#CAD1E0"/>
<stop offset="0.44" stop-color="white"/>
<stop offset="1" stop-color="#C8CEDE"/>
</linearGradient>
<linearGradient id="paint10_linear_9_33672" x1="1103.14" y1="415.584" x2="1021.94" y2="415.584" gradientUnits="userSpaceOnUse">
<stop stop-color="#CAD1E0"/>
<stop offset="0.44" stop-color="white"/>
<stop offset="1" stop-color="#C8CEDE"/>
</linearGradient>
<linearGradient id="paint11_linear_9_33672" x1="1107.73" y1="426.194" x2="934.367" y2="426.194" gradientUnits="userSpaceOnUse">
<stop stop-color="white"/>
<stop offset="0.51" stop-color="#CAD1E0"/>
<stop offset="1" stop-color="#C8CEDE"/>
</linearGradient>
<linearGradient id="paint12_linear_9_33672" x1="1107.18" y1="429.707" x2="935.637" y2="429.707" gradientUnits="userSpaceOnUse">
<stop stop-color="white"/>
<stop offset="0.51" stop-color="#CAD1E0"/>
<stop offset="1" stop-color="#C8CEDE"/>
</linearGradient>
<linearGradient id="paint13_linear_9_33672" x1="1021.86" y1="305.002" x2="1021.86" y2="452.847" gradientUnits="userSpaceOnUse">
<stop stop-color="#AADFF7" stop-opacity="0"/>
<stop offset="1" stop-color="#69A1E3"/>
</linearGradient>
<linearGradient id="paint14_linear_9_33672" x1="865.956" y1="415.946" x2="732.701" y2="861.373" gradientUnits="userSpaceOnUse">
<stop stop-color="white"/>
<stop offset="1" stop-color="#C5CCDC"/>
</linearGradient>
<linearGradient id="paint15_linear_9_33672" x1="719.341" y1="692.036" x2="719.846" y2="552.232" gradientUnits="userSpaceOnUse">
<stop stop-color="white"/>
<stop offset="0.545" stop-color="#E7F5FF"/>
<stop offset="1" stop-color="#8BBFFF"/>
</linearGradient>
<linearGradient id="paint16_linear_9_33672" x1="808.489" y1="451.714" x2="791.731" y2="709.967" gradientUnits="userSpaceOnUse">
<stop stop-color="#30508C"/>
<stop offset="1" stop-color="#5080D3"/>
</linearGradient>
<linearGradient id="paint17_linear_9_33672" x1="927.476" y1="631.672" x2="542.113" y2="425.739" gradientUnits="userSpaceOnUse">
<stop stop-color="#30508C"/>
<stop offset="1" stop-color="#5080D3"/>
</linearGradient>
<linearGradient id="paint18_linear_9_33672" x1="831.86" y1="375.403" x2="788.108" y2="709.804" gradientUnits="userSpaceOnUse">
<stop stop-color="white"/>
<stop offset="1" stop-color="#C5CCDC"/>
</linearGradient>
<linearGradient id="paint19_linear_9_33672" x1="674.703" y1="474.05" x2="776.999" y2="474.05" gradientUnits="userSpaceOnUse">
<stop stop-color="#5E98F7"/>
<stop offset="1" stop-color="#4670BA"/>
</linearGradient>
<linearGradient id="paint20_linear_9_33672" x1="720.457" y1="543.073" x2="720.457" y2="318.652" gradientUnits="userSpaceOnUse">
<stop stop-color="#7F9DFF"/>
<stop offset="1" stop-color="white" stop-opacity="0"/>
</linearGradient>
</defs>
</svg>
