<svg width="93" height="86" viewBox="0 0 93 86" fill="none" xmlns="http://www.w3.org/2000/svg">
<path d="M85.3287 53.5252C84.729 52.9556 84.2358 52.2833 83.8727 51.5402C82.7637 49.1572 83.6297 46.7402 85.8727 44.8602C84.0381 43.4682 82.0349 42.3137 79.9107 41.4242C76.2255 42.8094 72.2428 43.2096 68.3557 42.5852C64.2347 41.9412 61.0437 40.3032 59.3457 38.2422C57.9617 38.3362 56.5697 38.4692 55.1847 38.6832C53.7997 38.8972 52.4847 39.1832 51.2047 39.5002C51.5267 41.7752 50.1847 44.1112 47.1707 45.8542C46.5936 46.1659 45.9971 46.4402 45.3847 46.6752C45.1117 46.6282 44.8487 46.5672 44.5697 46.5272C42.8977 46.2712 41.2207 46.1082 39.5507 45.9952C38.8375 46.8327 38.0081 47.5638 37.0877 48.1662C36.7767 48.1662 36.4697 48.1942 36.1597 48.1762C35.9387 48.4762 35.7457 48.7762 35.5517 49.0762C33.3998 50.1584 31.0869 50.8848 28.7027 51.2272C24.0166 51.9793 19.2154 51.4968 14.7727 49.8272C12.2126 50.8973 9.79897 52.2884 7.58972 53.9672C10.2987 56.2382 11.3417 59.1462 10.0057 62.0152C9.56925 62.9119 8.97511 63.7228 8.25171 64.4092C6.17404 66.2958 3.6556 67.63 0.927734 68.2892C1.36909 70.347 2.26607 72.2797 3.55273 73.9452C8.15356 73.6383 12.7496 74.6097 16.8327 76.7522C20.4617 78.8522 22.0747 81.6642 21.6877 84.4082C23.2357 84.7952 24.8217 85.1402 26.4877 85.4002C28.1537 85.6602 29.8297 85.8162 31.4927 85.9272C33.5457 83.4392 37.3857 81.4652 42.3517 80.6912C47.0371 79.9383 51.8379 80.4209 56.2797 82.0912C58.8449 81.017 61.2641 79.6229 63.4797 77.9422C60.7617 75.6742 59.7187 72.7712 61.0547 69.8962C61.3061 69.3838 61.6115 68.8997 61.9657 68.4522C63.5281 69.1035 64.9211 70.1029 66.0387 71.3742C67.4217 71.2742 68.8087 71.1462 70.1957 70.9322C71.5827 70.7182 72.8957 70.4322 74.1807 70.1082C73.8587 67.8332 75.1977 65.5082 78.2097 63.7572C81.5975 61.9791 85.4112 61.173 89.2287 61.4282C90.2948 60.0461 91.0388 58.4435 91.4067 56.7372C89.1437 56.1923 87.0538 55.0879 85.3287 53.5252ZM48.5517 72.1002C48.4947 72.1362 48.4417 72.1762 48.3847 72.2152C48.1567 72.3672 47.9277 72.5152 47.6847 72.6642C47.6017 72.7112 47.5187 72.7642 47.4337 72.8092C47.1867 72.9512 46.9447 73.0912 46.6887 73.2172C46.5817 73.2752 46.4707 73.3232 46.3647 73.3762C46.3455 73.3857 46.3259 73.394 46.3057 73.4012C46.1937 73.4582 46.0877 73.5092 45.9777 73.5602C45.5037 73.7812 45.0187 73.9822 44.5117 74.1602C40.2301 75.652 35.6458 76.0608 31.1677 75.3502C28.1259 74.9491 25.212 73.874 22.6387 72.2032C22.5667 72.1572 22.4867 72.1032 22.4187 72.0552C22.3507 72.0072 22.2857 71.9472 22.2187 71.8992C21.9307 71.6872 21.6637 71.4622 21.4117 71.2342C21.3117 71.1432 21.2027 71.0602 21.1117 70.9662C21.0807 70.9372 21.0457 70.9122 21.0197 70.8832C21.0197 70.8762 21.0257 70.8762 21.0267 70.8762C18.8317 68.7132 18.0597 66.0662 19.2747 63.4512C21.6927 58.2652 30.9237 55.1802 39.9087 56.5682C40.1507 56.6072 40.3817 56.6582 40.6227 56.7022C40.9804 57.1197 41.2829 57.5815 41.5227 58.0762C42.6317 60.4592 41.7657 62.8762 39.5117 64.7552C41.3491 66.1462 43.3534 67.3018 45.4777 68.1952C47.659 67.3685 49.9614 66.9063 52.2927 66.8272C52.2072 67.3941 52.0415 67.9459 51.8007 68.4662C51.0534 69.9406 49.9333 71.1937 48.5517 72.1012V72.1002ZM74.7327 58.8922L74.7397 58.8992C74.7197 58.9172 74.6977 58.9322 74.6777 58.9532C74.4259 59.1889 74.1608 59.4099 73.8837 59.6152C73.7837 59.7012 73.6837 59.7892 73.5757 59.8682C73.4917 59.9292 73.3917 59.9872 73.3027 60.0452C73.1847 60.1312 73.0467 60.2042 72.9187 60.2872C72.7017 60.4212 72.4997 60.5622 72.2627 60.6922C72.4807 60.5732 72.6627 60.4392 72.8627 60.3162C71.8329 60.9355 70.7358 61.4355 69.5927 61.8062C69.0864 60.432 68.3816 59.1393 67.5007 57.9692C62.902 58.2806 58.3069 57.3114 54.2257 55.1692C52.5315 54.2661 51.1145 52.9199 50.1257 51.2742C51.8357 49.2522 54.9907 47.6462 59.0567 47.0142C66.5107 45.8672 74.1747 48.4202 76.1767 52.7252C77.1947 54.9042 76.5587 57.0992 74.7317 58.8932L74.7327 58.8922Z" fill="#F2F5FC"/>
<path d="M70.1348 34.1789C69.6894 32.1204 68.7914 30.187 67.5058 28.5189C62.9072 28.8284 58.3126 27.8593 54.2308 25.7189C50.5958 23.6249 48.9798 20.8049 49.3678 18.0659C47.8298 17.6789 46.2408 17.3319 44.5748 17.0749C42.9088 16.8179 41.2258 16.6589 39.5558 16.5469C37.5108 19.0279 33.6687 21.0069 28.7007 21.7769C24.0147 22.5321 19.2127 22.0495 14.7708 20.3769C12.2114 21.4484 9.79791 22.8394 7.58777 24.5169V34.3359C7.82577 34.5359 8.03576 34.7489 8.24976 34.9579C6.17276 36.8463 3.6542 38.1819 0.925781 38.8419V48.6579C1.36825 50.7165 2.2651 52.6503 3.55078 54.3179C8.15099 54.0083 12.7471 54.9773 16.8307 57.1179C20.4597 59.2179 22.0728 62.0329 21.6858 64.7749C23.2338 65.1619 24.8198 65.5049 26.4858 65.7659C28.1518 66.0269 29.8278 66.1819 31.4908 66.2979C33.5438 63.8059 37.3838 61.8389 42.3498 61.0609C47.0352 60.3084 51.8358 60.791 56.2778 62.4609C58.8437 61.3881 61.263 59.994 63.4778 58.3119V48.4969C63.2348 48.2969 63.0258 48.0809 62.8108 47.8709C64.8906 45.988 67.4083 44.6552 70.1348 43.9939V34.1789ZM21.0118 41.4339C24.7458 37.7409 32.4028 35.7809 39.8998 36.9339C44.3438 37.6219 47.8927 39.2739 50.0497 41.4009C46.3137 45.1009 38.6588 47.0569 31.1658 45.9009C26.7168 45.2169 23.1668 43.5599 21.0118 41.4339Z" fill="white"/>
<path d="M44.4697 44.7256C46.5442 44.0273 48.4459 42.8945 50.0477 41.4026C47.8907 39.2756 44.3417 37.6236 39.8977 36.9356C32.3977 35.7786 24.7427 37.7356 21.0097 41.4356C21.8975 42.2937 22.9021 43.0219 23.9937 43.5986C19.6267 41.2296 17.5997 37.5876 19.2647 34.0036C21.6827 28.8206 30.9137 25.7366 39.8987 27.1246C48.8837 28.5126 54.2037 33.8336 51.7907 39.0246C50.6437 41.4856 47.9427 43.4706 44.4697 44.7256ZM42.3537 51.2436C37.3877 52.0176 33.5477 53.9886 31.4947 56.4806C29.8317 56.3646 28.1607 56.2056 26.4897 55.9486C24.8187 55.6916 23.2327 55.3486 21.6897 54.9616C22.0767 52.2126 20.4637 49.4026 16.8347 47.3046C12.7524 45.16 8.1556 44.1888 3.55469 44.4986C2.26958 42.8318 1.37277 40.8991 0.929688 38.8416V48.6576C1.37215 50.7163 2.269 52.65 3.55469 54.3176C8.15489 54.008 12.7511 54.9771 16.8347 57.1176C20.4637 59.2176 22.0767 62.0326 21.6897 64.7746C23.2377 65.1616 24.8237 65.5046 26.4897 65.7656C28.1557 66.0266 29.8317 66.1816 31.4947 66.2976C33.5477 63.8056 37.3877 61.8386 42.3537 61.0606C47.0391 60.3082 51.8398 60.7907 56.2817 62.4606C58.8476 61.3879 61.2669 59.9937 63.4817 58.3116V48.4966C61.266 50.1763 58.8468 51.5691 56.2817 52.6416C51.8397 50.9721 47.039 50.4898 42.3537 51.2426V51.2436ZM70.1327 34.1766C65.8187 35.3556 62.3877 37.5766 61.0517 40.4516C59.7157 43.3266 60.7577 46.2276 63.4767 48.4986C63.2337 48.2986 63.0247 48.0826 62.8097 47.8726C64.8895 45.9898 67.4072 44.657 70.1337 43.9956L70.1327 34.1766ZM10.0027 32.5636C11.3387 29.6956 10.2957 26.7876 7.58667 24.5156V34.3346C7.82467 34.5346 8.03472 34.7476 8.24872 34.9566C8.97223 34.2707 9.56634 33.4601 10.0027 32.5636Z" fill="#F2F5FC"/>
<path d="M31.4959 67.2266H31.432C29.481 67.0906 27.8659 66.9186 26.3499 66.6856C24.8159 66.4466 23.2179 66.1176 21.4619 65.6786C21.2399 65.623 21.0464 65.4872 20.9186 65.2974C20.7909 65.1076 20.7379 64.8771 20.77 64.6506C21.116 62.1976 19.5119 59.7506 16.3699 57.9256C12.4406 55.8722 8.02015 54.945 3.59693 55.2466C3.44631 55.2506 3.29685 55.2191 3.16065 55.1547C3.02445 55.0902 2.90533 54.9946 2.81294 54.8756C1.44386 53.0985 0.490168 51.0374 0.0219209 48.8436C0.00967297 48.7837 0.00363561 48.7227 0.00391555 48.6616V38.8456C0.00397582 38.6426 0.0708109 38.4452 0.19404 38.2838C0.317269 38.1225 0.490069 38.0061 0.685922 37.9526C2.93898 37.3906 5.05042 36.3659 6.88593 34.9436C6.74213 34.7767 6.66269 34.5639 6.66194 34.3436V24.5246C6.66184 24.3835 6.69406 24.2442 6.75611 24.1175C6.81817 23.9908 6.90845 23.88 7.01997 23.7936C9.29221 22.0679 11.7735 20.6366 14.4049 19.5336C14.6304 19.437 14.885 19.4338 15.1129 19.5246C19.4015 21.1325 24.0352 21.5947 28.557 20.8656C33.105 20.1596 36.8569 18.3726 38.8399 15.9656C38.934 15.8529 39.0533 15.7639 39.1881 15.7057C39.3228 15.6475 39.4694 15.6218 39.6159 15.6306C41.5639 15.7616 43.1829 15.9306 44.716 16.1676C46.229 16.4006 47.8249 16.7306 49.5949 17.1756C49.8167 17.2313 50.0101 17.3672 50.1376 17.557C50.2652 17.7468 50.3181 17.9771 50.286 18.2036C49.937 20.6596 51.5439 23.1086 54.6939 24.9246C58.6215 26.9787 63.0409 27.9063 67.463 27.6046C67.6143 27.5983 67.7649 27.6288 67.9018 27.6936C68.0387 27.7584 68.1578 27.8555 68.2489 27.9766C69.6165 29.7541 70.571 31.814 71.0429 34.0066C71.0555 34.0671 71.062 34.1288 71.062 34.1906V44.0096C71.0618 44.2124 70.9951 44.4097 70.8721 44.571C70.7491 44.7323 70.5765 44.8488 70.3809 44.9026C68.1298 45.4651 66.019 46.4865 64.1809 47.9026C64.3272 48.0706 64.4078 48.2858 64.408 48.5086V58.3236C64.408 58.4649 64.3756 58.6043 64.3134 58.7312C64.2511 58.8581 64.1607 58.969 64.049 59.0556C61.7731 60.7861 59.2865 62.2203 56.6489 63.3236C56.5373 63.3722 56.4171 63.398 56.2954 63.3995C56.1736 63.4011 56.0528 63.3783 55.9399 63.3326C51.6516 61.7268 47.0194 61.2633 42.4979 61.9876C37.9449 62.7006 34.1979 64.4876 32.2109 66.8986C32.1232 67.0025 32.0137 67.0858 31.8901 67.1425C31.7665 67.1992 31.6319 67.2279 31.4959 67.2266ZM22.6679 64.0606C24.0749 64.3946 25.3789 64.6546 26.6329 64.8506C27.9749 65.0566 29.4049 65.2146 31.0989 65.3406C33.4269 62.7746 37.4399 60.8926 42.2109 60.1406C46.9306 59.3917 51.7628 59.8432 56.2619 61.4536C58.4876 60.4934 60.5971 59.2836 62.5499 57.8476V48.9036C62.4579 48.8176 62.3679 48.7296 62.2799 48.6416L62.1639 48.5286C62.0758 48.4423 62.0057 48.3394 61.9579 48.2257C61.9101 48.112 61.8854 47.9899 61.8854 47.8666C61.8854 47.7432 61.9101 47.6212 61.9579 47.5075C62.0057 47.3938 62.0758 47.2908 62.1639 47.2046C64.17 45.3609 66.5853 44.02 69.2109 43.2926V34.2636C68.8242 32.5301 68.0886 30.8936 67.049 29.4536C62.4383 29.6826 57.8512 28.6649 53.77 26.5076C50.265 24.4876 48.3449 21.7076 48.3879 18.7646C46.9649 18.4236 45.6879 18.1706 44.4359 17.9776C43.0809 17.7686 41.6469 17.6136 39.9559 17.4906C37.6259 20.0596 33.612 21.9406 28.846 22.6796C24.1266 23.4312 19.294 22.9807 14.7949 21.3696C12.5737 22.3293 10.468 23.537 8.51795 24.9696V33.9176C8.63095 34.0246 8.74092 34.1316 8.84992 34.2396L8.90296 34.2916C8.99065 34.3777 9.06025 34.4804 9.1078 34.5937C9.15534 34.707 9.17982 34.8287 9.17982 34.9516C9.17982 35.0745 9.15534 35.1961 9.1078 35.3095C9.06025 35.4228 8.99065 35.5255 8.90296 35.6116C6.89964 37.4615 4.48314 38.8059 1.85493 39.5326V48.5606C2.23868 50.2941 2.97268 51.931 4.01191 53.3706C8.62424 53.1428 13.2129 54.1601 17.2969 56.3156C20.7919 58.3456 22.7089 61.1306 22.6679 64.0606ZM35.4509 47.1506C33.9689 47.1515 32.4889 47.0392 31.0239 46.8146C26.5329 46.1206 22.7469 44.4426 20.3609 42.0886C20.2739 42.0023 20.2049 41.8996 20.1577 41.7865C20.1106 41.6734 20.0863 41.5521 20.0863 41.4296C20.0863 41.307 20.1106 41.1857 20.1577 41.0726C20.2049 40.9595 20.2739 40.8568 20.3609 40.7706C24.3729 36.8026 32.4659 34.8486 40.0419 36.0186C44.5299 36.7126 48.315 38.3886 50.7 40.7406C50.7873 40.8266 50.8567 40.9292 50.9041 41.0424C50.9514 41.1555 50.9758 41.2769 50.9758 41.3996C50.9758 41.5222 50.9514 41.6436 50.9041 41.7568C50.8567 41.8699 50.7873 41.9725 50.7 42.0586C47.465 45.2606 41.5789 47.1546 35.4519 47.1546L35.4509 47.1506ZM22.3959 41.4286C25.0062 43.3685 28.0772 44.5942 31.3059 44.9846C37.8939 46.0026 44.8339 44.5356 48.6639 41.4016C46.0539 39.4646 42.9846 38.2401 39.7579 37.8486C33.1709 36.8356 26.2259 38.2996 22.3959 41.4326V41.4286Z" fill="#005BEA"/>
<path d="M33.9795 23.7147C36.241 24.2634 38.3289 25.3701 40.0525 26.9337C39.8735 27.1037 39.7005 27.2797 39.5015 27.4507V35.5987C41.3382 36.9905 43.3426 38.1459 45.4675 39.0377C49.1536 37.6487 53.1389 37.2484 57.0275 37.8767C61.1505 38.5207 64.3365 40.1507 66.0365 42.2197C67.4195 42.1197 68.8075 41.9917 70.1935 41.7787C71.5795 41.5657 72.8935 41.2787 74.1785 40.9617C73.8565 38.6827 75.1955 36.3467 78.2075 34.6037C81.5959 32.8276 85.4093 32.0226 89.2265 32.2777C90.2919 30.8941 91.0359 29.2906 91.4045 27.5837V19.4357C89.1399 18.8889 87.0497 17.7804 85.3265 16.2127C85.5035 16.0387 85.6785 15.8667 85.8755 15.6967V7.54868C84.04 6.15797 82.037 5.00358 79.9135 4.11267C76.2282 5.49752 72.2456 5.89769 68.3585 5.27368C64.2375 4.63368 61.0465 2.99469 59.3485 0.929688C57.9645 1.02369 56.5725 1.1577 55.1875 1.3707C53.8025 1.5837 52.4875 1.87068 51.2075 2.18768C51.5295 4.46668 50.1875 6.80268 47.1735 8.54568C43.7859 10.3217 39.9728 11.1253 36.1565 10.8677C35.0884 12.2519 34.3442 13.858 33.9785 15.5677L33.9795 23.7147ZM66.3145 25.2907C60.0955 26.2567 53.7435 24.6297 50.6405 21.5627C53.005 19.4966 55.9448 18.2031 59.0655 17.8557C65.2875 16.8937 71.6405 18.5207 74.7385 21.5877C72.3736 23.6514 69.4342 24.9428 66.3145 25.2887V25.2907Z" fill="#1B69FF"/>
<g style="mix-blend-mode:overlay" opacity="0.3">
<path d="M49.1975 19.5798C47.1915 15.2798 51.6165 10.8568 59.0655 9.70578C66.5145 8.55478 74.1835 11.1128 76.1855 15.4178C77.5685 18.3898 75.8855 21.4098 72.2635 23.3848C73.1682 22.9028 74.0012 22.2969 74.7385 21.5848C71.6385 18.5178 65.2875 16.8898 59.0655 17.8528C55.9448 18.2002 53.005 19.4937 50.6405 21.5598C51.9713 22.7973 53.5493 23.7386 55.2705 24.3218C52.3895 23.2758 50.1515 21.6308 49.1975 19.5798ZM45.4665 30.8898C43.3416 29.9979 41.3372 28.8426 39.5005 27.4508V35.5988C41.3372 36.9906 43.3416 38.1459 45.4665 39.0378C49.1525 37.6488 53.1379 37.2485 57.0265 37.8768C61.1495 38.5208 64.3355 40.1508 66.0355 42.2198C67.4185 42.1198 68.8065 41.9918 70.1925 41.7788C71.5785 41.5658 72.8925 41.2788 74.1775 40.9618C73.8555 38.6828 75.1945 36.3468 78.2065 34.6038C81.5949 32.8277 85.4083 32.0227 89.2255 32.2778C90.2909 30.8942 91.0349 29.2907 91.4035 27.5838V19.4358C91.0364 21.142 90.2922 22.7444 89.2255 24.1258C85.4076 23.8697 81.5933 24.6769 78.2065 26.4578C75.1935 28.2018 73.8555 30.5338 74.1775 32.8088C72.8925 33.1268 71.5775 33.4158 70.1925 33.6298C68.8075 33.8438 67.4195 33.9728 66.0355 34.0748C64.3355 32.0058 61.1495 30.3678 57.0265 29.7248C53.1388 29.1019 49.1559 29.5031 45.4705 30.8888L45.4665 30.8898ZM33.9785 23.7148C36.24 24.2635 38.328 25.3702 40.0515 26.9338C39.8725 27.1038 39.6995 27.2798 39.5005 27.4508C41.7545 25.5668 42.6205 23.1578 41.5115 20.7708C40.4025 18.3838 37.5575 16.5428 33.9795 15.5708L33.9785 23.7148ZM85.3275 16.2148C85.5045 16.0408 85.6795 15.8688 85.8765 15.6988V7.55078C83.6295 9.43478 82.7625 11.8508 83.8765 14.2298C84.2385 14.972 84.7302 15.6435 85.3285 16.2128L85.3275 16.2148Z" fill="black"/>
</g>
<path d="M66.0367 43.1448C65.8999 43.1448 65.7649 43.1145 65.6412 43.0561C65.5176 42.9976 65.4085 42.9125 65.3217 42.8068C63.7047 40.8398 60.6287 39.3748 56.8847 38.7908C53.1605 38.1886 49.3437 38.5678 45.8107 39.8908C45.6977 39.9366 45.5767 39.9594 45.4548 39.9578C45.3329 39.9563 45.2125 39.9304 45.1007 39.8818C42.9041 38.9592 40.8322 37.7642 38.9337 36.3248C38.8222 36.2381 38.7319 36.1271 38.6697 36.0002C38.6075 35.8734 38.575 35.7341 38.5747 35.5928V27.4448C38.5744 27.2786 38.6193 27.1154 38.7047 26.9728C37.2212 25.8609 35.5315 25.0549 33.7337 24.6018C33.5382 24.5482 33.3657 24.4319 33.2427 24.2707C33.1197 24.1096 33.053 23.9125 33.0527 23.7098V15.5618C33.0531 15.5007 33.0591 15.4398 33.0707 15.3798C33.463 13.5353 34.2644 11.8024 35.4157 10.3088C35.5053 10.1868 35.6239 10.0891 35.7608 10.0244C35.8977 9.95984 36.0486 9.93041 36.1997 9.93882C39.8395 10.1885 43.4775 9.42708 46.7117 7.7388C49.2637 6.2628 50.5687 4.28481 50.2907 2.31281C50.2589 2.08653 50.3118 1.85649 50.4394 1.6669C50.567 1.47732 50.7601 1.34156 50.9817 1.2858C52.4737 0.910801 53.7667 0.644809 55.0497 0.450809C56.3117 0.256809 57.6987 0.109804 59.2867 0.00180433C59.4337 -0.00733575 59.5808 0.0183421 59.7159 0.076725C59.8511 0.135108 59.9706 0.224547 60.0647 0.337803C61.6847 2.3088 64.7647 3.7738 68.5017 4.3548C72.2252 4.95223 76.04 4.5711 79.5717 3.24881C79.7997 3.15845 80.0541 3.16169 80.2797 3.25782C82.4749 4.17956 84.5454 5.37357 86.4427 6.8118C86.5547 6.89838 86.6454 7.00948 86.7078 7.13654C86.7702 7.2636 86.8027 7.40325 86.8027 7.5448V15.6928C86.8026 15.8587 86.7577 16.0214 86.6727 16.1638C88.1556 17.2805 89.8477 18.0878 91.6487 18.5378C91.8447 18.5914 92.0177 18.7079 92.1409 18.8694C92.2642 19.031 92.3308 19.2286 92.3307 19.4318V27.5798C92.3303 27.6419 92.324 27.7039 92.3117 27.7648C91.9164 29.606 91.1157 31.336 89.9677 32.8288C89.8744 32.9468 89.7551 33.0416 89.6191 33.1057C89.4831 33.1699 89.3341 33.2018 89.1837 33.1988C85.5432 32.9486 81.9044 33.71 78.6697 35.3988C76.1197 36.8738 74.8157 38.8528 75.0947 40.8248C75.1267 41.0515 75.0736 41.282 74.9456 41.4719C74.8176 41.6617 74.6239 41.7975 74.4017 41.8528C72.9507 42.2128 71.6207 42.4848 70.3377 42.6868C69.0987 42.8778 67.7537 43.0198 66.1017 43.1368L66.0367 43.1448ZM53.4137 36.6728C54.6716 36.6721 55.9277 36.7683 57.1707 36.9608C61.1327 37.5798 64.4707 39.1368 66.4307 41.2608C67.8227 41.1538 68.9837 41.0258 70.0537 40.8608C71.0537 40.7038 72.0967 40.4998 73.2067 40.2408C73.2277 37.7918 74.8417 35.4808 77.7467 33.7988C81.1363 32.0118 84.9407 31.1599 88.7687 31.3308C89.5895 30.1753 90.1717 28.8678 90.4817 27.4848V20.1268C88.3185 19.5133 86.3311 18.3969 84.6817 16.8688C84.5937 16.7828 84.5238 16.68 84.4761 16.5666C84.4284 16.4532 84.4039 16.3314 84.4039 16.2083C84.4039 16.0853 84.4284 15.9635 84.4761 15.85C84.5238 15.7366 84.5937 15.6339 84.6817 15.5478C84.7737 15.4568 84.8637 15.3688 84.9527 15.2838V8.00382C83.3782 6.85504 81.6824 5.88256 79.8957 5.10382C76.1541 6.42952 72.1405 6.79904 68.2197 6.17881C64.2597 5.56381 60.9197 4.00582 58.9567 1.87882C57.6117 1.97882 56.4207 2.11081 55.3307 2.27881C54.3247 2.43081 53.3087 2.62982 52.1837 2.89682C52.1647 5.34582 50.5487 7.65782 47.6397 9.34082C44.2522 11.1303 40.4478 11.981 36.6207 11.8048C35.7978 12.9598 35.2152 14.2684 34.9077 15.6528V23.0138C37.0697 23.627 39.0568 24.7411 40.7077 26.2658C40.7962 26.353 40.8662 26.457 40.9136 26.5718C40.9611 26.6865 40.9849 26.8097 40.9838 26.9338C40.9827 27.058 40.9567 27.1807 40.9072 27.2946C40.8577 27.4085 40.7857 27.5113 40.6957 27.5968L40.5497 27.7368C40.5117 27.7748 40.4727 27.8128 40.4327 27.8498V35.1298C42.0088 36.2783 43.7059 37.2507 45.4937 38.0298C48.0328 37.1131 50.7143 36.6537 53.4137 36.6728ZM62.7507 26.4868C57.6297 26.4868 52.7047 24.9018 49.9887 22.2188C49.9013 22.1327 49.8319 22.03 49.7845 21.9168C49.7371 21.8036 49.7127 21.682 49.7127 21.5593C49.7127 21.4366 49.7371 21.3151 49.7845 21.2018C49.8319 21.0886 49.9013 20.986 49.9887 20.8998C52.4911 18.6966 55.6089 17.3138 58.9217 16.9378C65.2587 15.9598 72.0267 17.5998 75.3877 20.9278C75.4751 21.0139 75.5445 21.1165 75.5919 21.2296C75.6392 21.3427 75.6636 21.4642 75.6636 21.5868C75.6636 21.7095 75.6392 21.8309 75.5919 21.944C75.5445 22.0572 75.4751 22.1598 75.3877 22.2458C72.8853 24.4472 69.7684 25.8285 66.4567 26.2038C65.2305 26.393 63.9915 26.4876 62.7507 26.4868ZM52.0417 21.5618C55.2207 24.0528 60.8417 25.2028 66.1727 24.3738C68.7557 24.0568 71.218 23.0976 73.3347 21.5838C70.1617 19.0928 64.5467 17.9428 59.2047 18.7678C56.6213 19.0857 54.1589 20.0463 52.0427 21.5618H52.0417Z" fill="#005BEA"/>
</svg>
