<svg width="102" height="125" viewBox="0 0 102 125" fill="none" xmlns="http://www.w3.org/2000/svg">
<path d="M9.48706 106.429V59.0817L2.66211 55.1406V102.489C2.66211 102.567 2.66211 102.629 2.66211 102.706C2.71011 105.377 3.68616 108.396 6.09216 109.886C6.13316 109.912 6.17406 109.936 6.21606 109.961L13.0421 113.901L9.48706 106.429Z" fill="#F2F5FC"/>
<path d="M14.556 115.542L5.74707 110.453C3.46107 109.037 2.061 106.146 2 102.719V53.9922L10.1521 58.6982V106.279L14.556 115.542ZM3.32507 56.2922V102.692C3.37907 105.666 4.54404 108.145 6.44104 109.32L6.552 109.387L11.5271 112.259L8.82703 106.577V59.4652L3.32507 56.2922Z" fill="#1B69FF"/>
<path d="M62.2849 15.2212C65.5299 13.3472 68.4699 13.1752 70.5919 14.4082L63.7668 10.4673C61.6448 9.23426 58.7278 9.3672 55.4818 11.2402L14.2559 35.0572L21.0819 38.9972L62.2849 15.2212Z" fill="#1B69FF"/>
<path d="M21.0856 39.7714L12.9336 35.0654L55.1536 10.6734C58.4796 8.75342 61.6535 8.48039 64.1025 9.90139L70.9026 13.8244L70.9326 13.8414L70.2676 14.9884L70.2416 14.9734C68.2416 13.8264 65.5416 14.1204 62.6246 15.8014L21.0856 39.7714ZM15.5856 35.0654L21.0856 38.2404L61.9565 14.6534C63.4322 13.7551 65.0853 13.1877 66.8016 12.9904L63.4386 11.0494C61.4196 9.8764 58.7136 10.1494 55.8167 11.8224L15.5856 35.0654Z" fill="#1B69FF"/>
<path d="M9.48621 59.0845L21.0802 39.0025L14.2542 35.0625C13.5058 35.4924 12.7905 35.9774 12.1141 36.5135C12.0761 36.5435 12.0412 36.5795 12.0042 36.6135C7.41381 40.4673 4.2611 45.7598 3.05811 51.6315C2.81276 52.7883 2.67892 53.9661 2.6582 55.1485L9.48621 59.0845Z" fill="#1B69FF"/>
<path d="M9.7301 59.9888L2 55.5258V55.1438C2.01796 53.9184 2.155 52.6977 2.40906 51.4988C3.65082 45.4775 6.88475 40.05 11.5891 36.0918C11.6421 36.0438 11.6731 36.0148 11.7061 35.9918C12.4075 35.4375 13.1492 34.9361 13.925 34.4918L14.2561 34.3008L21.988 38.7648L9.7301 59.9888ZM3.33008 54.7628L9.24402 58.1778L20.175 39.2448L14.259 35.8298C13.6572 36.1927 13.079 36.5935 12.5281 37.0298C12.4801 37.0748 12.45 37.1008 12.42 37.1248C7.95575 40.8827 4.88776 46.0352 3.71106 51.7508C3.50449 52.7431 3.37644 53.7502 3.33008 54.7628Z" fill="#1B69FF"/>
<path d="M62.2849 15.2199L21.085 38.9979C15.525 42.2079 10.8769 49.4158 9.75391 56.0778L73.71 19.1688C72.553 13.8198 67.8739 11.9939 62.2849 15.2199Z" fill="white"/>
<path d="M8.86328 57.3569L9.09729 55.9689C10.2683 49.0259 15.1692 41.6469 20.7502 38.4249L61.9503 14.647C64.9983 12.888 67.9673 12.489 70.3073 13.527C71.3726 14.0529 72.296 14.827 72.9999 15.7841C73.7038 16.7412 74.1676 17.8533 74.3523 19.027L74.4523 19.4999L8.86328 57.3569ZM67.5203 14.2859C65.7836 14.3552 64.0949 14.8752 62.6202 15.795L21.4203 39.5729C16.5293 42.3959 12.1892 48.62 10.7032 54.767L72.9532 18.8429C72.7734 17.9621 72.3937 17.1344 71.8434 16.4236C71.2931 15.7127 70.5869 15.1378 69.7793 14.743C69.0662 14.4331 68.2957 14.2773 67.5183 14.2859H67.5203Z" fill="#1B69FF"/>
<path d="M9.48633 106.433C9.50733 113.833 14.8714 116.843 21.2864 113.143L62.4984 89.3489C68.9394 85.6299 74.0094 76.6149 73.9894 69.2139V21.8549C73.9908 20.9532 73.8972 20.0539 73.7103 19.1719L9.75439 56.0809C9.58218 57.0717 9.49414 58.0752 9.49133 59.0809L9.48633 106.433Z" fill="white"/>
<path d="M16.0663 115.395C14.859 115.408 13.6698 115.1 12.6202 114.504C10.1802 113.104 8.83131 110.233 8.82031 106.432V59.0816C8.82315 58.0385 8.91411 56.9974 9.09229 55.9696L9.14429 55.6606L9.41528 55.5046L74.1593 18.1406L74.3513 19.0306C74.5475 19.9581 74.646 20.9036 74.6453 21.8516V69.2096C74.6673 76.8516 69.3633 86.1436 62.8223 89.9196L21.6102 113.714C19.9408 114.749 18.0294 115.328 16.0663 115.395ZM10.1472 106.429C10.1562 109.737 11.2702 112.196 13.2822 113.355C15.3172 114.526 18.0393 114.246 20.9473 112.567L62.1593 88.7726C68.3323 85.2076 73.3382 76.4336 73.3182 69.2126V21.8536C73.3176 21.3072 73.2819 20.7614 73.2113 20.2196L10.3513 56.4956C10.2165 57.35 10.1479 58.2136 10.1462 59.0786L10.1472 106.429Z" fill="#1B69FF"/>
<path d="M33.0296 80.1857L32.0496 80.1007L33.0256 78.8948C33.1395 78.7783 33.2176 78.6316 33.2506 78.472C33.2835 78.3125 33.27 78.1468 33.2116 77.9947C33.1176 77.8607 32.9477 77.8567 32.7727 77.9577C32.6763 78.0155 32.5909 78.09 32.5206 78.1777L31.5446 79.3917V78.0997C31.5446 77.7787 31.3196 77.6427 31.0446 77.7997C30.8982 77.8961 30.7765 78.0256 30.6896 78.1778C30.6028 78.3301 30.5531 78.5007 30.5446 78.6758V79.9677L29.5656 79.8827C29.4766 79.8822 29.3893 79.9068 29.3137 79.9537C29.1119 80.082 28.9579 80.2732 28.8756 80.4977C28.7366 80.8517 28.8216 81.1637 29.0596 81.1877L30.0396 81.2657L29.0637 82.4797C28.9511 82.597 28.8743 82.7441 28.8426 82.9035C28.8109 83.063 28.8254 83.2283 28.8846 83.3797C28.9766 83.5127 29.1506 83.5147 29.3256 83.4147C29.4226 83.3561 29.5078 83.2798 29.5766 83.1897L30.5526 81.9837V83.2757C30.5526 83.5967 30.7776 83.7237 31.0526 83.5627C31.1987 83.4679 31.3202 83.3398 31.4072 83.1889C31.4941 83.038 31.5439 82.8687 31.5526 82.6947V81.4027L32.5316 81.4797C32.6204 81.4861 32.709 81.4633 32.7836 81.4147C32.984 81.285 33.1378 81.0948 33.2226 80.8717C33.3586 80.5107 33.2746 80.2057 33.0296 80.1857Z" fill="#1B69FF"/>
<path d="M40.0283 76.1457L39.0553 76.0556L40.0244 74.8556C40.1382 74.7391 40.2162 74.5924 40.2491 74.4329C40.2821 74.2734 40.2686 74.1078 40.2103 73.9557C40.1163 73.8217 39.9464 73.8167 39.7704 73.9187C39.6742 73.9767 39.5888 74.0512 39.5183 74.1386L38.5423 75.3526V74.0606C38.5423 73.7396 38.3173 73.6037 38.0423 73.7607C37.8959 73.857 37.7743 73.9865 37.6874 74.1388C37.6005 74.291 37.5508 74.4616 37.5423 74.6366V75.9286L36.5633 75.8426C36.4743 75.8419 36.3869 75.8666 36.3114 75.9137C36.1095 76.0423 35.9556 76.2338 35.8734 76.4587C35.7344 76.8117 35.8193 77.1247 36.0643 77.1437L37.0373 77.2256L36.0683 78.4356C35.9541 78.5519 35.8759 78.6986 35.8429 78.8583C35.8099 79.0179 35.8235 79.1836 35.8823 79.3357C35.9371 79.3969 36.0134 79.4346 36.0953 79.4411C36.1772 79.4477 36.2586 79.4224 36.3224 79.3706C36.4198 79.3125 36.505 79.2361 36.5734 79.1457L37.5493 77.9386V79.2306C37.5493 79.5516 37.7743 79.6797 38.0493 79.5187C38.1954 79.4239 38.317 79.2958 38.4039 79.1449C38.4908 78.994 38.5406 78.8246 38.5493 78.6507V77.3586L39.5293 77.4366C39.618 77.4418 39.7062 77.4191 39.7814 77.3716C39.9819 77.2421 40.1357 77.0518 40.2203 76.8287C40.3583 76.4697 40.2723 76.1657 40.0283 76.1457Z" fill="#1B69FF"/>
<path d="M65.2776 54.8945L24.7676 78.2836L24.8016 90.3126L65.3116 66.9235L65.2776 54.8945ZM25.5776 88.9736L25.5486 78.7266L64.5016 56.2366L64.5306 66.4835L25.5776 88.9736Z" fill="#1B69FF"/>
<path d="M47.0313 72.104L46.0513 72.018L47.0273 70.812C47.1399 70.6948 47.2167 70.5478 47.2486 70.3883C47.2805 70.2289 47.2662 70.0636 47.2073 69.912C47.1123 69.777 46.9423 69.774 46.7673 69.875C46.6709 69.9328 46.5856 70.0074 46.5153 70.0951L45.5463 71.305V70.013C45.5463 69.692 45.3143 69.56 45.0353 69.721C44.8889 69.8174 44.7672 69.9469 44.6803 70.0991C44.5935 70.2514 44.5438 70.4219 44.5353 70.597V71.8891L43.5552 71.803C43.4673 71.8012 43.3808 71.8252 43.3063 71.872C43.105 71.9991 42.9518 72.1899 42.8713 72.414C42.7323 72.768 42.8102 73.084 43.0552 73.103L44.0342 73.1811L43.0583 74.395C42.9441 74.5114 42.8664 74.6585 42.8346 74.8184C42.8028 74.9782 42.8184 75.1438 42.8793 75.295C42.9703 75.427 43.1393 75.435 43.3133 75.334C43.4113 75.2759 43.4968 75.1992 43.5652 75.1081L44.5413 73.9021V75.1941C44.5413 75.5151 44.7663 75.643 45.0413 75.482C45.1887 75.387 45.3115 75.2584 45.3998 75.1069C45.4881 74.9554 45.5393 74.7851 45.5492 74.61V73.318L46.5213 73.4C46.6099 73.4059 46.6981 73.3835 46.7732 73.336C46.9747 73.2075 47.1289 73.0169 47.2123 72.793C47.3533 72.432 47.2683 72.127 47.0313 72.104Z" fill="#1B69FF"/>
<path d="M54.0273 68.062L53.0483 67.976L54.0244 66.77C54.137 66.6527 54.2136 66.5057 54.2454 66.3462C54.2771 66.1867 54.2625 66.0215 54.2034 65.8701C54.1084 65.7351 53.9384 65.7321 53.7654 65.8311C53.6707 65.888 53.587 65.9615 53.5183 66.0481L52.5424 67.262V65.9701C52.5424 65.6491 52.3104 65.5171 52.0304 65.6781C51.8847 65.7752 51.7637 65.905 51.6769 66.057C51.5901 66.2091 51.54 66.3792 51.5304 66.554V67.846L50.5514 67.7611C50.4641 67.7586 50.378 67.7823 50.3043 67.8291C50.1032 67.9574 49.9497 68.1481 49.8673 68.372C49.7293 68.726 49.8134 69.038 50.0514 69.062L51.0314 69.14L50.0553 70.3541C49.9425 70.4713 49.8657 70.6183 49.834 70.7779C49.8022 70.9374 49.8169 71.1026 49.8763 71.254C49.9673 71.387 50.1353 71.394 50.3103 71.293C50.4081 71.2351 50.4935 71.1583 50.5614 71.067L51.5373 69.861V71.153C51.5373 71.474 51.7693 71.5981 52.0373 71.4401C52.1845 71.3449 52.3072 71.2163 52.3953 71.0648C52.4834 70.9132 52.5344 70.7431 52.5443 70.5681V69.2761L53.5244 69.3541C53.613 69.3618 53.7016 69.3388 53.7754 69.2891C53.9747 69.1617 54.1265 68.9723 54.2074 68.7501C54.3504 68.3901 54.2653 68.085 54.0273 68.062Z" fill="#1B69FF"/>
<path d="M61.0218 64.0226L60.0428 63.9366L61.0188 62.7306C61.1312 62.6132 61.2083 62.4665 61.2412 62.3073C61.2741 62.1482 61.2615 61.9829 61.2048 61.8306C61.1108 61.6956 60.9397 61.6916 60.7647 61.7936C60.6683 61.8514 60.583 61.9259 60.5128 62.0136L59.5367 63.2276V61.9356C59.5367 61.6146 59.3117 61.4787 59.0367 61.6357C58.8891 61.7323 58.7662 61.8623 58.678 62.0151C58.5897 62.168 58.5386 62.3394 58.5288 62.5156V63.8077L57.5558 63.7176C57.4667 63.7176 57.3794 63.7425 57.3038 63.7896C57.1022 63.9182 56.9484 64.1093 56.8658 64.3337C56.7268 64.6877 56.8118 64.9997 57.0498 65.0237L58.0298 65.1017L57.0538 66.3157C56.9412 66.4329 56.8645 66.58 56.8327 66.7395C56.801 66.899 56.8156 67.0642 56.8747 67.2156C56.9657 67.3476 57.1418 67.3516 57.3158 67.2506C57.4129 67.1921 57.498 67.1158 57.5668 67.0256L58.5357 65.8257V67.1166C58.5357 67.4376 58.7677 67.5616 59.0467 67.4006C59.1928 67.3058 59.3144 67.1777 59.4013 67.0268C59.4883 66.8759 59.538 66.7066 59.5467 66.5326V65.2406L60.5257 65.3186C60.6146 65.3249 60.7031 65.3021 60.7778 65.2536C60.9782 65.124 61.132 64.9337 61.2168 64.7106C61.3478 64.3516 61.2708 64.0426 61.0218 64.0226Z" fill="#1B69FF"/>
<path d="M85.7875 90.5255L85.8046 96.4045L74.0386 89.5665L74.0215 83.6875L85.7875 90.5255Z" fill="white"/>
<path d="M86.4714 97.5612L73.3774 89.9512L73.3555 82.5352L86.4554 90.1451L86.4714 97.5612ZM74.7014 89.1871L85.1394 95.2532L85.1274 90.9102L74.6904 84.8452L74.7014 89.1871Z" fill="#1B69FF"/>
<path d="M74.0369 89.5703L85.8029 96.4083L79.9818 99.7693L68.2148 92.9313L74.0369 89.5703Z" fill="white"/>
<path d="M79.9816 100.536L66.8926 92.9297L74.0386 88.8047L87.1256 96.4106L79.9816 100.536ZM69.5396 92.9357L79.9835 99.0057L84.4835 96.4056L74.0396 90.3357L69.5396 92.9357Z" fill="#1B69FF"/>
<path d="M73.8828 77.6016L85.9598 84.2886C88.0248 85.4886 87.2438 88.8636 85.8148 90.4766C85.8042 90.4918 85.7954 90.5082 85.7888 90.5256L74.0228 83.6876C74.1048 83.7386 74.8218 78.1506 73.8828 77.6016Z" fill="white"/>
<path d="M86.0454 91.4454L85.4535 91.1014L73.6885 84.2643L74.0205 83.6894L73.7665 83.0784C73.6796 83.114 73.6016 83.1683 73.538 83.2374C73.4744 83.3065 73.4267 83.3888 73.3984 83.4783C73.5834 82.7693 73.9164 78.7253 73.4814 78.1263C73.5001 78.1481 73.5225 78.1664 73.5475 78.1804L74.2014 77.0273L86.2865 83.7184C86.7043 83.9641 87.0602 84.3024 87.3268 84.7072C87.5934 85.1119 87.7637 85.5725 87.8245 86.0533C87.9194 86.9121 87.8385 87.7812 87.587 88.6077C87.3355 89.4343 86.9186 90.201 86.3615 90.8614L86.0454 91.4454ZM74.7455 83.3453L85.6115 89.6594C86.3068 88.6694 86.626 87.4637 86.5115 86.2593C86.4813 85.973 86.3852 85.6975 86.2306 85.4546C86.076 85.2117 85.8671 85.0079 85.6205 84.8594L74.9855 78.9714C75.0747 80.434 74.9951 81.902 74.7484 83.3464L74.7455 83.3453Z" fill="#1B69FF"/>
<path d="M66.1075 94.0296C65.8775 93.8966 98.7845 69.0856 98.9825 69.2006L87.2165 62.3626C86.7103 62.1453 86.1573 62.0595 85.6091 62.1132C85.0608 62.1669 84.535 62.3583 84.0805 62.6696L61.3486 75.7926C57.6736 77.9146 53.8586 80.3556 53.7136 85.1186C53.7136 85.1856 53.7136 85.2526 53.7136 85.3186V104.68C53.6653 105.224 53.7586 105.771 53.9844 106.269C54.2103 106.766 54.561 107.197 55.0025 107.519L66.7685 114.357C65.9535 113.884 65.5966 98.4566 65.5046 93.6056L66.1075 94.0296Z" fill="#1B69FF"/>
<path d="M66.4356 114.931H66.4266L54.6696 108.099C54.1201 107.727 53.6802 107.214 53.3953 106.614C53.1105 106.014 52.9912 105.35 53.0496 104.688V85.2602C53.0496 85.2082 53.0496 85.1602 53.0496 85.1032C53.2006 80.1362 56.9036 77.5942 61.0156 75.2202L83.7465 62.0962C84.3015 61.7261 84.9419 61.5037 85.6069 61.4502C86.2718 61.3966 86.9395 61.5136 87.5466 61.7902L87.8765 61.9812L99.3116 68.6262L98.6456 69.7732C98.7385 69.8279 98.8435 69.8585 98.9512 69.8624C99.059 69.8662 99.1661 69.8431 99.2626 69.7952C97.8626 70.5862 67.6446 93.4022 66.6036 94.4542C66.6655 94.3848 66.7115 94.3028 66.7385 94.2139C66.7654 94.1249 66.7726 94.0312 66.7596 93.9392L66.1725 94.0172C66.3925 105.26 66.8205 113.063 67.2725 113.943C67.2311 113.875 67.1725 113.82 67.1026 113.782L66.4356 114.931ZM86.0826 62.7422C85.4929 62.7666 84.9187 62.9385 84.4125 63.2422L61.6796 76.3672C57.7606 78.6302 54.5056 80.8522 54.3796 85.1392V104.68C54.3401 105.108 54.4069 105.538 54.5743 105.933C54.7416 106.328 55.0042 106.676 55.3386 106.945L65.7576 113C65.4186 110.7 65.0715 105.529 64.8445 93.6192L64.8196 92.3132L66.0696 93.1912C67.1816 92.2642 70.7116 89.4992 82.1906 80.8392C86.4266 77.6392 90.4115 74.6542 93.4125 72.4232C95.6125 70.7862 96.9286 69.8102 97.7416 69.2452L88.7236 64.0042C87.7316 63.4272 87.1926 63.1152 86.9016 62.9042L86.8856 62.9312C86.6393 62.7982 86.3623 62.733 86.0826 62.7422Z" fill="#1B69FF"/>
<path d="M69.8225 84.5317L95.8464 69.5067C98.2814 68.1007 100.264 69.2307 100.272 72.0387V91.3997C100.204 92.9235 99.774 94.4092 99.0192 95.7348C98.2643 97.0603 97.2058 98.1878 95.9304 99.0247L69.9065 114.05C67.4715 115.456 65.4885 114.326 65.4805 111.518V92.1577C65.5492 90.6337 65.9786 89.1477 66.7334 87.822C67.4882 86.4962 68.547 85.3686 69.8225 84.5317ZM79.9664 93.8877V99.7667L85.8054 96.4057L85.7885 90.5267C86.4075 89.433 86.7507 88.2049 86.7885 86.9487C86.7815 84.4617 85.0204 83.4677 82.8564 84.7177C81.7182 85.4556 80.7708 86.4527 80.0919 87.6271C79.413 88.8015 79.0219 90.12 78.9504 91.4747C78.9103 91.9292 78.982 92.3867 79.1591 92.8073C79.3361 93.2278 79.6133 93.5987 79.9664 93.8877Z" fill="white"/>
<path d="M67.9274 115.321C67.4084 115.326 66.8974 115.193 66.4465 114.936C65.894 114.565 65.4513 114.052 65.1647 113.451C64.8782 112.85 64.7583 112.183 64.8175 111.52V92.1589C64.8834 90.518 65.3423 88.9168 66.1555 87.4899C66.9686 86.0631 68.1122 84.8521 69.4904 83.9589L95.5154 68.934C96.0389 68.5045 96.6804 68.2442 97.355 68.1875C98.0297 68.1308 98.7058 68.2805 99.2935 68.6166C99.8812 68.9528 100.353 69.4596 100.646 70.0698C100.939 70.6801 101.04 71.365 100.935 72.0339V91.4009C100.87 93.0421 100.411 94.6434 99.5972 96.0703C98.7839 97.4972 97.6399 98.708 96.2614 99.601L70.2375 114.621C69.542 115.052 68.7454 115.294 67.9274 115.321ZM70.1534 85.1069C68.9772 85.8832 68.0011 86.9263 67.3043 88.1512C66.6074 89.3761 66.2097 90.7483 66.1435 92.156V111.521C66.0366 111.955 66.0739 112.411 66.2501 112.822C66.4262 113.232 66.7315 113.574 67.1196 113.796C67.5076 114.017 67.9573 114.106 68.4003 114.048C68.8434 113.991 69.2555 113.791 69.5744 113.478L95.5985 98.4529C96.7747 97.6767 97.751 96.6337 98.4478 95.4088C99.1447 94.1838 99.5423 92.8116 99.6085 91.4039V72.0399C99.7154 71.6062 99.6779 71.1494 99.5018 70.7389C99.3256 70.3284 99.0203 69.9865 98.6323 69.7652C98.2442 69.5439 97.7947 69.4552 97.3516 69.5125C96.9086 69.5699 96.4963 69.7701 96.1774 70.083L70.1534 85.1069ZM79.3024 100.915V94.205C78.9538 93.8448 78.6835 93.4165 78.5085 92.9468C78.3335 92.4772 78.2576 91.9764 78.2855 91.476C78.3535 90.0037 78.7738 88.5693 79.5113 87.2933C80.2488 86.0172 81.2817 84.9369 82.5234 84.143C83.0205 83.792 83.6027 83.5809 84.2092 83.5317C84.8157 83.4824 85.4243 83.5968 85.9715 83.863C86.4718 84.1973 86.8729 84.6599 87.1331 85.2025C87.3933 85.745 87.5029 86.3475 87.4504 86.947C87.4162 88.2563 87.0736 89.539 86.4504 90.6909L86.4675 96.791L79.3024 100.915ZM84.6204 84.843C84.1117 84.8666 83.6178 85.0212 83.1865 85.2919C82.1462 85.9679 81.2801 86.88 80.6589 87.9539C80.0377 89.0278 79.6787 90.2331 79.6114 91.4719C79.5755 91.8195 79.6232 92.1706 79.7503 92.496C79.8775 92.8214 80.0805 93.1118 80.3425 93.343L80.6285 93.543V98.6229L85.1395 96.023L85.1235 90.3599L85.2034 90.212C85.7698 89.2152 86.0855 88.0958 86.1235 86.95C86.1681 86.584 86.1165 86.2128 85.9737 85.8729C85.8309 85.5331 85.6019 85.2363 85.3094 85.012C85.0988 84.8965 84.8615 84.8386 84.6214 84.8439L84.6204 84.843Z" fill="#1B69FF"/>
<path d="M73.6214 57.6719L78.1353 55.0659C82.2733 52.6769 85.6473 54.5999 85.6613 59.3459V69.7349L81.0684 72.3979V62.0079C81.0634 60.1839 79.7453 59.4439 78.1503 60.3649L73.6364 62.9719C72.8001 63.5172 72.1046 64.2525 71.6067 65.1178C71.1088 65.9831 70.8226 66.9539 70.7714 67.9509V78.3429L66.1443 81.0059V70.6139C66.0543 63.1279 69.4834 60.0609 73.6214 57.6719Z" fill="#F2F5FC"/>
<path d="M65.4824 82.1528V70.6138C65.3824 62.7538 69.1824 59.4718 73.2904 57.0978L77.8044 54.4908C80.0264 53.2078 82.1535 53.0208 83.7915 53.9638C85.4295 54.9068 86.3174 56.8108 86.3244 59.3438V70.1198L80.4055 73.5518V62.0088C80.4342 61.7705 80.4016 61.5289 80.311 61.3066C80.2204 61.0844 80.0746 60.889 79.8874 60.7388C79.6561 60.6517 79.4066 60.6244 79.1618 60.6594C78.9171 60.6943 78.6851 60.7904 78.4874 60.9388L73.9735 63.5458C73.2395 64.0331 72.6285 64.6842 72.1888 65.4477C71.7491 66.2112 71.4926 67.0663 71.4394 67.9458V78.7228L65.4824 82.1528ZM73.9535 58.2468C70.4535 60.2708 66.7174 63.0608 66.8084 70.6058V79.8588L70.1085 77.9588V67.9518C70.1585 66.8376 70.4751 65.7518 71.032 64.7855C71.5888 63.8192 72.3695 63.0007 73.3084 62.3988L77.8235 59.7928C78.2197 59.5203 78.6813 59.3582 79.1609 59.3231C79.6404 59.2879 80.1207 59.381 80.5525 59.5928C80.9489 59.8519 81.268 60.2133 81.4762 60.6387C81.6844 61.0641 81.774 61.5377 81.7355 62.0098V71.2528L85.0014 69.3588V59.3488C84.9964 57.3108 84.3324 55.8068 83.1334 55.1168C81.9344 54.4268 80.2664 54.6068 78.4714 55.6438L73.9535 58.2468Z" fill="#1B69FF"/>
<path d="M46.3306 42.1398C46.3156 42.1398 46.3158 42.1568 46.3158 42.1398C44.5688 43.2078 42.9507 46.5398 42.7157 49.5638C42.5027 52.5868 43.7158 54.1637 45.4458 53.1467C45.4618 53.1467 45.4627 53.1318 45.4777 53.1318C47.2237 52.0638 48.8427 48.7318 49.0777 45.7078C49.2907 42.7008 48.0776 41.1017 46.3306 42.1417" fill="#1B69FF"/>
<path d="M45.2525 54.9088C45.2375 54.9258 45.2205 54.9248 45.2205 54.9418H45.2025C43.8838 55.8544 42.7933 57.0585 42.0154 58.4608C40.6631 60.7303 39.8012 63.2579 39.4854 65.8808C39.4607 66.0522 39.4431 66.2238 39.4324 66.3958L39.3945 66.8958C39.3675 67.1618 39.4855 67.2958 39.6595 67.1958L49.6094 61.1688C49.8053 60.9955 49.9272 60.7535 49.9495 60.4928C50.3225 55.6378 48.2225 53.1468 45.2495 54.9098" fill="#1B69FF"/>
</svg>
