<svg width="145" height="146" viewBox="0 0 145 146" fill="none" xmlns="http://www.w3.org/2000/svg">
<g clip-path="url(#clip0_9_81048)">
<path d="M56.4753 2.86513C58.4021 2.35785 60.241 1.89065 62.0709 1.38852C65.7341 0.384274 69.4731 -0.0256712 73.2558 0.00123865C81.7624 0.0630739 89.7639 2.14372 97.0783 6.54776C109.621 14.0997 117.307 25.1802 120.206 39.6514C120.622 41.732 120.252 43.7732 119.916 45.8034C118.255 55.8156 113.813 64.3769 106.677 71.5132C106.39 71.8 106.094 72.0771 105.799 72.3565C105.768 72.3863 105.724 72.4012 105.6 72.471C105.889 71.4679 106.164 70.5335 106.427 69.5951C107.548 65.5816 108.161 61.4896 108.319 57.3203C108.595 49.9848 107.464 42.8806 104.747 36.0787C104.007 34.2248 102.991 32.4258 101.808 30.8227C99.0067 27.0215 96.2452 23.1523 93.0799 19.6706C85.2398 11.0451 75.4533 5.84353 64.056 3.79151C61.5997 3.34893 59.0964 3.17774 56.4753 2.86513ZM95.8278 49.718C87.5137 34.0845 74.9951 24.2412 57.6964 21.0499C40.4045 17.8596 25.2936 22.6358 12.0925 34.2483C12.7087 33.1301 13.283 31.9855 13.949 30.8988C21.2997 18.9022 31.7631 11.2221 45.4603 8.49271C59.238 5.74791 72.0563 8.50989 83.6569 16.5886C84.7873 17.3764 85.6799 18.577 86.5306 19.7032C91.3412 26.0757 94.3666 33.2354 95.4081 41.1887C95.7514 43.811 95.7462 46.4802 95.8941 49.1277C95.9031 49.2977 95.8567 49.4706 95.8278 49.718ZM71.58 40.0591C55.1302 35.0149 39.44 36.7366 25.1334 46.7493C10.8386 56.754 3.66972 70.9464 2.59251 88.5116C2.45489 88.0896 2.34162 87.7501 2.23288 87.4083C2.11678 87.0419 1.99501 86.6754 1.8925 86.3044C0.578564 81.5523 -0.154297 76.705 0.0382627 71.7766C0.525326 59.2967 4.93722 48.4354 13.5282 39.4023C19.7972 32.8117 27.3523 28.3939 36.1161 26.1198C37.5269 25.7533 38.9592 25.3732 40.4011 25.2569C41.6822 25.1533 43.0035 25.3285 44.2874 25.5157C53.4697 26.8589 61.5538 30.6297 68.4865 36.8688C69.604 37.8742 70.5883 39.029 71.58 40.0579V40.0591ZM110.892 12.9763C116.159 15.5729 120.739 19.0368 124.702 23.328C131.226 30.3916 135.362 38.6952 136.895 48.2265C139.007 61.3539 136.345 73.4684 128.75 84.3646C127.76 85.784 126.221 86.8644 124.8 87.9121C118.351 92.666 111.127 95.4887 103.202 96.4007C100.808 96.6767 98.3855 96.6899 95.9768 96.7426C111.233 88.3994 121.148 75.9413 124.255 58.6068C127.361 41.2855 122.445 26.1226 110.892 12.9763ZM48.6744 49.9321C33.4644 58.1917 23.5566 70.6183 20.4542 87.9367C17.3579 105.215 22.2223 120.364 33.6796 133.441L33.5664 133.608C31.515 132.324 29.3872 131.148 27.4254 129.737C17.5788 122.658 11.0906 113.185 8.40896 101.273C5.20906 87.0579 7.81429 73.8824 16.0983 61.9041C16.377 61.501 16.7462 61.1483 17.1212 60.83C24.1309 54.8675 32.1867 51.2948 41.2778 50.1886C43.7222 49.892 46.1994 49.8788 48.6625 49.7357L48.6744 49.9321ZM87.247 143.156C85.8991 143.536 84.5585 143.947 83.2004 144.292C78.8582 145.397 74.431 145.895 69.9738 145.623C53.4663 144.612 40.6135 137.095 31.5031 123.146C27.9691 117.734 25.7541 111.749 24.7618 105.349C24.5313 103.863 24.7686 102.269 24.9844 100.753C26.1607 92.4811 29.3181 85.0471 34.4855 78.5229C35.872 76.7738 37.4787 75.2021 38.9875 73.552C39.0894 73.441 39.2197 73.3574 39.3647 73.2383C34.3321 90.0099 36.0476 105.871 45.9604 120.332C55.8739 134.793 69.92 142.045 87.247 143.156ZM49.0754 96.4815C57.2943 111.942 69.6011 121.921 86.6993 125.055C103.803 128.19 118.792 123.248 131.805 111.676C131.204 112.775 130.643 113.898 129.995 114.968C123.101 126.354 113.309 133.911 100.47 137.068C86.3765 140.534 73.2507 137.996 61.2655 129.679C60.7009 129.287 60.1872 128.784 59.7466 128.25C54.3379 121.707 50.9426 114.23 49.5919 105.805C49.119 102.859 48.9479 99.8984 49.0289 96.9195C49.0318 96.8072 49.0516 96.695 49.0754 96.4815ZM142.631 57.255C143.204 59.7902 143.865 62.3095 144.33 64.8642C145.086 69.0192 145.154 73.2251 144.746 77.4202C144.091 84.1442 142.146 90.4817 138.826 96.3595C133.382 105.996 125.601 112.993 115.498 117.339C112.117 118.794 108.611 119.874 104.974 120.361C103.537 120.554 102.016 120.338 100.559 120.127C93.4406 119.096 86.9123 116.504 80.9916 112.369C78.3273 110.508 75.8659 108.367 73.6489 105.981C73.5328 105.856 73.4314 105.716 73.3226 105.582C89.8834 110.661 105.571 108.946 119.879 98.9383C134.174 88.9416 141.353 74.7561 142.423 57.3197L142.631 57.255ZM53.0789 94.3837C56.1389 97.1949 59.4617 99.6202 63.0405 101.696C63.2608 101.824 63.4443 102.055 63.5876 102.275C67.9757 109.036 73.6064 114.478 80.5012 118.581C80.6246 118.654 80.7424 118.738 80.8217 118.869C68.3268 114.473 59.0874 106.296 53.0789 94.3837ZM91.8356 51.2135C90.8462 50.373 89.906 49.4615 88.8566 48.7051C86.6829 47.1392 84.4486 45.6603 82.2472 44.1345C81.9584 43.9341 81.6497 43.7108 81.4628 43.4245C77.1104 36.7257 71.5403 31.3162 64.7288 27.2145C64.5793 27.124 64.4343 27.0238 64.3357 26.8681C76.7242 31.2481 85.8912 39.3634 91.8356 51.2135ZM118.537 63.6492C114.129 76.2384 106.105 85.5458 94.3457 91.5879C94.4572 91.4413 94.558 91.2862 94.6798 91.1499C97.2227 88.3101 99.4258 85.224 101.318 81.9067C101.491 81.6044 101.74 81.3055 102.025 81.1165C108.731 76.6621 114.128 70.9509 118.201 63.9613C118.258 63.8645 118.324 63.7735 118.389 63.6824C118.397 63.671 118.423 63.6744 118.537 63.6492ZM50.6317 54.0441C49.2288 55.8591 47.7762 57.6466 46.4294 59.512C45.4785 60.8277 44.6861 62.2602 43.789 63.6183C43.524 64.0191 43.1955 64.4227 42.8047 64.6855C36.286 69.0713 30.9996 74.6387 26.9904 81.4412C26.8806 81.6284 26.7554 81.8059 26.5645 82.1002C30.0266 70.7809 39.0668 59.6362 50.6317 54.0441ZM33.7283 46.9583C45.564 41.1383 57.7355 40.335 70.2298 44.4133C66.6187 44.612 63.0473 45.0992 59.554 46.037C58.3647 46.3559 57.2563 46.3519 56.0619 46.1269C48.6953 44.7431 41.373 44.9887 34.1123 46.8901C33.9877 46.9228 33.8563 46.9359 33.7283 46.9583ZM43.5919 74.7378C43.8694 77.0555 44.1022 79.4201 44.4551 81.7664C44.6827 83.2871 45.0531 84.79 45.4258 86.2838C45.5895 86.9417 45.6127 87.5549 45.4785 88.2156C44.527 92.8916 44.1532 97.6208 44.6267 102.37C44.941 105.52 45.5345 108.642 45.9389 111.352C44.5417 109.059 41.706 101.494 41.215 93.5368C40.8168 87.0934 41.5842 80.8137 43.5919 74.7378ZM98.9133 33.7753C104.632 45.9638 105.433 58.3033 101.464 70.9504C101.133 68.3825 100.828 65.8031 100.458 63.2335C100.304 62.16 100.097 61.0779 99.7634 60.0496C99.3975 58.9217 99.4661 57.8493 99.6841 56.7174C100.715 51.3491 100.888 45.9477 100.103 40.5331C99.7849 38.3397 99.3381 36.1646 98.9133 33.7753ZM74.721 101.244C78.8406 101.091 82.8668 100.355 86.8568 99.3305C87.379 99.1965 88.0008 99.3912 88.5649 99.5011C96.1161 100.973 103.61 100.702 111.051 98.7654C111.177 98.7322 111.304 98.707 111.439 98.7436C99.5397 104.545 87.2985 105.352 74.721 101.245V101.244Z" fill="#265597"/>
</g>
<defs>
<clipPath id="clip0_9_81048">
<rect width="145" height="146" fill="white"/>
</clipPath>
</defs>
</svg>
